# Blender v2.79 (sub 0) OBJ File: ''
# www.blender.org
o Plane
v 0.435521 -1.093890 1.996668
v -0.275431 -1.093890 1.386988
v 0.435521 11.703747 1.996668
v -0.275431 11.703747 1.386988
v -0.224794 -1.093890 2.047304
v 0.384885 -1.093890 1.336352
v -0.224795 11.703747 2.047304
v 0.384885 11.703747 1.336352
v 0.436423 -1.077021 0.438192
v 0.025503 -1.077021 -0.403418
v 0.436422 11.720619 0.168200
v 0.025502 11.720619 -0.673410
v -0.189842 -1.077021 0.222847
v 0.651767 -1.077021 -0.188073
v -0.189842 11.720619 -0.047145
v 0.651767 11.720619 -0.458065
v -1.879491 -1.077021 0.835002
v -1.000591 -1.077021 1.158571
v -1.879491 9.771880 1.190873
v -1.000591 9.771880 1.514441
v -1.278257 -1.077021 0.557336
v -1.601826 -1.077021 1.436236
v -1.278256 9.771880 0.913207
v -1.601825 9.771880 1.792107
v -0.912388 -1.077021 -1.791909
v -0.033488 -1.077021 -1.468339
v -0.912388 10.004433 -1.791909
v -0.033488 10.004433 -1.468340
v -0.311154 -1.077021 -2.069575
v -0.634723 -1.077021 -1.190674
v -0.311154 10.004433 -2.069575
v -0.634722 10.004433 -1.190674
v 0.984330 -1.077584 -1.170375
v 1.777896 -1.077584 -0.672966
v 0.984330 11.096101 -1.170375
v 1.777896 11.096101 -0.672967
v 1.629817 -1.077584 -1.318454
v 1.132409 -1.077584 -0.524888
v 1.629818 11.096101 -1.318454
v 1.132409 11.096101 -0.524888
v -0.511336 -1.077584 2.863279
v 0.367564 -1.077584 3.186847
v -0.511336 10.369587 2.863278
v 0.367564 10.369587 3.186847
v 0.089899 -1.077584 2.585612
v -0.233670 -1.077584 3.464512
v 0.089899 10.369587 2.585613
v -0.233670 10.369587 3.464513
v -4.753279 -1.077584 1.106410
v -4.070967 -1.077584 1.747981
v -4.753277 11.082897 1.471388
v -4.070966 11.082897 2.112959
v -4.091336 -1.077584 1.086039
v -4.732907 -1.077584 1.768351
v -4.091336 11.082897 1.451018
v -4.732907 11.082897 2.133329
v -3.997913 -1.077584 -1.053356
v -3.119013 -1.077584 -0.729787
v -4.276566 11.720055 -1.053357
v -3.397666 11.720055 -0.729788
v -3.396678 -1.077584 -1.331022
v -3.720247 -1.077584 -0.452122
v -3.675331 11.720055 -1.331022
v -3.998900 11.720055 -0.452122
v 2.067676 -1.106006 1.197867
v 2.946576 -1.106006 1.521436
v 1.358569 10.409848 1.197867
v 2.237469 10.409848 1.521435
v 2.668911 -1.106006 0.920201
v 2.345342 -1.106006 1.799101
v 1.959804 10.409848 0.920201
v 1.636235 10.409848 1.799101
v 3.081815 -1.105471 -1.674067
v 3.960716 -1.105471 -1.350498
v 2.505289 12.568594 -1.674068
v 3.384188 12.568594 -1.350498
v 3.683049 -1.105471 -1.951733
v 3.359481 -1.105471 -1.072833
v 3.106523 12.568594 -1.951733
v 2.782954 12.568594 -1.072833
v -1.748567 -1.105471 -3.861056
v -1.509205 -1.105471 -2.955590
v -1.748566 10.506969 -3.486480
v -1.509205 10.506969 -2.581014
v -1.176153 -1.105471 -3.528003
v -2.081619 -1.105471 -3.288642
v -1.176153 10.506969 -3.153427
v -2.081618 10.506969 -2.914065
v -1.230584 -1.131454 4.361698
v -0.351684 -1.131454 4.685267
v -1.230583 11.666183 4.361698
v -0.351683 11.666183 4.685266
v -0.629349 -1.131454 4.084032
v -0.952918 -1.131454 4.962933
v -0.629349 11.666183 4.084032
v -0.952917 11.666183 4.962933
v -3.638069 -1.131454 2.070694
v -2.966533 -1.131454 2.723535
v -3.638069 12.740347 2.070694
v -2.966532 12.740347 2.723535
v -2.975880 -1.131454 2.061347
v -3.628722 -1.131454 2.732883
v -2.975880 12.740347 2.061347
v -3.628722 12.740347 2.732883
v 1.343192 -1.155848 4.160203
v 2.222092 -1.155848 4.483772
v 1.343192 11.641789 3.844667
v 2.222092 11.641789 4.168236
v 1.944427 -1.155848 3.882537
v 1.620858 -1.155848 4.761437
v 1.944427 11.641789 3.567001
v 1.620858 11.641789 4.445901
v 0.510525 -1.180242 -3.661290
v 1.389424 -1.180242 -3.337721
v 0.510525 12.773629 -3.081035
v 1.389424 12.773629 -2.757466
v 1.111760 -1.180242 -3.938956
v 0.788190 -1.180242 -3.060055
v 1.111760 12.773629 -3.358701
v 0.788190 12.773629 -2.479800
v 4.979316 -1.153970 -3.114259
v 5.858214 -1.153970 -2.790690
v 4.979316 10.400700 -2.623863
v 5.858215 10.400700 -2.300294
v 5.580551 -1.153970 -3.391925
v 5.256980 -1.153970 -2.513025
v 5.580551 10.400700 -2.901529
v 5.256980 10.400700 -2.022628
v -3.235529 -1.182818 -6.153447
v -2.356629 -1.182818 -5.829879
v -2.854142 10.118875 -6.153447
v -1.975242 10.118875 -5.829880
v -2.634294 -1.182818 -6.431114
v -2.957864 -1.182818 -5.552214
v -2.252908 10.118875 -6.431114
v -2.576477 10.118875 -5.552214
vt 0.333739 0.378863
vt 0.266987 0.904666
vt 0.266988 0.378863
vt 0.333739 0.378863
vt 0.266987 0.904666
vt 0.266988 0.378863
vt 0.333739 0.378863
vt 0.266987 0.904666
vt 0.266988 0.378863
vt 0.333739 0.378863
vt 0.266987 0.904666
vt 0.266988 0.378863
vt 0.333739 0.378863
vt 0.266987 0.904666
vt 0.266988 0.378863
vt 0.333739 0.378863
vt 0.266987 0.904666
vt 0.266988 0.378863
vt 0.333739 0.378863
vt 0.266987 0.904666
vt 0.266988 0.378863
vt 0.333739 0.378863
vt 0.266987 0.904666
vt 0.266988 0.378863
vt 0.333739 0.378863
vt 0.266987 0.904666
vt 0.266988 0.378863
vt 0.333739 0.378863
vt 0.266987 0.904666
vt 0.266988 0.378863
vt 0.266988 0.378863
vt 0.333739 0.904666
vt 0.266987 0.904666
vt 0.333739 0.378863
vt 0.266987 0.904666
vt 0.266988 0.378863
vt 0.333739 0.378863
vt 0.266987 0.904666
vt 0.266988 0.378863
vt 0.333739 0.378863
vt 0.266987 0.904666
vt 0.266988 0.378863
vt 0.266988 0.378863
vt 0.333739 0.904666
vt 0.266987 0.904666
vt 0.333739 0.378863
vt 0.266987 0.904666
vt 0.266988 0.378863
vt 0.266988 0.378863
vt 0.333739 0.904666
vt 0.266987 0.904666
vt 0.333739 0.378863
vt 0.266987 0.904666
vt 0.266988 0.378863
vt 0.266988 0.378863
vt 0.333739 0.904666
vt 0.266987 0.904666
vt 0.333739 0.378863
vt 0.266987 0.904666
vt 0.266988 0.378863
vt 0.333739 0.378863
vt 0.266987 0.904666
vt 0.266988 0.378863
vt 0.333739 0.378863
vt 0.266987 0.904666
vt 0.266988 0.378863
vt 0.333739 0.378863
vt 0.266987 0.904666
vt 0.266988 0.378863
vt 0.333739 0.378863
vt 0.266987 0.904666
vt 0.266988 0.378863
vt 0.266988 0.378863
vt 0.333739 0.904666
vt 0.266987 0.904666
vt 0.333739 0.378863
vt 0.266987 0.904666
vt 0.266988 0.378863
vt 0.266988 0.378863
vt 0.333739 0.904666
vt 0.266987 0.904666
vt 0.266988 0.378863
vt 0.333739 0.904666
vt 0.266987 0.904666
vt 0.333739 0.378863
vt 0.266987 0.904666
vt 0.266988 0.378863
vt 0.333739 0.378863
vt 0.266987 0.904666
vt 0.266988 0.378863
vt 0.333739 0.378863
vt 0.266987 0.904666
vt 0.266988 0.378863
vt 0.333739 0.378863
vt 0.266987 0.904666
vt 0.266988 0.378863
vt 0.333739 0.378863
vt 0.266987 0.904666
vt 0.266988 0.378863
vt 0.266988 0.378863
vt 0.333739 0.904666
vt 0.266987 0.904666
vt 0.333739 0.904666
vt 0.333739 0.904666
vt 0.333739 0.904666
vt 0.333739 0.904666
vt 0.333739 0.904666
vt 0.333739 0.904666
vt 0.333739 0.904666
vt 0.333739 0.904666
vt 0.333739 0.904666
vt 0.333739 0.904666
vt 0.333739 0.378863
vt 0.333739 0.904666
vt 0.333739 0.904666
vt 0.333739 0.904666
vt 0.333739 0.378863
vt 0.333739 0.904666
vt 0.333739 0.378863
vt 0.333739 0.904666
vt 0.333739 0.378863
vt 0.333739 0.904666
vt 0.333739 0.904666
vt 0.333739 0.904666
vt 0.333739 0.904666
vt 0.333739 0.904666
vt 0.333739 0.378863
vt 0.333739 0.904666
vt 0.333739 0.378863
vt 0.333739 0.378863
vt 0.333739 0.904666
vt 0.333739 0.904666
vt 0.333739 0.904666
vt 0.333739 0.904666
vt 0.333739 0.904666
vt 0.333739 0.378863
vn 0.6510 0.0000 -0.7591
vn 0.7591 0.0000 0.6510
vn 0.8986 -0.0093 -0.4387
vn 0.4387 0.0190 0.8984
vn -0.3453 -0.0308 0.9380
vn -0.9384 0.0113 -0.3455
vn -0.3455 0.0000 0.9384
vn -0.9384 0.0000 -0.3455
vn -0.5311 0.0000 0.8473
vn -0.8473 0.0000 -0.5311
vn -0.6849 -0.0219 0.7283
vn -0.7284 0.0206 -0.6849
vn -0.3455 -0.0075 0.9384
vn -0.9382 -0.0204 -0.3454
vn -0.3454 -0.0213 0.9382
vn -0.9369 -0.0577 -0.3449
vn -0.3454 -0.0146 0.9383
vn -0.9377 -0.0395 -0.3452
vn -0.9668 -0.0082 0.2556
vn -0.2554 0.0312 -0.9663
vn -0.6971 -0.0000 0.7170
vn -0.7170 0.0000 -0.6971
vn -0.3454 0.0231 0.9382
vn -0.9384 -0.0085 -0.3455
vn -0.3452 -0.0390 0.9377
vn -0.9383 0.0144 -0.3454
vn -0.3452 -0.0398 0.9377
vn -0.9383 0.0147 -0.3454
vn -0.3455 0.0117 0.9384
vn -0.9380 0.0317 -0.3453
s off
f 2/1/1 3/2/1 1/3/1
f 6/4/2 7/5/2 5/6/2
f 10/7/3 11/8/3 9/9/3
f 14/10/4 15/11/4 13/12/4
f 18/13/5 19/14/5 17/15/5
f 22/16/6 23/17/6 21/18/6
f 26/19/7 27/20/7 25/21/7
f 30/22/8 31/23/8 29/24/8
f 34/25/9 35/26/9 33/27/9
f 38/28/10 39/29/10 37/30/10
f 41/31/7 44/32/7 43/33/7
f 46/34/8 47/35/8 45/36/8
f 50/37/11 51/38/11 49/39/11
f 54/40/12 55/41/12 53/42/12
f 57/43/13 60/44/13 59/45/13
f 62/46/14 63/47/14 61/48/14
f 65/49/15 68/50/15 67/51/15
f 70/52/16 71/53/16 69/54/16
f 73/55/17 76/56/17 75/57/17
f 78/58/18 79/59/18 77/60/18
f 82/61/19 83/62/19 81/63/19
f 86/64/20 87/65/20 85/66/20
f 90/67/7 91/68/7 89/69/7
f 94/70/8 95/71/8 93/72/8
f 97/73/21 100/74/21 99/75/21
f 102/76/22 103/77/22 101/78/22
f 105/79/23 108/80/23 107/81/23
f 109/82/24 112/83/24 111/84/24
f 114/85/25 115/86/25 113/87/25
f 118/88/26 119/89/26 117/90/26
f 122/91/27 123/92/27 121/93/27
f 126/94/28 127/95/28 125/96/28
f 130/97/29 131/98/29 129/99/29
f 133/100/30 136/101/30 135/102/30
f 2/1/1 4/103/1 3/2/1
f 6/4/2 8/104/2 7/5/2
f 10/7/3 12/105/3 11/8/3
f 14/10/4 16/106/4 15/11/4
f 18/13/5 20/107/5 19/14/5
f 22/16/6 24/108/6 23/17/6
f 26/19/7 28/109/7 27/20/7
f 30/22/8 32/110/8 31/23/8
f 34/25/9 36/111/9 35/26/9
f 38/28/10 40/112/10 39/29/10
f 41/31/7 42/113/7 44/32/7
f 46/34/8 48/114/8 47/35/8
f 50/37/11 52/115/11 51/38/11
f 54/40/12 56/116/12 55/41/12
f 57/43/13 58/117/13 60/44/13
f 62/46/14 64/118/14 63/47/14
f 65/49/15 66/119/15 68/50/15
f 70/52/16 72/120/16 71/53/16
f 73/55/17 74/121/17 76/56/17
f 78/58/18 80/122/18 79/59/18
f 82/61/19 84/123/19 83/62/19
f 86/64/20 88/124/20 87/65/20
f 90/67/7 92/125/7 91/68/7
f 94/70/8 96/126/8 95/71/8
f 97/73/21 98/127/21 100/74/21
f 102/76/22 104/128/22 103/77/22
f 105/79/23 106/129/23 108/80/23
f 109/82/24 110/130/24 112/83/24
f 114/85/25 116/131/25 115/86/25
f 118/88/26 120/132/26 119/89/26
f 122/91/27 124/133/27 123/92/27
f 126/94/28 128/134/28 127/95/28
f 130/97/29 132/135/29 131/98/29
f 133/100/30 134/136/30 136/101/30
