# Blender v2.79 (sub 0) OBJ File: ''
# www.blender.org
o obj3
v -12.585958 12.794875 7.149460
v -13.724020 11.188408 10.901214
v -10.398872 12.960930 10.605742
v -11.218390 11.752502 16.375593
v -11.597816 10.615930 21.006384
v -6.249341 10.506006 21.106289
v -4.462704 13.130543 13.073973
v -2.871645 12.264060 13.053014
v -3.940959 13.161986 12.352381
v -14.319482 8.852109 -17.141653
v -14.249796 1.384861 -15.692070
v -15.078947 9.356402 -15.862735
v -3.903383 -10.286099 -18.320986
v -4.300103 -9.876766 -13.676852
v -8.348044 -9.012613 -5.580081
v -7.655058 -1.956771 -20.269444
v -7.803875 -4.636573 -19.810886
v -8.837917 -2.876339 -19.298048
v -8.350162 8.015949 -21.997131
v -10.832279 1.318349 -18.555347
v -2.837367 -4.197177 -19.930073
v -7.590322 -9.949669 -18.960609
v -15.043703 11.188517 -14.372667
v -12.116022 12.882626 -14.472264
v -14.082451 10.985618 -16.906059
v -11.187505 14.864817 -12.077052
v -10.410590 15.746548 -10.699038
v -6.449155 17.885733 -15.403871
v -0.961385 12.982236 -22.049656
v -8.216162 12.025880 -22.513954
v -3.623795 16.809799 -18.180172
v -6.588346 16.708330 -17.919985
v -4.739291 18.051752 -16.713406
v 0.194968 16.124313 -4.528031
v -4.788814 14.475629 3.770502
v -0.561481 14.046947 5.570224
v 9.671235 1.245793 8.876671
v 10.412067 3.329107 23.102350
v 9.620710 -3.574628 14.482467
v 9.744856 3.863373 9.812488
v 10.362621 10.021832 18.031197
v 10.066772 5.463468 16.490538
v 9.775387 10.372465 18.944582
v 10.019987 12.091199 11.040757
v 8.932399 2.265158 -20.999002
v 4.954765 -1.860872 -20.378733
v 5.026100 2.381603 -20.952353
v 14.716556 -6.393782 -14.394845
v 14.493097 -2.394942 -15.592357
v 15.380291 7.123115 -15.839605
v 14.003832 16.250183 -10.123205
v 14.425112 15.227378 -8.207553
v 15.232648 12.815604 -13.745934
v 13.166519 16.668282 -7.475724
v 13.372731 15.926437 -4.616577
v 12.623369 13.934900 0.864229
v 12.728147 11.747387 1.468132
v 13.885556 13.681431 -1.916091
v 13.219480 8.838373 0.842317
v 12.607979 8.105730 2.847245
v 10.998911 17.352991 -10.412485
v 6.588317 15.409511 -1.789029
v 9.845758 12.853893 3.950593
v 9.221150 14.213434 2.939343
v 8.457948 13.489504 6.113008
v 6.457123 15.395582 -19.878115
v 7.101917 13.253767 -21.379681
v 5.492497 12.423507 -22.473806
v 2.489125 17.005934 -8.257194
v 4.064385 15.515282 -2.766898
v 13.140630 -5.097661 1.138609
v 13.149885 -3.447321 -0.949512
v 12.832831 -5.075087 4.207428
v 13.209146 -9.407370 -7.039462
v 13.518623 -8.652136 -3.821287
v 12.708842 -8.476127 2.525793
v 10.998642 4.789172 5.443880
v 12.811092 5.647619 3.429057
v 11.702373 -4.010705 5.815013
v 13.238307 2.675597 4.166012
v 10.514695 1.390480 6.644658
v 11.107066 -8.200005 5.674015
v 9.250634 -5.680300 7.226835
v 9.430366 3.440253 7.351202
v 9.704496 2.013015 7.296528
v 9.463958 1.026485 7.231824
v 9.442958 -0.978905 7.473574
v 9.518571 -2.978010 7.349012
v 9.217261 -7.840390 7.545865
v 0.178151 -10.106839 -18.129541
v 2.480677 -10.228352 -18.823755
v 0.202475 -9.918406 -15.902697
v 10.694236 7.362052 23.819141
v 9.810657 8.674674 5.443688
v 8.961716 -2.630292 22.957062
v 9.986181 -2.708626 22.638964
v 6.446206 -7.866382 10.500152
v 8.021694 -7.152948 18.729765
v 2.195659 -6.768079 21.248236
v 0.949520 15.016870 -19.875029
v 1.107051 17.053350 -17.844704
v -5.116356 18.353052 -14.585742
v -6.749668 17.025095 -8.486586
v -3.634197 14.140602 6.541982
v -12.919888 5.864985 -17.673887
v -12.498206 11.120863 -19.128765
v -1.840031 -4.399199 -19.708918
v 1.235126 -4.434669 -19.819851
v -1.007371 -6.414919 -19.392090
v -1.379545 -9.272963 -18.901104
v -7.526185 -7.825058 10.106584
v -7.378810 -8.207185 5.194642
v -6.343747 -8.618714 1.210429
v -9.902906 -9.849918 -17.170996
v -10.636968 -6.933089 -17.343828
v -13.155727 -9.947106 -13.554486
v -12.296490 -9.675268 -10.384948
v -10.997205 -8.255319 3.799438
v -12.031153 -7.101773 8.104515
v -11.897326 -7.884949 4.401035
v -13.290748 -8.499808 -9.247176
v -12.811828 -8.216694 -2.552662
v -3.324135 13.458208 9.952908
v -7.711207 13.645427 7.987531
v -3.095309 10.122413 19.414118
v -4.249936 10.254905 20.471888
v -3.332067 9.780067 21.911404
v -14.366626 11.806897 4.763798
v -13.444464 4.032432 6.505553
v -13.245165 9.811569 19.919691
v -3.263786 8.886713 22.284912
v -7.322749 1.813247 20.699814
v -5.630592 2.138395 21.208902
v -8.521184 -7.524449 13.039393
v -8.051923 -7.248755 10.086135
v -12.683875 4.830844 16.869246
v -12.669026 5.950470 20.239689
v -10.669847 -3.445202 19.631456
v -11.815126 2.222291 20.223215
v -11.511281 -5.110704 18.672951
v -11.404599 -6.638668 16.060261
v -10.010517 -5.994221 19.161402
v -9.729127 -6.389861 17.985062
v -10.371819 -7.046934 13.405596
v -9.332672 -6.606317 19.627378
v -9.199466 -7.270008 16.962612
v -9.102641 -6.901802 14.127307
v -3.716176 -6.946223 20.363762
v -1.320098 9.634258 22.541090
v 9.142117 8.264067 24.427015
v 4.448567 -8.092050 7.028556
v -2.617700 -9.294911 -6.733482
v -13.142018 10.703794 15.998469
v -8.473092 12.926443 12.380957
v -4.678358 10.787589 19.285381
v -4.074871 10.961537 17.583439
v -2.586134 10.074051 21.653345
v -1.950310 9.892763 21.220890
v -0.796105 13.167698 8.734291
v -14.946514 12.335789 -2.840075
v -14.044139 1.049397 -6.079401
v -15.217854 11.120286 -11.800307
v -13.029619 0.500242 7.468969
v -11.646173 -8.781121 -1.685201
v -14.179030 -3.624961 -15.190922
v -11.887230 -3.338530 -16.918005
v -13.912682 -7.113915 -15.041746
v -7.995753 -7.495823 7.976779
v -9.071847 -8.664058 -1.950132
v -13.581652 -8.992110 -14.443002
v -7.741901 -7.842315 3.450179
v -6.438088 -8.215255 -1.097465
v -6.967078 -8.042545 1.267188
v -5.252787 -8.423281 -3.789634
v -5.189052 -8.824059 -2.296746
v -3.266400 -9.137243 -10.394528
v -3.701761 -10.018849 -18.926958
v -2.683689 -1.286888 -20.282715
v -4.203299 -0.624985 -20.552866
v -3.219424 -9.554507 -10.952137
v -0.802193 -10.325218 -18.100077
v -14.878950 13.352874 -7.678441
v -9.209869 14.546977 3.213451
v -8.752157 12.666989 -21.514278
v -2.644711 18.120932 -16.462671
v 0.421401 18.308193 -14.365203
v 0.234542 17.279604 -17.191605
v 0.084491 9.835966 22.569136
v 2.133463 -5.166881 21.434410
v 2.496891 3.858387 22.646641
v 8.773561 9.011119 23.994741
v 8.855850 -5.887130 22.553846
v 7.261064 -3.839806 22.119108
v 9.645847 -3.368137 21.965378
v 9.675510 3.933836 23.799767
v 8.693403 -6.866786 21.327049
v 9.766401 -5.469353 21.585674
v 8.814041 -7.548845 14.263144
v 9.635427 -6.736218 17.075745
v 3.376464 11.785391 13.680444
v 6.910264 -10.203684 -16.552738
v 0.175516 -9.380458 -19.087837
v -0.223050 1.594044 -20.878704
v 0.391135 -7.147124 -19.209448
v 9.693920 6.235073 6.587793
v 9.165468 -7.932773 6.920037
v 8.684025 -8.312551 6.640243
v 13.253003 6.051422 2.066021
v 13.535751 8.356999 -7.250345
v 13.493218 9.234627 -2.321613
v 13.473091 5.602384 -0.666390
v 14.272445 0.439798 -9.203365
v 13.435836 -2.878172 -2.550529
v 14.389345 -9.404839 -12.482150
v 14.892355 3.021496 -13.513758
v 13.777574 -9.990108 -14.573197
v 14.609762 8.201674 -17.283316
v 5.084689 15.793078 -19.199316
v 3.288920 16.405907 -18.310280
v 4.155640 15.215578 -0.191996
v 12.316730 11.933639 -19.186796
v 8.026937 15.812073 -18.156536
v 11.712889 14.272872 -15.275375
v 11.511228 10.961089 -20.440052
v 11.847969 15.071519 -0.630504
v 13.277783 8.528931 -0.891592
v 13.119229 6.037207 -0.425858
v 8.786041 -2.937260 -20.170919
v 8.911602 -6.849710 -19.404306
v 7.874024 -9.530304 -9.660235
v -12.708087 10.951951 19.744818
v -11.714473 -6.519619 13.535608
v -12.799101 1.776937 10.604787
v -1.846307 5.379255 -21.485046
v -12.432409 2.520960 19.622789
v -15.216410 12.472618 -6.885387
v -14.297652 12.749319 -0.034123
v 9.561008 4.616382 6.871891
vt -0.074657 -0.280391
vt -0.149128 -0.465792
vt 0.029572 -0.440274
vt -0.007910 -0.718659
vt -0.027976 -0.938209
vt 0.222506 -0.945630
vt 0.304057 -0.553248
vt 0.385645 -0.563887
vt 0.327909 -0.520802
vt -1.112477 1.401162
vt -0.773553 1.399496
vt -1.122093 1.468553
vt 1.430696 -1.166770
vt 1.434444 -0.954489
vt 1.288985 -0.569301
vt -0.667204 1.019495
vt -0.543743 1.022676
vt -0.617192 1.083252
vt -1.122055 1.057090
vt -0.796118 1.199066
vt -0.569374 0.797939
vt -0.300719 1.007721
vt -0.247450 0.714609
vt -0.090445 0.719682
vt -0.210726 0.840190
vt -0.006168 0.602429
vt 0.042406 0.540604
vt 0.233031 0.728238
vt -1.354629 0.730699
vt -1.303745 1.058643
vt 0.334761 0.862414
vt 0.211489 0.840342
vt 0.298453 0.781053
vt 0.518193 0.270737
vt 0.294213 -0.117214
vt 0.492183 -0.202361
vt 1.790479 0.787375
vt 1.804980 1.453901
vt 1.540490 1.013741
vt 1.906331 0.846664
vt 2.139852 1.265093
vt 1.940292 1.165635
vt 0.961307 -0.869796
vt 1.003975 -0.836063
vt 1.006739 -0.482753
vt -0.877631 0.280960
vt -0.688747 0.451671
vt -0.878577 0.453526
vt -0.458407 -0.064362
vt -0.641195 -0.038200
vt -1.061214 -0.108090
vt 1.093022 0.570438
vt 1.156665 0.493165
vt 1.196910 0.762426
vt 1.069170 0.454169
vt 1.097035 0.330216
vt -1.200955 -0.947561
vt -1.094531 -0.948015
vt -1.220680 -0.805282
vt -0.969479 -0.882479
vt -0.912916 -0.970731
vt 0.959830 0.565554
vt 0.812744 0.161511
vt -1.120200 -1.132128
vt 0.962897 -0.061219
vt 0.934654 -0.226100
vt 1.022299 -0.128837
vt 0.760081 0.966037
vt 0.807444 1.073862
vt 0.740848 1.151248
vt 0.610269 0.442357
vt 0.695946 0.196532
vt -0.348309 -0.750196
vt -0.443452 -0.673492
vt -0.319309 -0.886341
vt -0.237607 -0.340513
vt -0.247261 -0.490249
vt -0.179227 -0.777342
vt -0.737284 -1.083175
vt -0.795058 -0.966074
vt -0.343728 -0.985799
vt -0.659746 -0.957631
vt -0.570813 -1.108125
vt -0.149544 -0.945781
vt -0.232458 -1.090634
vt -0.653878 -1.184526
vt -0.590159 -1.161091
vt 1.835495 0.719076
vt 1.789079 0.709611
vt -0.448449 -1.144849
vt -0.358759 -1.117439
vt 1.603792 0.694770
vt 1.380190 0.681632
vt 1.615263 -1.178242
vt 1.715214 -1.221478
vt 1.627833 -1.077345
vt 1.008708 -1.142540
vt 2.358531 0.633815
vt 2.278988 0.955701
vt 2.156662 0.676370
vt 1.547721 1.427134
vt 1.563054 1.389729
vt 2.042741 0.077197
vt 2.151816 0.438760
vt 1.909852 0.587740
vt 0.521638 0.980878
vt 0.532315 0.854918
vt 0.289594 0.696663
vt 0.211262 0.443947
vt 0.347671 -0.247112
vt -0.988295 1.321732
vt -1.233288 1.299054
vt -1.206899 1.422137
vt -0.560363 0.751560
vt -0.564301 0.612879
vt -0.468742 0.710936
vt -0.333052 0.722408
vt 1.413507 0.130277
vt 1.395864 -0.091886
vt 1.422177 -0.274258
vt -0.288264 1.139550
vt -0.418956 1.178280
vt 1.164767 -1.089233
vt 1.261726 -1.179983
vt 1.034528 -0.910874
vt 1.086245 -0.769164
vt 1.219399 -0.136674
vt 1.187256 0.064135
vt 1.180592 -0.103963
vt 1.028698 -0.703212
vt 1.096921 -0.406276
vt 0.360582 -0.410213
vt 0.157160 -0.315601
vt 0.372508 -0.875664
vt 0.317194 -0.921437
vt 0.361377 -0.994015
vt -0.175062 -0.172982
vt -0.088968 1.708699
vt -0.722064 1.526252
vt -0.324988 1.411952
vt 1.781507 2.123077
vt 1.411728 2.161846
vt 1.459242 2.096765
vt 1.385869 0.265967
vt 1.378676 0.133798
vt -0.556691 1.732438
vt -0.710517 1.702150
vt 0.363156 -1.039788
vt -0.649486 2.108956
vt -0.877025 1.958803
vt -0.696130 1.870551
vt -1.167752 1.709722
vt -0.819553 1.512282
vt -0.580656 2.157984
vt -0.474573 2.223482
vt -0.625369 2.221059
vt 1.337030 0.498693
vt 1.254419 0.414492
vt 1.290462 0.290879
vt 1.035020 2.131823
vt 1.026577 2.086467
vt 1.370536 0.570475
vt 1.325937 0.556884
vt 1.375912 0.446219
vt 1.350962 0.319425
vt 1.121228 1.848895
vt 1.637071 0.579827
vt 0.456633 -1.017980
vt 0.912619 -1.136482
vt 1.934764 -0.069246
vt 1.548895 -0.654069
vt -0.116265 -0.710330
vt 0.120436 -0.523528
vt 0.295690 -0.861921
vt 0.326508 -0.783551
vt 0.397457 -0.976561
vt 0.426913 -0.957328
vt 0.482605 -0.357739
vt -0.050162 1.348045
vt 0.293039 1.283266
vt 0.495856 1.781391
vt 0.706774 1.293451
vt -0.115357 1.875776
vt 0.684171 2.201902
vt 1.161132 -0.377956
vt 0.932041 1.719035
vt 0.932382 1.949300
vt -1.168017 1.662775
vt -0.545939 1.382270
vt -0.574712 1.254795
vt -0.389501 1.357396
vt 1.372808 0.037558
vt 1.274788 -0.402414
vt -0.299508 1.349862
vt 1.362775 -0.165864
vt 1.398136 -0.375912
vt 1.385112 -0.268352
vt 1.436261 -0.502743
vt 1.454623 -0.435882
vt 1.492445 -0.799982
vt 1.436299 -1.197399
vt -0.702377 0.794115
vt -0.732135 0.863928
vt 1.500585 -0.829664
vt -0.272665 0.693407
vt -0.298334 0.830839
vt -0.172715 0.409381
vt -1.192210 1.546242
vt 0.091094 -0.091204
vt 0.058799 1.039978
vt 0.068643 1.100099
vt 0.381178 0.777797
vt 0.423846 1.117666
vt 0.510810 0.699881
vt 0.498430 0.823153
vt 0.519745 -1.014611
vt 1.304508 1.644375
vt 1.682806 1.795323
vt 0.893992 -1.096994
vt 1.402035 1.366672
vt 1.459961 1.464351
vt 1.242077 1.612800
vt 1.527579 1.366066
vt 1.818799 1.504255
vt 2.189524 0.545904
vt 2.265736 0.567674
vt 2.214323 0.611591
vt 2.166240 0.234354
vt 1.391132 1.118007
vt 1.979893 1.514174
vt 0.678758 -0.600346
vt 1.925299 -1.142956
vt -0.334907 0.649262
vt -0.280351 0.648467
vt -0.837764 0.686668
vt -0.437281 0.645855
vt -0.302840 0.542043
vt 1.695224 0.710141
vt 2.036835 0.713019
vt 2.229315 -0.164426
vt 2.151437 -0.093817
vt 2.124935 -0.108961
vt 2.256499 -0.749628
vt 2.284591 -0.314957
vt -0.827390 -0.906255
vt -1.032970 -0.515994
vt -1.020363 -0.741640
vt -0.840338 -0.779121
vt -0.701430 -0.347290
vt -0.486234 -0.607880
vt -0.315371 -0.113353
vt -0.856808 -0.178472
vt -0.295306 -0.012986
vt -1.119367 -0.042100
vt 0.701511 0.932985
vt 0.625754 0.885774
vt -0.913863 -1.150717
vt 0.706358 0.079166
vt 1.061939 1.004238
vt 0.827737 0.893346
vt 1.014765 0.807176
vt 1.042365 1.082987
vt 1.064097 0.137281
vt 1.122591 0.058986
vt 1.184719 0.194942
vt -1.355121 -0.534735
vt -1.299732 -0.256123
vt -0.973530 -0.798581
vt -0.860631 -0.800701
vt -0.646874 0.281755
vt -0.474573 0.267482
vt 2.003821 -0.839470
vt 1.434595 1.322830
vt -0.134703 0.943548
vt 1.569869 -1.172714
vt 0.923371 2.198608
vt 0.886685 2.249568
vt -0.073408 -0.872522
vt 1.993523 1.599700
vt 1.227046 0.304963
vt -0.263806 1.832426
vt -0.789947 -1.173926
vt -1.261683 0.148298
vt -1.336646 0.435694
vt 2.159009 -0.069359
vt -0.260399 0.595955
vt -1.008589 0.763561
vt -0.115470 2.222195
vt -0.662510 1.848592
vt -0.363340 2.216213
vt -0.126715 -0.898872
vt -0.237569 1.353534
vt -0.213187 0.372732
vt -0.154655 0.055768
vt -0.197816 0.185060
vt 2.223636 0.359898
vt 1.902432 0.729071
vt 1.960206 0.715252
vt 1.378487 0.652518
vt 1.480368 0.675916
vt -0.542342 -1.159350
vt -0.712788 -1.174494
vt -0.129781 -1.054970
vt 2.242377 -1.090028
vt -0.267062 0.314163
vt 1.273879 1.024682
vt 1.360276 0.994205
vt 2.153292 -0.097565
vt 0.476623 1.255969
vt 0.942793 2.109221
vt 0.376937 2.221400
vn -0.4706 0.8684 0.1559
vn -0.8699 0.4731 0.1391
vn -0.2714 0.9469 0.1722
vn -0.2233 0.9602 0.1678
vn -0.2601 0.5484 0.7947
vn 0.0490 0.8432 0.5354
vn 0.1264 0.9514 0.2808
vn 0.2530 0.9219 0.2936
vn 0.2713 0.9384 0.2141
vn -0.7774 -0.0388 -0.6278
vn -0.8666 -0.0911 -0.4906
vn -0.9555 0.0490 -0.2908
vn -0.0119 -0.9853 -0.1702
vn -0.0139 -0.9940 0.1088
vn 0.0710 -0.9903 0.1194
vn -0.2827 -0.1724 -0.9436
vn -0.3225 -0.1535 -0.9340
vn -0.5879 -0.1325 -0.7980
vn -0.3193 -0.1369 -0.9377
vn -0.6285 -0.1468 -0.7639
vn 0.0882 -0.1483 -0.9850
vn -0.2589 -0.6640 -0.7015
vn -0.8399 0.5000 -0.2112
vn -0.5783 0.7632 -0.2884
vn -0.7329 0.5316 -0.4245
vn -0.6282 0.7365 -0.2507
vn -0.4882 0.8726 -0.0167
vn -0.4547 0.8743 -0.1698
vn -0.0116 0.3812 -0.9244
vn -0.2839 0.2838 -0.9159
vn -0.0308 0.7303 -0.6825
vn -0.3899 0.7571 -0.5241
vn -0.1224 0.8992 -0.4202
vn 0.0171 0.9764 0.2154
vn -0.0042 0.9838 0.1792
vn 0.0500 0.9727 0.2264
vn 0.9968 -0.0620 -0.0507
vn 0.9047 -0.1229 0.4079
vn 0.9984 -0.0456 -0.0326
vn 0.9977 0.0077 -0.0667
vn 0.9269 0.3666 0.0807
vn 0.9983 -0.0295 -0.0510
vn 0.4226 0.8695 0.2556
vn 0.7273 0.6740 0.1292
vn 0.3371 -0.1408 -0.9309
vn -0.0056 -0.1746 -0.9846
vn -0.0096 -0.1714 -0.9852
vn 0.9470 -0.1171 -0.2990
vn 0.7636 -0.1205 -0.6343
vn 0.9777 -0.0140 -0.2095
vn 0.6823 0.7179 -0.1383
vn 0.9472 0.2972 0.1205
vn 0.9190 0.3354 -0.2070
vn 0.4239 0.8923 0.1552
vn 0.5388 0.8032 0.2540
vn 0.6877 0.5318 0.4942
vn 0.8288 0.1673 0.5339
vn 0.9276 0.2774 0.2503
vn 0.9819 0.0246 0.1876
vn 0.8179 0.1914 0.5425
vn 0.1938 0.9798 -0.0484
vn 0.0090 0.9794 0.2017
vn 0.7676 0.4594 0.4469
vn 0.2707 0.8870 0.3741
vn 0.2791 0.9383 0.2043
vn 0.2144 0.7705 -0.6004
vn 0.3554 0.5374 -0.7648
vn 0.1108 0.2865 -0.9517
vn 0.0132 0.9735 0.2283
vn 0.0356 0.9844 0.1722
vn 0.9989 -0.0462 -0.0008
vn 0.9926 -0.0548 0.1079
vn 0.9233 -0.1012 0.3705
vn 0.3086 -0.9449 0.1097
vn 0.9085 -0.3989 0.1246
vn 0.6971 -0.6852 0.2113
vn 0.6823 0.2233 0.6962
vn 0.8090 0.2243 0.5433
vn 0.6836 -0.0615 0.7273
vn 0.8917 0.0831 0.4449
vn 0.6134 0.0263 0.7893
vn 0.5227 -0.6519 0.5494
vn 0.9535 -0.1137 0.2791
vn 0.9575 0.0936 0.2729
vn 0.9112 -0.0217 0.4113
vn 0.8811 -0.0723 0.4673
vn 0.9516 0.0195 0.3066
vn 0.8917 -0.0436 0.4506
vn 0.8858 -0.4641 0.0017
vn 0.0441 -0.9650 -0.2587
vn 0.0123 -0.7854 -0.6188
vn 0.0273 -0.9954 0.0922
vn 0.8204 0.1812 0.5423
vn 0.9363 0.1106 0.3333
vn 0.0999 -0.3867 0.9168
vn 0.7206 -0.4034 0.5639
vn -0.0319 -0.9952 0.0920
vn 0.1234 -0.9888 0.0841
vn -0.0875 -0.7080 0.7007
vn 0.0018 0.7122 -0.7020
vn 0.1621 0.9223 -0.3509
vn -0.1589 0.9869 0.0272
vn -0.2013 0.9661 0.1619
vn -0.0459 0.9810 0.1888
vn -0.6324 -0.1530 -0.7594
vn -0.6906 0.3578 -0.6285
vn 0.0857 -0.1353 -0.9871
vn -0.0124 -0.1999 -0.9797
vn 0.0386 -0.1797 -0.9830
vn 0.0215 -0.3499 -0.9366
vn -0.3657 -0.9301 0.0328
vn -0.4506 -0.8919 0.0374
vn -0.3521 -0.9358 -0.0197
vn -0.4734 -0.6657 -0.5768
vn -0.5780 -0.1683 -0.7985
vn -0.5712 -0.8190 -0.0546
vn -0.3101 -0.9385 0.1522
vn -0.0939 -0.9877 0.1250
vn -0.8023 -0.5838 0.1245
vn -0.4903 -0.8582 0.1524
vn -0.9077 -0.4083 0.0969
vn -0.8717 -0.4778 0.1087
vn 0.1395 0.9680 0.2084
vn -0.0450 0.9837 0.1743
vn 0.0305 0.9678 0.2498
vn 0.2457 0.9406 0.2345
vn -0.1449 0.7346 0.6628
vn -0.9173 0.3783 0.1246
vn -0.9921 -0.0999 0.0754
vn -0.8798 0.1418 0.4536
vn -0.1868 0.1203 0.9750
vn -0.1955 -0.1027 0.9753
vn -0.2133 -0.0887 0.9730
vn -0.5051 -0.8613 -0.0551
vn -0.3981 -0.9171 0.0198
vn -0.9989 -0.0381 0.0284
vn -0.7498 -0.1146 0.6517
vn -0.2933 -0.1992 0.9351
vn -0.4508 -0.1459 0.8806
vn -0.7850 -0.3724 0.4951
vn -0.6103 -0.7725 0.1754
vn -0.5803 -0.5088 0.6359
vn -0.5176 -0.8399 0.1631
vn -0.1349 -0.9856 0.1023
vn -0.4552 -0.5981 0.6596
vn -0.5206 -0.8527 0.0433
vn -0.4434 -0.8963 0.0079
vn -0.0918 -0.7226 0.6852
vn -0.1448 0.6224 0.7692
vn 0.2262 0.2823 0.9323
vn -0.0203 -0.9961 0.0858
vn -0.1483 -0.9878 0.0481
vn -0.6024 0.7910 0.1067
vn -0.0765 0.9717 0.2237
vn 0.2104 0.9512 0.2256
vn 0.1664 0.9450 0.2816
vn -0.0271 0.9717 0.2346
vn 0.0405 0.9870 0.1554
vn 0.1058 0.9630 0.2477
vn -0.9689 0.2328 0.0840
vn -0.9938 -0.0900 0.0654
vn -0.9970 0.0763 -0.0160
vn -0.9913 -0.1003 0.0856
vn -0.2313 -0.9667 0.1090
vn -0.9043 -0.0972 -0.4157
vn -0.5979 -0.1091 -0.7941
vn -0.9273 -0.1807 -0.3277
vn -0.3258 -0.9419 0.0818
vn 0.0916 -0.9897 0.1095
vn -0.8476 -0.3958 -0.3534
vn -0.2185 -0.9754 0.0305
vn -0.2083 -0.9781 -0.0010
vn -0.3316 -0.9432 -0.0189
vn -0.2108 -0.9772 -0.0243
vn -0.3903 -0.9151 -0.1011
vn -0.4971 -0.8425 0.2074
vn 0.0235 -0.5473 -0.8366
vn 0.0515 -0.1630 -0.9853
vn 0.0340 -0.1699 -0.9849
vn -0.4258 -0.8772 0.2221
vn 0.0844 -0.9416 -0.3259
vn -0.7399 0.6719 -0.0342
vn -0.1763 0.9704 0.1649
vn -0.5098 0.6569 -0.5555
vn 0.0427 0.9297 -0.3659
vn 0.0806 0.9945 -0.0668
vn 0.2286 0.9617 -0.1515
vn -0.0656 0.8126 0.5791
vn -0.1334 -0.1320 0.9822
vn -0.1450 -0.1576 0.9768
vn 0.2316 0.7619 0.6049
vn 0.3122 -0.3579 0.8800
vn -0.0144 -0.3089 0.9510
vn 0.7614 -0.4146 0.4984
vn 0.2456 -0.1635 0.9555
vn 0.3576 -0.8698 0.3400
vn 0.9125 -0.2615 0.3145
vn 0.2970 -0.9507 0.0893
vn 0.8323 -0.5512 0.0584
vn 0.0425 0.9720 0.2312
vn 0.1349 -0.9482 -0.2875
vn -0.0582 -0.3966 -0.9162
vn -0.0152 -0.1647 -0.9862
vn 0.0001 -0.1601 -0.9871
vn 0.9609 0.0395 0.2742
vn 0.6766 -0.5876 0.4437
vn 0.1375 -0.9753 0.1727
vn 0.9765 0.1174 0.1810
vn 0.9891 -0.0509 0.1384
vn 0.9962 -0.0537 0.0681
vn 0.9969 0.0275 0.0736
vn 0.9902 0.0124 0.1388
vn 0.9930 -0.0233 0.1157
vn 0.8572 -0.5133 0.0411
vn 0.9869 -0.0197 0.1602
vn 0.5684 -0.7379 -0.3640
vn 0.8081 0.0394 -0.5877
vn 0.0435 0.8717 -0.4881
vn 0.1910 0.9480 -0.2545
vn 0.0360 0.9814 0.1886
vn 0.6565 0.4826 -0.5797
vn 0.3613 0.8236 -0.4371
vn 0.4960 0.7355 -0.4615
vn 0.5438 0.1902 -0.8174
vn 0.3243 0.8947 0.3070
vn 0.9922 -0.0257 0.1221
vn 0.9102 0.2808 0.3046
vn 0.3278 -0.1642 -0.9304
vn 0.3354 -0.3659 -0.8681
vn -0.0118 -0.9957 0.0919
vn -0.5406 0.7726 0.3330
vn -0.7976 -0.5980 0.0790
vn -0.9913 -0.0996 0.0855
vn 0.0071 -0.1326 -0.9911
vn -0.9175 -0.1416 0.3716
vn -0.9926 0.1143 0.0410
vn -0.6534 0.7492 0.1083
vn 0.9275 0.0322 0.3724
s 1
f 1/1/1 2/2/2 3/3/3
f 4/4/4 5/5/5 6/6/6
f 7/7/7 8/8/8 9/9/9
f 10/10/10 11/11/11 12/12/12
f 13/13/13 14/14/14 15/15/15
f 16/16/16 17/17/17 18/18/18
f 19/19/19 18/18/18 20/20/20
f 21/21/21 22/22/22 17/17/17
f 23/23/23 24/24/24 25/25/25
f 26/26/26 27/27/27 28/28/28
f 29/29/29 19/19/19 30/30/30
f 31/31/31 32/32/32 33/33/33
f 34/34/34 35/35/35 36/36/36
f 37/37/37 38/38/38 39/39/39
f 40/40/40 41/41/41 42/42/42
f 43/43/43 41/44/41 44/45/44
f 45/46/45 46/47/46 47/48/47
f 48/49/48 49/50/49 50/51/50
f 51/52/51 52/53/52 53/54/53
f 52/53/52 54/55/54 55/56/55
f 56/57/56 57/58/57 58/59/58
f 58/59/58 57/58/57 59/60/59
f 59/60/59 57/58/57 60/61/60
f 61/62/61 62/63/62 54/55/54
f 63/64/63 60/61/60 57/58/57
f 64/65/64 65/66/65 63/67/63
f 66/68/66 67/69/67 68/70/68
f 69/71/69 34/34/34 70/72/70
f 71/73/71 72/74/72 73/75/73
f 74/76/74 75/77/75 76/78/76
f 60/61/60 77/79/77 78/80/78
f 79/81/79 80/82/80 81/83/81
f 73/75/73 79/81/79 82/84/82
f 79/81/79 83/85/83 82/84/82
f 84/86/84 85/87/85 81/83/81
f 85/88/85 37/37/37 86/89/86
f 81/83/81 87/90/87 88/91/88
f 88/92/88 39/39/39 89/93/89
f 90/94/90 91/95/91 92/96/92
f 41/44/41 43/43/43 93/97/93
f 63/98/63 44/99/44 94/100/94
f 37/37/37 39/39/39 88/92/88
f 37/37/37 42/42/42 38/38/38
f 95/101/95 96/102/96 38/38/38
f 97/103/97 98/104/98 99/105/99
f 100/106/100 31/31/31 101/107/101
f 102/108/102 103/109/103 69/71/69
f 35/35/35 104/110/104 36/36/36
f 19/19/19 105/111/105 106/112/106
f 10/10/10 25/113/25 106/112/106
f 107/114/107 108/115/108 109/116/109
f 109/116/109 110/117/110 21/21/21
f 111/118/111 112/119/112 113/120/113
f 17/17/17 114/121/114 115/122/115
f 114/123/114 22/124/22 116/125/116
f 19/19/19 20/20/20 105/111/105
f 116/125/116 13/13/13 117/126/117
f 118/127/118 119/128/119 120/129/120
f 121/130/121 117/126/117 122/131/122
f 9/9/9 123/132/123 124/133/124
f 125/134/125 126/135/126 127/136/127
f 2/2/2 1/1/1 128/137/128
f 129/138/129 130/139/130 2/140/2
f 131/141/131 132/142/132 133/143/133
f 111/118/111 134/144/134 135/145/135
f 136/146/136 137/147/137 130/139/130
f 6/6/6 131/148/131 127/136/127
f 138/149/138 132/150/132 139/151/139
f 137/147/137 139/151/139 131/152/131
f 130/139/130 137/147/137 5/153/5
f 140/154/140 141/155/141 142/156/142
f 143/157/143 141/158/141 144/159/144
f 132/142/132 142/160/142 145/161/145
f 145/162/145 142/163/142 143/157/143
f 146/164/146 145/162/145 143/157/143
f 144/159/144 147/165/147 143/157/143
f 145/161/145 148/166/148 133/143/133
f 134/144/134 148/167/148 146/164/146
f 131/148/131 149/168/149 127/136/127
f 131/148/131 150/169/150 149/168/149
f 151/170/151 111/118/111 152/171/152
f 3/3/3 153/172/153 4/4/4
f 3/3/3 4/4/4 154/173/154
f 6/6/6 126/135/126 155/174/155
f 7/7/7 154/173/154 156/175/156
f 6/6/6 127/136/127 126/135/126
f 155/174/155 125/134/125 156/175/156
f 35/35/35 123/132/123 104/110/104
f 157/176/157 149/168/149 158/177/158
f 104/110/104 123/132/123 159/178/159
f 129/138/129 128/179/128 160/180/160
f 161/181/161 129/138/129 162/182/162
f 163/183/163 161/181/161 121/184/121
f 117/126/117 164/185/164 122/131/122
f 11/186/11 165/187/165 162/182/162
f 12/12/12 11/11/11 162/188/162
f 165/189/165 166/190/166 167/191/167
f 11/11/11 166/190/166 165/189/165
f 118/127/118 168/192/168 144/159/144
f 164/185/164 118/127/118 120/129/120
f 164/185/164 169/193/169 118/127/118
f 115/122/115 170/194/170 167/191/167
f 105/111/105 20/20/20 11/11/11
f 111/118/111 135/145/135 168/192/168
f 169/193/169 171/195/171 118/127/118
f 172/196/172 173/197/173 169/193/169
f 174/198/174 169/193/169 15/15/15
f 113/120/113 112/119/112 171/195/171
f 113/120/113 173/197/173 172/196/172
f 175/199/175 113/120/113 172/196/172
f 175/199/175 172/196/172 174/198/174
f 14/14/14 176/200/176 174/198/174
f 22/124/22 13/13/13 116/125/116
f 177/201/177 13/13/13 22/124/22
f 152/171/152 175/199/175 174/198/174
f 178/202/178 21/21/21 179/203/179
f 92/96/92 152/171/152 180/204/180
f 110/117/110 181/205/181 177/206/177
f 26/26/26 182/207/182 27/27/27
f 25/113/25 12/12/12 23/208/23
f 27/27/27 182/207/182 103/109/103
f 106/112/106 105/111/105 10/10/10
f 1/1/1 183/209/183 103/109/103
f 28/28/28 102/108/102 33/33/33
f 184/210/184 32/32/32 30/211/30
f 31/31/31 33/33/33 185/212/185
f 29/213/29 32/32/32 31/31/31
f 36/36/36 104/110/104 159/178/159
f 103/109/103 34/34/34 69/71/69
f 186/214/186 187/215/187 185/212/185
f 185/212/185 187/215/187 101/107/101
f 99/105/99 151/170/151 97/103/97
f 149/168/149 150/169/150 188/216/188
f 189/217/189 190/218/190 133/143/133
f 191/219/191 188/216/188 150/169/150
f 192/220/192 193/221/193 99/222/99
f 194/223/194 193/221/193 192/220/192
f 95/101/95 194/223/194 96/102/96
f 95/101/95 38/38/38 195/224/195
f 196/225/196 197/226/197 192/227/192
f 39/39/39 38/38/38 96/102/96
f 97/103/97 198/228/198 98/104/98
f 39/39/39 199/229/199 89/93/89
f 41/41/41 93/230/93 42/42/42
f 200/231/200 8/8/8 188/216/188
f 65/66/65 200/231/200 44/45/44
f 94/100/94 44/99/44 41/41/41
f 201/232/201 152/171/152 92/96/92
f 202/233/202 90/234/90 181/205/181
f 108/115/108 107/114/107 178/202/178
f 203/235/203 108/115/108 178/202/178
f 204/236/204 91/237/91 202/233/202
f 46/47/46 204/236/204 108/115/108
f 88/92/88 87/238/87 37/37/37
f 205/239/205 94/100/94 40/40/40
f 82/240/82 206/241/206 207/242/207
f 88/91/88 79/81/79 81/83/81
f 73/75/73 82/84/82 76/78/76
f 73/75/73 80/82/80 79/81/79
f 84/86/84 81/83/81 80/82/80
f 77/79/77 84/86/84 80/82/80
f 77/79/77 80/82/80 78/80/78
f 74/243/74 76/244/76 207/242/207
f 76/78/76 71/73/71 73/75/73
f 60/61/60 78/80/78 208/245/208
f 76/78/76 75/77/75 72/74/72
f 209/246/209 210/247/210 211/248/211
f 212/249/212 209/246/209 213/250/213
f 74/76/74 214/251/214 75/77/75
f 215/252/215 209/246/209 212/249/212
f 48/49/48 214/251/214 216/253/216
f 217/254/217 50/51/50 49/50/49
f 29/213/29 100/106/100 68/70/68
f 218/255/218 101/107/101 219/256/219
f 218/255/218 66/68/66 100/106/100
f 68/70/68 100/106/100 66/68/66
f 77/79/77 63/64/63 94/257/94
f 64/65/64 220/258/220 65/66/65
f 221/259/221 222/260/222 223/261/223
f 68/70/68 67/69/67 224/262/224
f 63/64/63 57/58/57 56/57/56
f 225/263/225 56/264/56 58/265/58
f 62/63/62 225/263/225 55/56/55
f 58/59/58 210/247/210 52/266/52
f 51/52/51 54/55/54 52/53/52
f 53/267/53 52/266/52 215/252/215
f 53/267/53 215/252/215 50/51/50
f 51/52/51 221/259/221 223/261/223
f 58/59/58 59/60/59 226/268/226
f 226/268/226 59/60/59 227/269/227
f 222/260/222 221/259/221 67/69/67
f 69/71/69 70/72/70 61/62/61
f 228/270/228 49/50/49 229/271/229
f 212/249/212 213/250/213 48/49/48
f 213/250/213 209/246/209 80/82/80
f 213/250/213 80/82/80 72/74/72
f 72/74/72 75/77/75 213/250/213
f 88/91/88 83/85/83 79/81/79
f 86/89/86 37/37/37 87/238/87
f 230/272/230 207/242/207 151/170/151
f 188/216/188 43/43/43 200/231/200
f 85/88/85 42/42/42 37/37/37
f 194/223/194 192/220/192 197/273/197
f 190/218/190 189/217/189 95/101/95
f 102/108/102 69/71/69 186/214/186
f 102/108/102 186/214/186 185/212/185
f 34/34/34 183/209/183 35/35/35
f 29/213/29 30/211/30 32/32/32
f 102/108/102 28/28/28 103/109/103
f 184/210/184 24/24/24 32/32/32
f 103/109/103 182/207/182 1/1/1
f 106/274/106 25/25/25 184/210/184
f 177/201/177 181/275/181 13/13/13
f 152/171/152 113/120/113 175/199/175
f 174/198/174 172/196/172 169/193/169
f 117/126/117 13/13/13 15/15/15
f 170/276/170 116/277/116 121/184/121
f 116/125/116 117/126/117 121/130/121
f 163/183/163 129/138/129 161/181/161
f 8/8/8 156/175/156 125/134/125
f 157/176/157 127/136/127 149/168/149
f 125/134/125 127/136/127 157/176/157
f 3/3/3 154/173/154 124/133/124
f 4/4/4 231/278/231 5/5/5
f 133/143/133 150/279/150 131/141/131
f 148/167/148 145/162/145 146/164/146
f 134/144/134 147/165/147 135/145/135
f 133/143/133 132/142/132 145/161/145
f 144/159/144 141/158/141 232/280/232
f 163/183/163 140/154/140 233/281/233
f 136/146/136 130/139/130 129/138/129
f 144/159/144 168/192/168 135/145/135
f 170/276/170 121/184/121 165/187/165
f 122/131/122 164/185/164 120/129/120
f 171/195/171 112/119/112 168/192/168
f 110/117/110 202/233/202 181/205/181
f 178/202/178 107/114/107 21/21/21
f 23/23/23 182/207/182 24/24/24
f 192/227/192 99/105/99 196/225/196
f 204/236/204 46/47/46 228/270/228
f 94/257/94 205/282/205 77/79/77
f 70/72/70 220/258/220 62/63/62
f 222/260/222 67/69/67 66/68/66
f 224/283/224 45/46/45 68/284/68
f 52/266/52 209/246/209 215/252/215
f 45/46/45 224/283/224 217/254/217
f 51/52/51 222/260/222 61/62/61
f 63/64/63 77/79/77 60/61/60
f 61/62/61 70/72/70 62/63/62
f 61/62/61 222/260/222 186/214/186
f 34/34/34 220/258/220 70/72/70
f 48/49/48 50/51/50 215/252/215
f 214/251/214 48/49/48 75/77/75
f 227/269/227 59/60/59 208/245/208
f 229/271/229 49/50/49 216/253/216
f 230/272/230 74/243/74 207/242/207
f 74/243/74 230/272/230 201/232/201
f 198/228/198 207/242/207 89/285/89
f 152/171/152 201/232/201 230/272/230
f 108/115/108 204/236/204 109/116/109
f 44/45/44 200/231/200 43/43/43
f 29/213/29 31/31/31 100/106/100
f 183/209/183 124/133/124 35/35/35
f 26/26/26 32/32/32 24/24/24
f 1/1/1 3/3/3 183/209/183
f 12/12/12 25/113/25 10/10/10
f 162/286/162 182/207/182 23/23/23
f 204/236/204 110/117/110 109/116/109
f 181/275/181 90/94/90 92/96/92
f 203/235/203 178/202/178 234/287/234
f 234/287/234 178/202/178 179/203/179
f 14/14/14 13/13/13 181/275/181
f 179/203/179 16/16/16 19/19/19
f 15/15/15 14/14/14 174/198/174
f 113/120/113 152/171/152 111/118/111
f 112/119/112 111/118/111 168/192/168
f 18/18/18 115/122/115 166/190/166
f 117/126/117 15/15/15 164/185/164
f 15/15/15 169/193/169 164/185/164
f 121/184/121 119/288/119 163/183/163
f 159/178/159 123/132/123 8/8/8
f 158/177/158 149/168/149 188/216/188
f 125/134/125 157/176/157 158/177/158
f 123/132/123 35/35/35 124/133/124
f 8/8/8 123/132/123 9/9/9
f 138/149/138 140/154/140 142/156/142
f 233/281/233 136/146/136 129/138/129
f 233/281/233 235/289/235 137/147/137
f 136/146/136 233/281/233 137/147/137
f 138/149/138 142/156/142 132/150/132
f 139/151/139 140/154/140 138/149/138
f 137/147/137 235/289/235 139/151/139
f 141/158/141 143/157/143 142/163/142
f 232/290/232 141/155/141 140/154/140
f 233/281/233 140/154/140 235/289/235
f 163/183/163 232/290/232 140/154/140
f 119/128/119 144/159/144 232/280/232
f 119/128/119 118/127/118 144/159/144
f 163/183/163 119/288/119 232/290/232
f 132/150/132 131/152/131 139/151/139
f 147/165/147 146/164/146 143/157/143
f 144/159/144 135/145/135 147/165/147
f 134/144/134 146/164/146 147/165/147
f 189/217/189 133/143/133 148/166/148
f 189/217/189 148/166/148 99/222/99
f 130/291/130 5/5/5 231/278/231
f 2/2/2 130/291/130 153/172/153
f 3/3/3 2/2/2 153/172/153
f 128/179/128 129/138/129 2/140/2
f 4/4/4 6/6/6 155/174/155
f 154/173/154 4/4/4 156/175/156
f 124/133/124 154/173/154 9/9/9
f 9/9/9 154/173/154 7/7/7
f 8/8/8 7/7/7 156/175/156
f 158/177/158 8/8/8 125/134/125
f 119/128/119 122/131/122 120/129/120
f 129/138/129 160/180/160 162/182/162
f 121/184/121 161/181/161 165/187/165
f 10/10/10 105/111/105 11/11/11
f 170/194/170 114/121/114 116/292/116
f 166/190/166 115/122/115 167/191/167
f 11/11/11 20/20/20 166/190/166
f 118/127/118 171/195/171 168/192/168
f 171/195/171 169/193/169 173/197/173
f 18/18/18 17/17/17 115/122/115
f 19/19/19 16/16/16 18/18/18
f 110/117/110 177/206/177 22/22/22
f 16/16/16 21/21/21 17/17/17
f 176/200/176 152/171/152 174/198/174
f 180/204/180 152/171/152 176/200/176
f 14/14/14 180/204/180 176/200/176
f 181/275/181 180/204/180 14/14/14
f 21/21/21 110/117/110 22/22/22
f 181/275/181 92/96/92 180/204/180
f 21/21/21 107/114/107 109/116/109
f 162/286/162 236/293/236 182/207/182
f 237/294/237 128/137/128 1/1/1
f 160/295/160 128/137/128 237/294/237
f 182/207/182 160/295/160 237/294/237
f 24/24/24 182/207/182 26/26/26
f 23/208/23 12/12/12 162/188/162
f 183/209/183 3/3/3 124/133/124
f 25/25/25 24/24/24 184/210/184
f 30/211/30 106/274/106 184/210/184
f 106/112/106 30/30/30 19/19/19
f 103/109/103 28/28/28 27/27/27
f 32/32/32 26/26/26 28/28/28
f 33/33/33 32/32/32 28/28/28
f 185/212/185 33/33/33 102/108/102
f 29/29/29 234/287/234 19/19/19
f 101/107/101 31/31/31 185/212/185
f 151/170/151 99/105/99 148/167/148
f 150/279/150 190/218/190 195/224/195
f 95/101/95 189/217/189 193/221/193
f 195/224/195 190/218/190 95/101/95
f 99/105/99 98/104/98 196/225/196
f 150/279/150 195/224/195 93/230/93
f 95/101/95 193/221/193 194/223/194
f 43/43/43 191/219/191 93/97/93
f 194/223/194 39/39/39 96/102/96
f 39/39/39 194/223/194 197/273/197
f 98/104/98 199/296/199 196/225/196
f 199/296/199 197/226/197 196/225/196
f 199/229/199 39/39/39 197/273/197
f 198/228/198 199/296/199 98/104/98
f 89/285/89 199/296/199 198/228/198
f 84/297/84 40/40/40 85/88/85
f 84/297/84 238/298/238 40/40/40
f 94/100/94 41/41/41 40/40/40
f 38/38/38 93/230/93 195/224/195
f 42/42/42 93/230/93 38/38/38
f 36/36/36 159/178/159 65/66/65
f 65/66/65 159/178/159 200/231/200
f 43/43/43 188/216/188 191/219/191
f 92/96/92 91/95/91 201/232/201
f 203/235/203 46/47/46 108/115/108
f 203/235/203 47/48/47 46/47/46
f 234/287/234 47/48/47 203/235/203
f 207/242/207 97/103/97 151/170/151
f 228/270/228 91/237/91 204/236/204
f 228/270/228 229/271/229 91/237/91
f 97/103/97 207/242/207 198/228/198
f 206/299/206 83/300/83 89/93/89
f 81/83/81 86/301/86 87/90/87
f 238/298/238 205/239/205 40/40/40
f 77/79/77 205/282/205 238/302/238
f 83/85/83 206/303/206 82/84/82
f 207/242/207 76/244/76 82/240/82
f 46/47/46 45/46/45 228/270/228
f 77/79/77 238/302/238 84/86/84
f 201/232/201 216/304/216 74/243/74
f 229/271/229 216/253/216 201/305/201
f 217/254/217 228/270/228 45/46/45
f 80/82/80 208/245/208 78/80/78
f 72/74/72 80/82/80 73/75/73
f 80/82/80 211/248/211 208/245/208
f 208/245/208 59/60/59 60/61/60
f 72/74/72 71/73/71 76/78/76
f 211/248/211 227/269/227 208/245/208
f 211/248/211 226/268/226 227/269/227
f 80/82/80 209/246/209 211/248/211
f 75/77/75 48/49/48 213/250/213
f 74/76/74 216/253/216 214/251/214
f 49/50/49 48/49/48 216/253/216
f 186/214/186 219/256/219 187/215/187
f 219/256/219 101/107/101 187/215/187
f 222/260/222 219/256/219 186/214/186
f 61/62/61 186/214/186 69/71/69
f 218/255/218 100/106/100 101/107/101
f 62/63/62 220/258/220 64/65/64
f 225/263/225 62/63/62 64/65/64
f 222/260/222 218/255/218 219/256/219
f 66/68/66 218/255/218 222/260/222
f 234/287/234 68/284/68 45/46/45
f 63/67/63 65/66/65 44/45/44
f 222/260/222 51/52/51 223/261/223
f 224/262/224 67/69/67 221/259/221
f 63/67/63 56/264/56 64/65/64
f 54/55/54 62/63/62 55/56/55
f 51/52/51 61/62/61 54/55/54
f 53/54/53 221/259/221 51/52/51
f 221/259/221 217/306/217 224/262/224
f 217/306/217 53/54/53 50/307/50
f 221/259/221 53/54/53 217/306/217
f 55/56/55 225/263/225 58/265/58
f 58/265/58 52/53/52 55/56/55
f 225/263/225 64/65/64 56/264/56
f 220/258/220 36/36/36 65/66/65
f 29/29/29 68/284/68 234/287/234
f 220/258/220 34/34/34 36/36/36
f 48/49/48 215/252/215 212/249/212
f 91/237/91 229/271/229 201/305/201
f 89/93/89 83/300/83 88/92/88
f 206/308/206 89/285/89 207/242/207
f 47/48/47 234/287/234 45/46/45
f 159/178/159 8/8/8 200/231/200
f 85/88/85 40/40/40 42/42/42
f 93/97/93 191/219/191 150/169/150
f 193/221/193 189/217/189 99/222/99
f 103/109/103 183/209/183 34/34/34
f 1/1/1 182/207/182 237/294/237
f 236/309/236 162/182/162 160/180/160
f 234/287/234 179/203/179 19/19/19
f 179/203/179 21/21/21 16/16/16
f 20/20/20 18/18/18 166/190/166
f 17/17/17 22/22/22 114/121/114
f 115/122/115 114/121/114 170/194/170
f 167/310/167 170/276/170 165/187/165
f 165/187/165 161/181/161 162/182/162
f 121/184/121 122/311/122 119/288/119
f 129/138/129 163/183/163 233/281/233
f 8/8/8 158/177/158 188/216/188
f 4/4/4 153/172/153 231/278/231
f 153/172/153 130/291/130 231/278/231
f 151/170/151 148/167/148 134/144/134
f 190/218/190 150/279/150 133/143/133
f 131/152/131 5/153/5 137/147/137
f 235/289/235 140/154/140 139/151/139
f 171/195/171 173/197/173 113/120/113
f 155/174/155 156/175/156 4/4/4
f 91/237/91 90/234/90 202/233/202
f 49/50/49 228/270/228 217/254/217
f 210/247/210 209/246/209 52/266/52
f 226/268/226 211/248/211 210/247/210
f 86/301/86 81/83/81 85/87/85
f 6/6/6 5/5/5 131/148/131
f 152/171/152 230/272/230 151/170/151
f 151/170/151 134/144/134 111/118/111
f 155/174/155 126/135/126 125/134/125
f 58/59/58 226/268/226 210/247/210
f 204/236/204 202/233/202 110/117/110
f 182/207/182 236/293/236 160/295/160
