# Blender v2.79 (sub 0) OBJ File: ''
# www.blender.org
o obj1
v -8.298531 -11.424059 1.353881
v -8.569862 -11.646912 0.318228
v -7.684208 -13.449211 0.690583
v -8.466911 -9.184975 -1.801061
v -5.770259 -8.737007 -1.834519
v -6.968092 -13.856451 -1.563251
v -3.945843 -19.180681 -1.804748
v -4.516168 -19.886761 -0.976649
v -5.840464 -16.921114 -1.332440
v -3.865142 -10.375529 3.794025
v -5.306188 -13.746366 3.255346
v -3.660324 -13.264523 2.869388
v -1.396185 -12.383233 3.023981
v -1.056636 -9.446656 3.399394
v -0.824556 -9.065958 -1.517936
v -1.950244 -9.883476 -1.598053
v -1.985855 -8.926882 -1.812835
v -9.113039 0.378892 3.483318
v -9.101106 -3.728312 2.953614
v -3.376109 -0.313169 3.451116
v -10.544600 2.827006 -0.592652
v -9.485038 3.020598 -0.888240
v -10.990198 2.762956 -1.372906
v -7.461244 5.360588 1.725673
v -7.300901 4.414094 2.364731
v -7.113551 6.014802 2.670676
v -1.624603 5.204218 2.740391
v -2.248419 4.650785 2.449640
v -1.546718 3.648373 2.899746
v -2.641023 5.831556 -1.821378
v -2.443049 4.261216 -2.325229
v -3.187105 5.633771 -2.793879
v -5.064497 20.082047 -0.914592
v -4.742041 19.960367 -1.605716
v -5.687886 18.868074 -1.217461
v -1.379092 12.043287 -2.151666
v -3.293816 15.326096 -1.882828
v -0.162458 14.374271 -1.764139
v 3.961470 -17.170855 3.565922
v 0.952804 -15.761424 3.906469
v 2.193295 -17.739252 3.408031
v 3.302212 -18.270218 2.990595
v 5.408033 -17.258780 3.026130
v 8.217710 -14.581948 3.427108
v 6.878467 -17.475044 2.759864
v 8.828035 -18.772211 2.737297
v 9.044220 -9.281796 0.114331
v 8.651930 -9.915859 -0.574684
v 7.597278 -9.275545 -0.579303
v 1.233530 1.699462 -2.148781
v 1.098182 2.591949 1.187735
v 3.439754 1.310360 2.960665
v 2.465543 3.995706 2.973534
v 2.825262 2.033815 2.394140
v 3.781678 4.940042 2.886728
v 6.163168 -0.238787 0.546632
v 4.555351 0.537429 2.864776
v 3.871018 0.605381 -0.598637
v 2.467342 -4.140740 3.135648
v 1.877909 -6.209910 3.235054
v 5.041348 -6.871795 3.454340
v 7.034348 2.764719 -1.675449
v 7.791940 2.875550 -0.938519
v 8.121281 2.210706 -1.192130
v 0.583985 5.605514 -2.432506
v 1.883290 4.646622 -2.743448
v 0.732324 3.047287 -2.998363
v 1.628974 11.719952 -2.451368
v 1.626432 8.651851 -3.213072
v 0.456393 10.865221 -2.317299
v 3.890874 10.829556 -2.520466
v 2.544234 8.975951 -3.047545
v 1.399963 6.980590 2.774478
v 3.078437 5.921326 2.351972
v 5.555940 6.848899 2.347681
v 6.526849 6.751803 -0.808656
v 6.815259 6.092675 0.648261
v 7.407048 4.991210 -0.925748
v -0.641869 22.426420 2.174682
v 1.745474 19.141272 2.630237
v 0.047527 22.287018 2.758933
v 5.443531 7.969824 0.706627
v 5.267406 10.481846 -2.345412
v 5.116897 11.086372 -1.765926
v 4.575639 13.239861 -1.046361
v 3.597213 13.560223 -1.856482
v 4.702726 2.237033 3.138199
v 6.981842 5.992445 2.762779
v 5.663450 6.851879 -2.626760
v 3.348632 5.941392 -2.829849
v 1.387746 6.720770 -2.413349
v 0.023258 5.875644 -2.696063
v 0.811148 7.101944 -2.497747
v -0.841077 6.109720 -2.398094
v -0.082315 4.741352 -2.195131
v 9.332691 -5.682208 1.527136
v 9.165512 -6.563986 -0.108603
v 8.866635 -5.822249 0.940841
v 9.294559 -7.635558 0.534734
v 8.332681 -7.395259 -0.333469
v 7.765690 -0.904998 3.115281
v 8.361386 -1.484612 1.321586
v 9.305579 -0.131398 2.685487
v 7.908262 2.964207 2.401278
v 7.438088 2.355043 2.791694
v 9.449578 1.109142 2.500365
v 8.970692 1.579378 1.162478
v 7.449208 0.526984 -1.867270
v 7.286329 1.460124 -1.701618
v 7.121497 -1.457085 -0.278840
v 5.334916 -0.378945 -1.758469
v 7.297493 -1.263848 -1.677262
v 7.238482 -0.866672 3.461371
v 7.361225 -1.343646 1.261140
v 6.606339 -0.301264 2.371870
v 5.523710 -0.302916 3.784351
v 7.265662 -2.599654 3.536779
v 7.013403 -1.784953 3.813594
v 3.142757 1.279908 -2.478554
v 4.718839 -0.249170 -1.881632
v 3.121808 -2.267182 -1.404156
v 2.569414 -1.199054 -2.062581
v 1.262909 2.730045 1.384870
v 0.227919 2.550543 -2.173354
v 0.600405 3.382888 2.724438
v 0.380288 -3.098761 -1.987160
v 3.532126 -2.702613 -1.747091
v -0.415234 -5.030217 -2.080567
v -2.192021 2.992048 4.321513
v -0.302215 -1.338971 3.243520
v 1.688781 1.249671 3.767446
v 0.342689 2.128639 -1.935877
v -0.598611 3.365167 -2.516752
v 8.557988 -11.168341 0.242675
v 8.941986 -11.314085 -0.319277
v 9.128997 -14.690836 1.135920
v 9.077749 -16.207537 -0.130852
v 8.683217 -14.524927 -0.030286
v 8.518407 -8.852692 -2.180589
v 8.815294 -12.291157 -2.056997
v 8.608451 -12.759357 -2.222713
v 2.844139 -10.131291 3.728588
v 4.614371 -11.339709 3.796555
v 3.393028 -14.418962 3.864376
v 3.998271 -13.042539 3.278182
v 1.233659 -12.798167 3.529241
v 0.737144 -8.107139 3.055408
v 0.881562 -18.809933 2.059458
v 2.548461 -19.070669 1.142102
v -0.996248 -18.899921 2.956639
v -2.683539 -17.007643 3.601475
v -0.236689 -8.720610 -1.791405
v 0.458180 -9.783470 -1.913153
v 0.390532 -20.322632 -1.503874
v 3.384634 -20.624847 -1.853455
v 2.941472 -19.951183 -0.284955
v -1.699228 -20.219526 1.688205
v -1.838452 -20.456055 0.436359
v 1.616648 -19.694063 1.606113
v -0.287820 23.007483 1.910881
v -0.555429 22.779161 0.481805
v -0.472911 23.202385 -1.511098
v -1.712482 22.376965 0.246520
v -1.816450 17.852535 3.082320
v -0.081896 16.574062 2.997885
v -1.479982 21.495693 2.803890
v -1.956936 21.868706 0.374067
v -3.054113 21.735855 -1.435641
v -4.409361 21.106165 -0.775666
v -5.638368 17.487747 -2.142168
v -7.160209 16.322441 -0.369085
v -7.058249 15.563951 2.019459
v -6.578424 17.098068 0.475269
v -6.610825 16.830130 -0.783203
v -0.213840 13.766646 3.374231
v -1.965107 10.647876 3.141588
v -0.423688 8.854070 3.076248
v 0.094314 3.156556 3.579758
v -0.184323 3.620353 2.663575
v -3.074336 10.085367 -2.362303
v -2.030625 10.328653 -2.210124
v -2.827994 9.036957 -1.983628
v -4.786941 2.978647 4.112204
v -3.297039 15.145046 2.666300
v -2.881154 11.854766 2.996393
v -1.631427 14.508967 3.298507
v -3.197015 7.873458 -2.378877
v -4.866293 8.278151 -2.451658
v -4.440478 11.609173 -2.105292
v -6.381249 5.624482 3.125516
v -3.680467 5.931525 2.986717
v -5.312936 7.966892 2.832659
v -5.513531 5.080791 3.279558
v -5.445630 4.067578 2.951228
v -8.519103 8.219128 -1.930922
v -8.143209 10.188324 -0.335070
v -7.936459 11.788437 -1.395091
v -7.398049 9.800718 0.439023
v -7.619061 8.175283 0.061378
v -7.835302 8.110775 2.094150
v -8.707457 7.385892 -0.831807
v -8.886364 6.928445 -1.443376
v -0.235321 -1.486263 -2.214469
v -2.138389 -1.474980 -2.159111
v -3.157093 -1.277997 -2.691974
v -2.677166 0.505455 -2.020938
v -1.536191 0.493598 -1.500778
v -2.215789 -0.012500 -2.348516
v -3.110693 -4.046065 -2.528142
v -1.680957 -4.141562 -1.794365
v -2.050865 -4.683307 -1.699518
v -5.108344 -1.105584 -2.668097
v -6.092283 -0.392129 -2.491966
v -4.622447 -5.116055 -1.529770
v -6.515056 -5.026243 -2.378472
v -7.128552 2.331547 -2.739102
v -4.766605 0.668719 -2.317083
v -6.694166 1.755013 -2.123561
v -4.012191 -5.977500 -1.236041
v -4.500773 -6.883250 -2.112318
v -4.916097 -6.538614 -1.426275
v -4.146240 -5.728805 -1.783637
v -5.826864 -8.112923 -1.862655
v -5.591157 -3.083636 -2.759798
v -9.044275 -1.632951 -2.753571
v -8.767877 -0.568354 -2.824759
v -8.264795 -5.706943 -2.313050
v -10.652383 -1.206639 -2.234371
v -10.779309 0.804803 -0.724864
v -9.227293 -1.703922 0.499954
v -9.265275 -3.342682 1.130892
v -9.420604 -2.733606 1.775599
v -4.006589 -14.243718 3.389745
v -4.040195 -15.573117 3.452305
v -6.526092 -16.525383 1.517325
v -5.011171 -20.208721 1.209380
v -6.640812 -15.565723 2.700107
v -5.064989 -15.948175 -1.608762
v -6.402033 -15.391220 -0.979030
v -5.607920 -17.013380 0.131099
v -6.545178 -15.519173 -0.231577
v -9.109479 -9.198714 3.236721
v -7.962680 -11.758512 3.196718
v -6.842485 -8.326058 3.772081
v -7.487739 -13.634543 2.961604
v -5.918933 -11.841624 4.052495
v -8.799114 -11.575182 1.624653
v -8.179199 -11.194096 -1.326374
v -7.266678 -13.709953 -0.467785
v -9.300366 -8.913832 -0.592203
v -9.564063 -9.649551 -0.133509
v -8.194502 -11.434019 -0.263260
v -9.647034 -6.125635 3.055099
v -10.112310 -8.035696 1.553041
v -2.030601 -20.307245 -0.947090
v -3.098367 3.700716 -2.900444
v -2.564841 2.554998 -2.845736
v -4.948291 2.221198 -3.070820
v -4.910793 -20.248674 0.204213
v -3.938687 -20.103077 2.231802
v -9.871906 -9.412596 0.767896
v -7.140712 -7.703392 -2.252969
v -5.416642 -17.493164 -0.392787
v -5.386621 -19.179285 0.379668
v -5.424386 -10.099420 3.775620
v -2.558504 -18.461702 2.913720
v -2.754409 -19.512239 2.539444
v -2.242825 -11.634092 -1.565810
v -3.082016 -12.990934 -1.382019
v -2.196288 -14.703465 3.754735
v -3.182680 -9.048910 -1.531924
v -1.089250 -14.008410 -2.221142
v -9.565338 -5.127797 1.211467
v -10.173150 -5.549731 -1.705900
v -10.203667 -1.597906 -1.094418
v -10.238128 0.230535 -0.304094
v -8.736646 -1.455784 0.188132
v -9.320128 -0.431026 1.629355
v -10.129022 -0.733225 -0.018394
v -10.946404 1.869993 -0.254501
v -9.620131 2.395008 1.776938
v -10.152063 2.692094 1.260395
v -8.562147 2.568623 1.644617
v -9.498788 -7.448359 0.657033
v -7.838593 2.105113 3.880610
v -7.626684 3.121152 3.078224
v -8.240893 2.649241 3.502573
v -5.435054 -5.731674 3.635006
v -8.267082 3.070934 2.702989
v -7.591279 -6.840787 -1.835353
v -9.687848 -6.934710 -1.428584
v -8.423568 1.956797 -1.969121
v -3.844383 -2.075784 3.426011
v -5.442593 -5.938452 -1.116441
v -6.474860 -6.904652 -0.985190
v -0.763769 -2.665288 3.403184
v -3.413841 -4.993007 -2.028809
v -2.340041 -5.734259 -2.091730
v -1.652320 1.602526 -1.996446
v -0.328786 -0.854577 -2.590752
v 0.477169 -6.641366 -1.837804
v -1.113922 -2.203581 -2.556422
v -0.377223 1.067453 -2.389794
v -0.526006 2.554210 -2.452705
v 0.509860 2.390159 4.099607
v -0.972580 4.562088 -2.709434
v -8.104424 4.001291 1.927902
v -8.217871 4.600096 -0.506328
v -7.964289 4.297933 0.963745
v -8.634679 4.576109 -2.255291
v -9.518894 4.268178 -1.722798
v -7.392515 7.176387 0.397073
v -7.392523 12.042999 -1.939675
v -7.691594 12.211668 0.838980
v -6.631322 6.963340 2.398522
v -7.509833 6.966159 2.520125
v -6.001029 10.618895 -2.231953
v -3.045889 10.314838 2.150176
v -3.898583 10.091366 2.398586
v -2.966980 8.581892 2.328088
v -3.934758 12.434778 2.460341
v -2.210957 7.630348 2.643965
v -1.806427 11.196791 -1.824929
v -3.964037 11.977665 -1.911720
v -3.119256 3.418318 2.648561
v -2.217971 5.753346 2.162471
v -2.507918 8.290909 -1.864313
v -2.342602 7.232298 -2.211845
v 0.429551 4.551022 2.602394
v -2.226316 5.063806 -2.162359
v 0.104950 8.390343 -2.547973
v -0.049585 9.061049 -2.246271
v -0.581001 11.580053 -1.958120
v -7.235709 14.503683 1.050337
v -5.797948 18.715382 1.215356
v -5.851601 17.578344 2.566509
v -5.839585 18.124086 -0.602471
v -6.457004 14.729567 2.410270
v -4.844267 20.888012 2.498375
v -3.704050 21.803242 1.241130
v -1.291705 20.094421 -2.217344
v -3.532833 20.603743 -2.256414
v -2.213817 22.480572 -2.505644
v -2.581115 22.068108 2.671788
v -2.011753 22.612785 -1.394989
v -0.868991 15.019497 2.756577
v 1.199618 14.896752 2.943028
v 4.854122 0.696810 -2.222756
v 2.703302 -19.592194 0.987576
v 3.321653 -19.828966 -2.188664
v 0.058453 -19.608225 -1.785563
v 4.716346 -20.029779 0.838422
v 4.734473 -19.935150 2.226134
v 5.002631 -20.388039 -0.473881
v 4.792577 -18.774672 2.648468
v 6.679742 -19.907452 0.682661
v 7.293468 -20.442307 -1.040329
v 6.723077 -19.580231 -0.168044
v 7.448164 -19.846912 2.585618
v 9.108904 -20.075407 -1.464987
v 8.885213 -20.226465 0.255468
v 9.107100 -19.229134 0.066419
v 3.161556 -16.262228 -2.161161
v -2.773955 -15.141054 -1.550420
v 2.431521 -14.393894 -2.454115
v 2.490049 -9.049810 -1.742604
v 1.618890 -7.623210 -1.663122
v 5.420193 -17.738838 -2.463568
v -1.101608 -17.487911 -1.768569
v 0.475378 -12.873890 -2.155008
v 2.325392 -11.358017 -1.906833
v 2.397670 -11.774264 3.841080
v 3.949842 -15.972495 3.278593
v 4.744717 -15.696802 -2.192943
v 5.297991 -15.969710 3.042723
v 8.431802 -14.526331 -2.538512
v 7.772398 -16.083530 -2.218939
v 7.031501 -17.353024 -2.271276
v 9.050425 -17.977974 -2.293050
v 7.404608 -18.833815 -2.130917
v 9.457577 -15.510197 -2.227216
v 8.884879 -16.906958 -0.622877
v 9.350739 -15.989746 -1.040257
v 9.129038 -9.954350 -1.234548
v 9.229154 -8.771683 2.621423
v 8.598093 -11.246333 3.299164
v 8.920230 -11.379713 1.357418
v 8.685843 -8.522434 -0.533019
v 9.048681 -9.008308 -1.090370
v 9.242996 -7.506083 -0.970213
v -2.018473 -7.347206 3.872634
v 1.248228 0.594031 -2.321323
v 2.027592 2.112666 3.058120
v 1.555183 -2.004273 -1.257352
v 1.546407 -2.622956 -1.769378
v 3.516368 -4.177806 -1.717986
v 3.444473 -1.303905 3.656369
v 3.090307 0.705086 3.585095
v 3.792609 0.703061 0.964712
v 3.055261 4.276276 -2.787492
v 3.501481 -6.198875 -1.873845
v 4.278460 0.589361 4.228151
v 4.088770 0.370585 2.496975
v 3.169365 0.532098 -2.193230
v 4.848827 -0.290860 -0.286894
v 8.426255 -4.605446 3.532362
v 5.760646 0.123263 2.614515
v 7.178166 -0.042816 3.239327
v 6.159716 -1.427783 -1.735249
v 7.585226 -1.356321 0.962414
v 6.586233 1.492891 2.593422
v 8.049051 -5.682522 -1.984405
v 5.784411 -5.140076 -2.152258
v 8.569771 -7.916735 4.008255
v 7.911178 -2.327677 -1.473689
v 6.522457 -1.438588 -0.308707
v 8.367022 -3.616733 -0.045703
v 8.057759 -2.914349 1.410289
v 8.911031 -1.151147 -1.789687
v 8.983276 -4.176284 -1.281005
v 8.432612 -3.553684 2.947349
v 8.672050 0.977529 2.919898
v 7.863015 3.814020 1.149257
v 8.083782 -1.818226 -0.537928
v 8.937316 -0.621189 -0.282131
v 8.780983 -1.014274 0.707054
v 8.560683 1.841136 -0.388185
v 8.557098 -0.393942 -1.371859
v 9.141243 -0.635668 1.219272
v 9.514490 -5.515252 -0.803384
v 8.877433 -6.229345 -0.654801
v 9.109992 -5.938211 -1.463701
v 9.348711 -5.723745 0.451912
v 9.043627 -4.432264 0.993618
v 9.038920 -5.811836 3.399454
v -0.649766 5.510982 -2.219307
v -1.163048 6.901874 2.319091
v 2.111498 5.302642 1.744079
v 1.657723 13.980284 -1.781948
v 4.523068 11.136204 2.729785
v 2.049803 6.072046 -3.055886
v 4.708054 9.561986 -3.106043
v 6.084014 5.815919 -2.059029
v 3.793803 14.357267 0.526498
v 4.183547 10.704063 0.715964
v 6.913710 6.766976 1.007072
v 6.596570 7.538801 -2.117757
v 7.382710 4.228233 0.723840
v 1.657655 16.104830 2.500590
v 1.314032 22.929939 -0.558780
v 1.885097 22.130476 -1.024077
v 3.401090 19.665005 2.449651
v 2.897234 20.365541 -1.582858
v -0.017148 19.831627 -1.970269
v 1.969761 21.361952 -1.615968
v 3.960800 16.416691 2.178575
v 3.422136 20.228539 -1.258410
v 3.344316 20.733913 0.895225
v 3.839065 18.396925 1.070698
v 2.732584 20.900270 2.570269
v 4.004683 19.559566 1.776905
v 4.105408 13.840004 2.764782
v 5.315612 10.161205 2.033766
v 4.434531 14.142689 0.947234
v 3.762738 17.418360 0.082085
v 3.971368 18.112200 1.846546
v 3.470771 18.825504 -1.534240
v 3.594881 18.049881 -1.681460
v 3.077949 20.971470 -1.196383
v 1.315383 22.846760 2.408806
v 7.575299 5.065067 1.623831
v 6.792217 6.781410 1.876589
v 9.359214 -6.342976 -0.965194
v 9.235777 -7.828958 -1.761208
v 0.429846 -10.281480 3.260134
v 9.102894 -20.108896 1.169144
v 7.968907 -20.749365 -1.836463
v 6.856359 -20.280815 -2.242387
v 5.028275 -21.071863 -1.581532
v -4.270081 21.268084 2.905679
v -3.747783 7.828627 2.801570
v -7.299574 11.361794 2.636684
v -6.211162 3.237906 2.788088
v -4.820474 4.920387 -2.964681
v -3.773408 4.224359 -3.190634
v -0.671937 -3.835477 -1.882226
v -2.330272 -6.683952 -1.996785
v -5.398016 3.235608 3.158900
v -9.649063 2.809185 -2.340313
v -10.122221 0.788047 -2.465462
v -7.791460 13.577114 -1.606962
v 8.040028 2.078409 0.678108
v 0.991198 9.082878 -2.513994
v 6.663096 4.438159 2.927079
v 9.103281 -16.106886 2.657434
v 6.471185 -11.311290 3.524984
v -1.640381 6.763761 -2.067593
v -4.009154 6.321612 -2.483693
v -2.937205 -2.321597 -2.848610
v -2.255010 15.918119 2.592479
v 4.801559 9.117456 1.174587
vt 0.795826 2.212910
vt 0.903362 2.163094
vt 0.974914 2.366882
vt 1.028526 1.847298
vt 1.298302 1.798834
vt 1.209434 2.306562
vt 1.567350 2.776850
vt 1.506354 2.866082
vt 1.357686 2.609774
vt -1.012474 -0.320010
vt -1.352034 -0.334362
vt -1.249178 -0.457186
vt -1.093646 -0.606894
vt -0.830006 -0.531286
vt 1.768382 1.812978
vt 1.669790 1.894462
vt 1.659130 1.796858
vt -0.240690 0.524782
vt -0.643066 0.417454
vt -0.124262 0.005770
vt 0.670766 0.769546
vt 0.687562 0.667730
vt 0.728382 0.788578
vt 1.101690 -0.801582
vt 1.110530 -0.925810
vt 1.224618 -0.785670
vt 1.722414 -1.102142
vt 1.634794 -1.117742
vt 1.663550 -1.247430
vt -0.729074 2.377854
vt -0.687578 2.523974
vt -0.809986 2.430582
vt -1.277674 1.075774
vt -1.205706 1.101254
vt -1.295822 1.210922
vt -0.744206 1.777358
vt -0.978778 1.509610
vt -0.671978 1.535818
vt -1.299358 -1.216282
vt -1.293066 -0.925810
vt -1.415214 -1.101206
vt -1.423846 -1.217998
vt -1.258694 -1.344774
vt -0.951790 -1.495002
vt -1.225830 -1.467442
vt -1.258382 -1.628902
vt -0.341986 -1.710854
vt -0.397938 -1.802686
vt -0.295082 -1.872938
vt 0.906898 -0.460670
vt 0.560162 -0.318138
vt 0.314358 -0.556350
vt 2.064262 -1.360270
vt 2.031918 -1.574042
vt 2.215738 -1.315238
vt 2.187346 -1.967214
vt 2.184642 -1.725986
vt 1.925890 -1.918126
vt -0.243602 -0.640694
vt -0.445050 -0.663730
vt -0.390502 -0.961482
vt 0.227258 2.484610
vt 0.327826 2.467762
vt 0.328346 2.537390
vt -0.425186 2.342182
vt -0.277402 2.397978
vt -0.342818 2.570202
vt -0.440006 1.755882
vt -0.366790 2.042974
vt -0.539326 1.861806
vt -0.203354 1.795558
vt -0.292846 1.997318
vt 2.079550 -1.017382
vt 2.185890 -1.186330
vt 2.462582 -1.203490
vt 0.219562 2.074434
vt 0.404422 2.093206
vt 0.281442 2.267302
vt 2.376834 0.373566
vt 2.470486 0.058186
vt 2.440586 0.320890
vt 0.318154 1.855878
vt -0.069766 1.817450
vt -0.068102 1.733678
vt -0.148858 1.498326
vt -0.285878 1.514966
vt 2.231286 -1.590734
vt 2.522278 -1.347686
vt 0.022846 2.118374
vt -0.164666 2.247646
vt -0.382390 2.226586
vt -0.482438 2.325802
vt -0.440942 2.203914
vt -0.565482 2.323722
vt -0.472350 2.434586
vt -0.059418 -1.419446
vt -0.064202 -1.609922
vt -0.016414 -1.485278
vt -0.192070 -1.602382
vt -0.120362 -1.717302
vt 2.413598 -1.888382
vt 2.442458 -2.049946
vt 2.494510 -1.878658
vt 2.533510 -1.636442
vt 2.459306 -1.665770
vt 2.540114 -1.821042
vt 2.655554 -1.802634
vt 0.267818 2.668482
vt 0.253726 2.598594
vt 0.292986 2.856670
vt 0.135114 2.765566
vt 0.279310 2.770246
vt 0.197514 -0.934182
vt 0.326006 -1.087062
vt 0.293402 -0.911822
vt 0.183630 -0.783070
vt 0.070322 -1.016602
vt 0.126742 -0.958622
vt -0.088746 2.679142
vt -0.017246 2.872582
vt 2.260874 0.928562
vt 2.106174 1.121326
vt 2.052302 1.005054
vt 1.830158 -1.521678
vt -0.386810 2.661878
vt 1.862970 -1.356214
vt 1.851894 1.223194
vt 2.151830 1.169790
vt 1.780602 1.419338
vt 0.208902 0.021526
vt -0.100290 -0.298586
vt 0.216234 -0.374870
vt 0.910278 -0.351782
vt 0.935498 -0.304878
vt -0.485610 2.584034
vt 2.907026 1.848598
vt 2.969842 1.984006
vt 2.901774 1.995342
vt -0.909722 -1.732746
vt -1.039826 -1.876422
vt -0.869786 -1.849226
vt 2.691746 1.720730
vt 2.717902 2.091646
vt 2.688418 2.138394
vt -0.747222 -0.888630
vt -0.789602 -1.084826
vt -1.107218 -1.075258
vt -0.964686 -1.092314
vt -1.034262 -0.845158
vt -0.649462 -0.634766
vt -1.603038 -1.065066
vt -1.616350 -1.231518
vt -1.624566 -0.879062
vt -1.512662 -0.681618
vt 1.820694 1.770130
vt 1.897602 1.869138
vt 1.973002 2.879290
vt 2.271638 2.858958
vt 2.227750 3.031182
vt -1.805474 -0.867830
vt -1.935838 -0.893622
vt -1.677450 -1.147538
vt 2.437570 0.406690
vt 2.427742 0.536794
vt -0.931042 0.645890
vt -0.884710 0.807714
vt -1.045130 0.700230
vt 2.157186 0.047162
vt 2.258482 -0.107694
vt 2.279802 0.308566
vt -1.100874 0.706782
vt -1.082622 0.908594
vt -1.233266 0.957994
vt -1.230250 1.350126
vt -1.451978 1.462914
vt -1.698042 1.469726
vt -1.505122 1.352102
vt -1.392022 1.409094
vt 2.154378 -0.364574
vt 1.900046 -0.574290
vt 1.971962 -0.785306
vt 0.336146 -0.161878
vt 0.434842 -0.119550
vt 0.378162 0.020382
vt -0.867498 2.007458
vt -0.770882 1.962270
vt -0.818150 2.106882
vt 0.120242 0.236806
vt 1.933586 -0.129066
vt 1.861150 -0.438674
vt 2.057606 -0.258390
vt -0.842278 2.227886
vt -1.008834 2.212806
vt -1.026410 1.881098
vt 1.281766 -0.864138
vt 1.538178 -0.940058
vt 1.470838 -0.689314
vt 1.338030 -0.948638
vt 1.294454 -1.051338
vt -1.375902 2.280510
vt -1.522854 2.070586
vt -1.401694 1.911258
vt 1.171890 -0.337586
vt 1.064718 -0.468314
vt 1.241102 -0.556298
vt -1.785402 2.533282
vt -1.486454 2.362982
vt -1.425094 2.414930
vt 1.786686 1.057418
vt 1.614046 1.074162
vt 1.517742 1.038074
vt 1.561526 0.858154
vt 1.668958 0.848742
vt 1.601618 0.919774
vt 1.521694 1.309514
vt 1.661574 1.337282
vt 1.630634 1.381430
vt 1.331790 1.034382
vt 1.237722 0.971046
vt 1.385714 1.453970
vt 1.210474 1.408834
vt -1.103734 2.831086
vt -0.838014 2.944446
vt -1.054958 2.911582
vt 1.443902 1.546270
vt 1.418838 1.634566
vt 1.369438 1.577314
vt 1.435634 1.497546
vt 1.295026 1.737422
vt 1.292010 1.222466
vt 0.976214 1.106714
vt 0.993270 1.009110
vt 1.049638 1.475810
vt 0.828378 1.083470
vt 0.678566 0.924350
vt 0.582314 1.159130
vt 0.536034 1.317886
vt 0.475662 1.275454
vt -1.349850 -0.458798
vt -1.453018 -0.517610
vt -1.709794 -0.303110
vt -1.899958 -0.600238
vt -1.565546 -0.291150
vt 1.415614 2.503798
vt 1.253790 2.478422
vt -1.873594 -0.293646
vt -1.804330 -0.135046
vt -1.107426 0.174458
vt -1.292858 -0.018150
vt -0.950958 0.009462
vt -1.436014 -0.142118
vt -1.208774 -0.204778
vt -1.601530 0.005614
vt -1.395922 0.140606
vt 1.055150 2.057586
vt 1.101794 2.340778
vt 0.867898 1.845894
vt 0.825882 1.937674
vt 0.967738 2.125134
vt -0.875922 0.338674
vt -1.098326 0.383498
vt 1.731826 2.911738
vt -0.748262 2.605614
vt -0.672862 2.704414
vt -0.893186 2.784338
vt 1.442082 2.969146
vt -1.808906 -0.677718
vt -1.448286 0.174198
vt -1.256302 0.377310
vt 1.186450 2.525118
vt 1.154834 1.698006
vt 1.318738 2.714450
vt -1.933966 -0.490934
vt -1.047730 -0.175086
vt -1.638190 -0.736530
vt -1.734234 -0.751662
vt 1.654814 2.063722
vt 1.582378 2.200742
vt -1.316206 -0.638250
vt 1.545510 1.828890
vt 1.789130 2.278326
vt -0.853562 0.546466
vt 0.861554 1.462446
vt -0.673122 0.617342
vt -0.586958 0.578550
vt 0.733322 1.140774
vt 0.637070 0.985502
vt 0.620638 1.123146
vt 0.458034 1.052530
vt 0.592194 1.059134
vt 0.640138 0.852070
vt 0.462194 0.783326
vt -0.078190 0.726438
vt -0.365594 0.675530
vt 0.535774 0.779010
vt 0.417526 0.662582
vt -1.094738 0.503410
vt -0.059626 0.462954
vt 0.053994 0.515370
vt 0.027110 0.690454
vt -0.024734 0.524106
vt -0.672030 -0.007958
vt 0.986250 -1.025650
vt 0.882406 -1.027366
vt 1.041318 -1.069174
vt 1.113754 1.599622
vt 0.886774 1.605082
vt 1.161386 0.764242
vt 0.988486 0.757066
vt -0.293314 -0.013834
vt 1.355294 0.860130
vt 1.318062 1.526406
vt 1.240530 1.606070
vt -0.233306 -0.305502
vt 1.500478 1.422354
vt 1.604010 1.488394
vt -0.548010 2.800354
vt 1.649250 0.744274
vt 1.771866 0.992262
vt 1.876542 1.568214
vt 1.695842 1.139422
vt 1.771814 0.780986
vt 1.737806 0.627430
vt 1.831718 0.672514
vt 0.265582 -0.221054
vt -0.552690 2.476758
vt -1.771102 2.828434
vt -1.799338 2.678622
vt -1.566794 2.633174
vt -1.708858 2.641858
vt -1.312982 2.650178
vt -1.409026 2.699110
vt -1.667102 2.351178
vt -1.324058 1.880058
vt -1.629142 1.850626
vt -1.635122 2.098822
vt 1.307506 -0.720202
vt 1.236786 -0.678446
vt -1.162026 2.002934
vt 1.764742 -0.563318
vt 1.681334 -0.551514
vt 1.715394 -0.715366
vt 1.773738 -0.348142
vt 1.754394 -0.837098
vt -0.768542 1.867890
vt -0.985954 1.833726
vt 1.507082 -1.201202
vt 1.683934 -1.015666
vt -0.772910 2.171778
vt -0.720910 2.261166
vt 1.888190 -1.237602
vt 1.795630 -1.304682
vt -0.678998 2.442386
vt -0.526846 2.102566
vt -0.558098 2.040686
vt -0.657626 1.809962
vt -1.629298 1.604822
vt -1.529042 1.160014
vt 1.616126 0.079454
vt 1.822566 0.180126
vt 1.817574 0.342886
vt -1.372678 1.262974
vt 1.632246 -0.031254
vt 1.981946 0.625454
vt 1.869314 0.598050
vt 2.032230 0.357134
vt 2.112882 0.472418
vt 2.258950 0.578082
vt -0.889858 1.065218
vt -1.082518 1.039530
vt -0.972018 0.910986
vt 2.213190 0.371434
vt -0.994586 0.842086
vt 2.144030 -0.218246
vt 2.314382 0.579486
vt 2.316150 -0.302226
vt 0.071310 2.689178
vt -1.770114 -1.361726
vt -1.659718 -1.267970
vt 2.251098 2.778722
vt 1.934990 2.805242
vt -1.604754 -1.477374
vt -1.498206 -1.427662
vt -1.704802 -1.562186
vt -1.405334 -1.371242
vt -1.520774 -1.637326
vt 2.444070 2.986358
vt 2.627994 2.859582
vt 2.640994 2.984590
vt -1.578078 -1.700298
vt -1.364202 -1.586470
vt 2.705890 2.738994
vt 2.815194 2.837014
vt 2.851334 2.738474
vt 2.191350 2.457466
vt 1.631154 2.405986
vt 2.111634 2.290702
vt 2.086622 1.784898
vt 1.996142 1.653598
vt 2.404394 2.571866
vt 1.808370 2.609046
vt 1.922562 2.161482
vt 2.085374 2.005066
vt -0.903430 -0.910054
vt -1.197750 -1.190438
vt 2.332582 2.393870
vt -1.157190 -1.296154
vt 2.647234 2.301258
vt 2.591230 2.426994
vt 2.534446 2.530058
vt 2.693462 2.572854
vt 2.572822 2.643054
vt 2.722114 2.385810
vt 2.851334 2.516330
vt 2.912278 2.465370
vt 2.816494 2.426890
vt 2.933702 2.309006
vt 2.817118 1.837366
vt -0.377034 -1.449138
vt -0.637346 -1.446382
vt -0.594238 -1.641902
vt -0.547074 -1.755054
vt 2.991370 1.753282
vt 2.893298 1.665922
vt 2.824814 1.728010
vt 2.920650 1.545958
vt 2.812178 1.563898
vt -0.237206 -1.752454
vt -0.684666 -0.364574
vt 1.920170 0.837770
vt 1.506094 -1.731186
vt 0.343322 -0.385166
vt 1.975810 1.103594
vt 1.966190 1.170466
vt 2.154898 1.311022
vt 0.034910 -0.630970
vt 0.213582 -0.536018
vt 0.513934 -0.671894
vt -0.158790 2.408014
vt 2.166806 1.505502
vt 0.205574 -0.653850
vt 0.345194 -0.680266
vt 2.110854 0.847494
vt 2.333726 0.616666
vt 2.373246 0.811926
vt -0.081414 -1.183470
vt 2.260562 -1.797330
vt 2.373870 -1.838150
vt 2.404238 1.039218
vt 2.341630 -2.059306
vt 2.362690 -1.708514
vt 2.596170 1.425110
vt 2.375586 1.388190
vt -0.357274 -1.290746
vt 2.552386 1.137914
vt 2.528622 0.952846
vt 2.724142 1.146754
vt 0.180302 -1.222262
vt 0.338070 2.758494
vt 2.667202 1.268122
vt 2.800010 1.005678
vt 0.026434 -1.171718
vt 2.483954 -1.804038
vt 2.658050 -1.558702
vt 0.345038 2.816162
vt 0.416642 2.748354
vt 0.473062 2.826510
vt 0.397506 2.561206
vt 0.341970 2.720170
vt 2.552334 -1.987806
vt 2.858874 1.444350
vt 2.756642 1.350802
vt 2.801518 1.417778
vt 2.713898 1.425214
vt 2.855598 1.326154
vt 2.926266 1.331510
vt 2.867090 1.185598
vt 0.076822 -1.376806
vt -0.164354 -1.276238
vt -0.540522 2.379050
vt 1.825010 -0.955138
vt 2.064054 -1.196834
vt -0.492370 1.528278
vt 2.511982 -0.743186
vt -0.286138 2.259190
vt -0.121090 1.914430
vt 0.103914 2.201366
vt -0.066594 1.294850
vt 0.166418 1.594630
vt 0.441706 2.017182
vt 0.085298 2.028778
vt 0.518354 2.339582
vt 0.453822 2.296526
vt 2.399090 -0.203374
vt -0.734014 0.732834
vt -0.672082 0.810522
vt 2.623938 0.069002
vt -0.564754 0.945358
vt -0.779618 1.059082
vt -0.657366 0.892162
vt 2.629762 -0.232494
vt -0.515614 0.932930
vt -0.428462 0.760602
vt -0.250674 0.925182
vt 2.591386 0.179710
vt 2.694450 0.063854
vt 2.775622 0.197286
vt 2.544950 -0.480014
vt 2.589358 -0.873966
vt 2.727106 -0.463738
vt 2.842286 -0.148254
vt 2.676978 -0.074986
vt 2.751234 -0.048570
vt -0.469230 1.044678
vt -0.270330 1.059914
vt -0.437874 1.106662
vt -0.561218 0.887690
vt 2.531638 0.335866
vt 2.665278 0.573142
vt 2.614838 -1.438894
vt 2.589202 -1.263914
vt 2.777806 1.460314
vt 2.745618 1.610750
vt 2.690498 0.871726
vt 1.923134 0.721186
vt -0.850806 -0.689418
vt -1.342362 -1.734514
vt -1.383078 -1.793378
vt -1.297590 -1.831182
vt 2.625290 2.780074
vt 2.543390 2.751786
vt 2.425142 2.869306
vt 2.086674 0.345174
vt 1.609730 -0.763258
vt 1.440678 -0.316838
vt 1.184786 -1.110930
vt -1.612918 2.262154
vt 1.049326 -0.576630
vt 1.003670 -0.922742
vt -0.466162 2.667494
vt -0.945602 2.530994
vt -0.831046 2.574466
vt 1.749974 1.298906
vt 1.606870 1.577366
vt 0.322366 0.167698
vt 0.168602 0.335398
vt -1.227546 2.922398
vt -1.359834 2.848610
vt 0.837062 0.712398
vt 0.857394 0.904798
vt 0.690214 1.720886
vt 0.573266 1.497078
vt -1.986590 -0.594830
vt -1.385158 1.736538
vt 0.490950 2.513834
vt -0.459038 2.023266
vt 2.462790 -1.461982
vt 0.584654 2.581122
vt 0.551322 2.810858
vt 0.380346 2.954066
vt -1.057610 -1.621206
vt -0.723042 -1.248106
vt -0.652218 2.278950
vt -0.894590 2.378946
vt 0.154458 0.421302
vt 0.721674 1.939026
vt 1.343906 2.897386
vt 1.731774 3.047926
vt 1.246562 2.699266
vt 1.532042 1.144362
vt -1.501534 2.816006
vt 1.327266 -0.154390
vt 1.480614 0.026466
vt 1.271262 -1.142286
vt 2.054902 -0.100154
vt 1.814142 0.628626
vt 0.607638 -0.870274
vt 0.475558 2.924010
vt 2.765846 -0.793574
vt 2.672506 -1.271610
vt 2.745462 -1.098450
vt 2.722634 -0.959090
vt 0.293246 1.718026
vt 2.801934 -0.444290
vn -0.8188 -0.3459 -0.4581
vn -0.9052 -0.4020 -0.1375
vn -0.8886 -0.4034 -0.2182
vn -0.4762 -0.1992 -0.8565
vn 0.0106 -0.0902 -0.9959
vn -0.5686 -0.2907 -0.7695
vn -0.2441 -0.3485 -0.9050
vn -0.5184 -0.6639 -0.5390
vn -0.7684 -0.2867 -0.5722
vn 0.1027 -0.0986 0.9898
vn -0.0106 -0.1928 0.9812
vn 0.0665 0.0414 0.9969
vn -0.0804 0.0444 0.9958
vn 0.1109 -0.0661 0.9916
vn -0.0470 -0.2519 -0.9666
vn -0.0761 -0.0294 -0.9967
vn 0.0163 -0.2180 -0.9758
vn -0.6608 -0.0523 0.7487
vn -0.6864 0.0570 0.7249
vn -0.0195 -0.1388 0.9901
vn -0.5903 0.7849 0.1884
vn -0.5754 0.7763 0.2574
vn -0.8125 0.5618 -0.1556
vn -0.9242 0.1369 0.3566
vn -0.5523 0.2712 0.7883
vn -0.6035 0.0514 0.7957
vn -0.2315 0.1932 0.9535
vn -0.1233 0.1268 0.9842
vn -0.0250 0.6323 0.7743
vn 0.3281 0.1504 -0.9326
vn 0.2399 0.2964 -0.9244
vn 0.4337 0.2374 -0.8692
vn -0.8284 0.5075 -0.2371
vn -0.6627 0.4684 -0.5843
vn -0.8671 0.3979 -0.2998
vn 0.0516 -0.1130 -0.9923
vn 0.0496 -0.0146 -0.9987
vn 0.0437 0.0370 -0.9984
vn 0.2592 -0.2278 0.9386
vn -0.0064 -0.0648 0.9979
vn 0.0080 -0.5014 0.8652
vn 0.0099 -0.7007 0.7134
vn 0.1627 -0.1153 0.9799
vn 0.2920 -0.0901 0.9522
vn 0.0322 -0.1106 0.9933
vn 0.5769 -0.2665 0.7721
vn 0.8994 -0.0978 -0.4260
vn 0.8694 0.4940 0.0071
vn 0.9999 -0.0131 -0.0103
vn 0.3069 0.6430 -0.7017
vn 0.5528 0.8212 -0.1413
vn 0.5409 0.8092 0.2294
vn -0.0327 0.0754 0.9966
vn -0.4615 -0.5895 0.6629
vn -0.1025 0.1998 0.9745
vn -0.5135 -0.7179 0.4701
vn -0.3137 -0.6411 0.7004
vn -0.5310 -0.8446 0.0685
vn -0.0117 -0.0259 0.9996
vn 0.0151 0.0306 0.9994
vn -0.0625 0.0672 0.9958
vn 0.4282 0.1082 -0.8972
vn 0.8498 0.3971 -0.3468
vn 0.7208 0.3403 -0.6039
vn 0.0282 -0.0798 -0.9964
vn -0.1207 0.0515 -0.9913
vn -0.2391 -0.2420 -0.9404
vn -0.1222 0.2605 -0.9577
vn -0.3367 -0.0151 -0.9415
vn -0.2223 0.1698 -0.9601
vn 0.1665 0.3583 -0.9186
vn 0.0879 0.0889 -0.9922
vn -0.0300 -0.3179 0.9477
vn -0.1751 -0.0001 0.9845
vn 0.1376 0.1909 0.9719
vn 0.9317 0.3560 -0.0717
vn 0.8650 0.3855 -0.3212
vn 0.9091 0.2745 -0.3135
vn -0.3670 0.6628 0.6527
vn 0.1098 0.0009 0.9939
vn -0.3517 0.1800 0.9187
vn 0.8179 0.5247 -0.2360
vn 0.7316 0.4766 -0.4874
vn 0.8826 0.4021 -0.2436
vn 0.9672 0.2090 -0.1445
vn 0.3376 0.1798 -0.9240
vn -0.0896 -0.0814 0.9927
vn 0.5678 0.3464 0.7468
vn 0.4751 -0.1466 -0.8676
vn 0.1322 -0.0435 -0.9903
vn -0.3579 -0.0630 -0.9316
vn -0.0811 -0.1232 -0.9891
vn 0.0607 0.0546 -0.9967
vn -0.2290 0.0213 -0.9732
vn -0.0694 0.0744 -0.9948
vn 0.9856 0.1483 -0.0817
vn 0.9876 0.1450 -0.0605
vn 0.9439 0.2638 -0.1988
vn 0.9590 -0.0373 -0.2808
vn 0.9647 -0.2629 0.0158
vn -0.1505 -0.6641 0.7323
vn 0.3094 -0.9296 0.2005
vn 0.7747 -0.3128 0.5496
vn 0.7188 0.3580 0.5960
vn 0.1935 0.0594 0.9793
vn 0.8855 0.2821 0.3692
vn 0.8034 0.2856 -0.5224
vn 0.1745 0.1096 -0.9785
vn 0.2548 0.1139 -0.9603
vn -0.4370 -0.8968 0.0685
vn -0.3112 -0.7262 -0.6130
vn -0.1956 -0.6729 -0.7134
vn 0.7831 0.4200 0.4586
vn 0.8171 0.5316 -0.2232
vn 0.5135 0.8574 -0.0351
vn 0.2887 0.5227 0.8021
vn 0.4866 0.1461 0.8613
vn 0.3834 -0.1400 0.9129
vn -0.1777 -0.6096 -0.7725
vn 0.4518 0.5539 -0.6993
vn -0.1209 0.1494 -0.9814
vn 0.1021 -0.3730 -0.9222
vn -0.4658 -0.8643 0.1896
vn 0.0384 -0.6640 -0.7468
vn -0.2636 -0.5166 0.8146
vn 0.1277 -0.0982 -0.9869
vn -0.0682 0.1287 -0.9893
vn 0.0004 0.0135 -0.9999
vn 0.0086 0.4390 0.8985
vn 0.0196 -0.0722 0.9972
vn 0.2234 0.1389 0.9648
vn 0.5078 0.3500 -0.7872
vn 0.0229 -0.0178 -0.9996
vn 0.9986 -0.0475 0.0242
vn 0.9405 0.0627 0.3339
vn 0.9908 0.0741 -0.1131
vn 0.9370 0.1115 -0.3310
vn 0.9913 0.0778 0.1060
vn 0.4232 -0.0236 -0.9058
vn 0.8524 0.0554 -0.5199
vn 0.2010 0.0992 -0.9745
vn -0.0727 0.0873 0.9935
vn 0.0414 -0.0468 0.9980
vn 0.3402 0.0884 0.9362
vn 0.0182 -0.1051 0.9943
vn -0.0756 0.0618 0.9952
vn 0.0225 0.0171 0.9996
vn 0.3256 -0.5670 0.7566
vn 0.0336 -0.5584 0.8289
vn 0.0601 -0.5465 0.8353
vn -0.2523 -0.2801 0.9262
vn -0.0648 -0.1038 -0.9925
vn -0.0441 0.0949 -0.9945
vn -0.0398 -0.8664 -0.4977
vn -0.1507 -0.8735 -0.4628
vn -0.0628 -0.9554 0.2886
vn 0.0980 -0.8956 0.4339
vn 0.0241 -0.9981 0.0571
vn 0.3604 -0.6283 0.6895
vn -0.4077 0.8706 0.2753
vn -0.2764 0.9569 0.0894
vn 0.0571 0.9262 -0.3727
vn -0.6150 0.7804 0.1125
vn -0.0281 -0.0300 0.9992
vn 0.1207 -0.0995 0.9877
vn 0.1037 0.2551 0.9613
vn -0.6519 0.7560 -0.0590
vn -0.6381 0.7655 -0.0826
vn -0.6283 0.7346 -0.2561
vn -0.4569 0.1784 -0.8715
vn -0.9003 0.4220 -0.1067
vn -0.8536 0.0840 0.5142
vn -0.8834 0.4672 0.0378
vn -0.8004 0.5667 -0.1956
vn 0.0543 0.0780 0.9955
vn -0.3046 -0.1231 0.9445
vn -0.0234 -0.1583 0.9871
vn 0.3237 0.7917 0.5181
vn 0.2119 0.4613 0.8616
vn 0.1301 0.0199 -0.9913
vn -0.0202 0.1350 -0.9906
vn 0.1449 -0.0964 -0.9847
vn -0.1000 0.6111 0.7852
vn -0.1186 0.0245 0.9926
vn -0.4009 -0.1460 0.9044
vn -0.1014 0.3437 0.9336
vn 0.3381 0.1121 -0.9344
vn 0.1094 0.1109 -0.9878
vn 0.0343 0.2889 -0.9567
vn -0.3177 0.0397 0.9473
vn 0.2709 0.0425 0.9617
vn -0.0394 0.0914 0.9950
vn -0.0558 -0.0872 0.9946
vn -0.0416 -0.0293 0.9987
vn -0.7508 0.1754 -0.6368
vn -0.9340 0.0428 0.3548
vn -0.9443 0.1425 -0.2967
vn -0.9749 -0.0610 0.2143
vn -0.8942 -0.0030 0.4478
vn -0.9700 -0.0647 0.2343
vn -0.9154 0.1279 0.3818
vn -0.9945 0.0913 -0.0516
vn 0.1851 -0.2280 -0.9559
vn 0.1416 -0.3015 -0.9429
vn 0.0842 0.1647 -0.9827
vn 0.1496 0.1626 -0.9753
vn 0.0591 0.1189 -0.9911
vn 0.0594 0.5170 -0.8539
vn 0.0931 -0.2973 -0.9502
vn 0.0948 -0.4629 -0.8813
vn 0.1192 0.1639 -0.9792
vn 0.0343 0.1826 -0.9826
vn 0.1031 0.1875 -0.9768
vn -0.0948 -0.4624 -0.8816
vn 0.1810 -0.3889 -0.9033
vn -0.2205 -0.3631 -0.9053
vn 0.0759 -0.1763 -0.9814
vn -0.2552 -0.3870 -0.8860
vn -0.0910 -0.3211 -0.9427
vn -0.2245 0.3679 -0.9024
vn -0.3416 0.3581 -0.8689
vn -0.2733 -0.3459 -0.8976
vn -0.0614 0.1426 -0.9879
vn 0.0301 -0.1112 -0.9933
vn -0.2026 -0.0841 -0.9756
vn -0.0852 0.1015 -0.9912
vn -0.1232 -0.2793 -0.9523
vn -0.8581 -0.1401 -0.4941
vn -0.9347 -0.2007 0.2933
vn -0.9953 0.0581 0.0775
vn -0.9889 0.0187 0.1475
vn -0.9962 -0.0589 0.0648
vn 0.3644 0.1182 0.9237
vn -0.2336 -0.0697 0.9698
vn -0.9116 -0.4095 -0.0359
vn -0.5962 -0.7646 0.2448
vn -0.6209 -0.3472 0.7028
vn -0.1778 -0.0096 -0.9840
vn -0.7882 -0.3594 -0.4995
vn -0.9046 -0.3700 -0.2117
vn -0.8866 -0.4175 -0.1993
vn -0.6316 -0.1744 0.7554
vn -0.6104 -0.2136 0.7627
vn -0.1573 0.0602 0.9857
vn -0.6365 -0.3717 0.6758
vn -0.0909 -0.0995 0.9909
vn -0.8901 -0.3921 -0.2324
vn -0.8477 -0.3345 -0.4117
vn -0.8907 -0.3969 -0.2217
vn -0.8953 -0.2024 -0.3969
vn -0.7981 -0.3249 -0.5074
vn -0.8512 -0.3683 -0.3740
vn -0.7290 0.1133 0.6751
vn -0.9990 -0.0397 -0.0213
vn -0.1019 -0.9172 -0.3853
vn 0.2947 0.0650 -0.9534
vn 0.1704 -0.2491 -0.9534
vn -0.0354 -0.2312 -0.9723
vn -0.5778 -0.7904 -0.2032
vn -0.2141 -0.7166 0.6638
vn -0.9626 -0.2524 -0.0988
vn 0.1522 0.1635 -0.9747
vn -0.9423 -0.3325 -0.0384
vn -0.9175 -0.3035 -0.2570
vn -0.0746 0.0568 0.9956
vn -0.1862 -0.3377 0.9227
vn 0.0091 -0.5106 0.8597
vn -0.1295 0.0275 -0.9912
vn -0.1040 -0.0274 -0.9942
vn -0.1439 0.1575 0.9770
vn -0.0340 -0.4673 -0.8835
vn -0.1762 -0.0798 -0.9811
vn -0.9860 0.1348 0.0981
vn -0.8615 -0.1863 -0.4724
vn -0.8833 -0.0953 0.4591
vn -0.8448 -0.3239 0.4258
vn -0.9822 0.0767 -0.1713
vn -0.9603 -0.1229 0.2504
vn -0.8120 -0.4349 -0.3894
vn -0.9985 0.0521 0.0177
vn -0.6547 0.4960 0.5705
vn -0.6084 0.5807 0.5410
vn -0.5917 0.7812 0.1990
vn -0.9757 0.0010 -0.2189
vn -0.2352 0.1212 0.9644
vn -0.2578 0.5822 0.7711
vn -0.4953 0.6329 0.5950
vn -0.0879 0.0724 0.9935
vn -0.7164 -0.1555 0.6802
vn 0.1532 -0.0149 -0.9881
vn -0.5796 -0.3068 -0.7549
vn -0.0468 -0.1895 -0.9808
vn -0.0474 0.0392 0.9981
vn -0.0135 -0.2224 -0.9749
vn 0.2345 0.1025 -0.9667
vn 0.0837 0.0681 0.9942
vn -0.1401 -0.2148 -0.9666
vn -0.0474 -0.0520 -0.9975
vn 0.0722 -0.3829 -0.9210
vn 0.0328 -0.0310 -0.9990
vn 0.0579 -0.0594 -0.9966
vn 0.1410 0.0868 -0.9862
vn -0.1682 -0.1597 -0.9727
vn 0.2432 -0.3127 -0.9182
vn 0.2944 0.2627 0.9189
vn 0.0683 0.1441 -0.9872
vn -0.8269 0.4407 0.3494
vn -0.9053 0.1418 0.4005
vn -0.7497 0.6044 0.2693
vn -0.3681 0.1704 -0.9140
vn -0.9374 0.3359 -0.0925
vn -0.9146 0.1238 0.3850
vn -0.3881 0.0704 -0.9189
vn -0.9751 0.1127 0.1912
vn -0.1419 -0.0254 0.9896
vn -0.7022 -0.1234 0.7012
vn -0.0715 0.1075 -0.9916
vn -0.2264 -0.0945 0.9694
vn 0.1835 0.0736 0.9803
vn 0.0431 0.1998 0.9789
vn -0.1838 -0.0454 0.9819
vn -0.0273 -0.1489 0.9885
vn -0.0732 0.1063 -0.9916
vn 0.0374 0.1308 -0.9907
vn -0.0411 0.6769 0.7349
vn 0.0164 0.1431 0.9896
vn 0.1203 -0.0391 -0.9920
vn -0.2690 0.1177 -0.9559
vn 0.0887 0.2416 0.9663
vn -0.2653 0.2542 -0.9301
vn -0.1139 0.0921 -0.9892
vn -0.1467 0.1805 -0.9726
vn -0.0376 0.1401 -0.9894
vn -0.9603 0.1141 0.2545
vn -0.9191 0.3869 0.0743
vn -0.5748 0.1890 0.7962
vn -0.9142 0.3994 0.0681
vn -0.4524 -0.0018 0.8918
vn -0.7928 0.5137 0.3281
vn -0.3802 0.9222 -0.0711
vn 0.1147 -0.0834 -0.9899
vn -0.3775 0.2839 -0.8814
vn -0.3227 0.5887 -0.7411
vn -0.1568 0.7558 0.6358
vn -0.5109 0.8504 0.1257
vn -0.0228 0.3741 0.9271
vn 0.0858 0.2669 0.9599
vn 0.1395 -0.1833 -0.9731
vn -0.0180 -0.8015 0.5977
vn -0.0799 -0.2228 -0.9716
vn -0.0762 -0.2176 -0.9731
vn -0.0786 -0.9848 0.1548
vn -0.2347 -0.7538 0.6138
vn 0.0141 -0.9130 0.4077
vn 0.0324 -0.4226 0.9057
vn 0.0444 -0.9955 -0.0837
vn 0.0644 -0.8700 0.4888
vn 0.0703 -0.9800 0.1861
vn 0.0661 -0.7113 0.6998
vn 0.7493 -0.5305 -0.3965
vn 0.5173 -0.8547 0.0431
vn 0.9989 -0.0419 -0.0221
vn -0.0692 -0.0364 -0.9969
vn -0.0940 0.0111 -0.9955
vn 0.0243 0.0056 -0.9997
vn -0.0148 0.0325 -0.9994
vn 0.1495 0.0796 -0.9855
vn 0.0240 -0.0094 -0.9997
vn -0.0548 0.0195 -0.9983
vn -0.0567 0.1332 -0.9895
vn 0.0420 0.0958 -0.9945
vn -0.0704 -0.1048 0.9920
vn 0.5673 0.0893 0.8187
vn -0.0035 0.0533 -0.9986
vn 0.0711 -0.0842 0.9939
vn 0.1048 0.0342 -0.9939
vn -0.0028 -0.0656 -0.9978
vn 0.0373 0.0080 -0.9993
vn 0.6762 -0.1428 -0.7228
vn 0.1033 -0.1195 -0.9874
vn 0.8094 0.0023 -0.5872
vn 0.9969 -0.0784 -0.0006
vn 0.9400 -0.0888 0.3293
vn 0.9842 0.1566 0.0826
vn 0.9728 -0.0785 0.2179
vn 0.6778 -0.0950 0.7291
vn 0.9961 -0.0493 -0.0727
vn 0.9870 -0.1472 -0.0651
vn 0.9134 -0.2075 0.3502
vn 0.8899 -0.2192 0.4001
vn 0.0908 -0.0240 0.9956
vn 0.0398 0.0624 -0.9973
vn 0.5376 0.7496 0.3860
vn 0.2114 -0.0521 -0.9760
vn 0.1694 0.4265 -0.8885
vn -0.0212 0.0345 -0.9992
vn -0.0737 -0.1428 0.9870
vn -0.0237 0.3875 0.9216
vn 0.5187 0.8449 -0.1309
vn 0.1516 -0.0805 -0.9852
vn -0.0624 0.0079 -0.9980
vn 0.2459 0.5328 0.8097
vn 0.5772 0.8165 0.0079
vn 0.3960 0.4976 -0.7717
vn 0.5396 0.8219 -0.1827
vn 0.5252 0.2202 0.8220
vn -0.2132 -0.7136 0.6673
vn -0.3215 -0.2441 0.9149
vn 0.3807 0.5430 -0.7485
vn -0.4416 -0.8585 0.2607
vn -0.0084 -0.0570 0.9983
vn 0.2397 0.0962 -0.9661
vn -0.0084 -0.0347 -0.9994
vn 0.4311 -0.0298 0.9018
vn 0.6602 0.5862 -0.4695
vn 0.6240 0.7617 -0.1744
vn 0.7871 0.6146 0.0530
vn 0.8399 0.5421 -0.0243
vn 0.7129 -0.3090 -0.6295
vn 0.7991 0.3745 -0.4704
vn 0.8096 0.4729 0.3477
vn 0.2616 0.2001 0.9442
vn 0.9132 0.2845 -0.2919
vn 0.1999 -0.9782 -0.0568
vn 0.9890 -0.1240 -0.0811
vn 0.7738 -0.6311 -0.0545
vn 0.9357 0.3520 0.0236
vn 0.8109 0.4043 -0.4230
vn 0.9418 -0.3201 -0.1025
vn 0.9764 -0.1375 -0.1664
vn 0.9588 0.1862 0.2144
vn 0.7826 0.0776 -0.6177
vn 0.8450 -0.4206 0.3303
vn 0.9284 0.3672 0.0563
vn 0.8387 0.1869 0.5114
vn -0.1361 -0.0990 -0.9857
vn -0.0033 -0.1577 0.9875
vn -0.2091 0.1381 0.9681
vn -0.0302 0.1203 -0.9923
vn 0.4280 0.0465 0.9026
vn -0.3065 -0.0920 -0.9474
vn 0.2914 0.1817 -0.9392
vn 0.6274 0.0300 -0.7781
vn 0.9513 0.0100 -0.3081
vn 0.9729 0.1880 -0.1347
vn 0.8112 0.4166 -0.4104
vn 0.9208 0.0058 -0.3900
vn 0.9207 0.2527 -0.2974
vn 0.1490 0.0855 0.9851
vn 0.4388 0.8736 -0.2103
vn 0.6038 0.6629 -0.4427
vn 0.5398 0.0779 0.8382
vn 0.3605 0.2103 -0.9087
vn 0.1324 -0.0280 -0.9908
vn 0.3263 0.3467 -0.8794
vn 0.7602 0.1425 0.6339
vn 0.8547 0.2638 -0.4471
vn 0.8615 0.5074 0.0207
vn 0.9898 0.1107 -0.0892
vn 0.5331 0.3528 0.7690
vn 0.9698 0.0421 0.2401
vn 0.4799 0.1369 0.8666
vn 0.9484 0.3114 -0.0592
vn 0.8764 0.1011 -0.4708
vn 0.9921 0.1062 -0.0663
vn 0.9737 0.1395 0.1801
vn 0.8876 0.1751 -0.4260
vn 0.6992 0.1288 -0.7033
vn 0.7150 0.5511 -0.4302
vn 0.3620 0.7530 0.5494
vn 0.9518 0.2623 0.1591
vn 0.7780 0.4703 0.4165
vn 0.9040 0.4119 0.1148
vn 0.8195 -0.0337 -0.5721
vn -0.0420 -0.0960 0.9945
vn 0.6787 -0.7104 0.1864
vn 0.4222 -0.8174 -0.3920
vn 0.0836 -0.2862 -0.9545
vn -0.0642 -0.9796 -0.1906
vn -0.4035 0.5478 0.7328
vn 0.1530 0.1337 0.9791
vn -0.5816 0.1129 0.8056
vn -0.0391 0.3834 0.9227
vn -0.0933 0.1444 -0.9851
vn 0.1362 0.0480 -0.9895
vn 0.0115 -0.1188 -0.9928
vn -0.0156 -0.0418 -0.9990
vn -0.1220 0.7264 0.6764
vn -0.4393 0.2608 -0.8597
vn -0.3460 0.1334 -0.9287
vn -0.8619 0.1615 -0.4806
vn 0.8731 0.3435 -0.3459
vn -0.5182 -0.0506 -0.8538
vn 0.3509 0.1130 0.9296
vn 0.9001 -0.0185 0.4352
vn 0.0895 -0.0058 0.9960
vn -0.1475 0.0109 -0.9890
vn 0.0410 0.1902 -0.9809
vn 0.1660 -0.1775 -0.9700
vn 0.0294 -0.1347 0.9904
vn 0.7853 0.4687 -0.4045
s 1
f 1/1/1 2/2/2 3/3/3
f 4/4/4 5/5/5 6/6/6
f 7/7/7 8/8/8 9/9/9
f 10/10/10 11/11/11 12/12/12
f 10/10/10 13/13/13 14/14/14
f 15/15/15 16/16/16 17/17/17
f 18/18/18 19/19/19 20/20/20
f 21/21/21 22/22/22 23/23/23
f 24/24/24 25/25/25 26/26/26
f 27/27/27 28/28/28 29/29/29
f 30/30/30 31/31/31 32/32/32
f 33/33/33 34/34/34 35/35/35
f 36/36/36 37/37/37 38/38/38
f 39/39/39 40/40/40 41/41/41
f 39/39/39 42/42/42 43/43/43
f 44/44/44 45/45/45 46/46/46
f 47/47/47 48/48/48 49/49/49
f 50/50/50 51/51/51 52/52/52
f 53/53/53 54/54/54 55/55/55
f 56/56/56 57/57/57 58/58/58
f 59/59/59 60/60/60 61/61/61
f 62/62/62 63/63/63 64/64/64
f 65/65/65 66/66/66 67/67/67
f 68/68/68 69/69/69 70/70/70
f 71/71/71 72/72/72 69/69/69
f 73/73/73 74/74/74 75/75/75
f 76/76/76 77/77/77 78/78/78
f 79/79/79 80/80/80 81/81/81
f 82/82/82 83/83/83 84/84/84
f 85/85/85 84/84/84 86/86/86
f 75/75/75 74/74/74 55/55/55
f 55/55/55 87/87/87 88/88/88
f 72/72/72 89/89/89 90/90/90
f 74/74/74 53/53/53 55/55/55
f 91/91/91 66/66/66 65/65/65
f 91/91/91 65/65/65 92/92/92
f 93/93/93 92/92/92 94/94/94
f 92/92/92 65/65/65 95/95/95
f 96/96/96 97/97/97 98/98/98
f 96/96/96 99/99/99 97/97/97
f 97/97/97 99/99/99 100/100/100
f 101/101/101 102/102/102 103/103/103
f 104/104/104 105/105/105 106/106/106
f 104/104/104 106/106/106 107/107/107
f 64/64/64 108/108/108 109/109/109
f 110/110/110 111/111/111 112/112/112
f 113/113/113 114/114/114 115/115/115
f 116/116/116 117/117/117 118/118/118
f 119/119/119 111/111/111 58/120/58
f 120/121/120 121/122/121 122/123/122
f 58/58/58 54/54/54 123/124/123
f 124/125/124 119/119/119 58/120/58
f 54/54/54 53/53/53 125/126/125
f 126/127/126 127/128/127 128/129/128
f 129/130/129 130/131/130 131/132/131
f 51/51/51 132/133/132 124/134/124
f 124/125/124 133/135/133 67/67/67
f 48/136/48 134/137/134 135/138/135
f 136/139/136 137/140/137 138/141/138
f 139/142/139 140/143/140 141/144/141
f 61/61/61 142/145/142 143/146/143
f 144/147/144 145/148/145 146/149/146
f 147/150/147 142/145/142 60/60/60
f 42/42/42 148/151/148 149/152/149
f 150/153/150 41/41/41 151/154/151
f 152/155/152 153/156/153 15/15/15
f 154/157/154 155/158/155 156/159/156
f 157/160/157 158/161/158 159/162/159
f 79/79/79 160/163/160 161/164/161
f 161/165/161 162/166/162 163/167/163
f 164/168/164 165/169/165 166/170/166
f 167/171/167 168/172/168 169/173/169
f 34/34/34 170/174/170 35/35/35
f 171/175/171 172/176/172 173/177/173
f 173/177/173 174/178/174 171/175/171
f 175/179/175 176/180/176 177/181/177
f 178/182/178 179/183/179 29/184/29
f 178/182/178 29/184/29 129/130/129
f 180/185/180 181/186/181 182/187/182
f 129/130/129 29/184/29 183/188/183
f 184/189/184 185/190/185 186/191/186
f 182/187/182 187/192/187 188/193/188
f 189/194/189 180/185/180 188/193/188
f 190/195/190 191/196/191 192/197/192
f 28/28/28 193/198/193 194/199/194
f 195/200/195 196/201/196 197/202/197
f 198/203/198 199/204/199 200/205/200
f 24/206/24 201/207/201 202/208/202
f 203/209/203 204/210/204 205/211/205
f 206/212/206 207/213/207 208/214/208
f 209/215/209 210/216/210 211/217/211
f 205/211/205 212/218/212 206/212/206
f 206/212/206 212/218/212 213/219/213
f 209/215/209 214/220/214 215/221/215
f 216/222/216 217/223/217 218/224/218
f 219/225/219 220/226/220 221/227/221
f 219/225/219 221/227/221 222/228/222
f 220/226/220 5/5/5 223/229/223
f 224/230/224 225/231/225 226/232/226
f 225/231/225 227/233/227 228/234/228
f 23/23/23 229/235/229 21/21/21
f 230/236/230 231/237/231 232/238/232
f 12/12/12 233/239/233 234/240/234
f 235/241/235 236/242/236 237/243/237
f 6/6/6 238/244/238 239/245/239
f 240/246/240 235/241/235 241/247/241
f 242/248/242 243/249/243 244/250/244
f 243/249/243 245/251/245 246/252/246
f 3/253/3 235/241/235 247/254/247
f 6/6/6 248/255/248 4/4/4
f 2/2/2 249/256/249 3/3/3
f 250/257/250 2/2/2 251/258/251
f 250/257/250 248/255/248 252/259/252
f 253/260/253 254/261/254 242/248/242
f 255/262/255 7/7/7 154/157/154
f 256/263/256 257/264/257 258/265/258
f 8/8/8 255/262/255 259/266/259
f 260/267/260 236/242/236 158/161/158
f 260/267/260 158/161/158 157/160/157
f 4/4/4 248/255/248 250/257/250
f 1/268/1 247/254/247 261/269/261
f 261/269/261 247/254/247 242/248/242
f 252/259/252 2/2/2 250/257/250
f 251/258/251 2/2/2 1/1/1
f 248/255/248 6/6/6 249/256/249
f 1/268/1 3/253/3 247/254/247
f 239/245/239 241/270/241 249/256/249
f 241/247/241 235/241/235 3/253/3
f 262/271/262 223/229/223 4/4/4
f 9/9/9 8/8/8 263/272/263
f 235/241/235 240/246/240 264/273/264
f 11/11/11 237/243/237 233/239/233
f 265/274/265 243/249/243 246/252/246
f 237/243/237 260/267/260 266/275/266
f 237/243/237 266/275/266 234/240/234
f 265/274/265 246/252/246 10/10/10
f 266/275/266 260/267/260 267/276/267
f 151/154/151 234/240/234 266/275/266
f 268/277/268 269/278/269 6/6/6
f 151/154/151 270/279/270 234/240/234
f 234/240/234 270/279/270 12/12/12
f 271/280/271 17/17/17 16/16/16
f 272/281/272 269/278/269 268/277/268
f 270/279/270 151/154/151 40/40/40
f 19/19/19 273/282/273 253/260/253
f 228/234/228 227/233/227 274/283/274
f 231/284/231 19/19/19 232/285/232
f 275/286/275 231/237/231 230/236/230
f 229/235/229 228/234/228 275/286/275
f 276/287/276 275/286/275 277/288/277
f 278/289/278 276/287/276 279/290/279
f 280/291/280 276/287/276 278/289/278
f 281/292/281 280/291/280 278/289/278
f 281/293/281 278/294/278 18/18/18
f 21/21/21 229/235/229 280/291/280
f 21/21/21 280/291/280 282/295/282
f 283/296/283 21/21/21 282/295/282
f 273/282/273 284/297/284 254/261/254
f 18/18/18 20/20/20 285/298/285
f 283/296/283 22/22/22 21/21/21
f 286/299/286 283/300/283 287/301/287
f 253/260/253 242/248/242 288/302/288
f 225/231/225 228/234/228 226/232/226
f 289/303/289 283/304/283 286/305/286
f 227/233/227 290/306/290 291/307/291
f 288/302/288 242/248/242 244/250/244
f 227/233/227 291/307/291 274/283/274
f 218/308/218 226/232/226 292/309/292
f 19/19/19 288/302/288 293/310/293
f 213/219/213 212/218/212 226/232/226
f 218/308/218 217/311/217 226/232/226
f 294/312/294 223/229/223 295/313/295
f 212/218/212 224/230/224 226/232/226
f 20/20/20 293/310/293 296/314/296
f 220/226/220 17/17/17 5/5/5
f 297/315/297 222/228/222 214/220/214
f 205/211/205 224/230/224 212/218/212
f 297/315/297 298/316/298 222/228/222
f 206/212/206 213/219/213 217/311/217
f 257/264/257 299/317/299 217/223/217
f 299/318/299 206/212/206 217/311/217
f 211/217/211 128/129/128 297/315/297
f 128/129/128 298/316/298 297/315/297
f 208/214/208 205/211/205 206/212/206
f 300/319/300 205/211/205 208/214/208
f 128/129/128 301/320/301 298/316/298
f 203/209/203 302/321/302 204/210/204
f 299/318/299 303/322/303 207/213/207
f 304/323/304 132/324/132 299/318/299
f 178/182/178 129/130/129 305/325/305
f 31/31/31 256/263/256 32/32/32
f 133/135/133 257/264/257 256/263/256
f 256/263/256 31/31/31 133/135/133
f 306/326/306 133/135/133 31/31/31
f 283/327/283 307/328/307 308/329/308
f 309/330/309 307/328/307 24/206/24
f 202/208/202 310/331/310 311/332/311
f 202/208/202 311/332/311 308/329/308
f 312/333/312 201/207/201 24/206/24
f 313/334/313 195/200/195 197/202/197
f 314/335/314 196/201/196 198/336/198
f 315/337/315 316/338/316 26/26/26
f 192/197/192 316/338/316 315/337/315
f 190/195/190 193/198/193 191/196/191
f 317/339/317 189/194/189 188/193/188
f 191/196/191 193/198/193 28/28/28
f 318/340/318 319/341/319 320/342/320
f 321/343/321 318/340/318 185/190/185
f 318/340/318 320/342/320 322/344/322
f 323/345/323 180/185/180 324/346/324
f 185/190/185 175/179/175 186/191/186
f 28/28/28 325/347/325 29/29/29
f 326/348/326 28/28/28 27/27/27
f 187/192/187 30/30/30 32/32/32
f 327/349/327 328/350/328 30/30/30
f 176/180/176 318/340/318 322/344/322
f 323/345/323 181/186/181 180/185/180
f 36/36/36 323/345/323 324/346/324
f 329/351/329 27/27/27 179/352/179
f 306/326/306 31/31/31 330/353/330
f 331/354/331 327/349/327 182/187/182
f 332/355/332 182/187/182 181/186/181
f 333/356/333 181/186/181 323/345/323
f 36/36/36 333/356/333 323/345/323
f 171/175/171 334/357/334 172/176/172
f 173/177/173 172/176/172 335/358/335
f 172/359/172 336/360/336 335/361/335
f 35/35/35 170/174/170 174/178/174
f 35/35/35 174/178/174 337/362/337
f 35/35/35 337/362/337 335/358/335
f 184/189/184 338/363/338 321/343/321
f 34/34/34 33/33/33 169/173/169
f 169/364/169 33/365/33 339/366/339
f 340/367/340 167/368/167 169/364/169
f 341/369/341 342/370/342 343/371/343
f 167/368/167 340/367/340 344/372/344
f 168/172/168 167/171/167 345/373/345
f 164/168/164 346/374/346 165/169/165
f 341/369/341 170/174/170 342/370/342
f 344/372/344 166/170/166 79/79/79
f 345/373/345 167/171/167 163/167/163
f 79/79/79 163/375/163 344/372/344
f 347/376/347 186/191/186 175/179/175
f 79/79/79 161/164/161 163/375/163
f 348/377/348 111/111/111 119/119/119
f 150/153/150 157/160/157 159/162/159
f 159/162/159 158/161/158 156/378/156
f 159/162/159 149/152/149 148/151/148
f 149/152/149 159/162/159 349/379/349
f 350/380/350 155/158/155 351/381/351
f 349/379/349 156/378/156 352/382/352
f 349/379/349 352/382/352 353/383/353
f 149/152/149 349/379/349 353/383/353
f 156/378/156 354/384/354 352/382/352
f 149/152/149 353/383/353 355/385/355
f 352/382/352 354/384/354 356/386/356
f 43/43/43 355/385/355 353/383/353
f 354/387/354 357/388/357 358/389/358
f 356/386/356 354/384/354 358/390/358
f 43/43/43 353/383/353 359/391/359
f 357/388/357 360/392/360 361/393/361
f 362/394/362 361/393/361 360/392/360
f 146/149/146 13/13/13 270/279/270
f 363/395/363 364/396/364 365/397/365
f 366/398/366 153/156/153 152/155/152
f 40/40/40 144/147/144 146/149/146
f 301/320/301 367/399/367 366/398/366
f 368/400/368 351/381/351 369/401/369
f 151/154/151 41/41/41 40/40/40
f 365/397/365 370/402/370 371/403/371
f 144/147/144 40/40/40 39/39/39
f 142/145/142 372/404/372 143/146/143
f 144/147/144 39/39/39 373/405/373
f 371/403/371 374/406/374 365/397/365
f 143/146/143 372/404/372 145/148/145
f 42/42/42 355/385/355 43/43/43
f 144/147/144 373/405/373 145/148/145
f 145/148/145 373/405/373 375/407/375
f 366/398/366 141/144/141 374/406/374
f 376/408/376 377/409/377 374/406/374
f 141/144/141 376/408/376 374/406/374
f 378/410/378 379/411/379 380/412/380
f 377/409/377 379/411/379 378/410/378
f 376/408/376 381/413/381 377/409/377
f 140/143/140 381/413/381 141/144/141
f 382/414/382 137/415/137 362/394/362
f 383/416/383 382/414/382 379/411/379
f 138/417/138 382/414/382 383/416/383
f 140/143/140 383/416/383 381/413/381
f 135/138/135 383/416/383 140/143/140
f 138/417/138 383/416/383 135/138/135
f 384/418/384 135/138/135 140/143/140
f 385/419/385 386/420/386 387/421/387
f 384/418/384 48/136/48 135/138/135
f 48/48/48 387/421/387 134/422/134
f 385/419/385 387/421/387 47/47/47
f 49/423/49 48/136/48 384/418/384
f 388/424/388 49/423/49 389/425/389
f 99/99/99 385/419/385 47/47/47
f 100/426/100 389/425/389 390/427/390
f 99/99/99 388/428/388 100/100/100
f 391/429/391 60/60/60 296/314/296
f 296/314/296 60/60/60 59/59/59
f 303/322/303 392/430/392 207/213/207
f 179/352/179 124/431/124 123/124/123
f 130/131/130 296/314/296 59/59/59
f 305/325/305 131/132/131 393/432/393
f 179/352/179 123/124/123 125/126/125
f 394/433/394 395/434/395 203/209/203
f 128/129/128 396/435/396 301/320/301
f 130/131/130 59/59/59 397/436/397
f 131/132/131 397/436/397 398/437/398
f 399/438/399 50/50/50 52/52/52
f 131/132/131 398/437/398 52/52/52
f 400/439/400 119/119/119 67/67/67
f 401/440/401 301/320/301 396/435/396
f 122/123/122 121/122/121 394/433/394
f 398/437/398 397/436/397 402/441/402
f 52/52/52 403/442/403 399/438/399
f 55/55/55 54/54/54 87/87/87
f 404/443/404 120/121/120 122/123/122
f 402/441/402 403/442/403 52/52/52
f 87/87/87 54/54/54 57/57/57
f 399/444/399 405/445/405 404/443/404
f 403/442/403 115/115/115 399/438/399
f 59/59/59 61/61/61 406/446/406
f 407/447/407 56/56/56 408/448/408
f 405/445/405 409/449/409 120/121/120
f 58/58/58 410/450/410 56/56/56
f 411/451/411 407/447/407 408/448/408
f 412/452/412 401/440/401 413/453/413
f 406/446/406 61/61/61 414/454/414
f 415/455/415 412/452/412 413/453/413
f 416/456/416 417/457/417 415/455/415
f 114/114/114 118/118/118 418/458/418
f 108/108/108 112/112/112 111/111/111
f 108/108/108 419/459/419 112/112/112
f 64/64/64 109/109/109 62/62/62
f 417/457/417 420/460/420 415/455/415
f 418/461/418 417/457/417 416/456/416
f 117/117/117 421/462/421 418/458/418
f 410/450/410 102/102/102 101/101/101
f 105/105/105 422/463/422 106/106/106
f 423/464/423 104/104/104 107/107/107
f 406/446/406 421/462/421 117/117/117
f 424/465/424 425/466/425 426/467/426
f 427/468/427 425/466/425 428/469/428
f 107/107/107 106/106/106 429/470/429
f 422/463/422 103/103/103 106/106/106
f 97/471/97 100/426/100 390/427/390
f 430/472/430 431/473/431 432/474/432
f 431/473/431 433/475/433 98/476/98
f 434/477/434 433/475/433 430/472/430
f 434/478/434 96/96/96 98/98/98
f 406/446/406 435/479/435 96/96/96
f 179/352/179 125/126/125 329/351/329
f 436/480/436 95/95/95 306/326/306
f 92/92/92 95/95/95 436/480/436
f 437/481/437 329/351/329 438/482/438
f 92/92/92 436/480/436 94/94/94
f 437/481/437 73/73/73 177/181/177
f 181/186/181 70/70/70 332/355/332
f 329/351/329 125/126/125 53/53/53
f 95/95/95 65/65/65 67/67/67
f 438/482/438 329/351/329 53/53/53
f 68/68/68 70/70/70 439/483/439
f 175/179/175 177/181/177 440/484/440
f 91/91/91 441/485/441 66/66/66
f 177/181/177 73/73/73 440/484/440
f 175/179/175 440/484/440 347/376/347
f 90/90/90 400/439/400 441/485/441
f 69/69/69 90/90/90 441/485/441
f 72/72/72 442/486/442 89/89/89
f 83/83/83 442/486/442 71/71/71
f 86/86/86 71/71/71 68/68/68
f 443/487/443 119/119/119 400/439/400
f 443/487/443 400/439/400 89/89/89
f 89/89/89 400/439/400 90/90/90
f 75/75/75 55/55/55 88/88/88
f 442/486/442 83/83/83 89/89/89
f 444/488/444 445/489/445 85/85/85
f 78/78/78 62/62/62 443/487/443
f 76/76/76 443/487/443 89/89/89
f 76/76/76 78/78/78 443/487/443
f 82/82/82 446/490/446 77/77/77
f 447/491/447 82/82/82 76/76/76
f 446/490/446 423/492/423 448/493/448
f 77/77/77 446/490/446 448/493/448
f 78/78/78 448/493/448 63/63/63
f 80/80/80 166/170/166 165/169/165
f 165/169/165 449/494/449 80/80/80
f 450/495/450 451/496/451 162/166/162
f 452/497/452 80/80/80 449/494/449
f 453/498/453 454/499/454 455/500/455
f 452/497/452 449/494/449 456/501/456
f 457/502/457 458/503/458 459/504/459
f 460/505/460 461/506/461 458/507/458
f 462/508/462 463/509/463 456/501/456
f 456/501/456 463/509/463 464/510/464
f 465/511/465 466/512/466 456/501/456
f 466/512/466 465/511/465 459/513/459
f 467/514/467 459/504/459 465/515/465
f 465/515/465 468/516/468 467/514/467
f 465/515/465 85/85/85 468/516/468
f 456/501/456 464/510/464 465/511/465
f 457/502/457 469/517/469 458/503/458
f 451/496/451 469/517/469 455/500/455
f 460/505/460 80/80/80 452/497/452
f 449/494/449 347/376/347 462/508/462
f 470/518/470 450/519/450 160/163/160
f 81/81/81 80/80/80 460/505/460
f 160/163/160 450/519/450 161/164/161
f 471/520/471 104/104/104 423/464/423
f 440/484/440 472/521/472 463/509/463
f 347/376/347 440/484/440 462/508/462
f 72/72/72 90/90/90 69/69/69
f 71/71/71 69/69/69 68/68/68
f 27/27/27 329/351/329 437/481/437
f 97/471/97 473/522/473 431/473/431
f 428/469/428 425/466/425 419/459/419
f 432/474/432 474/523/474 139/142/139
f 411/451/411 408/448/408 422/463/422
f 101/101/101 422/463/422 408/448/408
f 114/524/114 418/461/418 416/456/416
f 56/56/56 410/450/410 408/448/408
f 409/449/409 413/453/413 396/435/396
f 407/447/407 57/57/57 56/56/56
f 116/116/116 397/436/397 117/117/117
f 397/436/397 59/59/59 117/117/117
f 402/441/402 52/52/52 398/437/398
f 127/128/127 396/435/396 128/129/128
f 393/432/393 178/182/178 305/325/305
f 179/183/179 178/182/178 393/432/393
f 50/525/50 303/322/303 132/324/132
f 179/183/179 51/51/51 124/134/124
f 388/428/388 47/47/47 49/49/49
f 139/142/139 389/425/389 384/418/384
f 138/417/138 137/415/137 382/414/382
f 383/416/383 379/411/379 381/413/381
f 143/146/143 375/407/375 44/44/44
f 374/406/374 363/395/363 365/397/365
f 14/14/14 475/526/475 142/145/142
f 153/156/153 371/403/371 370/402/370
f 301/320/301 366/398/366 152/155/152
f 391/429/391 14/14/14 147/150/147
f 476/527/476 361/528/361 362/529/362
f 357/388/357 477/530/477 360/392/360
f 478/531/478 360/392/360 477/530/477
f 45/45/45 43/43/43 359/391/359
f 354/387/354 156/159/156 479/532/479
f 186/191/186 347/376/347 346/374/346
f 344/372/344 340/367/340 480/533/480
f 169/173/169 342/370/342 34/34/34
f 175/179/175 185/190/185 176/180/176
f 194/199/194 325/347/325 28/28/28
f 192/197/192 191/196/191 481/534/481
f 324/346/324 189/194/189 313/334/313
f 319/341/319 482/535/482 192/197/192
f 315/337/315 190/195/190 192/197/192
f 194/199/194 286/305/286 483/536/483
f 482/535/482 200/205/200 316/338/316
f 196/201/196 201/207/201 199/537/199
f 312/538/312 24/24/24 316/338/316
f 307/539/307 289/303/289 286/305/286
f 133/135/133 304/540/304 257/264/257
f 484/541/484 32/32/32 485/542/485
f 317/339/317 484/541/484 195/200/195
f 20/20/20 296/314/296 130/131/130
f 210/216/210 209/215/209 486/543/486
f 301/320/301 152/155/152 487/544/487
f 288/302/288 391/429/391 293/310/293
f 219/225/219 487/544/487 220/226/220
f 325/545/325 488/546/488 183/188/183
f 285/298/285 129/130/129 183/188/183
f 215/221/215 294/312/294 290/306/290
f 262/271/262 295/313/295 223/229/223
f 183/188/183 287/301/287 285/298/285
f 216/222/216 292/547/292 489/548/489
f 489/549/489 292/309/292 490/550/490
f 290/306/290 262/271/262 291/307/291
f 274/283/274 284/551/284 273/552/273
f 291/307/291 250/257/250 274/283/274
f 281/292/281 283/296/283 282/295/282
f 287/301/287 281/293/281 18/18/18
f 229/235/229 276/287/276 280/291/280
f 229/235/229 23/23/23 228/234/228
f 275/286/275 230/236/230 277/288/277
f 231/284/231 273/282/273 19/19/19
f 16/16/16 370/402/370 268/277/268
f 370/402/370 272/281/272 268/277/268
f 267/276/267 150/153/150 266/275/266
f 17/17/17 271/280/271 5/5/5
f 244/250/244 265/274/265 288/302/288
f 242/248/242 247/254/247 243/249/243
f 236/242/236 259/553/259 158/161/158
f 260/267/260 237/243/237 236/242/236
f 259/553/259 236/242/236 264/273/264
f 267/276/267 157/160/157 150/153/150
f 12/12/12 11/11/11 233/239/233
f 13/13/13 10/10/10 12/12/12
f 287/301/287 18/18/18 285/298/285
f 225/231/225 224/230/224 227/233/227
f 294/312/294 221/227/221 223/229/223
f 221/227/221 220/226/220 223/229/223
f 224/230/224 302/321/302 215/221/215
f 25/25/25 307/539/307 286/305/286
f 25/25/25 286/305/286 194/199/194
f 321/343/321 482/535/482 319/341/319
f 189/194/189 317/339/317 313/334/313
f 491/554/491 170/174/170 313/334/313
f 350/380/350 478/531/478 479/532/479
f 46/46/46 359/391/359 476/527/476
f 302/321/302 126/127/126 486/543/486
f 54/54/54 125/126/125 123/124/123
f 50/525/50 404/443/404 392/430/392
f 60/60/60 142/145/142 61/61/61
f 405/445/405 114/524/114 416/456/416
f 410/450/410 101/101/101 408/448/408
f 409/449/409 415/455/415 413/453/413
f 419/459/419 424/465/424 112/112/112
f 108/108/108 64/64/64 428/469/428
f 492/555/492 448/493/448 423/492/423
f 420/460/420 432/474/432 412/452/412
f 434/477/434 430/472/430 420/460/420
f 493/556/493 331/354/331 332/355/332
f 88/88/88 87/87/87 494/557/494
f 447/491/447 76/76/76 89/89/89
f 88/88/88 494/557/494 471/520/471
f 450/495/450 458/503/458 451/496/451
f 456/501/456 449/494/449 462/508/462
f 468/516/468 38/38/38 454/499/454
f 80/80/80 79/79/79 166/170/166
f 162/166/162 455/500/455 343/371/343
f 62/62/62 78/78/78 63/63/63
f 83/83/83 82/82/82 447/491/447
f 71/71/71 442/486/442 72/72/72
f 70/70/70 69/69/69 493/556/493
f 93/93/93 91/91/91 92/92/92
f 95/95/95 67/67/67 133/135/133
f 38/38/38 333/356/333 36/36/36
f 473/522/473 474/523/474 432/474/432
f 429/470/429 106/106/106 103/103/103
f 492/555/492 107/558/107 429/559/429
f 64/64/64 427/468/427 428/469/428
f 418/461/418 434/477/434 417/457/417
f 434/478/434 418/458/418 421/462/421
f 63/63/63 448/493/448 492/555/492
f 105/105/105 411/451/411 422/463/422
f 110/110/110 112/112/112 424/465/424
f 110/110/110 410/560/410 58/120/58
f 59/59/59 406/446/406 117/117/117
f 404/443/404 405/445/405 120/121/120
f 366/398/366 401/440/401 139/142/139
f 393/432/393 51/51/51 179/183/179
f 395/434/395 302/321/302 203/209/203
f 134/422/134 387/421/387 138/141/138
f 495/561/495 44/44/44 46/46/46
f 496/562/496 386/420/386 414/454/414
f 375/407/375 45/45/45 44/44/44
f 350/380/350 380/412/380 478/531/478
f 366/398/366 374/406/374 371/403/371
f 373/405/373 39/39/39 43/43/43
f 153/156/153 366/398/366 371/403/371
f 147/150/147 14/14/14 142/145/142
f 15/15/15 153/156/153 16/16/16
f 370/402/370 16/16/16 153/156/153
f 146/149/146 14/14/14 13/13/13
f 359/391/359 356/386/356 476/527/476
f 353/383/353 352/382/352 359/391/359
f 67/67/67 119/119/119 124/125/124
f 343/371/343 455/500/455 341/369/341
f 168/172/168 345/373/345 343/371/343
f 344/372/344 480/533/480 164/168/164
f 480/533/480 336/360/336 184/189/184
f 33/33/33 35/35/35 335/358/335
f 336/360/336 339/366/339 335/361/335
f 334/357/334 171/175/171 491/554/491
f 327/349/327 331/354/331 497/563/497
f 27/27/27 437/481/437 326/348/326
f 187/192/187 327/349/327 30/30/30
f 187/192/187 498/564/498 188/193/188
f 317/339/317 188/193/188 484/541/484
f 193/198/193 190/195/190 194/199/194
f 338/363/338 482/535/482 321/343/321
f 314/335/314 197/202/197 196/201/196
f 202/208/202 195/200/195 310/331/310
f 24/24/24 307/539/307 25/25/25
f 485/542/485 32/32/32 256/263/256
f 208/214/208 207/213/207 300/319/300
f 293/310/293 391/429/391 296/314/296
f 183/188/183 29/184/29 325/545/325
f 287/301/287 183/188/183 483/565/483
f 290/306/290 295/313/295 262/271/262
f 276/287/276 277/288/277 279/290/279
f 277/288/277 230/236/230 279/290/279
f 231/237/231 275/286/275 274/283/274
f 146/149/146 270/279/270 40/40/40
f 238/244/238 369/401/369 7/7/7
f 238/244/238 364/396/364 369/401/369
f 269/278/269 364/396/364 6/6/6
f 6/6/6 5/5/5 271/280/271
f 249/256/249 241/270/241 3/3/3
f 261/566/261 251/258/251 1/1/1
f 267/276/267 260/267/260 157/160/157
f 264/567/264 8/8/8 259/266/259
f 158/568/158 259/266/259 255/262/255
f 261/566/261 250/257/250 251/258/251
f 254/261/254 284/297/284 261/269/261
f 242/248/242 254/261/254 261/269/261
f 261/566/261 284/551/284 250/257/250
f 252/259/252 248/255/248 249/256/249
f 249/256/249 2/2/2 252/259/252
f 243/249/243 247/254/247 245/251/245
f 6/6/6 239/245/239 249/256/249
f 247/254/247 235/241/235 245/251/245
f 244/250/244 243/249/243 265/274/265
f 9/9/9 263/272/263 241/270/241
f 263/272/263 240/569/240 241/270/241
f 239/245/239 9/9/9 241/270/241
f 11/11/11 246/252/246 245/251/245
f 264/567/264 263/272/263 8/8/8
f 235/241/235 264/273/264 236/242/236
f 264/567/264 240/569/240 263/272/263
f 239/245/239 238/244/238 9/9/9
f 233/239/233 237/243/237 234/240/234
f 6/6/6 364/396/364 238/244/238
f 9/9/9 238/244/238 7/7/7
f 10/10/10 246/252/246 11/11/11
f 391/429/391 288/302/288 10/10/10
f 391/429/391 10/10/10 14/14/14
f 487/544/487 152/155/152 17/17/17
f 270/279/270 13/13/13 12/12/12
f 274/283/274 273/552/273 231/237/231
f 275/286/275 228/234/228 274/283/274
f 278/294/278 232/285/232 19/19/19
f 232/238/232 278/289/278 230/236/230
f 278/294/278 19/19/19 18/18/18
f 23/23/23 489/549/489 490/550/490
f 282/295/282 280/291/280 281/292/281
f 291/307/291 4/4/4 250/257/250
f 274/283/274 250/257/250 284/551/284
f 273/282/273 254/261/254 253/260/253
f 226/232/226 228/234/228 490/550/490
f 23/23/23 22/22/22 489/549/489
f 291/307/291 262/271/262 4/4/4
f 307/539/307 283/304/283 289/303/289
f 19/19/19 253/260/253 288/302/288
f 227/233/227 224/230/224 215/221/215
f 292/309/292 226/232/226 490/550/490
f 215/221/215 290/306/290 227/233/227
f 285/298/285 20/20/20 129/130/129
f 183/188/183 488/546/488 483/565/483
f 290/306/290 294/312/294 295/313/295
f 214/220/214 294/312/294 215/221/215
f 217/311/217 213/219/213 226/232/226
f 294/312/294 214/220/214 221/227/221
f 258/265/258 217/223/217 216/222/216
f 487/544/487 17/17/17 220/226/220
f 214/220/214 222/228/222 221/227/221
f 302/321/302 209/215/209 215/221/215
f 499/570/499 302/321/302 224/230/224
f 205/211/205 499/570/499 224/230/224
f 258/265/258 257/264/257 217/223/217
f 219/225/219 222/228/222 487/544/487
f 222/228/222 298/316/298 487/544/487
f 209/215/209 297/315/297 214/220/214
f 211/217/211 297/315/297 209/215/209
f 205/211/205 204/210/204 499/570/499
f 207/213/207 206/212/206 299/318/299
f 20/20/20 130/131/130 129/130/129
f 304/540/304 299/317/299 257/264/257
f 211/217/211 210/216/210 128/129/128
f 486/543/486 128/129/128 210/216/210
f 302/321/302 486/543/486 209/215/209
f 310/331/310 484/541/484 216/222/216
f 484/541/484 258/265/258 216/222/216
f 485/542/485 256/263/256 258/265/258
f 32/32/32 484/541/484 498/564/498
f 311/332/311 489/548/489 22/571/22
f 310/331/310 216/222/216 489/548/489
f 308/329/308 311/332/311 22/571/22
f 308/329/308 22/571/22 283/327/283
f 310/331/310 489/548/489 311/332/311
f 309/330/309 308/329/308 307/328/307
f 202/208/202 308/329/308 309/330/309
f 309/330/309 24/206/24 202/208/202
f 316/338/316 24/24/24 26/26/26
f 195/200/195 201/207/201 196/201/196
f 199/204/199 312/538/312 200/205/200
f 198/336/198 196/201/196 199/537/199
f 200/205/200 314/572/314 198/203/198
f 491/554/491 313/334/313 197/202/197
f 334/357/334 491/554/491 314/335/314
f 26/26/26 25/25/25 190/195/190
f 313/334/313 317/339/317 195/200/195
f 482/535/482 334/573/334 314/572/314
f 334/573/334 482/535/482 338/363/338
f 194/199/194 190/195/190 25/25/25
f 488/574/488 194/199/194 483/536/483
f 325/347/325 194/199/194 488/574/488
f 484/541/484 188/193/188 498/564/498
f 481/534/481 320/342/320 319/341/319
f 180/185/180 182/187/182 188/193/188
f 189/194/189 324/346/324 180/185/180
f 319/341/319 318/340/318 321/343/321
f 184/189/184 321/343/321 185/190/185
f 176/180/176 322/344/322 177/181/177
f 37/37/37 36/36/36 324/346/324
f 179/352/179 27/27/27 29/29/29
f 328/350/328 497/563/497 30/30/30
f 30/30/30 497/563/497 94/94/94
f 330/353/330 436/480/436 306/326/306
f 93/93/93 94/94/94 497/563/497
f 497/563/497 331/354/331 93/93/93
f 182/187/182 332/355/332 331/354/331
f 181/186/181 333/356/333 70/70/70
f 174/178/174 170/174/170 171/175/171
f 324/346/324 313/334/313 170/174/170
f 184/189/184 336/360/336 338/363/338
f 173/177/173 335/358/335 174/178/174
f 339/366/339 336/360/336 480/533/480
f 33/365/33 335/361/335 339/366/339
f 34/34/34 342/370/342 170/174/170
f 340/367/340 169/364/169 339/366/339
f 480/533/480 184/189/184 164/168/164
f 480/533/480 340/367/340 339/366/339
f 346/374/346 500/575/500 184/189/184
f 184/189/184 186/191/186 346/374/346
f 164/168/164 184/189/184 500/575/500
f 346/374/346 164/168/164 500/575/500
f 170/174/170 341/369/341 37/37/37
f 344/372/344 164/168/164 166/170/166
f 163/375/163 167/368/167 344/372/344
f 38/38/38 37/37/37 454/499/454
f 454/499/454 37/37/37 341/369/341
f 163/167/163 162/166/162 345/373/345
f 255/262/255 154/157/154 158/568/158
f 351/381/351 155/158/155 154/157/154
f 349/379/349 159/162/159 156/378/156
f 479/532/479 156/159/156 155/158/155
f 350/380/350 479/532/479 155/158/155
f 354/387/354 479/532/479 357/388/357
f 477/530/477 479/532/479 478/531/478
f 477/530/477 357/388/357 479/532/479
f 361/393/361 358/389/358 357/388/357
f 45/45/45 359/391/359 46/46/46
f 266/275/266 150/153/150 151/154/151
f 475/526/475 14/14/14 146/149/146
f 150/153/150 159/162/159 148/151/148
f 370/402/370 365/397/365 272/281/272
f 372/404/372 475/526/475 146/149/146
f 42/42/42 41/41/41 148/151/148
f 41/41/41 150/153/150 148/151/148
f 363/395/363 368/400/368 369/401/369
f 372/404/372 142/145/142 475/526/475
f 368/400/368 350/380/350 351/381/351
f 39/39/39 41/41/41 42/42/42
f 372/404/372 146/149/146 145/148/145
f 373/405/373 43/43/43 375/407/375
f 363/395/363 374/406/374 368/400/368
f 374/406/374 377/409/377 378/410/378
f 350/380/350 368/400/368 380/412/380
f 368/400/368 378/410/378 380/412/380
f 375/407/375 43/43/43 45/45/45
f 374/406/374 378/410/378 368/400/368
f 61/61/61 143/146/143 496/562/496
f 61/61/61 496/562/496 414/454/414
f 44/44/44 496/562/496 143/146/143
f 478/531/478 380/412/380 360/392/360
f 141/144/141 381/413/381 376/408/376
f 476/527/476 495/561/495 46/46/46
f 137/140/137 476/527/476 362/529/362
f 495/561/495 476/527/476 137/140/137
f 136/139/136 495/561/495 137/140/137
f 387/421/387 495/561/495 136/139/136
f 134/137/134 138/417/138 135/138/135
f 139/142/139 384/418/384 140/143/140
f 385/419/385 414/454/414 386/420/386
f 389/425/389 49/423/49 384/418/384
f 139/142/139 474/523/474 389/425/389
f 390/427/390 389/425/389 474/523/474
f 100/426/100 388/424/388 389/425/389
f 99/99/99 47/47/47 388/428/388
f 60/60/60 391/429/391 147/150/147
f 126/127/126 128/129/128 486/543/486
f 305/325/305 129/130/129 131/132/131
f 133/135/133 124/125/124 304/540/304
f 302/321/302 395/434/395 126/127/126
f 122/123/122 203/209/203 300/319/300
f 392/430/392 300/319/300 207/213/207
f 50/525/50 392/430/392 303/322/303
f 132/133/132 51/51/51 50/50/50
f 124/576/124 132/324/132 304/323/304
f 131/132/131 130/131/130 397/436/397
f 393/432/393 52/52/52 51/51/51
f 367/399/367 301/320/301 401/440/401
f 395/434/395 394/433/394 121/122/121
f 395/434/395 121/122/121 127/128/127
f 404/443/404 50/525/50 399/444/399
f 401/440/401 366/398/366 367/399/367
f 121/122/121 120/121/120 127/128/127
f 401/440/401 396/435/396 413/453/413
f 402/441/402 397/436/397 116/116/116
f 402/441/402 116/116/116 403/442/403
f 409/449/409 396/435/396 127/128/127
f 399/438/399 115/115/115 405/577/405
f 87/87/87 57/57/57 411/451/411
f 405/445/405 416/456/416 409/449/409
f 115/115/115 114/114/114 405/577/405
f 58/120/58 111/111/111 110/110/110
f 116/116/116 113/113/113 115/115/115
f 407/447/407 411/451/411 57/57/57
f 62/62/62 348/377/348 119/119/119
f 105/105/105 87/87/87 411/451/411
f 409/449/409 416/456/416 415/455/415
f 113/113/113 116/116/116 118/118/118
f 111/111/111 109/109/109 108/108/108
f 62/62/62 109/109/109 348/377/348
f 118/118/118 117/117/117 418/458/418
f 118/118/118 114/114/114 113/113/113
f 410/560/410 110/110/110 424/465/424
f 426/467/426 102/578/102 424/465/424
f 427/468/427 63/63/63 492/555/492
f 492/555/492 423/492/423 107/558/107
f 412/452/412 432/474/432 139/142/139
f 420/460/420 412/452/412 415/455/415
f 425/466/425 424/465/424 419/459/419
f 102/578/102 426/467/426 429/559/429
f 103/103/103 102/102/102 429/470/429
f 492/555/492 429/559/429 425/466/425
f 435/479/435 406/446/406 414/454/414
f 434/477/434 420/460/420 417/457/417
f 421/462/421 96/96/96 434/478/434
f 421/462/421 406/446/406 96/96/96
f 429/559/429 426/467/426 425/466/425
f 473/522/473 390/427/390 474/523/474
f 473/522/473 97/471/97 390/427/390
f 435/479/435 414/454/414 385/419/385
f 98/476/98 97/471/97 431/473/431
f 435/479/435 99/99/99 96/96/96
f 420/460/420 430/472/430 432/474/432
f 434/477/434 98/476/98 433/475/433
f 306/326/306 95/95/95 133/135/133
f 73/73/73 437/481/437 438/482/438
f 70/70/70 493/556/493 332/355/332
f 38/38/38 439/483/439 333/356/333
f 91/91/91 69/69/69 441/485/441
f 66/66/66 400/439/400 67/67/67
f 441/485/441 400/439/400 66/66/66
f 74/74/74 438/482/438 53/53/53
f 73/73/73 438/482/438 74/74/74
f 68/68/68 439/483/439 86/86/86
f 440/484/440 73/73/73 75/75/75
f 84/84/84 83/83/83 71/71/71
f 85/85/85 445/489/445 84/84/84
f 464/510/464 463/509/463 445/579/445
f 86/86/86 84/84/84 71/71/71
f 105/105/105 494/557/494 87/87/87
f 83/83/83 447/491/447 89/89/89
f 463/509/463 472/521/472 446/580/446
f 463/509/463 82/581/82 501/582/501
f 445/489/445 82/82/82 84/84/84
f 82/82/82 445/489/445 501/583/501
f 472/521/472 75/75/75 88/88/88
f 82/82/82 77/77/77 76/76/76
f 104/104/104 494/557/494 105/105/105
f 471/520/471 494/557/494 104/104/104
f 472/521/472 88/88/88 471/520/471
f 455/500/455 454/499/454 341/369/341
f 161/165/161 450/495/450 162/166/162
f 160/163/160 79/79/79 81/81/81
f 451/496/451 455/500/455 162/166/162
f 160/163/160 81/81/81 470/518/470
f 460/505/460 470/518/470 81/81/81
f 38/38/38 468/516/468 439/483/439
f 458/503/458 469/517/469 451/496/451
f 460/505/460 458/507/458 470/518/470
f 454/499/454 453/498/453 468/516/468
f 452/497/452 459/513/459 461/506/461
f 453/498/453 467/514/467 468/516/468
f 453/498/453 457/502/457 467/514/467
f 457/502/457 459/504/459 467/514/467
f 458/507/458 461/506/461 459/513/459
f 452/497/452 461/506/461 460/505/460
f 86/86/86 468/516/468 85/85/85
f 85/85/85 465/515/465 444/488/444
f 465/511/465 464/510/464 444/584/444
f 466/512/466 452/497/452 456/501/456
f 469/517/469 457/502/457 453/498/453
f 455/500/455 469/517/469 453/498/453
f 459/513/459 452/497/452 466/512/466
f 468/516/468 86/86/86 439/483/439
f 450/519/450 470/518/470 458/507/458
f 449/494/449 165/169/165 346/374/346
f 449/494/449 346/374/346 347/376/347
f 423/464/423 446/580/446 471/520/471
f 446/580/446 472/521/472 471/520/471
f 78/78/78 77/77/77 448/493/448
f 472/521/472 440/484/440 75/75/75
f 82/581/82 463/509/463 446/580/446
f 443/487/443 62/62/62 119/119/119
f 444/584/444 464/510/464 445/579/445
f 462/508/462 440/484/440 463/509/463
f 493/556/493 69/69/69 91/91/91
f 91/91/91 93/93/93 331/354/331
f 439/483/439 70/70/70 333/356/333
f 493/556/493 91/91/91 331/354/331
f 435/479/435 385/419/385 99/99/99
f 433/475/433 431/473/431 430/472/430
f 492/555/492 425/466/425 427/468/427
f 63/63/63 427/468/427 64/64/64
f 422/463/422 101/101/101 103/103/103
f 410/560/410 424/465/424 102/578/102
f 139/142/139 401/440/401 412/452/412
f 111/111/111 348/377/348 109/109/109
f 120/121/120 409/449/409 127/128/127
f 116/116/116 115/115/115 403/442/403
f 57/57/57 54/54/54 58/58/58
f 131/132/131 52/52/52 393/432/393
f 404/443/404 122/123/122 392/430/392
f 126/127/126 395/434/395 127/128/127
f 58/58/58 123/124/123 124/431/124
f 392/430/392 122/123/122 300/319/300
f 122/123/122 394/433/394 203/209/203
f 132/324/132 303/322/303 299/318/299
f 48/48/48 47/47/47 387/421/387
f 386/420/386 495/561/495 387/421/387
f 138/141/138 387/421/387 136/139/136
f 379/411/379 382/414/382 360/392/360
f 382/414/382 362/394/362 360/392/360
f 386/420/386 44/44/44 495/561/495
f 377/409/377 381/413/381 379/411/379
f 380/412/380 379/411/379 360/392/360
f 386/420/386 496/562/496 44/44/44
f 366/398/366 139/142/139 141/144/141
f 143/146/143 145/148/145 375/407/375
f 355/385/355 42/42/42 149/152/149
f 364/396/364 363/395/363 369/401/369
f 272/281/272 365/397/365 364/396/364
f 356/386/356 361/528/361 476/527/476
f 356/386/356 358/390/358 361/528/361
f 356/386/356 359/391/359 352/382/352
f 156/159/156 158/568/158 154/157/154
f 345/373/345 162/166/162 343/371/343
f 342/370/342 168/172/168 343/371/343
f 169/173/169 168/172/168 342/370/342
f 37/37/37 324/346/324 170/174/170
f 336/360/336 172/359/172 338/363/338
f 491/554/491 171/175/171 170/174/170
f 338/363/338 172/359/172 334/573/334
f 94/94/94 436/480/436 330/353/330
f 177/181/177 322/344/322 437/481/437
f 328/350/328 327/349/327 497/563/497
f 30/30/30 94/94/94 330/353/330
f 437/481/437 322/344/322 326/348/326
f 318/340/318 176/180/176 185/190/185
f 182/187/182 327/349/327 187/192/187
f 320/342/320 481/534/481 322/344/322
f 498/564/498 187/192/187 32/32/32
f 322/344/322 481/534/481 326/348/326
f 481/534/481 191/196/191 326/348/326
f 326/348/326 191/196/191 28/28/28
f 319/341/319 192/197/192 481/534/481
f 192/197/192 482/535/482 316/338/316
f 26/26/26 190/195/190 315/337/315
f 491/554/491 197/202/197 314/335/314
f 482/535/482 314/572/314 200/205/200
f 201/207/201 195/200/195 202/208/202
f 201/207/201 312/333/312 199/537/199
f 200/205/200 312/538/312 316/338/316
f 484/541/484 485/542/485 258/265/258
f 205/211/205 300/319/300 203/209/203
f 310/331/310 195/200/195 484/541/484
f 499/570/499 204/210/204 302/321/302
f 298/316/298 301/320/301 487/544/487
f 218/224/218 292/547/292 216/222/216
f 287/301/287 483/565/483 286/299/286
f 20/20/20 19/19/19 293/310/293
f 281/293/281 287/301/287 283/300/283
f 228/234/228 23/23/23 490/550/490
f 278/289/278 279/290/279 230/236/230
f 276/287/276 229/235/229 275/286/275
f 152/155/152 15/15/15 17/17/17
f 369/401/369 351/381/351 7/7/7
f 269/278/269 272/281/272 364/396/364
f 271/280/271 16/16/16 268/277/268
f 288/302/288 265/274/265 10/10/10
f 6/6/6 271/280/271 268/277/268
f 245/251/245 237/243/237 11/11/11
f 245/251/245 235/241/235 237/243/237
f 4/4/4 223/229/223 5/5/5
f 7/7/7 351/381/351 154/157/154
f 7/7/7 255/262/255 8/8/8
f 431/473/431 473/522/473 432/474/432
f 330/353/330 31/31/31 30/30/30
f 174/178/174 335/358/335 337/362/337
f 463/509/463 501/582/501 445/579/445
f 419/459/419 108/108/108 428/469/428
