# Blender v2.79 (sub 0) OBJ File: ''
# www.blender.org
o Plane
v 11.212517 4.002478 0.377815
v 5.874903 0.845480 7.757715
v 5.874904 0.845482 -7.002088
v 0.537289 -2.311515 0.377814
v 11.043555 6.864192 1.674924
v 7.705997 2.786851 9.054825
v 7.705997 2.786851 -5.704978
v 4.368438 -1.290491 1.674924
v 10.135601 8.954853 -1.110744
v 7.869620 4.604118 6.269156
v 7.869620 4.604119 -8.490645
v 5.603636 0.253384 -1.110745
v 7.744378 11.290232 1.860514
v 7.540982 6.720400 9.240414
v 7.540982 6.720402 -5.519388
v 7.337586 2.150569 1.860513
v 7.764280 4.002478 -7.298395
v 9.642397 0.845480 1.613716
v -1.287768 0.845482 -8.305117
v 0.590349 -2.311515 0.606995
v 8.611291 6.864192 -6.301593
v 11.833479 2.786851 1.129405
v 0.903313 2.786851 -8.789427
v 4.125501 -1.290491 -1.358429
v 5.938243 8.954853 -7.501236
v 9.880548 4.604118 -0.863780
v -1.049617 4.604119 -10.782612
v 2.892687 0.253384 -4.145154
v 6.531624 11.290232 -3.733715
v 11.860022 6.720400 1.376323
v 0.929857 6.720402 -8.542510
v 6.258253 2.150569 -3.432471
v -0.044164 4.002478 -9.999781
v 7.585681 0.845480 -5.025996
v -7.156788 0.845482 -4.310874
v 0.473055 -2.311515 0.662911
v 1.259608 6.864192 -9.893865
v 8.792549 2.786851 -6.917784
v -5.949919 2.786851 -6.202663
v 1.583021 -1.290491 -3.226584
v -1.478798 8.954853 -8.852009
v 6.002224 4.604118 -6.946249
v -8.740244 4.604119 -6.231127
v -1.259222 0.253384 -4.325365
v 1.604826 11.290232 -6.607551
v 8.985914 6.720400 -6.761955
v -5.756553 6.720402 -6.046835
v 1.624535 2.150569 -6.201238
v -7.532370 4.002478 -6.430110
v 1.379742 0.845480 -8.308227
v -8.539092 0.845482 2.621940
v 0.373020 -2.311515 0.743823
v -6.535569 6.864192 -7.277121
v 0.895431 2.786851 -10.499308
v -9.023402 2.786851 0.430857
v -1.592404 -1.290491 -2.791329
v -7.735212 8.954853 -4.604073
v -1.097754 4.604118 -8.546380
v -11.016587 4.604119 2.383788
v -4.379128 0.253384 -1.558516
v -3.967689 11.290232 -5.197453
v 1.142349 6.720400 -10.525851
v -8.776484 6.720402 0.404314
v -3.666446 2.150569 -4.924083
v -10.027163 4.012613 1.017984
v -5.053378 0.855618 -6.611859
v -4.338258 0.855618 8.130610
v 0.635529 -2.301381 0.500766
v -9.921246 6.874328 -0.285787
v -6.945165 2.796986 -7.818728
v -6.230047 2.796987 6.923741
v -3.253966 -1.280355 -0.609199
v -8.879393 8.964989 2.452619
v -6.973631 4.614254 -5.028404
v -6.258510 4.614255 9.714064
v -4.352748 0.263519 2.233043
v -6.634933 11.300367 -0.631006
v -6.789336 6.730536 -8.012094
v -6.074218 6.730537 6.730374
v -6.228621 2.160706 -0.650715
v -6.534184 4.012613 8.433390
v -8.412301 0.855618 -0.478722
v 2.517865 0.855618 9.440112
v 0.639749 -2.301381 0.527999
v -7.381195 6.874328 7.436589
v -10.603381 2.796986 0.005588
v 0.326782 2.796987 9.924423
v -2.895404 -1.280355 2.493424
v -4.708148 8.964989 8.636232
v -8.650454 4.614254 1.998774
v 2.279713 4.614255 11.917606
v -1.662591 0.263519 5.280149
v -5.301528 11.300367 4.868709
v -10.629923 6.730536 -0.241329
v 0.300240 6.730537 9.677505
v -5.028157 2.160706 4.567466
v 1.119551 4.012613 11.096334
v -6.510293 0.855618 6.122545
v 8.232177 0.855618 5.407428
v 0.602332 -2.301381 0.433640
v -0.184221 6.874328 10.990414
v -7.717162 2.796986 8.014331
v 7.025308 2.796987 7.299217
v -0.507633 -1.280355 4.323135
v 2.554185 8.964989 9.948561
v -4.926837 4.614254 8.042799
v 9.815631 4.614255 7.327679
v 2.334609 0.263519 5.421918
v -0.529440 11.300367 7.704102
v -7.910528 6.730536 7.858504
v 6.831941 6.730537 7.143387
v -0.549149 2.160706 7.297788
v 7.825530 7.350040 0.240711
v 4.081801 5.135768 5.416871
v 4.081802 5.135768 -4.935449
v 0.338072 2.921494 0.240711
v 7.707022 9.357208 1.150486
v 5.366104 6.497417 6.326647
v 5.366104 6.497418 -4.025674
v 3.025187 3.637627 1.150486
v 7.070197 10.823568 -0.803343
v 5.480868 7.772023 4.372818
v 5.480868 7.772025 -5.979504
v 3.891539 4.720479 -0.803344
v 5.393025 12.461573 1.280656
v 5.250366 9.256355 6.456816
v 5.250366 9.256355 -3.895504
v 5.107707 6.051139 1.280656
v 5.406984 7.350040 -5.143276
v 6.724269 5.135768 1.107556
v -0.941997 5.135768 -5.849376
v 0.375288 2.921494 0.401456
v 6.001066 9.357208 -4.444134
v 8.261064 6.497417 0.767866
v 0.594797 6.497418 -6.189065
v 2.854795 3.637627 -0.977066
v 4.126227 10.823568 -5.285546
v 6.891306 7.772023 -0.630126
v -0.774961 7.772025 -7.587056
v 1.990116 4.720479 -2.931636
v 4.542417 12.461573 -2.643058
v 8.279680 9.256355 0.941052
v 0.613414 9.256355 -6.015881
v 4.350678 6.051139 -2.431770
v -0.069751 7.350040 -7.037990
v 5.281716 5.135768 -3.549446
v -5.058447 5.135768 -3.047871
v 0.293020 2.921494 0.440674
v 0.844697 9.357208 -6.963700
v 6.128197 6.497417 -4.876319
v -4.211965 6.497418 -4.374744
v 1.071534 3.637627 -2.287364
v -1.075983 10.823568 -6.232959
v 4.171103 7.772023 -4.896284
v -6.169060 7.772025 -4.394709
v -0.921975 4.720479 -3.058034
v 1.086829 12.461573 -4.658727
v 6.263821 9.256355 -4.767024
v -4.076341 9.256355 -4.265449
v 1.100652 6.051139 -4.373744
v -5.321875 7.350040 -4.534273
v 0.928957 5.135768 -5.851558
v -6.027976 5.135768 1.814710
v 0.222857 2.921494 0.497424
v -4.622731 9.357208 -5.128354
v 0.589268 6.497417 -7.388352
v -6.367664 6.497418 0.277915
v -1.155664 3.637627 -1.982082
v -5.464145 10.823568 -3.253516
v -0.808724 7.772023 -6.018595
v -7.765656 7.772025 1.647673
v -3.110235 4.720479 -1.117404
v -2.821656 12.461573 -3.669704
v 0.762453 9.256355 -7.406969
v -6.194479 9.256355 0.259298
v -2.610369 6.051139 -3.477966
v -7.071687 7.357150 0.689718
v -3.583143 5.142877 -4.661749
v -3.081569 5.142877 5.678414
v 0.406976 2.928602 0.326948
v -6.997399 9.364317 -0.224730
v -4.910017 6.504526 -5.508229
v -4.408443 6.504527 4.831933
v -2.321061 3.644735 -0.451566
v -6.266656 10.830677 1.695950
v -4.929983 7.779132 -3.551136
v -4.428407 7.779133 6.789028
v -3.091732 4.727588 1.541943
v -4.692424 12.468680 -0.466861
v -4.800721 9.263464 -5.643853
v -4.299147 9.263464 4.696309
v -4.407442 6.058248 -0.480685
v -4.621761 7.357150 5.890780
v -5.939046 5.142877 -0.360052
v 1.727221 5.142877 6.596881
v 0.409937 2.928602 0.346049
v -5.215842 9.364317 5.191638
v -7.475839 6.504526 -0.020363
v 0.190426 6.504527 6.936571
v -2.069570 3.644735 1.724571
v -3.341004 10.830677 6.033051
v -6.106082 7.779132 1.377630
v 1.560185 7.779133 8.334560
v -1.204893 4.727588 3.679140
v -3.757192 12.468680 3.390562
v -7.494456 9.263464 -0.193547
v 0.171810 9.263464 6.763386
v -3.565454 6.058248 3.179275
v 0.746463 7.357150 7.758532
v -4.605004 5.142877 4.269987
v 5.735160 5.142877 3.768412
v 0.383693 2.928602 0.279867
v -0.167984 9.364317 7.684241
v -5.451485 6.504526 5.596859
v 4.888679 6.504527 5.095287
v -0.394821 3.644735 3.007905
v 1.752696 10.830677 6.953500
v -3.494390 7.779132 5.616826
v 6.845773 7.779133 5.115250
v 1.598688 4.727588 3.778575
v -0.410116 12.468680 5.379267
v -5.587109 9.263464 5.487563
v 4.753054 9.263464 4.985990
v -0.423940 6.058248 5.094285
v 4.758886 9.719779 1.333137
v 1.644896 8.304415 3.974411
v 3.225415 8.304415 -2.451269
v 0.111425 6.889050 0.190004
v 4.546430 11.002760 1.879741
v 2.303164 9.174782 4.735186
v 3.883684 9.174782 -1.690494
v 1.640418 7.346802 1.164951
v 4.449450 11.940060 0.569774
v 2.672694 9.989511 3.539966
v 4.253215 9.989511 -2.885714
v 2.476459 8.038961 0.084478
v 3.090260 12.987070 1.607252
v 2.211452 10.938295 4.798312
v 3.791972 10.938295 -1.627368
v 2.913163 8.889521 1.563692
v 4.079686 9.719779 -2.377948
v 3.942991 8.304415 1.703054
v 0.246679 8.304415 -3.785542
v 0.109983 6.889050 0.295460
v 4.341691 11.002760 -1.853290
v 4.948739 9.174782 1.726836
v 1.252427 9.174782 -3.761760
v 1.859475 7.346802 -0.181634
v 3.306441 11.940060 -2.661792
v 4.311967 9.989511 0.649978
v 0.615654 9.989511 -4.838618
v 1.621180 8.038961 -1.526847
v 3.161333 12.987070 -0.958060
v 4.933854 10.938295 1.837174
v 1.237542 10.938295 -3.651422
v 3.010062 8.889521 -0.856187
v 0.969551 9.719779 -4.390145
v 3.758597 8.304415 -1.407783
v -2.736114 8.304415 -2.675120
v 0.052932 6.889050 0.307243
v 1.525806 11.002760 -4.204422
v 4.486585 9.174782 -2.102138
v -2.008126 9.174782 -3.369475
v 0.952653 7.346802 -1.267191
v 0.222076 11.940060 -4.044087
v 3.274865 9.989511 -2.413326
v -3.219845 9.989511 -3.680662
v -0.167057 8.038961 -2.049901
v 1.324190 12.987070 -2.736760
v 4.554080 10.938295 -2.013592
v -1.940630 10.938295 -3.280930
v 1.289261 8.889521 -2.557760
v -2.672690 9.719779 -3.637947
v 1.408312 8.304415 -3.501251
v -4.080284 8.304415 0.195061
v 0.000718 6.889050 0.331756
v -2.148032 11.002760 -3.899953
v 1.432094 9.174782 -4.507001
v -4.056501 9.174782 -0.810688
v -0.476376 7.346802 -1.417736
v -2.956535 11.940060 -2.864702
v 0.355236 9.989511 -3.870228
v -5.133360 9.989511 -0.173916
v -1.821590 8.038961 -1.179441
v -1.252802 12.987070 -2.719594
v 1.542433 10.938295 -4.492115
v -3.946164 10.938295 -0.795803
v -1.150929 8.889521 -2.568324
v -4.556360 9.724322 -0.662568
v -1.573998 8.308958 -3.451615
v -2.841335 8.308958 3.043097
v 0.141028 6.893594 0.254051
v -4.370637 11.007304 -1.218823
v -2.268353 9.179326 -4.179602
v -3.535690 9.179326 2.315109
v -1.433406 7.351346 -0.645670
v -4.210302 11.944603 0.084907
v -2.579542 9.994054 -2.967883
v -3.846877 9.994054 3.526828
v -2.216115 8.043507 0.474040
v -2.902975 12.991615 -1.017207
v -2.179807 10.942840 -4.247097
v -3.447144 10.942840 2.247613
v -2.723976 8.894064 -0.982278
v -3.829754 9.724322 2.939767
v -3.693059 8.308958 -1.141235
v 0.003254 8.308958 4.347362
v 0.139949 6.893594 0.266359
v -4.091760 11.007304 2.415110
v -4.698807 9.179326 -1.165018
v -1.002496 9.179326 4.323579
v -1.609542 7.351346 0.743453
v -3.056509 11.944603 3.223611
v -4.062035 9.994054 -0.088159
v -0.365723 9.994054 5.400436
v -1.371248 8.043507 2.088666
v -2.911401 12.991615 1.519879
v -4.683921 10.942840 -1.275355
v -0.987611 10.942840 4.213241
v -2.760131 8.894064 1.418006
v -0.782855 9.724322 4.918661
v -3.571902 8.308958 1.936299
v 2.922810 8.308958 3.203636
v 0.133764 6.893594 0.221273
v -1.339110 11.007304 4.732938
v -4.299889 9.179326 2.630653
v 2.194822 9.179326 3.897992
v -0.765957 7.351346 1.795707
v -0.035381 11.944603 4.572604
v -3.088170 9.994054 2.941842
v 3.406542 9.994054 4.209178
v 0.353752 8.043507 2.578417
v -1.137494 12.991615 3.265275
v -4.367384 10.942840 2.542108
v 2.127326 10.942840 3.809444
v -1.102565 8.894064 3.086277
v 2.712278 11.630527 2.355883
v -0.176591 10.592638 3.143430
v 2.868840 10.592638 -0.634315
v -0.020028 9.554745 0.153233
v 2.401396 12.571345 2.653013
v 0.024438 11.230881 3.853238
v 3.069869 11.230881 0.075492
v 0.692911 9.890417 1.275717
v 2.743783 13.258670 1.752686
v 0.641091 11.828325 3.174012
v 3.686523 11.828325 -0.603734
v 1.583833 10.397981 0.817593
v 1.518684 14.026446 2.019786
v -0.056091 12.524073 3.866691
v 2.989341 12.524073 0.088946
v 1.414566 11.021696 1.935851
v 3.413561 11.630527 -0.320314
v 2.055401 10.592638 2.348243
v 1.304425 10.592638 -2.445717
v -0.053735 9.554745 0.222839
v 3.424679 12.571345 0.109581
v 2.716133 11.230881 2.676376
v 1.965158 11.230881 -2.117584
v 1.256612 9.890417 0.449210
v 2.988044 13.258670 -0.749002
v 2.627544 11.828325 1.763270
v 1.876568 11.828325 -3.030690
v 1.516069 10.397981 -0.518417
v 2.362555 14.026446 0.337722
v 2.671980 12.524073 2.745050
v 1.921004 12.524073 -2.048908
v 2.230429 11.021696 0.358419
v 1.972388 11.630527 -2.622868
v 2.898979 10.592638 0.224452
v -1.021883 10.592638 -2.634370
v -0.095294 9.554745 0.212949
v 2.284232 12.571345 -2.326747
v 3.598212 11.230881 -0.010731
v -0.322650 11.230881 -2.869553
v 0.991330 9.890417 -0.553538
v 1.368373 13.258670 -2.625110
v 2.889906 11.828325 -0.593753
v -1.030955 11.828325 -3.452573
v 0.490578 10.397981 -1.421217
v 1.694516 14.026446 -1.414391
v 3.615551 12.524073 0.069050
v -0.305311 12.524073 -2.789772
v 1.615725 11.021696 -1.306329
v -0.680745 11.630527 -3.254279
v 1.987811 10.592638 -1.896119
v -2.806149 10.592638 -1.145142
v -0.137592 9.554745 0.213018
v -0.250850 12.571345 -3.265397
v 2.315944 11.230881 -2.556852
v -2.478015 11.230881 -1.805875
v 0.088779 9.890417 -1.097330
v -1.109434 13.258670 -2.828760
v 1.402839 11.828325 -2.468262
v -3.391122 11.828325 -1.717285
v -0.878848 10.397981 -1.356786
v -0.022709 14.026446 -2.203272
v 2.384620 12.524073 -2.512698
v -2.409341 12.524073 -1.761722
v -0.002012 11.021696 -2.071147
v -2.856069 11.633862 -1.862710
v -0.008751 10.595969 -2.789300
v -2.867573 10.595969 1.131562
v -0.020253 9.558076 0.204972
v -2.559949 12.574677 -2.174554
v -0.243934 11.234213 -3.488534
v -3.102756 11.234214 0.432328
v -0.786740 9.893748 -0.881652
v -2.858311 13.262001 -1.258694
v -0.826955 11.831656 -2.780229
v -3.685777 11.831656 1.140634
v -1.654419 10.401312 -0.380900
v -1.647594 14.029778 -1.584838
v -0.164152 12.527405 -3.505873
v -3.022974 12.527405 0.414989
v -1.539531 11.025029 -1.506047
v -3.492090 11.633862 0.755967
v -2.133929 10.595969 -1.912591
v -1.382953 10.595969 2.881370
v -0.024792 9.558076 0.212813
v -3.503207 12.574677 0.326071
v -2.794661 11.234213 -2.240724
v -2.043686 11.234214 2.553236
v -1.335140 9.893748 -0.013558
v -3.066571 13.262001 1.184655
v -2.706072 11.831656 -1.327618
v -1.955096 11.831656 3.466342
v -1.594596 10.401312 0.954069
v -2.441082 14.029778 0.097930
v -2.750507 12.527405 -2.309398
v -1.999532 12.527405 2.484561
v -2.308957 11.025029 0.077233
v -2.082582 11.633862 3.016758
v -3.009172 10.595969 0.169439
v 0.911690 10.595969 3.028262
v -0.014900 9.558076 0.180942
v -2.394425 12.574677 2.720638
v -3.708405 11.234213 0.404622
v 0.212456 11.234214 3.263445
v -1.101524 9.893748 0.947429
v -1.478566 13.262001 3.019000
v -3.000100 11.831656 0.987644
v 0.920762 11.831656 3.846465
v -0.600771 10.401312 1.815109
v -1.804709 14.029778 1.808282
v -3.725744 12.527405 0.324841
v 0.195117 12.527405 3.183661
v -1.725918 11.025029 1.700220
v 0.582361 12.970085 2.535960
v -1.482235 12.212593 1.819570
v 1.909160 12.212593 0.799478
v -0.155435 11.455097 0.083088
v 0.272643 13.656730 2.586785
v -1.653722 12.678406 2.329952
v 1.737672 12.678406 1.309860
v -0.188693 11.700083 1.053027
v 0.849962 14.158366 2.185638
v -1.002345 13.114447 2.175023
v 2.389051 13.114447 1.154931
v 0.536744 12.070525 1.144316
v 0.001984 14.718722 1.841551
v -1.707770 13.622229 2.304862
v 1.683624 13.622229 1.284771
v -0.026130 12.525736 1.748082
v 2.107823 12.970085 1.213126
v 0.189869 12.212593 2.260607
v 1.713528 12.212593 -0.936361
v -0.204427 11.455097 0.111119
v 1.937326 13.656730 1.476637
v 0.452582 12.678406 2.730585
v 1.976241 12.678406 -0.466384
v 0.491497 11.700083 0.787563
v 2.028229 14.158366 0.779535
v 0.775588 13.114447 2.144101
v 2.299247 13.114447 -1.052868
v 1.046607 12.070525 0.311698
v 1.203567 14.718722 1.176262
v 0.397681 13.622229 2.753749
v 1.921340 13.622229 -0.443220
v 1.115456 12.525736 1.134268
v 2.188864 12.970085 -0.767739
v 1.573346 12.212593 1.329141
v 0.390137 12.212593 -2.008847
v -0.225382 11.455097 0.088033
v 2.254634 13.656730 -0.460848
v 2.091436 12.678406 1.475699
v 0.908227 12.678406 -1.862289
v 0.745030 11.700083 0.074258
v 1.825986 14.158366 -1.018053
v 1.905130 13.114447 0.832593
v 0.721920 13.114447 -2.505395
v 0.801064 12.070525 -0.654751
v 1.523389 14.718722 -0.154400
v 2.068995 13.622229 1.530899
v 0.885787 13.622229 -1.807089
v 1.431392 12.525736 -0.121790
v 0.851121 12.970085 -2.241611
v 1.898601 12.212593 -0.323657
v -1.298367 12.212593 -1.847316
v -0.250887 11.455097 0.070640
v 1.114632 13.656730 -2.071114
v 2.368580 12.678406 -0.586370
v -0.828389 12.678406 -2.110029
v 0.425558 11.700083 -0.625285
v 0.417529 14.158366 -2.162016
v 1.782096 13.114447 -0.909376
v -1.414874 13.114447 -2.433035
v -0.050307 12.070525 -1.180394
v 0.814255 14.718722 -1.337354
v 2.391744 13.622229 -0.531469
v -0.805226 13.622229 -2.055129
v 0.772262 12.525736 -1.249243
v -1.032667 12.972518 -2.300087
v 1.064212 12.215025 -1.684569
v -2.273777 12.215025 -0.501360
v -0.176896 11.457529 0.114158
v -0.725777 13.659163 -2.365857
v 1.210770 12.680839 -2.202659
v -2.127218 12.680840 -1.019451
v -0.190671 11.702515 -0.856253
v -1.282981 14.160799 -1.937209
v 0.567663 13.116877 -2.016353
v -2.770325 13.116877 -0.833144
v -0.919680 12.072956 -0.912287
v -0.419329 14.721153 -1.634613
v 1.265970 13.624661 -2.180219
v -2.072018 13.624661 -0.997010
v -0.386719 12.528169 -1.542615
v -2.495114 12.972518 -0.984997
v -0.577158 12.215025 -2.032478
v -2.100818 12.215025 1.164491
v -0.182862 11.457529 0.117010
v -2.324616 13.659163 -1.248508
v -0.839871 12.680839 -2.502455
v -2.363531 12.680840 0.694513
v -0.878787 11.702515 -0.559434
v -2.415518 14.160799 -0.551405
v -1.162878 13.116877 -1.915971
v -2.686537 13.116877 1.280997
v -1.433896 12.072956 -0.083569
v -1.590856 14.721153 -0.948132
v -0.784971 13.624661 -2.525620
v -2.308631 13.624661 0.671349
v -1.502745 12.528169 -0.906138
v -2.578013 12.972518 0.957663
v -1.962494 12.215025 -1.139217
v -0.779286 12.215025 2.198772
v -0.163767 11.457529 0.101892
v -2.643782 13.659163 0.650772
v -2.480585 12.680839 -1.285775
v -1.297377 12.680840 2.052214
v -1.134179 11.702515 0.115666
v -2.215135 14.160799 1.207977
v -2.294279 13.116877 -0.642668
v -1.111069 13.116877 2.695320
v -1.190213 12.072956 0.844675
v -1.912538 14.721153 0.344324
v -2.458143 13.624661 -1.340975
v -1.274935 13.624661 1.997013
v -1.820541 12.528169 0.311714
vt 0.495375 0.491585
vt 0.010089 0.006299
vt 0.495375 0.006299
vt 0.495375 0.491585
vt 0.010089 0.006299
vt 0.495375 0.006299
vt 0.495375 0.491585
vt 0.010089 0.006299
vt 0.495375 0.006299
vt 0.495375 0.491585
vt 0.010089 0.006299
vt 0.495375 0.006299
vt 0.495375 0.491585
vt 0.010089 0.006299
vt 0.495375 0.006299
vt 0.495375 0.491585
vt 0.010089 0.006299
vt 0.495375 0.006299
vt 0.495375 0.491585
vt 0.010089 0.006299
vt 0.495375 0.006299
vt 0.495375 0.491585
vt 0.010089 0.006299
vt 0.495375 0.006299
vt 0.495375 0.491585
vt 0.010089 0.006299
vt 0.495375 0.006299
vt 0.495375 0.491585
vt 0.010089 0.006299
vt 0.495375 0.006299
vt 0.495375 0.491585
vt 0.010089 0.006299
vt 0.495375 0.006299
vt 0.495375 0.491585
vt 0.010089 0.006299
vt 0.495375 0.006299
vt 0.495375 0.491585
vt 0.010089 0.006299
vt 0.495375 0.006299
vt 0.495375 0.491585
vt 0.010089 0.006299
vt 0.495375 0.006299
vt 0.495375 0.491585
vt 0.010089 0.006299
vt 0.495375 0.006299
vt 0.495375 0.491585
vt 0.010089 0.006299
vt 0.495375 0.006299
vt 0.495375 0.491585
vt 0.010089 0.006299
vt 0.495375 0.006299
vt 0.495375 0.491585
vt 0.010089 0.006299
vt 0.495375 0.006299
vt 0.495375 0.491585
vt 0.010089 0.006299
vt 0.495375 0.006299
vt 0.495375 0.491585
vt 0.010089 0.006299
vt 0.495375 0.006299
vt 0.495375 0.491585
vt 0.010089 0.006299
vt 0.495375 0.006299
vt 0.495375 0.491585
vt 0.010089 0.006299
vt 0.495375 0.006299
vt 0.495375 0.491585
vt 0.010089 0.006299
vt 0.495375 0.006299
vt 0.495375 0.491585
vt 0.010089 0.006299
vt 0.495375 0.006299
vt 0.495375 0.491585
vt 0.010089 0.006299
vt 0.495375 0.006299
vt 0.495375 0.491585
vt 0.010089 0.006299
vt 0.495375 0.006299
vt 0.495375 0.491585
vt 0.010089 0.006299
vt 0.495375 0.006299
vt 0.495375 0.491585
vt 0.010089 0.006299
vt 0.495375 0.006299
vt 0.495375 0.491585
vt 0.010089 0.006299
vt 0.495375 0.006299
vt 0.495375 0.491585
vt 0.010089 0.006299
vt 0.495375 0.006299
vt 0.495375 0.491585
vt 0.010089 0.006299
vt 0.495375 0.006299
vt 0.495375 0.491585
vt 0.010089 0.006299
vt 0.495375 0.006299
vt 0.495375 0.491585
vt 0.010089 0.006299
vt 0.495375 0.006299
vt 0.495375 0.491585
vt 0.010089 0.006299
vt 0.495375 0.006299
vt 0.495375 0.491585
vt 0.010089 0.006299
vt 0.495375 0.006299
vt 0.495375 0.491585
vt 0.010089 0.006299
vt 0.495375 0.006299
vt 0.495375 0.491585
vt 0.010089 0.006299
vt 0.495375 0.006299
vt 0.495375 0.491585
vt 0.010089 0.006299
vt 0.495375 0.006299
vt 0.495375 0.491585
vt 0.010089 0.006299
vt 0.495375 0.006299
vt 0.495375 0.491585
vt 0.010089 0.006299
vt 0.495375 0.006299
vt 0.495375 0.491585
vt 0.010089 0.006299
vt 0.495375 0.006299
vt 0.495375 0.491585
vt 0.010089 0.006299
vt 0.495375 0.006299
vt 0.495375 0.491585
vt 0.010089 0.006299
vt 0.495375 0.006299
vt 0.495375 0.491585
vt 0.010089 0.006299
vt 0.495375 0.006299
vt 0.495375 0.491585
vt 0.010089 0.006299
vt 0.495375 0.006299
vt 0.495375 0.491585
vt 0.010089 0.006299
vt 0.495375 0.006299
vt 0.495375 0.491585
vt 0.010089 0.006299
vt 0.495375 0.006299
vt 0.495375 0.491585
vt 0.010089 0.006299
vt 0.495375 0.006299
vt 0.495375 0.491585
vt 0.010089 0.006299
vt 0.495375 0.006299
vt 0.495375 0.491585
vt 0.010089 0.006299
vt 0.495375 0.006299
vt 0.495375 0.491585
vt 0.010089 0.006299
vt 0.495375 0.006299
vt 0.495375 0.491585
vt 0.010089 0.006299
vt 0.495375 0.006299
vt 0.495375 0.491585
vt 0.010089 0.006299
vt 0.495375 0.006299
vt 0.495375 0.491585
vt 0.010089 0.006299
vt 0.495375 0.006299
vt 0.495375 0.491585
vt 0.010089 0.006299
vt 0.495375 0.006299
vt 0.495375 0.491585
vt 0.010089 0.006299
vt 0.495375 0.006299
vt 0.495375 0.491585
vt 0.010089 0.006299
vt 0.495375 0.006299
vt 0.495375 0.491585
vt 0.010089 0.006299
vt 0.495375 0.006299
vt 0.495375 0.491585
vt 0.010089 0.006299
vt 0.495375 0.006299
vt 0.495375 0.491585
vt 0.010089 0.006299
vt 0.495375 0.006299
vt 0.495375 0.491585
vt 0.010089 0.006299
vt 0.495375 0.006299
vt 0.495375 0.491585
vt 0.010089 0.006299
vt 0.495375 0.006299
vt 0.495375 0.491585
vt 0.010089 0.006299
vt 0.495375 0.006299
vt 0.495375 0.491585
vt 0.010089 0.006299
vt 0.495375 0.006299
vt 0.495375 0.491585
vt 0.010089 0.006299
vt 0.495375 0.006299
vt 0.495375 0.491585
vt 0.010089 0.006299
vt 0.495375 0.006299
vt 0.495375 0.491585
vt 0.010089 0.006299
vt 0.495375 0.006299
vt 0.495375 0.491585
vt 0.010089 0.006299
vt 0.495375 0.006299
vt 0.495375 0.491585
vt 0.010089 0.006299
vt 0.495375 0.006299
vt 0.495375 0.491585
vt 0.010089 0.006299
vt 0.495375 0.006299
vt 0.495375 0.491585
vt 0.010089 0.006299
vt 0.495375 0.006299
vt 0.495375 0.491585
vt 0.010089 0.006299
vt 0.495375 0.006299
vt 0.495375 0.491585
vt 0.010089 0.006299
vt 0.495375 0.006299
vt 0.495375 0.491585
vt 0.010089 0.006299
vt 0.495375 0.006299
vt 0.495375 0.491585
vt 0.010089 0.006299
vt 0.495375 0.006299
vt 0.495375 0.491585
vt 0.010089 0.006299
vt 0.495375 0.006299
vt 0.495375 0.491585
vt 0.010089 0.006299
vt 0.495375 0.006299
vt 0.495375 0.491585
vt 0.010089 0.006299
vt 0.495375 0.006299
vt 0.495375 0.491585
vt 0.010089 0.006299
vt 0.495375 0.006299
vt 0.495375 0.491585
vt 0.010089 0.006299
vt 0.495375 0.006299
vt 0.495375 0.491585
vt 0.010089 0.006299
vt 0.495375 0.006299
vt 0.495375 0.491585
vt 0.010089 0.006299
vt 0.495375 0.006299
vt 0.495375 0.491585
vt 0.010089 0.006299
vt 0.495375 0.006299
vt 0.495375 0.491585
vt 0.010089 0.006299
vt 0.495375 0.006299
vt 0.495375 0.491585
vt 0.010089 0.006299
vt 0.495375 0.006299
vt 0.495375 0.491585
vt 0.010089 0.006299
vt 0.495375 0.006299
vt 0.495375 0.491585
vt 0.010089 0.006299
vt 0.495375 0.006299
vt 0.495375 0.491585
vt 0.010089 0.006299
vt 0.495375 0.006299
vt 0.495375 0.491585
vt 0.010089 0.006299
vt 0.495375 0.006299
vt 0.495375 0.491585
vt 0.010089 0.006299
vt 0.495375 0.006299
vt 0.495375 0.491585
vt 0.010089 0.006299
vt 0.495375 0.006299
vt 0.495375 0.491585
vt 0.010089 0.006299
vt 0.495375 0.006299
vt 0.495375 0.491585
vt 0.010089 0.006299
vt 0.495375 0.006299
vt 0.495375 0.491585
vt 0.010089 0.006299
vt 0.495375 0.006299
vt 0.495375 0.491585
vt 0.010089 0.006299
vt 0.495375 0.006299
vt 0.495375 0.491585
vt 0.010089 0.006299
vt 0.495375 0.006299
vt 0.495375 0.491585
vt 0.010089 0.006299
vt 0.495375 0.006299
vt 0.495375 0.491585
vt 0.010089 0.006299
vt 0.495375 0.006299
vt 0.495375 0.491585
vt 0.010089 0.006299
vt 0.495375 0.006299
vt 0.495375 0.491585
vt 0.010089 0.006299
vt 0.495375 0.006299
vt 0.495375 0.491585
vt 0.010089 0.006299
vt 0.495375 0.006299
vt 0.495375 0.491585
vt 0.010089 0.006299
vt 0.495375 0.006299
vt 0.495375 0.491585
vt 0.010089 0.006299
vt 0.495375 0.006299
vt 0.495375 0.491585
vt 0.010089 0.006299
vt 0.495375 0.006299
vt 0.495375 0.491585
vt 0.010089 0.006299
vt 0.495375 0.006299
vt 0.495375 0.491585
vt 0.010089 0.006299
vt 0.495375 0.006299
vt 0.495375 0.491585
vt 0.010089 0.006299
vt 0.495375 0.006299
vt 0.495375 0.491585
vt 0.010089 0.006299
vt 0.495375 0.006299
vt 0.495375 0.491585
vt 0.010089 0.006299
vt 0.495375 0.006299
vt 0.495375 0.491585
vt 0.010089 0.006299
vt 0.495375 0.006299
vt 0.495375 0.491585
vt 0.010089 0.006299
vt 0.495375 0.006299
vt 0.495375 0.491585
vt 0.010089 0.006299
vt 0.495375 0.006299
vt 0.495375 0.491585
vt 0.010089 0.006299
vt 0.495375 0.006299
vt 0.495375 0.491585
vt 0.010089 0.006299
vt 0.495375 0.006299
vt 0.495375 0.491585
vt 0.010089 0.006299
vt 0.495375 0.006299
vt 0.495375 0.491585
vt 0.010089 0.006299
vt 0.495375 0.006299
vt 0.495375 0.491585
vt 0.010089 0.006299
vt 0.495375 0.006299
vt 0.495375 0.491585
vt 0.010089 0.006299
vt 0.495375 0.006299
vt 0.495375 0.491585
vt 0.010089 0.006299
vt 0.495375 0.006299
vt 0.495375 0.491585
vt 0.010089 0.006299
vt 0.495375 0.006299
vt 0.495375 0.491585
vt 0.010089 0.006299
vt 0.495375 0.006299
vt 0.495375 0.491585
vt 0.010089 0.006299
vt 0.495375 0.006299
vt 0.495375 0.491585
vt 0.010089 0.006299
vt 0.495375 0.006299
vt 0.495375 0.491585
vt 0.010089 0.006299
vt 0.495375 0.006299
vt 0.495375 0.491585
vt 0.010089 0.006299
vt 0.495375 0.006299
vt 0.495375 0.491585
vt 0.010089 0.006299
vt 0.495375 0.006299
vt 0.495375 0.491585
vt 0.010089 0.006299
vt 0.495375 0.006299
vt 0.495375 0.491585
vt 0.010089 0.006299
vt 0.495375 0.006299
vt 0.495375 0.491585
vt 0.010089 0.006299
vt 0.495375 0.006299
vt 0.495375 0.491585
vt 0.010089 0.006299
vt 0.495375 0.006299
vt 0.495375 0.491585
vt 0.010089 0.006299
vt 0.495375 0.006299
vt 0.495375 0.491585
vt 0.010089 0.006299
vt 0.495375 0.006299
vt 0.495375 0.491585
vt 0.010089 0.006299
vt 0.495375 0.006299
vt 0.495375 0.491585
vt 0.010089 0.006299
vt 0.495375 0.006299
vt 0.495375 0.491585
vt 0.010089 0.006299
vt 0.495375 0.006299
vt 0.495375 0.491585
vt 0.010089 0.006299
vt 0.495375 0.006299
vt 0.495375 0.491585
vt 0.010089 0.006299
vt 0.495375 0.006299
vt 0.495375 0.491585
vt 0.010089 0.006299
vt 0.495375 0.006299
vt 0.495375 0.491585
vt 0.010089 0.006299
vt 0.495375 0.006299
vt 0.495375 0.491585
vt 0.010089 0.006299
vt 0.495375 0.006299
vt 0.010089 0.491585
vt 0.010089 0.491585
vt 0.010089 0.491585
vt 0.010089 0.491585
vt 0.010089 0.491585
vt 0.010089 0.491585
vt 0.010089 0.491585
vt 0.010089 0.491585
vt 0.010089 0.491585
vt 0.010089 0.491585
vt 0.010089 0.491585
vt 0.010089 0.491585
vt 0.010089 0.491585
vt 0.010089 0.491585
vt 0.010089 0.491585
vt 0.010089 0.491585
vt 0.010089 0.491585
vt 0.010089 0.491585
vt 0.010089 0.491585
vt 0.010089 0.491585
vt 0.010089 0.491585
vt 0.010089 0.491585
vt 0.010089 0.491585
vt 0.010089 0.491585
vt 0.010089 0.491585
vt 0.010089 0.491585
vt 0.010089 0.491585
vt 0.010089 0.491585
vt 0.010089 0.491585
vt 0.010089 0.491585
vt 0.010089 0.491585
vt 0.010089 0.491585
vt 0.010089 0.491585
vt 0.010089 0.491585
vt 0.010089 0.491585
vt 0.010089 0.491585
vt 0.010089 0.491585
vt 0.010089 0.491585
vt 0.010089 0.491585
vt 0.010089 0.491585
vt 0.010089 0.491585
vt 0.010089 0.491585
vt 0.010089 0.491585
vt 0.010089 0.491585
vt 0.010089 0.491585
vt 0.010089 0.491585
vt 0.010089 0.491585
vt 0.010089 0.491585
vt 0.010089 0.491585
vt 0.010089 0.491585
vt 0.010089 0.491585
vt 0.010089 0.491585
vt 0.010089 0.491585
vt 0.010089 0.491585
vt 0.010089 0.491585
vt 0.010089 0.491585
vt 0.010089 0.491585
vt 0.010089 0.491585
vt 0.010089 0.491585
vt 0.010089 0.491585
vt 0.010089 0.491585
vt 0.010089 0.491585
vt 0.010089 0.491585
vt 0.010089 0.491585
vt 0.010089 0.491585
vt 0.010089 0.491585
vt 0.010089 0.491585
vt 0.010089 0.491585
vt 0.010089 0.491585
vt 0.010089 0.491585
vt 0.010089 0.491585
vt 0.010089 0.491585
vt 0.010089 0.491585
vt 0.010089 0.491585
vt 0.010089 0.491585
vt 0.010089 0.491585
vt 0.010089 0.491585
vt 0.010089 0.491585
vt 0.010089 0.491585
vt 0.010089 0.491585
vt 0.010089 0.491585
vt 0.010089 0.491585
vt 0.010089 0.491585
vt 0.010089 0.491585
vt 0.010089 0.491585
vt 0.010089 0.491585
vt 0.010089 0.491585
vt 0.010089 0.491585
vt 0.010089 0.491585
vt 0.010089 0.491585
vt 0.010089 0.491585
vt 0.010089 0.491585
vt 0.010089 0.491585
vt 0.010089 0.491585
vt 0.010089 0.491585
vt 0.010089 0.491585
vt 0.010089 0.491585
vt 0.010089 0.491585
vt 0.010089 0.491585
vt 0.010089 0.491585
vt 0.010089 0.491585
vt 0.010089 0.491585
vt 0.010089 0.491585
vt 0.010089 0.491585
vt 0.010089 0.491585
vt 0.010089 0.491585
vt 0.010089 0.491585
vt 0.010089 0.491585
vt 0.010089 0.491585
vt 0.010089 0.491585
vt 0.010089 0.491585
vt 0.010089 0.491585
vt 0.010089 0.491585
vt 0.010089 0.491585
vt 0.010089 0.491585
vt 0.010089 0.491585
vt 0.010089 0.491585
vt 0.010089 0.491585
vt 0.010089 0.491585
vt 0.010089 0.491585
vt 0.010089 0.491585
vt 0.010089 0.491585
vt 0.010089 0.491585
vt 0.010089 0.491585
vt 0.010089 0.491585
vt 0.010089 0.491585
vt 0.010089 0.491585
vt 0.010089 0.491585
vt 0.010089 0.491585
vt 0.010089 0.491585
vt 0.010089 0.491585
vt 0.010089 0.491585
vt 0.010089 0.491585
vt 0.010089 0.491585
vt 0.010089 0.491585
vt 0.010089 0.491585
vt 0.010089 0.491585
vt 0.010089 0.491585
vt 0.010089 0.491585
vt 0.010089 0.491585
vn 0.5091 -0.8607 0.0000
vn 0.7738 -0.6334 -0.0000
vn 0.8869 -0.4619 0.0000
vn 0.9990 -0.0445 -0.0000
vn 0.3421 -0.8607 -0.3770
vn 0.5200 -0.6334 -0.5730
vn 0.5960 -0.4619 -0.6568
vn 0.6714 -0.0445 -0.7398
vn -0.0247 -0.8607 -0.5085
vn -0.0375 -0.6334 -0.7729
vn -0.0430 -0.4619 -0.8859
vn -0.0484 -0.0445 -0.9978
vn -0.3770 -0.8607 -0.3421
vn -0.5730 -0.6334 -0.5200
vn -0.6568 -0.4619 -0.5960
vn -0.7398 -0.0445 -0.6714
vn -0.5085 -0.8607 0.0247
vn -0.7729 -0.6334 0.0375
vn -0.8859 -0.4619 0.0430
vn -0.9978 -0.0445 0.0484
vn -0.3421 -0.8607 0.3770
vn -0.5200 -0.6334 0.5730
vn -0.5960 -0.4619 0.6568
vn -0.6714 -0.0445 0.7398
vn 0.0247 -0.8607 0.5085
vn 0.0375 -0.6334 0.7729
vn 0.0430 -0.4619 0.8859
vn 0.0484 -0.0445 0.9978
vn 0.4943 -0.8607 0.1216
vn 0.7514 -0.6334 0.1848
vn 0.8612 -0.4619 0.2118
vn 0.9701 -0.0445 0.2386
vn 0.4223 -0.8607 -0.2844
vn 0.6418 -0.6334 -0.4322
vn 0.7356 -0.4619 -0.4954
vn 0.8286 -0.0445 -0.5580
vn 0.0975 -0.8607 -0.4997
vn 0.1482 -0.6334 -0.7595
vn 0.1699 -0.4619 -0.8705
vn 0.1913 -0.0445 -0.9805
vn -0.2844 -0.8607 -0.4223
vn -0.4322 -0.6334 -0.6418
vn -0.4954 -0.4619 -0.7356
vn -0.5580 -0.0445 -0.8286
vn -0.4997 -0.8607 -0.0975
vn -0.7595 -0.6334 -0.1482
vn -0.8705 -0.4619 -0.1699
vn -0.9805 -0.0445 -0.1913
vn -0.4223 -0.8607 0.2844
vn -0.6418 -0.6334 0.4322
vn -0.7356 -0.4619 0.4954
vn -0.8286 -0.0445 0.5580
vn -0.0975 -0.8607 0.4997
vn -0.1482 -0.6334 0.7595
vn -0.1699 -0.4619 0.8705
vn -0.1913 -0.0445 0.9805
vn 0.3963 -0.8607 0.3195
vn 0.6024 -0.6334 0.4857
vn 0.6905 -0.4619 0.5566
vn 0.7778 -0.0445 0.6270
vn 0.5029 -0.8607 -0.0788
vn 0.7645 -0.6334 -0.1198
vn 0.8762 -0.4619 -0.1373
vn 0.9870 -0.0445 -0.1546
vn 0.2999 -0.8607 -0.4113
vn 0.4559 -0.6334 -0.6253
vn 0.5225 -0.4619 -0.7166
vn 0.5886 -0.0445 -0.8072
vn -0.0788 -0.8607 -0.5029
vn -0.1198 -0.6334 -0.7645
vn -0.1373 -0.4619 -0.8762
vn -0.1546 -0.0445 -0.9870
vn -0.4113 -0.8607 -0.2999
vn -0.6253 -0.6334 -0.4559
vn -0.7166 -0.4619 -0.5225
vn -0.8072 -0.0445 -0.5886
vn -0.5029 -0.8607 0.0788
vn -0.7645 -0.6334 0.1198
vn -0.8762 -0.4619 0.1373
vn -0.9870 -0.0445 0.1546
vn -0.2999 -0.8607 0.4113
vn -0.4559 -0.6334 0.6253
vn -0.5225 -0.4619 0.7166
vn -0.5886 -0.0445 0.8072
vn 0.1466 -0.8607 0.4875
vn 0.2229 -0.6334 0.7410
vn 0.2555 -0.4619 0.8493
vn 0.2878 -0.0445 0.9567
vn 0.4596 -0.8607 0.2190
vn 0.6985 -0.6334 0.3329
vn 0.8006 -0.4619 0.3816
vn 0.9018 -0.0445 0.4298
vn 0.4798 -0.8607 -0.1701
vn 0.7293 -0.6334 -0.2585
vn 0.8360 -0.4619 -0.2963
vn 0.9416 -0.0445 -0.3338
vn 0.2190 -0.8607 -0.4596
vn 0.3329 -0.6334 -0.6985
vn 0.3816 -0.4619 -0.8006
vn 0.4298 -0.0445 -0.9018
vn -0.1701 -0.8607 -0.4798
vn -0.2585 -0.6334 -0.7293
vn -0.2963 -0.4619 -0.8360
vn -0.3338 -0.0445 -0.9416
vn -0.4596 -0.8607 -0.2190
vn -0.6985 -0.6334 -0.3329
vn -0.8006 -0.4619 -0.3816
vn -0.9018 -0.0445 -0.4298
vn -0.4798 -0.8607 0.1701
vn -0.7293 -0.6334 0.2585
vn -0.8360 -0.4619 0.2963
vn -0.9416 -0.0445 0.3338
s off
f 1/1/1 4/2/1 3/3/1
f 5/4/2 8/5/2 7/6/2
f 9/7/3 12/8/3 11/9/3
f 13/10/4 16/11/4 15/12/4
f 17/13/5 20/14/5 19/15/5
f 21/16/6 24/17/6 23/18/6
f 25/19/7 28/20/7 27/21/7
f 29/22/8 32/23/8 31/24/8
f 33/25/9 36/26/9 35/27/9
f 37/28/10 40/29/10 39/30/10
f 41/31/11 44/32/11 43/33/11
f 45/34/12 48/35/12 47/36/12
f 49/37/13 52/38/13 51/39/13
f 53/40/14 56/41/14 55/42/14
f 57/43/15 60/44/15 59/45/15
f 61/46/16 64/47/16 63/48/16
f 65/49/17 68/50/17 67/51/17
f 69/52/18 72/53/18 71/54/18
f 73/55/19 76/56/19 75/57/19
f 77/58/20 80/59/20 79/60/20
f 81/61/21 84/62/21 83/63/21
f 85/64/22 88/65/22 87/66/22
f 89/67/23 92/68/23 91/69/23
f 93/70/24 96/71/24 95/72/24
f 97/73/25 100/74/25 99/75/25
f 101/76/26 104/77/26 103/78/26
f 105/79/27 108/80/27 107/81/27
f 109/82/28 112/83/28 111/84/28
f 113/85/1 116/86/1 115/87/1
f 117/88/2 120/89/2 119/90/2
f 121/91/3 124/92/3 123/93/3
f 125/94/4 128/95/4 127/96/4
f 129/97/5 132/98/5 131/99/5
f 133/100/6 136/101/6 135/102/6
f 137/103/7 140/104/7 139/105/7
f 141/106/8 144/107/8 143/108/8
f 145/109/9 148/110/9 147/111/9
f 149/112/10 152/113/10 151/114/10
f 153/115/11 156/116/11 155/117/11
f 157/118/12 160/119/12 159/120/12
f 161/121/13 164/122/13 163/123/13
f 165/124/14 168/125/14 167/126/14
f 169/127/15 172/128/15 171/129/15
f 173/130/16 176/131/16 175/132/16
f 177/133/17 180/134/17 179/135/17
f 181/136/18 184/137/18 183/138/18
f 185/139/19 188/140/19 187/141/19
f 189/142/20 192/143/20 191/144/20
f 193/145/21 196/146/21 195/147/21
f 197/148/22 200/149/22 199/150/22
f 201/151/23 204/152/23 203/153/23
f 205/154/24 208/155/24 207/156/24
f 209/157/25 212/158/25 211/159/25
f 213/160/26 216/161/26 215/162/26
f 217/163/27 220/164/27 219/165/27
f 221/166/28 224/167/28 223/168/28
f 225/169/29 228/170/29 227/171/29
f 229/172/30 232/173/30 231/174/30
f 233/175/31 236/176/31 235/177/31
f 237/178/32 240/179/32 239/180/32
f 241/181/33 244/182/33 243/183/33
f 245/184/34 248/185/34 247/186/34
f 249/187/35 252/188/35 251/189/35
f 253/190/36 256/191/36 255/192/36
f 257/193/37 260/194/37 259/195/37
f 261/196/38 264/197/38 263/198/38
f 265/199/39 268/200/39 267/201/39
f 269/202/40 272/203/40 271/204/40
f 273/205/41 276/206/41 275/207/41
f 277/208/42 280/209/42 279/210/42
f 281/211/43 284/212/43 283/213/43
f 285/214/44 288/215/44 287/216/44
f 289/217/45 292/218/45 291/219/45
f 293/220/46 296/221/46 295/222/46
f 297/223/47 300/224/47 299/225/47
f 301/226/48 304/227/48 303/228/48
f 305/229/49 308/230/49 307/231/49
f 309/232/50 312/233/50 311/234/50
f 313/235/51 316/236/51 315/237/51
f 317/238/52 320/239/52 319/240/52
f 321/241/53 324/242/53 323/243/53
f 325/244/54 328/245/54 327/246/54
f 329/247/55 332/248/55 331/249/55
f 333/250/56 336/251/56 335/252/56
f 337/253/57 340/254/57 339/255/57
f 341/256/58 344/257/58 343/258/58
f 345/259/59 348/260/59 347/261/59
f 349/262/60 352/263/60 351/264/60
f 353/265/61 356/266/61 355/267/61
f 357/268/62 360/269/62 359/270/62
f 361/271/63 364/272/63 363/273/63
f 365/274/64 368/275/64 367/276/64
f 369/277/65 372/278/65 371/279/65
f 373/280/66 376/281/66 375/282/66
f 377/283/67 380/284/67 379/285/67
f 381/286/68 384/287/68 383/288/68
f 385/289/69 388/290/69 387/291/69
f 389/292/70 392/293/70 391/294/70
f 393/295/71 396/296/71 395/297/71
f 397/298/72 400/299/72 399/300/72
f 401/301/73 404/302/73 403/303/73
f 405/304/74 408/305/74 407/306/74
f 409/307/75 412/308/75 411/309/75
f 413/310/76 416/311/76 415/312/76
f 417/313/77 420/314/77 419/315/77
f 421/316/78 424/317/78 423/318/78
f 425/319/79 428/320/79 427/321/79
f 429/322/80 432/323/80 431/324/80
f 433/325/81 436/326/81 435/327/81
f 437/328/82 440/329/82 439/330/82
f 441/331/83 444/332/83 443/333/83
f 445/334/84 448/335/84 447/336/84
f 449/337/85 452/338/85 451/339/85
f 453/340/86 456/341/86 455/342/86
f 457/343/87 460/344/87 459/345/87
f 461/346/88 464/347/88 463/348/88
f 465/349/89 468/350/89 467/351/89
f 469/352/90 472/353/90 471/354/90
f 473/355/91 476/356/91 475/357/91
f 477/358/92 480/359/92 479/360/92
f 481/361/93 484/362/93 483/363/93
f 485/364/94 488/365/94 487/366/94
f 489/367/95 492/368/95 491/369/95
f 493/370/96 496/371/96 495/372/96
f 497/373/97 500/374/97 499/375/97
f 501/376/98 504/377/98 503/378/98
f 505/379/99 508/380/99 507/381/99
f 509/382/100 512/383/100 511/384/100
f 513/385/101 516/386/101 515/387/101
f 517/388/102 520/389/102 519/390/102
f 521/391/103 524/392/103 523/393/103
f 525/394/104 528/395/104 527/396/104
f 529/397/105 532/398/105 531/399/105
f 533/400/106 536/401/106 535/402/106
f 537/403/107 540/404/107 539/405/107
f 541/406/108 544/407/108 543/408/108
f 545/409/109 548/410/109 547/411/109
f 549/412/110 552/413/110 551/414/110
f 553/415/111 556/416/111 555/417/111
f 557/418/112 560/419/112 559/420/112
f 1/1/1 2/421/1 4/2/1
f 5/4/2 6/422/2 8/5/2
f 9/7/3 10/423/3 12/8/3
f 13/10/4 14/424/4 16/11/4
f 17/13/5 18/425/5 20/14/5
f 21/16/6 22/426/6 24/17/6
f 25/19/7 26/427/7 28/20/7
f 29/22/8 30/428/8 32/23/8
f 33/25/9 34/429/9 36/26/9
f 37/28/10 38/430/10 40/29/10
f 41/31/11 42/431/11 44/32/11
f 45/34/12 46/432/12 48/35/12
f 49/37/13 50/433/13 52/38/13
f 53/40/14 54/434/14 56/41/14
f 57/43/15 58/435/15 60/44/15
f 61/46/16 62/436/16 64/47/16
f 65/49/17 66/437/17 68/50/17
f 69/52/18 70/438/18 72/53/18
f 73/55/19 74/439/19 76/56/19
f 77/58/20 78/440/20 80/59/20
f 81/61/21 82/441/21 84/62/21
f 85/64/22 86/442/22 88/65/22
f 89/67/23 90/443/23 92/68/23
f 93/70/24 94/444/24 96/71/24
f 97/73/25 98/445/25 100/74/25
f 101/76/26 102/446/26 104/77/26
f 105/79/27 106/447/27 108/80/27
f 109/82/28 110/448/28 112/83/28
f 113/85/1 114/449/1 116/86/1
f 117/88/2 118/450/2 120/89/2
f 121/91/3 122/451/3 124/92/3
f 125/94/4 126/452/4 128/95/4
f 129/97/5 130/453/5 132/98/5
f 133/100/6 134/454/6 136/101/6
f 137/103/7 138/455/7 140/104/7
f 141/106/8 142/456/8 144/107/8
f 145/109/9 146/457/9 148/110/9
f 149/112/10 150/458/10 152/113/10
f 153/115/11 154/459/11 156/116/11
f 157/118/12 158/460/12 160/119/12
f 161/121/13 162/461/13 164/122/13
f 165/124/14 166/462/14 168/125/14
f 169/127/15 170/463/15 172/128/15
f 173/130/16 174/464/16 176/131/16
f 177/133/17 178/465/17 180/134/17
f 181/136/18 182/466/18 184/137/18
f 185/139/19 186/467/19 188/140/19
f 189/142/20 190/468/20 192/143/20
f 193/145/21 194/469/21 196/146/21
f 197/148/22 198/470/22 200/149/22
f 201/151/23 202/471/23 204/152/23
f 205/154/24 206/472/24 208/155/24
f 209/157/25 210/473/25 212/158/25
f 213/160/26 214/474/26 216/161/26
f 217/163/27 218/475/27 220/164/27
f 221/166/28 222/476/28 224/167/28
f 225/169/29 226/477/29 228/170/29
f 229/172/30 230/478/30 232/173/30
f 233/175/31 234/479/31 236/176/31
f 237/178/32 238/480/32 240/179/32
f 241/181/33 242/481/33 244/182/33
f 245/184/34 246/482/34 248/185/34
f 249/187/35 250/483/35 252/188/35
f 253/190/36 254/484/36 256/191/36
f 257/193/37 258/485/37 260/194/37
f 261/196/38 262/486/38 264/197/38
f 265/199/39 266/487/39 268/200/39
f 269/202/40 270/488/40 272/203/40
f 273/205/41 274/489/41 276/206/41
f 277/208/42 278/490/42 280/209/42
f 281/211/43 282/491/43 284/212/43
f 285/214/44 286/492/44 288/215/44
f 289/217/45 290/493/45 292/218/45
f 293/220/46 294/494/46 296/221/46
f 297/223/47 298/495/47 300/224/47
f 301/226/48 302/496/48 304/227/48
f 305/229/49 306/497/49 308/230/49
f 309/232/50 310/498/50 312/233/50
f 313/235/51 314/499/51 316/236/51
f 317/238/52 318/500/52 320/239/52
f 321/241/53 322/501/53 324/242/53
f 325/244/54 326/502/54 328/245/54
f 329/247/55 330/503/55 332/248/55
f 333/250/56 334/504/56 336/251/56
f 337/253/57 338/505/57 340/254/57
f 341/256/58 342/506/58 344/257/58
f 345/259/59 346/507/59 348/260/59
f 349/262/60 350/508/60 352/263/60
f 353/265/61 354/509/61 356/266/61
f 357/268/62 358/510/62 360/269/62
f 361/271/63 362/511/63 364/272/63
f 365/274/64 366/512/64 368/275/64
f 369/277/65 370/513/65 372/278/65
f 373/280/66 374/514/66 376/281/66
f 377/283/67 378/515/67 380/284/67
f 381/286/68 382/516/68 384/287/68
f 385/289/69 386/517/69 388/290/69
f 389/292/70 390/518/70 392/293/70
f 393/295/71 394/519/71 396/296/71
f 397/298/72 398/520/72 400/299/72
f 401/301/73 402/521/73 404/302/73
f 405/304/74 406/522/74 408/305/74
f 409/307/75 410/523/75 412/308/75
f 413/310/76 414/524/76 416/311/76
f 417/313/77 418/525/77 420/314/77
f 421/316/78 422/526/78 424/317/78
f 425/319/79 426/527/79 428/320/79
f 429/322/80 430/528/80 432/323/80
f 433/325/81 434/529/81 436/326/81
f 437/328/82 438/530/82 440/329/82
f 441/331/83 442/531/83 444/332/83
f 445/334/84 446/532/84 448/335/84
f 449/337/85 450/533/85 452/338/85
f 453/340/86 454/534/86 456/341/86
f 457/343/87 458/535/87 460/344/87
f 461/346/88 462/536/88 464/347/88
f 465/349/89 466/537/89 468/350/89
f 469/352/90 470/538/90 472/353/90
f 473/355/91 474/539/91 476/356/91
f 477/358/92 478/540/92 480/359/92
f 481/361/93 482/541/93 484/362/93
f 485/364/94 486/542/94 488/365/94
f 489/367/95 490/543/95 492/368/95
f 493/370/96 494/544/96 496/371/96
f 497/373/97 498/545/97 500/374/97
f 501/376/98 502/546/98 504/377/98
f 505/379/99 506/547/99 508/380/99
f 509/382/100 510/548/100 512/383/100
f 513/385/101 514/549/101 516/386/101
f 517/388/102 518/550/102 520/389/102
f 521/391/103 522/551/103 524/392/103
f 525/394/104 526/552/104 528/395/104
f 529/397/105 530/553/105 532/398/105
f 533/400/106 534/554/106 536/401/106
f 537/403/107 538/555/107 540/404/107
f 541/406/108 542/556/108 544/407/108
f 545/409/109 546/557/109 548/410/109
f 549/412/110 550/558/110 552/413/110
f 553/415/111 554/559/111 556/416/111
f 557/418/112 558/560/112 560/419/112
