# Blender v2.79 (sub 0) OBJ File: ''
# www.blender.org
o Plane.001
v -1.909190 1.334133 0.408670
v -1.505714 1.334133 2.367549
v 0.049689 -0.335058 0.005194
v 0.453165 1.334133 1.964073
v -0.419228 1.334133 -1.854292
v 1.539652 1.334133 -2.257768
v -0.015752 -0.335058 0.104587
v 1.943127 1.334133 -0.298889
v -1.867174 1.586293 0.621496
v -2.439842 1.586294 -1.294764
v 0.049086 -0.082898 0.048829
v -0.523582 1.586293 -1.867432
v 1.898847 1.345886 -0.352347
v 2.302323 1.345886 1.606532
v -0.060032 -0.323305 0.051129
v 0.343444 1.345886 2.010008
v -0.728012 4.605332 1.186372
v -1.505714 1.334133 2.367549
v 0.049689 -0.335058 0.005194
v -0.728012 -1.937066 1.186372
v 0.761950 -1.937066 -1.076591
v 1.539651 1.334133 -2.257768
v -0.015752 -0.335059 0.104587
v 0.761950 4.605332 -1.076591
v -1.195378 -1.684905 -0.622967
v -2.439842 1.586294 -1.294764
v 0.049086 -0.082898 0.048828
v -1.195378 4.857492 -0.622968
v 1.126542 -1.949229 0.820313
v 2.307719 1.321969 1.598015
v -0.054636 -0.347222 0.042612
v 1.126542 4.593168 0.820313
v -1.517346 3.707979 -1.005650
v -2.592510 3.707980 0.592085
v 0.080388 2.100710 0.069514
v -0.994776 3.707979 1.667248
v 1.043094 3.707979 -1.506234
v 2.640828 3.707980 -0.431070
v -0.032070 2.100710 0.091500
v 1.565664 3.707979 1.166664
v -1.635386 3.950786 -0.833313
v -0.703565 3.950786 -2.518674
v 0.049975 2.343516 0.098508
v 0.981796 3.950786 -1.586853
v 1.572582 3.719297 1.100183
v 0.497418 3.719297 2.697917
v -0.025152 2.112028 0.025020
v -1.100316 3.719297 1.622754
v -1.256061 6.857828 0.330799
v -2.592510 3.707980 0.592084
v 0.080388 2.100710 0.069514
v -1.256061 0.558131 0.330799
v 1.304379 0.558131 -0.169785
v 2.640828 3.707980 -0.431070
v -0.032070 2.100710 0.091501
v 1.304379 6.857828 -0.169785
v -0.326795 0.800937 -1.210083
v -0.703565 3.950787 -2.518674
v 0.049975 2.343516 0.098508
v -0.326795 7.100634 -1.210083
v 0.245628 0.546419 1.359439
v 0.506913 3.696268 2.695888
v -0.015658 2.088998 0.022990
v 0.245627 6.846116 1.359439
v -0.324831 5.069467 -1.413150
v -1.860424 5.069467 -1.038654
v 0.049665 3.750306 0.122443
v -1.485928 5.069467 0.496938
v 1.504893 5.069467 -0.300904
v 1.879388 5.069467 1.234689
v -0.030699 3.750306 0.073591
v 0.343796 5.069467 1.609184
v -0.491720 5.268748 -1.373900
v 1.005390 5.268749 -1.880806
v 0.015186 3.949588 0.123210
v 1.512296 5.268748 -0.383696
v 0.384754 5.078755 1.572688
v -1.150838 5.078755 1.947184
v 0.010258 3.759595 0.037096
v -1.525334 5.078755 0.411591
v -0.905379 7.654693 -0.458106
v -1.860424 5.069467 -1.038654
v 0.049665 3.750306 0.122443
v -0.905380 2.484241 -0.458106
v 0.924345 2.484241 0.654140
v 1.879389 5.069467 1.234688
v -0.030700 3.750306 0.073591
v 0.924344 7.654693 0.654140
v 0.510288 2.683523 -0.878798
v 1.005390 5.268750 -1.880806
v 0.015186 3.949588 0.123210
v 0.510288 7.853974 -0.878798
v -0.563409 2.474628 0.996159
v -1.143958 5.059854 1.951203
v 0.017139 3.740694 0.041115
v -0.563409 7.645080 0.996159
v 1.156422 6.384282 -0.629370
v 0.389010 6.384283 -1.808004
v -0.022211 5.210465 0.138042
v -0.789624 6.384282 -1.040592
v 0.762502 6.384282 1.234799
v -0.416132 6.384283 2.002211
v -0.004910 5.210465 0.056165
v -1.183544 6.384282 0.823577
v 1.074237 6.561607 -0.757893
v 1.941454 6.561607 0.349372
v -0.033027 5.387792 0.109324
v 0.834189 6.561607 1.216588
v -1.140823 6.392547 0.847194
v -1.908235 6.392547 -0.331440
v 0.037811 5.218732 0.079782
v -0.729601 6.392547 -1.098852
v 0.183400 8.684669 -0.834981
v 0.389010 6.384283 -1.808004
v -0.022211 5.210466 0.138042
v 0.183399 4.083895 -0.834981
v -0.210521 4.083895 1.029188
v -0.416131 6.384283 2.002211
v -0.004910 5.210465 0.056165
v -0.210521 8.684669 1.029188
v 0.954213 4.261221 0.229348
v 1.941454 6.561608 0.349372
v -0.033027 5.387792 0.109324
v 0.954213 8.861994 0.229348
v -0.936556 4.075342 -0.118866
v -1.909579 6.375729 -0.324478
v 0.036467 5.201913 0.086744
v -0.936556 8.676115 -0.118867
v 0.783597 7.508260 0.225905
v 1.022190 7.508260 -0.698225
v -0.140532 6.711694 -0.012688
v 0.098061 7.508260 -0.936818
v -0.330205 7.508260 0.882598
v -1.254335 7.508260 0.644005
v -0.091612 6.711694 -0.041531
v -1.015741 7.508260 -0.280124
v 0.810299 7.628595 0.125883
v 0.653157 7.628595 1.067291
v -0.131108 6.832029 -0.031259
v -0.288250 7.628595 0.910149
v -1.007997 7.513868 -0.247916
v -0.769404 7.513868 -1.172046
v -0.083868 6.717304 -0.009323
v 0.154725 7.513868 -0.933452
v 0.440829 9.069329 -0.355456
v 1.022190 7.508260 -0.698225
v -0.140532 6.711695 -0.012688
v 0.440829 5.947190 -0.355456
v -0.672973 5.947190 0.301237
v -1.254334 7.508260 0.644005
v -0.091612 6.711694 -0.041531
v -0.672974 9.069329 0.301237
v 0.261025 6.067526 0.518016
v 0.653157 7.628595 1.067291
v -0.131108 6.832029 -0.031259
v 0.261025 9.189663 0.518016
v -0.430737 5.941386 -0.588168
v -0.773505 7.502456 -1.169530
v -0.087969 6.705890 -0.006807
v -0.430737 9.063523 -0.588168
v 0.685468 8.469860 0.868747
v 1.588005 8.469860 0.030079
v -0.153199 7.441601 -0.033789
v 0.749338 8.469860 -0.872456
v -0.982476 8.469860 0.807565
v -1.821143 8.469860 -0.094971
v -0.079940 7.441601 -0.031102
v -0.918607 8.469860 -0.933638
v 0.784108 8.625196 0.778587
v -0.041899 8.625196 1.692724
v -0.130028 7.596937 -0.047420
v -0.956036 8.625196 0.866717
v -0.932602 8.477100 -0.893232
v -0.030066 8.477100 -1.731899
v -0.093935 7.448842 0.009304
v 0.808601 8.477100 -0.829363
v 0.717403 10.484993 -0.001855
v 1.588005 8.469860 0.030080
v -0.153199 7.441602 -0.033789
v 0.717403 6.454728 -0.001855
v -0.950541 6.454728 -0.063036
v -1.821143 8.469860 -0.094971
v -0.079940 7.441601 -0.031102
v -0.950542 10.484993 -0.063037
v -0.085964 6.610066 0.822652
v -0.041899 8.625196 1.692724
v -0.130029 7.596937 -0.047420
v -0.085964 10.640327 0.822652
v -0.068211 6.447236 -0.861416
v -0.036276 8.462368 -1.732018
v -0.100145 7.434109 0.009185
v -0.068211 10.477498 -0.861416
v -0.073316 9.144193 0.846832
v 0.830677 9.144193 0.795457
v -0.124690 8.388507 -0.057161
v 0.779302 9.144193 -0.108536
v -0.988487 9.144193 0.030087
v -1.039862 9.144193 -0.873906
v -0.084495 8.388507 -0.021288
v -0.135869 9.144193 -0.925281
v 0.024780 9.258352 0.842065
v -0.871295 9.258352 0.972033
v -0.105187 8.502666 -0.054010
v -1.001262 9.258352 0.075958
v -0.162736 9.149513 -0.908978
v 0.741257 9.149513 -0.960353
v -0.111361 8.393828 -0.004985
v 0.792631 9.149513 -0.056360
v 0.352993 10.625149 0.369148
v 0.830677 9.144193 0.795457
v -0.124690 8.388507 -0.057161
v 0.352993 7.663237 0.369148
v -0.562178 7.663237 -0.447597
v -1.039862 9.144193 -0.873906
v -0.084495 8.388507 -0.021288
v -0.562178 10.625149 -0.447597
v -0.488241 7.777397 0.459012
v -0.871295 9.258352 0.972033
v -0.105187 8.502666 -0.054010
v -0.488241 10.739306 0.459012
v 0.311489 7.657730 -0.485649
v 0.737798 9.138686 -0.963332
v -0.114820 8.383000 -0.007965
v 0.311489 10.619640 -0.485648
v -0.488463 10.153259 0.462827
v 0.030677 10.153259 0.854050
v -0.097241 9.610733 -0.056313
v 0.421900 10.153259 0.334910
v -0.610999 10.153259 -0.409234
v -0.219776 10.153259 -0.928375
v -0.091859 9.610733 -0.018011
v 0.299364 10.153259 -0.537152
v -0.432505 10.235219 0.505723
v -0.983767 10.235219 0.161235
v -0.088016 9.692691 -0.045539
v -0.639279 10.235219 -0.390027
v 0.277081 10.157080 -0.540683
v 0.796222 10.157080 -0.149460
v -0.114142 9.614553 -0.021542
v 0.404999 10.157080 0.369680
v -0.033282 11.216478 0.398869
v 0.030677 10.153259 0.854050
v -0.097241 9.610733 -0.056313
v -0.033282 9.090041 0.398869
v -0.155818 9.090041 -0.473193
v -0.219776 10.153259 -0.928375
v -0.091859 9.610733 -0.018011
v -0.155817 11.216478 -0.473193
v -0.535892 9.172000 0.057848
v -0.983767 10.235219 0.161235
v -0.088016 9.692691 -0.045539
v -0.535892 11.298436 0.057848
v 0.340527 9.086088 -0.088738
v 0.795709 10.149307 -0.152697
v -0.114655 9.606779 -0.024779
v 0.340527 11.212524 -0.088738
vt 0.999950 0.000050
vt 0.500050 0.499950
vt 0.500050 0.000050
vt 0.499950 0.000050
vt 0.000050 0.499950
vt 0.000050 0.000050
vt 0.499950 0.500050
vt 0.000050 0.999950
vt 0.000050 0.500050
vt 0.999950 0.500050
vt 0.500050 0.999950
vt 0.500050 0.500050
vt 0.999950 0.499950
vt 0.500050 0.000050
vt 0.999950 0.000050
vt 0.499950 0.499950
vt 0.000050 0.000050
vt 0.499950 0.000050
vt 0.499950 0.999950
vt 0.000050 0.500050
vt 0.499950 0.500050
vt 0.999950 0.999950
vt 0.500050 0.500050
vt 0.999950 0.500050
vt 0.999950 0.000050
vt 0.500050 0.499950
vt 0.500050 0.000050
vt 0.499950 0.000050
vt 0.000050 0.499950
vt 0.000050 0.000050
vt 0.499950 0.500050
vt 0.000050 0.999950
vt 0.000050 0.500050
vt 0.999950 0.500050
vt 0.500050 0.999950
vt 0.500050 0.500050
vt 0.999950 0.499950
vt 0.500050 0.000050
vt 0.999950 0.000050
vt 0.499950 0.499950
vt 0.000050 0.000050
vt 0.499950 0.000050
vt 0.499950 0.999950
vt 0.000050 0.500050
vt 0.499950 0.500050
vt 0.999950 0.999950
vt 0.500050 0.500050
vt 0.999950 0.500050
vt 0.999950 0.000050
vt 0.500050 0.499950
vt 0.500050 0.000050
vt 0.499950 0.000050
vt 0.000050 0.499950
vt 0.000050 0.000050
vt 0.499950 0.500050
vt 0.000050 0.999950
vt 0.000050 0.500050
vt 0.999950 0.500050
vt 0.500050 0.999950
vt 0.500050 0.500050
vt 0.999950 0.499950
vt 0.500050 0.000050
vt 0.999950 0.000050
vt 0.499950 0.499950
vt 0.000050 0.000050
vt 0.499950 0.000050
vt 0.499950 0.999950
vt 0.000050 0.500050
vt 0.499950 0.500050
vt 0.999950 0.999950
vt 0.500050 0.500050
vt 0.999950 0.500050
vt 0.999950 0.000050
vt 0.500050 0.499950
vt 0.500050 0.000050
vt 0.499950 0.000050
vt 0.000050 0.499950
vt 0.000050 0.000050
vt 0.499950 0.500050
vt 0.000050 0.999950
vt 0.000050 0.500050
vt 0.999950 0.500050
vt 0.500050 0.999950
vt 0.500050 0.500050
vt 0.999950 0.499950
vt 0.500050 0.000050
vt 0.999950 0.000050
vt 0.499950 0.499950
vt 0.000050 0.000050
vt 0.499950 0.000050
vt 0.499950 0.999950
vt 0.000050 0.500050
vt 0.499950 0.500050
vt 0.999950 0.999950
vt 0.500050 0.500050
vt 0.999950 0.500050
vt 0.999950 0.000050
vt 0.500050 0.499950
vt 0.500050 0.000050
vt 0.499950 0.000050
vt 0.000050 0.499950
vt 0.000050 0.000050
vt 0.499950 0.500050
vt 0.000050 0.999950
vt 0.000050 0.500050
vt 0.999950 0.500050
vt 0.500050 0.999950
vt 0.500050 0.500050
vt 0.999950 0.499950
vt 0.500050 0.000050
vt 0.999950 0.000050
vt 0.499950 0.499950
vt 0.000050 0.000050
vt 0.499950 0.000050
vt 0.499950 0.999950
vt 0.000050 0.500050
vt 0.499950 0.500050
vt 0.999950 0.999950
vt 0.500050 0.500050
vt 0.999950 0.500050
vt 0.999950 0.000050
vt 0.500050 0.499950
vt 0.500050 0.000050
vt 0.499950 0.000050
vt 0.000050 0.499950
vt 0.000050 0.000050
vt 0.499950 0.500050
vt 0.000050 0.999950
vt 0.000050 0.500050
vt 0.999950 0.500050
vt 0.500050 0.999950
vt 0.500050 0.500050
vt 0.999950 0.499950
vt 0.500050 0.000050
vt 0.999950 0.000050
vt 0.499950 0.499950
vt 0.000050 0.000050
vt 0.499950 0.000050
vt 0.499950 0.999950
vt 0.000050 0.500050
vt 0.499950 0.500050
vt 0.999950 0.999950
vt 0.500050 0.500050
vt 0.999950 0.500050
vt 0.999950 0.000050
vt 0.500050 0.499950
vt 0.500050 0.000050
vt 0.499950 0.000050
vt 0.000050 0.499950
vt 0.000050 0.000050
vt 0.499950 0.500050
vt 0.000050 0.999950
vt 0.000050 0.500050
vt 0.999950 0.500050
vt 0.500050 0.999950
vt 0.500050 0.500050
vt 0.999950 0.499950
vt 0.500050 0.000050
vt 0.999950 0.000050
vt 0.499950 0.499950
vt 0.000050 0.000050
vt 0.499950 0.000050
vt 0.499950 0.999950
vt 0.000050 0.500050
vt 0.499950 0.500050
vt 0.999950 0.999950
vt 0.500050 0.500050
vt 0.999950 0.500050
vt 0.999950 0.000050
vt 0.500050 0.499950
vt 0.500050 0.000050
vt 0.499950 0.000050
vt 0.000050 0.499950
vt 0.000050 0.000050
vt 0.499950 0.500050
vt 0.000050 0.999950
vt 0.000050 0.500050
vt 0.999950 0.500050
vt 0.500050 0.999950
vt 0.500050 0.500050
vt 0.999950 0.499950
vt 0.500050 0.000050
vt 0.999950 0.000050
vt 0.499950 0.499950
vt 0.000050 0.000050
vt 0.499950 0.000050
vt 0.499950 0.999950
vt 0.000050 0.500050
vt 0.499950 0.500050
vt 0.999950 0.999950
vt 0.500050 0.500050
vt 0.999950 0.500050
vt 0.999950 0.499950
vt 0.499950 0.499950
vt 0.499950 0.999950
vt 0.999950 0.999950
vt 0.500050 0.499950
vt 0.000050 0.499950
vt 0.000050 0.999950
vt 0.500050 0.999950
vt 0.999950 0.499950
vt 0.499950 0.499950
vt 0.499950 0.999950
vt 0.999950 0.999950
vt 0.500050 0.499950
vt 0.000050 0.499950
vt 0.000050 0.999950
vt 0.500050 0.999950
vt 0.999950 0.499950
vt 0.499950 0.499950
vt 0.499950 0.999950
vt 0.999950 0.999950
vt 0.500050 0.499950
vt 0.000050 0.499950
vt 0.000050 0.999950
vt 0.500050 0.999950
vt 0.999950 0.499950
vt 0.499950 0.499950
vt 0.499950 0.999950
vt 0.999950 0.999950
vt 0.500050 0.499950
vt 0.000050 0.499950
vt 0.000050 0.999950
vt 0.500050 0.999950
vt 0.999950 0.499950
vt 0.499950 0.499950
vt 0.499950 0.999950
vt 0.999950 0.999950
vt 0.500050 0.499950
vt 0.000050 0.499950
vt 0.000050 0.999950
vt 0.500050 0.999950
vt 0.999950 0.499950
vt 0.499950 0.499950
vt 0.499950 0.999950
vt 0.999950 0.999950
vt 0.500050 0.499950
vt 0.000050 0.499950
vt 0.000050 0.999950
vt 0.500050 0.999950
vt 0.999950 0.499950
vt 0.499950 0.499950
vt 0.499950 0.999950
vt 0.999950 0.999950
vt 0.500050 0.499950
vt 0.000050 0.499950
vt 0.000050 0.999950
vt 0.500050 0.999950
vt 0.999950 0.499950
vt 0.499950 0.499950
vt 0.499950 0.999950
vt 0.999950 0.999950
vt 0.500050 0.499950
vt 0.000050 0.499950
vt 0.000050 0.999950
vt 0.500050 0.999950
vn 0.4196 0.6464 -0.6373
vn 0.4196 -0.6464 -0.6373
vn -0.6714 -0.6464 -0.3624
vn 0.6373 -0.6464 0.4196
vn 0.8352 0.0000 0.5499
vn 0.4750 -0.0000 -0.8800
vn -0.5499 -0.0000 0.8352
vn 0.7488 0.6464 -0.1464
vn 0.7488 -0.6464 -0.1464
vn -0.2111 -0.6464 -0.7332
vn 0.1464 -0.6464 0.7488
vn 0.1919 0.0000 0.9814
vn 0.9610 -0.0000 -0.2767
vn -0.9814 -0.0000 0.1919
vn 0.6520 0.6464 0.3963
vn 0.6520 -0.6464 0.3963
vn 0.3380 -0.6464 -0.6840
vn -0.3963 -0.6464 0.6520
vn -0.5194 0.0000 0.8545
vn 0.8965 -0.0000 0.4430
vn -0.8545 -0.0000 -0.5194
vn -0.1577 0.6464 0.7465
vn -0.1577 -0.6464 0.7465
vn 0.7574 -0.6464 0.0921
vn -0.7465 -0.6464 -0.1577
vn -0.9784 0.0000 -0.2067
vn -0.1207 -0.0000 0.9927
vn 0.2067 -0.0000 -0.9784
vn -0.6572 0.6464 0.3875
vn -0.6572 -0.6464 0.3875
vn 0.4433 -0.6464 0.6210
vn -0.3875 -0.6464 -0.6572
vn -0.5079 0.0000 -0.8614
vn -0.8139 -0.0000 0.5810
vn 0.8614 -0.0000 -0.5079
vn -0.7625 0.6464 -0.0280
vn -0.7625 -0.6464 -0.0280
vn 0.0386 -0.6464 0.7620
vn 0.0280 -0.6464 -0.7625
vn 0.0367 0.0000 -0.9993
vn -0.9987 -0.0000 0.0506
vn 0.9993 -0.0000 0.0367
vn -0.5692 0.6464 -0.5080
vn -0.5692 -0.6464 -0.5080
vn -0.4565 -0.6464 0.6114
vn 0.5080 -0.6464 -0.5692
vn 0.6658 0.0000 -0.7461
vn -0.8013 -0.0000 -0.5983
vn 0.7461 -0.0000 0.6658
vn -0.1062 0.6464 -0.7556
vn -0.1062 -0.6464 -0.7556
vn -0.7434 -0.6464 0.1716
vn 0.7556 -0.6464 -0.1062
vn 0.9903 0.0000 -0.1391
vn -0.2249 -0.0000 -0.9744
vn 0.1391 -0.0000 0.9903
vn 0.0000 1.0000 -0.0000
vn 0.0000 -1.0000 0.0000
s off
f 1/1/1 4/2/1 3/3/1
f 5/4/2 8/5/2 7/6/2
f 9/7/3 12/8/3 11/9/3
f 13/10/4 16/11/4 15/12/4
f 18/13/5 19/14/5 17/15/5
f 22/16/5 23/17/5 21/18/5
f 26/19/6 27/20/6 25/21/6
f 30/22/7 31/23/7 29/24/7
f 33/25/8 36/26/8 35/27/8
f 37/28/9 40/29/9 39/30/9
f 41/31/10 44/32/10 43/33/10
f 45/34/11 48/35/11 47/36/11
f 50/37/12 51/38/12 49/39/12
f 54/40/12 55/41/12 53/42/12
f 58/43/13 59/44/13 57/45/13
f 62/46/14 63/47/14 61/48/14
f 65/49/15 68/50/15 67/51/15
f 69/52/16 72/53/16 71/54/16
f 73/55/17 76/56/17 75/57/17
f 77/58/18 80/59/18 79/60/18
f 82/61/19 83/62/19 81/63/19
f 86/64/19 87/65/19 85/66/19
f 90/67/20 91/68/20 89/69/20
f 94/70/21 95/71/21 93/72/21
f 97/73/22 100/74/22 99/75/22
f 101/76/23 104/77/23 103/78/23
f 105/79/24 108/80/24 107/81/24
f 109/82/25 112/83/25 111/84/25
f 114/85/26 115/86/26 113/87/26
f 118/88/26 119/89/26 117/90/26
f 122/91/27 123/92/27 121/93/27
f 126/94/28 127/95/28 125/96/28
f 129/97/29 132/98/29 131/99/29
f 133/100/30 136/101/30 135/102/30
f 137/103/31 140/104/31 139/105/31
f 141/106/32 144/107/32 143/108/32
f 146/109/33 147/110/33 145/111/33
f 150/112/33 151/113/33 149/114/33
f 154/115/34 155/116/34 153/117/34
f 158/118/35 159/119/35 157/120/35
f 161/121/36 164/122/36 163/123/36
f 165/124/37 168/125/37 167/126/37
f 169/127/38 172/128/38 171/129/38
f 173/130/39 176/131/39 175/132/39
f 178/133/40 179/134/40 177/135/40
f 182/136/40 183/137/40 181/138/40
f 186/139/41 187/140/41 185/141/41
f 190/142/42 191/143/42 189/144/42
f 193/145/43 196/146/43 195/147/43
f 197/148/44 200/149/44 199/150/44
f 201/151/45 204/152/45 203/153/45
f 205/154/46 208/155/46 207/156/46
f 210/157/47 211/158/47 209/159/47
f 214/160/47 215/161/47 213/162/47
f 218/163/48 219/164/48 217/165/48
f 222/166/49 223/167/49 221/168/49
f 225/169/50 228/170/50 227/171/50
f 229/172/51 232/173/51 231/174/51
f 233/175/52 236/176/52 235/177/52
f 237/178/53 240/179/53 239/180/53
f 242/181/54 243/182/54 241/183/54
f 246/184/54 247/185/54 245/186/54
f 250/187/55 251/188/55 249/189/55
f 254/190/56 255/191/56 253/192/56
f 1/1/57 2/193/57 4/2/57
f 5/4/58 6/194/58 8/5/58
f 9/7/58 10/195/58 12/8/58
f 13/10/58 14/196/58 16/11/58
f 18/13/5 20/197/5 19/14/5
f 22/16/5 24/198/5 23/17/5
f 26/19/6 28/199/6 27/20/6
f 30/22/7 32/200/7 31/23/7
f 33/25/57 34/201/57 36/26/57
f 37/28/58 38/202/58 40/29/58
f 41/31/58 42/203/58 44/32/58
f 45/34/58 46/204/58 48/35/58
f 50/37/12 52/205/12 51/38/12
f 54/40/12 56/206/12 55/41/12
f 58/43/13 60/207/13 59/44/13
f 62/46/14 64/208/14 63/47/14
f 65/49/57 66/209/57 68/50/57
f 69/52/58 70/210/58 72/53/58
f 73/55/58 74/211/58 76/56/58
f 77/58/58 78/212/58 80/59/58
f 82/61/19 84/213/19 83/62/19
f 86/64/19 88/214/19 87/65/19
f 90/67/20 92/215/20 91/68/20
f 94/70/21 96/216/21 95/71/21
f 97/73/57 98/217/57 100/74/57
f 101/76/58 102/218/58 104/77/58
f 105/79/58 106/219/58 108/80/58
f 109/82/58 110/220/58 112/83/58
f 114/85/26 116/221/26 115/86/26
f 118/88/26 120/222/26 119/89/26
f 122/91/27 124/223/27 123/92/27
f 126/94/28 128/224/28 127/95/28
f 129/97/57 130/225/57 132/98/57
f 133/100/58 134/226/58 136/101/58
f 137/103/58 138/227/58 140/104/58
f 141/106/58 142/228/58 144/107/58
f 146/109/33 148/229/33 147/110/33
f 150/112/33 152/230/33 151/113/33
f 154/115/34 156/231/34 155/116/34
f 158/118/35 160/232/35 159/119/35
f 161/121/57 162/233/57 164/122/57
f 165/124/58 166/234/58 168/125/58
f 169/127/58 170/235/58 172/128/58
f 173/130/58 174/236/58 176/131/58
f 178/133/40 180/237/40 179/134/40
f 182/136/40 184/238/40 183/137/40
f 186/139/41 188/239/41 187/140/41
f 190/142/42 192/240/42 191/143/42
f 193/145/57 194/241/57 196/146/57
f 197/148/58 198/242/58 200/149/58
f 201/151/58 202/243/58 204/152/58
f 205/154/58 206/244/58 208/155/58
f 210/157/47 212/245/47 211/158/47
f 214/160/47 216/246/47 215/161/47
f 218/163/48 220/247/48 219/164/48
f 222/166/49 224/248/49 223/167/49
f 225/169/57 226/249/57 228/170/57
f 229/172/58 230/250/58 232/173/58
f 233/175/58 234/251/58 236/176/58
f 237/178/58 238/252/58 240/179/58
f 242/181/54 244/253/54 243/182/54
f 246/184/54 248/254/54 247/185/54
f 250/187/55 252/255/55 251/188/55
f 254/190/56 256/256/56 255/191/56
