# Blender v2.79 (sub 0) OBJ File: ''
# www.blender.org
o Cylinder_Mesh
v -0.000027 0.292475 -4.959865
v 0.967589 -0.508429 -4.864563
v -0.000027 -0.508429 -4.959865
v 0.967589 0.292475 -4.864563
v 1.898015 -0.508429 -4.582321
v 0.967589 -0.508429 -4.864563
v 1.898015 0.292475 -4.582321
v 2.755505 -0.508429 -4.123983
v 1.898015 -0.508429 -4.582321
v 2.755505 0.292475 -4.123983
v 3.507098 -0.508431 -3.507166
v 2.755505 -0.508429 -4.123983
v 3.507098 0.292473 -3.507166
v 4.123916 -0.508431 -2.755572
v 3.507098 -0.508431 -3.507166
v 4.123916 0.292473 -2.755572
v 4.582253 -0.508431 -1.898083
v 4.123916 -0.508431 -2.755572
v 4.582253 0.292473 -1.898083
v 4.864497 -0.508431 -0.967653
v 4.582253 -0.508431 -1.898083
v 4.864497 0.292473 -0.967653
v 4.959797 -0.508431 -0.000039
v 4.864497 -0.508431 -0.967653
v 4.959797 0.292472 -0.000039
v 4.864497 -0.508432 0.967575
v 4.959797 -0.508431 -0.000039
v 4.864497 0.292472 0.967575
v 4.582253 -0.508432 1.898004
v 4.864497 -0.508432 0.967575
v 4.582253 0.292472 1.898004
v 4.123916 -0.508432 2.755493
v 4.582253 -0.508432 1.898004
v 4.123916 0.292472 2.755493
v 3.507098 -0.508432 3.507087
v 4.123916 -0.508432 2.755493
v 3.507098 0.292472 3.507087
v 2.755505 -0.508432 4.123905
v 3.507098 -0.508432 3.507087
v 2.755505 0.292470 4.123905
v 1.898015 -0.508434 4.582242
v 2.755505 -0.508432 4.123905
v 1.898015 0.292470 4.582242
v 0.967589 -0.508434 4.864484
v 1.898015 -0.508434 4.582242
v 0.967589 0.292470 4.864484
v -0.000027 -0.508434 4.959786
v 0.967589 -0.508434 4.864484
v -0.000027 0.292470 4.959786
v -0.967643 -0.508434 4.864484
v -0.000027 -0.508434 4.959786
v -0.967643 0.292470 4.864484
v -1.898070 -0.508434 4.582242
v -0.967643 -0.508434 4.864484
v -1.898070 0.292470 4.582242
v -2.755560 -0.508432 4.123905
v -1.898070 -0.508434 4.582242
v -2.755560 0.292470 4.123905
v -3.507153 -0.508432 3.507087
v -2.755560 -0.508432 4.123905
v -3.507153 0.292472 3.507087
v -4.123973 -0.508432 2.755493
v -3.507153 -0.508432 3.507087
v -4.123973 0.292472 2.755493
v -4.582310 -0.508432 1.898004
v -4.123973 -0.508432 2.755493
v -4.582310 0.292472 1.898004
v -4.864552 -0.508432 0.967575
v -4.582310 -0.508432 1.898004
v -4.864552 0.292472 0.967575
v -4.959852 -0.508431 -0.000039
v -4.864552 -0.508432 0.967575
v -4.959852 0.292472 -0.000039
v -4.864552 -0.508431 -0.967653
v -4.959852 -0.508431 -0.000039
v -4.864552 0.292473 -0.967653
v -4.582310 -0.508431 -1.898083
v -4.864552 -0.508431 -0.967653
v -4.582310 0.292473 -1.898083
v -4.123973 -0.508431 -2.755572
v -4.582310 -0.508431 -1.898083
v -4.123973 0.292473 -2.755572
v -3.507153 -0.508431 -3.507166
v -4.123973 -0.508431 -2.755572
v -3.507153 0.292473 -3.507166
v -2.755560 -0.508429 -4.123983
v -3.507153 -0.508431 -3.507166
v -2.755560 0.292475 -4.123983
v -1.898070 -0.508429 -4.582321
v -2.755560 -0.508429 -4.123983
v -0.967643 0.292470 4.864484
v -1.655654 0.625503 3.996999
v -1.898070 0.292470 4.582242
v -1.898070 0.292475 -4.582321
v -0.967643 -0.508429 -4.864563
v -1.898070 -0.508429 -4.582321
v -0.967643 0.292475 -4.864563
v -0.000027 -0.508429 -4.959865
v -0.967643 -0.508429 -4.864563
v -0.000027 -0.508429 -4.959865
v -0.817135 -0.508429 -4.107925
v -0.967643 -0.508429 -4.864563
v 4.326334 0.625504 -0.000039
v 3.877147 1.288469 -0.771257
v 3.953107 1.288469 -0.000039
v -4.582310 0.292473 -1.898083
v -3.597267 0.625504 -2.403637
v -4.123973 0.292473 -2.755572
v 4.123916 0.292473 -2.755572
v 3.059171 0.625504 -3.059239
v 3.597213 0.625504 -2.403637
v 2.755505 0.292470 4.123905
v 1.655599 0.625503 3.996999
v 1.898015 0.292470 4.582242
v -4.582310 0.292472 1.898004
v -4.243261 0.625504 0.843992
v -4.864552 0.292472 0.967575
v -0.000027 0.292475 -4.959865
v 0.844005 0.625506 -4.243272
v 0.967589 0.292475 -4.864563
v -0.000027 0.292475 -4.959865
v -0.844059 0.625506 -4.243272
v -0.000027 0.625506 -4.326401
v 4.864497 0.292472 0.967575
v 3.997012 0.625503 1.655588
v 4.582253 0.292472 1.898004
v -1.898070 0.292470 4.582242
v -2.403625 0.625503 3.597199
v -2.755560 0.292470 4.123905
v -4.123973 0.292473 -2.755572
v -3.059229 0.625504 -3.059239
v -3.507153 0.292473 -3.507166
v 4.123916 0.292473 -2.755572
v 3.997012 0.625504 -1.655666
v 4.582253 0.292473 -1.898083
v 1.898015 0.292470 4.582242
v 0.844005 0.625501 4.243194
v 0.967589 0.292470 4.864484
v -4.864552 0.292472 0.967575
v -4.326391 0.625504 -0.000039
v -4.959852 0.292472 -0.000039
v 1.898015 0.292475 -4.582321
v 0.844005 0.625506 -4.243272
v 1.655599 0.625506 -3.997077
v 4.582253 0.292472 1.898004
v 3.597213 0.625503 2.403559
v 4.123916 0.292472 2.755493
v -2.755560 0.292470 4.123905
v -3.059229 0.625503 3.059160
v -3.507153 0.292472 3.507087
v -2.755560 0.292475 -4.123983
v -3.059229 0.625504 -3.059239
v -2.403625 0.625504 -3.597278
v 4.582253 0.292473 -1.898083
v 4.243206 0.625504 -0.844070
v 4.864497 0.292473 -0.967653
v -0.000027 0.292470 4.959786
v 0.844005 0.625501 4.243194
v -0.000027 0.625501 4.326322
v -4.959852 0.292472 -0.000039
v -4.243261 0.625504 -0.844070
v -4.864552 0.292473 -0.967653
v 1.898015 0.292475 -4.582321
v 2.403570 0.625504 -3.597278
v 2.755505 0.292475 -4.123983
v 4.123916 0.292472 2.755493
v 3.059171 0.625503 3.059160
v 3.507098 0.292472 3.507087
v -4.123973 0.292472 2.755493
v -3.059229 0.625503 3.059160
v -3.597267 0.625503 2.403559
v -2.755560 0.292475 -4.123983
v -1.655654 0.625506 -3.997077
v -1.898070 0.292475 -4.582321
v 4.959797 0.292472 -0.000039
v 4.243206 0.625504 -0.844070
v 4.326334 0.625504 -0.000039
v -0.000027 0.292470 4.959786
v -0.844059 0.625501 4.243194
v -0.967643 0.292470 4.864484
v -4.864552 0.292473 -0.967653
v -3.997064 0.625504 -1.655666
v -4.582310 0.292473 -1.898083
v 2.755505 0.292475 -4.123983
v 3.059171 0.625504 -3.059239
v 3.507098 0.292473 -3.507166
v 2.755505 0.292470 4.123905
v 3.059171 0.625503 3.059160
v 2.403570 0.625503 3.597199
v -4.123973 0.292472 2.755493
v -3.997064 0.625503 1.655588
v -4.582310 0.292472 1.898004
v -1.898070 0.292475 -4.582321
v -0.844059 0.625506 -4.243272
v -0.967643 0.292475 -4.864563
v 4.959797 0.292472 -0.000039
v 4.243206 0.625504 0.843992
v 4.864497 0.292472 0.967575
v -3.877204 1.288469 0.771179
v -3.656865 1.171286 -0.000039
v -3.953161 1.288469 -0.000039
v -3.597267 0.625503 2.403559
v -3.652246 1.288469 1.512759
v -3.997064 0.625503 1.655588
v 4.326334 0.625504 -0.000039
v 3.877147 1.288469 0.771179
v 4.243206 0.625504 0.843992
v -3.997064 0.625503 1.655588
v -3.877204 1.288469 0.771179
v -4.243261 0.625504 0.843992
v 3.997012 0.625503 1.655588
v 3.877147 1.288469 0.771179
v 3.652191 1.288469 1.512759
v -4.326391 0.625504 -0.000039
v -3.877204 1.288469 0.771179
v -3.953161 1.288469 -0.000039
v 3.997012 0.625503 1.655588
v 3.286881 1.288468 2.196204
v 3.597213 0.625503 2.403559
v -4.326391 0.625504 -0.000039
v -3.877204 1.288469 -0.771257
v -4.243261 0.625504 -0.844070
v 3.597213 0.625503 2.403559
v 2.795259 1.288468 2.795248
v 3.059171 0.625503 3.059160
v -3.997064 0.625504 -1.655666
v -3.877204 1.288469 -0.771257
v -3.652246 1.288469 -1.512837
v 3.059171 0.625503 3.059160
v 2.196218 1.288468 3.286870
v 2.403570 0.625503 3.597199
v -3.997064 0.625504 -1.655666
v -3.286936 1.288469 -2.196281
v -3.597267 0.625504 -2.403637
v 2.403570 0.625503 3.597199
v 1.512769 1.288468 3.652180
v 1.655599 0.625503 3.996999
v -0.000027 0.625506 -4.326401
v 0.771190 1.288469 -3.877213
v 0.844005 0.625506 -4.243272
v -3.597267 0.625504 -2.403637
v -2.795314 1.288469 -2.795326
v -3.059229 0.625504 -3.059239
v 1.655599 0.625503 3.996999
v 0.771190 1.288468 3.877136
v 0.844005 0.625501 4.243194
v 1.655599 0.625506 -3.997077
v 0.771190 1.288469 -3.877213
v 1.512769 1.288469 -3.652258
v -3.059229 0.625504 -3.059239
v -2.196273 1.288469 -3.286948
v -2.403625 0.625504 -3.597278
v -0.000027 0.625501 4.326322
v 0.771190 1.288468 3.877136
v -0.000027 1.288468 3.953094
v 1.655599 0.625506 -3.997077
v 2.196218 1.288469 -3.286948
v 2.403570 0.625504 -3.597278
v -2.403625 0.625504 -3.597278
v -1.512824 1.288469 -3.652258
v -1.655654 0.625506 -3.997077
v -0.000027 0.625501 4.326322
v -0.771245 1.288468 3.877136
v -0.844059 0.625501 4.243194
v 2.403570 0.625504 -3.597278
v 2.795259 1.288469 -2.795326
v 3.059171 0.625504 -3.059239
v -1.655654 0.625506 -3.997077
v -0.771245 1.288469 -3.877213
v -0.844059 0.625506 -4.243272
v -1.655654 0.625503 3.996999
v -0.771245 1.288468 3.877136
v -1.512824 1.288468 3.652180
v 3.059171 0.625504 -3.059239
v 3.286881 1.288469 -2.196281
v 3.597213 0.625504 -2.403637
v -0.000027 0.625506 -4.326401
v -0.771245 1.288469 -3.877213
v -0.000027 1.288469 -3.953172
v -1.655654 0.625503 3.996999
v -2.196273 1.288468 3.286870
v -2.403625 0.625503 3.597199
v 3.597213 0.625504 -2.403637
v 3.652191 1.288469 -1.512837
v 3.997012 0.625504 -1.655666
v -2.403625 0.625503 3.597199
v -2.795314 1.288468 2.795248
v -3.059229 0.625503 3.059160
v 3.997012 0.625504 -1.655666
v 3.877147 1.288469 -0.771257
v 4.243206 0.625504 -0.844070
v -3.059229 0.625503 3.059160
v -3.286936 1.288468 2.196204
v -3.597267 0.625503 2.403559
v -1.399438 1.171285 3.378439
v 3.378451 1.171285 1.399372
v 1.399383 1.171286 -3.378517
v 3.652191 1.288469 1.512759
v 3.040523 1.171285 2.031592
v 3.286881 1.288468 2.196204
v -3.953161 1.288469 -0.000039
v -3.586599 1.171286 -0.713453
v -3.877204 1.288469 -0.771257
v 2.795259 1.288468 2.795248
v 3.040523 1.171285 2.031592
v 2.585745 1.171285 2.585736
v -3.877204 1.288469 -0.771257
v -3.378506 1.171286 -1.399450
v -3.652246 1.288469 -1.512837
v 2.795259 1.288468 2.795248
v 2.031603 1.171285 3.040511
v 2.196218 1.288468 3.286870
v -3.652246 1.288469 -1.512837
v -3.040576 1.171286 -2.031670
v -3.286936 1.288469 -2.196281
v 1.512769 1.288468 3.652180
v 2.031603 1.171285 3.040511
v 1.399383 1.171285 3.378439
v -0.000027 1.288469 -3.953172
v 0.713386 1.171286 -3.586613
v 0.771190 1.288469 -3.877213
v -2.795314 1.288469 -2.795326
v -3.040576 1.171286 -2.031670
v -2.585800 1.171286 -2.585814
v 0.771190 1.288468 3.877136
v 1.399383 1.171285 3.378439
v 0.713386 1.171285 3.586535
v 0.771190 1.288469 -3.877213
v 1.399383 1.171286 -3.378517
v 1.512769 1.288469 -3.652258
v -2.795314 1.288469 -2.795326
v -2.031658 1.171286 -3.040589
v -2.196273 1.288469 -3.286948
v 0.771190 1.288468 3.877136
v -0.000027 1.171285 3.656799
v -0.000027 1.288468 3.953094
v 1.512769 1.288469 -3.652258
v 2.031603 1.171286 -3.040589
v 2.196218 1.288469 -3.286948
v -1.512824 1.288469 -3.652258
v -2.031658 1.171286 -3.040589
v -1.399438 1.171286 -3.378517
v -0.000027 1.288468 3.953094
v -0.713440 1.171285 3.586535
v -0.771245 1.288468 3.877136
v 2.795259 1.288469 -2.795326
v 2.031603 1.171286 -3.040589
v 2.585745 1.171286 -2.585814
v -1.512824 1.288469 -3.652258
v -0.713440 1.171286 -3.586613
v -0.771245 1.288469 -3.877213
v -0.771245 1.288468 3.877136
v -1.399438 1.171285 3.378439
v -1.512824 1.288468 3.652180
v 2.795259 1.288469 -2.795326
v 3.040523 1.171286 -2.031670
v 3.286881 1.288469 -2.196281
v -0.771245 1.288469 -3.877213
v -0.000027 1.171286 -3.656877
v -0.000027 1.288469 -3.953172
v -1.512824 1.288468 3.652180
v -2.031658 1.171285 3.040511
v -2.196273 1.288468 3.286870
v 3.652191 1.288469 -1.512837
v 3.040523 1.171286 -2.031670
v 3.378451 1.171286 -1.399450
v -2.795314 1.288468 2.795248
v -2.031658 1.171285 3.040511
v -2.585800 1.171285 2.585736
v 3.652191 1.288469 -1.512837
v 3.586547 1.171286 -0.713453
v 3.877147 1.288469 -0.771257
v -2.795314 1.288468 2.795248
v -3.040576 1.171285 2.031592
v -3.286936 1.288468 2.196204
v 3.877147 1.288469 -0.771257
v 3.656810 1.171286 -0.000039
v 3.953107 1.288469 -0.000039
v -3.652246 1.288469 1.512759
v -3.040576 1.171285 2.031592
v -3.378506 1.171285 1.399372
v 3.953107 1.288469 -0.000039
v 3.586547 1.171286 0.713375
v 3.877147 1.288469 0.771179
v -3.652246 1.288469 1.512759
v -3.586599 1.171286 0.713375
v -3.877204 1.288469 0.771179
v 3.652191 1.288469 1.512759
v 3.586547 1.171286 0.713375
v 3.378451 1.171285 1.399372
v 4.188337 -0.508431 -0.000039
v 3.661423 -0.276484 -0.728347
v 4.107859 -0.508431 -0.817149
v 4.582253 -0.508432 1.898004
v 4.107859 -0.508432 0.817070
v 4.864497 -0.508432 0.967575
v -1.898070 -0.508434 4.582242
v -2.326958 -0.508432 3.482457
v -1.602847 -0.508432 3.869504
v -4.123973 -0.508431 -2.755572
v -2.961645 -0.508431 -2.961659
v -3.482522 -0.508431 -2.326970
v 4.582253 -0.508431 -1.898083
v 3.482470 -0.508431 -2.326970
v 4.123916 -0.508431 -2.755572
v 1.898015 -0.508434 4.582242
v 0.817080 -0.508432 4.107846
v 1.602792 -0.508432 3.869504
v -4.959852 -0.508431 -0.000039
v -4.107911 -0.508432 0.817070
v -4.864552 -0.508432 0.967575
v 1.898015 -0.508429 -4.582321
v 0.817080 -0.508429 -4.107925
v 0.967589 -0.508429 -4.864563
v 4.582253 -0.508432 1.898004
v 3.482470 -0.508432 2.326891
v 3.869517 -0.508432 1.602778
v -2.755560 -0.508432 4.123905
v -2.961645 -0.508432 2.961581
v -2.326958 -0.508432 3.482457
v -2.755560 -0.508429 -4.123983
v -2.961645 -0.508431 -2.961659
v -3.507153 -0.508431 -3.507166
v 4.582253 -0.508431 -1.898083
v 4.107859 -0.508431 -0.817149
v 3.869517 -0.508431 -1.602857
v -0.000027 -0.508434 4.959786
v 0.817080 -0.508432 4.107846
v 0.967589 -0.508434 4.864484
v -4.959852 -0.508431 -0.000039
v -4.107911 -0.508431 -0.817149
v -4.188389 -0.508431 -0.000039
v 1.898015 -0.508429 -4.582321
v 2.326903 -0.508431 -3.482536
v 1.602792 -0.508431 -3.869582
v 4.123916 -0.508432 2.755493
v 2.961593 -0.508432 2.961581
v 3.482470 -0.508432 2.326891
v -4.123973 -0.508432 2.755493
v -2.961645 -0.508432 2.961581
v -3.507153 -0.508432 3.507087
v -1.898070 -0.508429 -4.582321
v -2.326958 -0.508431 -3.482536
v -2.755560 -0.508429 -4.123983
v 4.959797 -0.508431 -0.000039
v 4.107859 -0.508431 -0.817149
v 4.864497 -0.508431 -0.967653
v -0.000027 -0.508434 4.959786
v -0.817135 -0.508432 4.107846
v -0.000027 -0.508432 4.188324
v -4.582310 -0.508431 -1.898083
v -4.107911 -0.508431 -0.817149
v -4.864552 -0.508431 -0.967653
v 2.755505 -0.508429 -4.123983
v 2.961593 -0.508431 -2.961659
v 2.326903 -0.508431 -3.482536
v 2.755505 -0.508432 4.123905
v 2.961593 -0.508432 2.961581
v 3.507098 -0.508432 3.507087
v -4.582310 -0.508432 1.898004
v -3.482522 -0.508432 2.326891
v -4.123973 -0.508432 2.755493
v -1.898070 -0.508429 -4.582321
v -0.817135 -0.508429 -4.107925
v -1.602847 -0.508431 -3.869582
v 4.959797 -0.508431 -0.000039
v 4.107859 -0.508432 0.817070
v 4.188337 -0.508431 -0.000039
v -1.898070 -0.508434 4.582242
v -0.817135 -0.508432 4.107846
v -0.967643 -0.508434 4.864484
v -4.582310 -0.508431 -1.898083
v -3.482522 -0.508431 -2.326970
v -3.869571 -0.508431 -1.602857
v 4.123916 -0.508431 -2.755572
v 2.961593 -0.508431 -2.961659
v 3.507098 -0.508431 -3.507166
v 1.898015 -0.508434 4.582242
v 2.326903 -0.508432 3.482457
v 2.755505 -0.508432 4.123905
v -4.582310 -0.508432 1.898004
v -4.107911 -0.508432 0.817070
v -3.869571 -0.508432 1.602778
v -0.000027 -0.508429 -4.959865
v 0.817080 -0.508429 -4.107925
v -0.000027 -0.508429 -4.188404
v 0.728279 -0.276485 3.661410
v -3.661478 -0.276484 0.728268
v -0.728333 -0.276483 -3.661489
v -3.869571 -0.508432 1.602778
v -3.104056 -0.276484 2.074006
v -3.482522 -0.508432 2.326891
v 4.188337 -0.508431 -0.000039
v 3.661423 -0.276484 0.728268
v 3.733153 -0.276484 -0.000039
v -4.107911 -0.508432 0.817070
v -3.449037 -0.276484 1.428587
v -3.869571 -0.508432 1.602778
v 3.869517 -0.508432 1.602778
v 3.661423 -0.276484 0.728268
v 4.107859 -0.508432 0.817070
v -4.188389 -0.508431 -0.000039
v -3.661478 -0.276484 0.728268
v -4.107911 -0.508432 0.817070
v 3.869517 -0.508432 1.602778
v 3.103999 -0.276484 2.074006
v 3.448982 -0.276484 1.428587
v -4.188389 -0.508431 -0.000039
v -3.661478 -0.276484 -0.728347
v -3.733210 -0.276484 -0.000039
v 3.482470 -0.508432 2.326891
v 2.639728 -0.276485 2.639719
v 3.103999 -0.276484 2.074006
v -3.869571 -0.508431 -1.602857
v -3.661478 -0.276484 -0.728347
v -4.107911 -0.508431 -0.817149
v 2.326903 -0.508432 3.482457
v 2.639728 -0.276485 2.639719
v 2.961593 -0.508432 2.961581
v -3.869571 -0.508431 -1.602857
v -3.104056 -0.276484 -2.074084
v -3.449037 -0.276484 -1.428665
v 1.602792 -0.508432 3.869504
v 2.074018 -0.276485 3.103987
v 2.326903 -0.508432 3.482457
v -0.000027 -0.508429 -4.188404
v 0.728279 -0.276483 -3.661489
v -0.000027 -0.276483 -3.733220
v -3.482522 -0.508431 -2.326970
v -2.639783 -0.276484 -2.639797
v -3.104056 -0.276484 -2.074084
v 1.602792 -0.508432 3.869504
v 0.728279 -0.276485 3.661410
v 1.428597 -0.276485 3.448970
v 1.602792 -0.508431 -3.869582
v 0.728279 -0.276483 -3.661489
v 0.817080 -0.508429 -4.107925
v -2.326958 -0.508431 -3.482536
v -2.639783 -0.276484 -2.639797
v -2.961645 -0.508431 -2.961659
v -0.000027 -0.508432 4.188324
v 0.728279 -0.276485 3.661410
v 0.817080 -0.508432 4.107846
v 1.602792 -0.508431 -3.869582
v 2.074018 -0.276483 -3.104066
v 1.428597 -0.276483 -3.449049
v -1.602847 -0.508431 -3.869582
v -2.074073 -0.276483 -3.104066
v -2.326958 -0.508431 -3.482536
v -0.000027 -0.508432 4.188324
v -0.728333 -0.276485 3.661410
v -0.000027 -0.276485 3.733141
v 2.326903 -0.508431 -3.482536
v 2.639728 -0.276484 -2.639797
v 2.074018 -0.276483 -3.104066
v -0.817135 -0.508429 -4.107925
v -1.428652 -0.276483 -3.449049
v -1.602847 -0.508431 -3.869582
v -1.602847 -0.508432 3.869504
v -0.728333 -0.276485 3.661410
v -0.817135 -0.508432 4.107846
v 3.482470 -0.508431 -2.326970
v 2.639728 -0.276484 -2.639797
v 2.961593 -0.508431 -2.961659
v -0.000027 -0.508429 -4.188404
v -0.728333 -0.276483 -3.661489
v -0.817135 -0.508429 -4.107925
v -1.602847 -0.508432 3.869504
v -2.074073 -0.276485 3.103987
v -1.428652 -0.276485 3.448970
v 3.869517 -0.508431 -1.602857
v 3.103999 -0.276484 -2.074084
v 3.482470 -0.508431 -2.326970
v -2.326958 -0.508432 3.482457
v -2.639783 -0.276485 2.639719
v -2.074073 -0.276485 3.103987
v 4.107859 -0.508431 -0.817149
v 3.448982 -0.276484 -1.428665
v 3.869517 -0.508431 -1.602857
v -3.482522 -0.508432 2.326891
v -2.639783 -0.276485 2.639719
v -2.961645 -0.508432 2.961581
v -0.000027 0.292475 -4.959865
v 0.967589 0.292475 -4.864563
v 0.967589 -0.508429 -4.864563
v 0.967589 0.292475 -4.864563
v 1.898015 0.292475 -4.582321
v 1.898015 -0.508429 -4.582321
v 1.898015 0.292475 -4.582321
v 2.755505 0.292475 -4.123983
v 2.755505 -0.508429 -4.123983
v 2.755505 0.292475 -4.123983
v 3.507098 0.292473 -3.507166
v 3.507098 -0.508431 -3.507166
v 3.507098 0.292473 -3.507166
v 4.123916 0.292473 -2.755572
v 4.123916 -0.508431 -2.755572
v 4.123916 0.292473 -2.755572
v 4.582253 0.292473 -1.898083
v 4.582253 -0.508431 -1.898083
v 4.582253 0.292473 -1.898083
v 4.864497 0.292473 -0.967653
v 4.864497 -0.508431 -0.967653
v 4.864497 0.292473 -0.967653
v 4.959797 0.292472 -0.000039
v 4.959797 -0.508431 -0.000039
v 4.959797 0.292472 -0.000039
v 4.864497 0.292472 0.967575
v 4.864497 -0.508432 0.967575
v 4.864497 0.292472 0.967575
v 4.582253 0.292472 1.898004
v 4.582253 -0.508432 1.898004
v 4.582253 0.292472 1.898004
v 4.123916 0.292472 2.755493
v 4.123916 -0.508432 2.755493
v 4.123916 0.292472 2.755493
v 3.507098 0.292472 3.507087
v 3.507098 -0.508432 3.507087
v 3.507098 0.292472 3.507087
v 2.755505 0.292470 4.123905
v 2.755505 -0.508432 4.123905
v 2.755505 0.292470 4.123905
v 1.898015 0.292470 4.582242
v 1.898015 -0.508434 4.582242
v 1.898015 0.292470 4.582242
v 0.967589 0.292470 4.864484
v 0.967589 -0.508434 4.864484
v 0.967589 0.292470 4.864484
v -0.000027 0.292470 4.959786
v -0.000027 -0.508434 4.959786
v -0.000027 0.292470 4.959786
v -0.967643 0.292470 4.864484
v -0.967643 -0.508434 4.864484
v -0.967643 0.292470 4.864484
v -1.898070 0.292470 4.582242
v -1.898070 -0.508434 4.582242
v -1.898070 0.292470 4.582242
v -2.755560 0.292470 4.123905
v -2.755560 -0.508432 4.123905
v -2.755560 0.292470 4.123905
v -3.507153 0.292472 3.507087
v -3.507153 -0.508432 3.507087
v -3.507153 0.292472 3.507087
v -4.123973 0.292472 2.755493
v -4.123973 -0.508432 2.755493
v -4.123973 0.292472 2.755493
v -4.582310 0.292472 1.898004
v -4.582310 -0.508432 1.898004
v -4.582310 0.292472 1.898004
v -4.864552 0.292472 0.967575
v -4.864552 -0.508432 0.967575
v -4.864552 0.292472 0.967575
v -4.959852 0.292472 -0.000039
v -4.959852 -0.508431 -0.000039
v -4.959852 0.292472 -0.000039
v -4.864552 0.292473 -0.967653
v -4.864552 -0.508431 -0.967653
v -4.864552 0.292473 -0.967653
v -4.582310 0.292473 -1.898083
v -4.582310 -0.508431 -1.898083
v -4.582310 0.292473 -1.898083
v -4.123973 0.292473 -2.755572
v -4.123973 -0.508431 -2.755572
v -4.123973 0.292473 -2.755572
v -3.507153 0.292473 -3.507166
v -3.507153 -0.508431 -3.507166
v -3.507153 0.292473 -3.507166
v -2.755560 0.292475 -4.123983
v -2.755560 -0.508429 -4.123983
v -2.755560 0.292475 -4.123983
v -1.898070 0.292475 -4.582321
v -1.898070 -0.508429 -4.582321
v -0.967643 0.292470 4.864484
v -0.844059 0.625501 4.243194
v -1.655654 0.625503 3.996999
v -1.898070 0.292475 -4.582321
v -0.967643 0.292475 -4.864563
v -0.967643 -0.508429 -4.864563
v -0.967643 0.292475 -4.864563
v -0.000027 0.292475 -4.959865
v -0.000027 -0.508429 -4.959865
v -0.000027 -0.508429 -4.959865
v -0.000027 -0.508429 -4.188404
v -0.817135 -0.508429 -4.107925
v 4.326334 0.625504 -0.000039
v 4.243206 0.625504 -0.844070
v 3.877147 1.288469 -0.771257
v -4.582310 0.292473 -1.898083
v -3.997064 0.625504 -1.655666
v -3.597267 0.625504 -2.403637
v 4.123916 0.292473 -2.755572
v 3.507098 0.292473 -3.507166
v 3.059171 0.625504 -3.059239
v 2.755505 0.292470 4.123905
v 2.403570 0.625503 3.597199
v 1.655599 0.625503 3.996999
v -4.582310 0.292472 1.898004
v -3.997064 0.625503 1.655588
v -4.243261 0.625504 0.843992
v -0.000027 0.292475 -4.959865
v -0.000027 0.625506 -4.326401
v 0.844005 0.625506 -4.243272
v -0.000027 0.292475 -4.959865
v -0.967643 0.292475 -4.864563
v -0.844059 0.625506 -4.243272
v 4.864497 0.292472 0.967575
v 4.243206 0.625504 0.843992
v 3.997012 0.625503 1.655588
v -1.898070 0.292470 4.582242
v -1.655654 0.625503 3.996999
v -2.403625 0.625503 3.597199
v -4.123973 0.292473 -2.755572
v -3.597267 0.625504 -2.403637
v -3.059229 0.625504 -3.059239
v 4.123916 0.292473 -2.755572
v 3.597213 0.625504 -2.403637
v 3.997012 0.625504 -1.655666
v 1.898015 0.292470 4.582242
v 1.655599 0.625503 3.996999
v 0.844005 0.625501 4.243194
v -4.864552 0.292472 0.967575
v -4.243261 0.625504 0.843992
v -4.326391 0.625504 -0.000039
v 1.898015 0.292475 -4.582321
v 0.967589 0.292475 -4.864563
v 0.844005 0.625506 -4.243272
v 4.582253 0.292472 1.898004
v 3.997012 0.625503 1.655588
v 3.597213 0.625503 2.403559
v -2.755560 0.292470 4.123905
v -2.403625 0.625503 3.597199
v -3.059229 0.625503 3.059160
v -2.755560 0.292475 -4.123983
v -3.507153 0.292473 -3.507166
v -3.059229 0.625504 -3.059239
v 4.582253 0.292473 -1.898083
v 3.997012 0.625504 -1.655666
v 4.243206 0.625504 -0.844070
v -0.000027 0.292470 4.959786
v 0.967589 0.292470 4.864484
v 0.844005 0.625501 4.243194
v -4.959852 0.292472 -0.000039
v -4.326391 0.625504 -0.000039
v -4.243261 0.625504 -0.844070
v 1.898015 0.292475 -4.582321
v 1.655599 0.625506 -3.997077
v 2.403570 0.625504 -3.597278
v 4.123916 0.292472 2.755493
v 3.597213 0.625503 2.403559
v 3.059171 0.625503 3.059160
v -4.123973 0.292472 2.755493
v -3.507153 0.292472 3.507087
v -3.059229 0.625503 3.059160
v -2.755560 0.292475 -4.123983
v -2.403625 0.625504 -3.597278
v -1.655654 0.625506 -3.997077
v 4.959797 0.292472 -0.000039
v 4.864497 0.292473 -0.967653
v 4.243206 0.625504 -0.844070
v -0.000027 0.292470 4.959786
v -0.000027 0.625501 4.326322
v -0.844059 0.625501 4.243194
v -4.864552 0.292473 -0.967653
v -4.243261 0.625504 -0.844070
v -3.997064 0.625504 -1.655666
v 2.755505 0.292475 -4.123983
v 2.403570 0.625504 -3.597278
v 3.059171 0.625504 -3.059239
v 2.755505 0.292470 4.123905
v 3.507098 0.292472 3.507087
v 3.059171 0.625503 3.059160
v -4.123973 0.292472 2.755493
v -3.597267 0.625503 2.403559
v -3.997064 0.625503 1.655588
v -1.898070 0.292475 -4.582321
v -1.655654 0.625506 -3.997077
v -0.844059 0.625506 -4.243272
v 4.959797 0.292472 -0.000039
v 4.326334 0.625504 -0.000039
v 4.243206 0.625504 0.843992
v -3.877204 1.288469 0.771179
v -3.586599 1.171286 0.713375
v -3.656865 1.171286 -0.000039
v -3.597267 0.625503 2.403559
v -3.286936 1.288468 2.196204
v -3.652246 1.288469 1.512759
v 4.326334 0.625504 -0.000039
v 3.953107 1.288469 -0.000039
v 3.877147 1.288469 0.771179
v -3.997064 0.625503 1.655588
v -3.652246 1.288469 1.512759
v -3.877204 1.288469 0.771179
v 3.997012 0.625503 1.655588
v 4.243206 0.625504 0.843992
v 3.877147 1.288469 0.771179
v -4.326391 0.625504 -0.000039
v -4.243261 0.625504 0.843992
v -3.877204 1.288469 0.771179
v 3.997012 0.625503 1.655588
v 3.652191 1.288469 1.512759
v 3.286881 1.288468 2.196204
v -4.326391 0.625504 -0.000039
v -3.953161 1.288469 -0.000039
v -3.877204 1.288469 -0.771257
v 3.597213 0.625503 2.403559
v 3.286881 1.288468 2.196204
v 2.795259 1.288468 2.795248
v -3.997064 0.625504 -1.655666
v -4.243261 0.625504 -0.844070
v -3.877204 1.288469 -0.771257
v 3.059171 0.625503 3.059160
v 2.795259 1.288468 2.795248
v 2.196218 1.288468 3.286870
v -3.997064 0.625504 -1.655666
v -3.652246 1.288469 -1.512837
v -3.286936 1.288469 -2.196281
v 2.403570 0.625503 3.597199
v 2.196218 1.288468 3.286870
v 1.512769 1.288468 3.652180
v -0.000027 0.625506 -4.326401
v -0.000027 1.288469 -3.953172
v 0.771190 1.288469 -3.877213
v -3.597267 0.625504 -2.403637
v -3.286936 1.288469 -2.196281
v -2.795314 1.288469 -2.795326
v 1.655599 0.625503 3.996999
v 1.512769 1.288468 3.652180
v 0.771190 1.288468 3.877136
v 1.655599 0.625506 -3.997077
v 0.844005 0.625506 -4.243272
v 0.771190 1.288469 -3.877213
v -3.059229 0.625504 -3.059239
v -2.795314 1.288469 -2.795326
v -2.196273 1.288469 -3.286948
v -0.000027 0.625501 4.326322
v 0.844005 0.625501 4.243194
v 0.771190 1.288468 3.877136
v 1.655599 0.625506 -3.997077
v 1.512769 1.288469 -3.652258
v 2.196218 1.288469 -3.286948
v -2.403625 0.625504 -3.597278
v -2.196273 1.288469 -3.286948
v -1.512824 1.288469 -3.652258
v -0.000027 0.625501 4.326322
v -0.000027 1.288468 3.953094
v -0.771245 1.288468 3.877136
v 2.403570 0.625504 -3.597278
v 2.196218 1.288469 -3.286948
v 2.795259 1.288469 -2.795326
v -1.655654 0.625506 -3.997077
v -1.512824 1.288469 -3.652258
v -0.771245 1.288469 -3.877213
v -1.655654 0.625503 3.996999
v -0.844059 0.625501 4.243194
v -0.771245 1.288468 3.877136
v 3.059171 0.625504 -3.059239
v 2.795259 1.288469 -2.795326
v 3.286881 1.288469 -2.196281
v -0.000027 0.625506 -4.326401
v -0.844059 0.625506 -4.243272
v -0.771245 1.288469 -3.877213
v -1.655654 0.625503 3.996999
v -1.512824 1.288468 3.652180
v -2.196273 1.288468 3.286870
v 3.597213 0.625504 -2.403637
v 3.286881 1.288469 -2.196281
v 3.652191 1.288469 -1.512837
v -2.403625 0.625503 3.597199
v -2.196273 1.288468 3.286870
v -2.795314 1.288468 2.795248
v 3.997012 0.625504 -1.655666
v 3.652191 1.288469 -1.512837
v 3.877147 1.288469 -0.771257
v -3.059229 0.625503 3.059160
v -2.795314 1.288468 2.795248
v -3.286936 1.288468 2.196204
v 1.399383 1.171286 -3.378517
v 0.713386 1.171286 -3.586613
v -0.000027 1.171286 -3.656877
v -0.000027 1.171286 -3.656877
v -0.713440 1.171286 -3.586613
v -1.399438 1.171286 -3.378517
v -1.399438 1.171286 -3.378517
v -2.031658 1.171286 -3.040589
v -2.585800 1.171286 -2.585814
v -2.585800 1.171286 -2.585814
v -3.040576 1.171286 -2.031670
v -3.378506 1.171286 -1.399450
v -3.378506 1.171286 -1.399450
v -3.586599 1.171286 -0.713453
v -3.656865 1.171286 -0.000039
v -3.656865 1.171286 -0.000039
v -3.586599 1.171286 0.713375
v -3.378506 1.171285 1.399372
v -3.378506 1.171285 1.399372
v -3.040576 1.171285 2.031592
v -2.585800 1.171285 2.585736
v -2.585800 1.171285 2.585736
v -2.031658 1.171285 3.040511
v -1.399438 1.171285 3.378439
v -1.399438 1.171285 3.378439
v -0.713440 1.171285 3.586535
v -0.000027 1.171285 3.656799
v -0.000027 1.171285 3.656799
v 0.713386 1.171285 3.586535
v 1.399383 1.171285 3.378439
v 1.399383 1.171285 3.378439
v 2.031603 1.171285 3.040511
v 2.585745 1.171285 2.585736
v 2.585745 1.171285 2.585736
v 3.040523 1.171285 2.031592
v 3.378451 1.171285 1.399372
v 3.378451 1.171285 1.399372
v 3.586547 1.171286 0.713375
v 3.656810 1.171286 -0.000039
v 3.656810 1.171286 -0.000039
v 3.586547 1.171286 -0.713453
v 3.378451 1.171286 -1.399450
v 3.378451 1.171286 -1.399450
v 3.040523 1.171286 -2.031670
v 2.585745 1.171286 -2.585814
v 2.585745 1.171286 -2.585814
v 2.031603 1.171286 -3.040589
v 1.399383 1.171286 -3.378517
v 1.399383 1.171286 -3.378517
v -0.000027 1.171286 -3.656877
v -1.399438 1.171286 -3.378517
v -1.399438 1.171286 -3.378517
v -2.585800 1.171286 -2.585814
v -3.378506 1.171286 -1.399450
v -3.378506 1.171286 -1.399450
v -3.656865 1.171286 -0.000039
v -3.378506 1.171285 1.399372
v -3.378506 1.171285 1.399372
v -2.585800 1.171285 2.585736
v -1.399438 1.171285 3.378439
v -1.399438 1.171285 3.378439
v -0.000027 1.171285 3.656799
v 1.399383 1.171285 3.378439
v 1.399383 1.171285 3.378439
v 2.585745 1.171285 2.585736
v 3.378451 1.171285 1.399372
v 3.378451 1.171285 1.399372
v 3.656810 1.171286 -0.000039
v 3.378451 1.171286 -1.399450
v 3.378451 1.171286 -1.399450
v 2.585745 1.171286 -2.585814
v 1.399383 1.171286 -3.378517
v 1.399383 1.171286 -3.378517
v -1.399438 1.171286 -3.378517
v -3.378506 1.171286 -1.399450
v -3.378506 1.171286 -1.399450
v -3.378506 1.171285 1.399372
v -1.399438 1.171285 3.378439
v -1.399438 1.171285 3.378439
v 1.399383 1.171285 3.378439
v 3.378451 1.171285 1.399372
v 3.378451 1.171285 1.399372
v 3.378451 1.171286 -1.399450
v 1.399383 1.171286 -3.378517
v 1.399383 1.171286 -3.378517
v -3.378506 1.171286 -1.399450
v -1.399438 1.171285 3.378439
v 3.652191 1.288469 1.512759
v 3.378451 1.171285 1.399372
v 3.040523 1.171285 2.031592
v -3.953161 1.288469 -0.000039
v -3.656865 1.171286 -0.000039
v -3.586599 1.171286 -0.713453
v 2.795259 1.288468 2.795248
v 3.286881 1.288468 2.196204
v 3.040523 1.171285 2.031592
v -3.877204 1.288469 -0.771257
v -3.586599 1.171286 -0.713453
v -3.378506 1.171286 -1.399450
v 2.795259 1.288468 2.795248
v 2.585745 1.171285 2.585736
v 2.031603 1.171285 3.040511
v -3.652246 1.288469 -1.512837
v -3.378506 1.171286 -1.399450
v -3.040576 1.171286 -2.031670
v 1.512769 1.288468 3.652180
v 2.196218 1.288468 3.286870
v 2.031603 1.171285 3.040511
v -0.000027 1.288469 -3.953172
v -0.000027 1.171286 -3.656877
v 0.713386 1.171286 -3.586613
v -2.795314 1.288469 -2.795326
v -3.286936 1.288469 -2.196281
v -3.040576 1.171286 -2.031670
v 0.771190 1.288468 3.877136
v 1.512769 1.288468 3.652180
v 1.399383 1.171285 3.378439
v 0.771190 1.288469 -3.877213
v 0.713386 1.171286 -3.586613
v 1.399383 1.171286 -3.378517
v -2.795314 1.288469 -2.795326
v -2.585800 1.171286 -2.585814
v -2.031658 1.171286 -3.040589
v 0.771190 1.288468 3.877136
v 0.713386 1.171285 3.586535
v -0.000027 1.171285 3.656799
v 1.512769 1.288469 -3.652258
v 1.399383 1.171286 -3.378517
v 2.031603 1.171286 -3.040589
v -1.512824 1.288469 -3.652258
v -2.196273 1.288469 -3.286948
v -2.031658 1.171286 -3.040589
v -0.000027 1.288468 3.953094
v -0.000027 1.171285 3.656799
v -0.713440 1.171285 3.586535
v 2.795259 1.288469 -2.795326
v 2.196218 1.288469 -3.286948
v 2.031603 1.171286 -3.040589
v -1.512824 1.288469 -3.652258
v -1.399438 1.171286 -3.378517
v -0.713440 1.171286 -3.586613
v -0.771245 1.288468 3.877136
v -0.713440 1.171285 3.586535
v -1.399438 1.171285 3.378439
v 2.795259 1.288469 -2.795326
v 2.585745 1.171286 -2.585814
v 3.040523 1.171286 -2.031670
v -0.771245 1.288469 -3.877213
v -0.713440 1.171286 -3.586613
v -0.000027 1.171286 -3.656877
v -1.512824 1.288468 3.652180
v -1.399438 1.171285 3.378439
v -2.031658 1.171285 3.040511
v 3.652191 1.288469 -1.512837
v 3.286881 1.288469 -2.196281
v 3.040523 1.171286 -2.031670
v -2.795314 1.288468 2.795248
v -2.196273 1.288468 3.286870
v -2.031658 1.171285 3.040511
v 3.652191 1.288469 -1.512837
v 3.378451 1.171286 -1.399450
v 3.586547 1.171286 -0.713453
v -2.795314 1.288468 2.795248
v -2.585800 1.171285 2.585736
v -3.040576 1.171285 2.031592
v 3.877147 1.288469 -0.771257
v 3.586547 1.171286 -0.713453
v 3.656810 1.171286 -0.000039
v -3.652246 1.288469 1.512759
v -3.286936 1.288468 2.196204
v -3.040576 1.171285 2.031592
v 3.953107 1.288469 -0.000039
v 3.656810 1.171286 -0.000039
v 3.586547 1.171286 0.713375
v -3.652246 1.288469 1.512759
v -3.378506 1.171285 1.399372
v -3.586599 1.171286 0.713375
v 3.652191 1.288469 1.512759
v 3.877147 1.288469 0.771179
v 3.586547 1.171286 0.713375
v 4.188337 -0.508431 -0.000039
v 3.733153 -0.276484 -0.000039
v 3.661423 -0.276484 -0.728347
v 4.582253 -0.508432 1.898004
v 3.869517 -0.508432 1.602778
v 4.107859 -0.508432 0.817070
v -1.898070 -0.508434 4.582242
v -2.755560 -0.508432 4.123905
v -2.326958 -0.508432 3.482457
v -4.123973 -0.508431 -2.755572
v -3.507153 -0.508431 -3.507166
v -2.961645 -0.508431 -2.961659
v 4.582253 -0.508431 -1.898083
v 3.869517 -0.508431 -1.602857
v 3.482470 -0.508431 -2.326970
v 1.898015 -0.508434 4.582242
v 0.967589 -0.508434 4.864484
v 0.817080 -0.508432 4.107846
v -4.959852 -0.508431 -0.000039
v -4.188389 -0.508431 -0.000039
v -4.107911 -0.508432 0.817070
v 1.898015 -0.508429 -4.582321
v 1.602792 -0.508431 -3.869582
v 0.817080 -0.508429 -4.107925
v 4.582253 -0.508432 1.898004
v 4.123916 -0.508432 2.755493
v 3.482470 -0.508432 2.326891
v -2.755560 -0.508432 4.123905
v -3.507153 -0.508432 3.507087
v -2.961645 -0.508432 2.961581
v -2.755560 -0.508429 -4.123983
v -2.326958 -0.508431 -3.482536
v -2.961645 -0.508431 -2.961659
v 4.582253 -0.508431 -1.898083
v 4.864497 -0.508431 -0.967653
v 4.107859 -0.508431 -0.817149
v -0.000027 -0.508434 4.959786
v -0.000027 -0.508432 4.188324
v 0.817080 -0.508432 4.107846
v -4.959852 -0.508431 -0.000039
v -4.864552 -0.508431 -0.967653
v -4.107911 -0.508431 -0.817149
v 1.898015 -0.508429 -4.582321
v 2.755505 -0.508429 -4.123983
v 2.326903 -0.508431 -3.482536
v 4.123916 -0.508432 2.755493
v 3.507098 -0.508432 3.507087
v 2.961593 -0.508432 2.961581
v -4.123973 -0.508432 2.755493
v -3.482522 -0.508432 2.326891
v -2.961645 -0.508432 2.961581
v -1.898070 -0.508429 -4.582321
v -1.602847 -0.508431 -3.869582
v -2.326958 -0.508431 -3.482536
v 4.959797 -0.508431 -0.000039
v 4.188337 -0.508431 -0.000039
v 4.107859 -0.508431 -0.817149
v -0.000027 -0.508434 4.959786
v -0.967643 -0.508434 4.864484
v -0.817135 -0.508432 4.107846
v -4.582310 -0.508431 -1.898083
v -3.869571 -0.508431 -1.602857
v -4.107911 -0.508431 -0.817149
v 2.755505 -0.508429 -4.123983
v 3.507098 -0.508431 -3.507166
v 2.961593 -0.508431 -2.961659
v 2.755505 -0.508432 4.123905
v 2.326903 -0.508432 3.482457
v 2.961593 -0.508432 2.961581
v -4.582310 -0.508432 1.898004
v -3.869571 -0.508432 1.602778
v -3.482522 -0.508432 2.326891
v -1.898070 -0.508429 -4.582321
v -0.967643 -0.508429 -4.864563
v -0.817135 -0.508429 -4.107925
v 4.959797 -0.508431 -0.000039
v 4.864497 -0.508432 0.967575
v 4.107859 -0.508432 0.817070
v -1.898070 -0.508434 4.582242
v -1.602847 -0.508432 3.869504
v -0.817135 -0.508432 4.107846
v -4.582310 -0.508431 -1.898083
v -4.123973 -0.508431 -2.755572
v -3.482522 -0.508431 -2.326970
v 4.123916 -0.508431 -2.755572
v 3.482470 -0.508431 -2.326970
v 2.961593 -0.508431 -2.961659
v 1.898015 -0.508434 4.582242
v 1.602792 -0.508432 3.869504
v 2.326903 -0.508432 3.482457
v -4.582310 -0.508432 1.898004
v -4.864552 -0.508432 0.967575
v -4.107911 -0.508432 0.817070
v -0.000027 -0.508429 -4.959865
v 0.967589 -0.508429 -4.864563
v 0.817080 -0.508429 -4.107925
v -0.728333 -0.276483 -3.661489
v -0.000027 -0.276483 -3.733220
v 0.728279 -0.276483 -3.661489
v 0.728279 -0.276483 -3.661489
v 1.428597 -0.276483 -3.449049
v 2.074018 -0.276483 -3.104066
v 2.074018 -0.276483 -3.104066
v 2.639728 -0.276484 -2.639797
v 3.103999 -0.276484 -2.074084
v 3.103999 -0.276484 -2.074084
v 3.448982 -0.276484 -1.428665
v 3.661423 -0.276484 -0.728347
v 3.661423 -0.276484 -0.728347
v 3.733153 -0.276484 -0.000039
v 3.661423 -0.276484 0.728268
v 3.661423 -0.276484 0.728268
v 3.448982 -0.276484 1.428587
v 3.103999 -0.276484 2.074006
v 3.103999 -0.276484 2.074006
v 2.639728 -0.276485 2.639719
v 2.074018 -0.276485 3.103987
v 2.074018 -0.276485 3.103987
v 1.428597 -0.276485 3.448970
v 0.728279 -0.276485 3.661410
v 0.728279 -0.276485 3.661410
v -0.000027 -0.276485 3.733141
v -0.728333 -0.276485 3.661410
v -0.728333 -0.276485 3.661410
v -1.428652 -0.276485 3.448970
v -2.074073 -0.276485 3.103987
v -2.074073 -0.276485 3.103987
v -2.639783 -0.276485 2.639719
v -3.104056 -0.276484 2.074006
v -3.104056 -0.276484 2.074006
v -3.449037 -0.276484 1.428587
v -3.661478 -0.276484 0.728268
v -3.661478 -0.276484 0.728268
v -3.733210 -0.276484 -0.000039
v -3.661478 -0.276484 -0.728347
v -3.661478 -0.276484 -0.728347
v -3.449037 -0.276484 -1.428665
v -3.104056 -0.276484 -2.074084
v -3.104056 -0.276484 -2.074084
v -2.639783 -0.276484 -2.639797
v -2.074073 -0.276483 -3.104066
v -2.074073 -0.276483 -3.104066
v -1.428652 -0.276483 -3.449049
v -0.728333 -0.276483 -3.661489
v -0.728333 -0.276483 -3.661489
v 0.728279 -0.276483 -3.661489
v 2.074018 -0.276483 -3.104066
v 2.074018 -0.276483 -3.104066
v 3.103999 -0.276484 -2.074084
v 3.661423 -0.276484 -0.728347
v 3.661423 -0.276484 -0.728347
v 3.661423 -0.276484 0.728268
v 3.103999 -0.276484 2.074006
v 3.103999 -0.276484 2.074006
v 2.074018 -0.276485 3.103987
v 0.728279 -0.276485 3.661410
v 0.728279 -0.276485 3.661410
v -0.728333 -0.276485 3.661410
v -2.074073 -0.276485 3.103987
v -2.074073 -0.276485 3.103987
v -3.104056 -0.276484 2.074006
v -3.661478 -0.276484 0.728268
v -3.661478 -0.276484 0.728268
v -3.661478 -0.276484 -0.728347
v -3.104056 -0.276484 -2.074084
v -3.104056 -0.276484 -2.074084
v -2.074073 -0.276483 -3.104066
v -0.728333 -0.276483 -3.661489
v -0.728333 -0.276483 -3.661489
v 2.074018 -0.276483 -3.104066
v 3.661423 -0.276484 -0.728347
v 3.661423 -0.276484 -0.728347
v 3.103999 -0.276484 2.074006
v 0.728279 -0.276485 3.661410
v 0.728279 -0.276485 3.661410
v -2.074073 -0.276485 3.103987
v -3.661478 -0.276484 0.728268
v -3.661478 -0.276484 0.728268
v -3.104056 -0.276484 -2.074084
v -0.728333 -0.276483 -3.661489
v -0.728333 -0.276483 -3.661489
v 3.661423 -0.276484 -0.728347
v 0.728279 -0.276485 3.661410
v -3.869571 -0.508432 1.602778
v -3.449037 -0.276484 1.428587
v -3.104056 -0.276484 2.074006
v 4.188337 -0.508431 -0.000039
v 4.107859 -0.508432 0.817070
v 3.661423 -0.276484 0.728268
v -4.107911 -0.508432 0.817070
v -3.661478 -0.276484 0.728268
v -3.449037 -0.276484 1.428587
v 3.869517 -0.508432 1.602778
v 3.448982 -0.276484 1.428587
v 3.661423 -0.276484 0.728268
v -4.188389 -0.508431 -0.000039
v -3.733210 -0.276484 -0.000039
v -3.661478 -0.276484 0.728268
v 3.869517 -0.508432 1.602778
v 3.482470 -0.508432 2.326891
v 3.103999 -0.276484 2.074006
v -4.188389 -0.508431 -0.000039
v -4.107911 -0.508431 -0.817149
v -3.661478 -0.276484 -0.728347
v 3.482470 -0.508432 2.326891
v 2.961593 -0.508432 2.961581
v 2.639728 -0.276485 2.639719
v -3.869571 -0.508431 -1.602857
v -3.449037 -0.276484 -1.428665
v -3.661478 -0.276484 -0.728347
v 2.326903 -0.508432 3.482457
v 2.074018 -0.276485 3.103987
v 2.639728 -0.276485 2.639719
v -3.869571 -0.508431 -1.602857
v -3.482522 -0.508431 -2.326970
v -3.104056 -0.276484 -2.074084
v 1.602792 -0.508432 3.869504
v 1.428597 -0.276485 3.448970
v 2.074018 -0.276485 3.103987
v -0.000027 -0.508429 -4.188404
v 0.817080 -0.508429 -4.107925
v 0.728279 -0.276483 -3.661489
v -3.482522 -0.508431 -2.326970
v -2.961645 -0.508431 -2.961659
v -2.639783 -0.276484 -2.639797
v 1.602792 -0.508432 3.869504
v 0.817080 -0.508432 4.107846
v 0.728279 -0.276485 3.661410
v 1.602792 -0.508431 -3.869582
v 1.428597 -0.276483 -3.449049
v 0.728279 -0.276483 -3.661489
v -2.326958 -0.508431 -3.482536
v -2.074073 -0.276483 -3.104066
v -2.639783 -0.276484 -2.639797
v -0.000027 -0.508432 4.188324
v -0.000027 -0.276485 3.733141
v 0.728279 -0.276485 3.661410
v 1.602792 -0.508431 -3.869582
v 2.326903 -0.508431 -3.482536
v 2.074018 -0.276483 -3.104066
v -1.602847 -0.508431 -3.869582
v -1.428652 -0.276483 -3.449049
v -2.074073 -0.276483 -3.104066
v -0.000027 -0.508432 4.188324
v -0.817135 -0.508432 4.107846
v -0.728333 -0.276485 3.661410
v 2.326903 -0.508431 -3.482536
v 2.961593 -0.508431 -2.961659
v 2.639728 -0.276484 -2.639797
v -0.817135 -0.508429 -4.107925
v -0.728333 -0.276483 -3.661489
v -1.428652 -0.276483 -3.449049
v -1.602847 -0.508432 3.869504
v -1.428652 -0.276485 3.448970
v -0.728333 -0.276485 3.661410
v 3.482470 -0.508431 -2.326970
v 3.103999 -0.276484 -2.074084
v 2.639728 -0.276484 -2.639797
v -0.000027 -0.508429 -4.188404
v -0.000027 -0.276483 -3.733220
v -0.728333 -0.276483 -3.661489
v -1.602847 -0.508432 3.869504
v -2.326958 -0.508432 3.482457
v -2.074073 -0.276485 3.103987
v 3.869517 -0.508431 -1.602857
v 3.448982 -0.276484 -1.428665
v 3.103999 -0.276484 -2.074084
v -2.326958 -0.508432 3.482457
v -2.961645 -0.508432 2.961581
v -2.639783 -0.276485 2.639719
v 4.107859 -0.508431 -0.817149
v 3.661423 -0.276484 -0.728347
v 3.448982 -0.276484 -1.428665
v -3.482522 -0.508432 2.326891
v -3.104056 -0.276484 2.074006
v -2.639783 -0.276485 2.639719
vt 0.500000 0.000166
vt 0.000166 0.031406
vt 0.000166 0.000166
vt 0.500000 0.031406
vt 0.000166 0.062645
vt 0.000166 0.031406
vt 0.500000 0.062645
vt 0.000166 0.093885
vt 0.000166 0.062645
vt 0.500000 0.093885
vt 0.000166 0.125125
vt 0.000166 0.093885
vt 0.500000 0.125125
vt 0.000166 0.156364
vt 0.000166 0.125125
vt 0.500000 0.156364
vt 0.000166 0.187604
vt 0.000166 0.156364
vt 0.500000 0.187604
vt 0.000166 0.218843
vt 0.000166 0.187604
vt 0.500000 0.218843
vt 0.000166 0.250083
vt 0.000166 0.218843
vt 0.500000 0.250083
vt 0.000166 0.281323
vt 0.000166 0.250083
vt 0.500000 0.281323
vt 0.000166 0.312562
vt 0.000166 0.281323
vt 0.500000 0.312562
vt 0.000166 0.343802
vt 0.000166 0.312562
vt 0.500000 0.343802
vt 0.000166 0.375041
vt 0.000166 0.343802
vt 0.500000 0.375041
vt 0.000166 0.406281
vt 0.000166 0.375041
vt 0.500000 0.406281
vt 0.000166 0.437521
vt 0.000166 0.406281
vt 0.500000 0.437521
vt 0.000166 0.468760
vt 0.000166 0.437521
vt 0.500000 0.468760
vt 0.000166 0.500000
vt 0.000166 0.468760
vt 0.500000 0.500000
vt 0.000166 0.531240
vt 0.000166 0.500000
vt 0.500000 0.531240
vt 0.000166 0.562479
vt 0.000166 0.531240
vt 0.500000 0.562479
vt 0.000166 0.593719
vt 0.000166 0.562479
vt 0.500000 0.593719
vt 0.000166 0.624958
vt 0.000166 0.593719
vt 0.500000 0.624958
vt 0.000166 0.656198
vt 0.000166 0.624958
vt 0.500000 0.656198
vt 0.000166 0.687438
vt 0.000166 0.656198
vt 0.500000 0.687438
vt 0.000166 0.718677
vt 0.000166 0.687438
vt 0.500000 0.718677
vt 0.000166 0.749917
vt 0.000166 0.718677
vt 0.500000 0.749917
vt 0.000166 0.781156
vt 0.000166 0.749917
vt 0.500000 0.781156
vt 0.000166 0.812396
vt 0.000166 0.781156
vt 0.500000 0.812396
vt 0.000166 0.843636
vt 0.000166 0.812396
vt 0.500000 0.843636
vt 0.000166 0.874875
vt 0.000166 0.843636
vt 0.500000 0.874875
vt 0.000166 0.906115
vt 0.000166 0.874875
vt 0.500000 0.906115
vt 0.000166 0.937355
vt 0.000166 0.906115
vt 0.500000 0.531240
vt 0.500000 0.562479
vt 0.500000 0.562479
vt 0.500000 0.937355
vt 0.000166 0.968594
vt 0.000166 0.937355
vt 0.500000 0.968594
vt 0.000166 0.999834
vt 0.000166 0.968594
vt 0.000166 0.999834
vt 0.000166 0.968594
vt 0.000166 0.968594
vt 0.500000 0.250083
vt 0.500000 0.218843
vt 0.500000 0.250083
vt 0.500000 0.812396
vt 0.500000 0.843636
vt 0.500000 0.843636
vt 0.500000 0.156364
vt 0.500000 0.125125
vt 0.500000 0.156364
vt 0.500000 0.406281
vt 0.500000 0.437521
vt 0.500000 0.437521
vt 0.500000 0.687438
vt 0.500000 0.718677
vt 0.500000 0.718677
vt 0.500000 0.000166
vt 0.500000 0.031406
vt 0.500000 0.031406
vt 0.500000 0.999834
vt 0.500000 0.968594
vt 0.500000 0.999834
vt 0.500000 0.281323
vt 0.500000 0.312562
vt 0.500000 0.312562
vt 0.500000 0.562479
vt 0.500000 0.593719
vt 0.500000 0.593719
vt 0.500000 0.843636
vt 0.500000 0.874875
vt 0.500000 0.874875
vt 0.500000 0.156364
vt 0.500000 0.187604
vt 0.500000 0.187604
vt 0.500000 0.437521
vt 0.500000 0.468760
vt 0.500000 0.468760
vt 0.500000 0.718677
vt 0.500000 0.749917
vt 0.500000 0.749917
vt 0.500000 0.062645
vt 0.500000 0.031406
vt 0.500000 0.062645
vt 0.500000 0.312562
vt 0.500000 0.343802
vt 0.500000 0.343802
vt 0.500000 0.593719
vt 0.500000 0.624958
vt 0.500000 0.624958
vt 0.500000 0.906115
vt 0.500000 0.874875
vt 0.500000 0.906115
vt 0.500000 0.187604
vt 0.500000 0.218843
vt 0.500000 0.218843
vt 0.500000 0.500000
vt 0.500000 0.468760
vt 0.500000 0.500000
vt 0.500000 0.749917
vt 0.500000 0.781156
vt 0.500000 0.781156
vt 0.500000 0.062645
vt 0.500000 0.093885
vt 0.500000 0.093885
vt 0.500000 0.343802
vt 0.500000 0.375041
vt 0.500000 0.375041
vt 0.500000 0.656198
vt 0.500000 0.624958
vt 0.500000 0.656198
vt 0.500000 0.906115
vt 0.500000 0.937355
vt 0.500000 0.937355
vt 0.500000 0.250083
vt 0.500000 0.218843
vt 0.500000 0.250083
vt 0.500000 0.500000
vt 0.500000 0.531240
vt 0.500000 0.531240
vt 0.500000 0.781156
vt 0.500000 0.812396
vt 0.500000 0.812396
vt 0.500000 0.093885
vt 0.500000 0.125125
vt 0.500000 0.125125
vt 0.500000 0.406281
vt 0.500000 0.375041
vt 0.500000 0.406281
vt 0.500000 0.656198
vt 0.500000 0.687438
vt 0.500000 0.687438
vt 0.500000 0.937355
vt 0.500000 0.968594
vt 0.500000 0.968594
vt 0.500000 0.250083
vt 0.500000 0.281323
vt 0.500000 0.281323
vt 0.500000 0.718677
vt 0.500000 0.749917
vt 0.500000 0.749917
vt 0.500000 0.656198
vt 0.500000 0.687438
vt 0.500000 0.687438
vt 0.500000 0.250083
vt 0.500000 0.281323
vt 0.500000 0.281323
vt 0.500000 0.687438
vt 0.500000 0.718677
vt 0.500000 0.718677
vt 0.500000 0.312562
vt 0.500000 0.281323
vt 0.500000 0.312562
vt 0.500000 0.749917
vt 0.500000 0.718677
vt 0.500000 0.749917
vt 0.500000 0.312562
vt 0.500000 0.343802
vt 0.500000 0.343802
vt 0.500000 0.749917
vt 0.500000 0.781156
vt 0.500000 0.781156
vt 0.500000 0.343802
vt 0.500000 0.375041
vt 0.500000 0.375041
vt 0.500000 0.812396
vt 0.500000 0.781156
vt 0.500000 0.812396
vt 0.500000 0.375041
vt 0.500000 0.406281
vt 0.500000 0.406281
vt 0.500000 0.812396
vt 0.500000 0.843636
vt 0.500000 0.843636
vt 0.500000 0.406281
vt 0.500000 0.437521
vt 0.500000 0.437521
vt 0.500000 0.000166
vt 0.500000 0.031406
vt 0.500000 0.031406
vt 0.500000 0.843636
vt 0.500000 0.874875
vt 0.500000 0.874875
vt 0.500000 0.437521
vt 0.500000 0.468760
vt 0.500000 0.468760
vt 0.500000 0.062645
vt 0.500000 0.031406
vt 0.500000 0.062645
vt 0.500000 0.874875
vt 0.500000 0.906115
vt 0.500000 0.906115
vt 0.500000 0.500000
vt 0.500000 0.468760
vt 0.500000 0.500000
vt 0.500000 0.062645
vt 0.500000 0.093885
vt 0.500000 0.093885
vt 0.500000 0.906115
vt 0.500000 0.937355
vt 0.500000 0.937355
vt 0.500000 0.500000
vt 0.500000 0.531240
vt 0.500000 0.531240
vt 0.500000 0.093885
vt 0.500000 0.125125
vt 0.500000 0.125125
vt 0.500000 0.937355
vt 0.500000 0.968594
vt 0.500000 0.968594
vt 0.500000 0.562479
vt 0.500000 0.531240
vt 0.500000 0.562479
vt 0.500000 0.125125
vt 0.500000 0.156364
vt 0.500000 0.156364
vt 0.500000 0.999834
vt 0.500000 0.968594
vt 0.500000 0.999834
vt 0.500000 0.562479
vt 0.500000 0.593719
vt 0.500000 0.593719
vt 0.500000 0.156364
vt 0.500000 0.187604
vt 0.500000 0.187604
vt 0.500000 0.593719
vt 0.500000 0.624958
vt 0.500000 0.624958
vt 0.500000 0.187604
vt 0.500000 0.218843
vt 0.500000 0.218843
vt 0.500000 0.624958
vt 0.500000 0.656198
vt 0.500000 0.656198
vt 0.669452 0.468520
vt 0.509508 0.169286
vt 0.808743 0.009342
vt 0.500000 0.312562
vt 0.500000 0.343802
vt 0.500000 0.343802
vt 0.500000 0.749917
vt 0.500000 0.781156
vt 0.500000 0.781156
vt 0.500000 0.375041
vt 0.500000 0.343802
vt 0.500000 0.375041
vt 0.500000 0.781156
vt 0.500000 0.812396
vt 0.500000 0.812396
vt 0.500000 0.375041
vt 0.500000 0.406281
vt 0.500000 0.406281
vt 0.500000 0.812396
vt 0.500000 0.843636
vt 0.500000 0.843636
vt 0.500000 0.437521
vt 0.500000 0.406281
vt 0.500000 0.437521
vt 0.500000 0.000166
vt 0.500000 0.031406
vt 0.500000 0.031406
vt 0.500000 0.874875
vt 0.500000 0.843636
vt 0.500000 0.874875
vt 0.500000 0.468760
vt 0.500000 0.437521
vt 0.500000 0.468760
vt 0.500000 0.031406
vt 0.500000 0.062645
vt 0.500000 0.062645
vt 0.500000 0.874875
vt 0.500000 0.906115
vt 0.500000 0.906115
vt 0.500000 0.468760
vt 0.500000 0.500000
vt 0.500000 0.500000
vt 0.500000 0.062645
vt 0.500000 0.093885
vt 0.500000 0.093885
vt 0.500000 0.937355
vt 0.500000 0.906115
vt 0.500000 0.937355
vt 0.500000 0.500000
vt 0.500000 0.531240
vt 0.500000 0.531240
vt 0.500000 0.125125
vt 0.500000 0.093885
vt 0.500000 0.125125
vt 0.500000 0.937355
vt 0.500000 0.968594
vt 0.500000 0.968594
vt 0.500000 0.531240
vt 0.500000 0.562479
vt 0.500000 0.562479
vt 0.500000 0.125125
vt 0.500000 0.156364
vt 0.500000 0.156364
vt 0.500000 0.968594
vt 0.500000 0.999834
vt 0.500000 0.999834
vt 0.500000 0.562479
vt 0.500000 0.593719
vt 0.500000 0.593719
vt 0.500000 0.187604
vt 0.500000 0.156364
vt 0.500000 0.187604
vt 0.500000 0.624958
vt 0.500000 0.593719
vt 0.500000 0.624958
vt 0.500000 0.187604
vt 0.500000 0.218843
vt 0.500000 0.218843
vt 0.500000 0.624958
vt 0.500000 0.656198
vt 0.500000 0.656198
vt 0.500000 0.218843
vt 0.500000 0.250083
vt 0.500000 0.250083
vt 0.500000 0.687438
vt 0.500000 0.656198
vt 0.500000 0.687438
vt 0.500000 0.250083
vt 0.500000 0.281323
vt 0.500000 0.281323
vt 0.500000 0.687438
vt 0.500000 0.718677
vt 0.500000 0.718677
vt 0.500000 0.312562
vt 0.500000 0.281323
vt 0.500000 0.312562
vt 0.000166 0.250083
vt 0.000166 0.218843
vt 0.000166 0.218843
vt 0.000166 0.312562
vt 0.000166 0.281323
vt 0.000166 0.281323
vt 0.000166 0.562479
vt 0.000166 0.593719
vt 0.000166 0.562479
vt 0.000166 0.843636
vt 0.000166 0.874875
vt 0.000166 0.843636
vt 0.000166 0.187604
vt 0.000166 0.156364
vt 0.000166 0.156364
vt 0.000166 0.437521
vt 0.000166 0.468760
vt 0.000166 0.437521
vt 0.000166 0.749917
vt 0.000166 0.718677
vt 0.000166 0.718677
vt 0.000166 0.062645
vt 0.000166 0.031406
vt 0.000166 0.031406
vt 0.000166 0.312562
vt 0.000166 0.343802
vt 0.000166 0.312562
vt 0.000166 0.593719
vt 0.000166 0.624958
vt 0.000166 0.593719
vt 0.000166 0.906115
vt 0.000166 0.874875
vt 0.000166 0.874875
vt 0.000166 0.187604
vt 0.000166 0.218843
vt 0.000166 0.187604
vt 0.000166 0.500000
vt 0.000166 0.468760
vt 0.000166 0.468760
vt 0.000166 0.749917
vt 0.000166 0.781156
vt 0.000166 0.749917
vt 0.000166 0.062645
vt 0.000166 0.093885
vt 0.000166 0.062645
vt 0.000166 0.343802
vt 0.000166 0.375041
vt 0.000166 0.343802
vt 0.000166 0.656198
vt 0.000166 0.624958
vt 0.000166 0.624958
vt 0.000166 0.937355
vt 0.000166 0.906115
vt 0.000166 0.906115
vt 0.000166 0.250083
vt 0.000166 0.218843
vt 0.000166 0.218843
vt 0.000166 0.500000
vt 0.000166 0.531240
vt 0.000166 0.500000
vt 0.000166 0.812396
vt 0.000166 0.781156
vt 0.000166 0.781156
vt 0.000166 0.093885
vt 0.000166 0.125125
vt 0.000166 0.093885
vt 0.000166 0.406281
vt 0.000166 0.375041
vt 0.000166 0.375041
vt 0.000166 0.687438
vt 0.000166 0.656198
vt 0.000166 0.656198
vt 0.000166 0.937355
vt 0.000166 0.968594
vt 0.000166 0.937355
vt 0.000166 0.250083
vt 0.000166 0.281323
vt 0.000166 0.250083
vt 0.000166 0.562479
vt 0.000166 0.531240
vt 0.000166 0.531240
vt 0.000166 0.812396
vt 0.000166 0.843636
vt 0.000166 0.812396
vt 0.000166 0.156364
vt 0.000166 0.125125
vt 0.000166 0.125125
vt 0.000166 0.437521
vt 0.000166 0.406281
vt 0.000166 0.406281
vt 0.000166 0.687438
vt 0.000166 0.718677
vt 0.000166 0.687438
vt 0.000166 0.000166
vt 0.000166 0.031406
vt 0.000166 0.000166
vt 0.715581 0.478029
vt 0.500332 0.740310
vt 0.762614 0.955558
vt 0.000166 0.687438
vt 0.000166 0.656198
vt 0.000166 0.656198
vt 0.000166 0.250083
vt 0.000166 0.281323
vt 0.000166 0.250083
vt 0.000166 0.718677
vt 0.000166 0.687438
vt 0.000166 0.687438
vt 0.000166 0.312562
vt 0.000166 0.281323
vt 0.000166 0.281323
vt 0.000166 0.749917
vt 0.000166 0.718677
vt 0.000166 0.718677
vt 0.000166 0.312562
vt 0.000166 0.343802
vt 0.000166 0.312562
vt 0.000166 0.749917
vt 0.000166 0.781156
vt 0.000166 0.749917
vt 0.000166 0.343802
vt 0.000166 0.375041
vt 0.000166 0.343802
vt 0.000166 0.812396
vt 0.000166 0.781156
vt 0.000166 0.781156
vt 0.000166 0.406281
vt 0.000166 0.375041
vt 0.000166 0.375041
vt 0.000166 0.812396
vt 0.000166 0.843636
vt 0.000166 0.812396
vt 0.000166 0.437521
vt 0.000166 0.406281
vt 0.000166 0.406281
vt 0.000166 0.000166
vt 0.000166 0.031406
vt 0.000166 0.000166
vt 0.000166 0.843636
vt 0.000166 0.874875
vt 0.000166 0.843636
vt 0.000166 0.437521
vt 0.000166 0.468760
vt 0.000166 0.437521
vt 0.000166 0.062645
vt 0.000166 0.031406
vt 0.000166 0.031406
vt 0.000166 0.906115
vt 0.000166 0.874875
vt 0.000166 0.874875
vt 0.000166 0.500000
vt 0.000166 0.468760
vt 0.000166 0.468760
vt 0.000166 0.062645
vt 0.000166 0.093885
vt 0.000166 0.062645
vt 0.000166 0.937355
vt 0.000166 0.906115
vt 0.000166 0.906115
vt 0.000166 0.500000
vt 0.000166 0.531240
vt 0.000166 0.500000
vt 0.000166 0.093885
vt 0.000166 0.125125
vt 0.000166 0.093885
vt 0.000166 0.968594
vt 0.000166 0.937355
vt 0.000166 0.937355
vt 0.000166 0.562479
vt 0.000166 0.531240
vt 0.000166 0.531240
vt 0.000166 0.156364
vt 0.000166 0.125125
vt 0.000166 0.125125
vt 0.000166 0.999834
vt 0.000166 0.968594
vt 0.000166 0.968594
vt 0.000166 0.562479
vt 0.000166 0.593719
vt 0.000166 0.562479
vt 0.000166 0.187604
vt 0.000166 0.156364
vt 0.000166 0.156364
vt 0.000166 0.593719
vt 0.000166 0.624958
vt 0.000166 0.593719
vt 0.000166 0.218843
vt 0.000166 0.187604
vt 0.000166 0.187604
vt 0.000166 0.656198
vt 0.000166 0.624958
vt 0.000166 0.624958
vt 0.500000 0.000166
vt 0.500000 0.031406
vt 0.000166 0.031406
vt 0.500000 0.031406
vt 0.500000 0.062645
vt 0.000166 0.062645
vt 0.500000 0.062645
vt 0.500000 0.093885
vt 0.000166 0.093885
vt 0.500000 0.093885
vt 0.500000 0.125125
vt 0.000166 0.125125
vt 0.500000 0.125125
vt 0.500000 0.156364
vt 0.000166 0.156364
vt 0.500000 0.156364
vt 0.500000 0.187604
vt 0.000166 0.187604
vt 0.500000 0.187604
vt 0.500000 0.218843
vt 0.000166 0.218843
vt 0.500000 0.218843
vt 0.500000 0.250083
vt 0.000166 0.250083
vt 0.500000 0.250083
vt 0.500000 0.281323
vt 0.000166 0.281323
vt 0.500000 0.281323
vt 0.500000 0.312562
vt 0.000166 0.312562
vt 0.500000 0.312562
vt 0.500000 0.343802
vt 0.000166 0.343802
vt 0.500000 0.343802
vt 0.500000 0.375041
vt 0.000166 0.375041
vt 0.500000 0.375041
vt 0.500000 0.406281
vt 0.000166 0.406281
vt 0.500000 0.406281
vt 0.500000 0.437521
vt 0.000166 0.437521
vt 0.500000 0.437521
vt 0.500000 0.468760
vt 0.000166 0.468760
vt 0.500000 0.468760
vt 0.500000 0.500000
vt 0.000166 0.500000
vt 0.500000 0.500000
vt 0.500000 0.531240
vt 0.000166 0.531240
vt 0.500000 0.531240
vt 0.500000 0.562479
vt 0.000166 0.562479
vt 0.500000 0.562479
vt 0.500000 0.593719
vt 0.000166 0.593719
vt 0.500000 0.593719
vt 0.500000 0.624958
vt 0.000166 0.624958
vt 0.500000 0.624958
vt 0.500000 0.656198
vt 0.000166 0.656198
vt 0.500000 0.656198
vt 0.500000 0.687438
vt 0.000166 0.687438
vt 0.500000 0.687438
vt 0.500000 0.718677
vt 0.000166 0.718677
vt 0.500000 0.718677
vt 0.500000 0.749917
vt 0.000166 0.749917
vt 0.500000 0.749917
vt 0.500000 0.781156
vt 0.000166 0.781156
vt 0.500000 0.781156
vt 0.500000 0.812396
vt 0.000166 0.812396
vt 0.500000 0.812396
vt 0.500000 0.843636
vt 0.000166 0.843636
vt 0.500000 0.843636
vt 0.500000 0.874875
vt 0.000166 0.874875
vt 0.500000 0.874875
vt 0.500000 0.906115
vt 0.000166 0.906115
vt 0.500000 0.906115
vt 0.500000 0.937355
vt 0.000166 0.937355
vt 0.500000 0.531240
vt 0.500000 0.531240
vt 0.500000 0.562479
vt 0.500000 0.937355
vt 0.500000 0.968594
vt 0.000166 0.968594
vt 0.500000 0.968594
vt 0.500000 0.999834
vt 0.000166 0.999834
vt 0.000166 0.999834
vt 0.000166 0.999834
vt 0.000166 0.968594
vt 0.500000 0.250083
vt 0.500000 0.218843
vt 0.500000 0.218843
vt 0.500000 0.812396
vt 0.500000 0.812396
vt 0.500000 0.843636
vt 0.500000 0.156364
vt 0.500000 0.125125
vt 0.500000 0.125125
vt 0.500000 0.406281
vt 0.500000 0.406281
vt 0.500000 0.437521
vt 0.500000 0.687438
vt 0.500000 0.687438
vt 0.500000 0.718677
vt 0.500000 0.000166
vt 0.500000 0.000166
vt 0.500000 0.031406
vt 0.500000 0.999834
vt 0.500000 0.968594
vt 0.500000 0.968594
vt 0.500000 0.281323
vt 0.500000 0.281323
vt 0.500000 0.312562
vt 0.500000 0.562479
vt 0.500000 0.562479
vt 0.500000 0.593719
vt 0.500000 0.843636
vt 0.500000 0.843636
vt 0.500000 0.874875
vt 0.500000 0.156364
vt 0.500000 0.156364
vt 0.500000 0.187604
vt 0.500000 0.437521
vt 0.500000 0.437521
vt 0.500000 0.468760
vt 0.500000 0.718677
vt 0.500000 0.718677
vt 0.500000 0.749917
vt 0.500000 0.062645
vt 0.500000 0.031406
vt 0.500000 0.031406
vt 0.500000 0.312562
vt 0.500000 0.312562
vt 0.500000 0.343802
vt 0.500000 0.593719
vt 0.500000 0.593719
vt 0.500000 0.624958
vt 0.500000 0.906115
vt 0.500000 0.874875
vt 0.500000 0.874875
vt 0.500000 0.187604
vt 0.500000 0.187604
vt 0.500000 0.218843
vt 0.500000 0.500000
vt 0.500000 0.468760
vt 0.500000 0.468760
vt 0.500000 0.749917
vt 0.500000 0.749917
vt 0.500000 0.781156
vt 0.500000 0.062645
vt 0.500000 0.062645
vt 0.500000 0.093885
vt 0.500000 0.343802
vt 0.500000 0.343802
vt 0.500000 0.375041
vt 0.500000 0.656198
vt 0.500000 0.624958
vt 0.500000 0.624958
vt 0.500000 0.906115
vt 0.500000 0.906115
vt 0.500000 0.937355
vt 0.500000 0.250083
vt 0.500000 0.218843
vt 0.500000 0.218843
vt 0.500000 0.500000
vt 0.500000 0.500000
vt 0.500000 0.531240
vt 0.500000 0.781156
vt 0.500000 0.781156
vt 0.500000 0.812396
vt 0.500000 0.093885
vt 0.500000 0.093885
vt 0.500000 0.125125
vt 0.500000 0.406281
vt 0.500000 0.375041
vt 0.500000 0.375041
vt 0.500000 0.656198
vt 0.500000 0.656198
vt 0.500000 0.687438
vt 0.500000 0.937355
vt 0.500000 0.937355
vt 0.500000 0.968594
vt 0.500000 0.250083
vt 0.500000 0.250083
vt 0.500000 0.281323
vt 0.500000 0.718677
vt 0.500000 0.718677
vt 0.500000 0.749917
vt 0.500000 0.656198
vt 0.500000 0.656198
vt 0.500000 0.687438
vt 0.500000 0.250083
vt 0.500000 0.250083
vt 0.500000 0.281323
vt 0.500000 0.687438
vt 0.500000 0.687438
vt 0.500000 0.718677
vt 0.500000 0.312562
vt 0.500000 0.281323
vt 0.500000 0.281323
vt 0.500000 0.749917
vt 0.500000 0.718677
vt 0.500000 0.718677
vt 0.500000 0.312562
vt 0.500000 0.312562
vt 0.500000 0.343802
vt 0.500000 0.749917
vt 0.500000 0.749917
vt 0.500000 0.781156
vt 0.500000 0.343802
vt 0.500000 0.343802
vt 0.500000 0.375041
vt 0.500000 0.812396
vt 0.500000 0.781156
vt 0.500000 0.781156
vt 0.500000 0.375041
vt 0.500000 0.375041
vt 0.500000 0.406281
vt 0.500000 0.812396
vt 0.500000 0.812396
vt 0.500000 0.843636
vt 0.500000 0.406281
vt 0.500000 0.406281
vt 0.500000 0.437521
vt 0.500000 0.000166
vt 0.500000 0.000166
vt 0.500000 0.031406
vt 0.500000 0.843636
vt 0.500000 0.843636
vt 0.500000 0.874875
vt 0.500000 0.437521
vt 0.500000 0.437521
vt 0.500000 0.468760
vt 0.500000 0.062645
vt 0.500000 0.031406
vt 0.500000 0.031406
vt 0.500000 0.874875
vt 0.500000 0.874875
vt 0.500000 0.906115
vt 0.500000 0.500000
vt 0.500000 0.468760
vt 0.500000 0.468760
vt 0.500000 0.062645
vt 0.500000 0.062645
vt 0.500000 0.093885
vt 0.500000 0.906115
vt 0.500000 0.906115
vt 0.500000 0.937355
vt 0.500000 0.500000
vt 0.500000 0.500000
vt 0.500000 0.531240
vt 0.500000 0.093885
vt 0.500000 0.093885
vt 0.500000 0.125125
vt 0.500000 0.937355
vt 0.500000 0.937355
vt 0.500000 0.968594
vt 0.500000 0.562479
vt 0.500000 0.531240
vt 0.500000 0.531240
vt 0.500000 0.125125
vt 0.500000 0.125125
vt 0.500000 0.156364
vt 0.500000 0.999834
vt 0.500000 0.968594
vt 0.500000 0.968594
vt 0.500000 0.562479
vt 0.500000 0.562479
vt 0.500000 0.593719
vt 0.500000 0.156364
vt 0.500000 0.156364
vt 0.500000 0.187604
vt 0.500000 0.593719
vt 0.500000 0.593719
vt 0.500000 0.624958
vt 0.500000 0.187604
vt 0.500000 0.187604
vt 0.500000 0.218843
vt 0.500000 0.624958
vt 0.500000 0.624958
vt 0.500000 0.656198
vt 0.808743 0.009342
vt 0.852195 0.027340
vt 0.891301 0.053470
vt 0.891301 0.053470
vt 0.924558 0.086727
vt 0.950688 0.125834
vt 0.950688 0.125834
vt 0.968687 0.169286
vt 0.977862 0.215415
vt 0.977862 0.215415
vt 0.977862 0.262448
vt 0.968687 0.308576
vt 0.968687 0.308576
vt 0.950688 0.352029
vt 0.924558 0.391135
vt 0.924558 0.391135
vt 0.891301 0.424392
vt 0.852195 0.450522
vt 0.852195 0.450522
vt 0.808742 0.468521
vt 0.762614 0.477696
vt 0.762614 0.477696
vt 0.715581 0.477696
vt 0.669452 0.468520
vt 0.669452 0.468520
vt 0.626000 0.450522
vt 0.586893 0.424392
vt 0.586893 0.424392
vt 0.553636 0.391135
vt 0.527507 0.352029
vt 0.527507 0.352029
vt 0.509508 0.308576
vt 0.500332 0.262447
vt 0.500332 0.262447
vt 0.500332 0.215415
vt 0.509508 0.169286
vt 0.509508 0.169286
vt 0.527507 0.125834
vt 0.553636 0.086727
vt 0.553636 0.086727
vt 0.586894 0.053470
vt 0.626000 0.027340
vt 0.626000 0.027340
vt 0.669452 0.009342
vt 0.715581 0.000166
vt 0.715581 0.000166
vt 0.762614 0.000166
vt 0.808743 0.009342
vt 0.808743 0.009342
vt 0.891301 0.053470
vt 0.950688 0.125834
vt 0.950688 0.125834
vt 0.977862 0.215415
vt 0.968687 0.308576
vt 0.968687 0.308576
vt 0.924558 0.391135
vt 0.852195 0.450522
vt 0.852195 0.450522
vt 0.762614 0.477696
vt 0.669452 0.468520
vt 0.669452 0.468520
vt 0.586893 0.424392
vt 0.527507 0.352029
vt 0.527507 0.352029
vt 0.500332 0.262447
vt 0.509508 0.169286
vt 0.509508 0.169286
vt 0.553636 0.086727
vt 0.626000 0.027340
vt 0.626000 0.027340
vt 0.715581 0.000166
vt 0.808743 0.009342
vt 0.808743 0.009342
vt 0.950688 0.125834
vt 0.968687 0.308576
vt 0.968687 0.308576
vt 0.852195 0.450522
vt 0.669452 0.468520
vt 0.669452 0.468520
vt 0.527507 0.352029
vt 0.509508 0.169286
vt 0.509508 0.169286
vt 0.626000 0.027340
vt 0.808743 0.009342
vt 0.808743 0.009342
vt 0.968687 0.308576
vt 0.669452 0.468520
vt 0.500000 0.312562
vt 0.500000 0.312562
vt 0.500000 0.343802
vt 0.500000 0.749917
vt 0.500000 0.749917
vt 0.500000 0.781156
vt 0.500000 0.375041
vt 0.500000 0.343802
vt 0.500000 0.343802
vt 0.500000 0.781156
vt 0.500000 0.781156
vt 0.500000 0.812396
vt 0.500000 0.375041
vt 0.500000 0.375041
vt 0.500000 0.406281
vt 0.500000 0.812396
vt 0.500000 0.812396
vt 0.500000 0.843636
vt 0.500000 0.437521
vt 0.500000 0.406281
vt 0.500000 0.406281
vt 0.500000 0.000166
vt 0.500000 0.000166
vt 0.500000 0.031406
vt 0.500000 0.874875
vt 0.500000 0.843636
vt 0.500000 0.843636
vt 0.500000 0.468760
vt 0.500000 0.437521
vt 0.500000 0.437521
vt 0.500000 0.031406
vt 0.500000 0.031406
vt 0.500000 0.062645
vt 0.500000 0.874875
vt 0.500000 0.874875
vt 0.500000 0.906115
vt 0.500000 0.468760
vt 0.500000 0.468760
vt 0.500000 0.500000
vt 0.500000 0.062645
vt 0.500000 0.062645
vt 0.500000 0.093885
vt 0.500000 0.937355
vt 0.500000 0.906115
vt 0.500000 0.906115
vt 0.500000 0.500000
vt 0.500000 0.500000
vt 0.500000 0.531240
vt 0.500000 0.125125
vt 0.500000 0.093885
vt 0.500000 0.093885
vt 0.500000 0.937355
vt 0.500000 0.937355
vt 0.500000 0.968594
vt 0.500000 0.531240
vt 0.500000 0.531240
vt 0.500000 0.562479
vt 0.500000 0.125125
vt 0.500000 0.125125
vt 0.500000 0.156364
vt 0.500000 0.968594
vt 0.500000 0.968594
vt 0.500000 0.999834
vt 0.500000 0.562479
vt 0.500000 0.562479
vt 0.500000 0.593719
vt 0.500000 0.187604
vt 0.500000 0.156364
vt 0.500000 0.156364
vt 0.500000 0.624958
vt 0.500000 0.593719
vt 0.500000 0.593719
vt 0.500000 0.187604
vt 0.500000 0.187604
vt 0.500000 0.218843
vt 0.500000 0.624958
vt 0.500000 0.624958
vt 0.500000 0.656198
vt 0.500000 0.218843
vt 0.500000 0.218843
vt 0.500000 0.250083
vt 0.500000 0.687438
vt 0.500000 0.656198
vt 0.500000 0.656198
vt 0.500000 0.250083
vt 0.500000 0.250083
vt 0.500000 0.281323
vt 0.500000 0.687438
vt 0.500000 0.687438
vt 0.500000 0.718677
vt 0.500000 0.312562
vt 0.500000 0.281323
vt 0.500000 0.281323
vt 0.000166 0.250083
vt 0.000166 0.250083
vt 0.000166 0.218843
vt 0.000166 0.312562
vt 0.000166 0.312562
vt 0.000166 0.281323
vt 0.000166 0.562479
vt 0.000166 0.593719
vt 0.000166 0.593719
vt 0.000166 0.843636
vt 0.000166 0.874875
vt 0.000166 0.874875
vt 0.000166 0.187604
vt 0.000166 0.187604
vt 0.000166 0.156364
vt 0.000166 0.437521
vt 0.000166 0.468760
vt 0.000166 0.468760
vt 0.000166 0.749917
vt 0.000166 0.749917
vt 0.000166 0.718677
vt 0.000166 0.062645
vt 0.000166 0.062645
vt 0.000166 0.031406
vt 0.000166 0.312562
vt 0.000166 0.343802
vt 0.000166 0.343802
vt 0.000166 0.593719
vt 0.000166 0.624958
vt 0.000166 0.624958
vt 0.000166 0.906115
vt 0.000166 0.906115
vt 0.000166 0.874875
vt 0.000166 0.187604
vt 0.000166 0.218843
vt 0.000166 0.218843
vt 0.000166 0.500000
vt 0.000166 0.500000
vt 0.000166 0.468760
vt 0.000166 0.749917
vt 0.000166 0.781156
vt 0.000166 0.781156
vt 0.000166 0.062645
vt 0.000166 0.093885
vt 0.000166 0.093885
vt 0.000166 0.343802
vt 0.000166 0.375041
vt 0.000166 0.375041
vt 0.000166 0.656198
vt 0.000166 0.656198
vt 0.000166 0.624958
vt 0.000166 0.937355
vt 0.000166 0.937355
vt 0.000166 0.906115
vt 0.000166 0.250083
vt 0.000166 0.250083
vt 0.000166 0.218843
vt 0.000166 0.500000
vt 0.000166 0.531240
vt 0.000166 0.531240
vt 0.000166 0.812396
vt 0.000166 0.812396
vt 0.000166 0.781156
vt 0.000166 0.093885
vt 0.000166 0.125125
vt 0.000166 0.125125
vt 0.000166 0.406281
vt 0.000166 0.406281
vt 0.000166 0.375041
vt 0.000166 0.687438
vt 0.000166 0.687438
vt 0.000166 0.656198
vt 0.000166 0.937355
vt 0.000166 0.968594
vt 0.000166 0.968594
vt 0.000166 0.250083
vt 0.000166 0.281323
vt 0.000166 0.281323
vt 0.000166 0.562479
vt 0.000166 0.562479
vt 0.000166 0.531240
vt 0.000166 0.812396
vt 0.000166 0.843636
vt 0.000166 0.843636
vt 0.000166 0.156364
vt 0.000166 0.156364
vt 0.000166 0.125125
vt 0.000166 0.437521
vt 0.000166 0.437521
vt 0.000166 0.406281
vt 0.000166 0.687438
vt 0.000166 0.718677
vt 0.000166 0.718677
vt 0.000166 0.000166
vt 0.000166 0.031406
vt 0.000166 0.031406
vt 0.762614 0.955558
vt 0.808742 0.946383
vt 0.852195 0.928384
vt 0.852195 0.928384
vt 0.891301 0.902254
vt 0.924558 0.868997
vt 0.924558 0.868997
vt 0.950688 0.829891
vt 0.968687 0.786439
vt 0.968687 0.786439
vt 0.977862 0.740310
vt 0.977862 0.693277
vt 0.977862 0.693277
vt 0.968687 0.647148
vt 0.950688 0.603696
vt 0.950688 0.603696
vt 0.924558 0.564590
vt 0.891301 0.531333
vt 0.891301 0.531333
vt 0.852195 0.505203
vt 0.808742 0.487204
vt 0.808742 0.487204
vt 0.762614 0.478029
vt 0.715581 0.478029
vt 0.715581 0.478029
vt 0.669452 0.487204
vt 0.626000 0.505203
vt 0.626000 0.505203
vt 0.586893 0.531333
vt 0.553636 0.564590
vt 0.553636 0.564590
vt 0.527507 0.603696
vt 0.509508 0.647148
vt 0.509508 0.647148
vt 0.500332 0.693277
vt 0.500332 0.740310
vt 0.500332 0.740310
vt 0.509508 0.786439
vt 0.527507 0.829891
vt 0.527507 0.829891
vt 0.553636 0.868997
vt 0.586893 0.902254
vt 0.586893 0.902254
vt 0.626000 0.928384
vt 0.669452 0.946383
vt 0.669452 0.946383
vt 0.715581 0.955558
vt 0.762614 0.955558
vt 0.762614 0.955558
vt 0.852195 0.928384
vt 0.924558 0.868997
vt 0.924558 0.868997
vt 0.968687 0.786439
vt 0.977862 0.693277
vt 0.977862 0.693277
vt 0.950688 0.603696
vt 0.891301 0.531333
vt 0.891301 0.531333
vt 0.808742 0.487204
vt 0.715581 0.478029
vt 0.715581 0.478029
vt 0.626000 0.505203
vt 0.553636 0.564590
vt 0.553636 0.564590
vt 0.509508 0.647148
vt 0.500332 0.740310
vt 0.500332 0.740310
vt 0.527507 0.829891
vt 0.586893 0.902254
vt 0.586893 0.902254
vt 0.669452 0.946383
vt 0.762614 0.955558
vt 0.762614 0.955558
vt 0.924558 0.868997
vt 0.977862 0.693277
vt 0.977862 0.693277
vt 0.891301 0.531333
vt 0.715581 0.478029
vt 0.715581 0.478029
vt 0.553636 0.564590
vt 0.500332 0.740310
vt 0.500332 0.740310
vt 0.586893 0.902254
vt 0.762614 0.955558
vt 0.762614 0.955558
vt 0.977862 0.693277
vt 0.715581 0.478029
vt 0.000166 0.687438
vt 0.000166 0.687438
vt 0.000166 0.656198
vt 0.000166 0.250083
vt 0.000166 0.281323
vt 0.000166 0.281323
vt 0.000166 0.718677
vt 0.000166 0.718677
vt 0.000166 0.687438
vt 0.000166 0.312562
vt 0.000166 0.312562
vt 0.000166 0.281323
vt 0.000166 0.749917
vt 0.000166 0.749917
vt 0.000166 0.718677
vt 0.000166 0.312562
vt 0.000166 0.343802
vt 0.000166 0.343802
vt 0.000166 0.749917
vt 0.000166 0.781156
vt 0.000166 0.781156
vt 0.000166 0.343802
vt 0.000166 0.375041
vt 0.000166 0.375041
vt 0.000166 0.812396
vt 0.000166 0.812396
vt 0.000166 0.781156
vt 0.000166 0.406281
vt 0.000166 0.406281
vt 0.000166 0.375041
vt 0.000166 0.812396
vt 0.000166 0.843636
vt 0.000166 0.843636
vt 0.000166 0.437521
vt 0.000166 0.437521
vt 0.000166 0.406281
vt 0.000166 0.000166
vt 0.000166 0.031406
vt 0.000166 0.031406
vt 0.000166 0.843636
vt 0.000166 0.874875
vt 0.000166 0.874875
vt 0.000166 0.437521
vt 0.000166 0.468760
vt 0.000166 0.468760
vt 0.000166 0.062645
vt 0.000166 0.062645
vt 0.000166 0.031406
vt 0.000166 0.906115
vt 0.000166 0.906115
vt 0.000166 0.874875
vt 0.000166 0.500000
vt 0.000166 0.500000
vt 0.000166 0.468760
vt 0.000166 0.062645
vt 0.000166 0.093885
vt 0.000166 0.093885
vt 0.000166 0.937355
vt 0.000166 0.937355
vt 0.000166 0.906115
vt 0.000166 0.500000
vt 0.000166 0.531240
vt 0.000166 0.531240
vt 0.000166 0.093885
vt 0.000166 0.125125
vt 0.000166 0.125125
vt 0.000166 0.968594
vt 0.000166 0.968594
vt 0.000166 0.937355
vt 0.000166 0.562479
vt 0.000166 0.562479
vt 0.000166 0.531240
vt 0.000166 0.156364
vt 0.000166 0.156364
vt 0.000166 0.125125
vt 0.000166 0.999834
vt 0.000166 0.999834
vt 0.000166 0.968594
vt 0.000166 0.562479
vt 0.000166 0.593719
vt 0.000166 0.593719
vt 0.000166 0.187604
vt 0.000166 0.187604
vt 0.000166 0.156364
vt 0.000166 0.593719
vt 0.000166 0.624958
vt 0.000166 0.624958
vt 0.000166 0.218843
vt 0.000166 0.218843
vt 0.000166 0.187604
vt 0.000166 0.656198
vt 0.000166 0.656198
vt 0.000166 0.624958
vn 0.0980 0.0000 -0.9952
vn 0.2903 0.0000 -0.9569
vn 0.4714 0.0000 -0.8819
vn 0.6344 0.0000 -0.7730
vn 0.7730 0.0000 -0.6344
vn 0.8819 0.0000 -0.4714
vn 0.9569 0.0000 -0.2903
vn 0.9952 0.0000 -0.0980
vn 0.9952 0.0000 0.0980
vn 0.9569 0.0000 0.2903
vn 0.8819 0.0000 0.4714
vn 0.7730 0.0000 0.6344
vn 0.6344 0.0000 0.7730
vn 0.4714 0.0000 0.8819
vn 0.2903 0.0000 0.9569
vn 0.0980 0.0000 0.9952
vn -0.0980 0.0000 0.9952
vn -0.2903 0.0000 0.9569
vn -0.4714 0.0000 0.8819
vn -0.6344 0.0000 0.7730
vn -0.7730 0.0000 0.6344
vn -0.8819 0.0000 0.4714
vn -0.9569 0.0000 0.2903
vn -0.9952 0.0000 0.0980
vn -0.9952 0.0000 -0.0980
vn -0.9569 0.0000 -0.2903
vn -0.8819 0.0000 -0.4714
vn -0.7730 0.0000 -0.6344
vn -0.6344 0.0000 -0.7730
vn -0.4714 0.0000 -0.8819
vn -0.1356 0.8842 0.4470
vn -0.2903 0.0000 -0.9569
vn -0.0980 0.0000 -0.9952
vn 0.0000 -1.0000 -0.0000
vn 0.8682 0.4888 -0.0855
vn -0.4119 0.8842 -0.2202
vn 0.3611 0.8842 -0.2963
vn 0.2202 0.8842 0.4119
vn -0.4470 0.8842 0.1356
vn 0.0458 0.8842 -0.4649
vn -0.0458 0.8842 -0.4649
vn 0.4470 0.8842 0.1356
vn -0.2202 0.8842 0.4119
vn -0.3611 0.8842 -0.2963
vn 0.4119 0.8842 -0.2202
vn 0.1356 0.8842 0.4470
vn -0.4649 0.8842 0.0458
vn 0.1356 0.8842 -0.4470
vn 0.4119 0.8842 0.2202
vn -0.2963 0.8842 0.3611
vn -0.2963 0.8842 -0.3611
vn 0.4470 0.8842 -0.1356
vn 0.0458 0.8842 0.4649
vn -0.4649 0.8842 -0.0458
vn 0.2202 0.8842 -0.4119
vn 0.3611 0.8842 0.2963
vn -0.3611 0.8842 0.2963
vn -0.2202 0.8842 -0.4119
vn 0.4649 0.8842 -0.0458
vn -0.0458 0.8842 0.4649
vn -0.4470 0.8842 -0.1356
vn 0.2963 0.8842 -0.3611
vn 0.2963 0.8842 0.3611
vn -0.4119 0.8842 0.2202
vn -0.1356 0.8842 -0.4470
vn 0.4649 0.8842 0.0458
vn 0.3675 0.9293 -0.0362
vn -0.7694 0.4888 0.4112
vn 0.8682 0.4888 0.0855
vn -0.8348 0.4888 0.2532
vn 0.8348 0.4888 0.2532
vn -0.8682 0.4888 0.0855
vn 0.7694 0.4888 0.4113
vn -0.8682 0.4888 -0.0855
vn 0.6744 0.4888 0.5535
vn -0.8348 0.4888 -0.2532
vn 0.5535 0.4888 0.6744
vn -0.7694 0.4888 -0.4112
vn 0.4113 0.4888 0.7694
vn 0.0855 0.4888 -0.8682
vn -0.6744 0.4888 -0.5535
vn 0.2532 0.4888 0.8348
vn 0.2532 0.4888 -0.8348
vn -0.5535 0.4888 -0.6744
vn 0.0855 0.4888 0.8682
vn 0.4113 0.4888 -0.7694
vn -0.4113 0.4888 -0.7694
vn -0.0855 0.4888 0.8682
vn 0.5535 0.4888 -0.6744
vn -0.2532 0.4888 -0.8348
vn -0.2532 0.4888 0.8348
vn 0.6744 0.4888 -0.5535
vn -0.0855 0.4888 -0.8682
vn -0.4113 0.4888 0.7694
vn 0.7694 0.4888 -0.4113
vn -0.5535 0.4888 0.6744
vn 0.8348 0.4888 -0.2532
vn -0.6744 0.4888 0.5535
vn 0.0000 1.0000 0.0000
vn -0.3257 0.9293 -0.1741
vn 0.3675 0.9293 0.0362
vn -0.2855 0.9293 -0.2343
vn 0.3534 0.9293 0.1072
vn -0.2343 0.9293 -0.2855
vn 0.3257 0.9293 0.1741
vn -0.1741 0.9293 -0.3257
vn -0.0362 0.9293 0.3675
vn 0.2855 0.9293 0.2343
vn -0.1072 0.9293 -0.3534
vn -0.1072 0.9293 0.3534
vn 0.2343 0.9293 0.2855
vn -0.0362 0.9293 -0.3675
vn -0.1741 0.9293 0.3257
vn 0.1741 0.9293 0.3257
vn 0.0362 0.9293 -0.3675
vn -0.2343 0.9293 0.2855
vn 0.1072 0.9293 0.3534
vn 0.1072 0.9293 -0.3534
vn -0.2855 0.9293 0.2343
vn 0.0362 0.9293 0.3675
vn 0.1741 0.9293 -0.3257
vn -0.3257 0.9293 0.1741
vn 0.2343 0.9293 -0.2855
vn -0.3534 0.9293 0.1072
vn 0.2855 0.9293 -0.2343
vn -0.3675 0.9293 0.0362
vn 0.3257 0.9293 -0.1741
vn -0.3675 0.9293 -0.0362
vn 0.3534 0.9293 -0.1072
vn -0.3534 0.9293 -0.1072
vn -0.4536 -0.8901 0.0447
vn 0.4019 -0.8901 -0.2148
vn -0.4536 -0.8901 -0.0447
vn 0.4361 -0.8901 -0.1323
vn -0.4361 -0.8901 -0.1323
vn 0.4536 -0.8901 -0.0447
vn -0.4019 -0.8901 -0.2148
vn 0.4536 -0.8901 0.0447
vn -0.3523 -0.8901 -0.2891
vn 0.4361 -0.8901 0.1323
vn -0.2891 -0.8901 -0.3523
vn 0.4019 -0.8901 0.2148
vn -0.2148 -0.8901 -0.4019
vn -0.0447 -0.8901 0.4536
vn 0.3523 -0.8901 0.2891
vn -0.1323 -0.8901 -0.4361
vn -0.1323 -0.8901 0.4361
vn 0.2891 -0.8901 0.3523
vn -0.0447 -0.8901 -0.4536
vn -0.2148 -0.8901 0.4019
vn 0.2148 -0.8901 0.4019
vn 0.0447 -0.8901 -0.4536
vn -0.2891 -0.8901 0.3523
vn 0.1323 -0.8901 0.4361
vn 0.1323 -0.8901 -0.4361
vn -0.3523 -0.8901 0.2891
vn 0.0447 -0.8901 0.4536
vn 0.2148 -0.8901 -0.4019
vn -0.4019 -0.8901 0.2148
vn 0.2891 -0.8901 -0.3523
vn -0.4361 -0.8901 0.1323
vn 0.3523 -0.8901 -0.2891
vn -0.7694 0.4888 0.4113
vn -0.8348 0.4888 0.2533
vn 0.6744 0.4888 0.5534
vn -0.7694 0.4888 -0.4113
vn -0.6744 0.4888 -0.5534
vn 0.4112 0.4888 -0.7694
vn -0.4112 0.4888 0.7694
s 1
f 1/1/1 2/2/1 3/3/1
f 4/4/2 5/5/2 6/6/2
f 7/7/3 8/8/3 9/9/3
f 10/10/4 11/11/4 12/12/4
f 13/13/5 14/14/5 15/15/5
f 16/16/6 17/17/6 18/18/6
f 19/19/7 20/20/7 21/21/7
f 22/22/8 23/23/8 24/24/8
f 25/25/9 26/26/9 27/27/9
f 28/28/10 29/29/10 30/30/10
f 31/31/11 32/32/11 33/33/11
f 34/34/12 35/35/12 36/36/12
f 37/37/13 38/38/13 39/39/13
f 40/40/14 41/41/14 42/42/14
f 43/43/15 44/44/15 45/45/15
f 46/46/16 47/47/16 48/48/16
f 49/49/17 50/50/17 51/51/17
f 52/52/18 53/53/18 54/54/18
f 55/55/19 56/56/19 57/57/19
f 58/58/20 59/59/20 60/60/20
f 61/61/21 62/62/21 63/63/21
f 64/64/22 65/65/22 66/66/22
f 67/67/23 68/68/23 69/69/23
f 70/70/24 71/71/24 72/72/24
f 73/73/25 74/74/25 75/75/25
f 76/76/26 77/77/26 78/78/26
f 79/79/27 80/80/27 81/81/27
f 82/82/28 83/83/28 84/84/28
f 85/85/29 86/86/29 87/87/29
f 88/88/30 89/89/30 90/90/30
f 91/91/31 92/92/31 93/93/31
f 94/94/32 95/95/32 96/96/32
f 97/97/33 98/98/33 99/99/33
f 100/100/34 101/101/34 102/102/34
f 103/103/35 104/104/35 105/105/35
f 106/106/36 107/107/36 108/108/36
f 109/109/37 110/110/37 111/111/37
f 112/112/38 113/113/38 114/114/38
f 115/115/39 116/116/39 117/117/39
f 118/118/40 119/119/40 120/120/40
f 121/121/41 122/122/41 123/123/41
f 124/124/42 125/125/42 126/126/42
f 127/127/43 128/128/43 129/129/43
f 130/130/44 131/131/44 132/132/44
f 133/133/45 134/134/45 135/135/45
f 136/136/46 137/137/46 138/138/46
f 139/139/47 140/140/47 141/141/47
f 142/142/48 143/143/48 144/144/48
f 145/145/49 146/146/49 147/147/49
f 148/148/50 149/149/50 150/150/50
f 151/151/51 152/152/51 153/153/51
f 154/154/52 155/155/52 156/156/52
f 157/157/53 158/158/53 159/159/53
f 160/160/54 161/161/54 162/162/54
f 163/163/55 164/164/55 165/165/55
f 166/166/56 167/167/56 168/168/56
f 169/169/57 170/170/57 171/171/57
f 172/172/58 173/173/58 174/174/58
f 175/175/59 176/176/59 177/177/59
f 178/178/60 179/179/60 180/180/60
f 181/181/61 182/182/61 183/183/61
f 184/184/62 185/185/62 186/186/62
f 187/187/63 188/188/63 189/189/63
f 190/190/64 191/191/64 192/192/64
f 193/193/65 194/194/65 195/195/65
f 196/196/66 197/197/66 198/198/66
f 199/199/67 200/200/67 201/201/67
f 202/202/68 203/203/68 204/204/68
f 205/205/69 206/206/69 207/207/69
f 208/208/70 209/209/70 210/210/70
f 211/211/71 212/212/71 213/213/71
f 214/214/72 215/215/72 216/216/72
f 217/217/73 218/218/73 219/219/73
f 220/220/74 221/221/74 222/222/74
f 223/223/75 224/224/75 225/225/75
f 226/226/76 227/227/76 228/228/76
f 229/229/77 230/230/77 231/231/77
f 232/232/78 233/233/78 234/234/78
f 235/235/79 236/236/79 237/237/79
f 238/238/80 239/239/80 240/240/80
f 241/241/81 242/242/81 243/243/81
f 244/244/82 245/245/82 246/246/82
f 247/247/83 248/248/83 249/249/83
f 250/250/84 251/251/84 252/252/84
f 253/253/85 254/254/85 255/255/85
f 256/256/86 257/257/86 258/258/86
f 259/259/87 260/260/87 261/261/87
f 262/262/88 263/263/88 264/264/88
f 265/265/89 266/266/89 267/267/89
f 268/268/90 269/269/90 270/270/90
f 271/271/91 272/272/91 273/273/91
f 274/274/92 275/275/92 276/276/92
f 277/277/93 278/278/93 279/279/93
f 280/280/94 281/281/94 282/282/94
f 283/283/95 284/284/95 285/285/95
f 286/286/96 287/287/96 288/288/96
f 289/289/97 290/290/97 291/291/97
f 292/292/98 293/293/98 294/294/98
f 295/295/99 296/296/99 297/297/99
f 298/298/100 299/299/100 300/300/100
f 301/301/101 302/302/101 303/303/101
f 304/304/102 305/305/102 306/306/102
f 307/307/103 308/308/103 309/309/103
f 310/310/104 311/311/104 312/312/104
f 313/313/105 314/314/105 315/315/105
f 316/316/106 317/317/106 318/318/106
f 319/319/107 320/320/107 321/321/107
f 322/322/108 323/323/108 324/324/108
f 325/325/109 326/326/109 327/327/109
f 328/328/110 329/329/110 330/330/110
f 331/331/111 332/332/111 333/333/111
f 334/334/112 335/335/112 336/336/112
f 337/337/113 338/338/113 339/339/113
f 340/340/114 341/341/114 342/342/114
f 343/343/115 344/344/115 345/345/115
f 346/346/116 347/347/116 348/348/116
f 349/349/117 350/350/117 351/351/117
f 352/352/118 353/353/118 354/354/118
f 355/355/119 356/356/119 357/357/119
f 358/358/120 359/359/120 360/360/120
f 361/361/121 362/362/121 363/363/121
f 364/364/122 365/365/122 366/366/122
f 367/367/123 368/368/123 369/369/123
f 370/370/124 371/371/124 372/372/124
f 373/373/125 374/374/125 375/375/125
f 376/376/126 377/377/126 378/378/126
f 379/379/127 380/380/127 381/381/127
f 382/382/128 383/383/128 384/384/128
f 385/385/129 386/386/129 387/387/129
f 388/388/130 389/389/130 390/390/130
f 391/391/131 392/392/131 393/393/131
f 394/394/34 395/395/34 396/396/34
f 397/397/34 398/398/34 399/399/34
f 400/400/34 401/401/34 402/402/34
f 403/403/34 404/404/34 405/405/34
f 406/406/34 407/407/34 408/408/34
f 409/409/34 410/410/34 411/411/34
f 412/412/34 413/413/34 414/414/34
f 415/415/34 416/416/34 417/417/34
f 418/418/34 419/419/34 420/420/34
f 421/421/34 422/422/34 423/423/34
f 424/424/34 425/425/34 426/426/34
f 427/427/34 428/428/34 429/429/34
f 430/430/34 431/431/34 432/432/34
f 433/433/34 434/434/34 435/435/34
f 436/436/34 437/437/34 438/438/34
f 439/439/34 440/440/34 441/441/34
f 442/442/34 443/443/34 444/444/34
f 445/445/34 446/446/34 447/447/34
f 448/448/34 449/449/34 450/450/34
f 451/451/34 452/452/34 453/453/34
f 454/454/34 455/455/34 456/456/34
f 457/457/34 458/458/34 459/459/34
f 460/460/34 461/461/34 462/462/34
f 463/463/34 464/464/34 465/465/34
f 466/466/34 467/467/34 468/468/34
f 469/469/34 470/470/34 471/471/34
f 472/472/34 473/473/34 474/474/34
f 475/475/34 476/476/34 477/477/34
f 478/478/34 479/479/34 480/480/34
f 481/481/34 482/482/34 483/483/34
f 484/484/34 485/485/34 486/486/34
f 487/487/34 488/488/34 489/489/34
f 490/490/132 491/491/132 492/492/132
f 493/493/133 494/494/133 495/495/133
f 496/496/134 497/497/134 498/498/134
f 499/499/135 500/500/135 501/501/135
f 502/502/136 503/503/136 504/504/136
f 505/505/137 506/506/137 507/507/137
f 508/508/138 509/509/138 510/510/138
f 511/511/139 512/512/139 513/513/139
f 514/514/140 515/515/140 516/516/140
f 517/517/141 518/518/141 519/519/141
f 520/520/142 521/521/142 522/522/142
f 523/523/143 524/524/143 525/525/143
f 526/526/144 527/527/144 528/528/144
f 529/529/145 530/530/145 531/531/145
f 532/532/146 533/533/146 534/534/146
f 535/535/147 536/536/147 537/537/147
f 538/538/148 539/539/148 540/540/148
f 541/541/149 542/542/149 543/543/149
f 544/544/150 545/545/150 546/546/150
f 547/547/151 548/548/151 549/549/151
f 550/550/152 551/551/152 552/552/152
f 553/553/153 554/554/153 555/555/153
f 556/556/154 557/557/154 558/558/154
f 559/559/155 560/560/155 561/561/155
f 562/562/156 563/563/156 564/564/156
f 565/565/157 566/566/157 567/567/157
f 568/568/158 569/569/158 570/570/158
f 571/571/159 572/572/159 573/573/159
f 574/574/160 575/575/160 576/576/160
f 577/577/161 578/578/161 579/579/161
f 580/580/162 581/581/162 582/582/162
f 583/583/1 584/584/1 585/585/1
f 586/586/2 587/587/2 588/588/2
f 589/589/3 590/590/3 591/591/3
f 592/592/4 593/593/4 594/594/4
f 595/595/5 596/596/5 597/597/5
f 598/598/6 599/599/6 600/600/6
f 601/601/7 602/602/7 603/603/7
f 604/604/8 605/605/8 606/606/8
f 607/607/9 608/608/9 609/609/9
f 610/610/10 611/611/10 612/612/10
f 613/613/11 614/614/11 615/615/11
f 616/616/12 617/617/12 618/618/12
f 619/619/13 620/620/13 621/621/13
f 622/622/14 623/623/14 624/624/14
f 625/625/15 626/626/15 627/627/15
f 628/628/16 629/629/16 630/630/16
f 631/631/17 632/632/17 633/633/17
f 634/634/18 635/635/18 636/636/18
f 637/637/19 638/638/19 639/639/19
f 640/640/20 641/641/20 642/642/20
f 643/643/21 644/644/21 645/645/21
f 646/646/22 647/647/22 648/648/22
f 649/649/23 650/650/23 651/651/23
f 652/652/24 653/653/24 654/654/24
f 655/655/25 656/656/25 657/657/25
f 658/658/26 659/659/26 660/660/26
f 661/661/27 662/662/27 663/663/27
f 664/664/28 665/665/28 666/666/28
f 667/667/29 668/668/29 669/669/29
f 670/670/30 671/671/30 672/672/30
f 673/673/31 674/674/31 675/675/31
f 676/676/32 677/677/32 678/678/32
f 679/679/33 680/680/33 681/681/33
f 682/682/34 683/683/34 684/684/34
f 685/685/35 686/686/35 687/687/35
f 688/688/36 689/689/36 690/690/36
f 691/691/37 692/692/37 693/693/37
f 694/694/38 695/695/38 696/696/38
f 697/697/39 698/698/39 699/699/39
f 700/700/40 701/701/40 702/702/40
f 703/703/41 704/704/41 705/705/41
f 706/706/42 707/707/42 708/708/42
f 709/709/43 710/710/43 711/711/43
f 712/712/44 713/713/44 714/714/44
f 715/715/45 716/716/45 717/717/45
f 718/718/46 719/719/46 720/720/46
f 721/721/47 722/722/47 723/723/47
f 724/724/48 725/725/48 726/726/48
f 727/727/49 728/728/49 729/729/49
f 730/730/50 731/731/50 732/732/50
f 733/733/51 734/734/51 735/735/51
f 736/736/52 737/737/52 738/738/52
f 739/739/53 740/740/53 741/741/53
f 742/742/54 743/743/54 744/744/54
f 745/745/55 746/746/55 747/747/55
f 748/748/56 749/749/56 750/750/56
f 751/751/57 752/752/57 753/753/57
f 754/754/58 755/755/58 756/756/58
f 757/757/59 758/758/59 759/759/59
f 760/760/60 761/761/60 762/762/60
f 763/763/61 764/764/61 765/765/61
f 766/766/62 767/767/62 768/768/62
f 769/769/63 770/770/63 771/771/63
f 772/772/64 773/773/64 774/774/64
f 775/775/65 776/776/65 777/777/65
f 778/778/66 779/779/66 780/780/66
f 781/781/67 782/782/67 783/783/67
f 784/784/163 785/785/163 786/786/163
f 787/787/69 788/788/69 789/789/69
f 790/790/164 791/791/164 792/792/164
f 793/793/71 794/794/71 795/795/71
f 796/796/72 797/797/72 798/798/72
f 799/799/73 800/800/73 801/801/73
f 802/802/74 803/803/74 804/804/74
f 805/805/165 806/806/165 807/807/165
f 808/808/76 809/809/76 810/810/76
f 811/811/77 812/812/77 813/813/77
f 814/814/166 815/815/166 816/816/166
f 817/817/79 818/818/79 819/819/79
f 820/820/80 821/821/80 822/822/80
f 823/823/167 824/824/167 825/825/167
f 826/826/82 827/827/82 828/828/82
f 829/829/83 830/830/83 831/831/83
f 832/832/84 833/833/84 834/834/84
f 835/835/85 836/836/85 837/837/85
f 838/838/168 839/839/168 840/840/168
f 841/841/87 842/842/87 843/843/87
f 844/844/88 845/845/88 846/846/88
f 847/847/89 848/848/89 849/849/89
f 850/850/90 851/851/90 852/852/90
f 853/853/91 854/854/91 855/855/91
f 856/856/92 857/857/92 858/858/92
f 859/859/93 860/860/93 861/861/93
f 862/862/169 863/863/169 864/864/169
f 865/865/95 866/866/95 867/867/95
f 868/868/96 869/869/96 870/870/96
f 871/871/97 872/872/97 873/873/97
f 874/874/98 875/875/98 876/876/98
f 877/877/99 878/878/99 879/879/99
f 880/880/99 881/881/99 882/882/99
f 883/883/99 884/884/99 885/885/99
f 886/886/99 887/887/99 888/888/99
f 889/889/99 890/890/99 891/891/99
f 892/892/99 893/893/99 894/894/99
f 895/895/99 896/896/99 897/897/99
f 898/898/99 899/899/99 900/900/99
f 901/901/99 902/902/99 903/903/99
f 904/904/99 905/905/99 906/906/99
f 907/907/99 908/908/99 909/909/99
f 910/910/99 911/911/99 912/912/99
f 913/913/99 914/914/99 915/915/99
f 916/916/99 917/917/99 918/918/99
f 919/919/99 920/920/99 921/921/99
f 922/922/99 923/923/99 924/924/99
f 925/925/99 926/926/99 927/927/99
f 928/928/99 929/929/99 930/930/99
f 931/931/99 932/932/99 933/933/99
f 934/934/99 935/935/99 936/936/99
f 937/937/99 938/938/99 939/939/99
f 940/940/99 941/941/99 942/942/99
f 943/943/99 944/944/99 945/945/99
f 946/946/99 947/947/99 948/948/99
f 949/949/99 950/950/99 951/951/99
f 952/952/99 953/953/99 954/954/99
f 955/955/99 956/956/99 957/957/99
f 958/958/99 959/959/99 960/960/99
f 961/961/99 962/962/99 963/963/99
f 964/964/100 965/965/100 966/966/100
f 967/967/101 968/968/101 969/969/101
f 970/970/102 971/971/102 972/972/102
f 973/973/103 974/974/103 975/975/103
f 976/976/104 977/977/104 978/978/104
f 979/979/105 980/980/105 981/981/105
f 982/982/106 983/983/106 984/984/106
f 985/985/107 986/986/107 987/987/107
f 988/988/108 989/989/108 990/990/108
f 991/991/109 992/992/109 993/993/109
f 994/994/110 995/995/110 996/996/110
f 997/997/111 998/998/111 999/999/111
f 1000/1000/112 1001/1001/112 1002/1002/112
f 1003/1003/113 1004/1004/113 1005/1005/113
f 1006/1006/114 1007/1007/114 1008/1008/114
f 1009/1009/115 1010/1010/115 1011/1011/115
f 1012/1012/116 1013/1013/116 1014/1014/116
f 1015/1015/117 1016/1016/117 1017/1017/117
f 1018/1018/118 1019/1019/118 1020/1020/118
f 1021/1021/119 1022/1022/119 1023/1023/119
f 1024/1024/120 1025/1025/120 1026/1026/120
f 1027/1027/121 1028/1028/121 1029/1029/121
f 1030/1030/122 1031/1031/122 1032/1032/122
f 1033/1033/123 1034/1034/123 1035/1035/123
f 1036/1036/124 1037/1037/124 1038/1038/124
f 1039/1039/125 1040/1040/125 1041/1041/125
f 1042/1042/126 1043/1043/126 1044/1044/126
f 1045/1045/127 1046/1046/127 1047/1047/127
f 1048/1048/128 1049/1049/128 1050/1050/128
f 1051/1051/129 1052/1052/129 1053/1053/129
f 1054/1054/130 1055/1055/130 1056/1056/130
f 1057/1057/131 1058/1058/131 1059/1059/131
f 1060/1060/34 1061/1061/34 1062/1062/34
f 1063/1063/34 1064/1064/34 1065/1065/34
f 1066/1066/34 1067/1067/34 1068/1068/34
f 1069/1069/34 1070/1070/34 1071/1071/34
f 1072/1072/34 1073/1073/34 1074/1074/34
f 1075/1075/34 1076/1076/34 1077/1077/34
f 1078/1078/34 1079/1079/34 1080/1080/34
f 1081/1081/34 1082/1082/34 1083/1083/34
f 1084/1084/34 1085/1085/34 1086/1086/34
f 1087/1087/34 1088/1088/34 1089/1089/34
f 1090/1090/34 1091/1091/34 1092/1092/34
f 1093/1093/34 1094/1094/34 1095/1095/34
f 1096/1096/34 1097/1097/34 1098/1098/34
f 1099/1099/34 1100/1100/34 1101/1101/34
f 1102/1102/34 1103/1103/34 1104/1104/34
f 1105/1105/34 1106/1106/34 1107/1107/34
f 1108/1108/34 1109/1109/34 1110/1110/34
f 1111/1111/34 1112/1112/34 1113/1113/34
f 1114/1114/34 1115/1115/34 1116/1116/34
f 1117/1117/34 1118/1118/34 1119/1119/34
f 1120/1120/34 1121/1121/34 1122/1122/34
f 1123/1123/34 1124/1124/34 1125/1125/34
f 1126/1126/34 1127/1127/34 1128/1128/34
f 1129/1129/34 1130/1130/34 1131/1131/34
f 1132/1132/34 1133/1133/34 1134/1134/34
f 1135/1135/34 1136/1136/34 1137/1137/34
f 1138/1138/34 1139/1139/34 1140/1140/34
f 1141/1141/34 1142/1142/34 1143/1143/34
f 1144/1144/34 1145/1145/34 1146/1146/34
f 1147/1147/34 1148/1148/34 1149/1149/34
f 1150/1150/34 1151/1151/34 1152/1152/34
f 1153/1153/34 1154/1154/34 1155/1155/34
f 1156/1156/34 1157/1157/34 1158/1158/34
f 1159/1159/34 1160/1160/34 1161/1161/34
f 1162/1162/34 1163/1163/34 1164/1164/34
f 1165/1165/34 1166/1166/34 1167/1167/34
f 1168/1168/34 1169/1169/34 1170/1170/34
f 1171/1171/34 1172/1172/34 1173/1173/34
f 1174/1174/34 1175/1175/34 1176/1176/34
f 1177/1177/34 1178/1178/34 1179/1179/34
f 1180/1180/34 1181/1181/34 1182/1182/34
f 1183/1183/34 1184/1184/34 1185/1185/34
f 1186/1186/34 1187/1187/34 1188/1188/34
f 1189/1189/34 1190/1190/34 1191/1191/34
f 1192/1192/34 1193/1193/34 1194/1194/34
f 1195/1195/34 1196/1196/34 1197/1197/34
f 1198/1198/34 1199/1199/34 1200/1200/34
f 1201/1201/34 1202/1202/34 1203/1203/34
f 1204/1204/34 1205/1205/34 1206/1206/34
f 1207/1207/34 1208/1208/34 1209/1209/34
f 1210/1210/34 1211/1211/34 1212/1212/34
f 1213/1213/34 1214/1214/34 1215/1215/34
f 1216/1216/34 1217/1217/34 1218/1218/34
f 1219/1219/34 1220/1220/34 1221/1221/34
f 1222/1222/34 1223/1223/34 1224/1224/34
f 1225/1225/34 1226/1226/34 1227/1227/34
f 1228/1228/34 1229/1229/34 1230/1230/34
f 1231/1231/34 1232/1232/34 1233/1233/34
f 1234/1234/34 1235/1235/34 1236/1236/34
f 1237/1237/34 1238/1238/34 1239/1239/34
f 1240/1240/132 1241/1241/132 1242/1242/132
f 1243/1243/133 1244/1244/133 1245/1245/133
f 1246/1246/134 1247/1247/134 1248/1248/134
f 1249/1249/135 1250/1250/135 1251/1251/135
f 1252/1252/136 1253/1253/136 1254/1254/136
f 1255/1255/137 1256/1256/137 1257/1257/137
f 1258/1258/138 1259/1259/138 1260/1260/138
f 1261/1261/139 1262/1262/139 1263/1263/139
f 1264/1264/140 1265/1265/140 1266/1266/140
f 1267/1267/141 1268/1268/141 1269/1269/141
f 1270/1270/142 1271/1271/142 1272/1272/142
f 1273/1273/143 1274/1274/143 1275/1275/143
f 1276/1276/144 1277/1277/144 1278/1278/144
f 1279/1279/145 1280/1280/145 1281/1281/145
f 1282/1282/146 1283/1283/146 1284/1284/146
f 1285/1285/147 1286/1286/147 1287/1287/147
f 1288/1288/148 1289/1289/148 1290/1290/148
f 1291/1291/149 1292/1292/149 1293/1293/149
f 1294/1294/150 1295/1295/150 1296/1296/150
f 1297/1297/151 1298/1298/151 1299/1299/151
f 1300/1300/152 1301/1301/152 1302/1302/152
f 1303/1303/153 1304/1304/153 1305/1305/153
f 1306/1306/154 1307/1307/154 1308/1308/154
f 1309/1309/155 1310/1310/155 1311/1311/155
f 1312/1312/156 1313/1313/156 1314/1314/156
f 1315/1315/157 1316/1316/157 1317/1317/157
f 1318/1318/158 1319/1319/158 1320/1320/158
f 1321/1321/159 1322/1322/159 1323/1323/159
f 1324/1324/160 1325/1325/160 1326/1326/160
f 1327/1327/161 1328/1328/161 1329/1329/161
f 1330/1330/162 1331/1331/162 1332/1332/162
