# Blender v2.79 (sub 0) OBJ File: ''
# www.blender.org
o Cube.001_Cube.002
v 62.974251 85.594864 -35.020462
v 62.974251 -0.546502 -110.349030
v 61.409649 -0.546514 -35.020477
v 62.974251 85.594872 -110.349014
v 68.228760 -0.546502 -110.349030
v 70.535812 85.594864 -35.020462
v 72.100418 -0.546514 -35.020477
v 69.793365 -0.546525 29.473154
v 68.228760 74.494095 24.575769
v 69.100960 85.594849 29.473167
v 69.100960 85.594841 92.354462
v 68.228760 158.382874 29.473181
v 68.228760 167.636368 92.354477
v 68.228760 -0.546535 92.354446
v 62.974251 74.494095 24.575769
v 62.974251 85.594849 29.473167
v 61.409649 -0.546525 29.473154
v -10.565476 85.594872 -112.202362
v 64.763092 -0.546502 -112.202377
v -10.565476 -0.546502 -112.202377
v 64.763092 85.594872 -112.202362
v 64.763092 -0.546503 -106.947876
v 64.763092 85.594872 -106.947861
v -10.565476 -0.546503 -106.947853
v -75.059105 85.594872 -112.202339
v 68.228760 171.048935 -110.348999
v 68.228760 85.594872 -110.349014
v -75.059105 85.594872 -106.947838
v -75.059105 -0.546502 -112.202354
v -75.059105 -0.546503 -106.947853
v -10.565476 85.594872 -106.947838
v -10.565476 162.752090 -112.202354
v 64.763092 171.048935 -112.202347
v 62.974251 85.594841 92.354462
v 62.974251 -0.546535 92.354446
v 65.067123 85.594841 95.396301
v 0.573519 158.069260 95.396332
v 0.573519 85.594841 96.958977
v -72.966217 76.832710 18.214430
v -72.966209 -0.546535 93.542984
v -72.966217 -0.546523 18.214417
v -72.966209 85.594841 93.542999
v -78.220718 -0.546535 93.542984
v -78.673080 76.832710 18.214430
v -78.673080 -0.546523 18.214417
v -72.966232 -0.546512 -46.279213
v -72.966232 85.594864 -46.279198
v -78.220718 85.594841 93.542999
v -83.851837 85.594864 -46.279198
v -78.220741 -0.546502 -109.160492
v -83.851837 -0.546512 -46.279213
v -74.755043 -0.546536 95.396317
v 0.573519 -0.546536 96.958961
v -74.755043 85.594841 95.396332
v -74.755043 -0.546535 90.141808
v -74.755043 85.594841 90.141823
v 0.573519 -0.546535 90.141785
v 68.228760 171.048920 -35.020451
v 62.974251 171.048920 -35.020451
v 65.067123 85.594841 90.141769
v 65.067123 -0.546536 95.396286
v 65.067123 -0.546535 90.141754
v 0.573519 85.594841 90.141800
v -10.565476 154.504745 -106.947830
v -78.220741 85.594872 -109.160477
v -72.966240 -0.546502 -109.160492
v -72.966240 171.048935 -109.160461
v -72.966240 85.594872 -109.160477
v -4.137672 86.519897 -108.506592
v -75.080673 86.519890 -52.280853
v -4.137672 86.519890 -52.280853
v 62.613235 83.295219 -108.506592
v -4.137672 83.295219 -108.506592
v 62.613235 86.519890 -52.280853
v 62.613235 83.295189 91.423668
v 62.613235 83.295212 -52.280853
v 62.613235 86.519867 91.423668
v -4.137672 83.295189 91.423668
v -4.137672 83.295212 -52.280853
v 62.613235 86.519897 -108.506592
v -4.137672 86.519867 91.423668
v -75.080673 83.295219 -108.506592
v -75.080673 83.295212 -52.280853
v -75.080673 86.519897 -108.506592
v -4.137672 0.035397 44.039589
v -75.080673 -3.189281 44.039589
v -4.137672 -3.189281 44.039589
v -75.080673 0.035397 44.039589
v 62.974251 74.494110 -30.123070
v 62.974251 1.435203 24.575758
v 68.228760 1.435212 -30.123081
v 62.974251 1.435212 -30.123081
v 68.228760 74.494110 -30.123070
v 68.228760 1.435203 24.575758
v 62.974251 171.048935 -110.348999
v 64.763092 162.801590 -106.947853
v -75.059105 171.048935 -106.947823
v 62.974251 158.382874 29.473181
v -74.755043 156.440842 90.141830
v 0.573519 158.019119 90.141808
v 65.067123 166.657150 95.396317
v 65.067123 171.048904 90.141785
v -72.966232 157.893433 -46.279186
v -78.220741 171.048935 -109.160461
v -78.220741 157.893433 -46.279186
v 62.974251 167.636368 92.354477
v -74.755043 160.882767 95.396339
v -75.059105 171.048935 -112.202324
v -4.137672 0.035397 44.039589
v -4.137672 0.035397 44.039589
v -4.137672 0.035397 44.039589
v -4.137672 0.035397 44.039589
v -4.137672 0.035397 44.039589
v -75.080673 -3.189281 44.039589
v -75.080673 -3.189281 44.039589
v -75.080673 -3.189281 44.039589
v -75.080673 -3.189281 44.039589
v 65.067123 85.594841 90.141769
v 65.067123 85.594841 90.141769
v 65.067123 85.594841 90.141769
v 65.067123 85.594841 90.141769
v 65.067123 85.594841 90.141769
v 65.067123 85.594841 90.141769
v 0.573519 158.019119 90.141808
v 0.573519 158.019119 90.141808
v 0.573519 158.019119 90.141808
v 0.573519 158.019119 90.141808
v 0.573519 158.019119 90.141808
v 62.974251 158.382874 29.473181
v 62.974251 158.382874 29.473181
v 62.974251 158.382874 29.473181
v 62.974251 158.382874 29.473181
v 62.974251 167.636368 92.354477
v 62.974251 167.636368 92.354477
v 65.067123 171.048904 90.141785
v 65.067123 171.048904 90.141785
v -72.966209 -0.546535 93.542984
v -72.966209 -0.546535 93.542984
v -72.966209 -0.546535 93.542984
v -72.966209 85.594841 93.542999
v -72.966209 85.594841 93.542999
v -72.966209 85.594841 93.542999
v 62.613235 86.519867 91.423668
v 62.613235 86.519867 91.423668
v 62.613235 86.519867 91.423668
v 62.613235 86.519867 91.423668
v -4.137672 83.295189 91.423668
v -4.137672 83.295189 91.423668
v -4.137672 83.295189 91.423668
v -4.137672 83.295189 91.423668
v 61.409649 -0.546525 29.473154
v 61.409649 -0.546525 29.473154
v 61.409649 -0.546525 29.473154
v 61.409649 -0.546525 29.473154
v 61.409649 -0.546525 29.473154
v 61.409649 -0.546525 29.473154
v 62.974251 1.435212 -30.123081
v 62.974251 1.435212 -30.123081
v 62.974251 1.435212 -30.123081
v 62.974251 1.435212 -30.123081
v -4.137672 83.295212 -52.280853
v -4.137672 83.295212 -52.280853
v -4.137672 83.295212 -52.280853
v -4.137672 83.295212 -52.280853
v -4.137672 83.295212 -52.280853
v -4.137672 83.295212 -52.280853
v -4.137672 83.295212 -52.280853
v -4.137672 83.295212 -52.280853
v -4.137672 83.295212 -52.280853
v -4.137672 83.295212 -52.280853
v -75.080673 83.295212 -52.280853
v -75.080673 83.295212 -52.280853
v -75.080673 83.295212 -52.280853
v -75.080673 83.295212 -52.280853
v -4.137672 86.519897 -108.506592
v -4.137672 86.519897 -108.506592
v -4.137672 86.519897 -108.506592
v -4.137672 86.519897 -108.506592
v -4.137672 86.519897 -108.506592
v -4.137672 86.519897 -108.506592
v -75.080673 86.519890 -52.280853
v -75.080673 86.519890 -52.280853
v -75.080673 86.519890 -52.280853
v -75.080673 86.519890 -52.280853
v -75.080673 86.519890 -52.280853
v -75.080673 86.519890 -52.280853
v 64.763092 85.594872 -106.947861
v 64.763092 85.594872 -106.947861
v 64.763092 85.594872 -106.947861
v 64.763092 85.594872 -106.947861
v 64.763092 85.594872 -106.947861
v 64.763092 162.801590 -106.947853
v 64.763092 162.801590 -106.947853
v 64.763092 162.801590 -106.947853
v 64.763092 162.801590 -106.947853
v -72.966217 76.832710 18.214430
v -72.966217 76.832710 18.214430
v -72.966217 76.832710 18.214430
v -72.966217 76.832710 18.214430
v -72.966217 76.832710 18.214430
v -72.966217 76.832710 18.214430
v -78.220718 85.594841 93.542999
v -78.220718 85.594841 93.542999
v -78.220718 85.594841 93.542999
v -78.220718 -0.546535 93.542984
v -78.220718 -0.546535 93.542984
v -78.220718 -0.546535 93.542984
v -78.220718 -0.546535 93.542984
v -78.220718 -0.546535 93.542984
v -74.755043 156.440842 90.141830
v -74.755043 156.440842 90.141830
v -74.755043 156.440842 90.141830
v -74.755043 156.440842 90.141830
v -74.755043 156.440842 90.141830
v 62.974251 -0.546535 92.354446
v 62.974251 -0.546535 92.354446
v 62.974251 -0.546535 92.354446
v 62.974251 -0.546535 92.354446
v 64.763092 -0.546502 -112.202377
v 64.763092 -0.546502 -112.202377
v 64.763092 -0.546502 -112.202377
v 64.763092 -0.546503 -106.947876
v 64.763092 -0.546503 -106.947876
v 64.763092 -0.546503 -106.947876
v 64.763092 -0.546503 -106.947876
v -74.755043 -0.546535 90.141808
v -74.755043 -0.546535 90.141808
v -74.755043 -0.546535 90.141808
v -74.755043 85.594841 90.141823
v -74.755043 85.594841 90.141823
v -74.755043 85.594841 90.141823
v -74.755043 85.594841 90.141823
v -10.565476 -0.546502 -112.202377
v -10.565476 -0.546502 -112.202377
v -10.565476 -0.546502 -112.202377
v -10.565476 -0.546502 -112.202377
v -10.565476 -0.546502 -112.202377
v -10.565476 -0.546503 -106.947853
v -10.565476 -0.546503 -106.947853
v -10.565476 -0.546503 -106.947853
v -10.565476 -0.546503 -106.947853
v -10.565476 -0.546503 -106.947853
v -78.673080 -0.546523 18.214417
v -78.673080 -0.546523 18.214417
v -78.673080 -0.546523 18.214417
v -78.673080 -0.546523 18.214417
v -83.851837 -0.546512 -46.279213
v -83.851837 -0.546512 -46.279213
v -83.851837 -0.546512 -46.279213
v -83.851837 -0.546512 -46.279213
v 68.228760 171.048920 -35.020451
v 68.228760 171.048920 -35.020451
v 68.228760 171.048920 -35.020451
v 68.228760 171.048920 -35.020451
v 68.228760 171.048920 -35.020451
v 62.974251 171.048935 -110.348999
v 62.974251 171.048935 -110.348999
v 62.974251 171.048935 -110.348999
v 62.974251 171.048935 -110.348999
v -10.565476 85.594872 -112.202362
v -10.565476 85.594872 -112.202362
v -10.565476 85.594872 -112.202362
v -10.565476 85.594872 -112.202362
v 62.974251 85.594864 -35.020462
v 62.974251 85.594864 -35.020462
v 62.974251 85.594864 -35.020462
v 62.974251 85.594864 -35.020462
v 62.974251 85.594864 -35.020462
v 62.974251 85.594864 -35.020462
v 62.974251 85.594864 -35.020462
v 62.974251 85.594864 -35.020462
v 62.974251 85.594864 -35.020462
v 62.974251 85.594864 -35.020462
v 69.100960 85.594849 29.473167
v 69.100960 85.594849 29.473167
v 69.100960 85.594849 29.473167
v 69.100960 85.594849 29.473167
v 69.100960 85.594849 29.473167
v 69.100960 85.594849 29.473167
v 69.100960 85.594841 92.354462
v 69.100960 85.594841 92.354462
v 69.100960 85.594841 92.354462
v 69.100960 85.594841 92.354462
v 69.100960 85.594841 92.354462
v 68.228760 -0.546535 92.354446
v 68.228760 -0.546535 92.354446
v 68.228760 -0.546535 92.354446
v 68.228760 158.382874 29.473181
v 68.228760 158.382874 29.473181
v 68.228760 158.382874 29.473181
v 68.228760 158.382874 29.473181
v 62.974251 85.594849 29.473167
v 62.974251 85.594849 29.473167
v 62.974251 85.594849 29.473167
v 62.974251 85.594849 29.473167
v 62.974251 85.594849 29.473167
v 62.974251 85.594849 29.473167
v 62.974251 85.594849 29.473167
v 0.573519 85.594841 96.958977
v 0.573519 85.594841 96.958977
v 0.573519 85.594841 96.958977
v 0.573519 85.594841 96.958977
v 0.573519 -0.546536 96.958961
v 0.573519 -0.546536 96.958961
v 0.573519 -0.546536 96.958961
v 0.573519 -0.546536 96.958961
v 68.228760 74.494095 24.575769
v 68.228760 74.494095 24.575769
v 68.228760 74.494095 24.575769
v 68.228760 74.494095 24.575769
v 68.228760 74.494095 24.575769
v 68.228760 74.494095 24.575769
v 62.974251 -0.546502 -110.349030
v 62.974251 -0.546502 -110.349030
v 62.974251 -0.546502 -110.349030
v 62.974251 85.594872 -110.349014
v 62.974251 85.594872 -110.349014
v 62.974251 85.594872 -110.349014
v 62.974251 85.594872 -110.349014
v 62.974251 85.594872 -110.349014
v -78.220741 85.594872 -109.160477
v -78.220741 85.594872 -109.160477
v -78.220741 85.594872 -109.160477
v -78.220741 85.594872 -109.160477
v -78.220741 85.594872 -109.160477
v -78.220741 85.594872 -109.160477
v -78.220741 171.048935 -109.160461
v -78.220741 171.048935 -109.160461
v -78.220741 171.048935 -109.160461
v 62.974251 74.494095 24.575769
v 62.974251 74.494095 24.575769
v 62.974251 74.494095 24.575769
v 62.974251 74.494095 24.575769
v 62.974251 74.494095 24.575769
v 62.974251 74.494095 24.575769
v 62.974251 74.494110 -30.123070
v 62.974251 74.494110 -30.123070
v 62.974251 74.494110 -30.123070
v 62.974251 74.494110 -30.123070
v 62.974251 74.494110 -30.123070
v 62.974251 74.494110 -30.123070
v -10.565476 162.752090 -112.202354
v -10.565476 162.752090 -112.202354
v -10.565476 162.752090 -112.202354
v -10.565476 162.752090 -112.202354
v -10.565476 162.752090 -112.202354
v -10.565476 162.752090 -112.202354
v -10.565476 162.752090 -112.202354
v -75.059105 171.048935 -112.202324
v -75.059105 171.048935 -112.202324
v -75.059105 171.048935 -112.202324
v -4.137672 -3.189281 44.039589
v -4.137672 -3.189281 44.039589
v -4.137672 83.295219 -108.506592
v -4.137672 83.295219 -108.506592
v -4.137672 83.295219 -108.506592
v -4.137672 83.295219 -108.506592
v -74.755043 160.882767 95.396339
v -74.755043 160.882767 95.396339
v 68.228760 -0.546502 -110.349030
v 68.228760 -0.546502 -110.349030
v 68.228760 -0.546502 -110.349030
v 68.228760 -0.546502 -110.349030
v 68.228760 -0.546502 -110.349030
v 68.228760 85.594872 -110.349014
v 68.228760 85.594872 -110.349014
v 68.228760 85.594872 -110.349014
v 68.228760 85.594872 -110.349014
v 61.409649 -0.546514 -35.020477
v 61.409649 -0.546514 -35.020477
v 61.409649 -0.546514 -35.020477
v 61.409649 -0.546514 -35.020477
v 61.409649 -0.546514 -35.020477
v 61.409649 -0.546514 -35.020477
v 61.409649 -0.546514 -35.020477
v 68.228760 74.494110 -30.123070
v 68.228760 74.494110 -30.123070
v 68.228760 74.494110 -30.123070
v 68.228760 74.494110 -30.123070
v -4.137672 86.519867 91.423668
v -4.137672 86.519867 91.423668
v -4.137672 86.519867 91.423668
v -75.059105 85.594872 -106.947838
v -75.059105 85.594872 -106.947838
v -75.059105 85.594872 -106.947838
v -75.059105 85.594872 -106.947838
v -75.059105 85.594872 -106.947838
v -75.059105 85.594872 -106.947838
v -4.137672 86.519890 -52.280853
v -4.137672 86.519890 -52.280853
v -4.137672 86.519890 -52.280853
v -4.137672 86.519890 -52.280853
v -4.137672 86.519890 -52.280853
v -4.137672 86.519890 -52.280853
v -72.966232 85.594864 -46.279198
v -72.966232 85.594864 -46.279198
v -72.966232 85.594864 -46.279198
v -72.966232 85.594864 -46.279198
v -72.966232 85.594864 -46.279198
v -72.966232 85.594864 -46.279198
v 65.067123 166.657150 95.396317
v 65.067123 166.657150 95.396317
v 65.067123 166.657150 95.396317
v 65.067123 166.657150 95.396317
v -78.673080 76.832710 18.214430
v -78.673080 76.832710 18.214430
v -78.673080 76.832710 18.214430
v -78.673080 76.832710 18.214430
v -78.673080 76.832710 18.214430
v -78.673080 76.832710 18.214430
v -83.851837 85.594864 -46.279198
v -83.851837 85.594864 -46.279198
v -83.851837 85.594864 -46.279198
v -83.851837 85.594864 -46.279198
v -83.851837 85.594864 -46.279198
v -75.080673 86.519897 -108.506592
v -75.080673 86.519897 -108.506592
v -75.080673 86.519897 -108.506592
v 68.228760 171.048935 -110.348999
v 68.228760 171.048935 -110.348999
v 68.228760 171.048935 -110.348999
v -10.565476 85.594872 -106.947838
v -10.565476 85.594872 -106.947838
v -10.565476 85.594872 -106.947838
v -10.565476 85.594872 -106.947838
v -78.220741 157.893433 -46.279186
v -78.220741 157.893433 -46.279186
v -78.220741 157.893433 -46.279186
v -78.220741 157.893433 -46.279186
v -72.966217 -0.546523 18.214417
v -72.966217 -0.546523 18.214417
v -72.966217 -0.546523 18.214417
v -72.966217 -0.546523 18.214417
v 62.974251 85.594841 92.354462
v 62.974251 85.594841 92.354462
v 62.974251 85.594841 92.354462
v 62.974251 85.594841 92.354462
v 62.974251 85.594841 92.354462
v 62.974251 85.594841 92.354462
v -74.755043 -0.546536 95.396317
v -74.755043 -0.546536 95.396317
v -74.755043 -0.546536 95.396317
v -74.755043 -0.546536 95.396317
v 0.573519 -0.546535 90.141785
v 0.573519 -0.546535 90.141785
v 0.573519 -0.546535 90.141785
v 0.573519 -0.546535 90.141785
v 0.573519 -0.546535 90.141785
v 0.573519 -0.546535 90.141785
v -75.080673 83.295219 -108.506592
v -75.080673 83.295219 -108.506592
v -75.080673 83.295219 -108.506592
v -75.080673 83.295219 -108.506592
v 0.573519 158.069260 95.396332
v 0.573519 158.069260 95.396332
v 0.573519 158.069260 95.396332
v 0.573519 158.069260 95.396332
v 0.573519 158.069260 95.396332
v 0.573519 158.069260 95.396332
v -10.565476 154.504745 -106.947830
v -10.565476 154.504745 -106.947830
v -10.565476 154.504745 -106.947830
v -10.565476 154.504745 -106.947830
v -10.565476 154.504745 -106.947830
v -75.059105 85.594872 -112.202339
v -75.059105 85.594872 -112.202339
v -75.059105 85.594872 -112.202339
v -75.059105 85.594872 -112.202339
v -75.059105 85.594872 -112.202339
v 64.763092 85.594872 -112.202362
v 64.763092 85.594872 -112.202362
v 64.763092 85.594872 -112.202362
v 64.763092 85.594872 -112.202362
v 64.763092 85.594872 -112.202362
v 64.763092 85.594872 -112.202362
v 69.793365 -0.546525 29.473154
v 69.793365 -0.546525 29.473154
v 69.793365 -0.546525 29.473154
v 69.793365 -0.546525 29.473154
v 69.793365 -0.546525 29.473154
v 69.793365 -0.546525 29.473154
v 69.793365 -0.546525 29.473154
v 69.793365 -0.546525 29.473154
v 72.100418 -0.546514 -35.020477
v 72.100418 -0.546514 -35.020477
v 72.100418 -0.546514 -35.020477
v 72.100418 -0.546514 -35.020477
v 72.100418 -0.546514 -35.020477
v 72.100418 -0.546514 -35.020477
v 64.763092 171.048935 -112.202347
v 64.763092 171.048935 -112.202347
v -72.966240 85.594872 -109.160477
v -72.966240 85.594872 -109.160477
v -72.966240 85.594872 -109.160477
v -72.966240 85.594872 -109.160477
v -72.966240 85.594872 -109.160477
v -72.966232 157.893433 -46.279186
v -72.966232 157.893433 -46.279186
v -72.966232 157.893433 -46.279186
v -72.966232 157.893433 -46.279186
v -75.080673 0.035397 44.039589
v -75.080673 0.035397 44.039589
v -75.080673 0.035397 44.039589
v 62.613235 83.295212 -52.280853
v 62.613235 83.295212 -52.280853
v 62.613235 83.295212 -52.280853
v 62.613235 83.295212 -52.280853
v 62.613235 83.295212 -52.280853
v 0.573519 85.594841 90.141800
v 0.573519 85.594841 90.141800
v 0.573519 85.594841 90.141800
v 0.573519 85.594841 90.141800
v 0.573519 85.594841 90.141800
v -74.755043 85.594841 95.396332
v -74.755043 85.594841 95.396332
v -74.755043 85.594841 95.396332
v -74.755043 85.594841 95.396332
v -74.755043 85.594841 95.396332
v -74.755043 85.594841 95.396332
v 62.974251 1.435203 24.575758
v 62.974251 1.435203 24.575758
v 62.974251 1.435203 24.575758
v 62.974251 1.435203 24.575758
v 68.228760 1.435203 24.575758
v 68.228760 1.435203 24.575758
v 68.228760 1.435203 24.575758
v 68.228760 1.435203 24.575758
v 68.228760 1.435203 24.575758
v -72.966232 -0.546512 -46.279213
v -72.966232 -0.546512 -46.279213
v -72.966232 -0.546512 -46.279213
v -72.966232 -0.546512 -46.279213
v -72.966232 -0.546512 -46.279213
v -72.966232 -0.546512 -46.279213
v -72.966232 -0.546512 -46.279213
v -75.059105 -0.546503 -106.947853
v -75.059105 -0.546503 -106.947853
v -75.059105 -0.546503 -106.947853
v 65.067123 -0.546535 90.141754
v 65.067123 -0.546535 90.141754
v 65.067123 -0.546535 90.141754
v 70.535812 85.594864 -35.020462
v 70.535812 85.594864 -35.020462
v 70.535812 85.594864 -35.020462
v 70.535812 85.594864 -35.020462
v 70.535812 85.594864 -35.020462
v 70.535812 85.594864 -35.020462
v 70.535812 85.594864 -35.020462
v 68.228760 1.435212 -30.123081
v 68.228760 1.435212 -30.123081
v 68.228760 1.435212 -30.123081
v 68.228760 1.435212 -30.123081
v 68.228760 1.435212 -30.123081
v 65.067123 -0.546536 95.396286
v 65.067123 -0.546536 95.396286
v 65.067123 -0.546536 95.396286
v 65.067123 -0.546536 95.396286
v 62.613235 83.295219 -108.506592
v 62.613235 83.295219 -108.506592
v 62.613235 83.295219 -108.506592
v 62.613235 83.295219 -108.506592
v -75.059105 171.048935 -106.947823
v -75.059105 171.048935 -106.947823
v -75.059105 171.048935 -106.947823
v 62.613235 86.519890 -52.280853
v 62.613235 86.519890 -52.280853
v 62.613235 86.519890 -52.280853
v 62.613235 86.519890 -52.280853
v 62.613235 86.519890 -52.280853
v 62.613235 83.295189 91.423668
v 62.613235 83.295189 91.423668
v 62.613235 83.295189 91.423668
v -78.220741 -0.546502 -109.160492
v -78.220741 -0.546502 -109.160492
v -78.220741 -0.546502 -109.160492
v -78.220741 -0.546502 -109.160492
v 62.974251 171.048920 -35.020451
v 62.974251 171.048920 -35.020451
v -75.059105 -0.546502 -112.202354
v -75.059105 -0.546502 -112.202354
v -75.059105 -0.546502 -112.202354
v -75.059105 -0.546502 -112.202354
v 62.613235 86.519897 -108.506592
v 62.613235 86.519897 -108.506592
v 62.613235 86.519897 -108.506592
v -72.966240 171.048935 -109.160461
v -72.966240 171.048935 -109.160461
v -72.966240 171.048935 -109.160461
v -72.966240 -0.546502 -109.160492
v -72.966240 -0.546502 -109.160492
v -72.966240 -0.546502 -109.160492
v 65.067123 85.594841 95.396301
v 65.067123 85.594841 95.396301
v 65.067123 85.594841 95.396301
v 65.067123 85.594841 95.396301
v 65.067123 85.594841 95.396301
v 68.228760 167.636368 92.354477
v 68.228760 167.636368 92.354477
v 68.228760 167.636368 92.354477
v 68.228760 167.636368 92.354477
vt -2.176957 -1.569494
vt -3.205449 -0.601980
vt -3.205488 -1.569492
vt 3.076230 -2.107923
vt 3.138967 -1.001529
vt 3.076230 -1.001529
vt 0.892106 -0.601980
vt -0.136386 -1.569494
vt 0.892145 -1.569492
vt 0.892145 -2.397843
vt -0.003847 -2.334944
vt -0.136386 -2.397846
vt 2.994812 -3.205488
vt 2.913395 -2.237974
vt 2.932075 -3.205488
vt -0.136385 -3.205488
vt -1.005444 -2.397845
vt -1.115927 -3.205488
vt 0.892145 -2.397843
vt -0.136385 -3.205488
vt 0.892106 -3.205488
vt -2.176957 -1.569494
vt -2.309496 -2.334944
vt -2.176958 -2.397846
vt 2.913395 -2.237974
vt 3.013493 -1.409622
vt 2.913395 -1.409622
vt 0.698498 2.001529
vt 0.635767 2.829873
vt 0.635766 2.001534
vt -2.435460 3.099095
vt -1.536066 4.205488
vt -2.435459 4.205488
vt 3.389914 -2.099097
vt 3.327178 -3.205488
vt 3.389914 -3.205488
vt 0.892066 3.065068
vt 1.791454 4.171009
vt 0.892066 4.170900
vt -2.435459 4.205488
vt -3.205488 3.099095
vt -2.435460 3.099095
vt 2.751369 3.761776
vt 2.814106 2.794261
vt 2.814106 3.761775
vt 3.076230 -2.107923
vt 3.138967 -3.205488
vt 3.138967 -2.107923
vt 3.327178 -2.099097
vt 3.264441 -3.205488
vt 3.327177 -3.205488
vt 1.791454 3.065176
vt 2.561478 4.171101
vt 1.791454 4.171009
vt 2.751369 2.794261
vt 2.814106 1.965910
vt 2.814106 2.794261
vt -1.536066 3.099095
vt -2.435460 2.108093
vt -1.536067 2.001529
vt 3.389914 -1.046454
vt 3.452651 -2.152279
vt 3.452651 -1.046447
vt 3.013493 -1.409622
vt 2.932076 -0.601980
vt 2.913395 -1.409622
vt 4.205488 0.504053
vt 3.435465 1.434346
vt 3.435465 0.503961
vt -2.176958 -2.397846
vt -3.205450 -3.205488
vt -2.176958 -3.205488
vt -0.031809 0.365535
vt 0.892066 -0.601980
vt 0.892066 0.365535
vt 0.133356 2.001529
vt 0.196092 3.107369
vt 0.133356 3.107362
vt -1.156711 2.001529
vt -2.080586 1.034014
vt -1.156711 1.034015
vt -0.031809 0.365535
vt 0.892066 1.193886
vt -0.136425 1.193886
vt 3.076230 -3.205488
vt 3.013493 -2.237974
vt 3.013493 -3.205488
vt 2.562769 1.965914
vt 2.624210 2.932813
vt 2.561478 2.932818
vt -2.185203 0.205663
vt -1.156711 -0.601979
vt -1.156711 0.205663
vt -2.080586 1.034014
vt -1.156711 0.205663
vt -1.156711 1.034015
vt 3.076230 -2.237974
vt 3.013493 -1.409623
vt 3.013493 -2.237974
vt 2.561478 2.932818
vt 2.625501 3.761750
vt 2.562770 3.761755
vt 3.435465 0.503961
vt 2.536077 -0.601980
vt 3.435465 -0.601872
vt 3.515388 -2.099097
vt 3.452651 -3.205488
vt 3.515388 -3.205488
vt -1.536066 3.099095
vt -0.636673 4.205488
vt -1.536066 4.205488
vt 3.435465 -0.601872
vt 4.205488 0.504053
vt 3.435465 0.503961
vt 2.751369 3.761775
vt 2.688632 2.794261
vt 2.751369 2.794261
vt 0.258829 3.098546
vt 0.196093 2.001529
vt 0.258829 2.001537
vt 3.264441 -2.099097
vt 3.201704 -3.205488
vt 3.264441 -3.205488
vt -0.636673 3.099095
vt 0.133355 4.205488
vt -0.636673 4.205488
vt 2.688632 2.794261
vt 2.751370 1.965910
vt 2.751369 2.794261
vt 0.892066 3.065068
vt 1.791454 2.180551
vt 1.791454 3.065176
vt 3.201704 -2.099095
vt 3.138967 -3.205488
vt 3.201703 -3.205488
vt 3.013493 -1.409623
vt 3.076230 -0.601980
vt 3.013493 -0.601980
vt 3.201704 -2.099095
vt 3.138967 -1.001529
vt 3.138967 -2.099095
vt 0.892066 1.193886
vt -0.136425 2.001529
vt -0.136425 1.193886
vt 1.689219 -3.205488
vt 2.536142 -2.483339
vt 1.689176 -2.483339
vt 2.852607 2.823254
vt 2.891109 1.965910
vt 2.891109 2.823254
vt 3.553889 -2.483329
vt 3.515388 -0.637599
vt 3.515388 -2.483329
vt 2.958239 2.823253
vt 2.996721 1.965910
vt 2.996721 2.823248
vt 2.536077 0.120180
vt 1.739097 1.965909
vt 1.739098 0.120180
vt 1.689176 -2.483339
vt 0.892145 -0.637635
vt 0.892257 -2.483339
vt 1.689219 -3.205488
vt 0.892257 -2.483339
vt 0.892301 -3.205488
vt 2.536077 -0.601980
vt 1.739098 0.120180
vt 1.739098 -0.601980
vt 3.553890 -3.205488
vt 3.515388 -2.483329
vt 3.515388 -3.205488
vt 2.852607 1.965910
vt 2.814106 3.811640
vt 2.814106 1.965910
vt 2.548816 -2.577267
vt 2.913395 -3.185061
vt 2.582309 -2.556840
vt 2.891109 2.823254
vt 2.852607 3.734440
vt 2.852607 2.823254
vt 2.536142 -2.483339
vt 1.701849 -1.240326
vt 1.689176 -2.483339
vt 1.739098 0.120180
vt 0.892066 -0.601980
vt 1.739098 -0.601980
vt 2.919757 2.877096
vt 2.958239 1.965910
vt 2.958239 2.877091
vt 1.739098 0.120180
vt 0.892066 1.357312
vt 0.892066 0.120179
vt 2.582309 -2.556840
vt 2.879902 -0.953223
vt 2.548816 -2.577267
vt 2.919757 3.628549
vt 2.891109 1.993581
vt 2.919757 1.965910
vt 0.823962 2.001529
vt 0.886699 2.704077
vt 0.823962 2.704077
vt 0.886694 3.406615
vt 0.823962 2.704081
vt 0.886694 2.704077
vt 0.892145 -1.569492
vt -0.003848 -1.632396
vt 0.868445 -1.632396
vt -3.205488 -1.569492
vt -2.309496 -1.632396
vt -2.176957 -1.569494
vt -0.136386 -1.569494
vt -0.003847 -2.334944
vt -0.003848 -1.632396
vt 0.892145 -1.569492
vt 0.868445 -2.334944
vt 0.892145 -2.397843
vt -3.205488 -2.397843
vt -3.181788 -1.632396
vt -3.205488 -1.569492
vt -3.205488 -2.397843
vt -2.309496 -2.334944
vt -3.181788 -2.334944
vt 0.384297 2.939416
vt 0.447033 2.001536
vt 0.447033 2.939424
vt 0.321561 2.001529
vt 0.384297 2.939892
vt 0.321561 2.939892
vt 0.258829 2.969034
vt 0.321561 2.001529
vt 0.321560 2.969030
vt 0.892066 2.073933
vt 1.791674 2.072528
vt 1.791454 2.180551
vt 0.635766 2.001529
vt 0.573031 2.828451
vt 0.572507 2.002786
vt 0.823962 2.001529
vt 0.761230 2.808658
vt 0.761230 2.001656
vt 2.688633 3.763955
vt 2.625501 2.796289
vt 2.688234 2.796264
vt 2.688234 2.796264
vt 2.625619 1.966639
vt 2.688633 1.965910
vt 0.698498 2.810060
vt 0.761230 2.001699
vt 0.761230 2.810230
vt 3.515388 -2.099097
vt 3.452651 -1.189158
vt 3.452651 -2.099097
vt -0.136425 2.001529
vt -0.999640 1.193887
vt -0.136425 1.193886
vt 0.509770 2.001529
vt 0.447034 2.936413
vt 0.447033 2.001529
vt 2.561478 3.065268
vt 1.791454 2.180551
vt 2.561478 1.968259
vt 3.264441 -2.099097
vt 3.201704 -1.057941
vt 3.201704 -2.099097
vt 3.452651 -2.152279
vt 3.389914 -3.205488
vt 3.452651 -3.205481
vt -0.136386 -0.601980
vt -1.156671 -1.569494
vt -0.136386 -1.569494
vt -3.205488 3.099095
vt -2.435460 2.108093
vt -2.435460 3.099095
vt -0.636673 3.099095
vt -1.536066 2.189153
vt -0.636673 2.168882
vt 3.389914 -2.099097
vt 3.327178 -1.107462
vt 3.327178 -2.099097
vt -2.176957 -1.569494
vt -1.156671 -0.601980
vt -2.176957 -0.601980
vt 2.536077 0.503853
vt 3.435465 1.434346
vt 2.536077 1.470356
vt -2.176958 -3.205488
vt -1.307899 -2.397846
vt -2.176958 -2.397846
vt -2.185203 -0.601979
vt -3.048417 0.205663
vt -3.205488 -0.601980
vt 3.327178 -2.099097
vt 3.264441 -1.001534
vt 3.264441 -2.099097
vt 0.133356 3.099095
vt -0.636673 2.168882
vt 0.133356 2.001529
vt 0.572507 2.001537
vt 0.509771 2.929656
vt 0.509771 2.001529
vt -2.176957 -1.569494
vt -2.176957 -0.601980
vt -3.205449 -0.601980
vt 3.076230 -2.107923
vt 3.138967 -2.107923
vt 3.138967 -1.001529
vt 0.892106 -0.601980
vt -0.136386 -0.601980
vt -0.136386 -1.569494
vt 0.892145 -2.397843
vt 0.868445 -2.334944
vt -0.003847 -2.334944
vt 2.994812 -3.205488
vt 3.013493 -2.237974
vt 2.913395 -2.237974
vt -0.136385 -3.205488
vt -0.136386 -2.397846
vt -1.005444 -2.397845
vt 0.892145 -2.397843
vt -0.136386 -2.397846
vt -0.136385 -3.205488
vt -2.176957 -1.569494
vt -2.309496 -1.632396
vt -2.309496 -2.334944
vt 2.913395 -2.237974
vt 3.013493 -2.237974
vt 3.013493 -1.409622
vt 0.698498 2.001529
vt 0.698498 2.829869
vt 0.635767 2.829873
vt -2.435460 3.099095
vt -1.536066 3.099095
vt -1.536066 4.205488
vt 3.389914 -2.099097
vt 3.327178 -2.099097
vt 3.327178 -3.205488
vt 0.892066 3.065068
vt 1.791454 3.065176
vt 1.791454 4.171009
vt -2.435459 4.205488
vt -3.205488 4.205488
vt -3.205488 3.099095
vt 2.751369 3.761776
vt 2.751369 2.794261
vt 2.814106 2.794261
vt 3.076230 -2.107923
vt 3.076230 -3.205488
vt 3.138967 -3.205488
vt 3.327178 -2.099097
vt 3.264441 -2.099097
vt 3.264441 -3.205488
vt 1.791454 3.065176
vt 2.561478 3.065268
vt 2.561478 4.171101
vt 2.751369 2.794261
vt 2.751369 1.965910
vt 2.814106 1.965910
vt -1.536066 3.099095
vt -2.435460 3.099095
vt -2.435460 2.108093
vt 3.389914 -1.046454
vt 3.389914 -2.152287
vt 3.452651 -2.152279
vt 3.013493 -1.409622
vt 2.994812 -0.601980
vt 2.932076 -0.601980
vt 4.205488 0.504053
vt 4.205488 1.544684
vt 3.435465 1.434346
vt -2.176958 -2.397846
vt -3.205488 -2.397843
vt -3.205450 -3.205488
vt -0.031809 0.365535
vt -0.136426 -0.601979
vt 0.892066 -0.601980
vt 0.133356 2.001529
vt 0.196092 2.001537
vt 0.196092 3.107369
vt -1.156711 2.001529
vt -2.185203 2.001529
vt -2.080586 1.034014
vt -0.031809 0.365535
vt 0.892066 0.365535
vt 0.892066 1.193886
vt 3.076230 -3.205488
vt 3.076230 -2.237974
vt 3.013493 -2.237974
vt 2.562769 1.965914
vt 2.625501 1.965910
vt 2.624210 2.932813
vt -2.185203 0.205663
vt -2.185203 -0.601979
vt -1.156711 -0.601979
vt -2.080586 1.034014
vt -2.185203 0.205663
vt -1.156711 0.205663
vt 3.076230 -2.237974
vt 3.076230 -1.409623
vt 3.013493 -1.409623
vt 2.561478 2.932818
vt 2.624210 2.932813
vt 2.625501 3.761750
vt 3.435465 0.503961
vt 2.536077 0.503853
vt 2.536077 -0.601980
vt 3.515388 -2.099097
vt 3.452651 -2.099097
vt 3.452651 -3.205488
vt -1.536066 3.099095
vt -0.636673 3.099095
vt -0.636673 4.205488
vt 3.435465 -0.601872
vt 4.205488 -0.601779
vt 4.205488 0.504053
vt 2.751369 3.761775
vt 2.688632 3.761775
vt 2.688632 2.794261
vt 0.258829 3.098546
vt 0.196092 3.098538
vt 0.196093 2.001529
vt 3.264441 -2.099097
vt 3.201704 -2.099097
vt 3.201704 -3.205488
vt -0.636673 3.099095
vt 0.133356 3.099095
vt 0.133355 4.205488
vt 2.688632 2.794261
vt 2.688633 1.965910
vt 2.751370 1.965910
vt 0.892066 3.065068
vt 0.892066 2.073933
vt 1.791454 2.180551
vt 3.201704 -2.099095
vt 3.138967 -2.099095
vt 3.138967 -3.205488
vt 3.013493 -1.409623
vt 3.076230 -1.409623
vt 3.076230 -0.601980
vt 3.201704 -2.099095
vt 3.201704 -1.001529
vt 3.138967 -1.001529
vt 0.892066 1.193886
vt 0.892066 2.001528
vt -0.136425 2.001529
vt 1.689219 -3.205488
vt 2.536186 -3.205488
vt 2.536142 -2.483339
vt 2.852607 2.823254
vt 2.852607 1.965910
vt 2.891109 1.965910
vt 3.553889 -2.483329
vt 3.553889 -0.637599
vt 3.515388 -0.637599
vt 2.958239 2.823253
vt 2.958240 1.965914
vt 2.996721 1.965910
vt 2.536077 0.120180
vt 2.536077 1.965909
vt 1.739097 1.965909
vt 1.689176 -2.483339
vt 1.689063 -0.637635
vt 0.892145 -0.637635
vt 1.689219 -3.205488
vt 1.689176 -2.483339
vt 0.892257 -2.483339
vt 2.536077 -0.601980
vt 2.536077 0.120180
vt 1.739098 0.120180
vt 3.553890 -3.205488
vt 3.553889 -2.483329
vt 3.515388 -2.483329
vt 2.852607 1.965910
vt 2.852607 3.811640
vt 2.814106 3.811640
vt 2.548816 -2.577267
vt 2.879902 -3.205488
vt 2.913395 -3.185061
vt 2.891109 2.823254
vt 2.891109 3.734440
vt 2.852607 3.734440
vt 2.536142 -2.483339
vt 2.548816 -1.240325
vt 1.701849 -1.240326
vt 1.739098 0.120180
vt 0.892066 0.120179
vt 0.892066 -0.601980
vt 2.919757 2.877096
vt 2.919757 1.965914
vt 2.958239 1.965910
vt 1.739098 0.120180
vt 1.739097 1.357312
vt 0.892066 1.357312
vt 2.582309 -2.556840
vt 2.913394 -0.932796
vt 2.879902 -0.953223
vt 2.919757 3.628549
vt 2.891109 3.656220
vt 2.891109 1.993581
vt 0.823962 2.001529
vt 0.886698 2.001529
vt 0.886699 2.704077
vt 0.886694 3.406615
vt 0.823962 3.406620
vt 0.823962 2.704081
vt 0.892145 -1.569492
vt -0.136386 -1.569494
vt -0.003848 -1.632396
vt -3.205488 -1.569492
vt -3.181788 -1.632396
vt -2.309496 -1.632396
vt -0.136386 -1.569494
vt -0.136386 -2.397846
vt -0.003847 -2.334944
vt 0.892145 -1.569492
vt 0.868445 -1.632396
vt 0.868445 -2.334944
vt -3.205488 -2.397843
vt -3.181788 -2.334944
vt -3.181788 -1.632396
vt -3.205488 -2.397843
vt -2.176958 -2.397846
vt -2.309496 -2.334944
vt 0.384297 2.939416
vt 0.384297 2.001529
vt 0.447033 2.001536
vt 0.321561 2.001529
vt 0.384297 2.001529
vt 0.384297 2.939892
vt 0.258829 2.969034
vt 0.258829 2.001537
vt 0.321561 2.001529
vt 0.892066 2.073933
vt 0.892286 1.965910
vt 1.791674 2.072528
vt 0.635766 2.001529
vt 0.635766 2.828501
vt 0.573031 2.828451
vt 0.823962 2.001529
vt 0.823962 2.808531
vt 0.761230 2.808658
vt 2.688633 3.763955
vt 2.626178 3.763283
vt 2.625501 2.796289
vt 2.688234 2.796264
vt 2.625501 2.796289
vt 2.625619 1.966639
vt 0.698498 2.810060
vt 0.698498 2.001529
vt 0.761230 2.001699
vt 3.515388 -2.099097
vt 3.515388 -1.132107
vt 3.452651 -1.189158
vt -0.136425 2.001529
vt -1.156711 2.001529
vt -0.999640 1.193887
vt 0.509770 2.001529
vt 0.509770 2.936413
vt 0.447034 2.936413
vt 2.561478 3.065268
vt 1.791454 3.065176
vt 1.791454 2.180551
vt 3.264441 -2.099097
vt 3.264441 -1.001534
vt 3.201704 -1.057941
vt 3.452651 -2.152279
vt 3.389914 -2.152287
vt 3.389914 -3.205488
vt -0.136386 -0.601980
vt -1.156671 -0.601980
vt -1.156671 -1.569494
vt -3.205488 3.099095
vt -3.205488 2.001529
vt -2.435460 2.108093
vt -0.636673 3.099095
vt -1.536066 3.099095
vt -1.536066 2.189153
vt 3.389914 -2.099097
vt 3.389914 -1.001534
vt 3.327178 -1.107462
vt -2.176957 -1.569494
vt -1.156672 -1.569494
vt -1.156671 -0.601980
vt 2.536077 0.503853
vt 3.435465 0.503961
vt 3.435465 1.434346
vt -2.176958 -3.205488
vt -1.197417 -3.205488
vt -1.307899 -2.397846
vt -2.185203 -0.601979
vt -2.185203 0.205663
vt -3.048417 0.205663
vt 3.327178 -2.099097
vt 3.327178 -1.001534
vt 3.264441 -1.001534
vt 0.133356 3.099095
vt -0.636673 3.099095
vt -0.636673 2.168882
vt 0.572507 2.001537
vt 0.572507 2.929663
vt 0.509771 2.929656
vn -0.9996 0.0182 -0.0208
vn 0.0000 0.0000 -1.0000
vn 0.9985 0.0181 -0.0513
vn 0.9812 0.0079 -0.1926
vn 0.0000 -1.0000 -0.0000
vn 0.9999 0.0106 -0.0016
vn 0.9999 0.0114 -0.0009
vn 0.9996 -0.0101 0.0249
vn -1.0000 0.0000 0.0000
vn 0.0000 1.0000 0.0000
vn 1.0000 0.0000 0.0000
vn 0.0000 -0.0000 1.0000
vn 0.0242 0.0215 0.9995
vn -1.0000 -0.0000 0.0060
vn 0.0000 0.9933 -0.1155
vn -0.9960 0.0000 -0.0892
vn -0.9968 0.0000 0.0800
vn 0.0000 0.9909 0.1346
vn -0.0207 -0.0000 0.9998
vn 0.0242 -0.0000 0.9997
vn 0.0000 0.7441 0.6681
vn 0.0000 -0.7441 -0.6681
vn 0.7845 -0.0000 0.6202
vn -0.9990 0.0181 0.0411
vn 0.9791 -0.2035 -0.0000
vn 0.7512 0.6595 0.0269
vn -0.7849 0.6197 0.0000
vn -0.9526 -0.0000 -0.3043
vn -0.0591 0.5364 0.8419
vn 0.1365 0.5323 0.8355
vn 0.0000 0.9893 -0.1456
vn -0.0209 0.9997 -0.0095
vn -0.1532 0.7582 0.6337
vn 0.0000 0.9788 0.2048
vn 0.9992 0.0270 -0.0306
vn 0.9995 0.0000 -0.0306
vn 0.9526 0.0000 -0.3043
vn 0.9999 0.0120 0.0000
vn 0.9999 0.0119 0.0010
vn 1.0000 0.0080 0.0000
vn -0.9995 0.0182 0.0249
vn 0.8899 0.0162 0.4559
vn -0.9526 -0.0000 0.3043
vn 0.9959 -0.0880 0.0222
vn 0.4556 0.8902 0.0000
vn -0.9990 0.0181 -0.0411
vn 0.1276 0.9918 0.0000
vn 0.0285 0.7634 -0.6453
vn -0.1320 0.9912 -0.0095
vn -0.0207 0.0216 0.9996
vn -0.9930 0.0773 -0.0889
s 1
f 265/1/1 314/2/1 371/3/1
f 316/4/2 361/5/2 313/6/2
f 362/7/3 545/8/3 487/9/3
f 477/10/4 307/11/4 276/12/4
f 363/13/5 374/14/5 2/15/5
f 283/16/6 290/17/7 599/18/6
f 478/19/8 280/20/8 285/21/8
f 268/22/9 332/23/9 295/24/9
f 372/25/5 476/26/5 153/27/5
f 264/28/10 274/29/10 542/30/10
f 260/31/2 220/32/2 234/33/2
f 472/34/11 222/35/11 219/36/11
f 189/37/12 240/38/12 224/39/12
f 235/40/2 465/41/2 263/42/2
f 223/43/5 236/44/5 221/45/5
f 318/46/2 420/47/2 367/48/2
f 384/49/9 580/50/9 537/51/9
f 423/52/12 536/53/12 239/54/12
f 238/55/5 581/56/5 233/57/5
f 473/58/2 343/59/2 490/60/2
f 286/61/12 435/62/12 216/63/12
f 480/64/5 215/65/5 152/66/5
f 592/67/13 456/68/13 300/69/13
f 293/70/9 217/71/9 434/72/9
f 197/73/11 138/74/11 431/75/11
f 140/76/12 207/77/12 137/78/12
f 208/79/14 407/80/14 245/81/14
f 198/82/11 533/83/11 395/84/11
f 206/85/5 430/86/5 40/87/5
f 202/88/15 196/89/15 406/90/15
f 412/91/16 574/92/16 248/93/16
f 408/94/17 247/95/17 243/96/17
f 244/97/5 529/98/5 432/99/5
f 405/100/18 397/101/18 411/102/18
f 299/103/19 441/104/19 303/105/19
f 515/106/9 227/107/9 442/108/9
f 229/109/2 445/110/2 226/111/2
f 305/112/20 594/113/20 302/114/20
f 440/115/5 444/116/5 306/117/5
f 269/118/12 252/119/12 577/120/12
f 120/121/11 554/122/11 540/123/11
f 512/124/2 539/125/2 446/126/2
f 447/127/5 555/128/5 304/129/5
f 188/130/12 460/131/12 422/132/12
f 323/133/2 590/134/2 575/135/2
f 532/136/5 573/137/5 591/138/5
f 322/139/2 588/140/2 493/141/2
f 531/142/11 494/143/11 398/144/11
f 175/145/10 181/146/10 389/147/10
f 178/148/2 560/149/2 357/150/2
f 565/151/11 570/152/11 506/153/11
f 143/154/12 147/155/12 571/156/12
f 504/157/5 149/158/5 163/159/5
f 393/160/10 144/161/10 567/162/10
f 177/163/10 566/164/10 584/165/10
f 558/166/5 162/167/5 354/168/5
f 583/169/11 505/170/11 559/171/11
f 380/172/9 164/173/9 148/174/9
f 182/175/9 450/176/9 173/177/9
f 355/178/2 416/179/2 176/180/2
f 184/181/21 110/182/21 392/183/21
f 167/184/5 451/185/5 356/186/5
f 109/187/12 114/188/12 352/189/12
f 161/190/22 115/191/22 171/192/22
f 172/193/9 501/194/9 185/195/9
f 165/196/11 112/197/11 353/198/11
f 336/199/5 310/200/5 330/201/5
f 521/202/10 550/203/10 159/204/10
f 485/205/23 378/206/23 549/207/23
f 369/208/24 337/209/24 267/210/24
f 543/211/25 308/212/25 376/213/25
f 486/214/26 525/215/26 479/216/26
f 151/217/27 157/218/27 373/219/27
f 155/220/28 331/221/28 520/222/28
f 552/223/12 338/224/12 158/225/12
f 333/226/2 527/227/2 522/228/2
f 256/229/10 251/230/10 419/231/10
f 193/232/29 344/233/29 463/234/29
f 345/235/30 562/236/30 461/237/30
f 131/238/31 597/239/31 289/240/31
f 210/241/32 457/242/32 126/243/32
f 125/244/33 401/245/33 135/246/33
f 498/247/34 328/248/34 427/249/34
f 516/250/9 212/251/9 230/252/9
f 492/253/11 497/254/11 399/255/11
f 292/256/2 288/257/2 275/258/2
f 385/259/12 462/260/12 563/261/12
f 121/262/11 403/263/11 595/264/11
f 437/265/12 598/266/12 134/267/12
f 366/268/35 253/269/35 544/270/35
f 468/271/2 346/272/2 262/273/2
f 509/274/2 213/275/2 127/276/2
f 471/277/11 192/278/11 187/279/11
f 266/280/9 257/281/9 317/282/9
f 514/283/12 455/284/12 359/285/12
f 438/286/9 130/287/9 296/288/9
f 321/289/9 428/290/9 327/291/9
f 383/292/9 350/293/9 466/294/9
f 118/295/2 124/296/2 136/297/2
f 396/298/12 426/299/12 413/300/12
f 273/301/9 320/302/9 315/303/9
f 4/304/2 365/305/2 360/306/2
f 364/307/36 27/308/36 548/309/36
f 483/310/37 524/311/37 309/312/37
f 5/313/5 484/314/5 370/315/5
f 282/316/38 277/317/38 12/318/39
f 482/319/40 10/320/40 284/321/40
f 1/322/9 341/323/9 335/324/9
f 3/325/5 488/326/5 8/327/5
f 272/328/10 16/329/10 278/330/10
f 261/331/2 470/332/2 19/333/2
f 474/334/11 23/335/11 225/336/11
f 191/337/12 425/338/12 241/339/12
f 20/340/2 579/341/2 467/342/2
f 22/343/5 242/344/5 237/345/5
f 319/346/2 259/347/2 26/348/2
f 388/349/9 25/350/9 29/351/9
f 424/352/12 386/353/12 30/354/12
f 24/355/5 538/356/5 582/357/5
f 21/358/2 18/359/2 348/360/2
f 14/361/12 281/362/12 436/363/12
f 481/364/5 287/365/5 35/366/5
f 36/367/12 402/368/12 454/369/12
f 294/370/41 154/371/41 218/372/41
f 199/373/11 141/374/11 139/375/11
f 142/376/12 203/377/12 205/378/12
f 209/379/14 48/380/14 410/381/14
f 39/382/11 433/383/11 534/384/11
f 43/385/5 246/386/5 41/387/5
f 204/388/15 42/389/15 200/390/15
f 414/391/16 324/392/16 50/393/16
f 44/394/17 415/395/17 250/396/17
f 45/397/5 249/398/5 530/399/5
f 409/400/18 201/401/18 400/402/18
f 301/403/19 517/404/19 52/405/19
f 519/406/9 56/407/9 228/408/9
f 231/409/2 510/410/2 449/411/2
f 53/412/20 556/413/20 593/414/20
f 443/415/5 55/416/5 448/417/5
f 270/418/12 546/419/12 58/420/12
f 123/421/11 596/422/11 557/423/11
f 511/424/2 119/425/2 541/426/2
f 57/427/5 62/428/5 61/429/5
f 190/430/12 195/431/12 464/432/12
f 326/433/2 495/434/2 589/435/2
f 535/436/5 51/437/5 576/438/5
f 325/439/2 329/440/2 587/441/2
f 46/442/11 66/443/11 68/444/11
f 179/445/10 417/446/10 183/447/10
f 69/448/2 585/449/2 72/450/2
f 568/451/11 146/452/11 572/453/11
f 145/454/12 382/455/12 150/456/12
f 507/457/5 75/458/5 78/459/5
f 390/460/10 381/461/10 77/462/10
f 180/463/10 71/464/10 569/465/10
f 561/466/5 508/467/5 79/468/5
f 80/469/11 74/470/11 76/471/11
f 81/472/9 391/473/9 166/474/9
f 70/475/9 418/476/9 452/477/9
f 73/478/2 82/479/2 84/480/2
f 186/481/21 502/482/21 111/483/21
f 170/484/5 83/485/5 453/486/5
f 113/487/12 503/488/12 116/489/12
f 169/490/22 87/491/22 117/492/22
f 174/493/9 86/494/9 88/495/9
f 168/496/11 394/497/11 85/498/11
f 339/499/5 377/500/5 312/501/5
f 90/502/10 526/503/10 551/504/10
f 489/505/42 6/506/42 93/507/42
f 375/508/43 92/509/43 340/510/43
f 547/511/44 279/512/44 311/513/44
f 7/514/45 91/515/45 94/516/45
f 156/517/27 523/518/27 160/519/27
f 17/520/46 298/521/46 334/522/46
f 553/523/12 379/524/12 89/525/12
f 15/526/2 9/527/2 528/528/2
f 258/529/10 578/530/10 254/531/10
f 194/532/29 491/533/29 347/534/29
f 342/535/47 349/536/47 564/537/47
f 129/538/31 133/539/31 600/540/31
f 211/541/48 358/542/48 459/543/48
f 100/544/49 458/545/49 101/546/49
f 499/547/34 586/548/34 104/549/34
f 518/550/9 107/551/9 214/552/9
f 496/553/11 67/554/11 103/555/11
f 297/556/2 98/557/2 291/558/2
f 28/559/12 31/560/12 64/561/12
f 60/562/11 102/563/11 404/564/11
f 34/565/12 11/566/12 13/567/12
f 368/568/11 421/569/11 255/570/11
f 469/571/2 351/572/2 32/573/2
f 63/574/2 232/575/2 99/576/2
f 475/577/11 33/578/11 96/579/11
f 271/580/9 59/581/9 95/582/9
f 54/583/50 38/584/50 37/585/50
f 439/586/9 106/587/9 132/588/9
f 65/589/51 49/590/51 429/591/51
f 387/592/9 97/593/9 108/594/9
f 122/595/2 513/596/2 128/597/2
f 47/598/12 500/599/12 105/600/12
