# Blender v2.79 (sub 0) OBJ File: ''
# www.blender.org
o Cube_Cube.001
v -41.397896 80.962006 108.724274
v -41.397896 -1.833757 -108.724258
v -41.397896 -1.833793 108.724258
v -38.219109 77.783249 -108.724243
v -38.219109 1.345031 -108.724258
v 41.397896 80.962036 -108.724243
v 41.397896 -1.833793 108.724258
v 41.397896 -1.833757 -108.724258
v 41.397896 80.962006 108.724274
v -38.219109 77.783218 108.724274
v 38.219109 77.783218 108.724274
v -41.397896 80.962036 -108.724243
v 38.219109 77.783249 -108.724243
v 38.219109 1.344995 108.724258
v 38.219109 1.345031 -108.724258
v -38.219109 1.344995 108.724258
v 41.397896 80.962036 -108.724243
v 41.397896 80.962036 -108.724243
v 41.397896 80.962036 -108.724243
v 41.397896 80.962036 -108.724243
v 41.397896 80.962036 -108.724243
v 41.397896 80.962006 108.724274
v 41.397896 80.962006 108.724274
v 41.397896 80.962006 108.724274
v 41.397896 80.962006 108.724274
v 41.397896 80.962006 108.724274
v 38.219109 1.344995 108.724258
v 38.219109 1.344995 108.724258
v 38.219109 1.344995 108.724258
v 38.219109 1.344995 108.724258
v 38.219109 1.344995 108.724258
v 38.219109 1.344995 108.724258
v -38.219109 1.344995 108.724258
v -38.219109 1.344995 108.724258
v -38.219109 1.344995 108.724258
v -38.219109 1.344995 108.724258
v -38.219109 1.345031 -108.724258
v -38.219109 1.345031 -108.724258
v -38.219109 1.345031 -108.724258
v -38.219109 1.345031 -108.724258
v -38.219109 1.345031 -108.724258
v -38.219109 1.345031 -108.724258
v -41.397896 -1.833757 -108.724258
v -41.397896 -1.833757 -108.724258
v -41.397896 -1.833757 -108.724258
v -41.397896 -1.833757 -108.724258
v -41.397896 -1.833757 -108.724258
v 41.397896 -1.833757 -108.724258
v 41.397896 -1.833757 -108.724258
v 41.397896 -1.833757 -108.724258
v 41.397896 -1.833757 -108.724258
v 41.397896 -1.833757 -108.724258
v 38.219109 77.783249 -108.724243
v 38.219109 77.783249 -108.724243
v 38.219109 77.783249 -108.724243
v 38.219109 77.783249 -108.724243
v 38.219109 77.783249 -108.724243
v 38.219109 77.783249 -108.724243
v -41.397896 -1.833793 108.724258
v -41.397896 -1.833793 108.724258
v -41.397896 -1.833793 108.724258
v -41.397896 -1.833793 108.724258
v -41.397896 -1.833793 108.724258
v 38.219109 1.345031 -108.724258
v 38.219109 1.345031 -108.724258
v 38.219109 1.345031 -108.724258
v 38.219109 1.345031 -108.724258
v -38.219109 77.783249 -108.724243
v -38.219109 77.783249 -108.724243
v -38.219109 77.783249 -108.724243
v -38.219109 77.783249 -108.724243
v -38.219109 77.783218 108.724274
v -38.219109 77.783218 108.724274
v -38.219109 77.783218 108.724274
v -38.219109 77.783218 108.724274
v -38.219109 77.783218 108.724274
v -38.219109 77.783218 108.724274
v 38.219109 77.783218 108.724274
v 38.219109 77.783218 108.724274
v 38.219109 77.783218 108.724274
v 38.219109 77.783218 108.724274
v -41.397896 80.962006 108.724274
v -41.397896 80.962006 108.724274
v -41.397896 80.962006 108.724274
v -41.397896 80.962006 108.724274
v -41.397896 80.962006 108.724274
v -41.397896 80.962036 -108.724243
v -41.397896 80.962036 -108.724243
v -41.397896 80.962036 -108.724243
v -41.397896 80.962036 -108.724243
v -41.397896 80.962036 -108.724243
v 41.397896 -1.833793 108.724258
v 41.397896 -1.833793 108.724258
v 41.397896 -1.833793 108.724258
v 41.397896 -1.833793 108.724258
v 41.397896 -1.833793 108.724258
vt -0.560400 3.070874
vt 0.990013 2.104791
vt -0.560400 2.104791
vt 0.409194 0.153517
vt 0.334443 2.025752
vt 0.334444 0.228268
vt -3.119615 1.123110
vt -1.569202 0.157027
vt -3.119615 0.157027
vt 0.409973 0.153517
vt 2.282207 0.228268
vt 0.484723 0.228267
vt -0.560400 0.149228
vt 0.990013 -0.816855
vt -0.560400 -0.816855
vt 0.794690 2.876097
vt 2.734655 2.104791
vt 0.794690 2.104791
vt -0.699694 0.498832
vt -0.118415 -0.082448
vt -0.699694 -0.082448
vt 0.085420 0.501168
vt -0.495859 1.082448
vt 0.085420 1.082448
vt -1.537792 0.153517
vt 0.334444 0.228268
vt -1.463040 0.228267
vt 0.409972 2.100502
vt 0.484723 0.228267
vt 0.484723 2.025751
vt 0.409194 2.100502
vt -1.463041 2.025751
vt 0.334443 2.025752
vt 2.356958 0.153517
vt 2.282207 2.025752
vt 2.282207 0.228268
vt 2.356957 2.100502
vt 0.484723 2.025751
vt 2.282207 2.025752
vt -1.537792 2.100502
vt -1.463040 0.228267
vt -1.463041 2.025751
vt -0.082448 0.501168
vt 0.498832 1.082448
vt 0.498832 0.501168
vt 0.501168 -0.082448
vt 1.082448 0.498832
vt 1.082448 -0.082448
vt -0.560400 3.070874
vt 0.990012 3.070874
vt 0.990013 2.104791
vt 0.409194 0.153517
vt 0.409194 2.100502
vt 0.334443 2.025752
vt -3.119615 1.123110
vt -1.569202 1.123110
vt -1.569202 0.157027
vt 0.409973 0.153517
vt 2.356958 0.153517
vt 2.282207 0.228268
vt -0.560400 0.149228
vt 0.990013 0.149228
vt 0.990013 -0.816855
vt 0.794690 2.876097
vt 2.734656 2.876098
vt 2.734655 2.104791
vt -0.699694 0.498832
vt -0.118415 0.498832
vt -0.118415 -0.082448
vt 0.085420 0.501168
vt -0.495859 0.501168
vt -0.495859 1.082448
vt -1.537792 0.153517
vt 0.409194 0.153517
vt 0.334444 0.228268
vt 0.409972 2.100502
vt 0.409973 0.153517
vt 0.484723 0.228267
vt 0.409194 2.100502
vt -1.537792 2.100502
vt -1.463041 2.025751
vt 2.356958 0.153517
vt 2.356957 2.100502
vt 2.282207 2.025752
vt 2.356957 2.100502
vt 0.409972 2.100502
vt 0.484723 2.025751
vt -1.537792 2.100502
vt -1.537792 0.153517
vt -1.463040 0.228267
vt -0.082448 0.501168
vt -0.082448 1.082448
vt 0.498832 1.082448
vt 0.501168 -0.082448
vt 0.501168 0.498832
vt 1.082448 0.498832
vn -1.0000 0.0000 0.0000
vn 0.0000 0.0000 -1.0000
vn 1.0000 0.0000 0.0000
vn 0.0000 0.0000 1.0000
vn 0.0000 -1.0000 -0.0000
vn 0.0000 1.0000 0.0000
s 1
f 84/1/1 44/2/1 60/3/1
f 46/4/2 68/5/2 38/6/2
f 18/7/3 93/8/3 49/9/3
f 24/10/4 72/11/4 78/12/4
f 48/13/5 61/14/5 43/15/5
f 88/16/6 22/17/6 17/18/6
f 55/19/5 73/20/5 69/21/5
f 37/22/6 28/23/6 66/24/6
f 50/25/2 40/26/2 64/27/2
f 95/28/4 79/29/4 30/30/4
f 89/31/2 57/32/2 70/33/2
f 83/34/4 34/35/4 75/36/4
f 59/37/4 27/38/4 33/39/4
f 19/40/2 65/41/2 54/42/2
f 39/43/3 74/44/3 35/45/3
f 29/46/1 53/47/1 15/48/1
f 82/49/1 87/50/1 45/51/1
f 2/52/2 12/53/2 4/54/2
f 20/55/3 23/56/3 92/57/3
f 25/58/4 85/59/4 76/60/4
f 8/61/5 94/62/5 62/63/5
f 91/64/6 86/65/6 26/66/6
f 56/67/5 80/68/5 10/69/5
f 41/70/6 36/71/6 31/72/6
f 52/73/2 47/74/2 5/75/2
f 96/76/4 9/77/4 81/78/4
f 90/79/2 6/80/2 58/81/2
f 1/82/4 3/83/4 16/84/4
f 63/85/4 7/86/4 14/87/4
f 21/88/2 51/89/2 67/90/2
f 42/91/3 71/92/3 77/93/3
f 32/94/1 11/95/1 13/96/1
