# Blender v2.78 (sub 0) OBJ File: ''
# www.blender.org
o Plane.001
v -1.846588 -0.152322 0.696102
v 1.820828 -0.152322 0.696102
v -0.105673 3.744507 -0.595899
v 1.680111 -0.152322 -0.831430
v -1.987305 -0.152322 -0.831429
v -0.060803 3.744507 0.460573
v -3.153140 -0.152322 1.562521
v -0.134756 -0.152322 -0.520577
v -2.454178 3.744507 -0.489673
v -1.118210 -0.152322 -1.697850
v -4.136593 -0.152322 0.385249
v -1.817171 3.744507 0.354347
v 0.237959 -0.152322 -1.749956
v 0.588427 -0.152322 1.900676
v 1.690414 3.744507 -0.140475
v 2.095520 -0.152322 1.614628
v 1.745051 -0.152322 -2.036004
v 0.643065 3.744507 0.005149
v -2.461143 -0.152321 -4.287021
v -0.515681 -0.152322 -1.178143
v -0.442403 3.744508 -3.496613
v 0.704565 -0.152322 -2.107742
v -1.240898 -0.152321 -5.216619
v -1.314175 3.744508 -2.898147
v -3.888699 -0.152321 -4.934976
v -0.521682 -0.152321 -3.481310
v -1.778268 3.744508 -5.431097
v -0.045400 -0.152321 -4.939497
v -3.412417 -0.152321 -6.393163
v -2.155831 3.744508 -4.443376
v 0.718180 -0.152321 -3.817511
v -2.190556 -0.152322 -1.583860
v 0.124307 3.744507 -1.732475
v -1.148601 -0.152322 -0.458033
v 1.760134 -0.152322 -2.691685
v -0.554728 3.744508 -2.543066
v -4.463368 -0.152323 4.003894
v -1.465757 -0.152322 1.891011
v -3.784760 3.744507 1.944879
v -2.460819 -0.152322 0.723533
v -5.458430 -0.152322 2.836416
v -3.139427 3.744507 2.782550
v -5.032130 -0.152323 5.464808
v -3.765136 -0.152322 2.023200
v -5.643142 3.744507 3.384732
v -5.247228 -0.152322 1.627531
v -6.514224 -0.152323 5.069139
v -4.636217 3.744506 3.707608
v -4.168766 -0.152322 0.803621
v -1.779094 -0.152323 3.585600
v -2.054324 3.744507 1.282359
v -0.712050 -0.152322 2.483524
v -3.101723 -0.152322 -0.298455
v -2.826492 3.744507 2.004788
v 2.294120 -0.152322 2.485156
v -1.003986 -0.152322 0.881271
v 0.163480 3.744507 2.885693
v -1.545480 -0.152322 2.316519
v 1.752625 -0.152323 3.920403
v 0.585160 3.744507 1.915985
v 3.848016 -0.152322 2.277383
v 0.222576 -0.152322 2.830672
v 2.321946 3.744506 3.817244
v 0.592134 -0.152323 4.319490
v 4.217575 -0.152323 3.766202
v 2.118203 3.744507 2.779633
v -0.650255 -0.152323 3.773252
v 0.631113 -0.152322 0.336969
v -1.252568 3.744507 1.690641
v -0.849314 -0.152322 -0.064891
v -2.130681 -0.152323 3.371392
v -0.247001 3.744507 2.017723
v -4.385014 -0.152322 0.321001
v -2.353812 -0.152322 -2.732548
v -4.496548 3.744507 -1.844088
v -3.703595 -0.152321 -3.461410
v -5.734796 -0.152322 -0.407860
v -3.592061 3.744507 -1.296319
v -4.387253 -0.152322 1.888725
v -4.449940 -0.152322 -1.778156
v -5.708824 3.744507 0.170148
v -5.974843 -0.152322 -1.611350
v -5.912158 -0.152322 2.055530
v -4.653273 3.744507 0.107226
v -5.267113 -0.152322 -2.769377
v -2.033431 -0.152322 -1.039277
v -3.122590 3.744508 -3.087301
v -1.436894 -0.152322 -2.452535
v -4.670576 -0.152321 -4.182635
v -3.581417 3.744507 -2.134608
v 3.790269 -0.152322 1.711909
v 5.821472 -0.152322 -1.341641
v 3.678735 3.744507 -0.453181
v 4.471688 -0.152322 -2.070503
v 2.440487 -0.152322 0.983047
v 4.583222 3.744507 0.094588
v 3.788030 -0.152323 3.279632
v 3.725344 -0.152322 -0.387249
v 2.466460 3.744507 1.561055
v 2.200440 -0.152322 -0.220443
v 2.263126 -0.152323 3.446438
v 3.522010 3.744507 1.498133
v 2.908170 -0.152322 -1.378470
v 6.141852 -0.152322 0.351630
v 5.052693 3.744507 -1.696394
v 6.738389 -0.152322 -1.061627
v 3.504707 -0.152322 -2.791728
v 4.593866 3.744507 -0.743701
v 4.154555 -0.152321 -3.580673
v 1.175767 -0.152321 -5.720012
v 1.986858 3.744508 -3.546808
v 0.398996 -0.152321 -4.397219
v 3.377784 -0.152322 -2.257881
v 2.566693 3.744508 -4.431081
v 5.721191 -0.152321 -3.522246
v 2.054419 -0.152321 -3.591024
v 3.956351 3.744508 -2.263119
v 2.166464 -0.152322 -2.061122
v 5.833236 -0.152322 -1.992343
v 3.931302 3.744508 -3.320247
v 1.034547 -0.152322 -2.809902
v 2.879433 -0.152321 -5.979498
v 0.793688 3.744508 -4.964441
v 1.488464 -0.152321 -6.626305
v -0.356423 -0.152321 -3.456708
v 1.729324 3.744508 -4.471765
vt 0.0003 0.0005
vt 0.9983 0.0016
vt 0.5262 0.9998
vt 0.0004 0.0016
vt 0.9987 0.0014
vt 0.5260 0.9999
vt 0.0003 0.0005
vt 0.9983 0.0016
vt 0.5262 0.9998
vt 0.0004 0.0016
vt 0.9987 0.0014
vt 0.5260 0.9999
vt 0.0003 0.0005
vt 0.9983 0.0016
vt 0.5262 0.9998
vt 0.0004 0.0016
vt 0.9987 0.0014
vt 0.5260 0.9999
vt 0.0003 0.0005
vt 0.9983 0.0016
vt 0.5262 0.9998
vt 0.0004 0.0016
vt 0.9987 0.0014
vt 0.5260 0.9999
vt 0.0003 0.0005
vt 0.9983 0.0016
vt 0.5262 0.9998
vt 0.0004 0.0016
vt 0.9987 0.0014
vt 0.5260 0.9999
vt 0.0003 0.0005
vt 0.9983 0.0016
vt 0.5262 0.9998
vt 0.0004 0.0016
vt 0.9987 0.0014
vt 0.5260 0.9999
vt 0.0003 0.0005
vt 0.9983 0.0016
vt 0.5262 0.9998
vt 0.0004 0.0016
vt 0.9987 0.0014
vt 0.5260 0.9999
vt 0.0003 0.0005
vt 0.9983 0.0016
vt 0.5262 0.9998
vt 0.0004 0.0016
vt 0.9987 0.0014
vt 0.5260 0.9999
vt 0.0003 0.0005
vt 0.9983 0.0016
vt 0.5262 0.9998
vt 0.0004 0.0016
vt 0.9987 0.0014
vt 0.5260 0.9999
vt 0.0003 0.0005
vt 0.9983 0.0016
vt 0.5262 0.9998
vt 0.0004 0.0016
vt 0.9987 0.0014
vt 0.5260 0.9999
vt 0.0003 0.0005
vt 0.9983 0.0016
vt 0.5262 0.9998
vt 0.0004 0.0016
vt 0.9987 0.0014
vt 0.5260 0.9999
vt 0.0003 0.0005
vt 0.9983 0.0016
vt 0.5262 0.9998
vt 0.0004 0.0016
vt 0.9987 0.0014
vt 0.5260 0.9999
vt 0.0003 0.0005
vt 0.9983 0.0016
vt 0.5262 0.9998
vt 0.0004 0.0016
vt 0.9987 0.0014
vt 0.5260 0.9999
vt 0.0003 0.0005
vt 0.9983 0.0016
vt 0.5262 0.9998
vt 0.0004 0.0016
vt 0.9987 0.0014
vt 0.5260 0.9999
vt 0.0003 0.0005
vt 0.9983 0.0016
vt 0.5262 0.9998
vt 0.0004 0.0016
vt 0.9987 0.0014
vt 0.5260 0.9999
vt 0.0003 0.0005
vt 0.9983 0.0016
vt 0.5262 0.9998
vt 0.0004 0.0016
vt 0.9987 0.0014
vt 0.5260 0.9999
vt 0.0003 0.0005
vt 0.9983 0.0016
vt 0.5262 0.9998
vt 0.0004 0.0016
vt 0.9987 0.0014
vt 0.5260 0.9999
vt 0.0003 0.0005
vt 0.9983 0.0016
vt 0.5262 0.9998
vt 0.0004 0.0016
vt 0.9987 0.0014
vt 0.5260 0.9999
vt 0.0003 0.0005
vt 0.9983 0.0016
vt 0.5262 0.9998
vt 0.0004 0.0016
vt 0.9987 0.0014
vt 0.5260 0.9999
vt 0.0003 0.0005
vt 0.9983 0.0016
vt 0.5262 0.9998
vt 0.0004 0.0016
vt 0.9987 0.0014
vt 0.5260 0.9999
vt 0.0003 0.0005
vt 0.9983 0.0016
vt 0.5262 0.9998
vt 0.0004 0.0016
vt 0.9987 0.0014
vt 0.5260 0.9999
vn 0.0000 0.3147 0.9492
vn -0.0000 0.3147 -0.9492
vn 0.5391 0.3147 0.7812
vn -0.5391 0.3147 -0.7812
vn -0.9448 0.3147 0.0907
vn 0.9448 0.3147 -0.0907
vn -0.8046 0.3147 0.5035
vn 0.8046 0.3147 -0.5035
vn -0.3762 0.3147 0.8714
vn 0.3762 0.3147 -0.8714
vn -0.5781 0.3147 -0.7528
vn 0.5781 0.3147 0.7528
vn 0.5468 0.3147 0.7758
vn -0.5468 0.3147 -0.7758
vn 0.8907 0.3147 0.3279
vn -0.8907 0.3147 -0.3279
vn -0.7200 0.3147 0.6185
vn 0.7200 0.3147 -0.6185
vn 0.4151 0.3147 -0.8536
vn -0.4151 0.3147 0.8536
vn -0.1432 0.3147 -0.9383
vn 0.1432 0.3147 0.9383
vn 0.8894 0.3147 0.3316
vn -0.8894 0.3147 -0.3316
vn 0.7903 0.3147 0.5257
vn -0.7903 0.3147 -0.5257
vn 0.9491 0.3147 -0.0162
vn -0.9491 0.3147 0.0162
vn -0.4478 0.3147 0.8369
vn 0.4478 0.3147 -0.8369
vn 0.5537 0.3147 -0.7710
vn -0.5537 0.3147 0.7710
vn 0.0178 0.3147 -0.9490
vn -0.0178 0.3147 0.9490
vn 0.8203 0.3147 0.4775
vn -0.8203 0.3147 -0.4775
s 1
f 1/1/1 2/2/1 3/3/1
f 4/4/2 5/5/2 6/6/2
f 7/7/3 8/8/3 9/9/3
f 10/10/4 11/11/4 12/12/4
f 13/13/5 14/14/5 15/15/5
f 16/16/6 17/17/6 18/18/6
f 19/19/7 20/20/7 21/21/7
f 22/22/8 23/23/8 24/24/8
f 25/25/9 26/26/9 27/27/9
f 28/28/10 29/29/10 30/30/10
f 31/31/11 32/32/11 33/33/11
f 34/34/12 35/35/12 36/36/12
f 37/37/13 38/38/13 39/39/13
f 40/40/14 41/41/14 42/42/14
f 43/43/15 44/44/15 45/45/15
f 46/46/16 47/47/16 48/48/16
f 49/49/17 50/50/17 51/51/17
f 52/52/18 53/53/18 54/54/18
f 55/55/19 56/56/19 57/57/19
f 58/58/20 59/59/20 60/60/20
f 61/61/21 62/62/21 63/63/21
f 64/64/22 65/65/22 66/66/22
f 67/67/23 68/68/23 69/69/23
f 70/70/24 71/71/24 72/72/24
f 73/73/25 74/74/25 75/75/25
f 76/76/26 77/77/26 78/78/26
f 79/79/27 80/80/27 81/81/27
f 82/82/28 83/83/28 84/84/28
f 85/85/29 86/86/29 87/87/29
f 88/88/30 89/89/30 90/90/30
f 91/91/25 92/92/25 93/93/25
f 94/94/26 95/95/26 96/96/26
f 97/97/27 98/98/27 99/99/27
f 100/100/28 101/101/28 102/102/28
f 103/103/29 104/104/29 105/105/29
f 106/106/30 107/107/30 108/108/30
f 109/109/31 110/110/31 111/111/31
f 112/112/32 113/113/32 114/114/32
f 115/115/33 116/116/33 117/117/33
f 118/118/34 119/119/34 120/120/34
f 121/121/35 122/122/35 123/123/35
f 124/124/36 125/125/36 126/126/36
