# Blender v2.79 (sub 0) OBJ File: ''
# www.blender.org
o Plane
v 0.297276 -0.123778 0.085441
v -0.324413 -0.123778 0.085441
v 0.012897 5.556384 0.085441
v -0.013569 -0.123778 0.396285
v -0.013569 -0.123778 -0.225403
v 0.012897 5.550333 0.085441
v 1.046659 -0.123778 -0.553190
v 0.424971 -0.123778 -0.553190
v 0.762281 5.287147 -0.727071
v 0.735815 -0.123778 -0.242346
v 0.735815 -0.123778 -0.864034
v 0.762281 5.281096 -0.727071
v 0.297276 -0.123778 0.085441
v -0.324413 -0.123778 0.085441
v 0.012897 5.556384 0.085441
v -0.013569 -0.123778 0.396285
v -0.013569 -0.123778 -0.225403
v 0.012897 5.550333 0.085441
v 1.046659 -0.123778 -0.553190
v 0.424971 -0.123778 -0.553190
v 0.762281 5.011151 -0.727071
v 0.735815 -0.123778 -0.242346
v 0.735815 -0.123778 -0.864034
v 0.762281 5.005101 -0.727071
v -1.041204 -0.814776 -0.514242
v -0.701059 -0.814776 -1.034623
v -0.885612 4.865385 -0.752279
v -1.131321 -0.814776 -0.944506
v -0.610941 -0.814776 -0.604359
v -0.885612 4.859334 -0.752279
v -0.916656 -0.814776 0.462443
v -0.576508 -0.814776 -0.057939
v -0.615515 4.596149 0.319542
v -1.006771 -0.814776 0.032179
v -0.486389 -0.814776 0.372325
v -0.615515 4.590098 0.319542
v -1.041204 -0.814776 -0.514242
v -0.701059 -0.814776 -1.034623
v -0.885612 4.865385 -0.752279
v -1.131321 -0.814776 -0.944506
v -0.610941 -0.814776 -0.604359
v -0.885612 4.859334 -0.752279
v -0.916656 -0.814776 0.462443
v -0.576508 -0.814776 -0.057939
v -0.615515 4.320153 0.319542
v -1.006771 -0.814776 0.032179
v -0.486389 -0.814776 0.372325
v -0.615515 4.314102 0.319542
v 0.575922 -0.434932 -1.526041
v 1.030655 -0.434932 -1.255312
v 0.783930 4.400395 -1.402201
v 0.938656 -0.434932 -1.618042
v 0.667923 -0.434932 -1.163309
v 0.783930 4.395245 -1.402201
v -0.250320 -0.434932 -1.385254
v 0.204414 -0.434932 -1.114525
v -0.118034 4.171204 -1.134230
v 0.112413 -0.434932 -1.477255
v -0.158319 -0.434932 -1.022522
v -0.118034 4.166054 -1.134230
v 0.575922 -0.434932 -1.526041
v 1.030655 -0.434932 -1.255312
v 0.783930 4.400395 -1.402201
v 0.938656 -0.434932 -1.618042
v 0.667923 -0.434932 -1.163309
v 0.783930 4.395245 -1.402201
v -0.250320 -0.434932 -1.385254
v 0.204414 -0.434932 -1.114525
v -0.118034 3.936259 -1.134230
v 0.112413 -0.434932 -1.477255
v -0.158319 -0.434932 -1.022522
v -0.118034 3.931108 -1.134230
v 0.514942 -1.091139 1.055927
v -0.128389 -1.091139 1.446900
v 0.220661 5.787132 1.234769
v 0.388762 -1.091139 1.573082
v -0.002216 -1.091139 0.929744
v 0.220661 5.779805 1.234769
v 0.888784 -1.091139 -0.076221
v 0.245453 -1.091139 0.314758
v 0.485155 5.461106 -0.077313
v 0.762604 -1.091139 0.440934
v 0.371630 -1.091139 -0.202403
v 0.485155 5.453780 -0.077313
v 0.514942 -1.091139 1.055927
v -0.128389 -1.091139 1.446900
v 0.220661 5.787132 1.234769
v 0.388762 -1.091139 1.573082
v -0.002216 -1.091139 0.929744
v 0.220661 5.779805 1.234769
v 0.888784 -1.091139 -0.076221
v 0.245453 -1.091139 0.314758
v 0.485155 5.126896 -0.077313
v 0.762604 -1.091139 0.440934
v 0.371630 -1.091139 -0.202403
v 0.485155 5.119568 -0.077313
v -1.091341 -0.908525 1.300530
v -1.110411 -0.908525 1.877464
v -1.100065 4.365624 1.564438
v -0.812407 -0.908525 1.598535
v -1.389347 -0.908525 1.579464
v -1.100065 4.360006 1.564438
v -1.661013 -0.908526 0.585500
v -1.680080 -0.908526 1.162436
v -1.831100 4.115634 0.844073
v -1.382076 -0.908526 0.883505
v -1.959017 -0.908525 0.864434
v -1.831100 4.110016 0.844073
v -1.091341 -0.908525 1.300530
v -1.110411 -0.908525 1.877464
v -1.100065 4.365624 1.564438
v -0.812407 -0.908525 1.598535
v -1.389347 -0.908525 1.579464
v -1.100065 4.360006 1.564438
v -1.661013 -0.908526 0.585500
v -1.680080 -0.908526 1.162436
v -1.831100 3.859366 0.844073
v -1.382076 -0.908526 0.883505
v -1.959017 -0.908525 0.864434
v -1.831100 3.853747 0.844073
v -1.091341 -0.908525 -0.749528
v -1.110411 -0.908525 -0.172593
v -1.100065 4.365625 -0.485620
v -0.812407 -0.908525 -0.451523
v -1.389347 -0.908525 -0.470594
v -1.100065 4.360006 -0.485620
v -1.661013 -0.908526 -1.464557
v -1.680080 -0.908526 -0.887621
v -1.831100 4.115633 -1.205984
v -1.382076 -0.908526 -1.166552
v -1.959017 -0.908525 -1.185623
v -1.831100 4.110016 -1.205984
v -1.091341 -0.908525 -0.749528
v -1.110411 -0.908525 -0.172593
v -1.100065 4.365625 -0.485620
v -0.812407 -0.908525 -0.451523
v -1.389347 -0.908525 -0.470594
v -1.100065 4.360006 -0.485620
v -1.661013 -0.908526 -1.464557
v -1.680080 -0.908526 -0.887621
v -1.831100 3.859367 -1.205984
v -1.382076 -0.908526 -1.166552
v -1.959017 -0.908525 -1.185623
v -1.831100 3.853747 -1.205984
v 1.793211 -0.908525 -0.749528
v 1.774139 -0.908525 -0.172593
v 1.784485 4.365625 -0.485620
v 2.072147 -0.908525 -0.451523
v 1.495203 -0.908525 -0.470594
v 1.784485 4.360006 -0.485620
v 1.223537 -0.908526 -1.464557
v 1.204470 -0.908526 -0.887621
v 1.053452 4.115633 -1.205984
v 1.502472 -0.908526 -1.166552
v 0.925531 -0.908525 -1.185623
v 1.053452 4.110016 -1.205984
v 1.793211 -0.908525 -0.749528
v 1.774139 -0.908525 -0.172593
v 1.784485 4.365625 -0.485620
v 2.072147 -0.908525 -0.451523
v 1.495203 -0.908525 -0.470594
v 1.784485 4.360006 -0.485620
v 1.223537 -0.908526 -1.464557
v 1.204470 -0.908526 -0.887621
v 1.053452 3.859367 -1.205984
v 1.502472 -0.908526 -1.166552
v 0.925531 -0.908525 -1.185623
v 1.053452 3.853747 -1.205984
v 0.060053 -1.094468 -1.241911
v 0.040981 -1.094467 -0.664977
v 0.051327 4.179683 -0.978003
v 0.338987 -1.094468 -0.943906
v -0.237951 -1.094468 -0.962977
v 0.051327 4.174064 -0.978003
v -0.509619 -1.094467 -1.956940
v -0.528687 -1.094468 -1.380004
v -0.679707 3.929692 -1.698367
v -0.230684 -1.094468 -1.658936
v -0.807625 -1.094468 -1.678006
v -0.679707 3.924074 -1.698367
v 0.060053 -1.094468 -1.241911
v 0.040981 -1.094467 -0.664977
v 0.051327 4.179683 -0.978003
v 0.338987 -1.094468 -0.943906
v -0.237951 -1.094468 -0.962977
v 0.051327 4.174064 -0.978003
v -0.509619 -1.094467 -1.956940
v -0.528687 -1.094468 -1.380004
v -0.679707 3.673424 -1.698367
v -0.230684 -1.094468 -1.658936
v -0.807625 -1.094468 -1.678006
v -0.679707 3.667805 -1.698367
v 1.832062 -0.756943 1.211158
v 1.812990 -0.756943 1.788092
v 1.823336 4.517207 1.475065
v 2.110996 -0.756943 1.509163
v 1.534056 -0.756943 1.490092
v 1.823336 4.511589 1.475065
v 1.262390 -0.756943 0.496128
v 1.243322 -0.756943 1.073064
v 1.092302 4.267216 0.754701
v 1.541325 -0.756943 0.794133
v 0.964384 -0.756943 0.775062
v 1.092302 4.261599 0.754701
v 1.832062 -0.756943 1.211158
v 1.812990 -0.756943 1.788092
v 1.823336 4.517207 1.475065
v 2.110996 -0.756943 1.509163
v 1.534056 -0.756943 1.490092
v 1.823336 4.511589 1.475065
v 1.262390 -0.756943 0.496128
v 1.243322 -0.756943 1.073064
v 1.092302 4.010949 0.754701
v 1.541325 -0.756943 0.794133
v 0.964384 -0.756943 0.775062
v 1.092302 4.005330 0.754701
vt 0.215348 0.304614
vt 0.265577 0.306905
vt 0.240877 0.889977
vt 0.215348 0.304614
vt 0.265577 0.306905
vt 0.240877 0.889977
vt 0.215348 0.304614
vt 0.265577 0.306905
vt 0.240877 0.889977
vt 0.215348 0.304614
vt 0.265577 0.306905
vt 0.240877 0.889977
vt 0.215348 0.304614
vt 0.265577 0.306905
vt 0.240877 0.889977
vt 0.215348 0.304614
vt 0.265577 0.306905
vt 0.240877 0.889977
vt 0.215348 0.304614
vt 0.265577 0.306905
vt 0.240877 0.889977
vt 0.215348 0.304614
vt 0.265577 0.306905
vt 0.240877 0.889977
vt 0.215348 0.304614
vt 0.265577 0.306905
vt 0.240877 0.889977
vt 0.215348 0.304614
vt 0.265577 0.306905
vt 0.240877 0.889977
vt 0.215348 0.304614
vt 0.265577 0.306905
vt 0.240877 0.889977
vt 0.215348 0.304614
vt 0.265577 0.306905
vt 0.240877 0.889977
vt 0.215348 0.304614
vt 0.265577 0.306905
vt 0.240877 0.889977
vt 0.215348 0.304614
vt 0.265577 0.306905
vt 0.240877 0.889977
vt 0.215348 0.304614
vt 0.265577 0.306905
vt 0.240877 0.889977
vt 0.215348 0.304614
vt 0.265577 0.306905
vt 0.240877 0.889977
vt 0.215348 0.304614
vt 0.265577 0.306905
vt 0.240877 0.889977
vt 0.215348 0.304614
vt 0.265577 0.306905
vt 0.240877 0.889977
vt 0.215348 0.304614
vt 0.265577 0.306905
vt 0.240877 0.889977
vt 0.215348 0.304614
vt 0.265577 0.306905
vt 0.240877 0.889977
vt 0.215348 0.304614
vt 0.265577 0.306905
vt 0.240877 0.889977
vt 0.215348 0.304614
vt 0.265577 0.306905
vt 0.240877 0.889977
vt 0.215348 0.304614
vt 0.265577 0.306905
vt 0.240877 0.889977
vt 0.215348 0.304614
vt 0.265577 0.306905
vt 0.240877 0.889977
vt 0.215348 0.304614
vt 0.265577 0.306905
vt 0.240877 0.889977
vt 0.215348 0.304614
vt 0.265577 0.306905
vt 0.240877 0.889977
vt 0.215348 0.304614
vt 0.265577 0.306905
vt 0.240877 0.889977
vt 0.215348 0.304614
vt 0.265577 0.306905
vt 0.240877 0.889977
vt 0.215348 0.304614
vt 0.265577 0.306905
vt 0.240877 0.889977
vt 0.215348 0.304614
vt 0.265577 0.306905
vt 0.240877 0.889977
vt 0.215348 0.304614
vt 0.265577 0.306905
vt 0.240877 0.889977
vt 0.215348 0.304614
vt 0.265577 0.306905
vt 0.240877 0.889977
vt 0.215348 0.304614
vt 0.265577 0.306905
vt 0.240877 0.889977
vt 0.215348 0.304614
vt 0.265577 0.306905
vt 0.240877 0.889977
vt 0.215348 0.304614
vt 0.265577 0.306905
vt 0.240877 0.889977
vt 0.215348 0.304614
vt 0.265577 0.306905
vt 0.240877 0.889977
vt 0.215348 0.304614
vt 0.265577 0.306905
vt 0.240877 0.889977
vt 0.215348 0.304614
vt 0.265577 0.306905
vt 0.240877 0.889977
vt 0.215348 0.304614
vt 0.265577 0.306905
vt 0.240877 0.889977
vt 0.215348 0.304614
vt 0.265577 0.306905
vt 0.240877 0.889977
vt 0.215348 0.304614
vt 0.265577 0.306905
vt 0.240877 0.889977
vt 0.215348 0.304614
vt 0.265577 0.306905
vt 0.240877 0.889977
vt 0.215348 0.304614
vt 0.265577 0.306905
vt 0.240877 0.889977
vt 0.215348 0.304614
vt 0.265577 0.306905
vt 0.240877 0.889977
vt 0.215348 0.304614
vt 0.265577 0.306905
vt 0.240877 0.889977
vt 0.215348 0.304614
vt 0.265577 0.306905
vt 0.240877 0.889977
vt 0.215348 0.304614
vt 0.265577 0.306905
vt 0.240877 0.889977
vt 0.215348 0.304614
vt 0.265577 0.306905
vt 0.240877 0.889977
vt 0.215348 0.304614
vt 0.265577 0.306905
vt 0.240877 0.889977
vt 0.215348 0.304614
vt 0.265577 0.306905
vt 0.240877 0.889977
vt 0.215348 0.304614
vt 0.265577 0.306905
vt 0.240877 0.889977
vt 0.215348 0.304614
vt 0.265577 0.306905
vt 0.240877 0.889977
vt 0.215348 0.304614
vt 0.265577 0.306905
vt 0.240877 0.889977
vt 0.215348 0.304614
vt 0.265577 0.306905
vt 0.240877 0.889977
vt 0.215348 0.304614
vt 0.265577 0.306905
vt 0.240877 0.889977
vt 0.215348 0.304614
vt 0.265577 0.306905
vt 0.240877 0.889977
vt 0.215348 0.304614
vt 0.265577 0.306905
vt 0.240877 0.889977
vt 0.215348 0.304614
vt 0.265577 0.306905
vt 0.240877 0.889977
vt 0.215348 0.304614
vt 0.265577 0.306905
vt 0.240877 0.889977
vt 0.215348 0.304614
vt 0.265577 0.306905
vt 0.240877 0.889977
vt 0.215348 0.304614
vt 0.265577 0.306905
vt 0.240877 0.889977
vt 0.215348 0.304614
vt 0.265577 0.306905
vt 0.240877 0.889977
vt 0.215348 0.304614
vt 0.265577 0.306905
vt 0.240877 0.889977
vt 0.215348 0.304614
vt 0.265577 0.306905
vt 0.240877 0.889977
vt 0.215348 0.304614
vt 0.265577 0.306905
vt 0.240877 0.889977
vt 0.215348 0.304614
vt 0.265577 0.306905
vt 0.240877 0.889977
vt 0.215348 0.304614
vt 0.265577 0.306905
vt 0.240877 0.889977
vt 0.215348 0.304614
vt 0.265577 0.306905
vt 0.240877 0.889977
vt 0.215348 0.304614
vt 0.265577 0.306905
vt 0.240877 0.889977
vt 0.215348 0.304614
vt 0.265577 0.306905
vt 0.240877 0.889977
vt 0.215348 0.304614
vt 0.265577 0.306905
vt 0.240877 0.889977
vt 0.215348 0.304614
vt 0.265577 0.306905
vt 0.240877 0.889977
vn 0.0000 -0.0000 1.0000
vn -1.0000 0.0047 0.0000
vn 0.0000 0.0321 0.9995
vn -1.0000 0.0049 0.0000
vn 0.0000 0.0338 0.9994
vn -1.0000 0.0052 0.0000
vn -0.8370 -0.0000 -0.5471
vn 0.5471 0.0047 -0.8370
vn -0.8366 0.0321 -0.5469
vn 0.5471 0.0049 -0.8370
vn -0.8366 0.0338 -0.5468
vn 0.5471 0.0052 -0.8370
vn 0.5116 0.0000 -0.8592
vn 0.8592 0.0047 0.5116
vn 0.5113 0.0321 -0.8588
vn 0.8592 0.0049 0.5116
vn 0.5113 0.0338 -0.8588
vn 0.8592 0.0052 0.5116
vn 0.5193 0.0000 0.8546
vn -0.8546 0.0047 0.5193
vn 0.5191 0.0321 0.8541
vn -0.8546 0.0049 0.5193
vn 0.5191 0.0338 0.8541
vn -0.8546 0.0052 0.5193
vn 0.9995 0.0000 0.0330
vn -0.0330 0.0047 0.9994
vn 0.9989 0.0321 0.0330
vn -0.0330 0.0049 0.9994
vn 0.9989 0.0338 0.0330
vn -0.0330 0.0052 0.9994
s off
f 2/1/1 1/2/1 3/3/1
f 5/4/2 4/5/2 6/6/2
f 8/7/3 7/8/3 9/9/3
f 11/10/4 10/11/4 12/12/4
f 14/13/1 13/14/1 15/15/1
f 17/16/2 16/17/2 18/18/2
f 20/19/5 19/20/5 21/21/5
f 23/22/6 22/23/6 24/24/6
f 26/25/7 25/26/7 27/27/7
f 29/28/8 28/29/8 30/30/8
f 32/31/9 31/32/9 33/33/9
f 35/34/10 34/35/10 36/36/10
f 38/37/7 37/38/7 39/39/7
f 41/40/8 40/41/8 42/42/8
f 44/43/11 43/44/11 45/45/11
f 47/46/12 46/47/12 48/48/12
f 50/49/13 49/50/13 51/51/13
f 53/52/14 52/53/14 54/54/14
f 56/55/15 55/56/15 57/57/15
f 59/58/16 58/59/16 60/60/16
f 62/61/13 61/62/13 63/63/13
f 65/64/14 64/65/14 66/66/14
f 68/67/17 67/68/17 69/69/17
f 71/70/18 70/71/18 72/72/18
f 74/73/19 73/74/19 75/75/19
f 77/76/20 76/77/20 78/78/20
f 80/79/21 79/80/21 81/81/21
f 83/82/22 82/83/22 84/84/22
f 86/85/19 85/86/19 87/87/19
f 89/88/20 88/89/20 90/90/20
f 92/91/23 91/92/23 93/93/23
f 95/94/24 94/95/24 96/96/24
f 98/97/25 97/98/25 99/99/25
f 101/100/26 100/101/26 102/102/26
f 104/103/27 103/104/27 105/105/27
f 107/106/28 106/107/28 108/108/28
f 110/109/25 109/110/25 111/111/25
f 113/112/26 112/113/26 114/114/26
f 116/115/29 115/116/29 117/117/29
f 119/118/30 118/119/30 120/120/30
f 122/121/25 121/122/25 123/123/25
f 125/124/26 124/125/26 126/126/26
f 128/127/27 127/128/27 129/129/27
f 131/130/28 130/131/28 132/132/28
f 134/133/25 133/134/25 135/135/25
f 137/136/26 136/137/26 138/138/26
f 140/139/29 139/140/29 141/141/29
f 143/142/30 142/143/30 144/144/30
f 146/145/25 145/146/25 147/147/25
f 149/148/26 148/149/26 150/150/26
f 152/151/27 151/152/27 153/153/27
f 155/154/28 154/155/28 156/156/28
f 158/157/25 157/158/25 159/159/25
f 161/160/26 160/161/26 162/162/26
f 164/163/29 163/164/29 165/165/29
f 167/166/30 166/167/30 168/168/30
f 170/169/25 169/170/25 171/171/25
f 173/172/26 172/173/26 174/174/26
f 176/175/27 175/176/27 177/177/27
f 179/178/28 178/179/28 180/180/28
f 182/181/25 181/182/25 183/183/25
f 185/184/26 184/185/26 186/186/26
f 188/187/29 187/188/29 189/189/29
f 191/190/30 190/191/30 192/192/30
f 194/193/25 193/194/25 195/195/25
f 197/196/26 196/197/26 198/198/26
f 200/199/27 199/200/27 201/201/27
f 203/202/28 202/203/28 204/204/28
f 206/205/25 205/206/25 207/207/25
f 209/208/26 208/209/26 210/210/26
f 212/211/29 211/212/29 213/213/29
f 215/214/30 214/215/30 216/216/30
