# Blender v2.79 (sub 0) OBJ File: ''
# www.blender.org
o Cube_Cube.001
v -5.173632 15.220114 33.962440
v -10.330321 -0.615809 -34.152046
v -10.330321 -0.615820 33.962437
v -5.173632 15.220125 -34.152042
v 12.254671 -0.615809 -34.152046
v -10.330321 -0.615809 -34.152046
v 7.097983 15.220125 -34.152042
v 12.254671 -0.615820 33.962437
v 12.254671 -0.615809 -34.152046
v 12.254671 -0.615820 33.962437
v -5.173632 15.220114 33.962440
v -10.330321 -0.615820 33.962437
v 12.254671 -0.615809 -34.152046
v -10.330321 -0.615820 33.962437
v -10.330321 -0.615809 -34.152046
v -5.173632 15.220125 -34.152042
v 7.097983 15.220114 33.962440
v 7.097983 15.220125 -34.152042
v -1.006799 37.062328 33.612762
v -1.006799 37.062325 -30.762787
v 0.343911 37.062325 -30.762787
v 0.343911 37.062328 33.612762
v -2.758072 37.062325 22.883501
v -1.006799 37.062321 12.154243
v -2.758072 37.062325 1.424986
v -1.006799 37.062325 -9.304272
v -2.758072 37.062328 -20.033529
v -1.407362 37.062328 -20.033529
v 0.343911 37.062325 -9.304272
v -1.407362 37.062325 1.424986
v 0.343911 37.062321 12.154243
v -1.407362 37.062325 22.883501
v -2.758072 13.688971 22.883505
v -1.006799 13.688971 12.154247
v -2.758072 13.688972 1.424990
v -1.006799 13.688972 -9.304268
v -2.758072 13.688972 -20.033525
v -2.758072 60.435680 -20.033533
v -0.444827 56.792778 -9.304276
v -2.758072 54.419895 1.424982
v -1.006799 56.598515 12.154240
v -2.038092 62.749401 22.883497
v -1.407362 13.688972 -20.033529
v 0.343911 13.688971 -9.304272
v -1.407362 13.688971 1.424986
v 0.343911 13.688971 12.154243
v -1.407362 13.688971 22.883501
v -0.687381 62.749401 22.883501
v -5.173632 15.220125 -34.152042
v 7.097983 15.220125 -34.152042
v 7.097983 15.220114 33.962440
v 7.097983 15.220114 33.962440
v 12.254671 -0.615820 33.962437
v -5.173632 15.220114 33.962440
v 0.343911 58.735672 12.154243
v -1.407362 54.419895 1.424986
v 0.905884 56.792778 -9.304272
v -1.407362 60.435680 -20.033529
v 0.343911 54.798130 -28.850868
v 0.343911 13.688972 -30.762787
v 0.343911 55.242443 31.974699
v 0.343911 13.688971 33.612762
v -1.006799 54.798130 -28.850868
v -1.006799 13.688972 -30.762787
v -1.006799 55.242443 31.974699
v -1.006799 13.688971 33.612762
v -5.173632 15.220125 -34.152042
v -10.330321 -0.615809 -34.152046
v -2.758072 54.419895 1.424982
v -2.758072 54.419895 1.424982
v -2.758072 54.419895 1.424982
v -2.758072 37.062325 1.424986
v -2.758072 37.062325 1.424986
v -2.758072 37.062325 1.424986
v -0.444827 56.792778 -9.304276
v -0.444827 56.792778 -9.304276
v -0.444827 56.792778 -9.304276
v -1.006799 37.062325 -9.304272
v -1.006799 37.062325 -9.304272
v -1.006799 37.062325 -9.304272
v -2.758072 60.435680 -20.033533
v -2.758072 60.435680 -20.033533
v -2.758072 60.435680 -20.033533
v -2.758072 37.062328 -20.033529
v -2.758072 37.062328 -20.033529
v -2.758072 37.062328 -20.033529
v -1.407362 60.435680 -20.033529
v -1.407362 60.435680 -20.033529
v -1.407362 60.435680 -20.033529
v -1.407362 37.062328 -20.033529
v -1.407362 37.062328 -20.033529
v -1.407362 37.062328 -20.033529
v 0.905884 56.792778 -9.304272
v 0.905884 56.792778 -9.304272
v 0.905884 56.792778 -9.304272
v 0.343911 37.062325 -9.304272
v 0.343911 37.062325 -9.304272
v 0.343911 37.062325 -9.304272
v -1.407362 54.419895 1.424986
v -1.407362 54.419895 1.424986
v -1.407362 54.419895 1.424986
v -1.407362 37.062325 1.424986
v -1.407362 37.062325 1.424986
v -1.407362 37.062325 1.424986
v 0.343911 58.735672 12.154243
v 0.343911 58.735672 12.154243
v 0.343911 58.735672 12.154243
v 0.343911 37.062321 12.154243
v 0.343911 37.062321 12.154243
v 0.343911 37.062321 12.154243
v -0.687381 62.749401 22.883501
v -0.687381 62.749401 22.883501
v -0.687381 62.749401 22.883501
v -1.407362 37.062325 22.883501
v -1.407362 37.062325 22.883501
v -1.407362 37.062325 22.883501
v 12.254671 -0.615809 -34.152046
v 12.254671 -0.615809 -34.152046
v -10.330321 -0.615820 33.962437
v -2.038092 62.749401 22.883497
v -2.038092 62.749401 22.883497
v -2.038092 62.749401 22.883497
v -5.173632 15.220125 -34.152042
v 7.097983 15.220114 33.962440
v 12.254671 -0.615820 33.962437
v -5.173632 15.220114 33.962440
v -1.006799 56.598515 12.154240
v -1.006799 56.598515 12.154240
v -1.006799 56.598515 12.154240
v -5.173632 15.220114 33.962440
v -1.407362 13.688971 22.883501
v -1.407362 13.688971 22.883501
v -1.407362 13.688971 22.883501
v -2.758072 13.688971 22.883505
v -2.758072 13.688971 22.883505
v -2.758072 13.688971 22.883505
v 0.343911 13.688971 12.154243
v 0.343911 13.688971 12.154243
v 0.343911 13.688971 12.154243
v -1.006799 13.688971 12.154247
v -1.006799 13.688971 12.154247
v -1.006799 13.688971 12.154247
v -1.407362 13.688971 1.424986
v -1.407362 13.688971 1.424986
v -1.407362 13.688971 1.424986
v -2.758072 13.688972 1.424990
v -2.758072 13.688972 1.424990
v -2.758072 13.688972 1.424990
v 0.343911 13.688971 -9.304272
v 0.343911 13.688971 -9.304272
v 0.343911 13.688971 -9.304272
v -1.006799 13.688972 -9.304268
v -1.006799 13.688972 -9.304268
v -1.006799 13.688972 -9.304268
v -1.407362 13.688972 -20.033529
v -1.407362 13.688972 -20.033529
v -1.407362 13.688972 -20.033529
v -2.758072 13.688972 -20.033525
v -2.758072 13.688972 -20.033525
v -2.758072 13.688972 -20.033525
v 7.097983 15.220125 -34.152042
v -1.006799 37.062321 12.154243
v -1.006799 37.062321 12.154243
v -1.006799 37.062321 12.154243
v -2.758072 37.062325 22.883501
v -2.758072 37.062325 22.883501
v -2.758072 37.062325 22.883501
v 12.254671 -0.615820 33.962437
v -1.006799 13.688972 -30.762787
v -1.006799 13.688972 -30.762787
v -1.006799 55.242443 31.974699
v -1.006799 55.242443 31.974699
v 0.343911 13.688971 33.612762
v 0.343911 13.688971 33.612762
v 0.343911 54.798130 -28.850868
v 0.343911 54.798130 -28.850868
v 0.343911 55.242443 31.974699
v 0.343911 55.242443 31.974699
v -1.006799 13.688971 33.612762
v -1.006799 13.688971 33.612762
v 0.343911 37.062328 33.612762
v 0.343911 37.062328 33.612762
v 0.343911 37.062328 33.612762
v 0.343911 13.688972 -30.762787
v 0.343911 13.688972 -30.762787
v 0.343911 37.062325 -30.762787
v 0.343911 37.062325 -30.762787
v 0.343911 37.062325 -30.762787
v -1.006799 54.798130 -28.850868
v -1.006799 54.798130 -28.850868
v -1.006799 37.062325 -30.762787
v -1.006799 37.062325 -30.762787
v -1.006799 37.062325 -30.762787
v -1.006799 37.062328 33.612762
v -1.006799 37.062328 33.612762
v -1.006799 37.062328 33.612762
vt 0.896509 0.993314
vt 0.953019 0.988549
vt 0.896509 1.000000
vt 0.837341 0.988549
vt 0.896509 0.993314
vt 0.896509 1.000000
vt 0.715762 0.507544
vt 0.747797 0.506681
vt 0.715500 0.514226
vt 0.000000 0.000000
vt 0.000000 0.000000
vt 0.000000 0.000000
vt 0.000000 0.000000
vt 0.000000 0.000000
vt 0.000000 0.000000
vt 0.000000 0.000000
vt 0.000000 0.000000
vt 0.000000 0.000000
vt 0.000000 0.000000
vt 0.000000 0.000000
vt 0.000000 0.000000
vt 0.000000 0.000000
vt 0.000000 0.000000
vt 0.000000 0.000000
vt 0.724894 0.534062
vt 0.781116 0.641396
vt 0.724894 0.641343
vt 0.668669 0.555478
vt 0.724894 0.641343
vt 0.668669 0.641396
vt 0.612447 0.641343
vt 0.668669 0.555478
vt 0.668669 0.641396
vt 0.556222 0.641396
vt 0.612447 0.543662
vt 0.612447 0.641343
vt 0.510019 0.553552
vt 0.556222 0.641396
vt 0.500000 0.641343
vt 0.612447 0.970523
vt 0.556223 0.872788
vt 0.612447 0.872842
vt 0.668670 0.958706
vt 0.612447 0.872842
vt 0.668670 0.872788
vt 0.724894 0.872842
vt 0.668670 0.958706
vt 0.668670 0.872788
vt 0.781117 0.872788
vt 0.724894 0.969544
vt 0.724894 0.872842
vt 0.828757 0.962831
vt 0.781117 0.872788
vt 0.837341 0.872842
vt 0.837982 0.981863
vt 0.896975 0.975205
vt 0.897616 0.981863
vt 0.000000 0.000000
vt 0.000000 0.000000
vt 0.000000 0.000000
vt 0.965973 0.507540
vt 0.870416 0.514226
vt 0.870416 0.507540
vt 0.781116 0.641396
vt 0.828757 0.551353
vt 0.837341 0.641343
vt 0.715762 0.507544
vt 0.622221 0.510960
vt 0.622483 0.504279
vt 0.556223 0.872788
vt 0.510019 0.960632
vt 0.500000 0.872842
vt 0.953019 0.988549
vt 1.000000 0.990532
vt 0.995526 0.997218
vt 0.724894 0.980164
vt 0.781117 0.999959
vt 0.781117 1.000000
vt 0.556223 0.872788
vt 0.500000 0.757146
vt 0.556223 0.757092
vt 0.622483 0.504279
vt 0.500000 0.506681
vt 0.500262 0.500000
vt 0.781116 0.641396
vt 0.837341 0.757039
vt 0.781116 0.757092
vt 0.870416 0.507540
vt 0.748059 0.514226
vt 0.748059 0.507540
vt 0.837341 0.872842
vt 0.781117 0.757092
vt 0.837341 0.757146
vt 0.781117 0.872788
vt 0.724894 0.757146
vt 0.781117 0.757092
vt 0.724894 0.872842
vt 0.668670 0.757092
vt 0.724894 0.757146
vt 0.668670 0.872788
vt 0.612447 0.757146
vt 0.668670 0.757092
vt 0.612447 0.872842
vt 0.556223 0.757092
vt 0.612447 0.757146
vt 0.500000 0.641343
vt 0.556222 0.757092
vt 0.500000 0.757038
vt 0.556222 0.757092
vt 0.612447 0.641343
vt 0.612447 0.757039
vt 0.612447 0.641343
vt 0.668669 0.757092
vt 0.612447 0.757039
vt 0.668669 0.641396
vt 0.724894 0.757039
vt 0.668669 0.757092
vt 0.724894 0.641343
vt 0.781116 0.757092
vt 0.724894 0.757039
vt 0.953019 0.981863
vt 0.837341 0.981863
vt 0.748059 0.500000
vt 0.000000 0.000000
vt 0.000000 0.000000
vt 0.000000 0.000000
vt 0.000000 0.000000
vt 0.000000 0.000000
vt 0.781117 0.514225
vt 0.724894 0.534062
vt 0.612447 0.543662
vt 0.556222 0.525700
vt 0.556222 0.525700
vt 0.556223 0.988484
vt 0.612447 0.970523
vt 0.724894 0.969544
vt 0.781117 0.999959
vt 0.781117 0.999959
vt 0.837341 0.975205
vt 0.000000 0.000000
vt 0.965973 0.514226
vt 0.781117 0.514225
vt 0.715500 0.514226
vt 0.556223 0.988484
vt 0.953019 0.981863
vt 0.724894 0.969544
vt 0.500000 0.872842
vt 0.622221 0.510960
vt 0.837341 0.641343
vt 0.870416 0.514226
vt 0.781117 0.872788
vt 0.724894 0.872842
vt 0.668670 0.872788
vt 0.612447 0.872842
vt 0.556223 0.872788
vt 0.556222 0.641396
vt 0.556222 0.641396
vt 0.668669 0.641396
vt 0.724894 0.641343
vt 0.781116 0.641396
vt 0.239899 0.981874
vt 0.331394 0.520390
vt 0.331394 0.981874
vt 0.398812 0.791485
vt 0.485811 0.673406
vt 0.485811 0.826422
vt 0.148404 0.981874
vt 0.239899 0.520390
vt 0.239899 0.981874
vt 0.485811 0.673406
vt 0.398812 0.555327
vt 0.485811 0.520390
vt 0.148404 0.520390
vt 0.024327 0.981874
vt 0.024327 0.520390
vt 0.331394 0.981874
vt 0.398812 0.520390
vt 0.398812 0.981874
vt 0.239899 0.981874
vt 0.239899 0.520390
vt 0.331394 0.520390
vt 0.398812 0.791485
vt 0.398812 0.708343
vt 0.485811 0.673406
vt 0.148404 0.981874
vt 0.148404 0.520390
vt 0.239899 0.520390
vt 0.485811 0.673406
vt 0.398812 0.638469
vt 0.398812 0.555327
vt 0.148404 0.520390
vt 0.148404 0.981874
vt 0.024327 0.981874
vt 0.331394 0.981874
vt 0.331395 0.520390
vt 0.398812 0.520390
vn -0.0000 0.9764 0.2159
vn -0.0000 0.9469 0.3215
vn 0.0000 0.8425 -0.5387
vn 0.0000 -1.0000 0.0000
vn 0.9869 0.0000 0.1611
vn 0.9869 0.0000 -0.1611
vn 0.9865 -0.0281 -0.1610
vn 0.9868 -0.0174 0.1611
vn -0.9865 0.0281 0.1610
vn -0.9869 -0.0000 -0.1611
vn -0.9869 0.0000 0.1611
vn -0.9868 0.0145 0.1611
vn 0.0000 0.7711 0.6367
vn 0.0000 0.0897 0.9960
vn 0.9868 -0.0145 -0.1611
vn 0.0000 0.1072 -0.9942
vn -0.9868 0.0174 -0.1611
vn -0.8428 0.5327 -0.0767
vn 0.0000 0.9366 -0.3504
vn 0.0000 0.0000 -1.0000
vn 0.0000 0.0000 1.0000
vn 0.9940 -0.0279 0.1060
vn 0.9784 -0.0279 0.2048
vn 0.9775 0.0000 -0.2108
vn 0.9808 0.0000 0.1948
vn -0.9775 0.0000 0.2108
vn -0.9784 0.0279 -0.2048
vn -0.9934 0.0278 -0.1114
vn -0.9904 0.0278 0.1353
vn 0.9904 -0.0278 -0.1353
vn -0.9808 -0.0000 -0.1948
vn 0.0000 0.9800 -0.1990
vn -0.7882 0.4982 -0.3613
vn -0.9509 0.3096 0.0000
vn 0.9509 0.3096 0.0000
vn 0.0000 1.0000 0.0000
s off
f 76/1/1 100/2/1 94/3/1
f 88/4/2 77/5/2 95/6/2
f 189/7/3 89/8/3 175/9/3
f 140/10/4 131/11/4 134/12/4
f 143/13/4 142/14/4 146/15/4
f 152/16/4 145/17/4 148/18/4
f 155/19/4 154/20/4 158/21/4
f 169/22/4 157/23/4 160/24/4
f 105/25/5 114/26/5 108/27/5
f 99/28/6 110/29/6 102/30/6
f 96/31/5 56/32/5 104/33/5
f 90/34/7 57/35/7 98/36/7
f 176/37/8 92/38/8 187/39/8
f 75/40/9 84/41/9 78/42/9
f 69/43/10 80/44/10 72/45/10
f 163/46/11 71/47/11 74/48/11
f 166/49/10 129/50/10 164/51/10
f 171/52/12 167/53/12 194/54/12
f 112/55/13 172/56/13 177/57/13
f 133/58/4 179/59/4 136/60/4
f 178/61/14 196/62/14 182/63/14
f 116/64/15 61/65/15 183/66/15
f 190/67/16 188/68/16 192/69/16
f 86/70/17 63/71/17 193/72/17
f 101/73/18 127/74/18 106/75/18
f 55/76/19 42/77/19 113/78/19
f 85/79/10 170/80/10 159/81/10
f 20/82/20 185/83/20 64/84/20
f 115/85/6 174/86/6 132/87/6
f 22/88/21 180/89/21 62/90/21
f 19/91/11 135/92/11 66/93/11
f 23/94/10 141/95/10 33/96/10
f 24/97/11 147/98/11 34/99/11
f 25/100/10 153/101/10 35/102/10
f 26/103/11 37/104/11 36/105/11
f 21/106/5 156/107/5 60/108/5
f 43/109/6 97/110/6 150/111/6
f 29/112/5 144/113/5 44/114/5
f 30/115/6 138/116/6 45/117/6
f 31/118/5 47/119/5 46/120/5
f 76/1/1 70/121/1 100/2/1
f 88/4/2 82/122/2 77/5/2
f 189/7/3 83/123/3 89/8/3
f 140/10/4 137/124/4 131/11/4
f 143/13/4 139/125/4 142/14/4
f 152/16/4 149/126/4 145/17/4
f 155/19/4 151/127/4 154/20/4
f 169/22/4 184/128/4 157/23/4
f 105/25/22 111/129/22 114/26/22
f 99/28/6 107/130/6 110/29/6
f 96/31/23 93/131/23 56/32/23
f 90/34/24 87/132/24 57/35/24
f 176/37/25 58/133/25 92/38/25
f 75/40/26 81/134/26 84/41/26
f 69/43/27 39/135/27 80/44/27
f 163/46/11 128/136/11 71/47/11
f 166/49/28 121/137/28 129/50/28
f 171/52/29 122/138/29 167/53/29
f 112/55/13 120/139/13 172/56/13
f 133/58/4 173/140/4 179/59/4
f 178/61/14 65/141/14 196/62/14
f 116/64/30 48/142/30 61/65/30
f 190/67/16 59/143/16 188/68/16
f 86/70/31 38/144/31 63/71/31
f 101/73/32 40/145/32 127/74/32
f 55/76/33 41/146/33 42/77/33
f 85/79/10 191/147/10 170/80/10
f 20/82/20 186/148/20 185/83/20
f 115/85/6 181/149/6 174/86/6
f 22/88/21 195/150/21 180/89/21
f 19/91/11 165/151/11 135/92/11
f 23/94/10 162/152/10 141/95/10
f 24/97/11 73/153/11 147/98/11
f 25/100/10 79/154/10 153/101/10
f 26/103/11 27/155/11 37/104/11
f 21/106/5 91/156/5 156/107/5
f 43/109/6 28/157/6 97/110/6
f 29/112/5 103/158/5 144/113/5
f 30/115/6 109/159/6 138/116/6
f 31/118/5 32/160/5 47/119/5
s 1
f 1/161/34 2/162/34 3/163/34
f 123/164/20 5/165/20 6/166/20
f 161/167/35 168/168/35 9/169/35
f 125/170/21 126/171/21 12/172/21
f 118/173/4 119/174/4 15/175/4
f 16/176/36 17/177/36 18/178/36
f 130/179/34 49/180/34 68/181/34
f 4/182/20 50/183/20 117/184/20
f 7/185/35 51/186/35 8/187/35
f 10/188/21 52/189/21 11/190/21
f 13/191/4 53/192/4 14/193/4
f 67/194/36 54/195/36 124/196/36
