# Blender v2.79 (sub 0) OBJ File: ''
# www.blender.org
o Cube_Cube.001
v -45.508598 0.105194 45.508598
v -45.508598 175.490723 45.508598
v -45.508598 0.105194 -45.508598
v -45.508598 175.490723 -45.508598
v 45.508598 0.105194 45.508598
v 45.508598 175.490723 45.508598
v 45.508598 0.105194 -45.508598
v 45.508598 175.490723 -45.508598
v -45.508598 87.797958 45.508598
v -45.508598 87.797958 -45.508598
v 45.508598 87.797958 -45.508598
v 45.508598 87.797958 45.508598
v -45.508598 83.413322 -45.508598
v 45.508598 83.413322 -45.508598
v 45.508598 83.413322 45.508598
v -45.508598 83.413322 45.508598
v 0.000000 0.105194 -45.508598
v 0.000000 175.490723 -45.508598
v 0.000000 0.105194 45.508598
v 0.000000 175.490723 45.508598
v 0.000000 87.797958 45.508598
v 0.000000 87.797958 -45.508598
v 0.000000 83.413322 -45.508598
v 0.000000 83.413322 45.508598
v 45.508598 87.797958 105.508598
v 45.508598 83.413322 105.508598
v 0.000000 87.797958 105.508598
v 0.000000 83.413322 105.508598
v -104.811134 2.048962 45.508598
v -104.811134 -2.335674 45.508598
v -104.811134 2.048962 105.508598
v -104.811134 -2.335674 105.508598
v 45.508598 138.817505 -37.897110
v 45.508598 138.817505 37.897110
v 45.508598 124.471161 -37.897110
v 45.508598 124.471161 37.897110
v 19.323000 138.817505 -37.897110
v 19.323000 138.817505 37.897110
v 19.323000 124.471161 -37.897110
v 19.323000 124.471161 37.897110
v -45.508598 0.105194 0.000000
v -45.508598 175.490723 0.000000
v 45.508598 0.105194 0.000000
v 45.508598 175.490723 0.000000
v 45.508598 87.797958 0.000000
v -45.508598 87.797958 0.000000
v -45.508598 83.413322 0.000000
v 45.508598 83.413322 0.000000
v 0.000000 0.105194 0.000000
v 45.508598 138.817505 0.000000
v 45.508598 124.471161 0.000000
v 19.323000 138.817505 0.000000
v 19.323000 124.471161 0.000000
v -45.606922 188.496567 -0.000000
v -45.606922 178.202209 -48.533871
v 0.000000 194.801758 -48.533871
v 45.606922 211.401306 -48.533871
v 45.606922 221.695663 -0.000000
v 45.606922 211.401306 48.533871
v 0.000000 194.801758 48.533871
v -45.606922 178.202209 48.533871
v 0.000000 205.096115 -0.000000
v 0.000000 83.413322 99.508598
v 0.000000 87.797958 99.508598
v 45.508598 83.413322 99.508598
v 45.508598 87.797958 99.508598
v -104.811134 -2.335674 99.508598
v -104.811134 2.048962 99.508598
v 40.754299 87.797958 45.508598
v 0.000000 87.797958 72.508598
v 45.508598 87.797958 72.508598
v 40.754299 87.797958 99.508598
v 40.754299 87.797958 72.508598
v 45.273445 116.092010 105.508598
v -0.235153 116.092010 105.508598
v 45.273445 116.092010 72.508598
v 45.273445 116.092010 45.508598
v -105.046288 30.343014 105.508598
v -0.235153 116.092010 99.508598
v 45.273445 116.092010 99.508598
v -105.046288 30.343014 99.508598
v 40.519146 116.092010 99.508598
v 40.519146 116.092010 45.508598
v 40.519146 116.092010 72.508598
v 45.508598 -0.586678 105.508598
v 0.000000 -0.586678 105.508598
v 0.000000 -0.586678 99.508598
v 45.508598 -0.586678 99.508598
v -47.987591 83.293900 47.987591
v -47.987591 87.917381 47.987591
v 0.000000 87.917381 47.987591
v 47.987591 87.917381 0.000000
v 47.987591 87.917381 44.018959
v 0.000000 87.917381 -47.987591
v 47.987591 87.917381 -47.987591
v -47.987591 87.917381 0.000000
v -47.987591 87.917381 -47.987591
v -47.987591 83.293900 -47.987591
v 47.987591 83.293900 -47.987591
v 47.987591 83.293900 44.018959
v -47.987591 83.293900 0.000000
v 0.000000 83.293900 -47.987591
v 47.987591 83.293900 0.000000
v 0.000000 83.293900 47.987591
v 4.312684 86.673767 46.996536
v 4.312684 151.183395 46.996536
v 4.312684 86.673767 44.996536
v 4.312684 151.183395 44.996536
v 39.182121 86.673767 46.996536
v 39.182121 151.183395 46.996536
v 39.182121 86.673767 44.996536
v 39.182121 151.183395 44.996536
v -45.508598 0.105194 0.000000
v -45.508598 0.105194 0.000000
v -45.508598 0.105194 0.000000
v -45.508598 0.105194 45.508598
v -45.508598 0.105194 45.508598
v -45.508598 87.797958 45.508598
v -45.508598 87.797958 45.508598
v -45.508598 87.797958 45.508598
v -45.508598 175.490723 45.508598
v -45.508598 175.490723 45.508598
v -45.508598 175.490723 45.508598
v -45.508598 175.490723 0.000000
v -45.508598 175.490723 0.000000
v -45.508598 175.490723 0.000000
v -45.508598 175.490723 -45.508598
v -45.508598 175.490723 -45.508598
v -45.508598 175.490723 -45.508598
v -45.508598 83.413322 -45.508598
v -45.508598 83.413322 -45.508598
v -45.508598 83.413322 -45.508598
v -45.508598 0.105194 -45.508598
v -45.508598 0.105194 -45.508598
v 0.000000 0.105194 -45.508598
v 0.000000 0.105194 -45.508598
v 0.000000 0.105194 -45.508598
v 0.000000 175.490723 -45.508598
v 0.000000 175.490723 -45.508598
v 0.000000 175.490723 -45.508598
v 45.508598 175.490723 -45.508598
v 45.508598 175.490723 -45.508598
v 45.508598 175.490723 -45.508598
v 45.508598 175.490723 -45.508598
v 45.508598 83.413322 -45.508598
v 45.508598 83.413322 -45.508598
v 45.508598 83.413322 -45.508598
v 45.508598 0.105194 -45.508598
v 45.508598 0.105194 -45.508598
v 45.508598 0.105194 0.000000
v 45.508598 0.105194 0.000000
v 45.508598 0.105194 0.000000
v 45.508598 175.490723 0.000000
v 45.508598 175.490723 0.000000
v 45.508598 175.490723 0.000000
v 45.508598 175.490723 45.508598
v 45.508598 175.490723 45.508598
v 45.508598 175.490723 45.508598
v 45.508598 175.490723 45.508598
v 45.508598 83.413322 45.508598
v 45.508598 83.413322 45.508598
v 45.508598 83.413322 45.508598
v 45.508598 83.413322 45.508598
v 45.508598 83.413322 45.508598
v 45.508598 0.105194 45.508598
v 45.508598 0.105194 45.508598
v 0.000000 0.105194 45.508598
v 0.000000 0.105194 45.508598
v 0.000000 0.105194 45.508598
v 0.000000 175.490723 45.508598
v 0.000000 175.490723 45.508598
v 0.000000 175.490723 45.508598
v 45.508598 87.797958 -45.508598
v 45.508598 87.797958 -45.508598
v 45.508598 87.797958 -45.508598
v 45.508598 87.797958 -45.508598
v 47.987591 87.917381 -47.987591
v 47.987591 87.917381 -47.987591
v 47.987591 87.917381 -47.987591
v -45.508598 87.797958 -45.508598
v -45.508598 87.797958 -45.508598
v -45.508598 87.797958 -45.508598
v 45.508598 87.797958 45.508598
v 45.508598 87.797958 45.508598
v 45.508598 87.797958 45.508598
v 45.508598 87.797958 45.508598
v 45.508598 87.797958 45.508598
v 45.508598 87.797958 45.508598
v 45.508598 87.797958 45.508598
v 0.000000 87.797958 45.508598
v 0.000000 87.797958 45.508598
v 0.000000 87.797958 45.508598
v 0.000000 87.797958 45.508598
v 0.000000 87.797958 45.508598
v 0.000000 87.797958 45.508598
v 45.508598 87.797958 0.000000
v 45.508598 87.797958 0.000000
v 45.508598 87.797958 0.000000
v 0.000000 87.797958 -45.508598
v 0.000000 87.797958 -45.508598
v 0.000000 87.797958 -45.508598
v -45.508598 87.797958 0.000000
v -45.508598 87.797958 0.000000
v -45.508598 87.797958 0.000000
v -47.987591 87.917381 47.987591
v -47.987591 87.917381 47.987591
v -47.987591 87.917381 47.987591
v -47.987591 87.917381 0.000000
v -47.987591 87.917381 0.000000
v -47.987591 87.917381 0.000000
v -45.508598 83.413322 45.508598
v -45.508598 83.413322 45.508598
v -45.508598 83.413322 45.508598
v -45.508598 83.413322 0.000000
v -45.508598 83.413322 0.000000
v -45.508598 83.413322 0.000000
v 0.000000 83.413322 -45.508598
v 0.000000 83.413322 -45.508598
v 0.000000 83.413322 -45.508598
v 45.508598 83.413322 0.000000
v 45.508598 83.413322 0.000000
v 45.508598 83.413322 0.000000
v 0.000000 83.413322 45.508598
v 0.000000 83.413322 45.508598
v 0.000000 83.413322 45.508598
v 0.000000 83.413322 45.508598
v 0.000000 83.413322 45.508598
v 0.000000 83.413322 45.508598
v 40.754299 87.797958 45.508598
v 40.754299 87.797958 45.508598
v 40.754299 87.797958 45.508598
v -47.987591 87.917381 -47.987591
v -47.987591 87.917381 -47.987591
v -47.987591 87.917381 -47.987591
v 0.000000 194.801758 48.533871
v 0.000000 194.801758 48.533871
v 0.000000 194.801758 48.533871
v 0.000000 0.105194 0.000000
v 0.000000 0.105194 0.000000
v 0.000000 0.105194 0.000000
v 45.508598 87.797958 105.508598
v 45.508598 87.797958 105.508598
v 45.508598 87.797958 105.508598
v 45.508598 83.413322 105.508598
v 45.508598 83.413322 105.508598
v 45.508598 83.413322 105.508598
v 0.000000 87.797958 105.508598
v 0.000000 87.797958 105.508598
v 0.000000 87.797958 105.508598
v 0.000000 83.413322 105.508598
v 0.000000 83.413322 105.508598
v 0.000000 83.413322 105.508598
v 0.000000 83.413322 105.508598
v 0.000000 83.413322 99.508598
v 0.000000 83.413322 99.508598
v 0.000000 83.413322 99.508598
v 0.000000 83.413322 99.508598
v 0.000000 87.797958 72.508598
v 0.000000 87.797958 72.508598
v 45.508598 83.413322 99.508598
v 45.508598 83.413322 99.508598
v 45.508598 83.413322 99.508598
v 45.508598 83.413322 99.508598
v 45.508598 87.797958 72.508598
v 45.508598 87.797958 72.508598
v -104.811134 2.048962 45.508598
v -104.811134 2.048962 45.508598
v -104.811134 -2.335674 45.508598
v -104.811134 -2.335674 45.508598
v -104.811134 2.048962 105.508598
v -104.811134 2.048962 105.508598
v -104.811134 2.048962 105.508598
v -104.811134 -2.335674 105.508598
v -104.811134 -2.335674 105.508598
v -104.811134 -2.335674 99.508598
v -104.811134 -2.335674 99.508598
v -104.811134 -2.335674 99.508598
v -104.811134 2.048962 99.508598
v -104.811134 2.048962 99.508598
v -104.811134 2.048962 99.508598
v -104.811134 2.048962 99.508598
v 45.508598 138.817505 0.000000
v 45.508598 138.817505 0.000000
v 45.508598 138.817505 0.000000
v 45.508598 138.817505 37.897110
v 45.508598 138.817505 37.897110
v 45.508598 138.817505 37.897110
v 45.508598 138.817505 -37.897110
v 45.508598 138.817505 -37.897110
v 45.508598 138.817505 -37.897110
v 45.508598 124.471161 -37.897110
v 45.508598 124.471161 -37.897110
v 45.508598 124.471161 -37.897110
v 45.508598 124.471161 37.897110
v 45.508598 124.471161 37.897110
v 45.508598 124.471161 37.897110
v 45.508598 124.471161 0.000000
v 45.508598 124.471161 0.000000
v 45.508598 124.471161 0.000000
v 19.323000 138.817505 0.000000
v 19.323000 138.817505 0.000000
v 19.323000 138.817505 0.000000
v 19.323000 138.817505 37.897110
v 19.323000 138.817505 37.897110
v 19.323000 138.817505 -37.897110
v 19.323000 138.817505 -37.897110
v 19.323000 124.471161 -37.897110
v 19.323000 124.471161 -37.897110
v 19.323000 124.471161 37.897110
v 19.323000 124.471161 37.897110
v 19.323000 124.471161 0.000000
v 19.323000 124.471161 0.000000
v 19.323000 124.471161 0.000000
v 45.606922 211.401306 48.533871
v 45.606922 211.401306 48.533871
v 45.606922 221.695663 -0.000000
v 45.606922 221.695663 -0.000000
v 45.606922 221.695663 -0.000000
v 47.987591 83.293900 -47.987591
v 47.987591 83.293900 -47.987591
v 47.987591 83.293900 -47.987591
v 0.000000 83.293900 -47.987591
v 0.000000 83.293900 -47.987591
v 0.000000 83.293900 -47.987591
v 45.606922 211.401306 -48.533871
v 45.606922 211.401306 -48.533871
v -45.606922 188.496567 -0.000000
v -45.606922 188.496567 -0.000000
v -45.606922 188.496567 -0.000000
v -45.606922 178.202209 -48.533871
v -45.606922 178.202209 -48.533871
v 0.000000 194.801758 -48.533871
v 0.000000 194.801758 -48.533871
v 0.000000 194.801758 -48.533871
v -45.606922 178.202209 48.533871
v -45.606922 178.202209 48.533871
v 0.000000 205.096115 -0.000000
v 0.000000 205.096115 -0.000000
v 0.000000 205.096115 -0.000000
v 40.754299 87.797958 99.508598
v 40.754299 87.797958 99.508598
v 40.519146 116.092010 99.508598
v 40.519146 116.092010 99.508598
v 40.519146 116.092010 99.508598
v 45.508598 87.797958 99.508598
v 45.508598 87.797958 99.508598
v 45.508598 87.797958 99.508598
v 0.000000 87.797958 99.508598
v 0.000000 87.797958 99.508598
v 0.000000 87.797958 99.508598
v -0.235153 116.092010 99.508598
v -0.235153 116.092010 99.508598
v -0.235153 116.092010 99.508598
v 40.754299 87.797958 72.508598
v 40.754299 87.797958 72.508598
v 40.754299 87.797958 72.508598
v -105.046288 30.343014 99.508598
v -105.046288 30.343014 99.508598
v 45.273445 116.092010 105.508598
v 45.273445 116.092010 105.508598
v -0.235153 116.092010 105.508598
v -0.235153 116.092010 105.508598
v -0.235153 116.092010 105.508598
v 45.273445 116.092010 72.508598
v 45.273445 116.092010 72.508598
v 45.273445 116.092010 72.508598
v 45.273445 116.092010 45.508598
v 45.273445 116.092010 45.508598
v -105.046288 30.343014 105.508598
v -105.046288 30.343014 105.508598
v 45.273445 116.092010 99.508598
v 45.273445 116.092010 99.508598
v 45.273445 116.092010 99.508598
v 40.519146 116.092010 45.508598
v 40.519146 116.092010 45.508598
v 40.519146 116.092010 72.508598
v 40.519146 116.092010 72.508598
v 40.519146 116.092010 72.508598
v 45.508598 -0.586678 105.508598
v 45.508598 -0.586678 105.508598
v 0.000000 -0.586678 105.508598
v 0.000000 -0.586678 105.508598
v 0.000000 -0.586678 99.508598
v 0.000000 -0.586678 99.508598
v 45.508598 -0.586678 99.508598
v 45.508598 -0.586678 99.508598
v -47.987591 83.293900 47.987591
v -47.987591 83.293900 47.987591
v -47.987591 83.293900 47.987591
v 0.000000 87.917381 47.987591
v 0.000000 87.917381 47.987591
v 47.987591 87.917381 0.000000
v 47.987591 87.917381 0.000000
v 47.987591 87.917381 0.000000
v 47.987591 87.917381 44.018959
v 47.987591 87.917381 44.018959
v 0.000000 87.917381 -47.987591
v 0.000000 87.917381 -47.987591
v 0.000000 87.917381 -47.987591
v -47.987591 83.293900 -47.987591
v -47.987591 83.293900 -47.987591
v -47.987591 83.293900 -47.987591
v 47.987591 83.293900 44.018959
v 47.987591 83.293900 44.018959
v -47.987591 83.293900 0.000000
v -47.987591 83.293900 0.000000
v -47.987591 83.293900 0.000000
v 47.987591 83.293900 0.000000
v 47.987591 83.293900 0.000000
v 47.987591 83.293900 0.000000
v 0.000000 83.293900 47.987591
v 0.000000 83.293900 47.987591
v 4.312684 86.673767 44.996536
v 4.312684 86.673767 44.996536
v 4.312684 86.673767 46.996536
v 4.312684 86.673767 46.996536
v 4.312684 151.183395 46.996536
v 4.312684 151.183395 46.996536
v 4.312684 151.183395 44.996536
v 4.312684 151.183395 44.996536
v 39.182121 86.673767 44.996536
v 39.182121 86.673767 44.996536
v 39.182121 151.183395 44.996536
v 39.182121 151.183395 44.996536
v 39.182121 86.673767 46.996536
v 39.182121 86.673767 46.996536
v 39.182121 151.183395 46.996536
v 39.182121 151.183395 46.996536
vt 0.244740 0.521038
vt 0.477998 0.970514
vt 0.244740 0.970514
vt 0.460958 0.754296
vt 0.011482 0.987553
vt 0.011482 0.754295
vt 0.011482 0.970513
vt 0.050496 0.709008
vt 0.050496 0.782542
vt 0.244740 0.971532
vt 0.011482 0.522056
vt 0.244740 0.522055
vt 0.094812 0.686185
vt 0.141560 0.722348
vt 0.094812 0.722348
vt 0.236696 0.599426
vt 0.008498 0.768272
vt 0.022722 0.599426
vt 0.929084 0.639754
vt 0.729429 0.628866
vt 0.939960 0.628866
vt 0.597664 0.627353
vt 0.738730 0.619660
vt 0.738730 0.627353
vt 0.879797 0.627353
vt 0.738730 0.619660
vt 0.887481 0.619660
vt 0.929084 0.628866
vt 0.729429 0.639754
vt 0.729429 0.628866
vt 0.244740 0.521036
vt 0.477999 0.948041
vt 0.244740 0.948041
vt 0.438486 0.754296
vt 0.011481 0.987555
vt 0.011481 0.754296
vt 0.011436 0.754296
vt 0.478044 0.520992
vt 0.478044 0.754296
vt 0.244740 0.948041
vt 0.011481 0.521037
vt 0.244740 0.521037
vt 0.477999 0.948041
vt 0.244740 0.521037
vt 0.477999 0.521036
vt 0.438486 0.521037
vt 0.011481 0.754296
vt 0.011481 0.521036
vt 0.529774 0.628866
vt 0.729429 0.639754
vt 0.518898 0.639754
vt 0.589303 0.712501
vt 0.718672 0.526548
vt 0.725437 0.526475
vt 0.235608 0.674840
vt 0.019953 0.691892
vt 0.020609 0.672704
vt 0.094812 0.722348
vt 0.141560 0.758511
vt 0.094812 0.758511
vt 0.244740 0.971532
vt 0.244740 0.522055
vt 0.361369 0.521038
vt 0.460958 0.521038
vt 0.011482 0.754295
vt 0.011483 0.521038
vt 0.844403 0.864161
vt 0.615900 0.848533
vt 0.844220 0.847057
vt 0.615900 0.848533
vt 0.840717 0.519380
vt 0.844220 0.847057
vt 0.641886 0.944867
vt 0.845092 0.536085
vt 0.941034 0.536085
vt 0.901345 0.564961
vt 0.910603 0.570977
vt 0.901345 0.570977
vt 0.734696 0.891688
vt 0.725437 0.885672
vt 0.734696 0.885672
vt 0.115484 0.942144
vt 0.118737 0.803910
vt 0.118737 0.945477
vt 0.910603 0.636227
vt 0.901345 0.891688
vt 0.901345 0.636227
vt 0.667844 0.513060
vt 0.740639 0.959418
vt 0.595049 0.959418
vt 0.091703 0.800578
vt 0.115484 0.842260
vt 0.091703 0.842260
vt 0.244740 0.970513
vt 0.050496 0.782542
vt 0.244740 0.782542
vt 0.244740 0.521038
vt 0.438984 0.709009
vt 0.244740 0.709008
vt 0.477998 0.970514
vt 0.438984 0.709009
vt 0.477997 0.521038
vt 0.788629 0.484798
vt 0.788856 0.484861
vt 0.788629 0.484861
vt 0.133741 0.580699
vt 0.094812 0.601508
vt 0.094812 0.580699
vt 0.133469 0.829381
vt 0.148200 0.800578
vt 0.148200 0.829379
vt 0.133469 0.800580
vt 0.118737 0.829379
vt 0.118737 0.800578
vt 0.094812 0.580699
vt 0.055882 0.601508
vt 0.055882 0.580699
vt 0.788402 0.484798
vt 0.788629 0.484861
vt 0.788402 0.484861
vt 0.244740 0.521038
vt 0.050496 0.709008
vt 0.011484 0.521039
vt 0.244740 0.970513
vt 0.438984 0.782541
vt 0.477998 0.970514
vt 0.091703 0.842260
vt 0.115484 0.883943
vt 0.091703 0.883943
vt 0.048063 0.722348
vt 0.094812 0.758511
vt 0.048063 0.758511
vt 0.450606 0.672663
vt 0.236542 0.767184
vt 0.235608 0.674840
vt 0.011436 0.987599
vt 0.478044 0.754296
vt 0.478044 0.987599
vt 0.011481 0.521036
vt 0.244740 0.948041
vt 0.011481 0.948041
vt 0.929084 0.628866
vt 0.729429 0.639754
vt 0.729429 0.628866
vt 0.879797 0.627353
vt 0.738730 0.619660
vt 0.887481 0.619660
vt 0.236696 0.599426
vt 0.464894 0.768272
vt 0.236696 0.816674
vt 0.048063 0.686185
vt 0.094812 0.722348
vt 0.048063 0.722348
vt 0.011482 0.521038
vt 0.244740 0.970514
vt 0.011482 0.970514
vt 0.752214 0.473909
vt 0.531906 0.240240
vt 0.752214 0.240240
vt 0.752214 0.240240
vt 0.531906 0.006570
vt 0.752214 0.006570
vt 0.972522 0.006570
vt 0.752214 0.240240
vt 0.752214 0.006570
vt 0.972522 0.240240
vt 0.752214 0.473909
vt 0.752214 0.240240
vt 0.549964 0.127744
vt 0.733774 0.075212
vt 0.733774 0.127744
vt 0.209941 0.753910
vt 0.025268 0.672661
vt 0.239125 0.672876
vt 0.398605 0.821856
vt 0.239125 0.672876
vt 0.452982 0.672661
vt 0.917585 0.127744
vt 0.733774 0.075212
vt 0.929805 0.116786
vt 0.540663 0.792820
vt 0.729466 0.618412
vt 0.729466 0.792820
vt 0.799381 0.556015
vt 0.665752 0.965700
vt 0.665752 0.556015
vt 0.818020 0.891688
vt 0.734696 0.885672
vt 0.818020 0.885672
vt 0.540663 0.792820
vt 0.729466 0.792820
vt 0.540663 0.820084
vt 0.683346 0.763241
vt 0.571355 0.606169
vt 0.683346 0.606169
vt 0.818020 0.570977
vt 0.901345 0.636227
vt 0.818020 0.636227
vt 0.734695 0.571778
vt 0.776358 0.533292
vt 0.776358 0.571778
vt 0.947152 0.624528
vt 0.945440 0.845312
vt 0.910603 0.593810
vt 0.795337 0.763241
vt 0.683346 0.606169
vt 0.795337 0.606169
vt 0.734695 0.533292
vt 0.725437 0.591725
vt 0.725437 0.526475
vt 0.734695 0.591725
vt 0.725437 0.847187
vt 0.725437 0.591725
vt 0.776358 0.533292
vt 0.734695 0.526475
vt 0.776358 0.526475
vt 0.818020 0.533292
vt 0.776358 0.526475
vt 0.818020 0.526475
vt 0.729466 0.792820
vt 0.918270 0.618412
vt 0.918270 0.792820
vt 0.159248 0.800620
vt 0.154364 0.831688
vt 0.154364 0.800578
vt 0.776358 0.571778
vt 0.818020 0.533292
vt 0.818020 0.571778
vt 0.725437 0.885672
vt 0.734696 0.847187
vt 0.734696 0.885672
vt 0.616083 0.865637
vt 0.844403 0.974542
vt 0.616083 0.976017
vt 0.947152 0.624528
vt 0.945440 0.526475
vt 0.981989 0.557193
vt 0.901345 0.564961
vt 0.910603 0.526475
vt 0.910603 0.564961
vt 0.901345 0.686236
vt 0.910603 0.751485
vt 0.901345 0.751485
vt 0.910603 0.570977
vt 0.901345 0.686236
vt 0.901345 0.570977
vt 0.609099 0.802885
vt 0.538877 0.969587
vt 0.538877 0.802885
vt 0.618357 0.802885
vt 0.609099 0.918143
vt 0.609099 0.802885
vt 0.968917 0.778464
vt 0.527177 0.735904
vt 0.968917 0.735903
vt 0.748046 0.757180
vt 0.527173 0.735899
vt 0.748046 0.735899
vt 0.748048 0.735899
vt 0.968921 0.757180
vt 0.748048 0.757180
vt 0.748048 0.735899
vt 0.968921 0.757180
vt 0.748048 0.757180
vt 0.527173 0.735899
vt 0.748048 0.757180
vt 0.527173 0.757180
vt 0.527173 0.735899
vt 0.748048 0.757180
vt 0.527173 0.757180
vt 0.968921 0.757180
vt 0.748046 0.735899
vt 0.968921 0.735899
vt 0.729429 0.639754
vt 0.518898 0.628866
vt 0.729429 0.628866
vt 0.760143 0.656072
vt 0.795565 0.711237
vt 0.760143 0.709774
vt 0.529774 0.628866
vt 0.729429 0.639754
vt 0.518898 0.639754
vt 0.118737 0.945477
vt 0.115484 0.942144
vt 0.115484 0.942144
vt 0.540652 0.650645
vt 0.939957 0.628869
vt 0.939957 0.650645
vt 0.605350 0.619662
vt 0.887479 0.635048
vt 0.589981 0.635048
vt 0.738730 0.619660
vt 0.589979 0.627353
vt 0.597664 0.619660
vt 0.879797 0.619660
vt 0.738730 0.627353
vt 0.738730 0.619660
vt 0.597664 0.627353
vt 0.738730 0.619660
vt 0.738730 0.627353
vt 0.440695 0.025399
vt 0.453309 0.469906
vt 0.440695 0.469906
vt 0.031600 0.025399
vt 0.236148 0.469906
vt 0.031600 0.469906
vt 0.465924 0.469906
vt 0.453310 0.025399
vt 0.465924 0.025399
vt 0.236148 0.025399
vt 0.440695 0.469906
vt 0.236148 0.469906
vt 0.465924 0.248868
vt 0.478538 0.472337
vt 0.465924 0.472337
vt 0.478538 0.248868
vt 0.465924 0.025399
vt 0.478538 0.025399
vt 0.477998 0.521038
vt 0.460958 0.987554
vt 0.011484 0.521039
vt 0.011482 0.971532
vt 0.141560 0.686185
vt 0.236696 0.816674
vt 0.729429 0.639754
vt 0.589979 0.619660
vt 0.738730 0.627353
vt 0.939960 0.639754
vt 0.477999 0.521036
vt 0.438485 0.987555
vt 0.011436 0.520992
vt 0.011481 0.948041
vt 0.244740 0.948041
vt 0.438486 0.754296
vt 0.729429 0.628866
vt 0.582538 0.712573
vt 0.236542 0.767184
vt 0.141560 0.722348
vt 0.477998 0.522055
vt 0.477998 0.971532
vt 0.460958 0.754296
vt 0.616083 0.865637
vt 0.612397 0.520856
vt 0.545944 0.944867
vt 0.910603 0.564961
vt 0.725437 0.891688
vt 0.115484 0.800578
vt 0.910603 0.891688
vt 0.595049 0.513060
vt 0.740639 0.513060
vt 0.115484 0.800578
vt 0.011482 0.970513
vt 0.477997 0.521038
vt 0.438984 0.782541
vt 0.788856 0.484798
vt 0.133741 0.601508
vt 0.133469 0.800580
vt 0.133469 0.829381
vt 0.094812 0.601508
vt 0.788629 0.484798
vt 0.244740 0.709008
vt 0.244740 0.782542
vt 0.115484 0.842260
vt 0.094812 0.722348
vt 0.452980 0.842911
vt 0.011436 0.754296
vt 0.244740 0.521036
vt 0.939960 0.639754
vt 0.738730 0.627353
vt 0.450670 0.599426
vt 0.094812 0.686185
vt 0.244740 0.521038
vt 0.531906 0.473909
vt 0.531906 0.240240
vt 0.972522 0.240240
vt 0.972522 0.473909
vt 0.537744 0.116786
vt 0.019952 0.689760
vt 0.209941 0.753910
vt 0.733774 0.127744
vt 0.540663 0.618412
vt 0.799381 0.965700
vt 0.734696 0.891688
vt 0.918270 0.820084
vt 0.918270 0.792820
vt 0.571355 0.763241
vt 0.901345 0.570977
vt 0.734695 0.533292
vt 0.981989 0.876029
vt 0.683346 0.763241
vt 0.734695 0.526475
vt 0.734695 0.591725
vt 0.734696 0.847187
vt 0.734695 0.533292
vt 0.776358 0.533292
vt 0.729466 0.618412
vt 0.159248 0.831731
vt 0.776358 0.533292
vt 0.725437 0.847187
vt 0.844403 0.864161
vt 0.910603 0.593810
vt 0.901345 0.526475
vt 0.910603 0.686236
vt 0.910603 0.686236
vt 0.609099 0.969587
vt 0.618357 0.918143
vt 0.527177 0.778464
vt 0.527173 0.757180
vt 0.968921 0.735899
vt 0.968921 0.735899
vt 0.748048 0.735899
vt 0.748048 0.735899
vt 0.748046 0.757180
vt 0.529774 0.639754
vt 0.795565 0.654610
vt 0.729429 0.628866
vt 0.118737 0.945477
vt 0.518901 0.628869
vt 0.887479 0.619662
vt 0.738730 0.627353
vt 0.887481 0.627353
vt 0.589979 0.619660
vt 0.453309 0.025399
vt 0.236148 0.025399
vt 0.453310 0.469906
vt 0.440695 0.025399
vt 0.478538 0.248868
vt 0.465924 0.248868
vn -1.0000 0.0000 0.0000
vn 0.0000 0.0000 -1.0000
vn 1.0000 0.0000 0.0000
vn 0.0000 0.0000 1.0000
vn 0.0000 -1.0000 0.0000
vn 1.0000 -0.0027 0.0000
vn -0.0481 0.9988 0.0000
vn 0.0000 -0.9988 0.0481
vn 0.0481 -0.9988 0.0000
vn 0.0000 0.9988 0.0481
vn 0.0481 0.9988 0.0000
vn 0.0000 -0.7447 0.6674
vn 0.6332 -0.7740 0.0000
vn -0.6332 0.7740 0.0000
vn 0.0000 1.0000 0.0000
vn 0.0000 -0.1548 0.9880
vn 1.0000 -0.0021 0.0005
vn -0.3354 0.9216 0.1955
vn -0.3354 0.9216 -0.1955
vn -1.0000 -0.0076 0.0000
vn 0.0562 -0.1545 -0.9864
vn 0.0306 -0.0840 -0.9960
vn -0.9996 -0.0293 0.0062
vn 1.0000 0.0083 0.0000
vn -1.0000 -0.0083 0.0000
vn 0.5151 0.0000 0.8572
vn 0.0000 0.9988 -0.0481
vn 0.0000 -0.9988 -0.0481
vn -0.0481 -0.9988 0.0000
vn 1.0000 -0.0021 -0.0005
vn 0.0562 -0.1545 0.9864
vn 0.0306 -0.0840 0.9960
vn -0.9996 -0.0293 -0.0062
vn 0.0000 -0.7447 -0.6674
vn 0.0000 -0.1548 -0.9880
s off
f 124/1/1 180/2/1 202/3/1
f 138/4/2 174/5/2 199/6/2
f 157/7/3 294/8/3 286/9/3
f 170/10/4 118/11/4 190/12/4
f 151/13/5 167/14/5 238/15/5
f 153/16/6 314/17/6 156/18/6
f 173/19/7 393/20/7 177/21/7
f 132/22/8 322/23/8 218/24/8
f 131/25/9 405/26/9 401/27/9
f 11/28/10 397/29/10 201/30/10
f 216/31/1 133/32/1 114/33/1
f 217/34/2 148/35/2 136/36/2
f 220/37/3 165/38/3 152/39/3
f 223/40/4 117/41/4 168/42/4
f 162/43/4 19/44/4 5/45/4
f 13/46/2 135/47/2 134/48/2
f 119/49/11 208/50/11 205/51/11
f 251/52/4 270/53/4 273/54/4
f 172/55/12 335/56/12 123/57/12
f 240/58/5 116/59/5 113/60/5
f 171/61/4 191/62/4 229/63/4
f 128/64/2 200/65/2 181/66/2
f 241/67/4 250/68/4 244/69/4
f 253/70/4 379/71/4 246/72/4
f 249/73/4 369/74/4 272/75/4
f 345/76/3 245/77/3 260/78/3
f 275/79/1 271/80/1 279/81/1
f 225/82/2 266/83/2 192/84/2
f 252/85/13 277/86/13 254/87/13
f 258/88/14 267/89/14 278/90/14
f 293/91/15 312/92/15 298/93/15
f 155/94/3 285/95/3 282/96/3
f 198/97/3 292/98/3 299/99/3
f 142/100/3 291/101/3 176/102/3
f 300/103/3 309/104/3 311/105/3
f 287/106/5 302/107/5 284/108/5
f 289/109/4 307/110/4 35/111/4
f 296/112/2 38/113/2 34/114/2
f 283/115/5 306/116/5 290/117/5
f 37/118/3 53/119/3 39/120/3
f 196/121/3 295/122/3 184/123/3
f 154/124/3 33/125/3 143/126/3
f 51/127/15 40/128/15 36/129/15
f 137/130/5 41/131/5 3/132/5
f 6/133/16 236/134/16 20/135/16
f 146/136/3 150/137/3 149/138/3
f 212/139/1 115/140/1 1/141/1
f 182/142/11 209/143/11 46/144/11
f 147/145/8 323/146/8 319/147/8
f 44/148/17 325/149/17 317/150/17
f 7/151/5 49/152/5 17/153/5
f 122/154/1 204/155/1 120/156/1
f 328/157/18 237/158/18 337/159/18
f 339/160/18 59/161/18 318/162/18
f 326/163/19 338/164/19 58/165/19
f 333/166/19 327/167/19 62/168/19
f 2/169/20 329/170/20 126/171/20
f 140/172/21 331/173/21 334/174/21
f 8/175/22 56/176/22 57/177/22
f 4/178/23 54/179/23 55/180/23
f 186/181/24 364/182/24 264/183/24
f 255/184/13 269/185/13 226/186/13
f 30/187/1 281/188/1 29/189/1
f 185/190/3 265/191/3 161/192/3
f 259/193/15 341/194/15 354/195/15
f 15/196/5 256/197/5 228/198/5
f 340/199/25 376/200/25 356/201/25
f 349/202/2 357/203/2 351/204/2
f 21/205/15 355/206/15 230/207/15
f 343/208/15 361/209/15 359/210/15
f 79/211/14 370/212/14 75/213/14
f 378/214/15 372/215/15 365/216/15
f 374/217/15 76/218/15 368/219/15
f 71/220/24 373/221/24 347/222/24
f 231/223/2 77/224/2 12/225/2
f 73/226/25 83/227/25 69/228/25
f 31/229/25 81/230/25 68/231/25
f 27/232/4 360/233/4 363/234/4
f 64/235/2 344/236/2 72/237/2
f 66/238/24 74/239/24 25/240/24
f 385/241/5 382/242/5 383/243/5
f 26/244/3 386/245/3 263/246/3
f 65/247/2 384/248/2 257/249/2
f 63/250/1 86/251/1 28/252/1
f 390/253/4 387/254/4 411/255/4
f 392/256/3 403/257/3 408/258/3
f 399/259/2 320/260/2 324/261/2
f 210/262/1 400/263/1 407/264/1
f 234/265/2 102/266/2 98/267/2
f 90/268/1 406/269/1 388/270/1
f 95/271/3 409/272/3 321/273/3
f 45/274/7 396/275/7 92/276/7
f 163/277/26 93/278/26 189/279/26
f 10/280/10 94/281/10 97/282/10
f 194/283/3 412/284/3 227/285/3
f 9/286/27 91/287/27 195/288/27
f 213/289/28 104/290/28 389/291/28
f 222/292/29 100/293/29 164/294/29
f 14/295/29 103/296/29 48/297/29
f 16/298/9 101/299/9 47/300/9
f 417/301/1 413/302/1 415/303/1
f 420/304/2 421/305/2 414/306/2
f 424/307/3 425/308/3 422/309/3
f 428/310/4 416/311/4 426/312/4
f 111/313/5 105/314/5 107/315/5
f 108/316/15 110/317/15 112/318/15
f 124/1/1 127/319/1 180/2/1
f 138/4/2 141/320/2 174/5/2
f 157/7/3 183/321/3 294/8/3
f 170/10/4 121/322/4 118/11/4
f 151/13/5 166/323/5 167/14/5
f 153/16/30 316/324/30 314/17/30
f 173/19/7 197/325/7 393/20/7
f 132/22/8 402/326/8 322/23/8
f 131/25/9 214/327/9 405/26/9
f 11/28/10 178/328/10 397/29/10
f 216/31/1 130/329/1 133/32/1
f 217/34/2 145/330/2 148/35/2
f 220/37/3 160/331/3 165/38/3
f 223/40/4 211/332/4 117/41/4
f 162/43/4 224/333/4 19/44/4
f 13/46/2 219/334/2 135/47/2
f 119/49/11 203/335/11 208/50/11
f 251/52/4 248/336/4 270/53/4
f 172/55/31 235/337/31 335/56/31
f 240/58/5 169/338/5 116/59/5
f 229/63/4 187/339/4 158/340/4
f 158/340/4 171/61/4 229/63/4
f 128/64/2 139/341/2 200/65/2
f 241/67/4 247/342/4 250/68/4
f 253/70/4 381/343/4 379/71/4
f 249/73/4 362/344/4 369/74/4
f 345/76/3 242/345/3 245/77/3
f 275/79/1 274/346/1 271/80/1
f 225/82/2 268/347/2 266/83/2
f 252/85/13 32/348/13 277/86/13
f 278/90/14 348/349/14 258/88/14
f 258/88/14 193/350/14 267/89/14
f 293/91/15 308/351/15 312/92/15
f 155/94/3 159/352/3 285/95/3
f 198/97/3 175/353/3 292/98/3
f 142/100/3 288/354/3 291/101/3
f 300/103/3 303/355/3 309/104/3
f 287/106/5 304/356/5 302/107/5
f 289/109/4 305/357/4 307/110/4
f 296/112/2 310/358/2 38/113/2
f 283/115/5 301/359/5 306/116/5
f 37/118/3 52/360/3 53/119/3
f 196/121/3 297/361/3 295/122/3
f 154/124/3 50/362/3 33/125/3
f 51/127/15 313/363/15 40/128/15
f 137/130/5 239/364/5 41/131/5
f 6/133/32 315/365/32 236/134/32
f 146/136/3 221/366/3 150/137/3
f 212/139/1 215/367/1 115/140/1
f 182/142/11 232/368/11 209/143/11
f 147/145/8 23/369/8 323/146/8
f 44/148/6 144/370/6 325/149/6
f 7/151/5 43/371/5 49/152/5
f 122/154/1 125/372/1 204/155/1
f 328/157/18 336/373/18 237/158/18
f 339/160/18 60/374/18 59/161/18
f 326/163/19 332/375/19 338/164/19
f 333/166/19 330/376/19 327/167/19
f 2/169/33 61/377/33 329/170/33
f 140/172/34 129/378/34 331/173/34
f 8/175/35 18/379/35 56/176/35
f 4/178/20 42/380/20 54/179/20
f 186/181/24 367/381/24 364/182/24
f 255/184/13 276/382/13 269/185/13
f 30/187/1 67/383/1 281/188/1
f 261/384/3 161/192/3 265/191/3
f 265/191/3 346/385/3 261/384/3
f 259/193/15 350/386/15 341/194/15
f 15/196/5 262/387/5 256/197/5
f 340/199/25 342/388/25 376/200/25
f 349/202/2 280/389/2 357/203/2
f 21/205/15 70/390/15 355/206/15
f 359/210/15 371/391/15 343/208/15
f 343/208/15 352/392/15 361/209/15
f 79/211/14 358/393/14 370/212/14
f 378/214/15 82/394/15 372/215/15
f 374/217/15 377/395/15 76/218/15
f 71/220/24 366/396/24 373/221/24
f 231/223/2 375/397/2 77/224/2
f 73/226/25 84/398/25 83/227/25
f 31/229/25 78/399/25 81/230/25
f 27/232/4 243/400/4 360/233/4
f 64/235/2 353/401/2 344/236/2
f 66/238/24 80/402/24 74/239/24
f 385/241/5 380/403/5 382/242/5
f 26/244/3 85/404/3 386/245/3
f 65/247/2 88/405/2 384/248/2
f 63/250/1 87/406/1 86/251/1
f 390/253/4 206/407/4 387/254/4
f 392/256/3 395/408/3 403/257/3
f 399/259/2 179/409/2 320/260/2
f 210/262/1 233/410/1 400/263/1
f 234/265/2 398/411/2 102/266/2
f 90/268/1 96/412/1 406/269/1
f 95/271/3 394/413/3 409/272/3
f 45/274/7 188/414/7 396/275/7
f 163/277/26 404/415/26 93/278/26
f 10/280/10 22/416/10 94/281/10
f 194/283/3 391/417/3 412/284/3
f 9/286/27 207/418/27 91/287/27
f 213/289/28 24/419/28 104/290/28
f 222/292/29 410/420/29 100/293/29
f 14/295/29 99/421/29 103/296/29
f 16/298/9 89/422/9 101/299/9
f 417/301/1 419/423/1 413/302/1
f 420/304/2 423/424/2 421/305/2
f 424/307/3 427/425/3 425/308/3
f 428/310/4 418/426/4 416/311/4
f 111/313/5 109/427/5 105/314/5
f 108/316/15 106/428/15 110/317/15
