# Blender v2.79 (sub 0) OBJ File: ''
# www.blender.org
o Spruce.001
v 1.603124 97.171036 -1.798388
v 1.521975 98.215378 -2.499776
v -0.005061 99.737251 -0.057053
v 0.076096 98.692917 0.644335
v 0.855900 97.171036 -2.265503
v -0.671136 98.692917 0.177216
v 2.053344 97.039795 0.467239
v 2.717925 98.027756 0.053173
v -0.005061 99.813271 -0.057053
v -0.669643 98.825302 0.357025
v 2.088984 97.039795 -0.413262
v -0.634002 98.825302 -0.523488
v -0.913199 97.006950 -1.795667
v -1.705856 97.955154 -2.044168
v -0.005061 99.897705 -0.057053
v 0.787596 98.949493 0.191447
v -1.582677 97.006950 -1.222653
v 0.118118 98.949509 0.764461
v -2.132604 97.270737 0.552353
v -2.474299 98.279633 1.226568
v -0.005061 99.973724 -0.057053
v 0.336634 98.964844 -0.731269
v -1.726149 97.270737 1.334233
v 0.743088 98.964844 0.050612
v -0.493808 97.262894 1.992027
v -0.068636 98.246651 2.655822
v -0.005061 100.049728 -0.057053
v -0.430233 99.065979 -0.720852
v 0.387163 97.262894 2.012676
v 0.450738 99.065979 -0.700206
v 2.589208 95.185806 -0.088991
v 3.145024 96.352768 -0.719544
v -0.005061 98.211105 -0.057053
v -0.560877 97.044151 0.573496
v 2.382311 95.185822 -1.072798
v -0.767775 97.044151 -0.410311
v 1.414176 95.295258 2.364780
v 2.177173 96.508751 2.481223
v -0.005061 98.124413 -0.057053
v -0.768058 96.910904 -0.173484
v 2.176498 95.295258 1.709393
v -0.005737 96.910904 -0.828883
v -2.003953 95.146393 1.821377
v -1.960755 96.346252 2.613082
v -0.005061 98.037674 -0.057053
v -0.048268 96.837830 -0.848762
v -1.192904 95.146393 2.415419
v 0.762790 96.837830 -0.254720
v -0.065375 95.285721 -3.028193
v -0.655547 96.532654 -3.434600
v -0.005061 97.941330 -0.057053
v 0.585111 96.694397 0.349349
v -1.052560 95.285721 -2.838068
v -0.402082 96.694397 0.539474
v -2.696961 95.296570 -1.503994
v -3.303331 96.559593 -1.179353
v -0.005061 97.854630 -0.057053
v 0.601317 96.591591 -0.381694
v -3.020807 95.296555 -0.552256
v 0.277463 96.591591 0.570052
v -2.985316 92.482391 2.351202
v -2.904726 94.065910 3.209769
v -0.005061 95.689560 -0.057054
v -0.085652 94.106033 -0.915632
v -2.042655 92.482391 3.187917
v 0.857009 94.106033 -0.078909
v -3.468374 92.468796 -1.430920
v -4.224840 94.032150 -0.946269
v -0.005061 95.798294 -0.057054
v 0.751396 94.234924 -0.541713
v -3.728278 92.468796 -0.197567
v 0.491500 94.234955 0.691636
v 1.610756 93.268883 3.858704
v 2.337712 94.918892 3.845181
v -0.005061 95.919090 -0.057054
v -0.732017 94.269081 -0.043535
v 2.691401 93.268875 3.209928
v 0.348628 94.269081 -0.692320
v 3.483633 92.480728 -0.520705
v 3.988919 94.002182 -1.345997
v -0.005061 96.027817 -0.057054
v -0.510348 94.506378 0.768239
v 3.096521 92.480728 -1.720223
v -0.897460 94.506378 -0.431279
v 1.330425 92.932114 -3.650928
v 0.822945 94.516068 -4.347166
v -0.005061 96.136520 -0.057054
v 0.502419 94.552551 0.639180
v 0.092820 92.932114 -3.889791
v -0.735186 94.552567 0.400313
v -4.892357 89.968094 -1.409734
v -5.752351 92.063141 -0.662101
v -0.005061 94.206421 -0.057054
v 0.854932 92.111382 -0.804690
v -5.066901 89.968094 0.248229
v 0.680390 92.111389 0.853277
v -1.011347 89.371086 -4.601898
v -2.156167 91.383423 -5.174244
v -0.005061 94.062637 -0.057054
v 1.139759 92.050293 0.515300
v -2.548209 89.371078 -3.955850
v -0.397103 92.050293 1.161348
v 4.972008 90.413521 -2.630049
v 4.871825 92.595932 -3.586496
v -0.005061 93.918854 -0.057054
v 0.095122 91.736412 0.899393
v 3.994608 90.413521 -3.980596
v -0.882279 91.736435 -0.451158
v -1.423106 89.355286 4.662543
v -0.698720 91.423050 5.604489
v -0.005061 93.759071 -0.057054
v -0.729448 91.691284 -0.999000
v 0.231646 89.355286 4.865289
v 0.925305 91.691284 -0.796255
v 3.506195 89.373260 3.597433
v 4.628486 91.467728 3.393943
v -0.005061 93.615265 -0.057054
v -1.127353 91.520790 0.146431
v 4.502004 89.373253 2.260392
v -0.131544 91.520790 -1.190609
v 6.800712 86.550507 1.370130
v 7.430178 89.250519 0.375538
v -0.005061 90.824593 -0.057054
v -0.634528 88.124573 0.937534
v 6.920304 86.550522 -0.685349
v -0.514944 88.124588 -1.117934
v 2.194673 86.985992 6.699754
v 3.325856 89.705292 6.663864
v -0.005061 91.002197 -0.057054
v -1.136244 88.282875 -0.021164
v 4.039491 86.985985 5.785462
v 0.708565 88.282883 -0.935460
v 3.382774 86.870354 -6.090632
v 2.630054 89.565689 -7.009355
v -0.005061 91.199516 -0.057054
v 0.747659 88.504181 0.861664
v 1.457474 86.870354 -6.820374
v -1.177632 88.504181 0.131925
v -5.110958 87.041557 -4.721384
v -6.178406 89.736351 -4.197756
v -0.005061 91.377113 -0.057054
v 1.062388 88.682343 -0.580683
v -6.257879 87.041557 -3.011446
v -0.084534 88.682327 1.129243
v -6.647944 87.393242 2.218372
v -6.642914 90.102203 3.374686
v -0.005061 91.554703 -0.057054
v -0.010099 88.845749 -1.213380
v -5.702373 87.393242 4.047350
v 0.935481 88.845749 0.615606
v -1.210454 83.526146 8.752011
v 0.100443 86.956284 9.404181
v -0.005061 88.795479 -0.057055
v -1.315967 85.365356 -0.709237
v 1.396477 83.526161 8.722941
v 1.290972 85.365356 -0.738303
v -8.186324 83.080826 3.065078
v -8.201297 86.493011 4.570493
v -0.005061 88.570602 -0.057055
v 0.009911 85.158417 -1.562474
v -6.904554 83.080826 5.335325
v 1.291681 85.158417 0.707775
v -4.902833 82.864052 -7.322133
v -6.370358 86.276932 -6.993339
v -0.005061 88.345734 -0.057055
v 1.462462 84.932846 -0.385849
v -6.823697 82.864052 -5.559401
v -0.458400 84.932846 1.376895
v 8.889819 83.010460 1.298773
v 9.492786 86.453720 -0.001246
v -0.005061 88.095886 -0.057055
v -0.608029 84.652634 1.242972
v 8.905142 83.010483 -1.308275
v -0.592715 84.652634 -1.364075
v 5.481432 82.459061 -6.943838
v 4.714473 85.877876 -8.221764
v -0.005061 87.871017 -0.057055
v 0.761906 84.452202 1.220867
v 3.224304 82.459076 -8.248555
v -1.495231 84.452202 -0.083850
v -3.106977 78.233307 -9.870971
v -4.846849 82.229630 -9.960495
v -0.005061 84.559464 -0.057059
v 1.734811 80.563126 0.032472
v -5.844786 78.233307 -8.532459
v -1.002998 80.563126 1.370988
v 7.111712 78.877838 -7.801080
v 6.243919 82.902740 -9.233913
v -0.005061 84.822296 -0.057059
v 0.862731 80.797401 1.375765
v 4.592770 78.877838 -9.516357
v -1.656211 80.797409 -0.339498
v -10.246947 78.706673 -0.044596
v -10.885180 82.696091 1.593398
v -0.005061 85.114372 -0.057059
v 0.633171 81.124954 -1.695053
v -9.789889 78.706696 2.968429
v 1.090230 81.124947 1.317971
v -2.312602 78.960091 9.915422
v -0.862069 82.948692 10.911841
v -0.005061 85.377220 -0.057059
v -1.455603 81.388626 -1.053475
v 0.725631 78.960075 10.152815
v 1.582630 81.388626 -0.816095
v 7.753849 79.480637 6.857821
v 9.241490 83.490196 6.011574
v -0.005061 85.640076 -0.057059
v -1.492712 81.630524 0.789189
v 9.425984 79.480637 4.310048
v 0.179432 81.630508 -1.758578
v 5.146009 75.250420 10.157125
v 7.011029 79.663689 9.891584
v -0.005061 82.030052 -0.057060
v -1.870081 77.616760 0.208490
v 7.887237 75.250420 8.223935
v 0.871147 77.616753 -1.724716
v -6.395989 74.677460 9.221556
v -5.313292 79.067642 10.827707
v -0.005061 81.740707 -0.057060
v -1.087767 77.350525 -1.663207
v -3.381069 74.677444 10.691862
v 1.927170 77.350525 -0.192900
v -10.496651 74.398529 -4.181392
v -11.811776 78.789635 -2.762069
v -0.005061 81.451401 -0.057060
v 1.310065 77.060287 -1.476379
v -11.245752 74.398529 -0.911766
v 0.560972 77.060287 1.793247
v 10.409824 74.586929 -5.111342
v 10.100082 79.017082 -6.928933
v -0.005061 81.129929 -0.057060
v 0.304688 76.699776 1.760534
v 8.523585 74.586929 -7.885093
v -1.581559 76.699760 -1.013217
v 0.783133 73.877472 -11.358397
v -0.962144 78.276192 -12.152866
v -0.005061 80.840607 -0.057060
v 1.740216 76.441895 0.737408
v -2.560753 73.877480 -11.093814
v -1.603680 76.441895 1.001992
v -10.348899 69.108681 6.519104
v -9.918931 73.867912 8.548815
v -0.005061 76.642487 -0.057061
v -0.435029 71.883255 -2.086772
v -7.969801 69.108688 9.259796
v 1.944069 71.883270 0.653920
v -11.097223 69.876274 -5.874908
v -12.480320 74.669525 -4.437294
v -0.005061 76.955513 -0.057061
v 1.378035 72.162277 -1.494671
v -12.299546 69.876289 -2.450598
v 0.175704 72.162277 1.929647
v 3.146792 69.672440 11.725733
v 5.227350 74.423431 11.958436
v -0.005061 77.303337 -0.057061
v -2.085619 72.552345 -0.289772
v 6.474230 69.672447 10.276726
v 1.241819 72.552345 -1.738780
v 12.178405 69.974197 -0.456468
v 12.880747 74.724220 -2.431021
v -0.005061 77.616371 -0.057060
v -0.707403 72.866348 1.917500
v 11.520855 69.974197 -4.025651
v -1.364953 72.866348 -1.651690
v 5.575876 70.594139 -11.104508
v 4.146271 75.369110 -12.557282
v -0.005061 77.929413 -0.057060
v 1.424552 73.154419 1.395726
v 2.131590 70.594139 -12.248361
v -2.019734 73.154419 0.251874
v 14.120396 63.861595 6.057711
v 15.818637 69.799774 4.175988
v -0.005061 72.983749 -0.057061
v -1.703296 67.045578 1.824666
v 15.286768 63.861607 1.697683
v -0.536931 67.045578 -2.535366
v 1.387927 63.090664 15.038303
v 3.890897 68.997787 15.764794
v -0.005061 72.594460 -0.057061
v -2.508039 66.687332 -0.783559
v 5.770362 63.090668 13.959179
v 1.874405 66.687332 -1.862685
v -14.400331 62.715378 4.723359
v -14.536015 68.623718 7.323344
v -0.005061 72.205177 -0.057061
v 0.130621 66.296844 -2.657043
v -12.356490 62.715382 8.747411
v 2.174471 66.296837 1.367005
v 6.400504 62.968887 -14.255489
v 4.513990 68.929749 -15.866615
v -0.005061 71.772636 -0.057061
v 1.881462 65.811752 1.554068
v 2.060976 62.968887 -15.495921
v -2.458076 65.811752 0.313644
v -0.553954 56.323982 2.949139
v 8.711773 54.054077 -0.560042
v 8.811173 60.982765 -3.396013
v -0.005061 63.159241 -0.057063
v 6.858056 54.054089 -5.454645
v -2.407672 56.323978 -1.945462
v 17.824877 60.139507 -6.809744
v -2.944829 56.954456 1.000024
v 4.896156 54.699993 7.602790
v 7.455659 61.863960 6.225492
v -0.005061 64.026276 -0.057063
v 8.377226 54.699993 3.468921
v 0.536249 56.954456 -3.133848
v 15.073966 61.080109 12.640755
v 0.402052 57.449734 -3.105375
v -9.357378 55.461182 0.271542
v -9.291659 62.650490 3.156138
v -0.005061 64.559822 -0.057063
v -7.581330 55.431850 5.387149
v 2.178108 57.420391 2.010232
v -18.736477 62.127335 6.432230
v 2.236528 58.153782 2.109215
v 4.895605 55.972214 -7.892296
v 2.525100 63.200375 -9.573680
v -0.005061 65.293457 -0.057062
v -0.367426 55.972202 -9.291573
v -3.026512 58.153770 0.709938
v 5.105489 62.498123 -19.279209
v 3.139118 58.817211 -1.142748
v -5.139208 56.086979 -7.200997
v -7.881304 63.278511 -5.821069
v -0.005061 65.893707 -0.057062
v -8.367248 56.086979 -2.790037
v -0.088921 58.817207 3.268225
v -15.974611 62.047104 -11.743928
v -2.414453 59.338295 -2.358900
v -4.011278 56.603249 7.792677
v -1.524332 63.807461 9.601447
v -0.005061 66.427261 -0.057062
v 1.397820 56.603249 8.643532
v 2.994645 59.338295 -1.508057
v -3.085466 62.573860 19.526148
v 2.646302 51.279480 -2.788033
v -8.934566 48.155304 -4.705203
v -11.023440 56.384491 -1.881114
v -0.005061 59.377041 -0.057063
v -9.956100 48.155308 1.465475
v 1.624769 51.279472 3.382634
v -22.345478 54.975407 -3.755425
v 1.206178 50.684254 3.544306
v 8.202158 47.565578 -5.855897
v 6.651125 55.780296 -9.000698
v -0.005061 58.767574 -0.057064
v 3.193418 47.565578 -9.583590
v -3.802563 50.684254 -0.183379
v 13.490746 54.373692 -18.190804
v -2.500048 49.926434 2.483471
v 8.899653 47.434486 5.612604
v 10.841960 55.691036 2.920364
v -0.005061 58.081924 -0.057064
v 10.546282 47.434486 -0.386193
v -0.853419 49.926430 -3.515333
v 21.904297 54.888866 5.956902
v 3.473098 49.122223 0.435942
v -0.294542 46.850765 -10.742667
v -3.590052 55.062923 -10.694079
v -0.005061 57.243908 -0.057064
v -6.154093 46.817249 -8.760966
v -2.386453 49.088711 2.417651
v -7.245407 54.465332 -21.512398
v -1.185514 48.556473 -3.424692
v -8.799442 45.981255 5.470965
v -7.249743 54.164474 8.407172
v -0.005061 56.634438 -0.057064
v -4.109535 45.981266 9.485141
v 3.504393 48.556473 0.589493
v -14.647449 53.269104 17.050198
v -3.433834 47.836311 -0.711629
v 0.489423 45.243462 9.904253
v 3.727864 53.157917 10.043841
v -0.005061 55.644047 -0.057064
v 6.097244 45.243462 7.831811
v 2.173995 47.836311 -2.784080
v 7.544406 52.194672 20.370998
v 1.929555 38.583878 -3.479750
v -10.812572 35.663525 -3.120759
v -12.129049 44.577671 0.284510
v -0.005061 47.377823 -0.057065
v -10.622933 35.663525 3.610247
v 2.119187 38.583878 3.251262
v -24.524603 43.492760 0.633739
v 4.013942 39.395012 -0.102551
v -2.733136 36.494518 -11.434127
v -6.424923 45.711357 -10.839097
v -0.005061 48.493309 -0.057065
v -8.707301 36.494522 -7.876978
v -1.960221 39.395012 3.454597
v -12.980394 44.702900 -21.848862
v -1.785095 40.032223 3.476559
v 11.501379 37.473839 3.486482
v 12.637649 46.723286 -0.047500
v -0.005061 49.179752 -0.057065
v 11.499318 37.436096 -3.480403
v -1.787155 39.994473 -3.490338
v 25.499193 46.050224 -0.047651
v -1.816432 40.938000 -3.635278
v -9.265276 38.131306 7.400634
v -7.092767 47.430740 10.443799
v -0.005061 50.123619 -0.057065
v -3.457914 38.131306 11.320404
v 3.990929 40.938000 0.284494
v -14.321175 46.527237 21.153112
v -4.284595 41.791550 -0.063008
v 3.223654 38.278950 10.791078
v 7.138504 47.531265 10.269837
v -0.005061 50.895882 -0.057065
v 9.007076 38.278950 6.790444
v 1.498828 41.791550 -4.063650
v 14.478939 45.946980 20.881338
v 1.953127 42.461952 3.756655
v 8.174049 38.943161 -7.909512
v 5.913710 48.211792 -11.156611
v -0.005061 51.582333 -0.057065
v 1.957931 38.943161 -11.224241
v -4.262991 42.461952 0.441939
v 11.995597 46.624722 -22.562056
v 3.823410 33.741280 2.599123
v 3.823410 29.916664 -11.771134
v -0.005061 39.990841 -13.729357
v -0.005061 43.654320 -0.057066
v -3.833533 29.916664 -11.771143
v -3.833533 33.741280 2.599115
v -0.005061 38.265835 -27.778440
v -4.112487 33.012608 2.125875
v 8.639490 29.194717 8.695879
v 12.127551 39.251171 6.193841
v -0.005061 42.908203 -0.057066
v 12.140213 29.194719 1.901211
v -0.611765 33.012608 -4.668806
v 24.594536 37.529190 12.617011
v -3.572277 32.084877 -2.562464
v -5.072272 29.034241 11.831299
v -1.432340 39.141895 13.638861
v -0.005061 42.068832 -0.057066
v 2.502070 29.034237 12.620636
v 4.002073 32.084877 -1.773127
v -2.887952 38.159885 27.606668
v 0.094922 31.100367 4.242287
v 12.842721 28.319630 -2.543176
v 12.125142 38.372971 -6.513640
v -0.005061 41.042938 -0.057066
v 9.277740 28.278622 -9.223900
v -3.470068 31.059341 -2.438430
v 24.460253 37.641407 -13.091466
v 3.826204 30.407766 -2.156103
v -8.439956 27.255198 -9.573327
v -11.676353 37.273087 -7.114590
v -0.005061 40.296822 -0.057067
v -12.350428 27.255196 -3.106437
v -0.084267 30.407766 4.310791
v -23.594172 36.176987 -14.321179
v 0.099951 29.526142 -4.329079
v -11.937110 26.351982 2.531819
v -11.458196 36.040871 6.471001
v -0.005061 39.084393 -0.057067
v -8.312857 26.351980 8.890376
v 3.724203 29.526148 2.029477
v -23.167864 34.861664 13.145277
v 3.977334 21.472748 1.066053
v 0.428109 18.399279 -11.871480
v -3.382103 27.780802 -12.366990
v -0.005061 30.727770 -0.057072
v -6.406116 18.399279 -9.996615
v -2.856890 21.472748 2.940917
v -6.834799 26.639019 -24.952627
v 1.045148 22.326408 4.040486
v 10.945205 19.273846 -5.687464
v 9.414883 28.973942 -9.313249
v -0.005061 31.901752 -0.057072
v 5.816496 19.273848 -10.906927
v -4.083569 22.326408 -1.178971
v 19.033791 27.912605 -18.764929
v -4.062283 22.997017 -0.994446
v -0.754287 20.304502 12.591743
v 3.142530 30.038914 12.870863
v -0.005061 32.624187 -0.057072
v 6.367941 20.264791 10.849748
v 3.059954 22.957306 -2.736452
v 6.354712 29.330551 26.020098
v 3.200825 23.950306 -2.802578
v -9.942227 20.996450 -7.661976
v -12.510915 30.783468 -4.680868
v -0.005061 33.617542 -0.057072
v -12.499362 20.996449 -0.745775
v 0.643689 23.950306 4.113612
v -25.265020 29.832603 -9.396458
v -1.067749 24.848606 -4.433825
v -10.289553 21.151838 5.953070
v -8.778965 30.889267 9.825330
v -0.005061 34.430283 -0.057068
v -4.755083 21.151838 10.866762
v 4.466730 24.848606 0.479867
v -17.794672 29.221910 19.980083
v -3.415067 25.554165 2.897358
v 10.065693 21.850878 6.343956
v 12.820933 31.605471 3.222124
v -0.005061 35.152725 -0.057067
v 11.902162 21.850880 -0.839042
v -1.578607 25.554165 -4.285640
v 26.000408 29.935177 6.591694
v -1.437428 18.021408 3.861189
v 11.008887 14.597179 0.602362
v 11.836736 23.616714 -3.157610
v -0.005061 26.896687 -0.057073
v 9.272485 14.597180 -6.029447
v -3.173830 18.021408 -2.770622
v 24.004877 22.072298 -6.343606
v -2.827205 17.369026 -3.119552
v -5.625770 13.950819 9.415076
v -2.667692 22.954485 11.868739
v -0.005061 26.228683 -0.057069
v 1.053088 13.950819 10.906241
v 3.851652 17.369026 -1.628384
v -5.403708 21.412777 24.123230
v 1.355948 16.538406 -3.714856
v -11.450897 13.807129 -1.749879
v -12.191006 22.856659 1.812648
v -0.005061 25.477173 -0.057073
v -10.416886 13.807139 4.989391
v 2.389959 16.538406 3.024415
v -24.618847 21.977448 3.719468
v -3.706133 15.656963 1.004512
v 5.061765 13.167330 10.506829
v 8.337924 22.168219 8.984907
v -0.005061 24.558670 -0.057073
v 10.039594 13.130599 5.904112
v 1.271696 15.620229 -3.598214
v 16.832388 21.513237 18.176868
v 2.681784 15.036877 2.785237
v 6.324293 12.214331 -9.520735
v 3.460803 21.183481 -11.766248
v -0.005061 23.890671 -0.057073
v -0.163581 12.214331 -11.441131
v -3.806099 15.036877 0.864850
v 6.999886 20.202118 -23.722746
v -8.930519 62.014309 -12.413841
v -11.418584 67.932877 -11.730604
v -0.005061 71.383347 -0.057061
v 2.483002 65.464767 -0.740295
v -12.157677 62.014305 -9.258576
v -0.744161 65.464767 2.414977
v 3.718814 14.247540 -0.934911
v -4.953238 11.405684 -9.804525
v -8.256421 20.080256 -8.496414
v -0.005061 22.805161 -0.057073
v -9.638600 11.405683 -5.223536
v -0.966548 14.247539 3.646083
v -16.692600 19.024511 -17.124792
v -0.097274 40.916885 -1.438211
v -1.330895 40.916885 -0.725972
v -0.005061 100.753189 -0.057053
v -0.097274 1.745160 -2.562030
v -2.304142 1.745159 -1.287889
v -1.330895 40.916885 0.698494
v -2.304142 1.745159 1.260379
v -0.097274 40.916885 1.410727
v -0.097274 1.745159 2.534520
v 1.136348 40.916885 0.698494
v 2.109594 1.745159 1.260379
v 1.136348 40.916885 -0.725972
v 2.109594 1.745159 -1.287889
v 3.854982 0.475311 -0.013755
v 1.878848 0.475311 3.408993
v 1.878848 0.475312 -3.436505
v -2.073395 0.475311 3.408993
v -4.049528 0.475311 -0.013755
v -2.073395 0.475312 -3.436505
v -0.097274 -0.554883 3.408993
v 2.434794 -0.191030 9.663105
v 1.117779 -0.888231 9.100520
v -0.313073 -0.191038 9.161266
v 0.990699 0.668337 9.796339
v -2.243645 -1.964778 15.266011
v -6.774358 -0.637843 -5.044140
v -8.354232 0.035775 -5.028952
v -8.744121 -2.536211 -10.071249
v -5.604716 0.035775 -6.106301
v -7.232306 0.866086 -6.212888
v -3.061455 -0.554882 -1.725127
v 2.866909 -0.554882 -1.725127
v 7.205011 -0.091041 -5.842460
v 7.628968 -0.788234 -4.474507
v 8.601669 -0.091041 -3.423370
v 8.241529 0.768334 -4.828175
v 12.516536 -2.421923 -7.296336
v -3.116711 -0.490162 1.729524
v -0.097274 -0.490161 -3.500295
v 2.922165 -0.490162 1.729524
v -0.097274 -0.832790 -0.013755
vt 0.500837 0.495478
vt 0.437992 0.249564
vt 0.500837 0.249564
vt 0.375147 0.495478
vt 0.437992 0.495478
vt 0.437992 0.495478
vt 0.500837 0.249564
vt 0.500837 0.495478
vt 0.375147 0.249564
vt 0.437992 0.249564
vt 0.500837 0.495478
vt 0.437992 0.249564
vt 0.500837 0.249564
vt 0.375147 0.495478
vt 0.437992 0.495478
vt 0.500837 0.495478
vt 0.437992 0.249564
vt 0.500837 0.249564
vt 0.375147 0.495478
vt 0.437992 0.495478
vt 0.437992 0.495478
vt 0.500837 0.249564
vt 0.500837 0.495478
vt 0.375147 0.249564
vt 0.437992 0.249564
vt 0.500837 0.495478
vt 0.437992 0.249564
vt 0.500837 0.249564
vt 0.375147 0.495478
vt 0.437992 0.495478
vt 0.437992 0.495478
vt 0.500837 0.249564
vt 0.500837 0.495478
vt 0.375147 0.249564
vt 0.437992 0.249564
vt 0.500837 0.495478
vt 0.437992 0.249564
vt 0.500837 0.249564
vt 0.375147 0.495478
vt 0.437992 0.495478
vt 0.500837 0.495478
vt 0.437992 0.249564
vt 0.500837 0.249564
vt 0.375147 0.495478
vt 0.437992 0.495478
vt 0.437992 0.495478
vt 0.500837 0.249564
vt 0.500837 0.495478
vt 0.375147 0.249564
vt 0.437992 0.249564
vt 0.500837 0.495478
vt 0.437992 0.249564
vt 0.500837 0.249564
vt 0.375147 0.495478
vt 0.437992 0.495478
vt 0.500837 0.495478
vt 0.437992 0.249564
vt 0.500837 0.249564
vt 0.375147 0.495478
vt 0.437992 0.495478
vt 0.437992 0.495478
vt 0.500837 0.249564
vt 0.500837 0.495478
vt 0.375147 0.249564
vt 0.437992 0.249564
vt 0.437992 0.495478
vt 0.500837 0.249564
vt 0.500837 0.495478
vt 0.375147 0.249564
vt 0.437992 0.249564
vt 0.500837 0.495478
vt 0.437992 0.249564
vt 0.500837 0.249564
vt 0.437992 0.495478
vt 0.375147 0.249564
vt 0.500837 0.495478
vt 0.437992 0.249564
vt 0.500837 0.249564
vt 0.437992 0.495478
vt 0.375147 0.249564
vt 0.437992 0.495478
vt 0.500837 0.249564
vt 0.500837 0.495478
vt 0.375147 0.249564
vt 0.437992 0.249564
vt 0.500837 0.495478
vt 0.437992 0.249564
vt 0.500837 0.249564
vt 0.437992 0.495478
vt 0.375147 0.249564
vt 0.500837 0.495478
vt 0.437992 0.249564
vt 0.500837 0.249564
vt 0.375147 0.495478
vt 0.437992 0.495478
vt 0.437992 0.495478
vt 0.500837 0.249564
vt 0.500837 0.495478
vt 0.375147 0.495478
vt 0.437992 0.249564
vt 0.437992 0.495478
vt 0.500837 0.249564
vt 0.500837 0.495478
vt 0.375147 0.249564
vt 0.437992 0.249564
vt 0.500837 0.495478
vt 0.437992 0.249564
vt 0.500837 0.249564
vt 0.437992 0.495478
vt 0.375147 0.249564
vt 0.437992 0.495478
vt 0.500837 0.249564
vt 0.500837 0.495478
vt 0.375147 0.495478
vt 0.437992 0.249564
vt 0.437992 0.495478
vt 0.500837 0.249564
vt 0.500837 0.495478
vt 0.375147 0.495478
vt 0.437992 0.249564
vt 0.437992 0.495478
vt 0.500837 0.249564
vt 0.500837 0.495478
vt 0.375147 0.495478
vt 0.437992 0.249564
vt 0.500837 0.495478
vt 0.437992 0.249564
vt 0.500837 0.249564
vt 0.375147 0.495478
vt 0.437992 0.495478
vt 0.437992 0.495478
vt 0.500837 0.249564
vt 0.500837 0.495478
vt 0.375147 0.495478
vt 0.437992 0.249564
vt 0.500837 0.495478
vt 0.437992 0.249564
vt 0.500837 0.249564
vt 0.375147 0.495478
vt 0.437992 0.495478
vt 0.437992 0.495478
vt 0.500837 0.249564
vt 0.500837 0.495478
vt 0.375147 0.249564
vt 0.437992 0.249564
vt 0.500837 0.495478
vt 0.437992 0.249564
vt 0.500837 0.249564
vt 0.437992 0.495478
vt 0.375147 0.249564
vt 0.500837 0.495478
vt 0.437992 0.249564
vt 0.500837 0.249564
vt 0.437992 0.495478
vt 0.375147 0.249564
vt 0.437992 0.495478
vt 0.500837 0.249564
vt 0.500837 0.495478
vt 0.375147 0.495478
vt 0.437992 0.249564
vt 0.437992 0.495478
vt 0.500837 0.249564
vt 0.500837 0.495478
vt 0.375147 0.495478
vt 0.437992 0.249564
vt 0.500837 0.495478
vt 0.437992 0.249564
vt 0.500837 0.249564
vt 0.437992 0.495478
vt 0.375147 0.249564
vt 0.437992 0.495478
vt 0.500837 0.249564
vt 0.500837 0.495478
vt 0.375147 0.249564
vt 0.437992 0.249564
vt 0.437992 0.495478
vt 0.500837 0.249564
vt 0.500837 0.495478
vt 0.375147 0.249564
vt 0.437992 0.249564
vt 0.500837 0.495478
vt 0.437992 0.249564
vt 0.500837 0.249564
vt 0.375147 0.495478
vt 0.437992 0.495478
vt 0.437992 0.495478
vt 0.500837 0.249564
vt 0.500837 0.495478
vt 0.375147 0.249564
vt 0.437992 0.249564
vt 0.437992 0.495478
vt 0.500837 0.249564
vt 0.500837 0.495478
vt 0.375147 0.249564
vt 0.437992 0.249564
vt 0.437992 0.495478
vt 0.500837 0.249564
vt 0.500837 0.495478
vt 0.375147 0.249564
vt 0.437992 0.249564
vt 0.437992 0.495478
vt 0.500837 0.249564
vt 0.500837 0.495478
vt 0.375147 0.249564
vt 0.437992 0.249564
vt 0.500837 0.495478
vt 0.437992 0.249564
vt 0.500837 0.249564
vt 0.375147 0.495478
vt 0.437992 0.495478
vt 0.437992 0.495478
vt 0.500837 0.249564
vt 0.500837 0.495478
vt 0.375147 0.495478
vt 0.437992 0.249564
vt 0.437992 0.495478
vt 0.500837 0.249564
vt 0.500837 0.495478
vt 0.375147 0.249564
vt 0.437992 0.249564
vt 0.437992 0.495478
vt 0.500837 0.249564
vt 0.500837 0.495478
vt 0.375147 0.249564
vt 0.437992 0.249564
vt 0.437992 0.495478
vt 0.500837 0.249564
vt 0.500837 0.495478
vt 0.375147 0.249564
vt 0.437992 0.249564
vt 0.500837 0.495478
vt 0.437992 0.249564
vt 0.500837 0.249564
vt 0.375147 0.495478
vt 0.437992 0.495478
vt 0.500837 0.495478
vt 0.437992 0.249564
vt 0.500837 0.249564
vt 0.375147 0.495478
vt 0.437992 0.495478
vt 0.437992 0.495478
vt 0.500837 0.249564
vt 0.500837 0.495478
vt 0.375147 0.249564
vt 0.437992 0.249564
vt 0.500837 0.249564
vt 0.437992 0.390844
vt 0.437992 0.249564
vt 0.375147 0.249564
vt 0.375147 0.390844
vt 0.437992 0.498877
vt 0.500837 0.390844
vt 0.500837 0.249564
vt 0.437992 0.390844
vt 0.437992 0.249564
vt 0.375147 0.249564
vt 0.375147 0.390844
vt 0.437992 0.498877
vt 0.500837 0.390844
vt 0.500837 0.249564
vt 0.437992 0.390844
vt 0.437992 0.249564
vt 0.375147 0.249564
vt 0.375147 0.390844
vt 0.437992 0.498877
vt 0.500837 0.390844
vt 0.500837 0.249564
vt 0.437992 0.390844
vt 0.437992 0.249564
vt 0.375147 0.249564
vt 0.375147 0.390844
vt 0.437992 0.498877
vt 0.500837 0.390844
vt 0.500837 0.249564
vt 0.437992 0.390844
vt 0.437992 0.249564
vt 0.375147 0.249564
vt 0.375147 0.390844
vt 0.437992 0.498877
vt 0.500837 0.390844
vt 0.500837 0.249564
vt 0.437992 0.390844
vt 0.437992 0.249564
vt 0.375147 0.249564
vt 0.375147 0.390844
vt 0.437992 0.498877
vt 0.500837 0.390844
vt 0.500837 0.249564
vt 0.437992 0.390844
vt 0.437992 0.249564
vt 0.375147 0.249564
vt 0.375147 0.390844
vt 0.437992 0.498877
vt 0.500837 0.390844
vt 0.500837 0.249564
vt 0.437992 0.390844
vt 0.437992 0.249564
vt 0.375147 0.249564
vt 0.375147 0.390844
vt 0.437992 0.498877
vt 0.500837 0.390844
vt 0.500837 0.249564
vt 0.437992 0.390844
vt 0.437992 0.249564
vt 0.375147 0.249564
vt 0.375147 0.390844
vt 0.437992 0.498877
vt 0.500837 0.390844
vt 0.500837 0.249564
vt 0.437992 0.390844
vt 0.437992 0.249564
vt 0.375147 0.249564
vt 0.375147 0.390844
vt 0.437992 0.498877
vt 0.500837 0.390844
vt 0.500837 0.249564
vt 0.437992 0.390844
vt 0.437992 0.249564
vt 0.375147 0.249564
vt 0.375147 0.390844
vt 0.437992 0.498877
vt 0.500837 0.390844
vt 0.500837 0.249564
vt 0.437992 0.390844
vt 0.437992 0.249564
vt 0.375147 0.249564
vt 0.375147 0.390844
vt 0.437992 0.498877
vt 0.500837 0.390844
vt 0.500837 0.249564
vt 0.437992 0.390844
vt 0.437992 0.249564
vt 0.375147 0.249564
vt 0.375147 0.390844
vt 0.437992 0.498877
vt 0.500837 0.390844
vt 0.500837 0.249564
vt 0.437992 0.390844
vt 0.437992 0.249564
vt 0.375147 0.249564
vt 0.375147 0.390844
vt 0.437992 0.498877
vt 0.500837 0.390844
vt 0.500837 0.249564
vt 0.437992 0.390844
vt 0.437992 0.249564
vt 0.375147 0.249564
vt 0.375147 0.390844
vt 0.437992 0.498877
vt 0.500837 0.390844
vt 0.500837 0.249564
vt 0.437992 0.390844
vt 0.437992 0.249564
vt 0.375147 0.249564
vt 0.375147 0.390844
vt 0.437992 0.498877
vt 0.500837 0.390844
vt 0.500837 0.249564
vt 0.437992 0.390844
vt 0.437992 0.249564
vt 0.375147 0.249564
vt 0.375147 0.390844
vt 0.437992 0.498877
vt 0.500837 0.390844
vt 0.500837 0.249564
vt 0.437992 0.390844
vt 0.437992 0.249564
vt 0.375147 0.249564
vt 0.375147 0.390844
vt 0.437992 0.498877
vt 0.500837 0.390844
vt 0.500837 0.249564
vt 0.437992 0.390844
vt 0.437992 0.249564
vt 0.375147 0.249564
vt 0.375147 0.390844
vt 0.437992 0.498877
vt 0.500837 0.390844
vt 0.500837 0.249564
vt 0.437992 0.390844
vt 0.437992 0.249564
vt 0.375147 0.249564
vt 0.375147 0.390844
vt 0.437992 0.498877
vt 0.500837 0.390844
vt 0.500837 0.249564
vt 0.437992 0.390844
vt 0.437992 0.249564
vt 0.375147 0.249564
vt 0.375147 0.390844
vt 0.437992 0.498877
vt 0.500837 0.390844
vt 0.500837 0.249564
vt 0.437992 0.390844
vt 0.437992 0.249564
vt 0.375147 0.249564
vt 0.375147 0.390844
vt 0.437992 0.498877
vt 0.500837 0.390844
vt 0.500837 0.249564
vt 0.437992 0.390844
vt 0.437992 0.249564
vt 0.375147 0.249564
vt 0.375147 0.390844
vt 0.437992 0.498877
vt 0.500837 0.390844
vt 0.500837 0.249564
vt 0.437992 0.390844
vt 0.437992 0.249564
vt 0.375147 0.249564
vt 0.375147 0.390844
vt 0.437992 0.498877
vt 0.500837 0.390844
vt 0.500837 0.249564
vt 0.437992 0.390844
vt 0.437992 0.249564
vt 0.375147 0.249564
vt 0.375147 0.390844
vt 0.437992 0.498877
vt 0.500837 0.390844
vt 0.500837 0.249564
vt 0.437992 0.390844
vt 0.437992 0.249564
vt 0.375147 0.249564
vt 0.375147 0.390844
vt 0.437992 0.498877
vt 0.500837 0.390844
vt 0.500837 0.249564
vt 0.437992 0.390844
vt 0.437992 0.249564
vt 0.375147 0.249564
vt 0.375147 0.390844
vt 0.437992 0.498877
vt 0.500837 0.390844
vt 0.500837 0.249564
vt 0.437992 0.390844
vt 0.437992 0.249564
vt 0.375147 0.249564
vt 0.375147 0.390844
vt 0.437992 0.498877
vt 0.500837 0.390844
vt 0.500837 0.249564
vt 0.437992 0.390844
vt 0.437992 0.249564
vt 0.375147 0.249564
vt 0.375147 0.390844
vt 0.437992 0.498877
vt 0.500837 0.390844
vt 0.500837 0.249564
vt 0.437992 0.390844
vt 0.437992 0.249564
vt 0.375147 0.249564
vt 0.375147 0.390844
vt 0.437992 0.498877
vt 0.500837 0.390844
vt 0.500837 0.249564
vt 0.437992 0.390844
vt 0.437992 0.249564
vt 0.375147 0.249564
vt 0.375147 0.390844
vt 0.437992 0.498877
vt 0.500837 0.390844
vt 0.500837 0.249564
vt 0.437992 0.390844
vt 0.437992 0.249564
vt 0.375147 0.249564
vt 0.375147 0.390844
vt 0.437992 0.498877
vt 0.500837 0.390844
vt 0.500837 0.249564
vt 0.437992 0.390844
vt 0.437992 0.249564
vt 0.375147 0.249564
vt 0.375147 0.390844
vt 0.437992 0.498877
vt 0.500837 0.390844
vt 0.500837 0.249564
vt 0.437992 0.390844
vt 0.437992 0.249564
vt 0.375147 0.249564
vt 0.375147 0.390844
vt 0.437992 0.498877
vt 0.500837 0.390844
vt 0.500837 0.249564
vt 0.437992 0.390844
vt 0.437992 0.249564
vt 0.375147 0.249564
vt 0.375147 0.390844
vt 0.437992 0.498877
vt 0.500837 0.390844
vt 0.437992 0.495478
vt 0.500837 0.249564
vt 0.500837 0.495478
vt 0.375147 0.249564
vt 0.437992 0.249564
vt 0.500837 0.249564
vt 0.437992 0.390844
vt 0.437992 0.249564
vt 0.375147 0.249564
vt 0.375147 0.390844
vt 0.437992 0.498877
vt 0.500837 0.390844
vt 0.375147 0.249564
vt 0.375147 0.495478
vt 0.375147 0.249564
vt 0.375147 0.249564
vt 0.375147 0.495478
vt 0.375147 0.249564
vt 0.375147 0.495478
vt 0.375147 0.249564
vt 0.375147 0.249564
vt 0.375147 0.495478
vt 0.375147 0.249564
vt 0.375147 0.249564
vt 0.375147 0.495478
vt 0.375147 0.495478
vt 0.375147 0.495478
vt 0.375147 0.495478
vt 0.375147 0.495478
vt 0.375147 0.495478
vt 0.375147 0.249564
vt 0.375147 0.249564
vt 0.375147 0.495478
vt 0.375147 0.495478
vt 0.375147 0.249564
vt 0.375147 0.249564
vt 0.375147 0.249564
vt 0.375147 0.249564
vt 0.375147 0.249564
vt 0.375147 0.249564
vt 0.375147 0.495478
vt 0.375147 0.495478
vt 0.375147 0.495478
vt 0.375147 0.249564
vt 0.375147 0.249564
vt 0.375147 0.495478
vt 0.375147 0.495478
vt 0.375147 0.495478
vt 0.375147 0.249564
vt 0.375147 0.495478
vt 0.375147 0.495478
vt 0.375147 0.495478
vt 0.375147 0.495478
vt 0.375147 0.249564
vt 0.375147 0.249564
vt 0.375147 0.495478
vt 0.375147 0.495478
vt 0.375147 0.495478
vt 0.375147 0.249564
vt 0.375147 0.249564
vt 0.375147 0.495478
vt 0.375147 0.495478
vt 0.905611 0.992038
vt 0.966176 0.992038
vt 0.806983 0.562878
vt 0.885488 0.515549
vt 0.953217 0.992663
vt 0.885488 0.992663
vt 1.026741 0.992038
vt 0.614573 0.992663
vt 0.546844 0.515549
vt 0.614573 0.515549
vt 0.723917 0.992038
vt 0.682302 0.515549
vt 0.784482 0.992038
vt 0.750031 0.515549
vt 0.682302 0.992663
vt 0.845046 0.992038
vt 0.817759 0.992663
vt 0.817759 0.515549
vt 0.835017 0.799727
vt 0.809871 0.801645
vt 0.816361 0.763154
vt 0.836809 0.728501
vt 0.910141 0.696208
vt 0.889327 0.730434
vt 0.885202 0.691312
vt 0.757051 0.771588
vt 0.724874 0.765026
vt 0.743357 0.731540
vt 0.767680 0.701962
vt 0.811821 0.724121
vt 0.907594 0.767389
vt 0.882430 0.768787
vt 0.736442 0.689244
vt 0.628911 0.695837
vt 0.661524 0.599973
vt 0.656622 0.704852
vt 0.675451 0.605917
vt 0.675300 0.714542
vt 0.847947 0.621222
vt 0.863235 0.637084
vt 0.760044 0.880648
vt 0.742148 0.897654
vt 0.809871 0.976198
vt 0.882430 0.508263
vt 0.724874 0.508263
vt 0.644759 0.584181
vt 0.709066 0.883489
vt 0.724704 0.890923
vt 0.724874 0.979648
vt 0.689081 0.896654
vt 0.800884 0.592518
vt 0.779994 0.577546
vt 0.809871 0.508263
vt 0.911861 0.860833
vt 0.922488 0.832188
vt 0.969197 0.892131
vt 0.675446 0.808202
vt 0.654010 0.833638
vt 0.687849 0.783442
vt 0.607621 0.814933
vt 0.542441 0.805363
vt 0.605863 0.780145
vt 0.595072 0.746033
vt 0.531237 0.782701
vt 0.916869 0.581797
vt 0.931106 0.601505
vt 0.834763 0.914523
vt 0.850147 0.896575
vt 0.882430 0.994001
vt 0.969197 0.508263
vt 0.483460 0.830789
vt 0.540106 0.831398
vt 0.770168 0.738448
vt 0.920838 0.732634
vt 0.847892 0.764702
vt 0.686555 0.748382
vt 0.634850 0.825078
vt 0.615675 0.719802
vt 0.647195 0.764308
vt 0.953217 0.515549
vt 0.546844 0.992663
vt 0.750031 0.992663
vn 0.8810 0.3090 0.3582
vn 0.2476 0.8842 -0.3961
vn -0.7079 0.3090 -0.6351
vn 0.5476 0.8365 0.0222
vn 0.1535 0.2924 0.9439
vn 0.1535 0.2923 0.9439
vn 0.2293 0.2924 -0.9284
vn 0.5763 0.2806 -0.7676
vn -0.3877 0.8028 -0.4530
vn -0.8473 0.2806 0.4509
vn -0.5934 0.2985 -0.7475
vn -0.4614 0.8542 0.2398
vn 0.2709 0.2986 0.9151
vn -0.0130 0.8329 0.5533
vn -0.9412 0.2911 0.1714
vn 0.9321 0.2911 0.2153
vn 0.3638 0.3027 0.8809
vn 0.4893 0.8660 -0.1029
vn -0.0218 0.3027 -0.9528
vn 0.2834 0.9006 0.3296
vn -0.6114 0.3148 0.7260
vn 0.8095 0.3148 -0.4956
vn -0.8499 0.3112 -0.4253
vn -0.2689 0.8905 0.3671
vn 0.6619 0.3112 0.6819
vn 0.8950 0.3234 -0.3073
vn -0.0717 0.9254 -0.3722
vn -0.9451 0.3234 0.0471
vn -0.3299 0.9373 -0.1122
vn 0.1865 0.3276 -0.9262
vn -0.4171 0.3276 0.8478
vn -0.3298 0.9373 -0.1122
vn -0.7816 0.3276 -0.5309
vn -0.2313 0.9373 0.2606
vn 0.6199 0.3276 0.7130
vn 0.0636 0.3234 -0.9441
vn -0.3708 0.9254 -0.0781
vn -0.3228 0.3234 0.8895
vn 0.1105 0.9767 0.1840
vn -0.7647 0.3414 0.5466
vn 0.8419 0.3414 -0.4179
vn 0.4137 0.9006 -0.1335
vn 0.4323 0.3148 0.8450
vn -0.1432 0.3148 -0.9383
vn 0.9430 0.3277 0.0582
vn 0.0659 0.9376 -0.3414
vn -0.8969 0.3277 -0.2969
vn -0.0228 0.3277 -0.9445
vn -0.3458 0.9376 -0.0364
vn -0.2190 0.3277 0.9191
vn -0.1684 0.9006 -0.4007
vn 0.8048 0.3148 -0.5031
vn -0.9226 0.3148 0.2230
vn 0.6101 0.3414 0.7150
vn 0.1739 0.9767 -0.1258
vn -0.4885 0.3414 -0.8030
vn -0.9461 0.3234 0.0175
vn -0.0461 0.9254 0.3762
vn 0.9139 0.3234 0.2454
vn 0.2794 0.9373 0.2081
vn -0.4620 0.3276 0.8242
vn 0.6573 0.3276 -0.6787
vn 0.2064 0.9784 0.0120
vn 0.0177 0.3420 0.9395
vn 0.1266 0.3420 -0.9312
vn -0.8130 0.3444 0.4694
vn 0.0757 0.9854 0.1527
vn 0.0757 0.9854 0.1526
vn 0.8659 0.3444 -0.3627
vn 0.0761 0.9767 -0.2007
vn 0.9027 0.3414 0.2619
vn -0.8495 0.3414 -0.4022
vn -0.1790 0.9765 -0.1201
vn 0.4593 0.3413 -0.8201
vn -0.5845 0.3413 0.7361
vn -0.1695 0.9816 0.0876
vn -0.4895 0.3431 -0.8017
vn 0.3710 0.3431 0.8629
vn -0.9361 0.3431 0.0771
vn 0.0021 0.9816 0.1908
vn 0.9376 0.3431 0.0562
vn -0.1877 0.9765 0.1060
vn -0.5262 0.3413 -0.7788
vn 0.3950 0.3413 0.8529
vn 0.6396 0.3414 -0.6888
vn -0.1451 0.9767 -0.1581
vn -0.7410 0.3414 0.5782
vn 0.1704 0.9854 0.0010
vn 0.0540 0.3444 0.9373
vn 0.0651 0.3444 -0.9366
vn 0.8473 0.3420 0.4063
vn 0.1035 0.9784 -0.1790
vn -0.7750 0.3420 -0.5315
vn 0.8100 0.3420 -0.4764
vn -0.0908 0.9784 -0.1858
vn -0.8735 0.3420 0.3466
vn 0.0959 0.9854 -0.1408
vn 0.8079 0.3444 0.4781
vn -0.7409 0.3444 -0.5766
vn -0.2122 0.9767 0.0322
vn -0.2147 0.3414 -0.9151
vn 0.0664 0.3414 0.9376
vn -0.9400 0.3413 0.0021
vn -0.0168 0.9765 0.2149
vn 0.9282 0.3413 0.1481
vn 0.1595 0.9816 0.1047
vn -0.4583 0.3431 0.8199
vn 0.5698 0.3431 -0.7467
vn 0.1100 0.9816 0.1559
vn -0.7272 0.3431 0.5945
vn 0.8041 0.3431 -0.4855
vn -0.8751 0.3413 -0.3430
vn -0.0945 0.9765 0.1937
vn 0.8091 0.3413 0.4784
vn -0.2092 0.9767 -0.0479
vn 0.1361 0.3414 -0.9300
vn -0.2824 0.3414 0.8965
vn 0.1409 0.9854 -0.0958
vn 0.5761 0.3444 0.7413
vn -0.4776 0.3444 -0.8082
vn -0.0163 0.9784 -0.2061
vn 0.9283 0.3420 -0.1460
vn -0.9397 0.3420 0.0019
vn -0.1562 0.9784 0.1356
vn -0.6688 0.3420 -0.6602
vn 0.5596 0.3420 0.7549
vn -0.1562 0.9784 0.1355
vn 0.2542 0.3444 -0.9037
vn -0.1607 0.9854 -0.0564
vn -0.3666 0.3444 0.8643
vn 0.0857 0.9767 0.1968
vn -0.8291 0.3414 0.4429
vn 0.8890 0.3414 -0.3053
vn 0.2120 0.9765 -0.0391
vn 0.2438 0.3413 0.9078
vn -0.0957 0.3413 -0.9351
vn 0.0601 0.9816 -0.1811
vn 0.9102 0.3431 0.2320
vn -0.8682 0.3431 -0.3586
vn 0.1843 0.9816 0.0493
vn -0.1777 0.3431 0.9223
vn 0.3066 0.3431 -0.8879
vn -0.8917 0.3413 0.2972
vn 0.0515 0.9765 0.2093
vn 0.9278 0.3413 -0.1509
vn -0.4912 0.3414 -0.8014
vn -0.1914 0.9767 0.0972
vn 0.3574 0.3414 0.8693
vn 0.0468 0.9854 -0.1638
vn 0.9172 0.3444 0.2002
vn -0.8845 0.3444 -0.3148
vn 0.4052 0.3409 0.8483
vn 0.1458 0.9878 -0.0552
vn 0.2104 0.9744 -0.0797
vn -0.2584 0.3409 -0.9039
vn -0.2750 0.3442 -0.8977
vn 0.0815 0.9962 -0.0309
vn 0.3887 0.3442 0.8547
vn -0.5457 0.3416 0.7652
vn 0.1127 0.9891 0.0949
vn 0.1656 0.9763 0.1394
vn 0.6612 0.3416 -0.6680
vn 0.6477 0.3448 -0.6795
vn 0.0600 0.9969 0.0505
vn -0.5593 0.3448 0.7539
vn -0.3694 0.3485 -0.8614
vn -0.1128 0.9926 0.0449
vn -0.1784 0.9816 0.0676
vn 0.2451 0.3384 0.9085
vn 0.2619 0.3411 0.9028
vn -0.0476 0.9986 0.0223
vn -0.3527 0.3512 -0.8673
vn 0.9240 0.3422 0.1707
vn 0.0356 0.9903 -0.1340
vn 0.0534 0.9781 -0.2009
vn -0.8867 0.3422 -0.3108
vn -0.8914 0.3453 -0.2936
vn 0.0179 0.9976 -0.0674
vn 0.9195 0.3453 0.1878
vn 0.4804 0.3380 -0.8093
vn -0.1536 0.9817 -0.1124
vn -0.2089 0.9659 -0.1528
vn -0.6261 0.3380 0.7027
vn -0.6120 0.3419 0.7131
vn -0.0983 0.9925 -0.0720
vn 0.4946 0.3419 -0.7990
vn -0.9395 0.3380 -0.0564
vn -0.0296 0.9817 0.1880
vn -0.0402 0.9659 0.2557
vn 0.9114 0.3380 0.2348
vn 0.9142 0.3419 0.2174
vn -0.0189 0.9925 0.1204
vn -0.9368 0.3419 -0.0737
vn 0.0639 0.3380 -0.9390
vn -0.1877 0.9817 -0.0311
vn -0.2553 0.9659 -0.0423
vn -0.2421 0.3380 0.9095
vn -0.2248 0.3419 0.9125
vn -0.1202 0.9925 -0.0199
vn 0.0813 0.3419 -0.9362
vn 0.8054 0.3380 0.4869
vn 0.1136 0.9817 -0.1526
vn 0.1545 0.9659 -0.2076
vn -0.6976 0.3380 -0.6318
vn -0.7082 0.3419 -0.6177
vn 0.0728 0.9925 -0.0978
vn 0.7950 0.3419 0.5010
vn -0.1781 0.3422 0.9226
vn 0.1337 0.9903 0.0367
vn 0.2005 0.9781 0.0550
vn 0.3179 0.3422 -0.8842
vn 0.3008 0.3453 -0.8890
vn 0.0673 0.9976 0.0185
vn -0.1952 0.3453 0.9180
vn 0.8644 0.3485 -0.3625
vn -0.0439 0.9926 -0.1131
vn -0.0661 0.9816 -0.1790
vn -0.9105 0.3384 0.2377
vn -0.9049 0.3411 0.2546
vn -0.0219 0.9986 -0.0478
vn 0.8701 0.3512 -0.3457
vn -0.7608 0.3416 -0.5518
vn -0.0958 0.9891 0.1119
vn -0.1407 0.9763 0.1644
vn 0.6626 0.3416 0.6665
vn 0.6742 0.3448 0.6531
vn -0.0510 0.9969 0.0596
vn -0.7493 0.3448 -0.5654
vn -0.8515 0.3409 0.3983
vn 0.0540 0.9878 0.1462
vn 0.0780 0.9744 0.2110
vn 0.9059 0.3409 -0.2512
vn 0.8999 0.3442 -0.2678
vn 0.0302 0.9962 0.0818
vn -0.8578 0.3442 0.3818
vn -0.1048 0.3409 -0.9342
vn -0.1558 0.9878 0.0044
vn -0.2249 0.9744 0.0063
vn -0.0520 0.3409 0.9387
vn -0.0343 0.3442 0.9383
vn -0.0871 0.9962 0.0025
vn -0.0871 0.3442 -0.9348
vn 0.7663 0.3416 -0.5441
vn -0.0753 0.9891 -0.1265
vn -0.1107 0.9763 -0.1860
vn -0.8435 0.3416 0.4144
vn -0.8346 0.3448 0.4297
vn -0.0401 0.9969 -0.0674
vn 0.7755 0.3448 -0.5289
vn 0.0668 0.3485 0.9349
vn 0.1213 0.9926 -0.0054
vn 0.1907 0.9816 -0.0054
vn 0.0662 0.3384 -0.9387
vn 0.0484 0.3411 -0.9388
vn 0.0523 0.9986 -0.0054
vn 0.0490 0.3512 0.9350
vn -0.8170 0.3422 -0.4640
vn -0.0776 0.9903 0.1149
vn -0.1163 0.9781 0.1723
vn 0.7359 0.3422 0.5842
vn 0.7459 0.3453 0.5695
vn -0.0390 0.9976 0.0578
vn -0.8072 0.3453 -0.4788
vn -0.7191 0.3380 0.6072
vn 0.1083 0.9817 0.1565
vn 0.1472 0.9659 0.2129
vn 0.8218 0.3380 -0.4587
vn 0.8119 0.3419 -0.4732
vn 0.0693 0.9925 0.1002
vn -0.7291 0.3419 0.5928
vn 0.8691 0.3380 0.3611
vn 0.0895 0.9817 -0.1679
vn 0.1218 0.9659 -0.2284
vn -0.7841 0.3380 -0.5205
vn -0.7925 0.3419 -0.5050
vn 0.0573 0.9925 -0.1075
vn 0.8609 0.3419 0.3767
vn 0.9368 0.3380 -0.0903
vn 0.0000 0.9817 -0.1903
vn 0.0000 0.9659 -0.2588
vn -0.9368 0.3380 -0.0903
vn -0.9369 0.3419 -0.0727
vn -0.0000 0.9925 -0.1219
vn 0.9369 0.3419 -0.0727
vn -0.3488 0.3380 0.8741
vn 0.1692 0.9817 0.0872
vn 0.2301 0.9659 0.1185
vn 0.5093 0.3380 -0.7914
vn 0.4938 0.3419 -0.7996
vn 0.1083 0.9925 0.0558
vn -0.3645 0.3419 0.8662
vn -0.9393 0.3422 -0.0250
vn -0.0144 0.9903 0.1379
vn -0.0216 0.9781 0.2068
vn 0.9243 0.3422 0.1692
vn 0.9262 0.3453 0.1516
vn -0.0072 0.9976 0.0694
vn -0.9375 0.3453 -0.0427
vn 0.4988 0.3485 0.7936
vn 0.1045 0.9926 -0.0618
vn 0.1658 0.9816 -0.0945
vn -0.3833 0.3384 -0.8594
vn -0.3990 0.3411 -0.8511
vn 0.0436 0.9986 -0.0294
vn 0.4831 0.3512 0.8020
vn 0.4202 0.3416 -0.8407
vn -0.1260 0.9891 -0.0762
vn -0.1852 0.9763 -0.1120
vn -0.5493 0.3416 0.7626
vn -0.5342 0.3448 0.7718
vn -0.0671 0.9969 -0.0406
vn 0.4354 0.3448 -0.8316
vn -0.5321 0.3409 -0.7750
vn -0.1354 0.9878 0.0772
vn -0.1954 0.9744 0.1114
vn 0.3957 0.3409 0.8527
vn 0.4112 0.3442 0.8441
vn -0.0757 0.9962 0.0432
vn -0.5167 0.3442 -0.7839
vn 0.8827 0.3409 -0.3235
vn -0.0412 0.9878 -0.1504
vn -0.0595 0.9744 -0.2169
vn -0.9242 0.3409 0.1722
vn -0.9196 0.3442 0.1893
vn -0.0231 0.9962 -0.0840
vn 0.8875 0.3442 -0.3065
vn 0.7104 0.3416 0.6153
vn 0.1051 0.9891 -0.1032
vn 0.1544 0.9763 -0.1517
vn -0.6028 0.3416 -0.7211
vn -0.6155 0.3448 -0.7088
vn 0.0560 0.9969 -0.0550
vn 0.6979 0.3448 0.6278
vn -0.8924 0.3485 0.2867
vn 0.0340 0.9926 0.1165
vn 0.0505 0.9816 0.1840
vn 0.9276 0.3384 -0.1584
vn 0.9235 0.3411 -0.1758
vn 0.0177 0.9986 0.0495
vn -0.8967 0.3512 0.2694
vn 0.2569 0.3422 -0.9038
vn -0.1300 0.9903 -0.0481
vn -0.1950 0.9781 -0.0721
vn -0.3929 0.3422 0.8535
vn -0.3762 0.3453 0.8598
vn -0.0654 0.9976 -0.0242
vn 0.2736 0.3453 -0.8978
vn -0.7605 0.3380 -0.5544
vn -0.1263 0.9817 0.1423
vn -0.1718 0.9659 0.1935
vn 0.6406 0.3380 0.6895
vn 0.6523 0.3419 0.6764
vn -0.0809 0.9925 0.0911
vn -0.7489 0.3419 -0.5676
vn -0.1446 0.3380 0.9300
vn 0.1844 0.9817 0.0471
vn 0.2508 0.9659 0.0641
vn 0.3195 0.3380 -0.8853
vn 0.3025 0.3419 -0.8897
vn 0.1181 0.9925 0.0302
vn -0.1616 0.3419 0.9257
vn 0.3246 0.3380 0.8834
vn 0.1841 0.9817 -0.0482
vn 0.2504 0.9659 -0.0656
vn -0.1499 0.3380 -0.9291
vn -0.1670 0.3419 -0.9248
vn 0.1179 0.9925 -0.0309
vn 0.3077 0.3419 0.8879
vn -0.9340 0.3380 -0.1160
vn -0.0415 0.9817 0.1857
vn -0.0564 0.9659 0.2526
vn 0.8946 0.3380 0.2923
vn 0.8986 0.3419 0.2751
vn -0.0266 0.9925 0.1189
vn -0.9302 0.3419 -0.1332
vn -0.2137 0.3422 -0.9150
vn -0.1370 0.9903 0.0210
vn -0.2055 0.9781 0.0315
vn 0.0704 0.3422 0.9370
vn 0.0880 0.3453 0.9344
vn -0.0689 0.9976 0.0106
vn -0.1962 0.3453 -0.9178
vn -0.6413 0.3485 0.6835
vn 0.0863 0.9926 0.0854
vn 0.1334 0.9816 0.1364
vn 0.7343 0.3384 -0.5884
vn 0.7223 0.3411 -0.6016
vn 0.0395 0.9986 0.0347
vn -0.6535 0.3512 0.6705
vn 0.9197 0.3416 0.1935
vn 0.0418 0.9891 -0.1412
vn 0.0614 0.9763 -0.2075
vn -0.8769 0.3416 -0.3383
vn -0.8820 0.3448 -0.3213
vn 0.0223 0.9969 -0.0752
vn 0.9148 0.3448 0.2105
vn -0.1446 0.9784 -0.1479
vn 0.6194 0.3420 -0.7067
vn -0.7205 0.3420 0.6033
vn 0.6150 0.3409 -0.7110
vn -0.1090 0.9878 -0.1115
vn -0.1573 0.9744 -0.1608
vn -0.7247 0.3409 0.5988
vn -0.7124 0.3442 0.6116
vn -0.0609 0.9962 -0.0623
vn 0.6274 0.3442 -0.6984
vn 0.2709 0.2985 0.9151
vn 0.1266 0.3420 -0.9311
vn -0.0002 0.0259 -0.9997
vn -0.8658 0.0267 -0.4996
vn 0.0037 1.0000 -0.0040
vn -0.0000 0.4688 -0.8833
vn -0.8657 0.0271 0.4998
vn -0.6484 0.6730 -0.3559
vn -0.7650 0.4688 0.4416
vn -0.0002 0.0266 0.9996
vn -0.0135 0.6693 0.7429
vn 0.8656 0.0258 0.5000
vn 0.7650 0.4688 0.4416
vn 0.8657 0.0254 -0.4999
vn 0.6360 0.6787 -0.3672
vn 0.8960 0.0882 0.4353
vn 0.8712 0.0909 0.4825
vn 0.0710 0.0882 -0.9936
vn -0.7687 0.0974 0.6321
vn -0.9359 0.0931 0.3397
vn 0.0351 0.0844 -0.9958
vn 0.1242 -0.9878 -0.0935
vn -0.0289 -0.9889 0.1460
vn -0.9993 -0.0357 -0.0103
vn 0.0547 0.9514 0.3030
vn 0.9655 -0.0261 0.2592
vn -0.4683 -0.2652 0.8428
vn -0.0195 -0.9774 0.2105
vn -0.9045 0.0750 0.4198
vn -0.3193 -0.4838 -0.8149
vn 0.7312 -0.0752 -0.6780
vn -0.1914 0.9142 -0.3572
vn -0.1577 -0.9861 -0.0525
vn -0.1327 -0.9882 0.0766
vn 0.1296 -0.9887 -0.0748
vn 0.6236 -0.0071 0.7817
vn 0.3120 0.9328 -0.1801
vn -0.3652 -0.0071 -0.9309
vn 0.7898 -0.4103 -0.4560
vn -0.6536 -0.6561 0.3774
vn 0.0000 -0.6561 -0.7547
vn 0.6536 -0.6561 0.3774
vn -0.0000 -1.0000 -0.0000
s 1
f 1/1/1 3/2/2 4/3/1
f 5/4/3 3/2/2 2/5/2
f 8/6/4 10/7/5 7/8/6
f 8/6/4 12/9/7 9/10/4
f 13/11/8 15/12/9 16/13/8
f 17/14/10 15/12/9 14/15/9
f 19/16/11 21/17/12 22/18/11
f 23/19/13 21/17/12 20/20/12
f 26/21/14 28/22/15 25/23/15
f 26/21/14 30/24/16 27/25/14
f 31/26/17 33/27/18 34/28/17
f 35/29/19 33/27/18 32/30/18
f 38/31/20 40/32/21 37/33/21
f 38/31/20 42/34/22 39/35/20
f 43/36/23 45/37/24 46/38/23
f 47/39/25 45/37/24 44/40/24
f 49/41/26 51/42/27 52/43/26
f 53/44/28 51/42/27 50/45/27
f 56/46/29 58/47/30 55/48/30
f 56/46/29 60/49/31 57/50/32
f 61/51/33 63/52/34 64/53/33
f 65/54/35 63/52/34 62/55/34
f 67/56/36 69/57/37 70/58/36
f 71/59/38 69/57/37 68/60/37
f 74/61/39 76/62/40 73/63/40
f 74/61/39 78/64/41 75/65/39
f 80/66/42 82/67/43 79/68/43
f 80/66/42 84/69/44 81/70/42
f 85/71/45 87/72/46 88/73/45
f 86/74/46 90/75/47 87/72/46
f 91/76/48 93/77/49 94/78/48
f 92/79/49 96/80/50 93/77/49
f 98/81/51 100/82/52 97/83/52
f 98/81/51 102/84/53 99/85/51
f 103/86/54 105/87/55 106/88/54
f 104/89/55 108/90/56 105/87/55
f 109/91/57 111/92/58 112/93/57
f 113/94/59 111/92/58 110/95/58
f 116/96/60 118/97/61 115/98/61
f 119/99/62 117/100/60 116/96/60
f 122/101/63 124/102/64 121/103/64
f 122/101/63 126/104/65 123/105/63
f 127/106/66 129/107/67 130/108/66
f 128/109/68 132/110/69 129/107/67
f 134/111/70 136/112/71 133/113/71
f 137/114/72 135/115/70 134/111/70
f 140/116/73 142/117/74 139/118/74
f 143/119/75 141/120/73 140/116/73
f 146/121/76 148/122/77 145/123/77
f 149/124/78 147/125/76 146/121/76
f 151/126/79 153/127/80 154/128/79
f 155/129/81 153/127/80 152/130/80
f 158/131/82 160/132/83 157/133/83
f 161/134/84 159/135/82 158/131/82
f 163/136/85 165/137/86 166/138/85
f 167/139/87 165/137/86 164/140/86
f 170/141/88 172/142/89 169/143/89
f 170/141/88 174/144/90 171/145/88
f 175/146/91 177/147/92 178/148/91
f 176/149/92 180/150/93 177/147/92
f 181/151/94 183/152/95 184/153/94
f 182/154/95 186/155/96 183/152/95
f 188/156/97 190/157/98 187/158/98
f 191/159/99 189/160/97 188/156/97
f 194/161/100 196/162/101 193/163/101
f 197/164/102 195/165/100 194/161/100
f 199/166/103 201/167/104 202/168/103
f 200/169/104 204/170/105 201/167/104
f 206/171/106 208/172/107 205/173/107
f 206/171/106 210/174/108 207/175/106
f 212/176/109 214/177/110 211/178/110
f 212/176/109 216/179/111 213/180/109
f 217/181/112 219/182/113 220/183/112
f 221/184/114 219/182/113 218/185/113
f 224/186/115 226/187/116 223/188/116
f 224/186/115 228/189/117 225/190/115
f 230/191/118 232/192/119 229/193/119
f 230/191/118 234/194/120 231/195/118
f 236/196/121 238/197/122 235/198/122
f 236/196/121 240/199/123 237/200/121
f 242/201/124 244/202/125 241/203/125
f 242/201/124 246/204/126 243/205/127
f 247/206/128 249/207/129 250/208/128
f 251/209/130 249/207/129 248/210/129
f 254/211/131 256/212/132 253/213/132
f 257/214/133 255/215/131 254/211/131
f 260/216/134 262/217/135 259/218/135
f 260/216/134 264/219/136 261/220/134
f 266/221/137 268/222/138 265/223/138
f 266/221/137 270/224/139 267/225/137
f 272/226/140 274/227/141 271/228/141
f 272/226/140 276/229/142 273/230/140
f 277/231/143 279/232/144 280/233/143
f 281/234/145 279/232/144 278/235/144
f 283/236/146 285/237/147 286/238/146
f 287/239/148 285/237/147 284/240/147
f 290/241/149 292/242/150 289/243/150
f 290/241/149 294/244/151 291/245/149
f 295/246/152 297/247/153 298/248/154
f 300/249/155 297/247/153 299/250/156
f 301/251/157 297/247/153 296/252/158
f 299/250/156 297/247/153 301/251/157
f 302/253/159 304/254/160 305/255/161
f 307/256/162 304/254/160 306/257/163
f 308/258/164 304/254/160 303/259/165
f 306/257/163 304/254/160 308/258/164
f 309/260/166 311/261/167 312/262/168
f 314/263/169 311/261/167 313/264/170
f 315/265/171 311/261/167 310/266/172
f 313/264/170 311/261/167 315/265/171
f 316/267/173 318/268/174 319/269/175
f 321/270/176 318/268/174 320/271/177
f 322/272/178 318/268/174 317/273/179
f 320/271/177 318/268/174 322/272/178
f 323/274/180 325/275/181 326/276/182
f 328/277/183 325/275/181 327/278/184
f 329/279/185 325/275/181 324/280/186
f 327/278/184 325/275/181 329/279/185
f 330/281/187 332/282/188 333/283/189
f 335/284/190 332/282/188 334/285/191
f 336/286/192 332/282/188 331/287/193
f 334/285/191 332/282/188 336/286/192
f 337/288/194 339/289/195 340/290/196
f 342/291/197 339/289/195 341/292/198
f 343/293/199 339/289/195 338/294/200
f 341/292/198 339/289/195 343/293/199
f 344/295/201 346/296/202 347/297/203
f 349/298/204 346/296/202 348/299/205
f 350/300/206 346/296/202 345/301/207
f 348/299/205 346/296/202 350/300/206
f 351/302/208 353/303/209 354/304/210
f 356/305/211 353/303/209 355/306/212
f 357/307/213 353/303/209 352/308/214
f 355/306/212 353/303/209 357/307/213
f 358/309/215 360/310/216 361/311/217
f 363/312/218 360/310/216 362/313/219
f 364/314/220 360/310/216 359/315/221
f 362/313/219 360/310/216 364/314/220
f 365/316/222 367/317/223 368/318/224
f 370/319/225 367/317/223 369/320/226
f 371/321/227 367/317/223 366/322/228
f 369/320/226 367/317/223 371/321/227
f 372/323/229 374/324/230 375/325/231
f 377/326/232 374/324/230 376/327/233
f 378/328/234 374/324/230 373/329/235
f 376/327/233 374/324/230 378/328/234
f 379/330/236 381/331/237 382/332/238
f 384/333/239 381/331/237 383/334/240
f 385/335/241 381/331/237 380/336/242
f 383/334/240 381/331/237 385/335/241
f 386/337/243 388/338/244 389/339/245
f 391/340/246 388/338/244 390/341/247
f 392/342/248 388/338/244 387/343/249
f 390/341/247 388/338/244 392/342/248
f 393/344/250 395/345/251 396/346/252
f 398/347/253 395/345/251 397/348/254
f 399/349/255 395/345/251 394/350/256
f 397/348/254 395/345/251 399/349/255
f 400/351/257 402/352/258 403/353/259
f 405/354/260 402/352/258 404/355/261
f 406/356/262 402/352/258 401/357/263
f 404/355/261 402/352/258 406/356/262
f 407/358/264 409/359/265 410/360/266
f 412/361/267 409/359/265 411/362/268
f 413/363/269 409/359/265 408/364/270
f 411/362/268 409/359/265 413/363/269
f 414/365/271 416/366/272 417/367/273
f 419/368/274 416/366/272 418/369/275
f 420/370/276 416/366/272 415/371/277
f 418/369/275 416/366/272 420/370/276
f 421/372/278 423/373/279 424/374/280
f 426/375/281 423/373/279 425/376/282
f 427/377/283 423/373/279 422/378/284
f 425/376/282 423/373/279 427/377/283
f 428/379/285 430/380/286 431/381/287
f 433/382/288 430/380/286 432/383/289
f 434/384/290 430/380/286 429/385/291
f 432/383/289 430/380/286 434/384/290
f 435/386/292 437/387/293 438/388/294
f 440/389/295 437/387/293 439/390/296
f 441/391/297 437/387/293 436/392/298
f 439/390/296 437/387/293 441/391/297
f 442/393/299 444/394/300 445/395/301
f 447/396/302 444/394/300 446/397/303
f 448/398/304 444/394/300 443/399/305
f 446/397/303 444/394/300 448/398/304
f 449/400/306 451/401/307 452/402/308
f 454/403/309 451/401/307 453/404/310
f 455/405/311 451/401/307 450/406/312
f 453/404/310 451/401/307 455/405/311
f 456/407/313 458/408/314 459/409/315
f 461/410/316 458/408/314 460/411/317
f 462/412/318 458/408/314 457/413/319
f 460/411/317 458/408/314 462/412/318
f 463/414/320 465/415/321 466/416/322
f 468/417/323 465/415/321 467/418/324
f 469/419/325 465/415/321 464/420/326
f 467/418/324 465/415/321 469/419/325
f 470/421/327 472/422/328 473/423/329
f 475/424/330 472/422/328 474/425/331
f 476/426/332 472/422/328 471/427/333
f 474/425/331 472/422/328 476/426/332
f 477/428/334 479/429/335 480/430/336
f 482/431/337 479/429/335 481/432/338
f 483/433/339 479/429/335 478/434/340
f 481/432/338 479/429/335 483/433/339
f 484/435/341 486/436/342 487/437/343
f 489/438/344 486/436/342 488/439/345
f 490/440/346 486/436/342 485/441/347
f 488/439/345 486/436/342 490/440/346
f 491/442/348 493/443/349 494/444/350
f 496/445/351 493/443/349 495/446/352
f 497/447/353 493/443/349 492/448/354
f 495/446/352 493/443/349 497/447/353
f 498/449/355 500/450/356 501/451/357
f 503/452/358 500/450/356 502/453/359
f 504/454/360 500/450/356 499/455/361
f 502/453/359 500/450/356 504/454/360
f 505/456/362 507/457/363 508/458/364
f 510/459/365 507/457/363 509/460/366
f 511/461/367 507/457/363 506/462/368
f 509/460/366 507/457/363 511/461/367
f 512/463/369 514/464/370 515/465/371
f 517/466/372 514/464/370 516/467/373
f 518/468/374 514/464/370 513/469/375
f 516/467/373 514/464/370 518/468/374
f 519/470/376 521/471/377 522/472/378
f 524/473/379 521/471/377 523/474/380
f 525/475/381 521/471/377 520/476/382
f 523/474/380 521/471/377 525/475/381
f 526/477/383 528/478/384 529/479/385
f 531/480/386 528/478/384 530/481/387
f 532/482/388 528/478/384 527/483/389
f 530/481/387 528/478/384 532/482/388
f 533/484/390 535/485/391 536/486/392
f 538/487/393 535/485/391 537/488/394
f 539/489/395 535/485/391 534/490/396
f 537/488/394 535/485/391 539/489/395
f 541/491/397 543/492/398 540/493/398
f 541/491/397 545/494/399 542/495/397
f 546/496/400 548/497/401 549/498/402
f 551/499/403 548/497/401 550/500/404
f 552/501/405 548/497/401 547/502/406
f 550/500/404 548/497/401 552/501/405
f 1/1/1 2/5/2 3/2/2
f 5/4/3 6/503/3 3/2/2
f 8/6/4 9/10/4 10/7/5
f 8/6/4 11/504/7 12/9/7
f 13/11/8 14/15/9 15/12/9
f 17/14/10 18/505/10 15/12/9
f 19/16/11 20/20/12 21/17/12
f 23/19/13 24/506/407 21/17/12
f 26/21/14 27/25/14 28/22/15
f 26/21/14 29/507/16 30/24/16
f 31/26/17 32/30/18 33/27/18
f 35/29/19 36/508/19 33/27/18
f 38/31/20 39/35/20 40/32/21
f 38/31/20 41/509/22 42/34/22
f 43/36/23 44/40/24 45/37/24
f 47/39/25 48/510/25 45/37/24
f 49/41/26 50/45/27 51/42/27
f 53/44/28 54/511/28 51/42/27
f 56/46/29 57/50/32 58/47/30
f 56/46/29 59/512/31 60/49/31
f 61/51/33 62/55/34 63/52/34
f 65/54/35 66/513/35 63/52/34
f 67/56/36 68/60/37 69/57/37
f 71/59/38 72/514/38 69/57/37
f 74/61/39 75/65/39 76/62/40
f 74/61/39 77/515/41 78/64/41
f 80/66/42 81/70/42 82/67/43
f 80/66/42 83/516/44 84/69/44
f 85/71/45 86/74/46 87/72/46
f 86/74/46 89/517/47 90/75/47
f 91/76/48 92/79/49 93/77/49
f 92/79/49 95/518/50 96/80/50
f 98/81/51 99/85/51 100/82/52
f 98/81/51 101/519/53 102/84/53
f 103/86/54 104/89/55 105/87/55
f 104/89/55 107/520/56 108/90/56
f 109/91/57 110/95/58 111/92/58
f 113/94/59 114/521/59 111/92/58
f 116/96/60 117/100/60 118/97/61
f 119/99/62 120/522/62 117/100/60
f 122/101/63 123/105/63 124/102/64
f 122/101/63 125/523/408 126/104/65
f 127/106/66 128/109/68 129/107/67
f 128/109/68 131/524/69 132/110/69
f 134/111/70 135/115/70 136/112/71
f 137/114/72 138/525/72 135/115/70
f 140/116/73 141/120/73 142/117/74
f 143/119/75 144/526/75 141/120/73
f 146/121/76 147/125/76 148/122/77
f 149/124/78 150/527/78 147/125/76
f 151/126/79 152/130/80 153/127/80
f 155/129/81 156/528/81 153/127/80
f 158/131/82 159/135/82 160/132/83
f 161/134/84 162/529/84 159/135/82
f 163/136/85 164/140/86 165/137/86
f 167/139/87 168/530/87 165/137/86
f 170/141/88 171/145/88 172/142/89
f 170/141/88 173/531/90 174/144/90
f 175/146/91 176/149/92 177/147/92
f 176/149/92 179/532/93 180/150/93
f 181/151/94 182/154/95 183/152/95
f 182/154/95 185/533/96 186/155/96
f 188/156/97 189/160/97 190/157/98
f 191/159/99 192/534/99 189/160/97
f 194/161/100 195/165/100 196/162/101
f 197/164/102 198/535/102 195/165/100
f 199/166/103 200/169/104 201/167/104
f 200/169/104 203/536/105 204/170/105
f 206/171/106 207/175/106 208/172/107
f 206/171/106 209/537/108 210/174/108
f 212/176/109 213/180/109 214/177/110
f 212/176/109 215/538/111 216/179/111
f 217/181/112 218/185/113 219/182/113
f 221/184/114 222/539/114 219/182/113
f 224/186/115 225/190/115 226/187/116
f 224/186/115 227/540/117 228/189/117
f 230/191/118 231/195/118 232/192/119
f 230/191/118 233/541/120 234/194/120
f 236/196/121 237/200/121 238/197/122
f 236/196/121 239/542/123 240/199/123
f 242/201/124 243/205/127 244/202/125
f 242/201/124 245/543/126 246/204/126
f 247/206/128 248/210/129 249/207/129
f 251/209/130 252/544/130 249/207/129
f 254/211/131 255/215/131 256/212/132
f 257/214/133 258/545/133 255/215/131
f 260/216/134 261/220/134 262/217/135
f 260/216/134 263/546/136 264/219/136
f 266/221/137 267/225/137 268/222/138
f 266/221/137 269/547/139 270/224/139
f 272/226/140 273/230/140 274/227/141
f 272/226/140 275/548/142 276/229/142
f 277/231/143 278/235/144 279/232/144
f 281/234/145 282/549/145 279/232/144
f 283/236/146 284/240/147 285/237/147
f 287/239/148 288/550/148 285/237/147
f 290/241/149 291/245/149 292/242/150
f 290/241/149 293/551/151 294/244/151
f 295/246/152 296/252/158 297/247/153
f 300/249/155 298/248/154 297/247/153
f 302/253/159 303/259/165 304/254/160
f 307/256/162 305/255/161 304/254/160
f 309/260/166 310/266/172 311/261/167
f 314/263/169 312/262/168 311/261/167
f 316/267/173 317/273/179 318/268/174
f 321/270/176 319/269/175 318/268/174
f 323/274/180 324/280/186 325/275/181
f 328/277/183 326/276/182 325/275/181
f 330/281/187 331/287/193 332/282/188
f 335/284/190 333/283/189 332/282/188
f 337/288/194 338/294/200 339/289/195
f 342/291/197 340/290/196 339/289/195
f 344/295/201 345/301/207 346/296/202
f 349/298/204 347/297/203 346/296/202
f 351/302/208 352/308/214 353/303/209
f 356/305/211 354/304/210 353/303/209
f 358/309/215 359/315/221 360/310/216
f 363/312/218 361/311/217 360/310/216
f 365/316/222 366/322/228 367/317/223
f 370/319/225 368/318/224 367/317/223
f 372/323/229 373/329/235 374/324/230
f 377/326/232 375/325/231 374/324/230
f 379/330/236 380/336/242 381/331/237
f 384/333/239 382/332/238 381/331/237
f 386/337/243 387/343/249 388/338/244
f 391/340/246 389/339/245 388/338/244
f 393/344/250 394/350/256 395/345/251
f 398/347/253 396/346/252 395/345/251
f 400/351/257 401/357/263 402/352/258
f 405/354/260 403/353/259 402/352/258
f 407/358/264 408/364/270 409/359/265
f 412/361/267 410/360/266 409/359/265
f 414/365/271 415/371/277 416/366/272
f 419/368/274 417/367/273 416/366/272
f 421/372/278 422/378/284 423/373/279
f 426/375/281 424/374/280 423/373/279
f 428/379/285 429/385/291 430/380/286
f 433/382/288 431/381/287 430/380/286
f 435/386/292 436/392/298 437/387/293
f 440/389/295 438/388/294 437/387/293
f 442/393/299 443/399/305 444/394/300
f 447/396/302 445/395/301 444/394/300
f 449/400/306 450/406/312 451/401/307
f 454/403/309 452/402/308 451/401/307
f 456/407/313 457/413/319 458/408/314
f 461/410/316 459/409/315 458/408/314
f 463/414/320 464/420/326 465/415/321
f 468/417/323 466/416/322 465/415/321
f 470/421/327 471/427/333 472/422/328
f 475/424/330 473/423/329 472/422/328
f 477/428/334 478/434/340 479/429/335
f 482/431/337 480/430/336 479/429/335
f 484/435/341 485/441/347 486/436/342
f 489/438/344 487/437/343 486/436/342
f 491/442/348 492/448/354 493/443/349
f 496/445/351 494/444/350 493/443/349
f 498/449/355 499/455/361 500/450/356
f 503/452/358 501/451/357 500/450/356
f 505/456/362 506/462/368 507/457/363
f 510/459/365 508/458/364 507/457/363
f 512/463/369 513/469/375 514/464/370
f 517/466/372 515/465/371 514/464/370
f 519/470/376 520/476/382 521/471/377
f 524/473/379 522/472/378 521/471/377
f 526/477/383 527/483/389 528/478/384
f 531/480/386 529/479/385 528/478/384
f 533/484/390 534/490/396 535/485/391
f 538/487/393 536/486/392 535/485/391
f 541/491/397 542/495/397 543/492/398
f 541/491/397 544/552/399 545/494/399
f 546/496/400 547/502/406 548/497/401
f 551/499/403 549/498/402 548/497/401
f 553/553/409 554/554/410 555/555/411
f 556/556/412 554/557/410 553/558/409
f 558/559/413 555/555/411 554/554/410
f 558/560/413 557/561/414 559/562/415
f 560/563/416 555/555/411 558/559/413
f 561/564/417 558/560/413 559/562/415
f 562/565/418 555/555/411 560/563/416
f 563/566/419 560/567/416 561/564/417
f 564/568/420 555/555/411 562/565/418
f 564/569/420 563/566/419 565/570/421
f 553/553/409 555/555/411 564/568/420
f 556/556/412 564/569/420 565/570/421
f 566/571/422 565/572/421 563/573/419
f 567/574/423 566/571/422 563/573/419
f 568/575/424 556/576/412 565/577/421
f 569/578/425 561/579/417 559/580/415
f 570/581/426 569/578/425 559/580/415
f 567/574/423 563/573/419 561/582/417
f 571/583/427 557/584/414 556/576/412
f 568/575/424 571/583/427 556/576/412
f 570/581/426 559/580/415 557/585/414
f 567/586/423 574/587/428 572/588/429
f 572/588/429 575/589/430 569/590/425
f 567/574/423 576/591/431 573/592/432
f 561/579/417 575/593/430 576/594/431
f 576/594/431 575/593/430 577/595/433
f 573/592/432 576/591/431 577/596/433
f 575/589/430 574/587/428 577/597/433
f 574/587/428 573/598/432 577/597/433
f 578/599/434 579/600/435 580/601/436
f 581/602/437 578/599/434 580/601/436
f 579/603/435 582/604/438 580/605/436
f 582/606/438 581/607/437 580/608/436
f 557/584/414 581/607/437 582/606/438
f 570/581/426 582/604/438 579/603/435
f 583/609/439 581/602/437 571/610/427
f 570/611/426 578/599/434 583/609/439
f 568/612/424 586/613/440 584/614/441
f 566/615/422 586/613/440 587/616/442
f 568/575/424 588/617/443 585/618/444
f 566/571/422 588/619/443 565/572/421
f 588/619/443 587/620/442 589/621/445
f 585/618/444 588/617/443 589/622/445
f 587/616/442 586/613/440 589/623/445
f 586/613/440 585/624/444 589/623/445
f 570/581/426 590/625/446 569/578/425
f 568/575/424 591/626/447 571/583/427
f 567/574/423 592/627/448 566/571/422
f 569/590/425 590/628/446 572/588/429
f 570/611/426 583/609/439 590/628/446
f 571/610/427 591/629/447 583/609/439
f 568/612/424 584/614/441 591/629/447
f 566/615/422 592/630/448 584/614/441
f 567/586/423 572/588/429 592/630/448
f 592/630/448 572/588/429 593/631/449
f 584/614/441 592/630/448 593/631/449
f 591/629/447 584/614/441 593/631/449
f 583/609/439 591/629/447 593/631/449
f 590/628/446 583/609/439 593/631/449
f 572/588/429 590/628/446 593/631/449
f 556/556/412 557/632/414 554/557/410
f 558/560/413 554/633/410 557/561/414
f 561/564/417 560/567/416 558/560/413
f 563/566/419 562/634/418 560/567/416
f 564/569/420 562/634/418 563/566/419
f 556/556/412 553/558/409 564/569/420
f 567/586/423 573/598/432 574/587/428
f 572/588/429 574/587/428 575/589/430
f 567/574/423 561/582/417 576/591/431
f 561/579/417 569/578/425 575/593/430
f 557/584/414 571/583/427 581/607/437
f 570/581/426 557/585/414 582/604/438
f 583/609/439 578/599/434 581/602/437
f 570/611/426 579/600/435 578/599/434
f 568/612/424 585/624/444 586/613/440
f 566/615/422 584/614/441 586/613/440
f 568/575/424 565/577/421 588/617/443
f 566/571/422 587/620/442 588/619/443
