# Blender v2.79 (sub 0) OBJ File: ''
# www.blender.org
mtllib tallGrass3.mtl
o Plane
v 6.686775 -1.167862 -0.092654
v -6.846792 12.365705 -0.092653
v -6.846792 -1.167862 -0.092654
v -0.040925 -1.168473 6.640871
v -0.040925 12.365096 -6.892695
v -0.040926 -1.168471 -6.892697
v 4.743915 -1.168473 4.658926
v -4.825762 12.365096 -4.910750
v -4.825764 -1.168471 -4.910752
v -4.825762 -1.168473 4.658926
v 4.743915 12.365096 -4.910750
v 4.743913 -1.168471 -4.910753
v 1.558724 -0.681047 5.542041
v -10.999188 11.876866 5.542043
v -10.999188 -0.681047 5.542041
v -4.683966 -0.681614 11.790136
v -4.683966 11.876301 -0.767775
v -4.683968 -0.681612 -0.767777
v -0.244073 -0.681614 9.951073
v -9.123859 11.876301 1.071288
v -9.123859 -0.681612 1.071287
v -9.123859 -0.681614 9.951073
v -0.244073 11.876301 1.071288
v -0.244074 -0.681612 1.071286
v -9.373096 -0.222725 -8.464700
v 1.019544 11.418487 -3.219617
v -9.373096 11.418487 -8.464700
v -6.756414 -0.223251 -0.656233
v -1.511331 11.417963 -11.048869
v -1.511333 -0.223249 -11.048872
v -5.953808 -0.223249 -11.381321
v -2.313936 11.417961 -0.323782
v -5.953808 11.417963 -11.381319
v 1.394896 -0.223250 -7.672490
v -9.662642 11.417962 -4.032613
v 1.394897 11.417962 -7.672486
v 9.646020 0.075480 -0.850894
v 0.970462 11.034003 -7.545955
v 0.970462 0.075481 -7.545956
v 2.002218 0.074986 0.137369
v 8.697281 11.033511 -8.538188
v 8.697279 0.074987 -8.538192
v 6.049961 0.074986 1.233925
v 4.649537 11.033512 -9.634744
v 4.649537 0.074988 -9.634746
v -0.084587 0.074987 -3.500199
v 10.784086 11.033511 -4.900620
v 10.784086 0.074987 -4.900625
v 5.667744 0.075478 9.267272
v -1.539712 11.034002 1.012470
v -1.539712 0.075480 1.012469
v -2.022284 0.074985 8.749725
v 6.232519 11.033510 1.542271
v 6.232518 0.074986 1.542267
v 1.734825 0.074984 10.612731
v 2.475409 11.033510 -0.320736
v 2.475409 0.074986 -0.320738
v -3.361618 0.074985 4.775704
v 7.571854 11.033509 5.516292
v 7.571852 0.074985 5.516287
v 10.007878 0.075479 6.220412
v 2.800424 11.034002 -2.034390
v 2.800423 0.075480 -2.034391
v 2.317851 0.074985 5.702866
v 10.572654 11.033510 -1.504589
v 10.572654 0.074986 -1.504593
v 6.074961 0.074985 7.565871
v 6.815544 11.033511 -3.367595
v 6.815544 0.074987 -3.367597
v 0.978518 0.074986 1.728845
v 11.911988 11.033510 2.469432
v 11.911986 0.074986 2.469427
v 4.584265 0.075480 -2.498723
v -2.623190 11.034004 -10.753525
v -2.623191 0.075482 -10.753525
v -3.105762 0.074986 -3.016269
v 5.149040 11.033512 -10.223724
v 5.149040 0.074988 -10.223728
v 0.651347 0.074986 -1.153264
v 1.391931 11.033512 -12.086731
v 1.391931 0.074988 -12.086733
v -4.445096 0.074987 -6.990290
v 6.488375 11.033511 -6.249703
v 6.488373 0.074987 -6.249708
v -6.736666 0.075479 5.498615
v -7.206057 11.034003 -5.449847
v -7.206058 0.075481 -5.449847
v -1.468866 0.074986 -0.179849
v -12.417332 11.033510 0.289550
v -1.468867 11.033510 -0.179846
v -10.648009 0.074985 4.091671
v -3.238188 11.033511 -3.981973
v -3.238188 0.074987 -3.981975
v -10.979921 0.074987 -3.650062
v -2.906276 11.033509 3.759763
v -2.906276 0.074985 3.759758
v 6.686775 12.365705 -0.092653
v -0.040923 12.365094 6.640873
v 4.743915 12.365094 4.658927
v -4.825762 12.365094 4.658928
v 1.558724 11.876866 5.542043
v -4.683964 11.876299 11.790138
v -0.244073 11.876299 9.951074
v -9.123858 11.876299 9.951076
v 1.019543 -0.222725 -3.219618
v -6.756413 11.417961 -0.656231
v -2.313937 -0.223251 -0.323782
v -9.662643 -0.223250 -4.032617
v 9.646023 11.034002 -0.850892
v 2.002219 11.033510 0.137372
v 6.049963 11.033510 1.233927
v -0.084586 11.033511 -3.500195
v 5.667747 11.034000 9.267274
v -2.022283 11.033509 8.749729
v 1.734827 11.033508 10.612733
v -3.361618 11.033509 4.775708
v 10.007882 11.034001 6.220414
v 2.317852 11.033509 5.702870
v 6.074962 11.033509 7.565873
v 0.978518 11.033510 1.728849
v 4.584269 11.034002 -2.498721
v -3.105762 11.033511 -3.016265
v 0.651348 11.033510 -1.153262
v -4.445096 11.033511 -6.990286
v -6.736663 11.034001 5.498620
v -12.417332 0.074986 0.289545
v -10.648008 11.033509 4.091674
v -10.979923 11.033511 -3.650059
vt 0.982401 0.017599
vt 0.017599 0.982401
vt 0.017599 0.017599
vt 0.982401 0.017599
vt 0.017599 0.982401
vt 0.017599 0.017599
vt 0.982401 0.017599
vt 0.017599 0.982401
vt 0.017599 0.017599
vt 0.982401 0.017599
vt 0.017599 0.982401
vt 0.017599 0.017599
vt 0.982401 0.017599
vt 0.017599 0.982401
vt 0.017599 0.017599
vt 0.982401 0.017599
vt 0.017599 0.982401
vt 0.017599 0.017599
vt 0.982401 0.017599
vt 0.017599 0.982401
vt 0.017599 0.017599
vt 0.982401 0.017599
vt 0.017599 0.982401
vt 0.017599 0.017599
vt 0.017599 0.017599
vt 0.982401 0.982401
vt 0.017599 0.982401
vt 0.982401 0.017599
vt 0.017599 0.982401
vt 0.017599 0.017599
vt 0.017599 0.017599
vt 0.982401 0.982401
vt 0.017599 0.982401
vt 0.017599 0.017599
vt 0.982401 0.982401
vt 0.017599 0.982401
vt 0.982401 0.017599
vt 0.017599 0.982401
vt 0.017599 0.017599
vt 0.982401 0.017599
vt 0.017599 0.982401
vt 0.017599 0.017599
vt 0.982401 0.017599
vt 0.017599 0.982401
vt 0.017599 0.017599
vt 0.982401 0.017599
vt 0.017599 0.982401
vt 0.017599 0.017599
vt 0.982401 0.017599
vt 0.017599 0.982401
vt 0.017599 0.017599
vt 0.982401 0.017599
vt 0.017599 0.982401
vt 0.017599 0.017599
vt 0.982401 0.017599
vt 0.017599 0.982401
vt 0.017599 0.017599
vt 0.982401 0.017599
vt 0.017599 0.982401
vt 0.017599 0.017599
vt 0.982401 0.017599
vt 0.017599 0.982401
vt 0.017599 0.017599
vt 0.982401 0.017599
vt 0.017599 0.982401
vt 0.017599 0.017599
vt 0.982401 0.017599
vt 0.017599 0.982401
vt 0.017599 0.017599
vt 0.982401 0.017599
vt 0.017599 0.982401
vt 0.017599 0.017599
vt 0.982401 0.017599
vt 0.017599 0.982401
vt 0.017599 0.017599
vt 0.982401 0.017599
vt 0.017599 0.982401
vt 0.017599 0.017599
vt 0.982401 0.017599
vt 0.017599 0.982401
vt 0.017599 0.017599
vt 0.982401 0.017599
vt 0.017599 0.982401
vt 0.017599 0.017599
vt 0.982401 0.017599
vt 0.017599 0.982401
vt 0.017599 0.017599
vt 0.017599 0.017599
vt 0.982401 0.982401
vt 0.017599 0.982401
vt 0.982401 0.017599
vt 0.017599 0.982401
vt 0.017599 0.017599
vt 0.982401 0.017599
vt 0.017599 0.982401
vt 0.017599 0.017599
vt 0.982401 0.982401
vt 0.982401 0.982401
vt 0.982401 0.982401
vt 0.982401 0.982401
vt 0.982401 0.982401
vt 0.982401 0.982401
vt 0.982401 0.982401
vt 0.982401 0.982401
vt 0.982401 0.017599
vt 0.982401 0.982401
vt 0.982401 0.017599
vt 0.982401 0.017599
vt 0.982401 0.982401
vt 0.982401 0.982401
vt 0.982401 0.982401
vt 0.982401 0.982401
vt 0.982401 0.982401
vt 0.982401 0.982401
vt 0.982401 0.982401
vt 0.982401 0.982401
vt 0.982401 0.982401
vt 0.982401 0.982401
vt 0.982401 0.982401
vt 0.982401 0.982401
vt 0.982401 0.982401
vt 0.982401 0.982401
vt 0.982401 0.982401
vt 0.982401 0.982401
vt 0.982401 0.982401
vt 0.982401 0.017599
vt 0.982401 0.982401
vt 0.982401 0.982401
vn 0.0000 -0.0000 1.0000
vn -1.0000 0.0000 0.0000
vn -0.7071 -0.0000 0.7071
vn -0.7071 0.0000 -0.7071
vn -0.4506 -0.0000 0.8927
vn -0.8927 0.0000 -0.4506
vn -0.9499 0.0000 0.3127
vn -0.3127 0.0000 -0.9499
vn -0.6109 -0.0000 0.7917
vn -0.7917 0.0000 -0.6109
vn -0.9918 0.0000 0.1278
vn -0.1278 0.0000 -0.9918
vn -0.7533 0.0000 0.6577
vn -0.6577 0.0000 -0.7533
vn -0.9977 0.0000 -0.0676
vn 0.0676 0.0000 -0.9977
vn -0.9991 0.0000 0.0428
vn -0.0428 0.0000 -0.9991
vn -0.7367 0.0000 -0.6762
vn 0.6762 0.0000 -0.7367
usemtl None
s 1
f 1/1/1 2/2/1 3/3/1
f 4/4/2 5/5/2 6/6/2
f 7/7/3 8/8/3 9/9/3
f 10/10/4 11/11/4 12/12/4
f 13/13/1 14/14/1 15/15/1
f 16/16/2 17/17/2 18/18/2
f 19/19/3 20/20/3 21/21/3
f 22/22/4 23/23/4 24/24/4
f 25/25/5 26/26/5 27/27/5
f 28/28/6 29/29/6 30/30/6
f 31/31/7 32/32/7 33/33/7
f 34/34/8 35/35/8 36/36/8
f 37/37/9 38/38/9 39/39/9
f 40/40/10 41/41/10 42/42/10
f 43/43/11 44/44/11 45/45/11
f 46/46/12 47/47/12 48/48/12
f 49/49/13 50/50/13 51/51/13
f 52/52/14 53/53/14 54/54/14
f 55/55/15 56/56/15 57/57/15
f 58/58/16 59/59/16 60/60/16
f 61/61/13 62/62/13 63/63/13
f 64/64/14 65/65/14 66/66/14
f 67/67/15 68/68/15 69/69/15
f 70/70/16 71/71/16 72/72/16
f 73/73/13 74/74/13 75/75/13
f 76/76/14 77/77/14 78/78/14
f 79/79/15 80/80/15 81/81/15
f 82/82/16 83/83/16 84/84/16
f 85/85/17 86/86/17 87/87/17
f 88/88/18 89/89/18 90/90/18
f 91/91/19 92/92/19 93/93/19
f 94/94/20 95/95/20 96/96/20
f 1/1/1 97/97/1 2/2/1
f 4/4/2 98/98/2 5/5/2
f 7/7/3 99/99/3 8/8/3
f 10/10/4 100/100/4 11/11/4
f 13/13/1 101/101/1 14/14/1
f 16/16/2 102/102/2 17/17/2
f 19/19/3 103/103/3 20/20/3
f 22/22/4 104/104/4 23/23/4
f 25/25/5 105/105/5 26/26/5
f 28/28/6 106/106/6 29/29/6
f 31/31/7 107/107/7 32/32/7
f 34/34/8 108/108/8 35/35/8
f 37/37/9 109/109/9 38/38/9
f 40/40/10 110/110/10 41/41/10
f 43/43/11 111/111/11 44/44/11
f 46/46/12 112/112/12 47/47/12
f 49/49/13 113/113/13 50/50/13
f 52/52/14 114/114/14 53/53/14
f 55/55/15 115/115/15 56/56/15
f 58/58/16 116/116/16 59/59/16
f 61/61/13 117/117/13 62/62/13
f 64/64/14 118/118/14 65/65/14
f 67/67/15 119/119/15 68/68/15
f 70/70/16 120/120/16 71/71/16
f 73/73/13 121/121/13 74/74/13
f 76/76/14 122/122/14 77/77/14
f 79/79/15 123/123/15 80/80/15
f 82/82/16 124/124/16 83/83/16
f 85/85/17 125/125/17 86/86/17
f 88/88/18 126/126/18 89/89/18
f 91/91/19 127/127/19 92/92/19
f 94/94/20 128/128/20 95/95/20
