# Blender v2.79 (sub 0) OBJ File: ''
# www.blender.org
o Cube
v 2.251561 -1.680758 -2.245083
v 2.251561 -1.680758 2.642535
v -2.636058 -1.680758 2.642535
v -2.636056 -1.680758 -2.245084
v 0.941836 2.307695 -0.555329
v 0.561806 2.307695 1.332810
v -1.326332 2.307695 0.952781
v -0.946303 2.307695 -0.935358
v 2.941468 -1.680758 0.198726
v -3.325965 -1.680758 0.198725
v 1.446114 2.307695 0.528482
v -1.830610 2.307695 -0.131030
v -0.192248 -1.680758 -2.934991
v -0.192248 -1.680758 3.332442
v 0.137508 2.307695 -1.439636
v -0.522005 2.307695 1.837088
v 0.312708 15.719596 0.240676
v -0.192248 -1.680758 0.198726
v 1.221808 8.487672 0.976334
v 0.458570 8.487672 1.670542
v 0.092361 8.487672 -0.722333
v -0.843067 8.487672 -0.287094
v -0.476858 8.487672 2.105781
v -1.171067 8.487672 1.342542
v -1.606305 8.487672 0.407114
v 0.786570 8.487672 0.040905
v 0.147324 16.970409 -3.773181
v 0.375931 15.213625 1.484825
v 0.056222 15.213625 -1.674373
v -0.760427 15.213625 -1.294401
v -0.440719 15.213625 1.864798
v -1.046779 15.213625 1.198473
v -0.885873 16.171513 -0.256266
v 0.662282 15.213625 -1.008050
v -0.192248 16.889481 -0.115846
v -1.376055 16.970409 -2.669560
v -1.405451 16.970409 -1.841289
v 1.382900 16.970409 -2.278218
v 1.020955 16.970409 -1.162144
v -0.192248 16.970409 -0.557065
v 1.595375 18.041159 2.354990
v 1.392586 18.683983 3.261342
v 0.440125 18.683983 3.875609
v -0.933133 18.279493 2.541863
v -1.116039 17.518419 1.029026
v 0.201443 17.420891 0.719544
v 0.111218 20.198338 -6.473162
v -1.159565 20.198338 -5.552536
v -1.184087 20.198338 -4.861602
v 1.141919 20.198338 -5.226084
v 0.839989 20.198338 -4.295069
v -0.172049 20.198338 -3.790320
v 0.110753 22.360659 -10.876045
v -1.156779 22.360659 -9.957772
v -1.181238 22.360659 -9.268606
v 1.138818 22.360659 -9.632156
v 0.837660 22.360659 -8.703522
v -0.171789 22.360659 -8.200066
v -1.723329 25.957769 -17.060287
v -2.574675 25.957769 -16.443525
v -2.591103 25.957769 -15.980642
v -1.032823 25.957769 -16.224825
v -1.235097 25.957769 -15.601101
v -1.913100 25.957769 -15.262951
v 3.219104 21.090158 3.914776
v 2.985064 21.616152 4.668793
v 2.199593 21.616152 5.175364
v 1.488962 22.020639 4.416174
v 1.515155 22.781715 3.840660
v 2.726886 21.710428 3.113809
v 6.620682 27.361086 4.446500
v 6.429571 27.361086 5.017829
v 5.398927 27.361086 5.682518
v 4.541779 27.361086 4.637869
v 4.586580 27.361086 4.037093
v 5.603630 27.361086 3.603351
v 6.523910 30.024605 7.371166
v 6.349759 30.024605 7.891795
v 5.410576 30.024605 8.497498
v 4.629492 30.024605 7.545553
v 4.670318 30.024605 6.998089
v 5.597114 30.024605 6.602839
v 6.114748 32.425888 10.118378
v 6.012301 32.425888 10.424637
v 5.459829 32.425888 10.780943
v 5.000358 32.425888 10.220964
v 5.024373 32.425888 9.898918
v 5.569561 32.425888 9.666412
v -7.643526 18.909309 4.379047
v 4.872762 19.421883 5.522903
v -5.731355 13.770974 -14.241732
v 6.784932 14.283545 -13.097878
v -10.124941 16.174118 -5.206345
v 9.268181 17.035484 -3.452553
v -1.585084 21.473124 5.928077
v 0.638569 15.404964 -15.672857
v -0.534868 20.699142 -5.470202
v -9.520805 17.553875 -0.310570
v 7.678533 18.303974 1.248645
v -1.025458 21.939920 -0.648495
v 1.638091 20.163778 5.601855
v 3.666652 14.712678 -14.152349
v 4.307336 19.429668 -4.622649
v 3.814579 20.753794 0.175836
v -2.561100 14.396804 -14.704716
v -5.343003 18.940201 -5.478578
v -4.589662 19.847906 5.049489
v -5.835760 20.264326 -0.680091
v 8.663099 15.658274 -8.339092
v -8.536240 14.908175 -9.898307
v -0.035523 19.087795 -10.178719
v 4.799145 18.108093 -9.411901
v -4.851194 17.618624 -10.267828
v -3.131175 17.968046 0.612732
v 6.643414 17.090813 -2.602852
v -7.859522 20.369715 -14.415480
v 1.915067 19.492481 -17.631063
v -8.174006 19.377674 -5.998340
v 6.979128 18.074724 -10.974215
v 2.330645 18.925447 0.412246
v -3.171502 21.631212 -17.053844
v -0.187365 22.166960 -8.065429
v -6.097624 18.690870 -2.406419
v 7.339693 17.523729 -6.820741
v 1.022759 21.478020 -4.201298
v 4.392766 17.839775 -1.260702
v -0.623388 20.387629 -17.203661
v 3.417521 20.598095 -9.450361
v 4.635993 19.979195 -5.577662
v -5.494269 20.773159 -15.609520
v -4.130250 21.195505 -6.980124
v -0.478115 18.225307 0.333442
v -2.911778 20.576605 -3.107425
v 4.905096 18.760336 -14.558685
v -8.532225 19.927477 -10.144361
v -1.432514 22.541153 -11.960459
v 2.201394 21.215803 -13.315605
v -5.346377 21.813210 -10.845367
v -0.830905 24.951897 -1.270501
v 7.538957 24.622076 -6.564532
v -7.865545 16.458864 -11.863144
v 0.504319 16.129042 -17.157173
v -6.626568 20.786629 -5.083797
v 6.327636 20.321169 -13.313562
v 3.488048 26.759529 -3.805185
v -4.659916 16.826698 -16.069834
v -1.094554 23.337778 -10.803118
v -4.082547 22.953608 -2.822391
v 7.409201 22.531418 -10.115624
v 0.737476 25.469723 -8.040785
v 5.476317 25.449814 -5.186577
v -1.986511 16.439819 -16.423979
v 2.456455 22.214258 -12.260542
v 4.269248 24.402872 -9.530867
v -6.138151 16.562653 -13.765339
v -3.976801 22.404602 -8.140792
v 1.324677 25.572651 -2.527937
v -2.164008 24.593216 -5.411118
v 3.787105 18.158401 -15.569719
v -7.704646 18.580589 -8.276483
v -2.836972 20.956352 -13.413986
v 0.647150 20.029858 -14.984962
v -5.786105 20.220198 -10.865211
v -1.486091 22.266050 -3.960970
v 7.778913 24.309652 -9.465437
v -9.273073 18.429697 -18.492149
v -0.008067 20.473293 -23.996616
v -7.901590 19.764118 -9.689590
v 6.438044 22.988789 -18.225266
v 3.294766 25.233175 -5.713770
v -5.724607 20.690887 -22.583189
v -1.777937 24.913588 -14.330643
v -5.085489 20.941118 -6.428470
v 7.635281 23.789013 -13.997154
v 0.250026 25.830196 -10.578430
v 5.495678 24.528358 -7.699560
v -2.765287 20.458487 -23.115236
v 2.152846 24.431303 -16.309748
v 4.159513 25.419910 -12.565130
v -7.360938 19.388895 -20.370138
v -4.968435 22.773899 -12.056021
v 0.900027 23.458771 -4.954459
v -2.961767 23.762505 -8.311403
v 3.625808 21.813694 -21.479185
v -9.094967 18.965796 -13.910496
v -3.706703 23.676544 -18.041637
v 0.150040 23.444595 -20.047153
v -6.971240 21.787186 -15.793428
v -8.317184 23.388615 -11.724819
v -1.474047 25.177938 -7.851581
v -1.935815 20.029602 -21.921650
v 4.907328 21.818922 -18.048409
v -7.013709 21.197989 -17.863571
v 3.587879 24.021423 -11.874788
v -5.474821 25.986549 -9.332113
v 1.940862 22.009443 -21.156672
v -1.855614 25.706728 -15.666965
v -8.058664 22.228539 -14.898455
v 1.343937 24.722080 -9.584555
v -3.497159 26.509289 -13.023052
v -3.419711 25.369434 -8.657757
v 3.350087 21.805960 -19.475254
v 0.822060 25.284452 -13.894625
v -0.822392 26.150053 -11.266951
v -0.053610 20.869450 -21.391119
v -4.452212 23.833273 -16.863392
v -6.823410 24.432930 -10.573622
v -6.096662 24.698874 -14.235716
v 4.629674 22.992542 -14.834848
v -4.772931 20.498997 -20.148748
v -0.204231 24.623606 -18.233120
v 2.463341 24.420517 -16.517242
v -2.810929 22.969332 -19.486006
v -5.672890 26.233006 -7.798403
v 3.329227 24.637934 -8.344616
v -7.389641 22.696093 -21.426739
v 1.612479 21.101015 -21.972952
v -9.005764 24.879490 -14.435238
v 4.956524 22.464838 -15.293125
v -0.667317 27.329029 -7.295038
v -2.680531 23.135950 -23.107773
v -1.239213 27.152121 -15.565418
v -7.772189 25.660210 -10.972994
v 4.607749 23.507013 -11.731457
v -0.812803 27.992731 -12.039188
v 1.247352 25.755590 -7.914465
v -0.573895 22.003382 -22.372335
v 1.934770 25.293695 -15.523954
v 2.377166 26.205141 -12.011993
v -5.065889 22.745598 -22.090086
v -5.025889 26.443819 -15.086580
v -3.244641 26.497810 -7.632209
v -4.583491 27.355263 -11.574619
v 3.723805 21.685873 -18.748613
v -8.656137 23.839066 -17.990150
v -1.736346 25.996140 -19.020988
v 1.493222 24.384005 -19.029150
v -5.467437 25.534121 -18.591774
v -2.677164 20.077013 11.305773
v 6.343379 18.750713 12.172634
v -1.528790 20.436211 -2.827194
v 7.491756 19.109905 -1.960333
v -4.586308 20.591070 4.020271
v 9.402968 18.593933 5.370681
v 2.062081 21.021935 13.082592
v 3.379146 21.352798 -3.344015
v 3.098248 23.135443 5.131680
v -4.089696 20.391508 7.739397
v 8.314497 18.608376 8.935551
v 2.788274 22.970764 8.764797
v 4.152986 19.692982 12.460213
v 5.371259 20.074034 -2.533008
v 6.313499 21.357628 5.308195
v 6.017566 21.265060 8.950193
v 0.871513 20.681547 -2.970924
v -0.659174 22.299019 4.629623
v -0.346761 20.300497 12.022303
v -0.955105 22.206451 8.271622
v 8.905790 18.793324 1.658562
v -3.498407 20.576450 0.462408
v 3.344782 22.977083 1.465819
v 6.608858 21.450010 1.673207
v -0.363814 22.391397 0.994635
v -6.393391 22.519491 4.569230
v 0.142116 20.740131 14.820885
v 9.495121 23.001389 -5.892063
v 16.030630 21.222023 4.359595
v -0.269089 23.209148 -3.467455
v 9.859928 20.529797 12.436064
v -4.356568 23.787193 11.046875
v 14.095888 24.231081 -1.130869
v 4.904253 26.622671 5.573958
v -3.790297 22.941416 0.129874
v 5.192348 20.549173 14.230387
v 0.807643 26.401737 8.247601
v -1.971362 22.004276 12.743004
v 14.884260 22.515491 1.644949
v 7.373775 24.237558 9.118591
v 3.279377 24.113373 11.814417
v 11.629944 23.330532 -3.473456
v 2.330969 25.500528 1.187270
v -5.225684 22.819317 7.624602
v -1.763425 25.376341 3.883095
v 13.373259 20.797297 8.843924
v 4.390612 23.189535 -5.256591
v 8.983063 26.410215 2.806203
v 11.460287 24.361500 6.427954
v 6.417481 25.624462 -1.503367
v -4.216717 25.930601 -0.514287
v -4.693484 28.870934 11.406391
v 13.561008 19.431335 1.442172
v 13.084238 22.371662 13.362856
v 4.763596 21.846495 -2.804500
v 4.047102 26.478390 15.654375
v -5.262508 30.060076 4.923486
v 15.353840 22.398422 7.215415
v 5.765478 28.778400 5.628037
v 0.144125 23.791142 -2.265791
v -0.495895 27.883410 14.107325
v 1.156559 30.359272 5.140085
v -4.876783 29.132797 8.200106
v 13.983042 22.237919 10.275658
v 5.095415 28.253971 10.488871
v 0.514176 29.928799 9.984699
v 14.200150 20.706013 4.354588
v 5.431829 25.880184 1.313752
v -4.659681 27.600895 2.279035
v 0.850592 27.555012 0.809583
v 8.657761 24.536970 15.114697
v 9.297779 20.444700 -1.258421
v 10.241634 26.780109 6.187636
v 9.667830 26.582363 10.992071
v 10.004242 24.208570 1.816955
v 5.843308 23.625608 -0.525456
v -1.642316 30.194588 1.190173
v 9.196350 23.017920 14.750214
v 1.710719 29.586895 16.465843
v 9.550020 21.493643 6.623012
v -2.011352 31.725012 9.269857
v 2.902765 28.435560 -1.229356
v 6.740730 27.651957 16.531237
v 6.096227 29.799160 7.235785
v 8.035854 22.234417 2.835080
v -2.225308 31.297445 5.184854
v 5.184803 29.890827 3.313783
v 0.550530 29.112638 0.168336
v 4.107658 28.467953 16.373812
v 2.389780 31.178205 8.148777
v 1.525717 31.334799 4.212307
v 7.798706 25.151245 15.530502
v 8.109322 26.038733 6.841994
v 4.241578 25.795933 -0.674984
v 7.245256 26.195330 2.905527
v -0.498847 30.984545 13.050217
v 9.762316 21.921518 10.700441
v 6.793945 29.417107 11.214970
v 3.252178 31.021904 12.077665
v 8.971715 25.882431 10.770885
v 3.105097 26.716087 0.543205
v -3.702610 29.053150 7.637055
v 14.646236 27.025368 11.110357
v 7.838525 29.362423 18.204212
v 10.724297 26.196627 3.869398
v 0.178311 29.882454 14.848875
v -1.147386 29.676262 2.873797
v 12.253565 29.939737 15.167200
v 5.636714 31.968435 8.569248
v 7.153924 26.332067 1.766074
v -2.199511 29.587624 11.505993
v 2.658846 31.808760 5.862220
v -2.303891 29.140047 5.387749
v 9.939737 29.468142 16.598110
v 2.957348 31.458494 11.574915
v -0.016750 31.378794 8.851807
v 13.325172 28.246683 13.079245
v 8.203312 29.565763 6.122171
v 1.081539 27.918591 1.868876
v 5.229215 29.486059 3.399067
v 3.742960 29.746868 16.946964
v 13.096395 26.491310 7.207046
v 8.591964 31.769918 11.343014
v 5.925717 31.538038 14.292776
v 11.171682 29.645302 8.840036
v 5.683905 26.355789 3.946065
v -1.030482 29.043188 7.011632
v 12.043211 31.042915 13.197271
v 5.328818 33.730316 16.262842
v 10.695807 27.932873 7.729432
v 0.292443 32.140068 12.451956
v 1.840727 28.530895 3.948856
v 9.225731 33.911407 14.735819
v 5.558551 32.652580 8.394951
v 8.468631 26.967443 5.609734
v -0.757909 30.689806 9.803667
v 3.918479 31.391470 6.045477
v 0.481276 28.679256 5.660564
v 7.227661 33.651672 15.474882
v 2.958328 32.747231 10.178850
v 1.319565 31.539373 7.794857
v 10.568443 32.275337 13.974325
v 8.135105 30.614492 7.853625
v 3.822056 27.302916 4.160004
v 6.496342 29.406641 5.469635
v 2.516463 33.103180 14.567066
v 11.743006 29.380816 10.373133
v 7.189601 33.672951 10.894367
v 4.593936 33.952751 12.558252
v 9.770714 31.820013 10.233030
v 11.091484 25.570004 12.993803
v 11.948141 28.721964 4.379243
v -2.038427 31.067375 13.977795
v -1.181771 34.219337 5.363226
v 4.298532 27.419712 15.839935
v 5.653523 32.354187 2.508536
v 13.357319 28.121113 9.097153
v -1.934537 34.431732 10.214104
v 6.656603 32.955292 10.240541
v 7.761534 26.287392 14.834002
v 8.957556 30.653227 3.007329
v 10.005909 31.476187 9.965271
v 12.425024 28.295120 6.708933
v -1.504089 34.127106 7.752813
v 6.383584 33.066307 6.552204
v 9.767101 31.649656 6.298635
v -1.955392 32.512840 12.024435
v 5.684268 30.564894 13.171391
v 11.973726 26.680855 10.980558
v 9.067782 29.148245 12.917820
v 2.197031 33.483795 3.513978
v 1.001010 29.117954 15.340656
v 3.160661 34.152054 10.418159
v 3.006583 34.480232 6.805285
v 2.307262 31.978811 13.424469
v 1.136369 30.255552 -3.228049
v 7.562004 27.510654 -5.346783
v -4.335681 23.750317 -10.685165
v 2.089961 21.005413 -12.803902
v -3.358566 27.749075 -6.347810
v 6.606377 23.530891 -9.661791
v 5.017742 30.401279 -4.555835
v -1.350091 22.792795 -13.171675
v 2.109741 27.789803 -9.887270
v -1.383905 29.190445 -4.616797
v 7.451960 25.442261 -7.549485
v 3.509969 29.422409 -7.927286
v 6.192169 28.776524 -4.913935
v 0.387045 21.875319 -12.824955
v 4.402083 25.966377 -10.026375
v 5.812203 27.642748 -8.104709
v -2.818192 23.209538 -11.742525
v -0.564659 28.033855 -8.349073
v 2.986932 30.110750 -3.831505
v 0.845462 29.710222 -6.427409
v 4.634432 22.092745 -11.389114
v -4.201437 25.840935 -8.456425
v 0.667948 25.964512 -11.672007
v 2.994677 24.293236 -11.944338
v -1.972067 26.360708 -10.267036
v -0.530408 30.255552 -21.308475
v -5.992252 27.510654 -17.315220
v 6.970858 23.750317 -15.897104
v 1.509008 21.005413 -11.903845
v 4.706441 27.749075 -19.723307
v -3.755157 23.530891 -13.503668
v -3.814845 30.401279 -18.850721
v 4.895306 22.792795 -12.612511
v 0.592665 27.789803 -14.672861
v 2.294923 29.190445 -20.762669
v -5.209719 25.442261 -15.253267
v -1.342754 29.422409 -16.106852
v -4.822086 28.776524 -18.148596
v 3.135768 21.875319 -12.407845
v -1.545636 25.966377 -13.835093
v -3.478675 27.642748 -15.229580
v 5.852381 23.209538 -14.424082
v 2.663949 28.033855 -16.959396
v -2.105474 30.110750 -20.164835
v 0.730908 29.710222 -18.353884
v -1.347359 22.092745 -12.466980
v 6.157286 25.840935 -17.976385
v 2.513705 25.964512 -13.418406
v 0.383684 24.293236 -12.443291
v 4.593267 26.360708 -15.567600
vt 0.912377 0.037514
vt 0.991099 0.184878
vt 0.912377 0.184878
vt 0.912377 0.037514
vt 0.991099 0.184878
vt 0.912377 0.184878
vt 0.991099 0.037514
vt 0.912377 0.184878
vt 0.912377 0.037514
vt 0.991099 0.037514
vt 0.912377 0.184878
vt 0.912377 0.037514
vt 0.991099 0.037514
vt 0.912377 0.184878
vt 0.912377 0.037514
vt 0.991099 0.037514
vt 0.912377 0.184878
vt 0.912377 0.037514
vt 0.991099 0.037514
vt 0.912377 0.037514
vt 0.991099 0.037514
vt 0.912377 0.184878
vt 0.912377 0.037514
vt 0.912377 0.037514
vt 0.991099 0.184878
vt 0.912377 0.184878
vt 0.991099 0.037514
vt 0.912377 0.037514
vt 0.991099 0.184878
vt 0.912377 0.184878
vt 0.991099 0.037514
vt 0.912377 0.184878
vt 0.991099 0.037514
vt 0.912377 0.184878
vt 0.991099 0.037514
vt 0.912377 0.184878
vt 0.912377 0.037514
vt 0.912377 0.037514
vt 0.991099 0.184878
vt 0.912377 0.184878
vt 0.991099 0.037514
vt 0.912377 0.184878
vt 0.912377 0.037514
vt 0.991099 0.184878
vt 0.912377 0.184878
vt 0.991099 0.037514
vt 0.912377 0.184878
vt 0.912377 0.037514
vt 0.912377 0.037514
vt 0.991099 0.184878
vt 0.912377 0.184878
vt 0.991099 0.037514
vt 0.912377 0.184878
vt 0.912377 0.037514
vt 0.912377 0.184878
vt 0.912377 0.037514
vt 0.912377 0.037514
vt 0.991099 0.184878
vt 0.912377 0.184878
vt 0.912377 0.184878
vt 0.912377 0.037514
vt 0.912377 0.184878
vt 0.912377 0.037514
vt 0.912377 0.037514
vt 0.991099 0.184878
vt 0.912377 0.184878
vt 0.912377 0.037514
vt 0.991099 0.184878
vt 0.912377 0.184878
vt 0.991099 0.037514
vt 0.912377 0.184878
vt 0.912377 0.037514
vt 0.912377 0.037514
vt 0.991099 0.184878
vt 0.912377 0.184878
vt 0.912377 0.037514
vt 0.991099 0.184878
vt 0.912377 0.184878
vt 0.912377 0.037514
vt 0.991099 0.184878
vt 0.912377 0.184878
vt 0.991099 0.037514
vt 0.912377 0.184878
vt 0.912377 0.037514
vt 0.991099 0.037514
vt 0.912377 0.184878
vt 0.912377 0.037514
vt 0.912377 0.037514
vt 0.991099 0.184878
vt 0.912377 0.184878
vt 0.991099 0.037514
vt 0.912377 0.184878
vt 0.912377 0.037514
vt 0.912377 0.037514
vt 0.991099 0.184878
vt 0.912377 0.184878
vt 0.991099 0.037514
vt 0.912377 0.184878
vt 0.912377 0.037514
vt 0.991099 0.037514
vt 0.912377 0.184878
vt 0.912377 0.037514
vt 0.912377 0.037514
vt 0.991099 0.184878
vt 0.912377 0.184878
vt 0.991099 0.037514
vt 0.912377 0.184878
vt 0.912377 0.037514
vt 0.991099 0.037514
vt 0.912377 0.184878
vt 0.912377 0.037514
vt 0.991099 0.184878
vt 0.912377 0.184878
vt 0.991099 0.037514
vt 0.912377 0.184878
vt 0.991099 0.184878
vt 0.912377 0.184878
vt 0.991099 0.037514
vt 0.912377 0.184878
vt 0.912377 0.037514
vt 0.912377 0.037514
vt 0.991099 0.184878
vt 0.912377 0.184878
vt 0.991099 0.037514
vt 0.912377 0.184878
vt 0.912377 0.037514
vt 0.912377 0.037514
vt 0.991099 0.184878
vt 0.912377 0.184878
vt 0.912377 0.037514
vt 0.991099 0.184878
vt 0.912377 0.184878
vt 0.991099 0.037514
vt 0.912377 0.184878
vt 0.912377 0.037514
vt 0.991099 0.037514
vt 0.912377 0.184878
vt 0.912377 0.037514
vt 0.912377 0.037514
vt 0.991099 0.184878
vt 0.912377 0.184878
vt 0.991099 0.037514
vt 0.912377 0.184878
vt 0.912377 0.037514
vt 0.912377 0.037514
vt 0.991099 0.184878
vt 0.912377 0.184878
vt 0.912377 0.037514
vt 0.991099 0.184878
vt 0.912377 0.184878
vt 0.991099 0.037514
vt 0.912377 0.184878
vt 0.912377 0.037514
vt 0.991099 0.037514
vt 0.912377 0.184878
vt 0.912377 0.037514
vt 0.912377 0.037514
vt 0.991099 0.184878
vt 0.912377 0.184878
vt 0.991099 0.037514
vt 0.912377 0.184878
vt 0.912377 0.037514
vt 0.912377 0.037514
vt 0.991099 0.184878
vt 0.912377 0.184878
vt 0.912377 0.037514
vt 0.912377 0.184878
vt 0.991099 0.037514
vt 0.912377 0.037514
vt 0.991099 0.037514
vt 0.912377 0.037514
vt 0.991099 0.037514
vt 0.912377 0.184878
vt 0.912377 0.037514
vt 0.912377 0.037514
vt 0.991099 0.184878
vt 0.912377 0.184878
vt 0.991099 0.037514
vt 0.912377 0.184878
vt 0.912377 0.037514
vt 0.912377 0.037514
vt 0.991099 0.184878
vt 0.912377 0.184878
vt 0.991099 0.037514
vt 0.912377 0.184878
vt 0.912377 0.037514
vt 0.912377 0.037514
vt 0.991099 0.184878
vt 0.912377 0.184878
vt 0.991099 0.037514
vt 0.912377 0.184878
vt 0.912377 0.037514
vt 0.991099 0.037514
vt 0.912377 0.184878
vt 0.912377 0.037514
vt 0.912377 0.037514
vt 0.991099 0.184878
vt 0.912377 0.184878
vt 0.912377 0.037514
vt 0.991099 0.184878
vt 0.912377 0.184878
vt 0.991099 0.037514
vt 0.912377 0.184878
vt 0.912377 0.037514
vt 0.912377 0.037514
vt 0.991099 0.184878
vt 0.912377 0.184878
vt 0.991099 0.037514
vt 0.912377 0.184878
vt 0.912377 0.037514
vt 0.991099 0.037514
vt 0.912377 0.184878
vt 0.912377 0.037514
vt 0.991099 0.037514
vt 0.912377 0.184878
vt 0.912377 0.037514
vt 0.912377 0.037514
vt 0.991099 0.184878
vt 0.912377 0.184878
vt 0.912377 0.037514
vt 0.991099 0.184878
vt 0.912377 0.184878
vt 0.912377 0.037514
vt 0.991099 0.184878
vt 0.912377 0.184878
vt 0.912377 0.037514
vt 0.991099 0.184878
vt 0.912377 0.184878
vt 0.991099 0.037514
vt 0.912377 0.184878
vt 0.912377 0.037514
vt 0.991099 0.037514
vt 0.912377 0.184878
vt 0.912377 0.037514
vt 0.912377 0.037514
vt 0.991099 0.184878
vt 0.912377 0.184878
vt 0.912377 0.037514
vt 0.991099 0.184878
vt 0.912377 0.037514
vt 0.991099 0.184878
vt 0.844915 0.262410
vt 0.916811 0.299334
vt 0.909980 0.336234
vt 0.747942 0.126194
vt 0.770980 0.214939
vt 0.696837 0.167507
vt 0.646627 0.245207
vt 0.670665 0.371546
vt 0.596608 0.323995
vt 0.795256 0.340581
vt 0.835225 0.437208
vt 0.744651 0.418862
vt 0.528967 0.250749
vt 0.679407 0.092798
vt 0.603668 0.139887
vt 0.553964 0.185891
vt 0.721015 0.292937
vt 0.888935 0.400622
vt 0.522299 0.327875
vt 0.554191 0.389144
vt 0.788025 0.483957
vt 0.705021 0.469440
vt 0.618947 0.454023
vt 0.886465 0.197887
vt 0.844915 0.262410
vt 0.916811 0.299334
vt 0.909980 0.336234
vt 0.747942 0.126194
vt 0.770980 0.214939
vt 0.696837 0.167507
vt 0.646627 0.245207
vt 0.670665 0.371546
vt 0.596608 0.323995
vt 0.795256 0.340581
vt 0.835225 0.437208
vt 0.744651 0.418862
vt 0.528967 0.250749
vt 0.679407 0.092798
vt 0.603668 0.139887
vt 0.553964 0.185891
vt 0.721015 0.292937
vt 0.888935 0.400622
vt 0.522299 0.327875
vt 0.554191 0.389144
vt 0.788025 0.483957
vt 0.705021 0.469440
vt 0.618947 0.454023
vt 0.886465 0.197887
vt 0.844915 0.262410
vt 0.916811 0.299334
vt 0.909980 0.336234
vt 0.747942 0.126194
vt 0.770980 0.214939
vt 0.696837 0.167507
vt 0.646627 0.245207
vt 0.670665 0.371546
vt 0.596608 0.323995
vt 0.795256 0.340581
vt 0.835225 0.437208
vt 0.744651 0.418862
vt 0.528967 0.250749
vt 0.679407 0.092798
vt 0.603668 0.139887
vt 0.553964 0.185891
vt 0.721015 0.292937
vt 0.888935 0.400622
vt 0.522299 0.327875
vt 0.554191 0.389144
vt 0.788025 0.483957
vt 0.705021 0.469440
vt 0.618947 0.454023
vt 0.886465 0.197887
vt 0.844915 0.262410
vt 0.916811 0.299334
vt 0.909980 0.336234
vt 0.747942 0.126194
vt 0.770980 0.214939
vt 0.696837 0.167507
vt 0.646627 0.245207
vt 0.670665 0.371546
vt 0.596608 0.323995
vt 0.795256 0.340581
vt 0.835225 0.437208
vt 0.744651 0.418862
vt 0.528967 0.250749
vt 0.679407 0.092798
vt 0.603668 0.139887
vt 0.553964 0.185891
vt 0.721015 0.292937
vt 0.888935 0.400622
vt 0.522299 0.327875
vt 0.554191 0.389144
vt 0.788025 0.483957
vt 0.705021 0.469440
vt 0.618947 0.454023
vt 0.886465 0.197887
vt 0.844915 0.262410
vt 0.916811 0.299334
vt 0.909980 0.336234
vt 0.747942 0.126194
vt 0.770980 0.214939
vt 0.696837 0.167507
vt 0.596608 0.323995
vt 0.721015 0.292937
vt 0.670665 0.371546
vt 0.795256 0.340581
vt 0.835225 0.437208
vt 0.744651 0.418862
vt 0.528967 0.250749
vt 0.646627 0.245207
vt 0.679407 0.092798
vt 0.603668 0.139887
vt 0.553964 0.185891
vt 0.888935 0.400622
vt 0.522299 0.327875
vt 0.554191 0.389144
vt 0.788025 0.483957
vt 0.705021 0.469440
vt 0.618947 0.454023
vt 0.886465 0.197887
vt 0.844915 0.262410
vt 0.916811 0.299334
vt 0.909980 0.336234
vt 0.747942 0.126194
vt 0.770980 0.214939
vt 0.696837 0.167507
vt 0.596608 0.323995
vt 0.721015 0.292937
vt 0.670665 0.371546
vt 0.795256 0.340581
vt 0.835225 0.437208
vt 0.744651 0.418862
vt 0.528967 0.250749
vt 0.646627 0.245207
vt 0.679407 0.092798
vt 0.603668 0.139887
vt 0.553964 0.185891
vt 0.888935 0.400622
vt 0.522299 0.327875
vt 0.554191 0.389144
vt 0.788025 0.483957
vt 0.705021 0.469440
vt 0.618947 0.454023
vt 0.886465 0.197887
vt 0.844915 0.262410
vt 0.916811 0.299334
vt 0.909980 0.336234
vt 0.747942 0.126194
vt 0.770980 0.214939
vt 0.696837 0.167507
vt 0.596608 0.323995
vt 0.721015 0.292937
vt 0.670665 0.371546
vt 0.795256 0.340581
vt 0.835225 0.437208
vt 0.744651 0.418862
vt 0.528967 0.250749
vt 0.646627 0.245207
vt 0.679407 0.092798
vt 0.603668 0.139887
vt 0.553964 0.185891
vt 0.888935 0.400622
vt 0.522299 0.327875
vt 0.554191 0.389144
vt 0.788025 0.483957
vt 0.705021 0.469440
vt 0.618947 0.454023
vt 0.886465 0.197887
vt 0.844915 0.262410
vt 0.916811 0.299334
vt 0.909980 0.336234
vt 0.747942 0.126194
vt 0.770980 0.214939
vt 0.696837 0.167507
vt 0.596608 0.323995
vt 0.721015 0.292937
vt 0.670665 0.371546
vt 0.795256 0.340581
vt 0.835225 0.437208
vt 0.744651 0.418862
vt 0.528967 0.250749
vt 0.646627 0.245207
vt 0.679407 0.092798
vt 0.603668 0.139887
vt 0.553964 0.185891
vt 0.888935 0.400622
vt 0.522299 0.327875
vt 0.554191 0.389144
vt 0.788025 0.483957
vt 0.705021 0.469440
vt 0.618947 0.454023
vt 0.886465 0.197887
vt 0.844915 0.262410
vt 0.916811 0.299334
vt 0.909980 0.336234
vt 0.747942 0.126194
vt 0.770980 0.214939
vt 0.696837 0.167507
vt 0.596608 0.323995
vt 0.721015 0.292937
vt 0.670665 0.371546
vt 0.795256 0.340581
vt 0.835225 0.437208
vt 0.744651 0.418862
vt 0.528967 0.250749
vt 0.646627 0.245207
vt 0.679407 0.092798
vt 0.603668 0.139887
vt 0.553964 0.185891
vt 0.888935 0.400622
vt 0.522299 0.327875
vt 0.554191 0.389144
vt 0.788025 0.483957
vt 0.705021 0.469440
vt 0.618947 0.454023
vt 0.886465 0.197887
vt 0.844915 0.262410
vt 0.916811 0.299334
vt 0.909980 0.336234
vt 0.747942 0.126194
vt 0.770980 0.214939
vt 0.696837 0.167507
vt 0.596608 0.323995
vt 0.721015 0.292937
vt 0.670665 0.371546
vt 0.795256 0.340581
vt 0.835225 0.437208
vt 0.744651 0.418862
vt 0.528967 0.250749
vt 0.646627 0.245207
vt 0.679407 0.092798
vt 0.603668 0.139887
vt 0.553964 0.185891
vt 0.888935 0.400622
vt 0.522299 0.327875
vt 0.554191 0.389144
vt 0.788025 0.483957
vt 0.705021 0.469440
vt 0.618947 0.454023
vt 0.886465 0.197887
vt 0.844915 0.262410
vt 0.916811 0.299334
vt 0.909980 0.336234
vt 0.747942 0.126194
vt 0.770980 0.214939
vt 0.696837 0.167507
vt 0.596608 0.323995
vt 0.721015 0.292937
vt 0.670665 0.371546
vt 0.795256 0.340581
vt 0.835225 0.437208
vt 0.744651 0.418862
vt 0.528967 0.250749
vt 0.646627 0.245207
vt 0.679407 0.092798
vt 0.603668 0.139887
vt 0.553964 0.185891
vt 0.888935 0.400622
vt 0.522299 0.327875
vt 0.554191 0.389144
vt 0.788025 0.483957
vt 0.705021 0.469440
vt 0.618947 0.454023
vt 0.886465 0.197887
vt 0.844915 0.262410
vt 0.916811 0.299334
vt 0.909980 0.336234
vt 0.747942 0.126194
vt 0.770980 0.214939
vt 0.696837 0.167507
vt 0.596608 0.323995
vt 0.721015 0.292937
vt 0.670665 0.371546
vt 0.795256 0.340581
vt 0.835225 0.437208
vt 0.744651 0.418862
vt 0.528967 0.250749
vt 0.646627 0.245207
vt 0.679407 0.092798
vt 0.603668 0.139887
vt 0.553964 0.185891
vt 0.888935 0.400622
vt 0.522299 0.327875
vt 0.554191 0.389144
vt 0.788025 0.483957
vt 0.705021 0.469440
vt 0.618947 0.454023
vt 0.886465 0.197887
vt 0.844915 0.262410
vt 0.916811 0.299334
vt 0.909980 0.336234
vt 0.747942 0.126194
vt 0.770980 0.214939
vt 0.696837 0.167507
vt 0.596608 0.323995
vt 0.721015 0.292937
vt 0.670665 0.371546
vt 0.795256 0.340581
vt 0.835225 0.437208
vt 0.744651 0.418862
vt 0.528967 0.250749
vt 0.646627 0.245207
vt 0.679407 0.092798
vt 0.603668 0.139887
vt 0.553964 0.185891
vt 0.888935 0.400622
vt 0.522299 0.327875
vt 0.554191 0.389144
vt 0.788025 0.483957
vt 0.705021 0.469440
vt 0.618947 0.454023
vt 0.886465 0.197887
vt 0.844915 0.262410
vt 0.916811 0.299334
vt 0.909980 0.336234
vt 0.747942 0.126194
vt 0.770980 0.214939
vt 0.696837 0.167507
vt 0.596608 0.323995
vt 0.721015 0.292937
vt 0.670665 0.371546
vt 0.795256 0.340581
vt 0.835225 0.437208
vt 0.744651 0.418862
vt 0.528967 0.250749
vt 0.646627 0.245207
vt 0.679407 0.092798
vt 0.603668 0.139887
vt 0.553964 0.185891
vt 0.888935 0.400622
vt 0.522299 0.327875
vt 0.554191 0.389144
vt 0.788025 0.483957
vt 0.705021 0.469440
vt 0.618947 0.454023
vt 0.886465 0.197887
vt 0.844915 0.262410
vt 0.916811 0.299334
vt 0.909980 0.336234
vt 0.747942 0.126194
vt 0.770980 0.214939
vt 0.696837 0.167507
vt 0.596608 0.323995
vt 0.721015 0.292937
vt 0.670665 0.371546
vt 0.795256 0.340581
vt 0.835225 0.437208
vt 0.744651 0.418862
vt 0.528967 0.250749
vt 0.646627 0.245207
vt 0.679407 0.092798
vt 0.603668 0.139887
vt 0.553964 0.185891
vt 0.888935 0.400622
vt 0.522299 0.327875
vt 0.554191 0.389144
vt 0.788025 0.483957
vt 0.705021 0.469440
vt 0.618947 0.454023
vt 0.886465 0.197887
vt 0.991099 0.037514
vt 0.991099 0.184878
vt 0.991099 0.184878
vt 0.991099 0.184878
vt 0.991099 0.184878
vt 0.991099 0.184878
vt 0.991099 0.184878
vt 0.991099 0.037514
vt 0.991099 0.184878
vt 0.991099 0.037514
vt 0.991099 0.184878
vt 0.991099 0.184878
vt 0.991099 0.184878
vt 0.991099 0.184878
vt 0.991099 0.037514
vt 0.991099 0.184878
vt 0.991099 0.037514
vt 0.991099 0.184878
vt 0.991099 0.184878
vt 0.991099 0.184878
vt 0.991099 0.184878
vt 0.991099 0.037514
vt 0.991099 0.184878
vt 0.991099 0.037514
vt 0.991099 0.037514
vt 0.991099 0.037514
vt 0.991099 0.184878
vt 0.991099 0.184878
vt 0.991099 0.037514
vt 0.991099 0.184878
vt 0.991099 0.037514
vt 0.991099 0.184878
vt 0.991099 0.184878
vt 0.991099 0.037514
vt 0.991099 0.184878
vt 0.991099 0.184878
vt 0.991099 0.184878
vt 0.991099 0.184878
vt 0.991099 0.037514
vt 0.991099 0.184878
vt 0.991099 0.037514
vt 0.991099 0.037514
vt 0.991099 0.184878
vt 0.991099 0.184878
vt 0.991099 0.037514
vt 0.991099 0.184878
vt 0.991099 0.037514
vt 0.991099 0.037514
vt 0.991099 0.184878
vt 0.991099 0.184878
vt 0.991099 0.037514
vt 0.991099 0.037514
vt 0.991099 0.037514
vt 0.991099 0.184878
vt 0.991099 0.184878
vt 0.991099 0.184878
vt 0.991099 0.037514
vt 0.991099 0.184878
vt 0.991099 0.037514
vt 0.991099 0.184878
vt 0.991099 0.037514
vt 0.991099 0.184878
vt 0.991099 0.184878
vt 0.991099 0.037514
vt 0.991099 0.037514
vt 0.991099 0.184878
vt 0.991099 0.037514
vt 0.991099 0.184878
vt 0.991099 0.184878
vt 0.991099 0.184878
vt 0.991099 0.037514
vt 0.991099 0.037514
vt 0.991099 0.037514
vt 0.991099 0.037514
vt 0.991099 0.037514
vt 0.991099 0.037514
vt 0.991099 0.037514
vt 0.821868 0.135535
vt 0.821868 0.135535
vt 0.821868 0.135535
vt 0.821868 0.135535
vt 0.821868 0.135535
vt 0.821868 0.135535
vt 0.821868 0.135535
vt 0.821868 0.135535
vt 0.821868 0.135535
vt 0.821868 0.135535
vt 0.821868 0.135535
vt 0.821868 0.135535
vt 0.821868 0.135535
vt 0.821868 0.135535
vt 0.821868 0.135535
vn 0.0000 -1.0000 0.0000
vn 0.9048 0.0634 -0.4210
vn 0.9116 0.3205 0.2574
vn -0.2574 0.3205 0.9116
vn -0.9116 0.3205 -0.2574
vn -0.3950 0.3510 -0.8490
vn -0.8838 0.3959 0.2495
vn 0.8838 0.3959 -0.2495
vn 0.7372 0.0832 -0.6705
vn -0.4197 0.1016 -0.9020
vn 0.6542 0.4669 -0.5950
vn 0.2495 0.3959 0.8838
vn 0.6726 -0.0292 0.7395
vn -0.9947 0.0888 -0.0515
vn 0.6726 0.0287 0.7395
vn 0.9666 0.1431 0.2126
vn 0.4217 0.0302 0.9062
vn -0.7396 -0.0238 0.6727
vn 0.4215 -0.0425 0.9058
vn -0.9067 -0.0038 0.4219
vn -0.6702 0.0885 -0.7369
vn 0.7316 -0.4681 0.4957
vn -0.5431 0.6647 0.5131
vn 0.9314 -0.1615 0.3262
vn 0.4597 -0.5297 0.7128
vn -0.4183 -0.1295 -0.8990
vn -0.7395 0.0281 0.6726
vn 0.7367 -0.0909 -0.6701
vn -0.6694 -0.1020 -0.7359
vn -0.4843 -0.5645 -0.6684
vn 0.6827 -0.4643 -0.5642
vn -0.4281 -0.6838 -0.5909
vn 0.9068 0.4146 0.0760
vn 0.5805 -0.6199 -0.5280
vn -0.9348 -0.3536 -0.0332
vn -0.7090 0.1100 0.6966
vn -0.1525 0.5486 -0.8220
vn -0.0580 0.8545 -0.5162
vn -0.9900 -0.0397 -0.1357
vn 0.6932 0.2369 -0.6807
vn -0.7147 -0.2583 0.6500
vn -0.3042 -0.8551 -0.4199
vn 0.4706 -0.7919 -0.3890
vn -0.5976 0.5693 0.5646
vn -0.9987 0.0353 -0.0354
vn 0.8971 0.3326 0.2909
vn 0.3328 0.6663 0.6673
vn -0.2986 -0.8608 -0.4121
vn 0.6308 -0.5747 -0.5214
vn -0.4224 0.8138 0.3990
vn -0.9969 -0.0708 -0.0354
vn 0.8048 0.5330 0.2610
vn 0.2145 0.8770 0.4300
vn 0.0000 1.0000 0.0000
vn -0.5149 0.7059 0.4864
vn -0.9086 -0.4163 -0.0323
vn 0.6274 0.7517 0.2035
vn 0.2018 0.8920 0.4045
vn -0.6036 0.3146 0.7326
vn -0.3778 0.2691 -0.8859
vn -0.8493 0.5056 -0.1517
vn 0.7992 -0.1249 -0.5879
vn 0.4445 -0.5722 0.6892
vn 0.5629 -0.5857 0.5833
vn -0.6431 -0.5549 0.5277
vn -0.2726 0.7191 -0.6392
vn -0.8277 0.5578 -0.0617
vn 0.6144 -0.2704 -0.7412
vn 0.5073 -0.3520 0.7866
vn 0.8175 -0.5068 0.2735
vn -0.6666 -0.5064 0.5470
vn -0.2550 0.7599 -0.5979
vn -0.9908 0.1133 -0.0739
vn 0.4819 0.6557 -0.5812
vn 0.4048 -0.6651 0.6276
vn 0.9048 -0.2995 0.3027
vn -0.9704 0.2305 -0.0724
vn 0.4537 0.7034 -0.5472
vn 0.4211 -0.6295 0.6529
vn 0.9297 -0.1974 0.3110
vn 0.3050 0.7382 -0.6016
vn 0.5605 0.8113 -0.1663
vn -0.3139 0.9065 -0.2824
vn -0.2124 0.7353 -0.6436
vn -0.3266 0.9349 0.1390
vn 0.2238 0.9552 0.1936
vn 0.3830 0.9185 0.0978
vn 0.2824 0.9356 -0.2120
vn 0.4145 0.7786 -0.4711
vn -0.5922 0.8058 0.0042
vn -0.5389 0.6617 -0.5213
vn -0.5003 0.8475 -0.1771
vn -0.4799 0.7925 -0.3763
vn 0.2892 0.9147 -0.2823
vn -0.2752 0.9191 -0.2819
vn 0.2520 0.8928 -0.3733
vn 0.6487 0.7565 -0.0832
vn -0.1638 0.9648 0.2057
vn -0.2340 0.9513 -0.2004
vn -0.0267 0.8165 0.5768
vn 0.4978 0.7656 0.4075
vn 0.6017 0.7588 0.2493
vn 0.4098 0.9115 0.0342
vn 0.4054 0.8659 -0.2931
vn -0.3449 0.7780 0.5252
vn -0.5078 0.8614 0.0092
vn -0.3123 0.8834 0.3494
vn -0.3739 0.9147 0.1536
vn 0.3874 0.9213 -0.0353
vn -0.1254 0.9728 0.1949
vn -0.1913 0.4829 -0.8545
vn 0.2625 0.6603 -0.7037
vn -0.5153 0.8024 -0.3011
vn -0.6294 0.5191 -0.5783
vn -0.2793 0.9601 0.0118
vn 0.1907 0.9409 -0.2797
vn 0.2652 0.8608 -0.4344
vn -0.0002 0.7917 -0.6109
vn -0.0309 0.5503 -0.8344
vn -0.5575 0.8231 0.1082
vn -0.8101 0.5198 -0.2712
vn -0.5957 0.7977 -0.0942
vn -0.6912 0.6823 -0.2380
vn -0.0341 0.7496 -0.6610
vn -0.4854 0.8106 -0.3276
vn -0.1913 0.7880 -0.5852
vn 0.2625 0.8889 -0.3753
vn -0.5153 0.8555 0.0503
vn -0.6294 0.7091 -0.3180
vn -0.2793 0.8728 0.4003
vn 0.1907 0.9735 0.1260
vn 0.2652 0.9630 -0.0478
vn -0.0002 0.9715 -0.2372
vn -0.0309 0.8415 -0.5394
vn -0.5575 0.7085 0.4328
vn -0.8101 0.5851 -0.0370
vn -0.5957 0.7673 0.2375
vn -0.6912 0.7202 0.0592
vn -0.0341 0.9533 -0.3001
vn -0.4854 0.8738 0.0294
vn 0.4587 0.7295 -0.5073
vn 0.5237 0.8506 0.0476
vn -0.3537 0.7999 -0.4849
vn -0.0397 0.6423 -0.7654
vn -0.5550 0.8303 -0.0498
vn -0.0174 0.9625 0.2706
vn 0.2046 0.9480 0.2439
vn 0.2280 0.9620 -0.1505
vn 0.5116 0.7921 -0.3329
vn -0.7091 0.6416 -0.2923
vn -0.3912 0.5153 -0.7625
vn -0.5543 0.7060 -0.4407
vn -0.4302 0.6542 -0.6220
vn 0.2865 0.9347 -0.2102
vn -0.3045 0.8316 -0.4645
vn 0.3822 0.6246 -0.6811
vn 0.7586 0.6010 -0.2515
vn -0.2063 0.9531 -0.2214
vn -0.1664 0.7617 -0.6262
vn -0.1309 0.9586 0.2529
vn 0.4967 0.8372 0.2288
vn 0.6490 0.7559 0.0859
vn 0.4740 0.8419 -0.2580
vn 0.5351 0.6291 -0.5639
vn -0.4452 0.8853 0.1347
vn -0.4855 0.7602 -0.4318
vn -0.3753 0.9239 -0.0746
vn -0.3909 0.8723 -0.2937
vn 0.4785 0.8097 -0.3397
vn -0.1457 0.9619 -0.2313
vn 0.4665 0.7909 -0.3960
vn 0.7544 0.6518 0.0779
vn -0.2182 0.9759 0.0071
vn -0.0897 0.9041 -0.4178
vn -0.2356 0.8504 0.4704
vn 0.3913 0.7443 0.5412
vn 0.5728 0.7067 0.4153
vn 0.4620 0.8833 0.0795
vn 0.5936 0.7638 -0.2537
vn -0.5163 0.8107 0.2760
vn -0.4395 0.8469 -0.2993
vn -0.4101 0.9061 0.1034
vn -0.3802 0.9171 -0.1200
vn 0.4841 0.8750 -0.0052
vn -0.1575 0.9874 0.0123
vn 0.5993 0.7909 0.1238
vn 0.4032 0.6518 0.6424
vn -0.1399 0.9759 -0.1676
vn 0.2739 0.9041 -0.3279
vn -0.5157 0.8504 0.1040
vn -0.1855 0.7443 0.6415
vn 0.0255 0.7067 0.7071
vn 0.2219 0.8833 0.4130
vn 0.5654 0.7638 0.3115
vn -0.5354 0.8107 -0.2369
vn -0.0348 0.8469 -0.5306
vn -0.3340 0.9061 -0.2595
vn -0.1395 0.9171 -0.3735
vn 0.3022 0.8750 0.3782
vn -0.1067 0.9874 -0.1165
vn 0.7127 0.6785 0.1781
vn 0.2544 0.8401 0.4791
vn 0.3405 0.7681 -0.5423
vn 0.7174 0.5827 -0.3818
vn -0.1349 0.8360 -0.5319
vn -0.1746 0.9805 0.0901
vn -0.0541 0.9591 0.2778
vn 0.3101 0.9425 0.1249
vn 0.5848 0.7531 0.3015
vn -0.0006 0.6328 -0.7743
vn 0.5501 0.4640 -0.6943
vn 0.2054 0.6823 -0.7016
vn 0.4181 0.6141 -0.6694
vn 0.3871 0.9095 0.1515
vn 0.3464 0.8002 -0.4896
vn 0.3989 0.8209 0.4086
vn 0.0003 0.9992 0.0397
vn 0.8613 0.4789 -0.1700
vn 0.8329 0.4781 0.2787
vn 0.6643 0.4374 -0.6061
vn 0.1799 0.8431 -0.5067
vn 0.0705 0.9391 -0.3362
vn 0.3536 0.9335 -0.0603
vn 0.2650 0.9143 0.3062
vn 0.8563 0.1795 -0.4843
vn 0.9775 0.1936 0.0842
vn 0.9043 0.3012 -0.3026
vn 0.9490 0.3047 -0.0814
vn 0.3545 0.9346 0.0276
vn 0.8311 0.5323 -0.1612
vn 0.2437 0.8933 0.3777
vn -0.3258 0.8860 0.3299
vn 0.3678 0.8266 -0.4259
vn 0.6075 0.7929 -0.0470
vn -0.0156 0.7193 -0.6945
vn -0.4561 0.8539 -0.2507
vn -0.4713 0.8815 -0.0288
vn -0.1010 0.9935 0.0525
vn 0.0532 0.9196 0.3892
vn 0.2863 0.5725 -0.7683
vn 0.7004 0.6150 -0.3622
vn 0.3846 0.6944 -0.6082
vn 0.5446 0.7081 -0.4495
vn -0.0497 0.9911 0.1239
vn 0.3320 0.8599 -0.3878
vn 0.0611 0.9970 0.0477
vn -0.4718 0.8737 -0.1184
vn 0.4033 0.6742 -0.6188
vn 0.5331 0.8187 -0.2133
vn 0.1168 0.4136 -0.9029
vn -0.4368 0.6167 -0.6549
vn -0.5137 0.7177 -0.4702
vn -0.1893 0.9141 -0.3585
vn -0.1268 0.9919 0.0057
vn 0.4380 0.3056 -0.8455
vn 0.7217 0.5602 -0.4064
vn 0.4792 0.4913 -0.7273
vn 0.5886 0.5878 -0.5551
vn -0.1592 0.9460 -0.2823
vn 0.3560 0.7119 -0.6054
vn -0.0720 0.9970 0.0288
vn 0.3397 0.8737 -0.3481
vn 0.3317 0.6742 0.6599
vn -0.0840 0.8187 0.5680
vn 0.7214 0.4136 0.5554
vn 0.7857 0.6167 -0.0478
vn 0.6648 0.7177 -0.2072
vn 0.4051 0.9141 0.0169
vn 0.0589 0.9919 -0.1125
vn 0.5101 0.3056 0.8040
vn -0.0120 0.5602 0.8282
vn 0.3873 0.4913 0.7802
vn 0.1834 0.5878 0.7880
vn 0.3241 0.9460 0.0045
vn 0.3440 0.7119 0.6123
vn 0.1238 0.2190 -0.9678
vn 0.6328 0.2905 -0.7178
vn -0.2342 0.8112 -0.5358
vn -0.3575 0.4730 -0.8052
vn 0.0143 0.9864 -0.1640
vn 0.5810 0.7426 -0.3331
vn 0.6648 0.5834 -0.4667
vn 0.3770 0.5612 -0.7368
vn 0.3096 0.2383 -0.9205
vn -0.3242 0.9370 -0.1302
vn -0.5799 0.6113 -0.5385
vn -0.3367 0.8760 -0.3454
vn -0.4357 0.7471 -0.5019
vn 0.3492 0.4994 -0.7929
vn -0.1815 0.8031 -0.5675
vn 0.1800 0.2190 0.9590
vn -0.3812 0.2905 0.8777
vn 0.3877 0.8112 0.4378
vn 0.5880 0.4730 0.6561
vn 0.0369 0.9864 0.1604
vn -0.4503 0.7426 0.4957
vn -0.4889 0.5834 0.6486
vn -0.1320 0.5612 0.8171
vn -0.0113 0.2383 0.9711
vn 0.3486 0.9370 0.0241
vn 0.7175 0.6113 0.3339
vn 0.4266 0.8760 0.2250
vn 0.5690 0.7471 0.3435
vn -0.0882 0.4994 0.8618
vn 0.3473 0.8031 0.4841
vn 0.5950 0.4669 0.6542
vn -0.6542 0.4669 0.5950
vn -0.5950 0.4669 -0.6542
vn -0.2495 0.3959 -0.8838
vn -0.8490 0.3510 0.3950
vn 0.8490 0.3510 -0.3950
vn 0.2574 0.3205 -0.9116
vn 0.3950 0.3510 0.8490
vn -0.9064 0.0258 0.4217
vn 0.9922 0.1248 0.0003
vn 0.9056 -0.0490 -0.4213
vn 0.9218 -0.3405 -0.1853
vn -0.7257 0.6768 0.1241
vn 0.9382 -0.1649 0.3043
vn 0.3637 -0.5067 0.7817
vn -0.9792 0.0756 -0.1881
vn -0.3202 -0.6510 -0.6883
vn 0.3569 0.6005 0.7156
vn 0.6016 -0.6252 -0.4972
vn -0.9417 -0.2961 0.1594
vn -0.6977 0.1045 0.7087
vn -0.0764 0.4992 -0.8631
vn -0.4549 0.5729 -0.6818
vn -0.9913 -0.0202 0.1300
vn 0.8309 0.2004 -0.5191
vn -0.6314 -0.2625 0.7297
vn -0.9086 -0.4163 -0.0322
vn -0.7240 0.3507 0.5940
vn -0.3217 0.2549 -0.9119
vn -0.8451 0.3407 0.4121
vn 0.7768 -0.1114 -0.6198
vn 0.5850 -0.5940 0.5522
vn -0.7561 0.4111 0.5092
vn 0.6940 -0.2965 -0.6561
vn 0.7252 -0.4384 0.5309
vn 0.4211 -0.6295 0.6530
vn 0.5658 0.7053 -0.4271
vn 0.4497 0.8889 -0.0878
vn -0.3307 0.9053 -0.2666
vn -0.3974 0.7389 -0.5441
vn -0.4805 0.8767 0.0213
vn 0.5098 0.8530 0.1116
vn 0.2038 0.9611 0.1863
vn 0.2685 0.9353 -0.2305
vn 0.2492 0.7582 -0.6026
vn -0.3184 0.9379 0.1374
vn -0.2375 0.7236 -0.6480
vn -0.5879 0.7623 -0.2707
vn 0.2289 0.9441 -0.2370
vn -0.3230 0.8844 -0.3369
vn 0.4707 0.8323 -0.2928
vn 0.5403 0.7685 -0.3427
vn 0.5928 0.8034 0.0551
vn -0.1741 0.9586 0.2254
vn -0.3682 0.9289 -0.0402
vn -0.2204 0.8257 0.5193
vn 0.7061 0.6830 0.1867
vn 0.4785 0.7757 0.4114
vn 0.3909 0.9201 0.0241
vn 0.2056 0.9160 -0.3445
vn -0.0191 0.8192 0.5733
vn -0.2612 0.9447 -0.1981
vn -0.4439 0.8525 0.2759
vn 0.3548 0.9342 0.0377
vn -0.1957 0.9682 0.1556
vn 0.5294 0.8356 -0.1465
vn 0.1239 0.4793 -0.8689
vn 0.2120 0.7690 -0.6031
vn -0.5193 0.8078 -0.2790
vn -0.7188 0.5717 -0.3956
vn -0.4656 0.8844 0.0331
vn 0.3818 0.7903 -0.4792
vn 0.1697 0.9463 -0.2752
vn -0.0223 0.7872 -0.6163
vn -0.2386 0.5070 -0.8282
vn -0.2741 0.9617 0.0049
vn -0.6508 0.5092 -0.5632
vn -0.7119 0.6970 -0.0861
vn -0.0587 0.7975 -0.6005
vn -0.5524 0.7656 -0.3297
vn 0.1136 0.6502 -0.7512
vn 0.1239 0.7906 -0.5997
vn 0.2120 0.9475 -0.2393
vn -0.5193 0.8515 0.0726
vn -0.7188 0.6830 -0.1296
vn -0.4656 0.7949 0.3890
vn 0.3818 0.9168 -0.1174
vn 0.1697 0.9766 0.1323
vn -0.0223 0.9695 -0.2440
vn -0.2386 0.7994 -0.5513
vn -0.2741 0.8770 0.3946
vn -0.6508 0.6939 -0.3082
vn -0.7119 0.6720 0.2041
vn -0.0587 0.9725 -0.2253
vn -0.5524 0.8335 0.0093
vn 0.1136 0.8990 -0.4229
vn 0.6471 0.7324 -0.2116
vn 0.3674 0.9269 0.0764
vn -0.3500 0.8136 -0.4643
vn -0.2640 0.6147 -0.7433
vn -0.6333 0.7374 -0.2349
vn 0.3381 0.8862 0.3168
vn -0.0363 0.9668 0.2531
vn 0.2536 0.9547 -0.1558
vn 0.4014 0.7426 -0.5361
vn -0.5472 0.8356 -0.0479
vn -0.0603 0.6261 -0.7774
vn -0.5715 0.6032 -0.5564
vn 0.1974 0.9611 -0.1931
vn -0.3181 0.7826 -0.5351
vn 0.4880 0.8634 -0.1283
vn 0.6775 0.5045 -0.5352
vn 0.6822 0.7170 -0.1430
vn -0.1878 0.9603 -0.2062
vn -0.3390 0.8058 -0.4856
vn -0.3205 0.9367 0.1409
vn 0.7647 0.6400 0.0750
vn 0.4749 0.8509 0.2243
vn 0.4883 0.8278 -0.2763
vn 0.3285 0.6615 -0.6742
vn -0.1219 0.9605 0.2503
vn -0.1945 0.7560 -0.6250
vn -0.4868 0.8585 -0.1615
vn 0.4286 0.8599 -0.2772
vn -0.2108 0.9358 -0.2827
vn 0.6475 0.6606 -0.3799
vn 0.7353 0.6370 -0.2316
vn 0.6516 0.7328 0.1960
vn -0.2034 0.9787 0.0270
vn -0.2885 0.9065 -0.3082
vn -0.3985 0.8592 0.3208
vn 0.6954 0.5990 0.3971
vn 0.3699 0.7586 0.5363
vn 0.4804 0.8749 0.0613
vn 0.4104 0.8241 -0.3903
vn -0.2264 0.8530 0.4702
vn -0.1172 0.8982 -0.4238
vn -0.4986 0.8666 -0.0185
vn 0.4201 0.9057 0.0572
vn -0.2098 0.9761 -0.0563
vn 0.6665 0.7439 -0.0493
vn 0.6352 0.6370 0.4368
vn 0.2468 0.7328 0.6341
vn -0.1465 0.9787 -0.1436
vn 0.0652 0.9065 -0.4171
vn -0.4982 0.8592 -0.1165
vn 0.1153 0.5990 0.7924
vn -0.1948 0.7586 0.6217
vn 0.2475 0.8749 0.4163
vn 0.5603 0.8241 0.0830
vn -0.5099 0.8530 0.1112
vn 0.2617 0.8982 -0.3533
vn -0.2925 0.8666 -0.4043
vn 0.2136 0.9057 0.3662
vn -0.0848 0.9761 -0.1999
vn 0.4492 0.7439 0.4948
vn 0.5313 0.6999 0.4774
vn 0.1657 0.9218 0.3505
vn 0.3248 0.7832 -0.5301
vn 0.5967 0.5618 -0.5730
vn -0.0110 0.7310 -0.6823
vn -0.0653 0.9002 0.4306
vn -0.1669 0.9838 0.0653
vn 0.3255 0.9342 0.1457
vn 0.7142 0.6906 0.1137
vn -0.1328 0.8413 -0.5241
vn 0.7177 0.5662 -0.4053
vn 0.2932 0.5713 -0.7666
vn 0.3347 0.9391 0.0786
vn 0.3997 0.7463 -0.5322
vn 0.3970 0.8402 0.3694
vn 0.0773 0.9393 0.3343
vn 0.0953 0.9895 -0.1086
vn 0.8493 0.4941 -0.1858
vn 0.9307 0.3443 0.1236
vn 0.8086 0.3043 -0.5036
vn -0.0812 0.9577 -0.2762
vn 0.2050 0.8361 -0.5089
vn 0.3404 0.9395 -0.0373
vn 0.4571 0.8015 0.3855
vn 0.6606 0.4459 -0.6039
vn 0.8469 0.4531 0.2783
vn 0.9596 0.1951 -0.2029
vn 0.4017 0.9143 -0.0518
vn 0.8719 0.4779 -0.1070
vn 0.1548 0.9794 0.1299
vn -0.0773 0.8548 0.5132
vn -0.3386 0.9274 0.1590
vn 0.3445 0.8354 -0.4283
vn 0.6362 0.7257 -0.2619
vn 0.1964 0.6624 -0.7229
vn -0.5545 0.8260 0.1013
vn -0.4365 0.8592 -0.2671
vn -0.0995 0.9919 0.0796
vn 0.2799 0.9037 0.3240
vn -0.0201 0.7251 -0.6884
vn 0.6263 0.7771 -0.0618
vn 0.5202 0.6210 -0.5863
vn -0.0539 0.9981 0.0297
vn 0.4125 0.8278 -0.3802
vn -0.1529 0.9349 0.3202
vn -0.2806 0.9532 0.1129
vn -0.4409 0.8493 -0.2902
vn 0.3809 0.6773 -0.6294
vn 0.6243 0.6862 -0.3735
vn 0.3324 0.3885 -0.8594
vn -0.6245 0.6979 -0.3506
vn -0.4139 0.6192 -0.6673
vn -0.1951 0.9224 -0.3333
vn 0.1095 0.9940 0.0037
vn 0.1104 0.4204 -0.9006
vn 0.5564 0.8022 -0.2163
vn 0.6091 0.4552 -0.6494
vn -0.1383 0.9186 -0.3703
vn 0.4336 0.6992 -0.5684
vn -0.3071 0.9456 -0.1076
vn 0.0437 0.9532 -0.2993
vn 0.4727 0.8493 -0.2349
vn 0.3522 0.6773 0.6459
vn 0.0085 0.6862 0.7274
vn 0.5754 0.3885 0.7198
vn 0.6173 0.6979 -0.3631
vn 0.7849 0.6192 -0.0218
vn 0.3862 0.9224 -0.0008
vn -0.0583 0.9940 0.0928
vn 0.7227 0.4204 0.5486
vn -0.0932 0.8022 0.5897
vn 0.2545 0.4552 0.8532
vn 0.3896 0.9186 0.0668
vn 0.2729 0.6992 0.6608
vn 0.2476 0.9456 -0.2112
vn 0.4470 0.1091 -0.8878
vn 0.6078 0.4524 -0.6527
vn -0.2110 0.8199 -0.5322
vn -0.4626 0.6021 -0.6508
vn -0.2043 0.9608 -0.1876
vn 0.7629 0.4518 -0.4624
vn 0.5597 0.7576 -0.3358
vn 0.3828 0.5385 -0.7507
vn 0.0783 0.2656 -0.9609
vn 0.0217 0.9852 -0.1699
vn -0.3834 0.4741 -0.7926
vn -0.4753 0.8055 -0.3539
vn 0.3286 0.5790 -0.7462
vn -0.2621 0.7725 -0.5783
vn 0.4842 0.3161 -0.8159
vn -0.1521 0.1091 0.9823
vn -0.3774 0.4524 0.8080
vn 0.3645 0.8199 0.4414
vn 0.6404 0.6021 0.4768
vn 0.2521 0.9608 0.1156
vn -0.5836 0.4518 0.6747
vn -0.4292 0.7576 0.4918
vn -0.1332 0.5385 0.8320
vn 0.2212 0.2656 0.9384
vn 0.0316 0.9852 0.1683
vn 0.6087 0.4741 0.6362
vn 0.5611 0.8055 0.1905
vn -0.0830 0.5790 0.8111
vn 0.4274 0.7725 0.4696
vn -0.2096 0.3161 0.9253
s off
f 18/1/1 3/2/1 10/3/1
f 11/4/2 26/5/2 19/6/2
f 11/7/3 2/8/3 9/9/3
f 16/10/4 3/11/4 14/12/4
f 12/13/5 4/14/5 10/15/5
f 13/16/6 8/17/6 15/18/6
f 7/19/7 10/3/7 3/20/7
f 5/21/8 9/22/8 1/23/8
f 5/24/9 21/25/9 26/26/9
f 18/27/1 4/14/1 13/28/1
f 1/23/1 18/29/1 13/30/1
f 8/31/10 21/32/10 15/18/10
f 1/33/11 15/34/11 5/24/11
f 6/35/12 14/36/12 2/37/12
f 6/38/13 19/39/13 20/40/13
f 2/41/1 18/42/1 9/9/1
f 25/43/14 32/44/14 33/45/14
f 19/46/15 28/47/15 20/48/15
f 19/49/16 34/50/16 17/51/16
f 20/52/17 31/53/17 23/54/17
f 16/10/18 24/55/18 7/56/18
f 16/57/19 20/58/19 23/59/19
f 7/19/20 25/60/20 12/61/20
f 12/13/21 22/62/21 8/63/21
f 28/64/22 41/65/22 42/66/22
f 33/67/23 40/68/23 37/69/23
f 34/70/24 39/71/24 17/72/24
f 31/73/25 42/74/25 43/75/25
f 21/76/26 30/77/26 29/78/26
f 24/79/27 31/80/27 32/81/27
f 21/82/28 34/83/28 26/84/28
f 25/85/29 30/86/29 22/87/29
f 27/88/30 48/89/30 47/90/30
f 27/91/31 50/92/31 38/93/31
f 29/94/32 36/95/32 27/96/32
f 17/97/33 40/98/33 35/99/33
f 29/100/34 38/101/34 34/102/34
f 30/103/35 37/104/35 36/105/35
f 43/106/36 68/107/36 44/108/36
f 45/109/37 70/110/37 46/111/37
f 35/99/38 45/112/38 46/113/38
f 32/114/39 45/115/39 33/67/39
f 17/72/40 46/116/40 41/117/40
f 31/118/41 44/119/41 32/120/41
f 47/121/42 54/122/42 53/123/42
f 47/124/43 56/125/43 50/126/43
f 37/127/44 52/128/44 49/129/44
f 36/130/45 49/131/45 48/132/45
f 38/133/46 51/134/46 39/135/46
f 39/136/47 52/137/47 40/138/47
f 53/139/48 60/140/48 59/141/48
f 53/142/49 62/143/49 56/144/49
f 49/145/50 58/146/50 55/147/50
f 48/148/51 55/149/51 54/150/51
f 50/151/52 57/152/52 51/153/52
f 51/154/53 58/155/53 52/156/53
f 59/157/54 61/158/54 64/159/54
f 59/160/54 63/161/54 62/162/54
f 55/163/55 64/164/55 61/165/55
f 54/166/56 61/158/56 60/167/56
f 56/168/57 63/161/57 57/169/57
f 57/170/58 64/159/58 58/171/58
f 67/172/59 74/173/59 68/174/59
f 70/175/60 75/176/60 76/177/60
f 44/178/61 69/179/61 45/180/61
f 41/181/62 70/182/62 65/183/62
f 42/184/63 67/185/63 43/186/63
f 42/187/64 65/188/64 66/189/64
f 73/190/65 80/191/65 74/192/65
f 75/193/66 82/194/66 76/195/66
f 69/196/67 74/197/67 75/198/67
f 65/199/68 76/200/68 71/201/68
f 66/202/69 73/203/69 67/204/69
f 66/205/70 71/206/70 72/207/70
f 79/208/71 86/209/71 80/210/71
f 81/211/72 88/212/72 82/213/72
f 74/214/73 81/215/73 75/216/73
f 71/217/74 82/218/74 77/219/74
f 73/220/75 78/221/75 79/222/75
f 72/223/76 77/224/76 78/225/76
f 88/226/54 86/227/54 85/228/54
f 88/229/54 84/230/54 83/231/54
f 80/232/77 87/233/77 81/234/77
f 77/235/78 88/236/78 83/237/78
f 79/238/79 84/239/79 85/228/79
f 78/240/80 83/241/80 84/230/80
f 112/242/81 92/243/81 102/244/81
f 99/245/82 103/246/82 104/247/82
f 100/248/83 106/249/83 108/250/83
f 111/251/84 105/252/84 113/253/84
f 107/254/85 100/248/85 108/250/85
f 90/255/86 104/247/86 101/256/86
f 101/256/87 100/248/87 95/257/87
f 100/248/88 103/246/88 97/258/88
f 111/251/89 102/244/89 96/259/89
f 89/260/90 108/250/90 98/261/90
f 113/253/91 91/262/91 110/263/91
f 98/261/92 106/249/92 93/264/92
f 106/249/93 110/263/93 93/264/93
f 103/246/94 111/251/94 97/258/94
f 106/249/95 111/251/95 113/253/95
f 103/246/82 109/265/82 112/242/82
f 137/266/96 117/267/96 127/268/96
f 124/269/97 128/270/97 129/271/97
f 125/272/98 131/273/98 133/274/98
f 136/275/99 130/276/99 138/277/99
f 132/278/100 125/272/100 133/274/100
f 115/279/101 129/271/101 126/280/101
f 126/280/102 125/272/102 120/281/102
f 125/272/103 128/270/103 122/282/103
f 136/275/104 127/268/104 121/283/104
f 114/284/105 133/274/105 123/285/105
f 138/277/106 116/286/106 135/287/106
f 123/285/107 131/273/107 118/288/107
f 131/273/108 135/287/108 118/288/108
f 128/270/109 136/275/109 122/282/109
f 131/273/110 136/275/110 138/277/110
f 128/270/97 134/289/97 137/266/97
f 162/290/111 142/291/111 152/292/111
f 149/293/112 153/294/112 154/295/112
f 150/296/113 156/297/113 158/298/113
f 161/299/114 155/300/114 163/301/114
f 157/302/115 150/296/115 158/298/115
f 140/303/116 154/295/116 151/304/116
f 151/304/117 150/296/117 145/305/117
f 150/296/118 153/294/118 147/306/118
f 161/299/119 152/292/119 146/307/119
f 139/308/120 158/298/120 148/309/120
f 163/301/121 141/310/121 160/311/121
f 148/309/122 156/297/122 143/312/122
f 156/297/123 160/311/123 143/312/123
f 153/294/124 161/299/124 147/306/124
f 156/297/125 161/299/125 163/301/125
f 153/294/112 159/313/112 162/290/112
f 187/314/126 167/315/126 177/316/126
f 174/317/127 178/318/127 179/319/127
f 175/320/128 181/321/128 183/322/128
f 186/323/129 180/324/129 188/325/129
f 182/326/130 175/320/130 183/322/130
f 165/327/131 179/319/131 176/328/131
f 176/328/132 175/320/132 170/329/132
f 175/320/133 178/318/133 172/330/133
f 186/323/134 177/316/134 171/331/134
f 164/332/135 183/322/135 173/333/135
f 188/325/136 166/334/136 185/335/136
f 173/333/137 181/321/137 168/336/137
f 181/321/138 185/335/138 168/336/138
f 178/318/139 186/323/139 172/330/139
f 181/321/140 186/323/140 188/325/140
f 178/318/127 184/337/127 187/314/127
f 212/338/141 192/339/141 202/340/141
f 199/341/142 203/342/142 204/343/142
f 208/344/143 197/345/143 206/346/143
f 211/347/144 205/348/144 213/349/144
f 207/350/145 200/351/145 208/344/145
f 190/352/146 204/343/146 201/353/146
f 201/353/147 200/351/147 195/354/147
f 204/343/148 197/345/148 200/351/148
f 211/347/149 202/340/149 196/355/149
f 189/356/150 208/344/150 198/357/150
f 213/349/151 191/358/151 210/359/151
f 198/357/152 206/346/152 193/360/152
f 206/346/153 210/359/153 193/360/153
f 203/342/154 211/347/154 197/345/154
f 206/346/155 211/347/155 213/349/155
f 203/342/142 209/361/142 212/338/142
f 237/362/156 217/363/156 227/364/156
f 224/365/157 228/366/157 229/367/157
f 233/368/158 222/369/158 231/370/158
f 236/371/159 230/372/159 238/373/159
f 232/374/160 225/375/160 233/368/160
f 215/376/161 229/367/161 226/377/161
f 226/377/162 225/375/162 220/378/162
f 229/367/163 222/369/163 225/375/163
f 236/371/164 227/364/164 221/379/164
f 214/380/165 233/368/165 223/381/165
f 238/373/166 216/382/166 235/383/166
f 223/381/167 231/370/167 218/384/167
f 231/370/168 235/383/168 218/384/168
f 228/366/169 236/371/169 222/369/169
f 231/370/170 236/371/170 238/373/170
f 228/366/157 234/385/157 237/362/157
f 262/386/171 242/387/171 252/388/171
f 249/389/172 253/390/172 254/391/172
f 258/392/173 247/393/173 256/394/173
f 261/395/174 255/396/174 263/397/174
f 257/398/175 250/399/175 258/392/175
f 240/400/176 254/391/176 251/401/176
f 251/401/177 250/399/177 245/402/177
f 254/391/178 247/393/178 250/399/178
f 261/395/179 252/388/179 246/403/179
f 239/404/180 258/392/180 248/405/180
f 263/397/181 241/406/181 260/407/181
f 248/405/182 256/394/182 243/408/182
f 256/394/183 260/407/183 243/408/183
f 253/390/184 261/395/184 247/393/184
f 256/394/185 261/395/185 263/397/185
f 253/390/172 259/409/172 262/386/172
f 287/410/186 267/411/186 277/412/186
f 274/413/187 278/414/187 279/415/187
f 283/416/188 272/417/188 281/418/188
f 286/419/189 280/420/189 288/421/189
f 282/422/190 275/423/190 283/416/190
f 265/424/191 279/415/191 276/425/191
f 276/425/192 275/423/192 270/426/192
f 279/415/193 272/417/193 275/423/193
f 286/419/194 277/412/194 271/427/194
f 264/428/195 283/416/195 273/429/195
f 288/421/196 266/430/196 285/431/196
f 273/429/197 281/418/197 268/432/197
f 281/418/198 285/431/198 268/432/198
f 278/414/199 286/419/199 272/417/199
f 281/418/200 286/419/200 288/421/200
f 278/414/187 284/433/187 287/410/187
f 312/434/201 292/435/201 302/436/201
f 299/437/202 303/438/202 304/439/202
f 308/440/203 297/441/203 306/442/203
f 311/443/204 305/444/204 313/445/204
f 307/446/205 300/447/205 308/440/205
f 290/448/206 304/439/206 301/449/206
f 301/449/207 300/447/207 295/450/207
f 304/439/208 297/441/208 300/447/208
f 311/443/209 302/436/209 296/451/209
f 289/452/210 308/440/210 298/453/210
f 313/445/211 291/454/211 310/455/211
f 298/453/212 306/442/212 293/456/212
f 306/442/213 310/455/213 293/456/213
f 303/438/214 311/443/214 297/441/214
f 306/442/215 311/443/215 313/445/215
f 303/438/202 309/457/202 312/434/202
f 337/458/216 317/459/216 327/460/216
f 324/461/217 328/462/217 329/463/217
f 333/464/218 322/465/218 331/466/218
f 336/467/219 330/468/219 338/469/219
f 332/470/220 325/471/220 333/464/220
f 315/472/221 329/463/221 326/473/221
f 326/473/222 325/471/222 320/474/222
f 329/463/223 322/465/223 325/471/223
f 336/467/224 327/460/224 321/475/224
f 314/476/225 333/464/225 323/477/225
f 338/469/226 316/478/226 335/479/226
f 323/477/227 331/466/227 318/480/227
f 331/466/228 335/479/228 318/480/228
f 328/462/229 336/467/229 322/465/229
f 331/466/230 336/467/230 338/469/230
f 328/462/217 334/481/217 337/458/217
f 362/482/231 342/483/231 352/484/231
f 349/485/232 353/486/232 354/487/232
f 358/488/233 347/489/233 356/490/233
f 361/491/234 355/492/234 363/493/234
f 357/494/235 350/495/235 358/488/235
f 340/496/236 354/487/236 351/497/236
f 351/497/237 350/495/237 345/498/237
f 354/487/238 347/489/238 350/495/238
f 361/491/239 352/484/239 346/499/239
f 339/500/240 358/488/240 348/501/240
f 363/493/241 341/502/241 360/503/241
f 348/501/242 356/490/242 343/504/242
f 356/490/243 360/503/243 343/504/243
f 353/486/244 361/491/244 347/489/244
f 356/490/245 361/491/245 363/493/245
f 353/486/232 359/505/232 362/482/232
f 387/506/246 367/507/246 377/508/246
f 374/509/247 378/510/247 379/511/247
f 383/512/248 372/513/248 381/514/248
f 386/515/249 380/516/249 388/517/249
f 382/518/250 375/519/250 383/512/250
f 365/520/251 379/511/251 376/521/251
f 376/521/252 375/519/252 370/522/252
f 379/511/253 372/513/253 375/519/253
f 386/515/254 377/508/254 371/523/254
f 364/524/255 383/512/255 373/525/255
f 388/517/256 366/526/256 385/527/256
f 373/525/257 381/514/257 368/528/257
f 381/514/258 385/527/258 368/528/258
f 378/510/259 386/515/259 372/513/259
f 381/514/260 386/515/260 388/517/260
f 378/510/247 384/529/247 387/506/247
f 412/530/261 392/531/261 402/532/261
f 399/533/262 403/534/262 404/535/262
f 408/536/263 397/537/263 406/538/263
f 411/539/264 405/540/264 413/541/264
f 407/542/265 400/543/265 408/536/265
f 390/544/266 404/535/266 401/545/266
f 401/545/267 400/543/267 395/546/267
f 404/535/268 397/537/268 400/543/268
f 411/539/269 402/532/269 396/547/269
f 389/548/270 408/536/270 398/549/270
f 413/541/271 391/550/271 410/551/271
f 398/549/272 406/538/272 393/552/272
f 406/538/273 410/551/273 393/552/273
f 403/534/274 411/539/274 397/537/274
f 406/538/275 411/539/275 413/541/275
f 403/534/262 409/553/262 412/530/262
f 437/554/276 417/555/276 427/556/276
f 424/557/277 428/558/277 429/559/277
f 433/560/278 422/561/278 431/562/278
f 436/563/279 430/564/279 438/565/279
f 432/566/280 425/567/280 433/560/280
f 415/568/281 429/559/281 426/569/281
f 426/569/282 425/567/282 420/570/282
f 429/559/283 422/561/283 425/567/283
f 436/563/284 427/556/284 421/571/284
f 414/572/285 433/560/285 423/573/285
f 438/565/286 416/574/286 435/575/286
f 423/573/287 431/562/287 418/576/287
f 431/562/288 435/575/288 418/576/288
f 428/558/289 436/563/289 422/561/289
f 431/562/290 436/563/290 438/565/290
f 428/558/277 434/577/277 437/554/277
f 462/578/291 442/579/291 452/580/291
f 449/581/292 453/582/292 454/583/292
f 458/584/293 447/585/293 456/586/293
f 461/587/294 455/588/294 463/589/294
f 457/590/295 450/591/295 458/584/295
f 440/592/296 454/583/296 451/593/296
f 451/593/297 450/591/297 445/594/297
f 454/583/298 447/585/298 450/591/298
f 461/587/299 452/580/299 446/595/299
f 439/596/300 458/584/300 448/597/300
f 463/589/301 441/598/301 460/599/301
f 448/597/302 456/586/302 443/600/302
f 456/586/303 460/599/303 443/600/303
f 453/582/304 461/587/304 447/585/304
f 456/586/305 461/587/305 463/589/305
f 453/582/292 459/601/292 462/578/292
f 18/1/1 14/602/1 3/2/1
f 11/4/2 5/21/2 26/5/2
f 11/7/306 6/603/306 2/8/306
f 16/10/307 7/604/307 3/11/307
f 12/13/308 8/605/308 4/14/308
f 13/16/309 4/606/309 8/17/309
f 7/19/310 12/607/310 10/3/310
f 5/21/311 11/608/311 9/22/311
f 5/24/9 15/609/9 21/25/9
f 18/27/1 10/610/1 4/14/1
f 1/23/1 9/611/1 18/29/1
f 8/31/10 22/612/10 21/32/10
f 1/33/312 13/613/312 15/34/312
f 6/35/313 16/614/313 14/36/313
f 6/38/13 11/7/13 19/39/13
f 2/41/1 14/615/1 18/42/1
f 25/43/314 24/616/314 32/44/314
f 19/46/315 17/617/315 28/47/315
f 19/49/316 26/618/316 34/50/316
f 20/52/17 28/619/17 31/53/17
f 16/10/18 23/620/18 24/55/18
f 16/57/19 6/35/19 20/58/19
f 7/19/20 24/621/20 25/60/20
f 12/13/21 25/622/21 22/62/21
f 28/64/317 17/97/317 41/65/317
f 33/67/318 35/623/318 40/68/318
f 34/70/319 38/624/319 39/71/319
f 31/73/320 28/625/320 42/74/320
f 21/76/26 22/626/26 30/77/26
f 24/79/27 23/627/27 31/80/27
f 21/82/28 29/628/28 34/83/28
f 25/85/321 33/629/321 30/86/321
f 27/88/30 36/630/30 48/89/30
f 27/91/31 47/631/31 50/92/31
f 29/94/322 30/632/322 36/95/322
f 17/97/323 39/633/323 40/98/323
f 29/100/324 27/634/324 38/101/324
f 30/103/325 33/635/325 37/104/325
f 43/106/326 67/636/326 68/107/326
f 45/109/327 69/637/327 70/110/327
f 35/99/328 33/635/328 45/112/328
f 32/114/329 44/638/329 45/115/329
f 17/72/330 35/623/330 46/116/330
f 31/118/331 43/639/331 44/119/331
f 47/121/42 48/640/42 54/122/42
f 47/124/43 53/641/43 56/125/43
f 37/127/44 40/642/44 52/128/44
f 36/130/45 37/643/45 49/131/45
f 38/133/46 50/644/46 51/134/46
f 39/136/47 51/645/47 52/137/47
f 53/139/48 54/646/48 60/140/48
f 53/142/49 59/647/49 62/143/49
f 49/145/50 52/648/50 58/146/50
f 48/148/51 49/649/51 55/149/51
f 50/151/52 56/650/52 57/152/52
f 51/154/53 57/651/53 58/155/53
f 59/157/54 60/652/54 61/158/54
f 59/160/54 64/164/54 63/161/54
f 55/163/55 58/653/55 64/164/55
f 54/166/332 55/654/332 61/158/332
f 56/168/57 62/655/57 63/161/57
f 57/170/58 63/656/58 64/159/58
f 67/172/333 73/657/333 74/173/333
f 70/175/334 69/658/334 75/176/334
f 44/178/335 68/659/335 69/179/335
f 41/181/336 46/660/336 70/182/336
f 42/184/63 66/661/63 67/185/63
f 42/187/337 41/662/337 65/188/337
f 73/190/65 79/663/65 80/191/65
f 75/193/66 81/664/66 82/194/66
f 69/196/338 68/665/338 74/197/338
f 65/199/339 70/666/339 76/200/339
f 66/202/69 72/667/69 73/203/69
f 66/205/340 65/668/340 71/206/340
f 79/208/71 85/669/71 86/209/71
f 81/211/72 87/670/72 88/212/72
f 74/214/73 80/671/73 81/215/73
f 71/217/74 76/672/74 82/218/74
f 73/220/75 72/673/75 78/221/75
f 72/223/76 71/674/76 77/224/76
f 88/226/54 87/675/54 86/227/54
f 88/229/54 85/669/54 84/230/54
f 80/232/77 86/227/77 87/233/77
f 77/235/78 82/676/78 88/236/78
f 79/238/341 78/677/341 84/239/341
f 78/240/80 77/678/80 83/241/80
f 112/242/342 109/265/342 92/243/342
f 99/245/343 94/679/343 103/246/343
f 100/248/344 97/258/344 106/249/344
f 111/251/345 96/259/345 105/252/345
f 107/254/346 95/257/346 100/248/346
f 90/255/347 99/245/347 104/247/347
f 101/256/348 104/247/348 100/248/348
f 100/248/349 104/247/349 103/246/349
f 111/251/350 112/242/350 102/244/350
f 89/260/351 107/254/351 108/250/351
f 113/253/352 105/252/352 91/262/352
f 98/261/353 108/250/353 106/249/353
f 106/249/353 113/253/353 110/263/353
f 103/246/354 112/242/354 111/251/354
f 106/249/355 97/258/355 111/251/355
f 103/246/356 94/679/356 109/265/356
f 137/266/357 134/289/357 117/267/357
f 124/269/358 119/680/358 128/270/358
f 125/272/359 122/282/359 131/273/359
f 136/275/360 121/283/360 130/276/360
f 132/278/361 120/281/361 125/272/361
f 115/279/362 124/269/362 129/271/362
f 126/280/363 129/271/363 125/272/363
f 125/272/364 129/271/364 128/270/364
f 136/275/365 137/266/365 127/268/365
f 114/284/366 132/278/366 133/274/366
f 138/277/367 130/276/367 116/286/367
f 123/285/368 133/274/368 131/273/368
f 131/273/368 138/277/368 135/287/368
f 128/270/369 137/266/369 136/275/369
f 131/273/370 122/282/370 136/275/370
f 128/270/371 119/680/371 134/289/371
f 162/290/372 159/313/372 142/291/372
f 149/293/373 144/681/373 153/294/373
f 150/296/374 147/306/374 156/297/374
f 161/299/375 146/307/375 155/300/375
f 157/302/376 145/305/376 150/296/376
f 140/303/377 149/293/377 154/295/377
f 151/304/378 154/295/378 150/296/378
f 150/296/379 154/295/379 153/294/379
f 161/299/380 162/290/380 152/292/380
f 139/308/381 157/302/381 158/298/381
f 163/301/382 155/300/382 141/310/382
f 148/309/383 158/298/383 156/297/383
f 156/297/383 163/301/383 160/311/383
f 153/294/384 162/290/384 161/299/384
f 156/297/385 147/306/385 161/299/385
f 153/294/386 144/681/386 159/313/386
f 187/314/387 184/337/387 167/315/387
f 174/317/388 169/682/388 178/318/388
f 175/320/389 172/330/389 181/321/389
f 186/323/390 171/331/390 180/324/390
f 182/326/391 170/329/391 175/320/391
f 165/327/392 174/317/392 179/319/392
f 176/328/393 179/319/393 175/320/393
f 175/320/394 179/319/394 178/318/394
f 186/323/395 187/314/395 177/316/395
f 164/332/396 182/326/396 183/322/396
f 188/325/397 180/324/397 166/334/397
f 173/333/398 183/322/398 181/321/398
f 181/321/398 188/325/398 185/335/398
f 178/318/399 187/314/399 186/323/399
f 181/321/400 172/330/400 186/323/400
f 178/318/401 169/682/401 184/337/401
f 212/338/402 209/361/402 192/339/402
f 199/341/403 194/683/403 203/342/403
f 208/344/404 200/351/404 197/345/404
f 211/347/405 196/355/405 205/348/405
f 207/350/406 195/354/406 200/351/406
f 190/352/407 199/341/407 204/343/407
f 201/353/408 204/343/408 200/351/408
f 204/343/409 203/342/409 197/345/409
f 211/347/410 212/338/410 202/340/410
f 189/356/411 207/350/411 208/344/411
f 213/349/412 205/348/412 191/358/412
f 198/357/413 208/344/413 206/346/413
f 206/346/413 213/349/413 210/359/413
f 203/342/414 212/338/414 211/347/414
f 206/346/415 197/345/415 211/347/415
f 203/342/416 194/683/416 209/361/416
f 237/362/417 234/385/417 217/363/417
f 224/365/418 219/684/418 228/366/418
f 233/368/419 225/375/419 222/369/419
f 236/371/420 221/379/420 230/372/420
f 232/374/421 220/378/421 225/375/421
f 215/376/422 224/365/422 229/367/422
f 226/377/423 229/367/423 225/375/423
f 229/367/424 228/366/424 222/369/424
f 236/371/425 237/362/425 227/364/425
f 214/380/426 232/374/426 233/368/426
f 238/373/427 230/372/427 216/382/427
f 223/381/428 233/368/428 231/370/428
f 231/370/428 238/373/428 235/383/428
f 228/366/429 237/362/429 236/371/429
f 231/370/430 222/369/430 236/371/430
f 228/366/431 219/684/431 234/385/431
f 262/386/432 259/409/432 242/387/432
f 249/389/433 244/685/433 253/390/433
f 258/392/434 250/399/434 247/393/434
f 261/395/435 246/403/435 255/396/435
f 257/398/436 245/402/436 250/399/436
f 240/400/437 249/389/437 254/391/437
f 251/401/438 254/391/438 250/399/438
f 254/391/439 253/390/439 247/393/439
f 261/395/440 262/386/440 252/388/440
f 239/404/441 257/398/441 258/392/441
f 263/397/442 255/396/442 241/406/442
f 248/405/443 258/392/443 256/394/443
f 256/394/443 263/397/443 260/407/443
f 253/390/444 262/386/444 261/395/444
f 256/394/445 247/393/445 261/395/445
f 253/390/446 244/685/446 259/409/446
f 287/410/447 284/433/447 267/411/447
f 274/413/448 269/686/448 278/414/448
f 283/416/449 275/423/449 272/417/449
f 286/419/450 271/427/450 280/420/450
f 282/422/451 270/426/451 275/423/451
f 265/424/452 274/413/452 279/415/452
f 276/425/453 279/415/453 275/423/453
f 279/415/454 278/414/454 272/417/454
f 286/419/455 287/410/455 277/412/455
f 264/428/456 282/422/456 283/416/456
f 288/421/457 280/420/457 266/430/457
f 273/429/458 283/416/458 281/418/458
f 281/418/458 288/421/458 285/431/458
f 278/414/459 287/410/459 286/419/459
f 281/418/460 272/417/460 286/419/460
f 278/414/461 269/686/461 284/433/461
f 312/434/462 309/457/462 292/435/462
f 299/437/463 294/687/463 303/438/463
f 308/440/464 300/447/464 297/441/464
f 311/443/465 296/451/465 305/444/465
f 307/446/466 295/450/466 300/447/466
f 290/448/467 299/437/467 304/439/467
f 301/449/468 304/439/468 300/447/468
f 304/439/469 303/438/469 297/441/469
f 311/443/470 312/434/470 302/436/470
f 289/452/471 307/446/471 308/440/471
f 313/445/472 305/444/472 291/454/472
f 298/453/473 308/440/473 306/442/473
f 306/442/473 313/445/473 310/455/473
f 303/438/474 312/434/474 311/443/474
f 306/442/475 297/441/475 311/443/475
f 303/438/476 294/687/476 309/457/476
f 337/458/477 334/481/477 317/459/477
f 324/461/478 319/688/478 328/462/478
f 333/464/479 325/471/479 322/465/479
f 336/467/480 321/475/480 330/468/480
f 332/470/481 320/474/481 325/471/481
f 315/472/482 324/461/482 329/463/482
f 326/473/483 329/463/483 325/471/483
f 329/463/484 328/462/484 322/465/484
f 336/467/485 337/458/485 327/460/485
f 314/476/486 332/470/486 333/464/486
f 338/469/487 330/468/487 316/478/487
f 323/477/488 333/464/488 331/466/488
f 331/466/488 338/469/488 335/479/488
f 328/462/489 337/458/489 336/467/489
f 331/466/490 322/465/490 336/467/490
f 328/462/491 319/688/491 334/481/491
f 362/482/492 359/505/492 342/483/492
f 349/485/493 344/689/493 353/486/493
f 358/488/494 350/495/494 347/489/494
f 361/491/495 346/499/495 355/492/495
f 357/494/496 345/498/496 350/495/496
f 340/496/497 349/485/497 354/487/497
f 351/497/498 354/487/498 350/495/498
f 354/487/499 353/486/499 347/489/499
f 361/491/500 362/482/500 352/484/500
f 339/500/501 357/494/501 358/488/501
f 363/493/502 355/492/502 341/502/502
f 348/501/503 358/488/503 356/490/503
f 356/490/503 363/493/503 360/503/503
f 353/486/504 362/482/504 361/491/504
f 356/490/505 347/489/505 361/491/505
f 353/486/506 344/689/506 359/505/506
f 387/506/507 384/529/507 367/507/507
f 374/509/508 369/690/508 378/510/508
f 383/512/509 375/519/509 372/513/509
f 386/515/510 371/523/510 380/516/510
f 382/518/511 370/522/511 375/519/511
f 365/520/512 374/509/512 379/511/512
f 376/521/513 379/511/513 375/519/513
f 379/511/514 378/510/514 372/513/514
f 386/515/515 387/506/515 377/508/515
f 364/524/516 382/518/516 383/512/516
f 388/517/517 380/516/517 366/526/517
f 373/525/518 383/512/518 381/514/518
f 381/514/518 388/517/518 385/527/518
f 378/510/519 387/506/519 386/515/519
f 381/514/520 372/513/520 386/515/520
f 378/510/521 369/690/521 384/529/521
f 412/530/522 409/553/522 392/531/522
f 399/533/523 394/691/523 403/534/523
f 408/536/524 400/543/524 397/537/524
f 411/539/525 396/547/525 405/540/525
f 407/542/526 395/546/526 400/543/526
f 390/544/527 399/533/527 404/535/527
f 401/545/528 404/535/528 400/543/528
f 404/535/529 403/534/529 397/537/529
f 411/539/530 412/530/530 402/532/530
f 389/548/531 407/542/531 408/536/531
f 413/541/532 405/540/532 391/550/532
f 398/549/533 408/536/533 406/538/533
f 406/538/533 413/541/533 410/551/533
f 403/534/534 412/530/534 411/539/534
f 406/538/535 397/537/535 411/539/535
f 403/534/536 394/691/536 409/553/536
f 437/554/537 434/577/537 417/555/537
f 424/557/538 419/692/538 428/558/538
f 433/560/539 425/567/539 422/561/539
f 436/563/540 421/571/540 430/564/540
f 432/566/541 420/570/541 425/567/541
f 415/568/542 424/557/542 429/559/542
f 426/569/543 429/559/543 425/567/543
f 429/559/544 428/558/544 422/561/544
f 436/563/545 437/554/545 427/556/545
f 414/572/546 432/566/546 433/560/546
f 438/565/547 430/564/547 416/574/547
f 423/573/548 433/560/548 431/562/548
f 431/562/548 438/565/548 435/575/548
f 428/558/549 437/554/549 436/563/549
f 431/562/550 422/561/550 436/563/550
f 428/558/551 419/692/551 434/577/551
f 462/578/552 459/601/552 442/579/552
f 449/581/553 444/693/553 453/582/553
f 458/584/554 450/591/554 447/585/554
f 461/587/555 446/595/555 455/588/555
f 457/590/556 445/594/556 450/591/556
f 440/592/557 449/581/557 454/583/557
f 451/593/558 454/583/558 450/591/558
f 454/583/559 453/582/559 447/585/559
f 461/587/560 462/578/560 452/580/560
f 439/596/561 457/590/561 458/584/561
f 463/589/562 455/588/562 441/598/562
f 448/597/563 458/584/563 456/586/563
f 456/586/563 463/589/563 460/599/563
f 453/582/564 462/578/564 461/587/564
f 456/586/565 447/585/565 461/587/565
f 453/582/566 444/693/566 459/601/566
