# Blender v2.79 (sub 0) OBJ File: ''
# www.blender.org
o PineTree_Untitled.001
v -0.036462 77.967117 -0.245443
v -0.033360 77.967888 -0.184361
v 0.021093 77.968246 -0.156506
v 0.072445 77.967827 -0.189733
v 0.069343 77.967056 -0.250815
v 0.014889 77.966705 -0.278670
v -0.366223 22.621899 -0.067971
v -0.344364 22.635326 0.362852
v 0.039851 22.641327 0.559346
v 0.402206 22.633902 0.325016
v 0.380347 22.620478 -0.105807
v -0.003868 22.614477 -0.302301
v -0.527204 9.986495 0.481813
v -0.496651 10.001495 1.084085
v 0.040370 10.009156 1.358750
v 0.546838 10.001818 1.031142
v 0.516285 9.986813 0.428869
v -0.020736 9.979152 0.154205
v -0.628496 -2.213207 0.406240
v -0.589587 -2.213051 1.174104
v 0.094852 -2.210463 1.524339
v 0.740382 -2.208031 1.106711
v 0.701473 -2.208177 0.338847
v 0.017034 -2.210756 -0.011388
v 1.011818 74.411140 0.238065
v -1.158573 72.867516 3.724370
v -3.266944 72.867508 2.411809
v -1.096554 74.411140 -1.074496
v -2.431000 73.830345 3.358537
v -0.260610 75.373970 -0.127768
v -1.528621 74.797607 -0.365044
v 0.572937 73.253990 -3.893270
v 2.706661 73.253990 -2.622336
v 0.605103 74.797607 0.905890
v 1.852298 74.216827 -3.552477
v -0.249259 75.760445 -0.024251
v -0.522538 77.855820 0.545900
v -1.824474 75.855690 -0.903739
v -0.484790 75.839775 -1.365330
v 0.380389 77.714874 -0.045628
v -1.578816 76.620888 -1.627386
v -0.281710 78.275352 -0.125122
v 0.095840 76.614594 -0.630720
v -0.941507 77.114349 -0.795824
v -1.360503 76.715027 -0.206345
v 0.098729 75.377861 1.180676
v -4.004804 72.886803 1.019668
v -3.907434 72.886803 -1.461978
v 0.196100 75.377861 -1.300970
v -4.316507 74.440613 -0.267090
v -0.212973 76.931656 -0.106082
v -1.748126 74.197624 -1.377254
v -2.157198 75.751404 -0.182367
v -1.845497 74.197624 1.104392
v -0.811665 76.887695 -0.866452
v 1.752324 74.154510 -1.416500
v 2.080005 73.972145 0.313824
v -0.422811 76.896606 0.839661
v 2.374925 75.324127 -0.650539
v -0.245242 77.828064 -0.058046
v 0.330634 75.439796 -1.101834
v 0.794709 76.256187 -0.268774
v 0.682493 75.247353 0.622263
v 0.372169 77.252594 -0.510784
v 0.235394 74.262527 2.011264
v -1.518106 74.612213 1.470008
v -1.049924 77.314171 -0.582642
v -0.432222 75.311813 2.567255
v -0.315329 77.852898 -0.001814
v -1.411524 75.795212 0.255023
v -0.363344 76.147514 1.211553
v 0.450868 75.521553 0.922904
v 2.731562 57.494751 0.380645
v -1.377864 54.390331 7.028890
v -5.349362 54.068245 4.423620
v -1.239937 57.172668 -2.224623
v -4.102652 56.721966 6.433405
v 0.006775 59.826385 -0.214838
v 1.756922 61.494682 -0.723479
v 1.888223 59.312225 5.081302
v -1.622266 59.312225 5.160707
v -1.753567 61.494682 -0.644074
v 0.099642 60.673542 5.633579
v -0.031659 62.855995 -0.171202
v -2.617657 57.997650 -0.500236
v 2.150184 54.495609 -8.504786
v 6.375701 54.495609 -5.987893
v 1.607860 57.997650 2.016656
v 4.788295 56.945789 -8.005386
v 0.020454 60.447830 -0.000838
v -0.756457 63.918633 1.769073
v -5.854142 60.474323 -2.033988
v -3.491464 60.862106 -5.195531
v 1.635931 63.560974 -1.359185
v -5.046719 62.110485 -3.960485
v -0.161613 65.615982 -0.299084
v -0.674026 62.201313 -3.089848
v -2.229255 63.632553 -1.858130
v -2.932165 62.102879 0.135514
v 0.690661 59.115936 2.284929
v -7.142748 56.169250 1.977574
v -6.956872 56.169250 -2.759744
v 0.876536 59.115936 -2.452389
v -7.737768 58.007256 -0.478772
v 0.095640 60.953930 -0.171417
v 1.500089 59.663643 -2.199613
v 6.297076 56.636124 4.270597
v 2.384162 56.636124 7.171615
v -2.412824 59.663643 0.701404
v 4.713309 58.524544 6.328419
v -0.083678 61.552063 -0.141792
v -1.013147 62.113289 -1.912753
v 5.366804 59.663853 -3.240142
v 6.169553 59.663853 0.618185
v -0.210398 62.113289 1.945574
v 6.340693 61.191704 -1.378599
v -0.039257 63.641140 -0.051211
v 0.020580 65.267815 -2.259989
v 6.396155 63.041599 -0.568379
v 5.306244 62.791740 3.210609
v -1.069331 65.017952 1.519000
v 6.312609 64.456535 1.608578
v -0.062966 66.682732 -0.083031
v 0.210464 70.549072 1.865257
v -6.472317 69.702805 1.671290
v -6.341562 69.543373 -2.137973
v 0.341218 70.389641 -1.944006
v -6.601487 71.187134 -0.354357
v 0.081293 72.033409 -0.160390
v -2.205412 64.442009 0.088414
v -0.654364 61.806408 -6.749718
v 3.481052 61.806408 -5.811709
v 1.930004 64.442009 1.026423
v 1.602935 63.450375 -6.871339
v 0.051887 66.085976 -0.033207
v -2.255609 69.600029 -0.592863
v 0.296454 67.587372 -7.472715
v 4.270425 66.754257 -5.856077
v 1.678624 69.276443 0.919117
v 2.596488 69.211716 -6.888463
v 0.039169 71.184097 -0.029780
v 2.853308 68.464005 -2.296417
v 1.206966 69.893707 -3.301986
v -1.073260 68.227165 -3.819658
v -1.615362 55.374905 -0.430566
v 1.414761 52.145657 -4.656772
v 4.004599 52.632484 -3.171880
v 0.974477 55.861732 1.054326
v 2.980832 53.738094 -4.750709
v -0.049290 56.967342 -0.524502
v 1.466222 55.947182 -0.014208
v -2.076809 53.123760 3.031548
v -4.020988 53.662998 1.165464
v -0.476375 56.543549 -1.887439
v -3.453302 54.592171 2.759333
v 0.092170 57.449402 -0.292912
v -0.167600 54.130028 1.437686
v -1.500030 55.705151 1.090382
v -2.085255 54.976635 -0.493905
v 1.014306 63.670448 -2.461425
v 7.379288 59.523090 2.455597
v 4.845964 61.227295 7.368780
v -2.040227 63.221943 1.419142
v 6.970479 64.181686 5.853714
v 0.233192 65.802246 0.123060
v 0.860886 61.638134 3.691067
v 3.039871 64.150841 2.537783
v 3.739100 61.481167 -0.330606
v -1.280394 64.337128 0.636302
v -3.988302 63.036160 -7.921598
v -0.143728 65.864494 -9.318845
v 2.869458 66.374161 -1.157945
v -2.887423 66.153412 -8.298252
v -0.378483 67.599815 0.041099
v 1.568269 65.997612 -4.922652
v -1.244260 66.477844 -3.795929
v -2.298743 63.431973 -3.232589
v 1.461627 71.576157 -0.882580
v 3.152683 69.692535 6.658182
v -0.606530 71.608696 7.762311
v -2.513957 72.732994 0.447614
v 1.831760 72.237221 7.201125
v 0.277147 74.239288 -0.114229
v -1.695802 72.083817 3.797438
v 0.791435 72.896652 3.172303
v 2.081842 70.431389 2.470804
v -1.051320 72.467850 1.430422
v -6.028538 72.358398 -1.942539
v -4.205661 70.962616 -4.309167
v 0.399450 70.584343 -0.840501
v -4.592808 72.727997 -3.576174
v 0.283569 72.966255 -0.347902
v -1.750425 70.662422 -2.392524
v -2.041717 72.544342 -1.678246
v -3.356294 72.198486 0.012535
v -1.690812 72.944466 -0.374511
v -0.252689 72.518555 -6.341012
v 2.902739 72.765068 -5.451644
v 1.434615 72.348091 0.453429
v 1.496657 74.330467 -6.122091
v 0.118684 74.309425 -0.139113
v 2.095278 72.084381 -2.133429
v 0.700559 73.319054 -2.596876
v -1.075088 72.188087 -2.908105
v -1.579889 61.028431 0.662049
v -3.516120 59.793793 -5.045438
v -0.364395 59.869064 -5.977877
v 1.503702 60.265083 -0.185423
v -1.893356 61.461609 -6.033449
v 0.097230 62.250687 -0.279301
v 0.694802 59.648369 -2.668002
v -0.719164 60.936584 -2.507901
v -2.404771 59.934196 -1.681573
v 0.845923 63.458374 2.059523
v -6.444818 58.921932 2.866166
v -7.895504 60.786011 -1.962000
v 0.391363 62.967793 -2.421409
v -8.329428 64.017563 0.377883
v -0.278982 65.790154 -0.130854
v -2.951206 61.235394 -2.073942
v -3.650065 63.983818 0.063107
v -2.291579 61.063702 2.387859
v 2.399458 67.938583 0.331830
v 0.281645 67.008110 5.901566
v -3.244909 63.440086 3.661431
v -0.794791 66.989494 -1.772238
v -2.602952 65.361809 4.767019
v 0.008749 68.860352 -0.197231
v 1.188113 66.706329 3.227234
v -1.172060 68.066666 2.650409
v -2.036835 65.397896 1.146346
v 1.975699 70.321663 -0.781636
v 2.108441 67.682648 5.701677
v -1.873913 66.988312 5.715179
v -1.963820 70.323921 -0.691242
v 0.023223 68.154541 6.158539
v -0.025121 71.892166 -0.142898
v 2.006649 69.094170 2.031834
v -0.105021 70.160515 2.327568
v -1.937851 69.075119 2.106664
v -2.005735 67.871986 -0.572635
v 1.329054 65.422546 -6.171288
v 4.714885 65.422546 -4.154548
v 1.380095 67.871986 1.444106
v 3.359167 66.950394 -5.630511
v 0.024378 69.399841 -0.031859
v 0.576572 68.380180 1.880140
v -5.934989 65.930733 1.624650
v -5.780479 65.930733 -2.313271
v 0.731082 68.380180 -2.057780
v -6.429604 67.458580 -0.417201
v 0.081958 69.908028 -0.161710
v 1.216445 68.977798 -1.801369
v 5.097502 66.528351 3.433429
v 1.931714 66.528351 5.780530
v -1.949343 68.977798 0.545732
v 3.816136 68.056198 5.098332
v -0.064921 70.505638 -0.136465
v -0.621151 71.683769 -1.967843
v 6.213574 70.814987 -3.312621
v 7.017261 70.829010 0.553530
v 0.183255 71.687004 1.898981
v 6.941210 72.183739 -1.292916
v -0.048719 73.294838 -0.055182
v 2.634082 71.171745 -2.647749
v 3.196598 72.217743 -0.731302
v 3.539098 70.464966 1.298585
v -0.939150 54.482674 1.710880
v -6.231652 51.889404 -2.715005
v -3.555063 51.889404 -5.915689
v 1.737439 54.482674 -1.489804
v -5.325531 53.506962 -4.746331
v -0.033029 56.100235 -0.320447
v 0.658186 55.131947 -2.374484
v 6.036523 52.538677 1.946686
v 3.423259 52.538677 5.199280
v -1.955078 55.131947 0.878109
v 5.170439 54.156239 3.995404
v -0.207898 56.749500 -0.325767
v -1.092528 60.269714 -0.913710
v 1.623555 56.909534 -2.740725
v 2.078245 56.882782 -0.404047
v -0.319551 60.032913 0.726741
v 2.770008 58.195038 -2.162843
v -0.032496 60.974522 -0.356167
v 0.720362 58.184460 0.390154
v 1.237577 59.024071 -1.297016
v 0.354861 58.353184 -2.131902
v -2.293827 56.106762 -0.028563
v -1.066521 51.921829 -6.817727
v 3.039282 51.921829 -6.075504
v 1.811975 56.106762 0.713661
v 1.147062 54.532200 -7.035430
v -0.080244 58.717129 -0.246265
v 2.393464 54.123974 -2.502998
v 0.501245 56.734329 -3.462924
v -1.712338 54.123974 -3.245222
v 1.324720 58.643269 -1.064492
v 1.640315 54.051540 3.329670
v -1.314938 53.745186 3.470247
v -1.604558 58.658260 -0.816485
v 0.220461 56.016483 4.186367
v -0.152613 60.223099 -0.311180
v 1.449229 56.210823 0.890916
v -0.045190 57.582348 1.468194
v -1.501318 55.887512 1.073172
v 0.456223 59.256287 0.821824
v -3.707581 54.233025 0.004599
v -2.397140 54.820477 -2.786046
v 0.908268 59.359753 -1.527227
v -4.476457 55.995808 -1.236071
v -0.229776 60.264797 -0.440928
v -0.400761 56.807922 -2.324655
v -2.237157 57.399773 -0.804506
v -1.947320 56.348164 0.617540
v -1.578450 26.063305 4.538570
v -11.677918 20.847904 -3.852467
v -6.415112 20.306812 -9.850478
v 3.684357 25.522211 -1.459441
v -10.050165 24.765041 -8.246305
v 0.049305 29.980438 0.144733
v 0.486299 32.783157 3.175277
v -9.201475 29.116655 2.036498
v -8.512789 29.116655 -3.822262
v 1.174985 32.783157 -2.683483
v -9.702078 31.403646 -1.068186
v -0.014304 35.070156 0.070593
v 1.137722 26.908169 -4.154651
v 13.339652 21.024775 5.648866
v 8.164477 21.024773 12.090137
v -4.037452 26.908169 2.286618
v 11.892015 25.141052 9.920972
v -0.309914 31.024452 0.117455
v -3.072761 36.855370 -1.588866
v 4.446059 31.068975 -9.180393
v 9.153314 31.720444 -4.510544
v 1.572175 36.254517 3.122627
v 7.462273 33.817711 -7.386694
v 0.228831 39.706898 -0.115702
v 4.991467 33.970276 -0.315668
v 3.305959 36.374760 -3.190998
v 0.153598 33.804920 -4.826522
v -4.269313 28.786884 0.698005
v -1.926456 23.836491 -12.262115
v 5.911282 23.836491 -10.845255
v 3.568426 28.786884 2.114866
v 2.299146 26.924313 -12.677699
v -0.043711 31.874716 0.282423
v 3.002105 29.707026 3.093133
v -8.883588 24.620827 9.560796
v -12.794961 24.620829 2.372827
v -0.909268 29.707026 -4.094837
v -11.936763 27.793362 6.444838
v -0.051069 32.879555 -0.022825
v 3.112493 33.822414 -1.155059
v 3.829095 29.707371 9.769244
v -2.777467 29.707371 10.202617
v -3.494070 33.822414 -0.721688
v 0.504453 32.274151 10.954204
v -0.212150 36.389194 0.029899
v 3.448474 39.121975 0.645880
v -0.856430 35.381973 10.857037
v -6.888479 34.962215 8.160249
v -2.583576 38.702225 -2.050906
v -4.458571 37.759026 10.209049
v -0.153668 41.499039 -0.002104
v -3.458851 47.994461 -0.002741
v -1.573660 46.572746 -11.075139
v 4.733017 46.304886 -9.966968
v 2.847826 47.726597 1.105430
v 1.826492 49.066406 -10.816414
v -0.058699 50.488113 0.255982
v 0.062033 37.734642 -3.606452
v 11.075581 33.306854 0.572757
v 8.548171 33.306854 7.233290
v -2.465378 37.734642 3.054081
v 10.750137 36.068699 4.356529
v -0.263411 40.496494 0.177321
v 1.207172 46.400078 -3.530669
v 12.056081 43.018818 2.323624
v 8.437419 41.619198 8.556899
v -2.228083 45.856449 2.660966
v 10.546324 45.747700 6.013453
v -0.266137 49.061279 0.155364
v 2.846759 44.491543 5.367043
v 4.904597 46.893436 2.863233
v 6.298955 44.093689 -0.809209
v 0.787467 22.501997 -2.503483
v 7.109884 17.076883 3.525680
v 4.034029 17.894735 7.487061
v -2.288389 23.319853 1.457897
v 6.900000 19.752161 6.153026
v 0.577582 25.177275 0.123862
v -0.625708 23.463408 2.525818
v -4.864357 18.720097 -4.080643
v -1.305295 19.626009 -6.878751
v 2.944877 24.465302 -0.267986
v -4.089651 21.186998 -6.306986
v 0.159224 25.987118 0.305054
v -2.659135 20.410610 -0.531743
v -1.769811 23.056801 -2.667224
v 1.002707 21.832905 -3.270408
v 3.551248 36.438427 2.346180
v -6.117108 29.470905 11.785578
v -13.698565 32.333946 6.422286
v -2.190442 35.684944 -3.642782
v -11.674767 37.297298 10.310956
v -0.565775 40.019817 0.442411
v -6.648420 33.024155 0.652430
v -5.239238 37.245472 4.547130
v -0.630754 32.760452 6.381054
v -1.065734 37.558437 -2.195656
v 13.804676 35.372829 -4.699721
v 15.230295 40.124397 2.022960
v 0.948974 40.980640 5.127723
v 14.173899 40.609791 -2.780187
v -0.286405 43.039734 -0.556033
v 7.516325 40.348042 3.843237
v 6.299460 41.154823 -1.099242
v 5.608811 36.037788 -2.985238
v 0.820031 49.719925 2.721217
v -12.120479 46.555462 3.771423
v -13.078413 49.774609 -2.740715
v -0.463404 51.663425 -4.203740
v -12.714893 50.830521 1.446937
v -0.181286 54.193970 0.571022
v -6.227602 50.572803 -3.625847
v -5.769142 51.938362 0.658187
v -4.903811 47.796745 2.968978
v -2.440423 51.217987 -2.000228
v 4.334697 51.034115 -9.491899
v 7.845710 48.689198 -5.905949
v 0.998374 48.053696 0.944296
v 6.716793 51.655010 -6.721402
v 0.205961 52.055286 0.636340
v 4.083045 48.184868 -2.269445
v 2.962850 51.346481 -2.921055
v 0.457358 50.765442 -5.503360
v 0.711859 52.018700 -2.642101
v 10.301728 51.303162 1.145446
v 8.084370 51.717289 6.187005
v -1.396293 51.016785 2.363907
v 9.528508 54.347153 4.004547
v -0.102838 54.311794 0.313213
v 2.752841 50.573753 4.067846
v 3.849950 52.647984 1.855893
v 4.782886 50.747974 -1.025378
v -1.038544 31.999863 -2.699931
v 8.909377 29.925682 -4.586657
v 9.723716 30.052134 0.874695
v -0.349629 30.717445 2.628207
v 10.173655 32.727608 -1.655953
v 0.135398 34.053238 0.310292
v 3.969620 29.681372 1.862938
v 4.033870 31.845560 -0.526827
v 3.053267 30.161566 -3.524277
v -3.930618 36.082134 1.009009
v -3.567936 28.460968 -11.308773
v 4.803585 31.592598 -12.593318
v 3.630326 35.257969 1.300471
v 1.012316 37.021584 -13.862297
v -0.023602 39.999504 -0.350296
v 3.833790 32.347561 -4.341608
v 0.441910 36.964886 -6.003919
v -3.743273 32.059120 -4.287438
v -1.419586 43.608852 3.997488
v -10.190466 42.045670 -0.828053
v -5.639142 36.051418 -6.171210
v 2.827674 42.014389 -0.824645
v -7.628538 39.279881 -5.361719
v 0.019553 45.157421 0.143907
v -5.953278 41.538670 1.305271
v -4.441813 43.824036 -2.486343
v -1.737401 39.340515 -3.573355
v 0.531901 47.612400 3.552846
v -10.285044 43.178894 2.257817
v -9.376393 42.012417 -4.370548
v 1.302617 47.616211 -3.022235
v -10.557552 43.971661 -1.318055
v -0.062918 50.250847 0.074857
v -4.155941 45.550224 2.946519
v -4.154206 47.341675 -0.635688
v -3.358167 45.518223 -3.633211
v 1.115096 43.496983 -3.119700
v 9.649538 39.381939 3.737212
v 5.502765 39.381939 8.898486
v -3.031677 43.496983 2.041574
v 8.275220 41.948711 6.988154
v -0.259222 46.063759 0.131242
v -3.569211 44.350731 0.602851
v -1.621700 40.235683 -10.170318
v 4.893461 40.235683 -8.992543
v 2.945950 44.350731 1.780625
v 1.890854 42.802460 -10.515771
v -0.056658 46.917503 0.257396
v 2.405891 45.354721 2.528142
v -7.210365 41.239681 7.760880
v -10.374907 41.239681 1.945370
v -0.758650 45.354721 -3.287367
v -9.680571 43.806450 5.239878
v -0.064314 47.921497 0.007140
v 3.112493 49.900745 -0.490032
v 3.751694 48.441170 11.194921
v -2.868104 48.464725 11.628021
v -3.508594 49.906155 -0.055891
v 0.221502 50.740673 11.933219
v -0.203328 52.607307 0.015090
v 3.482506 49.040535 5.084477
v 0.162705 50.797802 5.572217
v -3.294380 47.853172 5.667406
vt 0.375000 5.793305
vt 0.000000 1.209169
vt 0.375000 -3.374967
vt 0.125000 -3.374967
vt 0.375000 5.793305
vt 0.500000 1.209169
vt 0.083333 0.251980
vt 0.000000 5.793305
vt 0.000000 0.251980
vt 0.166667 0.251980
vt 0.083333 5.793305
vt 0.250000 5.793305
vt 0.166667 5.793305
vt 0.250000 0.251980
vt 0.333333 5.793305
vt 0.333333 0.251980
vt 0.416667 5.793305
vt 0.500000 0.251980
vt 0.416667 0.251980
vt 0.000000 -2.315776
vt 0.083333 -2.315776
vt 0.250000 -2.315776
vt 0.166667 -2.315776
vt 0.333333 -2.315776
vt 0.416667 -2.315776
vt 0.083333 -4.793305
vt 0.000000 -4.793305
vt 0.166667 -4.793305
vt 0.250000 -4.793305
vt 0.333333 -4.793305
vt 0.500000 -4.793305
vt 0.416667 -4.793305
vt 0.500000 1.209169
vt 0.125000 5.793305
vt 0.125000 -3.374967
vt 0.375000 -3.374967
vt 0.000000 1.209169
vt 0.125000 5.793305
vt 0.500000 5.793305
vt 0.500000 -2.315776
vt 0.978518 0.015168
vt 0.511951 0.989754
vt 0.511951 0.015168
vt 0.986607 0.013393
vt 0.512450 0.986607
vt 0.512450 0.013393
vt 0.978518 0.015168
vt 0.511951 0.989754
vt 0.511951 0.015168
vt 0.512450 0.013393
vt 0.986607 0.986607
vt 0.512450 0.986607
vt 0.978518 0.512673
vt 0.511951 0.015168
vt 0.978518 0.015168
vt 0.512450 0.510198
vt 0.986607 0.986607
vt 0.512450 0.986607
vt 0.986607 0.013393
vt 0.986607 0.510198
vt 0.978518 0.989754
vt 0.511951 0.512673
vt 0.978518 0.476920
vt 0.511951 0.015168
vt 0.978518 0.015168
vt 0.986607 0.474495
vt 0.512450 0.986607
vt 0.512450 0.474495
vt 0.986607 0.013393
vt 0.978518 0.989754
vt 0.511951 0.476920
vt 0.979916 0.450442
vt 0.515475 0.017233
vt 0.979916 0.017233
vt 0.986607 0.478890
vt 0.512450 0.986607
vt 0.512450 0.478890
vt 0.978518 0.989754
vt 0.511951 0.481321
vt 0.978518 0.481321
vt 0.986607 0.013393
vt 0.978518 0.512673
vt 0.511951 0.015168
vt 0.978518 0.015168
vt 0.512450 0.510198
vt 0.986607 0.986607
vt 0.512450 0.986607
vt 0.986607 0.013393
vt 0.986607 0.510198
vt 0.978518 0.989754
vt 0.511951 0.512673
vt 0.978518 0.015168
vt 0.511951 0.989754
vt 0.511951 0.015168
vt 0.512450 0.013393
vt 0.986607 0.986607
vt 0.512450 0.986607
vt 0.978518 0.015168
vt 0.511951 0.989754
vt 0.511951 0.015168
vt 0.512450 0.013393
vt 0.986607 0.986607
vt 0.512450 0.986607
vt 0.978518 0.989754
vt 0.511951 0.015168
vt 0.978518 0.015168
vt 0.986607 0.013393
vt 0.512450 0.986607
vt 0.512450 0.013393
vt 0.978518 0.464001
vt 0.511951 0.015168
vt 0.978518 0.015168
vt 0.986607 0.461594
vt 0.512450 0.986607
vt 0.512450 0.461594
vt 0.986607 0.013393
vt 0.978518 0.989754
vt 0.511951 0.464001
vt 0.978518 0.015168
vt 0.511951 0.989754
vt 0.511951 0.015168
vt 0.512450 0.013393
vt 0.986607 0.986607
vt 0.512450 0.986607
vt 0.978518 0.989754
vt 0.511951 0.015168
vt 0.978518 0.015168
vt 0.512450 0.013393
vt 0.986607 0.986607
vt 0.512450 0.986607
vt 0.978518 0.989754
vt 0.511951 0.015168
vt 0.978518 0.015168
vt 0.512450 0.013393
vt 0.986607 0.986607
vt 0.512450 0.986607
vt 0.978518 0.989754
vt 0.511951 0.015168
vt 0.978518 0.015168
vt 0.986607 0.013393
vt 0.512450 0.986607
vt 0.512450 0.013393
vt 0.978518 0.989754
vt 0.511951 0.015168
vt 0.978518 0.015168
vt 0.986607 0.013393
vt 0.512450 0.986607
vt 0.512450 0.013393
vt 0.978518 0.989754
vt 0.511951 0.015168
vt 0.978518 0.015168
vt 0.986607 0.013393
vt 0.512450 0.986607
vt 0.512450 0.013393
vt 0.978518 0.467272
vt 0.511951 0.015168
vt 0.978518 0.015168
vt 0.986607 0.464861
vt 0.512450 0.986607
vt 0.512450 0.464861
vt 0.986607 0.013393
vt 0.511951 0.989754
vt 0.511951 0.467272
vt 0.978518 0.015168
vt 0.511951 0.989754
vt 0.511951 0.015168
vt 0.512450 0.013393
vt 0.986607 0.986607
vt 0.512450 0.986607
vt 0.978518 0.462894
vt 0.511951 0.015168
vt 0.978518 0.015168
vt 0.512450 0.460489
vt 0.986607 0.986607
vt 0.512450 0.986607
vt 0.511951 0.989754
vt 0.511951 0.462894
vt 0.986607 0.013393
vt 0.986607 0.460489
vt 0.978518 0.464001
vt 0.511951 0.015168
vt 0.978518 0.015168
vt 0.512450 0.461594
vt 0.986607 0.986607
vt 0.512450 0.986607
vt 0.986607 0.013393
vt 0.986607 0.461594
vt 0.511951 0.989754
vt 0.511951 0.464001
vt 0.978518 0.464001
vt 0.511951 0.015168
vt 0.978518 0.015168
vt 0.986607 0.461594
vt 0.512450 0.986607
vt 0.512450 0.461594
vt 0.986607 0.013393
vt 0.978518 0.989754
vt 0.511951 0.464001
vt 0.978518 0.464001
vt 0.511951 0.015168
vt 0.978518 0.015168
vt 0.986607 0.461594
vt 0.512450 0.986607
vt 0.512450 0.461594
vt 0.986607 0.013393
vt 0.978518 0.989754
vt 0.511951 0.464001
vt 0.980145 0.459133
vt 0.530011 0.010932
vt 0.980145 0.010932
vt 0.986607 0.461594
vt 0.512450 0.986607
vt 0.512450 0.461594
vt 0.986607 0.013393
vt 0.978518 0.989754
vt 0.511951 0.464001
vt 0.978518 0.464001
vt 0.978518 0.464001
vt 0.511951 0.015168
vt 0.978518 0.015168
vt 0.512450 0.461594
vt 0.986607 0.986607
vt 0.512450 0.986607
vt 0.986607 0.013393
vt 0.986607 0.461594
vt 0.511951 0.989754
vt 0.511951 0.464001
vt 0.978518 0.464001
vt 0.511951 0.015168
vt 0.978518 0.015168
vt 0.512450 0.461594
vt 0.986607 0.986607
vt 0.512450 0.986607
vt 0.986607 0.013393
vt 0.986607 0.461594
vt 0.511951 0.989754
vt 0.511951 0.464001
vt 0.978518 0.464001
vt 0.511951 0.015168
vt 0.978518 0.015168
vt 0.512450 0.461594
vt 0.986607 0.986607
vt 0.512450 0.986607
vt 0.986607 0.013393
vt 0.986607 0.461594
vt 0.511951 0.989754
vt 0.511951 0.464001
vt 0.978518 0.015168
vt 0.511951 0.528935
vt 0.511951 0.015168
vt 0.986607 0.526437
vt 0.512450 0.986607
vt 0.512450 0.526437
vt 0.978518 0.528935
vt 0.511951 0.989754
vt 0.512450 0.013393
vt 0.978518 0.452901
vt 0.511951 0.015168
vt 0.978518 0.015168
vt 0.986607 0.450510
vt 0.512450 0.986607
vt 0.512450 0.450510
vt 0.978518 0.989754
vt 0.511951 0.452901
vt 0.986607 0.013393
vt 0.978518 0.989754
vt 0.511951 0.015168
vt 0.978518 0.015168
vt 0.986607 0.013393
vt 0.512450 0.986607
vt 0.512450 0.013393
vt 0.978518 0.015168
vt 0.511951 0.989754
vt 0.511951 0.015168
vt 0.986607 0.013393
vt 0.512450 0.986607
vt 0.512450 0.013393
vt 0.978518 0.015168
vt 0.511951 0.989754
vt 0.511951 0.015168
vt 0.512450 0.013393
vt 0.986607 0.986607
vt 0.512450 0.986607
vt 0.978518 0.486174
vt 0.511951 0.015168
vt 0.978518 0.015168
vt 0.512450 0.483736
vt 0.986607 0.986607
vt 0.512450 0.986607
vt 0.511951 0.989754
vt 0.511951 0.486174
vt 0.986607 0.013393
vt 0.986607 0.483736
vt 0.961238 0.973619
vt 0.514466 0.006695
vt 0.961238 0.006695
vt 0.512450 0.013393
vt 0.986607 0.986607
vt 0.512450 0.986607
vt 0.961238 0.006695
vt 0.514466 0.973619
vt 0.514466 0.006695
vt 0.512450 0.013393
vt 0.986607 0.986607
vt 0.512450 0.986607
vt 0.512450 0.510198
vt 0.013393 0.013393
vt 0.512450 0.013393
vt 0.986607 0.986607
vt 0.512450 0.986607
vt 0.986607 0.013393
vt 0.986607 0.510198
vt 0.013393 0.510198
vt 0.961238 0.464817
vt 0.514466 0.006695
vt 0.961238 0.006695
vt 0.986607 0.474495
vt 0.512450 0.986607
vt 0.512450 0.474495
vt 0.986607 0.013393
vt 0.961238 0.973619
vt 0.514466 0.464817
vt 0.961238 0.469183
vt 0.514466 0.006695
vt 0.961238 0.006695
vt 0.986607 0.478890
vt 0.512450 0.986607
vt 0.512450 0.478890
vt 0.961238 0.973619
vt 0.514466 0.469183
vt 0.986607 0.013393
vt 0.512450 0.510198
vt 0.013393 0.013393
vt 0.512450 0.013393
vt 0.986607 0.986607
vt 0.512450 0.986607
vt 0.986607 0.013393
vt 0.986607 0.510198
vt 0.961238 0.973619
vt 0.514466 0.500289
vt 0.961238 0.500289
vt 0.961238 0.973619
vt 0.514466 0.006695
vt 0.961238 0.006695
vt 0.986607 0.013393
vt 0.512450 0.986607
vt 0.512450 0.013393
vt 0.961238 0.006695
vt 0.514466 0.973619
vt 0.514466 0.006695
vt 0.986607 0.013393
vt 0.512450 0.986607
vt 0.512450 0.013393
vt 0.961238 0.973619
vt 0.514466 0.006695
vt 0.961238 0.006695
vt 0.986607 0.013393
vt 0.512450 0.986607
vt 0.512450 0.013393
vt 0.966613 0.459133
vt 0.528778 0.010932
vt 0.966613 0.010932
vt 0.986607 0.461594
vt 0.512450 0.986607
vt 0.512450 0.461594
vt 0.986607 0.013393
vt 0.961238 0.973619
vt 0.514466 0.451999
vt 0.961238 0.451999
vt 0.961238 0.006695
vt 0.514466 0.973619
vt 0.514466 0.006695
vt 0.986607 0.013393
vt 0.512450 0.986607
vt 0.512450 0.013393
vt 0.961238 0.973619
vt 0.514466 0.006695
vt 0.961238 0.006695
vt 0.512450 0.013393
vt 0.986607 0.986607
vt 0.512450 0.986607
vt 0.961238 0.973619
vt 0.514466 0.006695
vt 0.961238 0.006695
vt 0.986607 0.013393
vt 0.512450 0.986607
vt 0.512450 0.013393
vt 0.961238 0.973619
vt 0.514466 0.006695
vt 0.961238 0.006695
vt 0.986607 0.013393
vt 0.512450 0.986607
vt 0.512450 0.013393
vt 0.961238 0.973619
vt 0.514466 0.006695
vt 0.961238 0.006695
vt 0.986607 0.013393
vt 0.512450 0.986607
vt 0.512450 0.013393
vt 0.961238 0.973619
vt 0.514466 0.006695
vt 0.961238 0.006695
vt 0.512450 0.013393
vt 0.986607 0.986607
vt 0.512450 0.986607
vt 0.961238 0.455245
vt 0.514466 0.006695
vt 0.961238 0.006695
vt 0.986607 0.464861
vt 0.512450 0.986607
vt 0.512450 0.464861
vt 0.986607 0.013393
vt 0.514466 0.973619
vt 0.514466 0.455245
vt 0.961238 0.006695
vt 0.514466 0.973619
vt 0.514466 0.006695
vt 0.986607 0.013393
vt 0.512450 0.986607
vt 0.512450 0.013393
vt 0.966613 0.458028
vt 0.528778 0.010932
vt 0.966613 0.010932
vt 0.512450 0.460489
vt 0.986607 0.986607
vt 0.512450 0.986607
vt 0.961238 0.450901
vt 0.514466 0.973619
vt 0.514466 0.450901
vt 0.986607 0.013393
vt 0.986607 0.460489
vt 0.961238 0.451999
vt 0.514466 0.006695
vt 0.961238 0.006695
vt 0.512450 0.461594
vt 0.986607 0.986607
vt 0.512450 0.986607
vt 0.986607 0.013393
vt 0.986607 0.461594
vt 0.514466 0.973619
vt 0.514466 0.451999
vt 0.961238 0.451999
vt 0.514466 0.006695
vt 0.961238 0.006695
vt 0.986607 0.461594
vt 0.512450 0.986607
vt 0.512450 0.461594
vt 0.986607 0.013393
vt 0.961238 0.973619
vt 0.514466 0.451999
vt 0.961238 0.451999
vt 0.514466 0.006695
vt 0.961238 0.006695
vt 0.986607 0.461594
vt 0.512450 0.986607
vt 0.512450 0.461594
vt 0.986607 0.013393
vt 0.961238 0.973619
vt 0.514466 0.451999
vt 0.961238 0.451999
vt 0.514466 0.006695
vt 0.961238 0.006695
vt 0.986607 0.461594
vt 0.512450 0.986607
vt 0.512450 0.461594
vt 0.986607 0.013393
vt 0.961238 0.973619
vt 0.514466 0.451999
vt 0.961238 0.451999
vt 0.514466 0.006695
vt 0.961238 0.006695
vt 0.512450 0.461594
vt 0.986607 0.986607
vt 0.512450 0.986607
vt 0.986607 0.013393
vt 0.986607 0.461594
vt 0.514466 0.973619
vt 0.514466 0.451999
vt 0.961238 0.451999
vt 0.514466 0.006695
vt 0.961238 0.006695
vt 0.512450 0.461594
vt 0.986607 0.986607
vt 0.512450 0.986607
vt 0.986607 0.013393
vt 0.986607 0.461594
vt 0.514466 0.973619
vt 0.514466 0.451999
vt 0.961238 0.451999
vt 0.514466 0.006695
vt 0.961238 0.006695
vt 0.512450 0.461594
vt 0.986607 0.986607
vt 0.512450 0.986607
vt 0.986607 0.013393
vt 0.986607 0.461594
vt 0.514466 0.973619
vt 0.514466 0.451999
vt 0.966613 0.010932
vt 0.528778 0.523976
vt 0.528778 0.010932
vt 0.986607 0.526437
vt 0.512450 0.986607
vt 0.512450 0.526437
vt 0.961238 0.516423
vt 0.514466 0.973619
vt 0.514466 0.516423
vt 0.512450 0.013393
vt 0.961238 0.440987
vt 0.514466 0.006695
vt 0.961238 0.006695
vt 0.986607 0.450510
vt 0.512450 0.986607
vt 0.512450 0.450510
vt 0.961238 0.973619
vt 0.514466 0.440987
vt 0.986607 0.013393
vt 0.961238 0.973619
vt 0.514466 0.006695
vt 0.961238 0.006695
vt 0.986607 0.013393
vt 0.512450 0.986607
vt 0.512450 0.013393
vt 0.961238 0.973619
vt 0.514466 0.006695
vt 0.961238 0.006695
vt 0.986607 0.013393
vt 0.512450 0.986607
vt 0.512450 0.013393
vt 0.961238 0.006695
vt 0.514466 0.973619
vt 0.514466 0.006695
vt 0.512450 0.013393
vt 0.986607 0.986607
vt 0.512450 0.986607
vt 0.961238 0.473998
vt 0.514466 0.006695
vt 0.961238 0.006695
vt 0.512450 0.483736
vt 0.986607 0.986607
vt 0.512450 0.986607
vt 0.514466 0.973619
vt 0.514466 0.473998
vt 0.986607 0.013393
vt 0.986607 0.483736
vt 0.978518 0.989754
vt 0.986607 0.986607
vt 0.978518 0.989754
vt 0.986607 0.013393
vt 0.512450 0.013393
vt 0.511951 0.989754
vt 0.986607 0.986607
vt 0.512450 0.013393
vt 0.511951 0.989754
vt 0.515475 0.450442
vt 0.986607 0.986607
vt 0.511951 0.989754
vt 0.512450 0.013393
vt 0.512450 0.013393
vt 0.511951 0.989754
vt 0.978518 0.989754
vt 0.986607 0.013393
vt 0.978518 0.989754
vt 0.986607 0.013393
vt 0.511951 0.989754
vt 0.986607 0.986607
vt 0.986607 0.986607
vt 0.512450 0.013393
vt 0.511951 0.989754
vt 0.978518 0.989754
vt 0.986607 0.013393
vt 0.511951 0.989754
vt 0.986607 0.013393
vt 0.511951 0.989754
vt 0.986607 0.013393
vt 0.511951 0.989754
vt 0.986607 0.986607
vt 0.511951 0.989754
vt 0.986607 0.986607
vt 0.511951 0.989754
vt 0.986607 0.986607
vt 0.986607 0.986607
vt 0.512450 0.013393
vt 0.978518 0.989754
vt 0.978518 0.989754
vt 0.986607 0.013393
vt 0.978518 0.989754
vt 0.512450 0.013393
vt 0.512450 0.013393
vt 0.978518 0.989754
vt 0.986607 0.986607
vt 0.512450 0.013393
vt 0.511951 0.989754
vt 0.986607 0.986607
vt 0.512450 0.013393
vt 0.511951 0.989754
vt 0.530011 0.459133
vt 0.986607 0.986607
vt 0.512450 0.013393
vt 0.511951 0.989754
vt 0.512450 0.013393
vt 0.978518 0.989754
vt 0.512450 0.013393
vt 0.978518 0.989754
vt 0.512450 0.013393
vt 0.978518 0.989754
vt 0.986607 0.986607
vt 0.978518 0.989754
vt 0.986607 0.013393
vt 0.986607 0.986607
vt 0.511951 0.989754
vt 0.512450 0.013393
vt 0.511951 0.989754
vt 0.986607 0.986607
vt 0.978518 0.989754
vt 0.986607 0.986607
vt 0.978518 0.989754
vt 0.986607 0.013393
vt 0.978518 0.989754
vt 0.512450 0.013393
vt 0.514466 0.973619
vt 0.986607 0.013393
vt 0.961238 0.973619
vt 0.986607 0.013393
vt 0.013393 0.986607
vt 0.986607 0.986607
vt 0.512450 0.013393
vt 0.514466 0.973619
vt 0.986607 0.986607
vt 0.514466 0.973619
vt 0.512450 0.013393
vt 0.013393 0.510198
vt 0.514466 0.973619
vt 0.514466 0.973619
vt 0.986607 0.986607
vt 0.961238 0.973619
vt 0.986607 0.986607
vt 0.514466 0.973619
vt 0.986607 0.986607
vt 0.528778 0.459133
vt 0.986607 0.986607
vt 0.512450 0.013393
vt 0.514466 0.973619
vt 0.961238 0.973619
vt 0.986607 0.986607
vt 0.514466 0.973619
vt 0.986607 0.013393
vt 0.514466 0.973619
vt 0.986607 0.986607
vt 0.514466 0.973619
vt 0.986607 0.986607
vt 0.514466 0.973619
vt 0.986607 0.986607
vt 0.514466 0.973619
vt 0.986607 0.013393
vt 0.986607 0.986607
vt 0.512450 0.013393
vt 0.961238 0.973619
vt 0.961238 0.973619
vt 0.986607 0.986607
vt 0.528778 0.458028
vt 0.961238 0.973619
vt 0.512450 0.013393
vt 0.512450 0.013393
vt 0.961238 0.973619
vt 0.986607 0.986607
vt 0.512450 0.013393
vt 0.514466 0.973619
vt 0.986607 0.986607
vt 0.512450 0.013393
vt 0.514466 0.973619
vt 0.986607 0.986607
vt 0.512450 0.013393
vt 0.514466 0.973619
vt 0.512450 0.013393
vt 0.961238 0.973619
vt 0.512450 0.013393
vt 0.961238 0.973619
vt 0.512450 0.013393
vt 0.961238 0.973619
vt 0.966613 0.523976
vt 0.986607 0.986607
vt 0.961238 0.973619
vt 0.986607 0.013393
vt 0.986607 0.986607
vt 0.514466 0.973619
vt 0.512450 0.013393
vt 0.514466 0.973619
vt 0.986607 0.986607
vt 0.514466 0.973619
vt 0.986607 0.986607
vt 0.961238 0.973619
vt 0.986607 0.013393
vt 0.961238 0.973619
vt 0.512450 0.013393
vn -0.0001 0.9999 -0.0125
vn -0.0000 0.9999 -0.0125
vn -0.0001 0.9999 -0.0126
vn 0.0038 -1.0000 -0.0000
vn -0.8397 0.0256 0.5424
vn -0.9987 0.0061 0.0506
vn -0.9987 0.0105 0.0503
vn 0.0506 0.0380 0.9980
vn -0.4554 0.0114 0.8902
vn 0.5433 0.0110 0.8395
vn 0.0506 0.0129 0.9986
vn 0.8904 0.0226 0.4546
vn 0.8396 0.0033 -0.5433
vn 0.9987 0.0055 -0.0508
vn 0.8394 -0.0053 -0.5434
vn -0.0508 0.0004 -0.9987
vn -0.5432 -0.0146 -0.8395
vn -0.0503 -0.0184 -0.9986
vn -0.8904 0.0009 -0.4553
vn -0.8394 0.0257 0.5428
vn 0.8900 0.0263 0.4551
vn 0.0496 0.0373 0.9981
vn 0.8397 0.0016 -0.5431
vn -0.0509 -0.0113 -0.9986
vn -0.9987 0.0080 0.0506
vn -0.8902 0.0102 -0.4555
vn 0.0506 0.0138 0.9986
vn -0.4555 0.0100 0.8902
vn 0.9986 0.0155 -0.0506
vn 0.8395 0.0168 -0.5431
vn -0.0507 0.0134 -0.9986
vn -0.0001 0.9999 -0.0124
vn 0.0000 0.9999 -0.0127
vn -0.5432 0.0005 -0.8396
vn 0.5431 0.0138 0.8396
vn 0.3887 0.7282 0.5644
vn -0.6915 0.7132 -0.1147
vn -0.3998 0.7282 -0.5567
vn -0.3997 0.7282 -0.5567
vn 0.6936 0.7132 0.1011
vn -0.7256 0.6879 -0.0166
vn -0.8417 0.5388 -0.0350
vn -0.8697 0.4936 -0.0012
vn 0.3990 0.4329 -0.8083
vn 0.4360 0.5097 -0.7417
vn 0.5163 0.5124 -0.6862
vn 0.3570 0.3354 -0.8718
vn 0.3464 0.4428 -0.8270
vn -0.8115 0.5779 0.0864
vn -0.7748 0.6321 -0.0131
vn -0.3633 0.5499 0.7520
vn -0.3633 0.5499 0.7521
vn -0.2926 0.5333 -0.7937
vn 0.3358 0.5550 -0.7610
vn 0.4597 0.4381 -0.7725
vn 0.4550 0.4086 -0.7912
vn 0.6201 0.4584 0.6366
vn 0.5159 0.4725 0.7146
vn 0.6133 0.4792 0.6280
vn 0.2109 0.5343 -0.8186
vn 0.3387 0.5363 -0.7731
vn 0.7230 0.4058 0.5591
vn 0.6472 0.5670 0.5095
vn 0.7090 0.4158 0.5696
vn 0.7421 0.3735 0.5566
vn -0.6943 0.5302 0.4866
vn -0.6808 0.6047 0.4134
vn -0.7148 0.6152 0.3325
vn -0.7175 0.4354 0.5438
vn -0.6622 0.5337 0.5259
vn 0.7666 0.4400 0.4677
vn 0.6766 0.5165 0.5249
vn 0.4466 0.6726 0.5901
vn -0.7989 0.5535 -0.2353
vn 0.6344 0.7282 0.2594
vn -0.6415 0.7132 0.2827
vn -0.4938 0.6495 -0.5783
vn 0.7553 0.6321 0.1733
vn -0.6852 0.6686 0.2888
vn -0.7463 0.6151 0.2545
vn -0.7635 0.5896 0.2635
vn 0.1047 0.7236 -0.6822
vn 0.1142 0.7496 -0.6520
vn 0.1101 0.6804 -0.7245
vn 0.1010 0.6133 -0.7834
vn -0.6309 0.7036 0.3270
vn -0.6774 0.6782 0.2849
vn -0.2981 0.7282 0.6171
vn -0.2425 0.7132 -0.6577
vn 0.6678 0.7282 -0.1543
vn -0.3606 0.7132 0.6011
vn 0.1400 0.7282 -0.6709
vn 0.3944 0.7132 0.5795
vn 0.4003 0.7753 -0.4885
vn 0.0428 0.6792 0.7327
vn -0.1182 0.7974 0.5918
vn -0.0724 0.7281 -0.6816
vn -0.5522 0.7282 -0.4059
vn 0.6909 0.7132 -0.1182
vn -0.4680 0.7854 -0.4051
vn -0.4326 0.7697 -0.4694
vn -0.4255 0.7797 -0.4593
vn 0.6680 0.7419 0.0580
vn 0.7426 0.6664 0.0670
vn 0.6473 0.7598 0.0610
vn 0.7149 0.6989 0.0198
vn -0.4929 0.8025 -0.3362
vn -0.4766 0.7788 -0.4078
vn -0.5140 0.4629 -0.7222
vn 0.7314 0.6820 0.0033
vn 0.3351 0.4638 0.8201
vn 0.2853 0.4246 0.8592
vn 0.2861 0.4213 0.8606
vn -0.6843 0.7206 -0.1120
vn -0.6205 0.7625 -0.1835
vn -0.6165 0.7562 -0.2191
vn 0.3823 0.4993 0.7775
vn 0.3361 0.4648 0.8191
vn -0.7510 0.6563 -0.0734
vn -0.6736 0.7338 -0.0878
vn 0.6501 0.6123 -0.4501
vn 0.7051 0.6194 -0.3452
vn 0.6730 0.6589 -0.3360
vn -0.3792 0.6379 0.6703
vn -0.4824 0.6591 0.5769
vn -0.4927 0.6520 0.5764
vn -0.2751 0.6021 0.7495
vn -0.3744 0.6347 0.6760
vn 0.5781 0.5979 -0.5553
vn 0.6877 0.6153 -0.3853
vn -0.9125 0.3429 0.2232
vn -0.9384 0.3140 0.1440
vn -0.9490 0.2868 0.1308
vn 0.1059 0.9871 -0.1203
vn 0.0959 0.9921 -0.0808
vn 0.1384 0.9756 -0.1702
vn 0.1712 0.9528 -0.2506
vn -0.8880 0.3541 0.2934
vn -0.9071 0.3535 0.2283
vn 0.8823 0.4658 -0.0681
vn 0.9031 0.4294 0.0094
vn 0.9155 0.4019 0.0204
vn -0.2375 0.9447 0.2263
vn -0.2241 0.9560 0.1892
vn -0.2735 0.9232 0.2702
vn -0.3116 0.8863 0.3426
vn 0.8643 0.4834 -0.1388
vn 0.8763 0.4763 -0.0726
vn -0.1212 0.9848 0.1243
vn -0.2010 0.9756 0.0880
vn -0.2307 0.9681 0.0973
vn 0.5617 0.3802 -0.7348
vn 0.5844 0.3993 -0.7065
vn 0.5402 0.3367 -0.7713
vn 0.4930 0.2809 -0.8234
vn -0.0584 0.9845 0.1654
vn -0.1089 0.9867 0.1204
vn -0.5520 0.8095 -0.2001
vn -0.4877 0.7793 -0.3934
vn -0.5094 0.7502 -0.4217
vn 0.6710 0.7223 0.1675
vn 0.6073 0.7228 0.3299
vn 0.6201 0.7055 0.3431
vn 0.7594 0.6506 0.0026
vn 0.6068 0.7725 0.1874
vn -0.6588 0.7522 0.0159
vn -0.4978 0.8442 -0.1988
vn -0.5645 0.8254 0.0033
vn -0.6123 0.7678 -0.1885
vn -0.6460 0.7375 -0.1968
vn 0.6669 0.6764 -0.3127
vn 0.6986 0.7011 -0.1429
vn 0.7163 0.6844 -0.1360
vn 0.6540 0.5788 -0.4871
vn 0.6235 0.7338 -0.2697
vn -0.5418 0.8028 0.2489
vn -0.5175 0.8552 -0.0289
vn -0.1585 0.5429 0.8247
vn -0.2847 0.5493 0.7856
vn -0.2691 0.5900 0.7612
vn -0.2045 0.5684 -0.7970
vn -0.0585 0.5907 -0.8048
vn -0.0494 0.5826 -0.8113
vn -0.3425 0.5318 -0.7745
vn -0.2127 0.5659 -0.7965
vn -0.0374 0.5339 0.8447
vn -0.2446 0.5502 0.7984
vn 0.2960 0.8537 0.4286
vn 0.3973 0.8838 0.2470
vn 0.2264 0.8602 0.4570
vn -0.8961 0.4131 -0.1622
vn -0.9139 0.3815 -0.1391
vn -0.8961 0.3986 -0.1951
vn 0.1400 0.9169 0.3738
vn -0.1370 0.9267 0.3499
vn -0.8759 0.4509 -0.1716
vn 0.4920 0.7741 0.3984
vn 0.5629 0.7155 0.4138
vn 0.6322 0.6267 0.4556
vn -0.5089 0.7657 0.3933
vn -0.5306 0.7341 0.4236
vn -0.5297 0.7444 0.4066
vn 0.3336 0.8718 0.3588
vn 0.4311 0.8244 0.3669
vn -0.5810 0.7025 0.4109
vn 0.0170 0.8488 -0.5284
vn 0.0800 0.8012 -0.5931
vn 0.1068 0.7494 -0.6535
vn 0.2206 0.7670 0.6025
vn 0.0777 0.7908 0.6071
vn 0.0915 0.8072 0.5832
vn -0.0500 0.8536 -0.5185
vn 0.0147 0.8783 -0.4778
vn 0.3658 0.7373 0.5679
vn 0.2147 0.7580 0.6160
vn -0.6130 0.7282 0.3064
vn -0.6131 0.7282 0.3064
vn 0.2099 0.7132 -0.6688
vn 0.6069 0.7282 -0.3184
vn -0.1967 0.7132 0.6728
vn 0.1174 0.6879 -0.7162
vn 0.1518 0.5388 -0.8286
vn 0.1222 0.4936 -0.8611
vn 0.7449 0.4329 0.5076
vn 0.6738 0.5097 0.5350
vn 0.6076 0.5124 0.6068
vn 0.8136 0.3354 0.4749
vn 0.7707 0.4428 0.4581
vn 0.0273 0.5779 -0.8156
vn 0.1208 0.6321 -0.7654
vn -0.6942 0.5499 -0.4645
vn 0.8267 0.5333 -0.1793
vn 0.7069 0.5550 0.4385
vn 0.7010 0.4382 0.5627
vn 0.7201 0.4087 0.5607
vn -0.7167 0.4584 0.5255
vn -0.7794 0.4725 0.4115
vn -0.7072 0.4792 0.5199
vn 0.7812 0.5343 0.3228
vn 0.7184 0.5363 0.4430
vn -0.6545 0.4058 0.6379
vn -0.5946 0.5670 0.5700
vn -0.6627 0.4158 0.6228
vn -0.6544 0.3735 0.6574
vn -0.3852 0.5302 -0.7553
vn -0.3146 0.6047 -0.7317
vn -0.2297 0.6152 -0.7541
vn -0.4386 0.4354 -0.7862
vn -0.4286 0.5337 -0.7290
vn -0.5699 0.4400 0.6940
vn -0.6139 0.5165 0.5970
vn -0.6465 0.6726 0.3601
vn 0.3442 0.5535 -0.7584
vn -0.3452 0.7282 0.5921
vn -0.1906 0.7132 -0.6746
vn 0.6413 0.6495 -0.4085
vn -0.2768 0.6321 0.7238
vn -0.1906 0.6686 -0.7187
vn -0.1481 0.6152 -0.7743
vn -0.1547 0.5897 -0.7927
vn 0.6610 0.7236 0.1987
vn 0.6297 0.7496 0.2039
vn 0.7022 0.6804 0.2099
vn 0.7617 0.6133 0.2091
vn -0.2360 0.7036 -0.6703
vn -0.1878 0.6782 -0.7105
vn -0.5696 0.7282 -0.3811
vn 0.6850 0.7132 -0.1486
vn 0.0599 0.7282 0.6827
vn -0.5450 0.7132 -0.4408
vn 0.6449 0.7282 0.2320
vn -0.6288 0.7132 0.3099
vn 0.4281 0.7753 0.4644
vn -0.7315 0.6792 -0.0596
vn -0.5696 0.7974 -0.1994
vn 0.6850 0.7281 0.0231
vn 0.4788 0.7282 -0.4903
vn 0.0209 0.7132 0.7007
vn 0.4663 0.7854 -0.4070
vn 0.5251 0.7697 -0.3630
vn 0.5141 0.7797 -0.3574
vn -0.1504 0.7419 0.6534
vn -0.1697 0.6664 0.7260
vn -0.1505 0.7598 0.6325
vn -0.1191 0.6989 0.7052
vn 0.4015 0.8025 -0.4413
vn 0.4701 0.7789 -0.4152
vn 0.7867 0.4629 -0.4085
vn -0.1051 0.6820 0.7238
vn -0.8588 0.4638 0.2177
vn -0.8906 0.4246 0.1630
vn -0.8920 0.4213 0.1635
vn 0.2062 0.7206 -0.6620
vn 0.2681 0.7624 -0.5889
vn 0.3028 0.7562 -0.5801
vn -0.8232 0.4993 0.2704
vn -0.8580 0.4648 0.2188
vn 0.1769 0.6563 -0.7335
vn 0.1807 0.7338 -0.6549
vn 0.3552 0.6123 0.7064
vn 0.2437 0.6195 0.7462
vn 0.2391 0.6589 0.7132
vn -0.6110 0.6379 -0.4688
vn -0.5042 0.6591 -0.5580
vn -0.5023 0.6519 -0.5681
vn -0.7039 0.6021 -0.3768
vn -0.6174 0.6347 -0.4648
vn 0.4694 0.5979 0.6498
vn 0.2859 0.6153 0.7346
vn -0.0940 0.3429 -0.9347
vn -0.0120 0.3140 -0.9493
vn 0.0026 0.2868 -0.9580
vn 0.1044 0.9871 0.1216
vn 0.0667 0.9921 0.1062
vn 0.1493 0.9756 0.1608
vn 0.2244 0.9528 0.2044
vn -0.1668 0.3538 -0.9203
vn -0.0999 0.3535 -0.9301
vn -0.0553 0.4658 0.8832
vn -0.1350 0.4294 0.8930
vn -0.1476 0.4019 0.9037
vn -0.1910 0.9447 -0.2667
vn -0.1562 0.9560 -0.2483
vn -0.2295 0.9232 -0.3084
vn -0.2959 0.8863 -0.3562
vn 0.0172 0.4834 0.8753
vn -0.0501 0.4763 0.8778
vn -0.1062 0.9848 -0.1373
vn -0.0592 0.9757 -0.2112
vn -0.0643 0.9682 -0.2420
vn 0.6495 0.3802 0.6585
vn 0.6183 0.3993 0.6770
vn 0.6886 0.3367 0.6423
vn 0.7468 0.2809 0.6028
vn -0.1557 0.9845 -0.0809
vn -0.1041 0.9867 -0.1246
vn 0.2749 0.8095 -0.5188
vn 0.4575 0.7793 -0.4282
vn 0.4885 0.7501 -0.4457
vn -0.2592 0.7223 0.6412
vn -0.4112 0.7227 0.5555
vn -0.4260 0.7055 0.5664
vn -0.1083 0.6506 0.7517
vn -0.2700 0.7724 0.5749
vn 0.0759 0.7522 -0.6546
vn 0.2661 0.8442 -0.4653
vn 0.0753 0.8254 -0.5595
vn 0.2719 0.7677 -0.5802
vn 0.2848 0.7375 -0.6124
vn 0.2168 0.6764 0.7039
vn 0.0443 0.7011 0.7117
vn 0.0350 0.6844 0.7282
vn 0.3914 0.5788 0.7154
vn 0.1803 0.7338 0.6550
vn -0.1711 0.8028 -0.5712
vn 0.1006 0.8552 -0.5084
vn -0.7946 0.5429 -0.2718
vn -0.7384 0.5493 -0.3912
vn -0.7164 0.5901 -0.3724
vn 0.8177 0.5684 -0.0916
vn 0.8051 0.5907 0.0541
vn 0.8102 0.5826 0.0641
vn 0.8149 0.5317 -0.2309
vn 0.8184 0.5660 -0.0998
vn -0.8313 0.5339 -0.1546
vn -0.7566 0.5502 -0.3533
vn -0.4655 0.8537 0.2334
vn -0.2999 0.8838 0.3591
vn -0.4840 0.8602 0.1606
vn 0.2853 0.4131 -0.8648
vn 0.2649 0.3815 -0.8856
vn 0.3179 0.3986 -0.8602
vn -0.3897 0.9169 0.0866
vn -0.3275 0.9267 -0.1843
vn 0.2919 0.4509 -0.8435
vn -0.4630 0.7741 0.4318
vn -0.4881 0.7155 0.4999
vn -0.5391 0.6267 0.5627
vn -0.3187 0.7657 -0.5587
vn -0.3457 0.7338 -0.5848
vn -0.3289 0.7444 -0.5812
vn -0.4017 0.8718 0.2804
vn -0.4232 0.8244 0.3758
vn -0.3261 0.7025 -0.6325
vn 0.5209 0.8488 0.0904
vn 0.5762 0.8012 0.1618
vn 0.6322 0.7494 0.1968
vn -0.6273 0.7670 0.1346
vn -0.6120 0.7908 -0.0076
vn -0.5903 0.8072 0.0094
vn 0.5204 0.8536 0.0227
vn 0.4711 0.8783 0.0810
vn -0.6133 0.7373 0.2832
vn -0.6398 0.7580 0.1269
vn 0.3734 0.3042 -0.8764
vn -0.8955 0.4315 0.1090
vn 0.5341 0.4171 0.7354
vn 0.2160 0.4623 -0.8600
vn 0.7231 0.4030 0.5609
vn -0.7375 0.4109 0.5359
vn 0.8228 0.3033 0.4806
vn 0.1103 0.7657 -0.6336
vn 0.1073 0.5366 -0.8370
vn -0.6341 0.6999 0.3287
vn 0.8019 0.5953 0.0521
vn 0.7547 0.6560 0.0092
vn -0.4831 0.8066 -0.3406
vn 0.3798 0.5003 0.7781
vn -0.7688 0.6337 -0.0859
vn -0.2752 0.6140 0.7398
vn 0.5256 0.5468 -0.6517
vn 0.0811 0.9948 -0.0612
vn 0.2187 0.9202 -0.3246
vn -0.8903 0.3499 0.2915
vn -0.2078 0.9630 0.1719
vn -0.3623 0.8391 0.4058
vn 0.8669 0.4793 -0.1371
vn 0.5908 0.4172 -0.6906
vn 0.4515 0.2092 -0.8674
vn -0.0633 0.9839 0.1670
vn 0.8274 0.5602 -0.0407
vn -0.7167 0.6961 0.0420
vn 0.6877 0.4785 -0.5460
vn -0.5779 0.7553 0.3091
vn -0.3358 0.5442 -0.7688
vn 0.0799 0.4813 0.8729
vn -0.9122 0.3855 -0.1388
vn -0.5763 0.6762 0.4588
vn -0.8739 0.4731 -0.1114
vn -0.5435 0.7226 0.4272
vn 0.2696 0.9028 0.3351
vn -0.6303 0.6416 0.4371
vn -0.0745 0.8389 -0.5392
vn 0.3635 0.7401 0.5658
vn 0.8159 0.3042 0.4918
vn 0.0167 0.4315 -0.9019
vn -0.8026 0.4171 0.4266
vn 0.8216 0.4623 0.3336
vn -0.6563 0.4030 0.6378
vn -0.4281 0.4109 -0.8049
vn -0.5904 0.3033 0.7480
vn 0.6121 0.7658 0.1974
vn 0.8139 0.5366 0.2227
vn -0.2372 0.6999 -0.6737
vn -0.1632 0.5953 0.7868
vn -0.1141 0.6560 0.7461
vn 0.4045 0.8066 -0.4310
vn -0.8234 0.5003 0.2678
vn 0.1917 0.6337 -0.7495
vn -0.6943 0.6140 -0.3754
vn 0.5723 0.5468 0.6111
vn 0.0493 0.9948 0.0888
vn 0.2910 0.9202 0.2618
vn -0.1646 0.3497 -0.9223
vn -0.1414 0.9629 -0.2297
vn -0.3514 0.8391 -0.4152
vn 0.0151 0.4793 0.8775
vn 0.6017 0.4172 0.6811
vn 0.7961 0.2092 0.5679
vn -0.1565 0.9839 -0.0859
vn -0.0749 0.5602 0.8250
vn 0.0581 0.6961 -0.7156
vn 0.4450 0.4785 0.7570
vn -0.2257 0.7553 -0.6153
vn 0.8083 0.5441 -0.2251
vn -0.8755 0.4813 -0.0424
vn 0.2644 0.3855 -0.8840
vn -0.3742 0.6762 -0.6346
vn 0.2320 0.4731 -0.8499
vn -0.3475 0.7222 -0.5980
vn -0.3694 0.9028 0.2203
vn -0.3451 0.6416 -0.6850
vn 0.5443 0.8389 0.0013
vn -0.6109 0.7401 0.2812
s 1
f 2/1/1 4/2/2 6/3/3
f 23/4/4 20/5/4 19/6/4
f 8/7/5 1/8/6 7/9/7
f 9/10/8 2/11/9 8/7/5
f 9/10/8 4/12/10 3/13/11
f 10/14/12 5/15/13 4/12/14
f 11/16/15 6/17/16 5/15/13
f 7/18/17 6/17/16 12/19/18
f 13/20/19 8/7/5 7/9/7
f 14/21/20 9/10/8 8/7/5
f 16/22/21 9/10/8 15/23/22
f 17/24/23 10/14/12 16/22/21
f 18/25/24 11/16/15 17/24/23
f 18/25/24 7/18/17 12/19/18
f 20/26/25 13/20/19 19/27/26
f 21/28/27 14/21/20 20/26/28
f 21/28/27 16/22/21 15/23/22
f 22/29/29 17/24/23 16/22/21
f 23/30/30 18/25/24 17/24/23
f 19/31/26 18/25/24 24/32/31
f 6/3/3 1/33/3 2/1/1
f 2/1/1 3/34/32 4/2/2
f 4/2/2 5/35/33 6/3/3
f 19/6/4 24/36/4 23/4/4
f 23/4/4 22/37/4 21/38/4
f 21/38/4 20/5/4 23/4/4
f 8/7/5 2/11/6 1/8/6
f 9/10/8 3/13/11 2/11/9
f 9/10/8 10/14/12 4/12/10
f 10/14/12 11/16/15 5/15/13
f 11/16/15 12/19/18 6/17/16
f 7/18/17 1/39/34 6/17/16
f 13/20/19 14/21/20 8/7/5
f 14/21/20 15/23/22 9/10/8
f 16/22/21 10/14/12 9/10/8
f 17/24/23 11/16/15 10/14/12
f 18/25/24 12/19/18 11/16/15
f 18/25/24 13/40/19 7/18/17
f 20/26/25 14/21/20 13/20/19
f 21/28/27 15/23/22 14/21/20
f 21/28/27 22/29/35 16/22/21
f 22/29/29 23/30/30 17/24/23
f 23/30/30 24/32/31 18/25/24
f 19/31/26 13/40/19 18/25/24
f 30/41/36 26/42/36 25/43/36
f 28/44/37 29/45/37 30/46/37
f 36/47/38 32/48/39 31/49/38
f 36/50/40 33/51/40 35/52/40
f 44/53/41 37/54/42 42/55/43
f 44/56/44 39/57/45 41/58/46
f 44/56/44 40/59/47 43/60/48
f 41/61/49 45/62/50 44/53/41
f 53/63/51 46/64/51 51/65/52
f 52/66/53 50/67/53 53/68/53
f 53/68/53 49/69/53 52/66/53
f 50/70/52 54/71/51 53/63/51
f 62/72/54 55/73/55 60/74/56
f 63/75/57 59/76/58 62/77/59
f 59/78/60 61/79/61 62/80/54
f 62/77/59 58/81/62 63/75/57
f 71/82/63 64/83/64 69/84/65
f 71/85/66 66/86/67 68/87/68
f 71/85/66 67/88/69 70/89/70
f 68/90/71 72/91/72 71/82/63
f 78/92/73 74/93/73 73/94/73
f 78/95/74 75/96/74 77/97/74
f 84/98/75 80/99/75 79/100/75
f 84/101/76 81/102/76 83/103/76
f 89/104/77 85/105/77 90/106/77
f 88/107/78 89/108/78 90/109/78
f 98/110/79 91/111/80 96/112/81
f 97/113/82 95/114/83 98/115/84
f 98/115/84 94/116/85 97/113/82
f 95/117/86 99/118/87 98/110/79
f 105/119/88 101/120/88 100/121/88
f 105/122/89 102/123/89 104/124/89
f 110/125/90 106/126/90 111/127/90
f 111/128/91 108/129/91 110/130/91
f 116/131/92 112/132/92 117/133/92
f 117/134/93 114/135/93 116/136/93
f 122/137/94 118/138/94 123/139/94
f 121/140/95 122/141/95 123/142/95
f 128/143/96 124/144/96 129/145/96
f 127/146/97 128/147/97 129/148/97
f 134/149/98 130/150/98 135/151/98
f 133/152/99 134/153/99 135/154/99
f 143/155/100 136/156/101 141/157/102
f 142/158/103 140/159/104 143/160/105
f 143/160/105 139/161/106 142/158/103
f 143/155/100 137/162/107 144/163/108
f 150/164/109 146/165/109 145/166/109
f 150/167/110 147/168/110 149/169/110
f 158/170/111 151/171/112 156/172/113
f 158/173/114 153/174/115 155/175/116
f 158/170/111 152/176/117 157/177/118
f 158/173/114 154/178/119 159/179/120
f 167/180/121 160/181/122 165/182/123
f 167/183/124 162/184/125 164/185/126
f 167/183/124 163/186/127 166/187/128
f 167/180/121 161/188/129 168/189/130
f 176/190/131 169/191/132 174/192/133
f 175/193/134 173/194/135 176/195/136
f 176/195/136 172/196/137 175/193/134
f 173/197/138 177/198/139 176/190/131
f 185/199/140 178/200/141 183/201/142
f 184/202/143 182/203/144 185/204/145
f 185/204/145 181/205/146 184/202/143
f 182/206/147 186/207/148 185/199/140
f 194/208/149 187/209/150 192/210/151
f 193/211/152 191/212/153 194/213/154
f 194/213/154 190/214/155 193/211/152
f 191/215/156 195/216/157 194/217/149
f 203/218/158 196/219/159 201/220/160
f 203/221/161 198/222/162 200/223/163
f 203/221/161 199/224/164 202/225/165
f 203/218/158 197/226/166 204/227/167
f 212/228/168 205/229/169 210/230/170
f 212/231/171 207/232/172 209/233/173
f 212/231/171 208/234/174 211/235/175
f 212/228/168 206/236/176 213/237/177
f 221/238/178 214/239/179 219/240/180
f 221/241/181 216/242/182 218/243/183
f 221/241/181 217/244/184 220/245/185
f 221/238/178 215/246/186 222/247/187
f 228/248/188 229/249/189 223/250/190
f 231/251/191 227/252/192 230/253/193
f 230/254/194 224/255/195 229/249/189
f 228/256/196 231/251/191 230/253/193
f 239/257/197 232/258/198 237/259/199
f 240/260/200 236/261/201 239/262/202
f 236/263/203 238/264/204 239/257/197
f 239/262/202 235/265/205 240/260/200
f 245/266/39 241/267/38 246/268/38
f 244/269/40 245/270/40 246/271/40
f 252/272/88 248/273/88 247/274/88
f 250/275/89 251/276/89 252/277/89
f 258/278/90 254/279/90 253/280/90
f 258/281/91 255/282/91 257/283/91
f 266/284/206 259/285/207 264/286/208
f 266/287/209 261/288/210 263/289/211
f 266/284/206 260/290/212 265/291/213
f 266/287/209 262/292/214 267/293/215
f 272/294/216 268/295/217 273/296/217
f 273/297/218 270/298/218 272/299/218
f 279/300/219 275/301/219 274/302/219
f 279/303/220 276/304/220 278/305/220
f 287/306/221 280/307/222 285/308/223
f 287/306/224 282/309/225 284/310/226
f 287/306/224 283/311/227 286/312/228
f 284/310/229 288/313/230 287/306/221
f 296/314/231 289/315/231 294/316/231
f 295/317/232 293/318/232 296/319/232
f 296/319/232 292/320/232 295/317/232
f 293/321/231 297/322/231 296/314/231
f 305/323/233 298/324/234 303/325/235
f 306/326/236 302/327/237 305/328/238
f 302/329/239 304/330/240 305/323/233
f 305/328/238 301/331/241 306/326/236
f 314/332/242 307/333/243 312/334/244
f 314/332/245 309/335/246 311/336/247
f 314/332/245 310/337/248 313/338/249
f 311/339/250 315/340/251 314/341/242
f 320/342/252 316/343/252 321/344/252
f 319/345/253 320/346/253 321/347/253
f 327/348/254 323/349/254 322/350/254
f 325/351/255 326/352/255 327/353/255
f 332/354/256 328/355/256 333/356/256
f 331/357/257 332/358/257 333/359/257
f 341/360/258 334/361/259 339/362/260
f 340/363/261 338/364/262 341/365/263
f 341/365/263 337/366/264 340/363/261
f 338/367/265 342/368/266 341/369/258
f 348/370/267 344/371/267 343/372/267
f 346/373/268 347/374/268 348/375/268
f 353/376/269 349/377/269 354/378/269
f 354/379/270 351/380/270 353/381/270
f 359/382/271 355/383/271 360/384/271
f 358/385/272 359/386/272 360/387/272
f 365/388/273 361/389/273 366/390/273
f 364/391/274 365/392/274 366/393/274
f 371/394/275 367/395/275 372/396/275
f 370/397/276 371/398/276 372/399/276
f 377/400/277 373/401/277 378/402/277
f 378/403/278 375/404/278 377/405/278
f 386/406/279 379/407/280 384/408/281
f 385/409/282 383/410/283 386/411/284
f 386/411/284 382/412/285 385/409/282
f 386/406/279 380/413/286 387/414/287
f 393/415/288 389/416/288 388/417/288
f 391/418/289 392/419/289 393/420/289
f 401/421/290 394/422/291 399/423/292
f 401/424/293 396/425/294 398/426/295
f 401/427/290 395/428/296 400/429/297
f 401/424/293 397/430/298 402/431/299
f 410/432/300 403/433/301 408/434/302
f 410/435/303 405/436/304 407/437/305
f 410/435/303 406/438/306 409/439/307
f 410/432/300 404/440/308 411/441/309
f 419/442/310 412/443/311 417/444/312
f 418/445/313 416/446/314 419/447/315
f 419/447/315 415/448/316 418/445/313
f 416/449/317 420/450/318 419/442/310
f 428/451/319 421/452/320 426/453/321
f 427/454/322 425/455/323 428/456/324
f 428/456/324 424/457/325 427/454/322
f 425/458/326 429/459/327 428/451/319
f 437/460/328 430/461/329 435/462/330
f 436/463/331 434/464/332 437/465/333
f 437/465/333 433/466/334 436/463/331
f 434/467/335 438/468/336 437/460/328
f 446/469/337 439/470/338 444/471/339
f 446/472/340 441/473/341 443/474/342
f 446/472/340 442/475/343 445/476/344
f 446/469/337 440/477/345 447/478/346
f 455/479/347 448/480/348 453/481/349
f 455/482/350 450/483/351 452/484/352
f 455/482/350 451/485/353 454/486/354
f 455/479/347 449/487/355 456/488/356
f 464/489/357 457/490/358 462/491/359
f 464/492/360 459/493/361 461/494/362
f 464/492/360 460/495/363 463/496/364
f 464/489/357 458/497/365 465/498/366
f 471/499/367 472/500/368 466/501/369
f 474/502/370 470/503/371 473/504/372
f 473/505/373 467/506/374 472/507/368
f 471/508/375 474/502/370 473/504/372
f 482/509/376 475/510/377 480/511/378
f 483/512/379 479/513/380 482/514/381
f 479/515/382 481/516/383 482/509/376
f 482/514/381 478/517/384 483/512/379
f 488/518/219 484/519/219 489/520/219
f 487/521/220 488/522/220 489/523/220
f 494/524/267 490/525/267 495/526/267
f 493/527/268 494/528/268 495/529/268
f 501/530/269 497/531/269 496/532/269
f 501/533/270 498/534/270 500/535/270
f 509/536/385 502/537/386 507/538/387
f 509/539/388 504/540/389 506/541/390
f 509/536/385 503/542/391 508/543/392
f 509/539/388 505/544/393 510/545/394
f 30/41/36 29/546/36 26/42/36
f 28/44/37 27/547/37 29/45/37
f 36/47/38 35/548/39 32/48/39
f 36/50/40 34/549/40 33/51/40
f 44/53/41 45/62/50 37/54/42
f 44/56/44 43/60/48 39/57/45
f 44/56/44 42/550/395 40/59/47
f 41/61/49 38/551/396 45/62/50
f 53/63/51 54/71/51 46/64/51
f 52/66/53 48/552/53 50/67/53
f 53/68/53 51/553/53 49/69/53
f 50/70/52 47/554/52 54/71/51
f 62/72/54 61/555/61 55/73/55
f 63/75/57 57/556/397 59/76/58
f 59/78/60 56/557/398 61/79/61
f 62/77/59 60/558/399 58/81/62
f 71/82/63 72/91/72 64/83/64
f 71/85/66 70/89/70 66/86/67
f 71/85/66 69/559/400 67/88/69
f 68/90/71 65/560/401 72/91/72
f 78/92/73 77/561/73 74/93/73
f 78/95/74 76/562/74 75/96/74
f 84/98/75 83/563/75 80/99/75
f 84/101/76 82/564/76 81/102/76
f 89/104/77 86/565/77 85/105/77
f 88/107/78 87/566/78 89/108/78
f 98/110/79 99/118/87 91/111/80
f 97/113/82 93/567/402 95/114/83
f 98/115/84 96/568/403 94/116/85
f 95/117/86 92/569/404 99/118/87
f 105/119/88 104/570/88 101/120/88
f 105/122/89 103/571/89 102/123/89
f 110/125/90 107/572/90 106/126/90
f 111/128/91 109/573/91 108/129/91
f 116/131/92 113/574/92 112/132/92
f 117/134/93 115/575/93 114/135/93
f 122/137/94 119/576/94 118/138/94
f 121/140/95 120/577/95 122/141/95
f 128/143/96 125/578/96 124/144/96
f 127/146/97 126/579/97 128/147/97
f 134/149/98 131/580/98 130/150/98
f 133/152/99 132/581/99 134/153/99
f 143/155/100 144/163/108 136/156/101
f 142/158/103 138/582/405 140/159/104
f 143/160/105 141/583/406 139/161/106
f 143/155/100 140/584/407 137/162/107
f 150/164/109 149/585/109 146/165/109
f 150/167/110 148/586/110 147/168/110
f 158/170/111 157/177/118 151/171/112
f 158/173/114 159/179/120 153/174/115
f 158/170/111 155/587/408 152/176/117
f 158/173/114 156/588/409 154/178/119
f 167/180/121 168/189/130 160/181/122
f 167/183/124 166/187/128 162/184/125
f 167/183/124 165/589/410 163/186/127
f 167/180/121 164/590/411 161/188/129
f 176/190/131 177/198/139 169/191/132
f 175/193/134 171/591/412 173/194/135
f 176/195/136 174/592/413 172/196/137
f 173/197/138 170/593/414 177/198/139
f 185/199/140 186/207/148 178/200/141
f 184/202/143 180/594/415 182/203/144
f 185/204/145 183/595/416 181/205/146
f 182/206/147 179/596/417 186/207/148
f 194/208/149 195/597/157 187/209/150
f 193/211/152 189/598/418 191/212/153
f 194/213/154 192/599/419 190/214/155
f 191/215/156 188/600/420 195/216/157
f 203/218/158 204/227/167 196/219/159
f 203/221/161 202/225/165 198/222/162
f 203/221/161 201/601/421 199/224/164
f 203/218/158 200/602/422 197/226/166
f 212/228/168 213/237/177 205/229/169
f 212/231/171 211/235/175 207/232/172
f 212/231/171 210/603/423 208/234/174
f 212/228/168 209/604/424 206/236/176
f 221/238/178 222/247/187 214/239/179
f 221/241/181 220/245/185 216/242/182
f 221/241/181 219/605/425 217/244/184
f 221/238/178 218/606/426 215/246/186
f 228/248/188 230/254/194 229/249/189
f 231/251/191 225/607/427 227/252/192
f 230/254/194 227/608/428 224/255/195
f 228/256/196 226/609/429 231/251/191
f 239/257/197 238/264/204 232/258/198
f 240/260/200 234/610/430 236/261/201
f 236/263/203 233/611/431 238/264/204
f 239/262/202 237/612/432 235/265/205
f 245/266/39 242/613/39 241/267/38
f 244/269/40 243/614/40 245/270/40
f 252/272/88 251/615/88 248/273/88
f 250/275/89 249/616/89 251/276/89
f 258/278/90 257/617/90 254/279/90
f 258/281/91 256/618/91 255/282/91
f 266/284/206 265/291/213 259/285/207
f 266/287/209 267/293/215 261/288/210
f 266/284/206 263/619/433 260/290/212
f 266/287/209 264/620/434 262/292/214
f 272/294/216 269/621/216 268/295/217
f 273/297/218 271/622/218 270/298/218
f 279/300/219 278/623/219 275/301/219
f 279/303/220 277/624/220 276/304/220
f 287/306/221 288/313/230 280/307/222
f 287/306/224 286/312/228 282/309/225
f 287/306/224 285/308/435 283/311/227
f 284/310/229 281/625/436 288/313/230
f 296/314/231 297/322/231 289/315/231
f 295/317/232 291/626/232 293/318/232
f 296/319/232 294/627/232 292/320/232
f 293/321/231 290/628/231 297/322/231
f 305/323/233 304/330/240 298/324/234
f 306/326/236 300/629/437 302/327/237
f 302/329/239 299/630/438 304/330/240
f 305/328/238 303/631/439 301/331/241
f 314/332/242 315/632/251 307/333/243
f 314/332/245 313/338/249 309/335/246
f 314/332/245 312/334/440 310/337/248
f 311/339/250 308/633/441 315/340/251
f 320/342/252 317/634/252 316/343/252
f 319/345/253 318/635/253 320/346/253
f 327/348/254 326/636/254 323/349/254
f 325/351/255 324/637/255 326/352/255
f 332/354/256 329/638/256 328/355/256
f 331/357/257 330/639/257 332/358/257
f 341/360/258 342/640/266 334/361/259
f 340/363/261 336/641/442 338/364/262
f 341/365/263 339/642/443 337/366/264
f 338/367/265 335/643/444 342/368/266
f 348/370/267 347/644/267 344/371/267
f 346/373/268 345/645/268 347/374/268
f 353/376/269 350/646/269 349/377/269
f 354/379/270 352/647/270 351/380/270
f 359/382/271 356/648/271 355/383/271
f 358/385/272 357/649/272 359/386/272
f 365/388/273 362/650/273 361/389/273
f 364/391/274 363/651/274 365/392/274
f 371/394/275 368/652/275 367/395/275
f 370/397/276 369/653/276 371/398/276
f 377/400/277 374/654/277 373/401/277
f 378/403/278 376/655/278 375/404/278
f 386/406/279 387/414/287 379/407/280
f 385/409/282 381/656/445 383/410/283
f 386/411/284 384/657/446 382/412/285
f 386/406/279 383/658/447 380/413/286
f 393/415/288 392/659/288 389/416/288
f 391/418/289 390/660/289 392/419/289
f 401/421/290 400/661/297 394/422/291
f 401/424/293 402/431/299 396/425/294
f 401/427/290 398/662/448 395/428/296
f 401/424/293 399/663/449 397/430/298
f 410/432/300 411/441/309 403/433/301
f 410/435/303 409/439/307 405/436/304
f 410/435/303 408/664/450 406/438/306
f 410/432/300 407/665/451 404/440/308
f 419/442/310 420/450/318 412/443/311
f 418/445/313 414/666/452 416/446/314
f 419/447/315 417/667/453 415/448/316
f 416/449/317 413/668/454 420/450/318
f 428/451/319 429/459/327 421/452/320
f 427/454/322 423/669/455 425/455/323
f 428/456/324 426/670/456 424/457/325
f 425/458/326 422/671/457 429/459/327
f 437/460/328 438/468/336 430/461/329
f 436/463/331 432/672/458 434/464/332
f 437/465/333 435/673/459 433/466/334
f 434/467/335 431/674/460 438/468/336
f 446/469/337 447/478/346 439/470/338
f 446/472/340 445/476/344 441/473/341
f 446/472/340 444/675/461 442/475/343
f 446/469/337 443/676/462 440/477/345
f 455/479/347 456/488/356 448/480/348
f 455/482/350 454/486/354 450/483/351
f 455/482/350 453/677/463 451/485/353
f 455/479/347 452/678/464 449/487/355
f 464/489/357 465/498/366 457/490/358
f 464/492/360 463/496/364 459/493/361
f 464/492/360 462/679/465 460/495/363
f 464/489/357 461/680/466 458/497/365
f 471/499/367 473/681/373 472/500/368
f 474/502/370 468/682/467 470/503/371
f 473/505/373 470/683/468 467/506/374
f 471/508/375 469/684/469 474/502/370
f 482/509/376 481/516/383 475/510/377
f 483/512/379 477/685/470 479/513/380
f 479/515/382 476/686/471 481/516/383
f 482/514/381 480/687/472 478/517/384
f 488/518/219 485/688/219 484/519/219
f 487/521/220 486/689/220 488/522/220
f 494/524/267 491/690/267 490/525/267
f 493/527/268 492/691/268 494/528/268
f 501/530/269 500/692/269 497/531/269
f 501/533/270 499/693/270 498/534/270
f 509/536/385 508/543/392 502/537/386
f 509/539/388 510/545/394 504/540/389
f 509/536/385 506/694/473 503/542/391
f 509/539/388 507/695/474 505/544/393
