# Blender v2.79 (sub 0) OBJ File: ''
# www.blender.org
o PineTree_Untitled.001
v -2.107405 259.980072 1.088620
v -1.604944 259.979858 1.063107
v -1.878275 259.976044 0.640752
v 1.382273 -18.698189 3.573193
v -4.748894 -18.715143 7.539781
v -4.933672 -18.715683 3.893239
v -3.584345 67.653564 3.687225
v -2.122137 259.977417 0.798545
v -3.688152 67.606888 1.641273
v -1.759731 67.674416 4.620364
v -1.848812 259.981354 1.220901
v -0.038929 67.648605 3.507545
v -1.619674 259.977234 0.773034
v -0.142734 67.601952 1.461590
v -1.967350 67.581093 0.528453
v -4.452642 23.688385 4.252148
v -4.307549 23.740522 7.112302
v 0.647921 23.741659 6.860878
v -1.757266 23.767149 8.416672
v 0.502826 23.689499 4.000720
v -2.047455 23.662865 2.696356
v -1.498534 -18.706163 9.203027
v 1.567049 -18.697695 7.219735
v -1.868087 -18.707153 1.909948
v -0.745502 254.992584 -0.093456
v -3.175815 249.774384 10.332248
v 2.698290 252.988068 0.896661
v -3.007962 252.988068 -2.655751
v -6.619604 251.778900 9.342132
v -0.714781 255.797211 0.186710
v 1.510470 250.578979 -10.284688
v -4.177340 253.792664 -0.735637
v 7.285336 250.578979 -6.844938
v 4.973025 252.583527 -9.362340
v -2.588331 258.615936 -1.901531
v -1.454403 260.159607 1.729810
v -0.802609 261.033020 -0.086292
v -1.352239 255.962372 -3.442884
v -4.313191 257.588593 -4.152130
v 0.989344 259.866180 0.128856
v 0.219220 257.575470 -1.454681
v -3.722333 257.784576 -0.306122
v -5.878566 255.778381 -0.241227
v 0.227039 255.000702 3.447812
v -0.616574 258.235565 -0.034763
v -4.771424 252.543549 -3.475157
v -11.722676 253.049408 -0.470528
v 0.490571 255.000702 -3.268695
v -5.034956 252.543549 3.241350
v 2.110690 256.829285 -0.475085
v -2.236917 258.144043 -2.092684
v -0.703909 260.101807 0.095247
v 1.806980 254.729004 1.936483
v 6.387501 254.888824 -1.508322
v 0.854684 255.129639 -2.729739
v -1.184495 258.162598 2.524865
v -1.023549 256.603058 3.531380
v 0.967097 258.903748 -1.130076
v -0.893598 260.153534 0.247437
v -4.148881 253.406708 4.230881
v -1.209965 254.863190 7.200551
v -2.881759 259.031921 -1.324558
v -3.860420 255.869598 0.942557
v 1.180094 255.299866 2.750159
v -0.021832 222.623856 -0.329121
v -3.769320 211.306458 19.275827
v 7.352731 217.769592 1.282536
v -14.518070 210.635910 12.224735
v -11.143885 216.160736 17.664164
v -0.125853 228.931244 -0.211019
v 5.070255 221.553421 14.004737
v 4.714893 226.097107 -1.705743
v -4.430788 221.553421 14.219645
v 0.229510 224.387573 15.499462
v 12.919221 216.626709 -21.414030
v -7.124786 218.816589 -1.101544
v 0.015190 223.917648 0.250065
v 4.311460 218.816589 5.710355
v -6.073586 230.547974 -4.776643
v -2.087498 231.143585 5.040284
v -0.477570 234.677307 -0.557126
v -1.864401 227.568268 -8.110256
v -13.698977 227.379150 -10.466612
v 4.387434 230.398956 -3.426262
v -7.975992 227.363312 0.619099
v 0.218679 224.971313 -0.211602
v -19.371822 215.010025 5.604579
v 1.829087 221.144760 6.436430
v -18.868753 215.010025 -7.216843
v -20.982227 218.836578 -1.043453
v 12.716274 219.913544 17.380028
v 4.019782 222.285034 -5.700861
v -0.266641 226.216583 -0.131423
v 6.412500 215.981995 19.662109
v 17.120743 225.466339 -3.478807
v -2.782223 227.385010 -4.924479
v -0.146416 230.565857 0.113734
v 16.657557 222.285492 1.925434
v 17.044735 232.263428 4.605909
v 0.015531 233.952454 -5.864263
v -0.210584 236.898193 0.027617
v -2.934284 233.432251 4.363470
v -17.906916 246.275970 -0.706717
v 0.529447 244.947571 5.300607
v 0.179849 248.037842 -0.181749
v 0.883329 244.615662 -5.009058
v 4.298131 230.168701 -18.344757
v -6.009056 232.233185 0.491626
v 0.100262 235.655792 0.162464
v 5.183334 232.233185 3.030321
v 3.226452 243.583160 -8.684395
v -6.144913 242.971741 -1.352228
v 0.065841 246.269653 0.171742
v 7.682232 240.606659 -5.962852
v 6.987155 242.163330 -18.391098
v 4.502981 242.298065 2.739905
v 0.762176 238.781586 -19.972361
v -2.944917 240.113556 -10.085463
v -0.173570 216.671585 -1.167220
v 3.788843 206.633240 -12.351101
v -4.412102 213.356262 -0.912986
v 10.798171 207.646790 -8.332281
v 8.027373 209.948563 -12.605337
v -4.099959 214.043808 3.203418
v 3.928122 214.547699 0.213875
v 0.209287 217.675186 -0.540428
v -10.922862 209.792221 3.406624
v -9.386436 211.726669 7.720387
v -5.660995 208.669586 8.457129
v -0.493773 210.764526 4.143385
v -1.329464 215.789276 -4.855972
v -5.683854 212.527100 -1.084412
v 8.187160 231.627014 7.120776
v 2.705023 230.626862 -6.409445
v 0.590959 235.065094 0.585396
v 13.075301 225.540436 20.195738
v 18.825243 231.691223 16.095253
v -5.561987 229.693146 4.093204
v 2.289796 226.395752 10.242105
v 19.931673 221.992416 6.898338
v 10.079604 226.068970 -0.642443
v -3.407724 236.471649 -10.021241
v -3.505520 232.014832 1.974470
v -1.064522 238.807465 0.363571
v 4.204309 235.471832 -13.070685
v -7.854899 235.796173 -22.206657
v 7.725942 236.255768 -2.881609
v -6.261654 230.130371 -8.496580
v 2.101829 249.835022 8.838093
v 3.915685 247.085876 -2.136338
v 0.709922 252.630280 -0.056815
v -4.629811 248.142761 10.530003
v 4.917440 248.462158 19.741991
v -6.844125 249.494324 1.463798
v 5.594280 244.702576 6.939504
v -5.566020 249.101562 -4.289785
v -2.885537 248.942322 4.123740
v 0.727303 249.979950 -0.689245
v -4.777647 245.183563 -6.222960
v -12.470477 249.483917 -9.426476
v 1.040932 245.020996 -2.022453
v -9.123886 248.381500 0.286268
v 1.855876 250.714447 -6.776031
v -4.616306 249.934570 -0.761262
v 0.281047 252.776306 -0.124161
v 7.816016 249.561096 -14.502383
v 4.010493 252.820129 -16.316929
v 3.842578 248.692993 1.479536
v 5.630644 248.143951 -5.521725
v -0.724064 249.047852 -16.909433
v -2.949865 248.359863 -7.618365
v -1.986566 224.935211 -6.535233
v -4.316096 225.126404 2.044151
v 0.222982 227.671051 -0.503587
v -1.026393 222.712723 -15.926628
v -5.164485 226.028259 -16.077032
v 4.029560 223.537201 -0.249509
v 1.840294 222.253250 -6.968543
v -9.556451 222.556000 -13.403007
v -6.548616 222.848312 -4.298800
v -9.918969 231.279297 0.423133
v 2.249299 230.185364 5.826378
v -0.795226 235.039917 -0.101815
v -21.409136 224.621704 -5.057766
v -22.583538 231.349548 1.275065
v 1.019045 229.164001 -6.301143
v -8.027526 225.557281 -5.360734
v -17.482893 220.740875 8.009531
v -6.242265 225.199860 6.715008
v -0.016489 241.431793 -0.281461
v 3.175427 236.947327 8.986758
v 6.453899 239.512756 1.150427
v -5.552807 234.223267 3.354890
v -7.084987 234.148132 13.154144
v -3.212317 239.779419 7.425598
v 0.722096 237.575592 16.224764
v -0.324405 244.138641 6.551840
v 5.307007 244.474121 -1.863136
v -0.108158 247.743805 -0.134408
v -5.284910 241.878937 5.953969
v 0.022684 239.962372 16.920256
v 5.390772 241.918610 5.751443
v -5.355194 244.478821 -1.618487
v 9.051326 237.455444 -14.986484
v -5.468636 239.374115 -1.297483
v 0.025810 242.554962 0.166114
v 3.695021 239.374115 4.160772
v 0.181649 243.612976 -0.185324
v -16.103056 235.332611 4.649407
v 1.520308 240.432129 5.340887
v 1.938485 240.432129 -5.316987
v -17.441717 238.513428 -0.876805
v -0.215875 244.857147 -0.116998
v 13.756083 236.576782 9.544820
v 3.252107 241.676300 -4.623015
v 5.187963 236.576782 15.897183
v 10.288100 239.757629 14.050836
v 8.611338 248.421631 -1.726907
v -1.721297 247.309937 -5.073572
v -0.172025 250.664032 0.102994
v 18.951857 245.530396 1.750454
v 18.746027 248.350800 -3.246900
v 16.776699 245.501190 -8.713178
v 7.088903 246.243927 -6.913720
v 0.455806 247.316650 5.391883
v 9.538305 244.772491 3.766926
v -14.453573 209.467377 -12.593489
v -2.581952 211.498718 4.882779
v -0.129560 214.866333 -0.614952
v -9.661849 206.099747 -15.758324
v -0.602839 216.218048 -0.629349
v 16.297516 207.451477 5.520979
v 1.741194 212.850449 -6.174148
v 9.224790 207.451477 14.324036
v 13.953484 210.819092 11.065780
v 3.309300 220.953506 -3.258007
v -2.997066 223.546829 -2.220599
v -0.128118 225.014191 -0.711623
v 5.584545 216.495529 -0.841212
v 7.456784 219.227539 -5.601345
v -0.905024 223.053833 2.219238
v 1.909472 219.205521 1.308272
v 0.920253 219.556793 -5.517604
v 1.316438 216.186462 -9.119979
v -6.248349 214.879929 0.175024
v -0.257347 220.314484 -0.414178
v 6.437677 210.751923 -6.521968
v 3.064323 211.601822 -18.788872
v 4.863892 214.879929 2.183833
v -4.674565 210.751923 -8.530778
v -0.162474 217.951965 4.225957
v 3.545150 220.160706 -2.628687
v -0.453211 223.449783 -0.589867
v -4.103446 214.423462 3.156840
v 0.556503 214.691971 11.582619
v 3.882130 215.096573 2.663569
v -4.382861 220.191925 -1.957463
v -6.094974 217.571869 -1.925043
v 1.194587 221.436951 2.476575
v -0.662051 223.536591 -0.941027
v -6.527963 212.201996 -7.288029
v -12.155578 214.648926 -3.093063
v 2.418034 221.652374 -3.881067
v -1.124817 216.339691 -6.039286
v -5.310537 215.382507 1.923685
v -27.240665 149.629166 -22.066095
v -4.312201 152.332031 12.535823
v 0.093274 160.487167 0.644024
v 9.931444 151.205521 -3.697631
v -0.078882 171.083527 0.443371
v -24.943710 158.688843 5.764035
v 1.275987 166.322174 8.846111
v 3.139897 166.322174 -7.010461
v -26.298576 163.450165 -2.638706
v 32.145248 150.411987 27.103146
v 3.039045 154.090973 -10.992143
v -0.878942 162.660706 0.570199
v -10.967423 154.090973 6.440976
v 8.907320 173.799591 -8.384035
v -8.356511 174.800171 -4.047908
v 0.579157 180.736816 -0.060828
v 13.469101 168.793671 -0.602035
v 20.156271 168.476044 -19.739576
v 4.214880 173.549255 8.703619
v 0.375540 168.449402 -12.810538
v -0.158471 164.430878 1.016680
v -5.254069 147.695999 -32.934772
v -11.594948 158.002289 2.141439
v 9.617681 158.002289 5.976135
v 6.182407 154.124573 -34.059532
v -32.346687 155.933868 17.695084
v 8.084948 159.917938 8.623788
v -0.178385 166.522888 0.190535
v -34.669380 149.328918 6.674296
v 1.325120 165.262482 29.899567
v 8.383710 168.485840 -2.873824
v -0.614347 173.829651 0.333235
v -9.496774 168.485840 -1.700917
v -12.107169 176.681503 27.882830
v 9.293033 179.519058 2.000373
v -0.456067 184.467896 0.246623
v -7.032547 178.645172 -5.298406
v 4.903182 200.222504 -29.022005
v -9.401454 197.990814 0.244905
v -0.199036 203.182388 0.945133
v 7.667396 197.433136 3.244139
v 29.054785 173.162415 12.043141
v 0.127722 176.630737 -9.508450
v -0.753083 182.380676 0.732231
v 23.095224 167.412476 19.829014
v 13.233989 195.698578 8.001584
v 3.227010 194.671448 -9.303338
v -0.760461 200.211823 0.672812
v 7.664508 190.698029 14.778077
v 28.503170 193.313232 16.527567
v -6.070414 193.539642 7.454152
v 32.589287 187.631943 6.541144
v 17.007780 189.869720 -1.937782
v 1.523042 150.487396 0.587534
v 19.202538 133.623077 9.794456
v 2.091090 144.917694 -6.523306
v -6.233631 146.620407 4.198062
v 18.634493 139.192780 16.905300
v -4.830114 146.072754 -6.966465
v -1.733630 146.919281 7.088361
v 0.390767 152.173416 1.077926
v -3.572914 138.930145 -18.364849
v -11.108698 142.179993 -16.817383
v -13.205418 137.044113 -10.791851
v -7.237045 140.563614 -1.186846
v 7.930062 149.005127 -0.472992
v 2.673631 143.524704 -8.598968
v -14.220023 175.612335 12.559000
v 9.571188 173.932159 6.602185
v -1.571423 181.388290 1.449690
v -37.114960 165.386963 17.634054
v -31.637606 175.720245 28.158638
v -5.968541 172.363464 -9.606778
v -18.033936 166.823914 2.018095
v -16.595955 159.426361 32.149666
v -1.747287 166.274933 17.522459
v 17.009148 183.751282 -2.722751
v -2.924549 176.263916 -5.690169
v -0.815316 187.675476 -1.252569
v 20.302559 182.071625 10.653933
v 38.321106 182.616562 -7.272182
v 2.528204 183.388641 14.130360
v 15.139925 173.098053 -7.827154
v -15.654196 206.201691 2.033691
v 2.179223 201.583084 7.617223
v -0.530814 210.897675 1.797784
v -16.895004 203.358704 -9.560933
v -34.452679 203.895248 4.168421
v -1.294359 205.629272 -11.124982
v -13.312200 197.579178 8.287781
v 7.978705 204.969421 -7.653431
v -6.645107 204.701904 -5.161236
v 0.517260 206.445099 1.974563
v 11.010482 198.387222 -5.889867
v 18.138649 205.611755 -17.938967
v 2.661904 198.114136 2.808034
v 1.197659 203.759766 -14.642366
v 10.379618 207.679047 5.275251
v 1.886459 206.368927 -6.898448
v -0.318497 211.142960 1.100031
v 21.839958 205.741425 16.997286
v 25.748480 211.216568 11.090528
v -3.819198 204.283035 6.650176
v 7.410321 203.360687 11.261838
v 27.841179 204.879242 3.352444
v 12.904583 203.723389 -2.522833
v 10.877392 164.370178 -1.173532
v -2.850960 164.691437 -7.054979
v 0.326283 168.966385 1.092109
v 26.276804 160.636444 2.619648
v 27.494551 166.206543 -4.229481
v -0.986430 162.021545 7.365480
v 10.703500 159.864532 5.294301
v 24.072819 160.373169 -12.161354
v 8.223416 160.864258 -9.286053
v 1.155849 175.028198 -15.997128
v -10.678279 173.190369 2.983169
v -0.104047 181.346008 -0.695750
v 12.960604 163.843567 -33.831154
v 2.699637 175.146240 -37.265614
v 9.785211 171.474548 3.772002
v 10.335880 165.415314 -11.498133
v -9.696689 157.323761 -30.354578
v -10.171234 164.814804 -11.351522
v 0.012751 192.084335 0.641801
v -16.152554 184.550415 3.784998
v -3.882240 188.860352 11.071412
v -4.742398 179.974030 -9.418873
v -20.686600 179.847809 -14.259031
v -12.061814 189.308350 -6.476900
v -27.620386 185.605942 -1.988784
v -11.283414 196.631775 -1.468150
v 1.399407 197.195389 9.868004
v -0.210454 202.688416 0.454923
v -9.128955 192.835510 -9.580866
v -28.613895 189.615692 -3.314960
v -11.288109 192.902130 8.226995
v 3.485329 197.203323 -7.927274
v 22.356489 185.404083 19.165569
v 2.977808 188.627441 -8.191064
v -0.741746 193.971252 0.607524
v -8.245319 188.627441 5.777784
v 5.077376 187.181519 -28.208326
v -9.700140 190.404877 1.883920
v -0.193512 195.748688 0.948957
v 7.932966 190.404877 5.071533
v -0.214232 197.838913 0.271648
v -19.554825 183.927948 21.256927
v 6.471310 192.495102 7.094669
v -28.119570 183.927948 5.517408
v -26.240370 189.271729 14.433908
v 0.400188 203.827133 15.333380
v 8.383710 201.959534 -1.073934
v -0.590470 207.594360 0.293167
v -7.802613 198.969849 31.723251
v 0.559321 203.708191 32.549267
v 10.113689 198.920807 30.551077
v 9.385140 200.168640 14.013322
v -9.536082 201.970795 0.101057
v -8.956317 197.696671 15.591004
v -8.882062 249.774353 6.779837
v 1.597526 253.792664 2.704111
v -4.978058 255.995483 -2.193600
v -10.615531 249.814514 -3.704461
v -10.879062 249.814514 3.012046
v 5.589308 252.074127 1.101699
v 4.702448 252.453796 -3.581374
v 0.596919 252.678650 5.695774
v -3.396024 217.099045 -5.768551
v -4.786150 226.097107 -1.490836
v 5.779245 211.525635 -22.765642
v 17.215490 211.525635 -15.953741
v -9.489719 224.780151 -13.809230
v -15.884245 223.972809 -5.252600
v 2.332153 221.144760 -6.384992
v 17.002695 215.982010 11.810584
v -6.570411 222.285034 2.150662
v 14.484941 222.285492 -8.517025
v -0.609605 227.385010 5.517977
v 17.270851 229.317657 -1.285967
v 14.321036 228.797485 8.941759
v -17.557320 243.185730 4.775641
v -17.203434 242.853790 -5.534026
v -1.811187 226.746094 -18.015594
v 9.381205 226.746094 -15.476897
v 11.517620 237.047089 -15.596974
v 2.597227 214.369797 3.105834
v -0.429164 235.194672 -24.968863
v -10.834399 229.306335 -21.187256
v -1.681725 247.153625 21.260824
v 8.492483 243.164337 18.272530
v -11.422675 245.808533 -11.410302
v -16.356245 248.714417 -5.005087
v -8.822426 230.147278 10.161898
v -2.191249 237.536835 -4.544176
v -5.111864 237.534393 15.720316
v 5.666270 238.979919 15.683773
v 3.556880 234.274597 -16.450087
v 12.720540 234.274597 -10.991834
v -15.684879 235.332611 -6.008469
v -5.316012 241.676300 1.729349
v -16.905966 206.099747 -7.095760
v 4.662162 211.498718 -3.779786
v -5.331534 212.850449 2.628906
v 4.353939 216.551239 -7.165369
v 8.185567 206.167267 -16.190859
v -2.926679 206.167267 -18.199667
v -3.599012 209.963318 9.644456
v 4.399299 210.601135 9.263989
v -10.074635 210.978958 0.264775
v -31.646137 141.474030 -10.174296
v -17.402496 140.347519 -26.407747
v -23.079800 158.688843 -10.092541
v 36.063240 141.842239 15.540805
v 22.056768 141.842239 32.973930
v 24.733027 164.109711 -11.955353
v 11.992970 162.753418 -24.594173
v 15.958554 147.695999 -29.100082
v -24.083357 149.328918 26.128338
v -2.501077 159.917938 -10.830257
v 10.323174 159.918671 26.692503
v -7.557307 159.918671 27.865414
v -2.358073 171.732697 29.636591
v -18.683651 170.858795 22.337805
v -4.299237 195.030945 -29.722239
v 12.769613 194.473267 -26.723005
v 29.935589 167.412476 1.802463
v -6.712647 176.630737 8.518102
v 22.795477 184.718063 23.411335
v 10.877821 135.325775 20.515827
v 41.180214 181.606018 5.727403
v 37.321812 171.713654 -12.467354
v -35.436535 201.696930 -7.165346
v -32.843910 194.994934 10.459576
v 21.194031 199.437195 -15.731967
v 11.691570 204.319122 -25.437241
v -15.302354 173.126434 -16.449896
v 7.612854 185.540817 -1.979561
v -25.417120 185.536713 -11.576450
v -27.876358 187.965210 6.363039
v 26.076044 180.060272 10.366978
v 14.852915 180.060272 24.335827
v -4.429256 181.837708 -27.273369
v 13.203852 181.837708 -24.085754
v -2.093434 192.495102 -8.644850
vt 0.375000 5.793305
vt 0.000000 1.209169
vt 0.375000 -3.374967
vt 0.125000 -3.374967
vt 0.375000 5.793305
vt 0.500000 1.209169
vt 0.083333 0.251980
vt 0.000000 5.793305
vt 0.000000 0.251980
vt 0.166667 0.251980
vt 0.083333 5.793305
vt 0.250000 5.793305
vt 0.166667 5.793305
vt 0.250000 0.251980
vt 0.333333 5.793305
vt 0.333333 0.251980
vt 0.416667 5.793305
vt 0.500000 0.251980
vt 0.416667 0.251980
vt 0.000000 -2.315776
vt 0.083333 -2.315776
vt 0.250000 -2.315776
vt 0.166667 -2.315776
vt 0.333333 -2.315776
vt 0.416667 -2.315776
vt 0.083333 -4.793305
vt 0.000000 -4.793305
vt 0.166667 -4.793305
vt 0.250000 -4.793305
vt 0.333333 -4.793305
vt 0.500000 -4.793305
vt 0.416667 -4.793305
vt 0.500000 1.209169
vt 0.125000 5.793305
vt 0.125000 -3.374967
vt 0.375000 -3.374967
vt 0.000000 1.209169
vt 0.125000 5.793305
vt 0.500000 5.793305
vt 0.500000 -2.315776
vt 0.978518 0.015168
vt 0.511951 0.989754
vt 0.511951 0.015168
vt 0.986607 0.013393
vt 0.512450 0.986607
vt 0.512450 0.013393
vt 0.978518 0.015168
vt 0.511951 0.989754
vt 0.511951 0.015168
vt 0.512450 0.013393
vt 0.986607 0.986607
vt 0.512450 0.986607
vt 0.978518 0.512673
vt 0.511951 0.015168
vt 0.978518 0.015168
vt 0.512450 0.510198
vt 0.986607 0.986607
vt 0.512450 0.986607
vt 0.986607 0.013393
vt 0.986607 0.510198
vt 0.978518 0.989754
vt 0.511951 0.512673
vt 0.978518 0.476920
vt 0.511951 0.015168
vt 0.978518 0.015168
vt 0.986607 0.474495
vt 0.512450 0.986607
vt 0.512450 0.474495
vt 0.986607 0.013393
vt 0.978518 0.989754
vt 0.511951 0.476920
vt 0.979916 0.450442
vt 0.515475 0.017233
vt 0.979916 0.017233
vt 0.986607 0.478890
vt 0.512450 0.986607
vt 0.512450 0.478890
vt 0.978518 0.989754
vt 0.511951 0.481321
vt 0.978518 0.481321
vt 0.986607 0.013393
vt 0.978518 0.512673
vt 0.511951 0.015168
vt 0.978518 0.015168
vt 0.512450 0.510198
vt 0.986607 0.986607
vt 0.512450 0.986607
vt 0.986607 0.013393
vt 0.986607 0.510198
vt 0.978518 0.989754
vt 0.511951 0.512673
vt 0.978518 0.015168
vt 0.511951 0.989754
vt 0.511951 0.015168
vt 0.512450 0.013393
vt 0.986607 0.986607
vt 0.512450 0.986607
vt 0.978518 0.015168
vt 0.511951 0.989754
vt 0.511951 0.015168
vt 0.512450 0.013393
vt 0.986607 0.986607
vt 0.512450 0.986607
vt 0.978518 0.989754
vt 0.511951 0.015168
vt 0.978518 0.015168
vt 0.986607 0.013393
vt 0.512450 0.986607
vt 0.512450 0.013393
vt 0.978518 0.464001
vt 0.511951 0.015168
vt 0.978518 0.015168
vt 0.986607 0.461594
vt 0.512450 0.986607
vt 0.512450 0.461594
vt 0.986607 0.013393
vt 0.978518 0.989754
vt 0.511951 0.464001
vt 0.978518 0.015168
vt 0.511951 0.989754
vt 0.511951 0.015168
vt 0.512450 0.013393
vt 0.986607 0.986607
vt 0.512450 0.986607
vt 0.978518 0.989754
vt 0.511951 0.015168
vt 0.978518 0.015168
vt 0.512450 0.013393
vt 0.986607 0.986607
vt 0.512450 0.986607
vt 0.978518 0.989754
vt 0.511951 0.015168
vt 0.978518 0.015168
vt 0.512450 0.013393
vt 0.986607 0.986607
vt 0.512450 0.986607
vt 0.978518 0.989754
vt 0.511951 0.015168
vt 0.978518 0.015168
vt 0.986607 0.013393
vt 0.512450 0.986607
vt 0.512450 0.013393
vt 0.978518 0.989754
vt 0.511951 0.015168
vt 0.978518 0.015168
vt 0.986607 0.013393
vt 0.512450 0.986607
vt 0.512450 0.013393
vt 0.978518 0.989754
vt 0.511951 0.015168
vt 0.978518 0.015168
vt 0.986607 0.013393
vt 0.512450 0.986607
vt 0.512450 0.013393
vt 0.978518 0.467272
vt 0.511951 0.015168
vt 0.978518 0.015168
vt 0.986607 0.464861
vt 0.512450 0.986607
vt 0.512450 0.464861
vt 0.986607 0.013393
vt 0.511951 0.989754
vt 0.511951 0.467272
vt 0.978518 0.015168
vt 0.511951 0.989754
vt 0.511951 0.015168
vt 0.512450 0.013393
vt 0.986607 0.986607
vt 0.512450 0.986607
vt 0.978518 0.462894
vt 0.511951 0.015168
vt 0.978518 0.015168
vt 0.512450 0.460489
vt 0.986607 0.986607
vt 0.512450 0.986607
vt 0.511951 0.989754
vt 0.511951 0.462894
vt 0.986607 0.013393
vt 0.986607 0.460489
vt 0.978518 0.464001
vt 0.511951 0.015168
vt 0.978518 0.015168
vt 0.512450 0.461594
vt 0.986607 0.986607
vt 0.512450 0.986607
vt 0.986607 0.013393
vt 0.986607 0.461594
vt 0.511951 0.989754
vt 0.511951 0.464001
vt 0.978518 0.464001
vt 0.511951 0.015168
vt 0.978518 0.015168
vt 0.986607 0.461594
vt 0.512450 0.986607
vt 0.512450 0.461594
vt 0.986607 0.013393
vt 0.978518 0.989754
vt 0.511951 0.464001
vt 0.978518 0.464001
vt 0.511951 0.015168
vt 0.978518 0.015168
vt 0.986607 0.461594
vt 0.512450 0.986607
vt 0.512450 0.461594
vt 0.986607 0.013393
vt 0.978518 0.989754
vt 0.511951 0.464001
vt 0.980145 0.459133
vt 0.530011 0.010932
vt 0.980145 0.010932
vt 0.986607 0.461594
vt 0.512450 0.986607
vt 0.512450 0.461594
vt 0.986607 0.013393
vt 0.978518 0.989754
vt 0.511951 0.464001
vt 0.978518 0.464001
vt 0.978518 0.464001
vt 0.511951 0.015168
vt 0.978518 0.015168
vt 0.512450 0.461594
vt 0.986607 0.986607
vt 0.512450 0.986607
vt 0.986607 0.013393
vt 0.986607 0.461594
vt 0.511951 0.989754
vt 0.511951 0.464001
vt 0.978518 0.464001
vt 0.511951 0.015168
vt 0.978518 0.015168
vt 0.512450 0.461594
vt 0.986607 0.986607
vt 0.512450 0.986607
vt 0.986607 0.013393
vt 0.986607 0.461594
vt 0.511951 0.989754
vt 0.511951 0.464001
vt 0.978518 0.464001
vt 0.511951 0.015168
vt 0.978518 0.015168
vt 0.512450 0.461594
vt 0.986607 0.986607
vt 0.512450 0.986607
vt 0.986607 0.013393
vt 0.986607 0.461594
vt 0.511951 0.989754
vt 0.511951 0.464001
vt 0.978518 0.015168
vt 0.511951 0.528935
vt 0.511951 0.015168
vt 0.986607 0.526437
vt 0.512450 0.986607
vt 0.512450 0.526437
vt 0.978518 0.528935
vt 0.511951 0.989754
vt 0.512450 0.013393
vt 0.978518 0.452901
vt 0.511951 0.015168
vt 0.978518 0.015168
vt 0.986607 0.450510
vt 0.512450 0.986607
vt 0.512450 0.450510
vt 0.978518 0.989754
vt 0.511951 0.452901
vt 0.986607 0.013393
vt 0.978518 0.989754
vt 0.511951 0.015168
vt 0.978518 0.015168
vt 0.986607 0.013393
vt 0.512450 0.986607
vt 0.512450 0.013393
vt 0.978518 0.015168
vt 0.511951 0.989754
vt 0.511951 0.015168
vt 0.986607 0.013393
vt 0.512450 0.986607
vt 0.512450 0.013393
vt 0.978518 0.015168
vt 0.511951 0.989754
vt 0.511951 0.015168
vt 0.512450 0.013393
vt 0.986607 0.986607
vt 0.512450 0.986607
vt 0.978518 0.486174
vt 0.511951 0.015168
vt 0.978518 0.015168
vt 0.512450 0.483736
vt 0.986607 0.986607
vt 0.512450 0.986607
vt 0.511951 0.989754
vt 0.511951 0.486174
vt 0.986607 0.013393
vt 0.986607 0.483736
vt 0.961238 0.973619
vt 0.514466 0.006695
vt 0.961238 0.006695
vt 0.512450 0.013393
vt 0.986607 0.986607
vt 0.512450 0.986607
vt 0.961238 0.006695
vt 0.514466 0.973619
vt 0.514466 0.006695
vt 0.512450 0.013393
vt 0.986607 0.986607
vt 0.512450 0.986607
vt 0.512450 0.510198
vt 0.013393 0.013393
vt 0.512450 0.013393
vt 0.986607 0.986607
vt 0.512450 0.986607
vt 0.986607 0.013393
vt 0.986607 0.510198
vt 0.013393 0.510198
vt 0.961238 0.464817
vt 0.514466 0.006695
vt 0.961238 0.006695
vt 0.986607 0.474495
vt 0.512450 0.986607
vt 0.512450 0.474495
vt 0.986607 0.013393
vt 0.961238 0.973619
vt 0.514466 0.464817
vt 0.961238 0.469183
vt 0.514466 0.006695
vt 0.961238 0.006695
vt 0.986607 0.478890
vt 0.512450 0.986607
vt 0.512450 0.478890
vt 0.961238 0.973619
vt 0.514466 0.469183
vt 0.986607 0.013393
vt 0.512450 0.510198
vt 0.013393 0.013393
vt 0.512450 0.013393
vt 0.986607 0.986607
vt 0.512450 0.986607
vt 0.986607 0.013393
vt 0.986607 0.510198
vt 0.961238 0.973619
vt 0.514466 0.500289
vt 0.961238 0.500289
vt 0.961238 0.973619
vt 0.514466 0.006695
vt 0.961238 0.006695
vt 0.986607 0.013393
vt 0.512450 0.986607
vt 0.512450 0.013393
vt 0.961238 0.006695
vt 0.514466 0.973619
vt 0.514466 0.006695
vt 0.986607 0.013393
vt 0.512450 0.986607
vt 0.512450 0.013393
vt 0.961238 0.973619
vt 0.514466 0.006695
vt 0.961238 0.006695
vt 0.986607 0.013393
vt 0.512450 0.986607
vt 0.512450 0.013393
vt 0.966613 0.459133
vt 0.528778 0.010932
vt 0.966613 0.010932
vt 0.986607 0.461594
vt 0.512450 0.986607
vt 0.512450 0.461594
vt 0.986607 0.013393
vt 0.961238 0.973619
vt 0.514466 0.451999
vt 0.961238 0.451999
vt 0.961238 0.006695
vt 0.514466 0.973619
vt 0.514466 0.006695
vt 0.986607 0.013393
vt 0.512450 0.986607
vt 0.512450 0.013393
vt 0.961238 0.973619
vt 0.514466 0.006695
vt 0.961238 0.006695
vt 0.512450 0.013393
vt 0.986607 0.986607
vt 0.512450 0.986607
vt 0.961238 0.973619
vt 0.514466 0.006695
vt 0.961238 0.006695
vt 0.986607 0.013393
vt 0.512450 0.986607
vt 0.512450 0.013393
vt 0.961238 0.973619
vt 0.514466 0.006695
vt 0.961238 0.006695
vt 0.986607 0.013393
vt 0.512450 0.986607
vt 0.512450 0.013393
vt 0.961238 0.973619
vt 0.514466 0.006695
vt 0.961238 0.006695
vt 0.986607 0.013393
vt 0.512450 0.986607
vt 0.512450 0.013393
vt 0.961238 0.973619
vt 0.514466 0.006695
vt 0.961238 0.006695
vt 0.512450 0.013393
vt 0.986607 0.986607
vt 0.512450 0.986607
vt 0.961238 0.455245
vt 0.514466 0.006695
vt 0.961238 0.006695
vt 0.986607 0.464861
vt 0.512450 0.986607
vt 0.512450 0.464861
vt 0.986607 0.013393
vt 0.514466 0.973619
vt 0.514466 0.455245
vt 0.961238 0.006695
vt 0.514466 0.973619
vt 0.514466 0.006695
vt 0.986607 0.013393
vt 0.512450 0.986607
vt 0.512450 0.013393
vt 0.966613 0.458028
vt 0.528778 0.010932
vt 0.966613 0.010932
vt 0.512450 0.460489
vt 0.986607 0.986607
vt 0.512450 0.986607
vt 0.961238 0.450901
vt 0.514466 0.973619
vt 0.514466 0.450901
vt 0.986607 0.013393
vt 0.986607 0.460489
vt 0.961238 0.451999
vt 0.514466 0.006695
vt 0.961238 0.006695
vt 0.512450 0.461594
vt 0.986607 0.986607
vt 0.512450 0.986607
vt 0.986607 0.013393
vt 0.986607 0.461594
vt 0.514466 0.973619
vt 0.514466 0.451999
vt 0.961238 0.451999
vt 0.514466 0.006695
vt 0.961238 0.006695
vt 0.986607 0.461594
vt 0.512450 0.986607
vt 0.512450 0.461594
vt 0.986607 0.013393
vt 0.961238 0.973619
vt 0.514466 0.451999
vt 0.961238 0.451999
vt 0.514466 0.006695
vt 0.961238 0.006695
vt 0.986607 0.461594
vt 0.512450 0.986607
vt 0.512450 0.461594
vt 0.986607 0.013393
vt 0.961238 0.973619
vt 0.514466 0.451999
vt 0.961238 0.451999
vt 0.514466 0.006695
vt 0.961238 0.006695
vt 0.986607 0.461594
vt 0.512450 0.986607
vt 0.512450 0.461594
vt 0.986607 0.013393
vt 0.961238 0.973619
vt 0.514466 0.451999
vt 0.961238 0.451999
vt 0.514466 0.006695
vt 0.961238 0.006695
vt 0.512450 0.461594
vt 0.986607 0.986607
vt 0.512450 0.986607
vt 0.986607 0.013393
vt 0.986607 0.461594
vt 0.514466 0.973619
vt 0.514466 0.451999
vt 0.961238 0.451999
vt 0.514466 0.006695
vt 0.961238 0.006695
vt 0.512450 0.461594
vt 0.986607 0.986607
vt 0.512450 0.986607
vt 0.986607 0.013393
vt 0.986607 0.461594
vt 0.514466 0.973619
vt 0.514466 0.451999
vt 0.961238 0.451999
vt 0.514466 0.006695
vt 0.961238 0.006695
vt 0.512450 0.461594
vt 0.986607 0.986607
vt 0.512450 0.986607
vt 0.986607 0.013393
vt 0.986607 0.461594
vt 0.514466 0.973619
vt 0.514466 0.451999
vt 0.966613 0.010932
vt 0.528778 0.523976
vt 0.528778 0.010932
vt 0.986607 0.526437
vt 0.512450 0.986607
vt 0.512450 0.526437
vt 0.961238 0.516423
vt 0.514466 0.973619
vt 0.514466 0.516423
vt 0.512450 0.013393
vt 0.961238 0.440987
vt 0.514466 0.006695
vt 0.961238 0.006695
vt 0.986607 0.450510
vt 0.512450 0.986607
vt 0.512450 0.450510
vt 0.961238 0.973619
vt 0.514466 0.440987
vt 0.986607 0.013393
vt 0.961238 0.973619
vt 0.514466 0.006695
vt 0.961238 0.006695
vt 0.986607 0.013393
vt 0.512450 0.986607
vt 0.512450 0.013393
vt 0.961238 0.973619
vt 0.514466 0.006695
vt 0.961238 0.006695
vt 0.986607 0.013393
vt 0.512450 0.986607
vt 0.512450 0.013393
vt 0.961238 0.006695
vt 0.514466 0.973619
vt 0.514466 0.006695
vt 0.512450 0.013393
vt 0.986607 0.986607
vt 0.512450 0.986607
vt 0.961238 0.473998
vt 0.514466 0.006695
vt 0.961238 0.006695
vt 0.512450 0.483736
vt 0.986607 0.986607
vt 0.512450 0.986607
vt 0.514466 0.973619
vt 0.514466 0.473998
vt 0.986607 0.013393
vt 0.986607 0.483736
vt 0.978518 0.989754
vt 0.986607 0.986607
vt 0.978518 0.989754
vt 0.986607 0.013393
vt 0.512450 0.013393
vt 0.511951 0.989754
vt 0.986607 0.986607
vt 0.512450 0.013393
vt 0.511951 0.989754
vt 0.515475 0.450442
vt 0.986607 0.986607
vt 0.511951 0.989754
vt 0.512450 0.013393
vt 0.512450 0.013393
vt 0.511951 0.989754
vt 0.978518 0.989754
vt 0.986607 0.013393
vt 0.978518 0.989754
vt 0.986607 0.013393
vt 0.511951 0.989754
vt 0.986607 0.986607
vt 0.986607 0.986607
vt 0.512450 0.013393
vt 0.511951 0.989754
vt 0.978518 0.989754
vt 0.986607 0.013393
vt 0.511951 0.989754
vt 0.986607 0.013393
vt 0.511951 0.989754
vt 0.986607 0.013393
vt 0.511951 0.989754
vt 0.986607 0.986607
vt 0.511951 0.989754
vt 0.986607 0.986607
vt 0.511951 0.989754
vt 0.986607 0.986607
vt 0.986607 0.986607
vt 0.512450 0.013393
vt 0.978518 0.989754
vt 0.978518 0.989754
vt 0.986607 0.013393
vt 0.978518 0.989754
vt 0.512450 0.013393
vt 0.512450 0.013393
vt 0.978518 0.989754
vt 0.986607 0.986607
vt 0.512450 0.013393
vt 0.511951 0.989754
vt 0.986607 0.986607
vt 0.512450 0.013393
vt 0.511951 0.989754
vt 0.530011 0.459133
vt 0.986607 0.986607
vt 0.512450 0.013393
vt 0.511951 0.989754
vt 0.512450 0.013393
vt 0.978518 0.989754
vt 0.512450 0.013393
vt 0.978518 0.989754
vt 0.512450 0.013393
vt 0.978518 0.989754
vt 0.986607 0.986607
vt 0.978518 0.989754
vt 0.986607 0.013393
vt 0.986607 0.986607
vt 0.511951 0.989754
vt 0.512450 0.013393
vt 0.511951 0.989754
vt 0.986607 0.986607
vt 0.978518 0.989754
vt 0.986607 0.986607
vt 0.978518 0.989754
vt 0.986607 0.013393
vt 0.978518 0.989754
vt 0.512450 0.013393
vt 0.514466 0.973619
vt 0.986607 0.013393
vt 0.961238 0.973619
vt 0.986607 0.013393
vt 0.013393 0.986607
vt 0.986607 0.986607
vt 0.512450 0.013393
vt 0.514466 0.973619
vt 0.986607 0.986607
vt 0.514466 0.973619
vt 0.512450 0.013393
vt 0.013393 0.510198
vt 0.514466 0.973619
vt 0.514466 0.973619
vt 0.986607 0.986607
vt 0.961238 0.973619
vt 0.986607 0.986607
vt 0.514466 0.973619
vt 0.986607 0.986607
vt 0.528778 0.459133
vt 0.986607 0.986607
vt 0.512450 0.013393
vt 0.514466 0.973619
vt 0.961238 0.973619
vt 0.986607 0.986607
vt 0.514466 0.973619
vt 0.986607 0.013393
vt 0.514466 0.973619
vt 0.986607 0.986607
vt 0.514466 0.973619
vt 0.986607 0.986607
vt 0.514466 0.973619
vt 0.986607 0.986607
vt 0.514466 0.973619
vt 0.986607 0.013393
vt 0.986607 0.986607
vt 0.512450 0.013393
vt 0.961238 0.973619
vt 0.961238 0.973619
vt 0.986607 0.986607
vt 0.528778 0.458028
vt 0.961238 0.973619
vt 0.512450 0.013393
vt 0.512450 0.013393
vt 0.961238 0.973619
vt 0.986607 0.986607
vt 0.512450 0.013393
vt 0.514466 0.973619
vt 0.986607 0.986607
vt 0.512450 0.013393
vt 0.514466 0.973619
vt 0.986607 0.986607
vt 0.512450 0.013393
vt 0.514466 0.973619
vt 0.512450 0.013393
vt 0.961238 0.973619
vt 0.512450 0.013393
vt 0.961238 0.973619
vt 0.512450 0.013393
vt 0.961238 0.973619
vt 0.966613 0.523976
vt 0.986607 0.986607
vt 0.961238 0.973619
vt 0.986607 0.013393
vt 0.986607 0.986607
vt 0.514466 0.973619
vt 0.512450 0.013393
vt 0.514466 0.973619
vt 0.986607 0.986607
vt 0.514466 0.973619
vt 0.986607 0.986607
vt 0.961238 0.973619
vt 0.986607 0.013393
vt 0.961238 0.973619
vt 0.512450 0.013393
vn -0.0001 1.0000 -0.0091
vn -0.0000 1.0000 -0.0090
vn -0.0001 1.0000 -0.0090
vn 0.0028 -1.0000 -0.0000
vn -0.8407 0.0349 0.5403
vn -0.9987 0.0084 0.0506
vn -0.9986 0.0143 0.0503
vn 0.0506 0.0521 0.9974
vn -0.4554 0.0155 0.8901
vn 0.5432 0.0151 0.8394
vn 0.0507 0.0177 0.9986
vn 0.8913 0.0307 0.4524
vn 0.8387 0.0045 -0.5446
vn 0.9987 0.0075 -0.0508
vn 0.8383 -0.0075 -0.5451
vn -0.0507 0.0006 -0.9987
vn -0.5431 -0.0200 -0.8394
vn -0.0501 -0.0246 -0.9984
vn -0.8916 0.0014 -0.4529
vn -0.8380 0.0352 0.5445
vn 0.8886 0.0361 0.4572
vn 0.0492 0.0510 0.9975
vn 0.8409 0.0023 -0.5411
vn -0.0516 -0.0154 -0.9985
vn -0.9987 0.0109 0.0506
vn -0.8900 0.0140 -0.4558
vn 0.0513 0.0188 0.9985
vn -0.4555 0.0137 0.8901
vn 0.9985 0.0212 -0.0506
vn 0.8396 0.0229 -0.5427
vn -0.0499 0.0183 -0.9986
vn -0.0003 1.0000 -0.0091
vn -0.5432 0.0007 -0.8396
vn 0.5431 0.0189 0.8395
vn 0.3326 0.8100 0.4830
vn -0.5950 0.7977 -0.0987
vn -0.3420 0.8100 -0.4763
vn 0.5968 0.7977 0.0870
vn -0.6294 0.7770 -0.0091
vn -0.7647 0.6435 -0.0347
vn -0.8045 0.5939 -0.0009
vn 0.3793 0.5356 -0.7545
vn 0.4011 0.6084 -0.6848
vn 0.4765 0.6113 -0.6319
vn 0.3426 0.4233 -0.8387
vn 0.3253 0.5302 -0.7830
vn -0.7365 0.6718 0.0791
vn -0.6870 0.7264 -0.0184
vn -0.3305 0.6503 0.6841
vn -0.2675 0.6339 -0.7257
vn 0.2952 0.6569 -0.6938
vn 0.4323 0.5370 -0.7244
vn 0.4310 0.5027 -0.7494
vn 0.5943 0.5504 0.5865
vn 0.4786 0.5791 0.6600
vn 0.5603 0.5810 0.5904
vn 0.1929 0.6315 -0.7510
vn 0.3260 0.6339 -0.7014
vn 0.6848 0.5002 0.5299
vn 0.5889 0.6683 0.4546
vn 0.6656 0.5163 0.5389
vn 0.7087 0.4642 0.5313
vn -0.6357 0.6342 0.4401
vn -0.6071 0.7013 0.3737
vn -0.6370 0.7118 0.2958
vn -0.6720 0.5356 0.5114
vn -0.6091 0.6284 0.4838
vn 0.7245 0.5301 0.4406
vn 0.6174 0.6156 0.4897
vn 0.3899 0.7633 0.5152
vn -0.7258 0.6538 -0.2138
vn 0.5428 0.8100 0.2220
vn -0.5519 0.7977 0.2432
vn -0.4345 0.7431 -0.5089
vn 0.6687 0.7275 0.1535
vn -0.5954 0.7619 0.2549
vn -0.6646 0.7120 0.2266
vn -0.6858 0.6882 0.2368
vn 0.0890 0.8064 -0.5846
vn 0.0982 0.8285 -0.5513
vn 0.0959 0.7725 -0.6278
vn 0.0890 0.7078 -0.7008
vn -0.5448 0.7896 0.2824
vn -0.5944 0.7660 0.2447
vn -0.2551 0.8100 0.5280
vn -0.2086 0.7977 -0.5659
vn 0.5714 0.8100 -0.1321
vn -0.3103 0.7977 0.5172
vn -0.3103 0.7977 0.5171
vn 0.1198 0.8100 -0.5741
vn 0.3393 0.7977 0.4986
vn 0.3366 0.8474 -0.4107
vn 0.0372 0.7690 0.6381
vn -0.0985 0.8642 0.4934
vn -0.0620 0.8099 -0.5832
vn -0.4725 0.8100 -0.3473
vn 0.5945 0.7977 -0.1017
vn -0.3933 0.8553 -0.3372
vn -0.3643 0.8432 -0.3953
vn -0.3572 0.8508 -0.3855
vn 0.5716 0.8191 0.0482
vn 0.6560 0.7527 0.0556
vn 0.5445 0.8371 0.0533
vn 0.6213 0.7834 0.0162
vn -0.4097 0.8682 -0.2799
vn -0.3987 0.8493 -0.3461
vn -0.4797 0.5616 -0.6741
vn 0.6364 0.7714 0.0029
vn 0.3173 0.5658 0.7611
vn 0.2691 0.5206 0.8103
vn 0.2700 0.5170 0.8123
vn -0.5851 0.8051 -0.0973
vn -0.5241 0.8374 -0.1555
vn -0.5220 0.8325 -0.1855
vn 0.3529 0.5996 0.7183
vn 0.3074 0.5593 0.7698
vn -0.6585 0.7498 -0.0640
vn -0.5788 0.8122 -0.0733
vn 0.5794 0.7096 -0.4010
vn 0.6265 0.7166 -0.3067
vn 0.5904 0.7514 -0.2948
vn -0.3371 0.7339 0.5898
vn -0.4243 0.7509 0.5061
vn -0.4333 0.7453 0.5068
vn -0.2460 0.7006 0.6698
vn -0.3267 0.7268 0.6042
vn 0.5139 0.6909 -0.5085
vn 0.6163 0.7094 -0.3421
vn -0.8756 0.4311 0.2180
vn -0.9105 0.3901 0.1375
vn -0.9233 0.3625 0.1272
vn 0.0795 0.9927 -0.0912
vn 0.0682 0.9962 -0.0545
vn 0.1057 0.9857 -0.1315
vn 0.1323 0.9712 -0.1982
vn -0.8526 0.4405 0.2811
vn -0.8708 0.4413 0.2168
vn 0.8209 0.5671 -0.0679
vn 0.8528 0.5222 0.0101
vn 0.8684 0.4954 0.0194
vn -0.1846 0.9668 0.1768
vn -0.1699 0.9752 0.1417
vn -0.2153 0.9529 0.2135
vn -0.2500 0.9274 0.2783
vn 0.8025 0.5826 -0.1286
vn 0.8153 0.5755 -0.0635
vn -0.0928 0.9910 0.0967
vn -0.1563 0.9853 0.0684
vn -0.1795 0.9808 0.0758
vn 0.5365 0.4693 -0.7013
vn 0.5566 0.4878 -0.6725
vn 0.5231 0.4267 -0.7378
vn 0.4744 0.3384 -0.8127
vn -0.0453 0.9907 0.1280
vn -0.0850 0.9921 0.0926
vn -0.4559 0.8746 -0.1650
vn -0.4102 0.8497 -0.3312
vn -0.4323 0.8277 -0.3578
vn 0.5726 0.8074 0.1422
vn 0.5218 0.8044 0.2841
vn 0.5349 0.7913 0.2961
vn 0.6767 0.7363 -0.0039
vn 0.5096 0.8457 0.1584
vn -0.5636 0.8259 0.0165
vn -0.4068 0.8986 -0.1645
vn -0.4635 0.8861 0.0027
vn -0.5165 0.8414 -0.1591
vn -0.5508 0.8176 -0.1678
vn 0.5782 0.7696 -0.2708
vn 0.6058 0.7861 -0.1229
vn 0.6227 0.7735 -0.1181
vn 0.5934 0.6692 -0.4473
vn 0.5315 0.8146 -0.2323
vn -0.4528 0.8660 0.2120
vn -0.4233 0.9055 -0.0283
vn -0.1434 0.6424 0.7528
vn -0.2589 0.6503 0.7142
vn -0.2416 0.6886 0.6837
vn -0.1802 0.6696 -0.7206
vn -0.0515 0.6884 -0.7235
vn -0.0444 0.6817 -0.7303
vn -0.3128 0.6331 -0.7080
vn -0.2029 0.6623 -0.7212
vn -0.0222 0.6274 0.7783
vn -0.2274 0.6469 0.7279
vn 0.2530 0.9050 0.3420
vn 0.3593 0.9187 0.1638
vn 0.1838 0.9101 0.3713
vn -0.8455 0.5100 -0.1582
vn -0.8716 0.4717 -0.1333
vn -0.8536 0.4896 -0.1780
vn 0.0917 0.9499 0.2987
vn -0.1132 0.9541 0.2771
vn 0.3086 0.9265 0.2154
vn -0.8198 0.5512 -0.1550
vn 0.4116 0.8478 0.3344
vn 0.4848 0.7986 0.3567
vn 0.5608 0.7226 0.4042
vn -0.4292 0.8400 0.3319
vn -0.4552 0.8132 0.3627
vn -0.4479 0.8240 0.3471
vn 0.2705 0.9178 0.2907
vn 0.3565 0.8842 0.3018
vn -0.5019 0.7878 0.3571
vn 0.0132 0.9029 -0.4297
vn 0.0676 0.8656 -0.4961
vn 0.0903 0.8273 -0.5544
vn 0.1824 0.8406 0.5100
vn 0.0651 0.8603 0.5056
vn 0.0754 0.8718 0.4841
vn -0.0420 0.9048 -0.4237
vn 0.0116 0.9227 -0.3853
vn 0.3119 0.8175 0.4842
vn 0.1858 0.8335 0.5203
vn -0.5246 0.8100 0.2622
vn 0.1805 0.7977 -0.5754
vn 0.5193 0.8100 -0.2724
vn -0.1692 0.7977 0.5789
vn 0.0966 0.7771 -0.6220
vn 0.1408 0.6435 -0.7524
vn 0.1129 0.5939 -0.7966
vn 0.6944 0.5356 0.4806
vn 0.6223 0.6084 0.4925
vn 0.5593 0.6114 0.5598
vn 0.7828 0.4233 0.4560
vn 0.7301 0.5302 0.4311
vn 0.0241 0.6718 -0.7403
vn 0.1138 0.7264 -0.6777
vn -0.6314 0.6503 -0.4225
vn 0.7558 0.6339 -0.1639
vn 0.6460 0.6569 0.3889
vn 0.6571 0.5371 0.5289
vn 0.6820 0.5028 0.5311
vn -0.6635 0.5504 0.5069
vn -0.7201 0.5791 0.3822
vn -0.6626 0.5810 0.4726
vn 0.7168 0.6316 0.2956
vn 0.6492 0.6339 0.4204
vn -0.6201 0.5002 0.6044
vn -0.5320 0.6683 0.5199
vn -0.6263 0.5163 0.5841
vn -0.6247 0.4642 0.6279
vn -0.3473 0.6342 -0.6908
vn -0.2855 0.7013 -0.6532
vn -0.2042 0.7118 -0.6720
vn -0.4129 0.5356 -0.7367
vn -0.3943 0.6284 -0.6706
vn -0.5372 0.5301 0.6561
vn -0.5708 0.6157 0.5432
vn -0.5644 0.7633 0.3144
vn 0.3127 0.6538 -0.6890
vn -0.2954 0.8100 0.5066
vn -0.1640 0.7977 -0.5804
vn 0.5644 0.7431 -0.3595
vn -0.2451 0.7275 0.6409
vn -0.1695 0.7619 -0.6251
vn -0.1318 0.7121 -0.6896
vn -0.1389 0.6884 -0.7119
vn 0.5665 0.8064 0.1695
vn 0.5322 0.8285 0.1741
vn 0.6083 0.7724 0.1824
vn 0.6816 0.7078 0.1857
vn -0.2038 0.7896 -0.5788
vn -0.1596 0.7660 -0.6228
vn -0.4874 0.8100 -0.3261
vn 0.5894 0.7977 -0.1278
vn 0.0513 0.8100 0.5842
vn -0.4689 0.7977 -0.3792
vn 0.5518 0.8100 0.1985
vn -0.5410 0.7977 0.2666
vn 0.3599 0.8474 0.3905
vn -0.6371 0.7690 -0.0519
vn -0.4749 0.8642 -0.1662
vn 0.5862 0.8099 0.0198
vn 0.4097 0.8100 -0.4196
vn 0.0179 0.7977 0.6028
vn 0.3886 0.8554 -0.3425
vn 0.4421 0.8432 -0.3057
vn 0.4315 0.8508 -0.3000
vn -0.1273 0.8191 0.5593
vn -0.1464 0.7527 0.6419
vn -0.1286 0.8370 0.5318
vn -0.1025 0.7835 0.6129
vn 0.3342 0.8682 -0.3667
vn 0.3982 0.8493 -0.3466
vn 0.7343 0.5616 -0.3813
vn -0.0914 0.7714 0.6298
vn -0.7978 0.5658 0.2083
vn -0.8399 0.5206 0.1537
vn -0.8420 0.5170 0.1544
vn 0.1779 0.8051 -0.5658
vn 0.2269 0.8374 -0.4973
vn 0.2564 0.8325 -0.4911
vn -0.7604 0.5996 0.2495
vn -0.8052 0.5593 0.1972
vn 0.1550 0.7498 -0.6432
vn 0.1531 0.8121 -0.5630
vn 0.3164 0.7096 0.6296
vn 0.2165 0.7167 0.6630
vn 0.2098 0.7514 0.6256
vn -0.5371 0.7339 -0.4159
vn -0.4421 0.7509 -0.4906
vn -0.4417 0.7452 -0.4996
vn -0.6290 0.7006 -0.3368
vn -0.5529 0.7268 -0.4075
vn 0.4320 0.6909 0.5797
vn 0.2530 0.7094 0.6578
vn -0.0941 0.4312 -0.8973
vn -0.0094 0.3898 -0.9208
vn 0.0024 0.3626 -0.9319
vn 0.0793 0.9927 0.0914
vn 0.0445 0.9962 0.0751
vn 0.1155 0.9857 0.1230
vn 0.1779 0.9712 0.1586
vn -0.1597 0.4405 -0.8834
vn -0.0935 0.4413 -0.8925
vn -0.0469 0.5671 0.8223
vn -0.1286 0.5224 0.8430
vn -0.1401 0.4953 0.8573
vn -0.1493 0.9668 -0.2074
vn -0.1167 0.9752 -0.1881
vn -0.1815 0.9529 -0.2428
vn -0.2409 0.9274 -0.2863
vn 0.0157 0.5826 0.8126
vn -0.0506 0.5755 0.8162
vn -0.0828 0.9910 -0.1054
vn -0.0460 0.9854 -0.1641
vn -0.0501 0.9807 -0.1887
vn 0.6199 0.4693 0.6289
vn 0.5885 0.4878 0.6448
vn 0.6578 0.4268 0.6207
vn 0.7387 0.3384 0.5829
vn -0.1205 0.9907 -0.0626
vn -0.0800 0.9921 -0.0970
vn 0.2267 0.8746 -0.4286
vn 0.3851 0.8497 -0.3601
vn 0.4146 0.8276 -0.3783
vn -0.2205 0.8074 0.5472
vn -0.3539 0.8043 0.4773
vn -0.3676 0.7913 0.4886
vn -0.0904 0.7363 0.6706
vn -0.2278 0.8456 0.4828
vn 0.0620 0.8259 -0.5604
vn 0.2195 0.8986 -0.3800
vn 0.0619 0.8861 -0.4594
vn 0.2294 0.8413 -0.4895
vn 0.2428 0.8176 -0.5221
vn 0.1876 0.7697 0.6103
vn 0.0374 0.7861 0.6170
vn 0.0303 0.7735 0.6330
vn 0.3605 0.6691 0.6499
vn 0.1561 0.8145 0.5587
vn -0.1469 0.8660 -0.4780
vn 0.0869 0.9055 -0.4153
vn -0.7255 0.6424 -0.2469
vn -0.6713 0.6503 -0.3557
vn -0.6434 0.6886 -0.3344
vn 0.7386 0.6696 -0.0781
vn 0.7236 0.6884 0.0497
vn 0.7294 0.6816 0.0578
vn 0.7447 0.6331 -0.2113
vn 0.7424 0.6624 -0.1005
vn -0.7677 0.6274 -0.1303
vn -0.6892 0.6469 -0.3264
vn -0.3738 0.9050 0.2030
vn -0.2122 0.9187 0.3330
vn -0.3932 0.9102 0.1303
vn 0.2743 0.5100 -0.8152
vn 0.2533 0.4717 -0.8446
vn 0.2951 0.4897 -0.8205
vn -0.3086 0.9499 0.0492
vn -0.2588 0.9541 -0.1506
vn -0.2563 0.9265 0.2757
vn 0.2676 0.5512 -0.7903
vn -0.3884 0.8478 0.3610
vn -0.4207 0.7985 0.4305
vn -0.4783 0.7226 0.4992
vn -0.2690 0.8400 -0.4712
vn -0.2959 0.8129 -0.5016
vn -0.2814 0.8239 -0.4919
vn -0.3255 0.9178 0.2274
vn -0.3484 0.8842 0.3110
vn -0.2838 0.7878 -0.5467
vn 0.4237 0.9029 0.0729
vn 0.4819 0.8656 0.1360
vn 0.5364 0.8273 0.1667
vn -0.5304 0.8406 0.1096
vn -0.5098 0.8603 -0.0059
vn -0.4899 0.8717 0.0073
vn 0.4255 0.9048 0.0174
vn 0.3799 0.9227 0.0650
vn -0.5229 0.8175 0.2415
vn -0.5410 0.8336 0.1116
vn 0.3622 0.3840 -0.8493
vn -0.8461 0.5231 0.1025
vn 0.5886 0.5492 0.5933
vn 0.5051 0.5112 0.6954
vn 0.4853 0.5634 0.6686
vn 0.2022 0.5597 -0.8037
vn 0.6855 0.4969 0.5322
vn -0.6981 0.5058 0.5067
vn 0.7998 0.3758 0.4681
vn 0.0860 0.8043 -0.5879
vn 0.0931 0.8399 -0.5346
vn 0.0982 0.8263 -0.5546
vn 0.0972 0.6374 -0.7644
vn -0.5482 0.7866 0.2841
vn -0.0620 0.8100 -0.5832
vn 0.5682 0.8213 0.0513
vn 0.7196 0.6928 0.0471
vn 0.6515 0.7565 0.0576
vn 0.6627 0.7488 0.0080
vn -0.4014 0.8711 -0.2829
vn 0.3507 0.6006 0.7186
vn -0.6803 0.7290 -0.0760
vn -0.2451 0.7111 0.6590
vn 0.4786 0.6456 -0.5951
vn 0.0873 0.9905 -0.1062
vn 0.0624 0.9969 -0.0471
vn 0.0772 0.9948 -0.0666
vn 0.1717 0.9506 -0.2587
vn -0.8551 0.4365 0.2798
vn -0.1924 0.9629 0.1893
vn -0.1622 0.9776 0.1342
vn -0.1788 0.9721 0.1515
vn -0.2955 0.8951 0.3338
vn 0.8054 0.5788 -0.1274
vn 0.5331 0.4759 -0.6995
vn 0.5583 0.5123 -0.6526
vn 0.5529 0.4955 -0.6699
vn 0.4452 0.2661 -0.8550
vn -0.0490 0.9904 0.1293
vn 0.7502 0.6602 -0.0380
vn -0.6202 0.7836 0.0371
vn 0.6387 0.5779 -0.5080
vn -0.4888 0.8320 0.2623
vn -0.3060 0.6446 -0.7006
vn 0.0752 0.5782 0.8124
vn 0.2253 0.9073 0.3550
vn -0.8504 0.5024 -0.1565
vn -0.8688 0.4772 -0.1322
vn -0.8708 0.4733 -0.1328
vn -0.5038 0.7664 0.3985
vn -0.8135 0.5722 -0.1035
vn -0.4290 0.8419 0.3274
vn -0.4660 0.8054 0.3663
vn -0.4520 0.8153 0.3618
vn 0.2142 0.9394 0.2677
vn -0.5552 0.7364 0.3866
vn -0.0613 0.8949 -0.4421
vn 0.3097 0.8196 0.4820
vn 0.7906 0.3840 0.4769
vn 0.0163 0.5232 -0.8521
vn -0.6694 0.5492 0.5003
vn -0.7589 0.5111 0.4034
vn -0.7296 0.5634 0.3876
vn 0.7677 0.5597 0.3120
vn -0.6224 0.4969 0.6048
vn -0.4047 0.5058 -0.7618
vn -0.5748 0.3758 0.7269
vn -0.2451 0.7275 0.6408
vn 0.5702 0.8043 0.1670
vn 0.5164 0.8400 0.1665
vn 0.5355 0.8263 0.1745
vn 0.7434 0.6374 0.2026
vn -0.2051 0.7866 -0.5824
vn -0.1299 0.8213 0.5555
vn -0.1468 0.6928 0.7060
vn -0.1477 0.7565 0.6371
vn -0.1000 0.7489 0.6551
vn 0.3360 0.8711 -0.3581
vn -0.7604 0.6006 0.2473
vn 0.1695 0.7290 -0.6632
vn -0.6185 0.7111 -0.3345
vn 0.5227 0.6456 0.5567
vn 0.0931 0.9905 0.1012
vn 0.0380 0.9969 0.0685
vn 0.0553 0.9948 0.0858
vn 0.2323 0.9506 0.2061
vn -0.1580 0.4365 -0.8857
vn -0.1606 0.9629 -0.2168
vn -0.1104 0.9775 -0.1794
vn -0.1252 0.9721 -0.1982
vn -0.2894 0.8951 -0.3391
vn 0.0141 0.5788 0.8153
vn 0.6185 0.4759 0.6253
vn 0.5685 0.5124 0.6436
vn 0.5865 0.4955 0.6407
vn 0.7847 0.2661 0.5599
vn -0.1212 0.9904 -0.0665
vn -0.0669 0.6602 0.7481
vn 0.0496 0.7836 -0.6193
vn 0.4142 0.5779 0.7031
vn -0.1917 0.8320 -0.5206
vn 0.7365 0.6446 -0.2052
vn -0.8150 0.5782 -0.0386
vn -0.3828 0.9073 0.1737
vn 0.2733 0.5024 -0.8203
vn 0.2518 0.4769 -0.8421
vn 0.2527 0.4734 -0.8438
vn -0.3245 0.7664 -0.5544
vn 0.2158 0.5722 -0.7912
vn -0.2646 0.8419 -0.4704
vn -0.2980 0.8051 -0.5128
vn -0.2954 0.8150 -0.4984
vn -0.2949 0.9394 0.1748
vn -0.3056 0.7364 -0.6036
vn 0.0512 0.8100 0.5842
vn 0.4463 0.8949 0.0009
vn -0.5204 0.8196 0.2396
s 1
f 1/1/1 2/2/2 3/3/3
f 4/4/4 5/5/4 6/6/4
f 7/7/5 8/8/6 9/9/7
f 10/10/8 1/11/9 7/7/5
f 10/10/8 2/12/10 11/13/11
f 12/14/12 13/15/13 2/12/14
f 14/16/15 3/17/16 13/15/13
f 9/18/17 3/17/16 15/19/18
f 16/20/19 7/7/5 9/9/7
f 17/21/20 10/10/8 7/7/5
f 18/22/21 10/10/8 19/23/22
f 20/24/23 12/14/12 18/22/21
f 21/25/24 14/16/15 20/24/23
f 21/25/24 9/18/17 15/19/18
f 5/26/25 16/20/19 6/27/26
f 22/28/27 17/21/20 5/26/28
f 22/28/27 18/22/21 19/23/22
f 23/29/29 20/24/23 18/22/21
f 4/30/30 21/25/24 20/24/23
f 6/31/26 21/25/24 24/32/31
f 3/3/3 8/33/32 1/1/1
f 1/1/1 11/34/1 2/2/2
f 2/2/2 13/35/2 3/3/3
f 6/6/4 24/36/4 4/4/4
f 4/4/4 23/37/4 22/38/4
f 22/38/4 5/5/4 4/4/4
f 7/7/5 1/11/6 8/8/6
f 10/10/8 11/13/11 1/11/9
f 10/10/8 12/14/12 2/12/10
f 12/14/12 14/16/15 13/15/13
f 14/16/15 15/19/18 3/17/16
f 9/18/17 8/39/33 3/17/16
f 16/20/19 17/21/20 7/7/5
f 17/21/20 19/23/22 10/10/8
f 18/22/21 12/14/12 10/10/8
f 20/24/23 14/16/15 12/14/12
f 21/25/24 15/19/18 14/16/15
f 21/25/24 16/40/19 9/18/17
f 5/26/25 17/21/20 16/20/19
f 22/28/27 19/23/22 17/21/20
f 22/28/27 23/29/34 18/22/21
f 23/29/29 4/30/30 20/24/23
f 4/30/30 24/32/31 21/25/24
f 6/31/26 16/40/19 21/25/24
f 25/41/35 26/42/35 27/43/35
f 28/44/36 29/45/36 25/46/36
f 30/47/37 31/48/37 32/49/37
f 30/50/38 33/51/38 34/52/38
f 35/53/39 36/54/40 37/55/41
f 35/56/42 38/57/43 39/58/44
f 35/56/42 40/59/45 41/60/46
f 39/61/47 42/62/48 35/53/39
f 43/63/49 44/64/49 45/65/49
f 46/66/50 47/67/50 43/68/50
f 43/68/50 48/69/50 46/66/50
f 47/70/49 49/71/49 43/63/49
f 50/72/51 51/73/52 52/74/53
f 53/75/54 54/76/55 50/77/56
f 54/78/57 55/79/58 50/80/51
f 50/77/56 56/81/59 53/75/54
f 57/82/60 58/83/61 59/84/62
f 57/85/63 60/86/64 61/87/65
f 57/85/63 62/88/66 63/89/67
f 61/90/68 64/91/69 57/82/60
f 65/92/70 66/93/70 67/94/70
f 65/95/71 68/96/71 69/97/71
f 70/98/72 71/99/72 72/100/72
f 70/101/73 73/102/73 74/103/73
f 75/104/74 76/105/74 77/106/74
f 78/107/75 75/108/75 77/109/75
f 79/110/76 80/111/77 81/112/78
f 82/113/79 83/114/80 79/115/81
f 79/115/81 84/116/82 82/113/79
f 83/117/83 85/118/84 79/110/76
f 86/119/85 87/120/85 88/121/85
f 86/122/86 89/123/86 90/124/86
f 91/125/87 92/126/87 93/127/87
f 93/128/88 94/129/88 91/130/89
f 95/131/90 96/132/90 97/133/90
f 97/134/91 98/135/91 95/136/91
f 99/137/92 100/138/92 101/139/92
f 102/140/93 99/141/93 101/142/93
f 103/143/94 104/144/94 105/145/94
f 106/146/95 103/147/95 105/148/95
f 107/149/96 108/150/96 109/151/96
f 110/152/97 107/153/97 109/154/97
f 111/155/98 112/156/99 113/157/100
f 114/158/101 115/159/102 111/160/103
f 111/160/103 116/161/104 114/158/101
f 111/155/98 117/162/105 118/163/106
f 119/164/107 120/165/107 121/166/107
f 119/167/108 122/168/108 123/169/108
f 124/170/109 125/171/110 126/172/111
f 124/173/112 127/174/113 128/175/114
f 124/170/109 129/176/115 130/177/116
f 124/173/112 131/178/117 132/179/118
f 133/180/119 134/181/120 135/182/121
f 133/183/122 136/184/123 137/185/124
f 133/183/122 138/186/125 139/187/126
f 133/180/119 140/188/127 141/189/128
f 142/190/129 143/191/130 144/192/131
f 145/193/132 146/194/133 142/195/134
f 142/195/134 147/196/135 145/193/132
f 146/197/136 148/198/137 142/190/129
f 149/199/138 150/200/139 151/201/140
f 152/202/141 153/203/142 149/204/143
f 149/204/143 154/205/144 152/202/141
f 153/206/145 155/207/146 149/199/138
f 156/208/147 157/209/148 158/210/149
f 159/211/150 160/212/151 156/213/152
f 156/213/152 161/214/153 159/211/150
f 160/215/154 162/216/155 156/217/147
f 163/218/156 164/219/157 165/220/158
f 163/221/159 166/222/160 167/223/161
f 163/221/159 168/224/162 169/225/163
f 163/218/156 170/226/164 171/227/165
f 172/228/166 173/229/167 174/230/168
f 172/231/169 175/232/170 176/233/171
f 172/231/169 177/234/172 178/235/173
f 172/228/166 179/236/174 180/237/175
f 181/238/176 182/239/177 183/240/178
f 181/241/179 184/242/180 185/243/181
f 181/241/179 186/244/182 187/245/183
f 181/238/176 188/246/184 189/247/185
f 190/248/186 191/249/187 192/250/188
f 193/251/189 194/252/190 195/253/191
f 195/254/192 196/255/193 191/249/194
f 190/256/195 193/251/189 195/253/191
f 197/257/196 198/258/197 199/259/198
f 200/260/199 201/261/200 197/262/201
f 201/263/202 202/264/203 197/257/196
f 197/262/201 203/265/204 200/260/199
f 204/266/37 205/267/37 206/268/37
f 207/269/38 204/270/38 206/271/38
f 208/272/85 209/273/85 210/274/85
f 211/275/86 212/276/86 208/277/86
f 213/278/87 214/279/87 215/280/87
f 213/281/89 216/282/89 217/283/89
f 218/284/205 219/285/206 220/286/207
f 218/287/208 221/288/209 222/289/210
f 218/284/205 223/290/211 224/291/212
f 218/287/208 225/292/213 226/293/214
f 227/294/215 228/295/215 229/296/215
f 229/297/216 230/298/216 227/299/216
f 231/300/217 232/301/217 233/302/217
f 231/303/218 234/304/218 235/305/218
f 236/306/219 237/307/220 238/308/221
f 236/306/222 239/309/223 240/310/224
f 236/306/222 241/311/225 242/312/226
f 240/310/227 243/313/228 236/306/219
f 244/314/229 245/315/229 246/316/229
f 247/317/230 248/318/230 244/319/230
f 244/319/230 249/320/230 247/317/230
f 248/321/229 250/322/229 244/314/229
f 251/323/231 252/324/232 253/325/233
f 254/326/234 255/327/235 251/328/236
f 255/329/237 256/330/238 251/323/231
f 251/328/236 257/331/239 254/326/234
f 258/332/240 259/333/241 260/334/242
f 258/332/243 261/335/244 262/336/245
f 258/332/243 263/337/246 264/338/247
f 262/339/248 265/340/249 258/341/240
f 266/342/250 267/343/250 268/344/250
f 269/345/251 266/346/251 268/347/251
f 270/348/252 271/349/252 272/350/252
f 273/351/253 274/352/253 270/353/253
f 275/354/254 276/355/254 277/356/254
f 278/357/255 275/358/255 277/359/255
f 279/360/256 280/361/257 281/362/258
f 282/363/259 283/364/260 279/365/261
f 279/365/261 284/366/262 282/363/259
f 283/367/263 285/368/264 279/369/256
f 286/370/265 287/371/265 288/372/265
f 289/373/266 290/374/266 286/375/266
f 291/376/267 292/377/267 293/378/267
f 293/379/268 294/380/268 291/381/268
f 295/382/269 296/383/269 297/384/269
f 298/385/270 295/386/270 297/387/270
f 299/388/271 300/389/271 301/390/271
f 302/391/272 299/392/272 301/393/272
f 303/394/273 304/395/273 305/396/273
f 306/397/274 303/398/274 305/399/274
f 307/400/275 308/401/275 309/402/275
f 309/403/276 310/404/276 307/405/276
f 311/406/277 312/407/278 313/408/279
f 314/409/280 315/410/281 311/411/282
f 311/411/282 316/412/283 314/409/280
f 311/406/277 317/413/284 318/414/285
f 319/415/286 320/416/286 321/417/286
f 322/418/287 323/419/287 319/420/287
f 324/421/288 325/422/289 326/423/290
f 324/424/291 327/425/292 328/426/293
f 324/427/288 329/428/294 330/429/295
f 324/424/291 331/430/296 332/431/297
f 333/432/298 334/433/299 335/434/300
f 333/435/301 336/436/302 337/437/303
f 333/435/301 338/438/304 339/439/305
f 333/432/298 340/440/306 341/441/307
f 342/442/308 343/443/309 344/444/310
f 345/445/311 346/446/312 342/447/313
f 342/447/313 347/448/314 345/445/311
f 346/449/315 348/450/316 342/442/308
f 349/451/317 350/452/318 351/453/319
f 352/454/320 353/455/321 349/456/322
f 349/456/322 354/457/323 352/454/320
f 353/458/324 355/459/325 349/451/317
f 356/460/326 357/461/327 358/462/328
f 359/463/329 360/464/330 356/465/331
f 356/465/331 361/466/332 359/463/329
f 360/467/333 362/468/334 356/460/326
f 363/469/335 364/470/336 365/471/337
f 363/472/338 366/473/339 367/474/340
f 363/472/338 368/475/341 369/476/342
f 363/469/335 370/477/343 371/478/344
f 372/479/345 373/480/346 374/481/347
f 372/482/348 375/483/349 376/484/350
f 372/482/348 377/485/351 378/486/352
f 372/479/345 379/487/353 380/488/354
f 381/489/355 382/490/356 383/491/357
f 381/492/358 384/493/359 385/494/360
f 381/492/358 386/495/361 387/496/362
f 381/489/355 388/497/363 389/498/364
f 390/499/365 391/500/366 392/501/367
f 393/502/368 394/503/369 395/504/370
f 395/505/371 396/506/372 391/507/373
f 390/508/374 393/502/368 395/504/370
f 397/509/375 398/510/376 399/511/377
f 400/512/378 401/513/379 397/514/380
f 401/515/381 402/516/382 397/509/375
f 397/514/380 403/517/383 400/512/378
f 404/518/217 405/519/217 406/520/217
f 407/521/218 404/522/218 406/523/218
f 408/524/265 409/525/265 410/526/265
f 411/527/266 408/528/266 410/529/266
f 412/530/267 413/531/267 414/532/267
f 412/533/268 415/534/268 416/535/268
f 417/536/384 418/537/385 419/538/386
f 417/539/387 420/540/388 421/541/389
f 417/536/384 422/542/390 423/543/391
f 417/539/387 424/544/392 425/545/393
f 25/41/35 29/546/35 26/42/35
f 28/44/36 426/547/36 29/45/36
f 30/47/37 34/548/37 31/48/37
f 30/50/38 427/549/38 33/51/38
f 35/53/39 42/62/48 36/54/40
f 35/56/42 41/60/46 38/57/43
f 35/56/42 37/550/394 40/59/45
f 39/61/47 428/551/395 42/62/48
f 43/63/49 49/71/49 44/64/49
f 46/66/50 429/552/50 47/67/50
f 43/68/50 45/553/50 48/69/50
f 47/70/49 430/554/49 49/71/49
f 50/72/51 55/555/58 51/73/52
f 53/75/396 431/556/397 54/76/398
f 54/78/57 432/557/399 55/79/58
f 50/77/56 52/558/400 56/81/59
f 57/82/60 64/91/69 58/83/61
f 57/85/63 63/89/67 60/86/64
f 57/85/63 59/559/401 62/88/66
f 61/90/68 433/560/402 64/91/69
f 65/92/70 69/561/70 66/93/70
f 65/95/71 434/562/71 68/96/71
f 70/98/72 74/563/72 71/99/72
f 70/101/73 435/564/73 73/102/73
f 75/104/74 436/565/74 76/105/74
f 78/107/75 437/566/75 75/108/75
f 79/110/76 85/118/84 80/111/77
f 82/113/403 438/567/404 83/114/405
f 79/115/81 81/568/406 84/116/82
f 83/117/83 439/569/407 85/118/84
f 86/119/85 90/570/85 87/120/85
f 86/122/86 440/571/86 89/123/86
f 91/125/87 441/572/87 92/126/87
f 93/128/88 442/573/88 94/129/88
f 95/131/90 443/574/90 96/132/90
f 97/134/91 444/575/91 98/135/91
f 99/137/92 445/576/92 100/138/92
f 102/140/93 446/577/93 99/141/93
f 103/143/94 447/578/94 104/144/94
f 106/146/408 448/579/408 103/147/408
f 107/149/96 449/580/96 108/150/96
f 110/152/97 450/581/97 107/153/97
f 111/155/98 118/163/106 112/156/99
f 114/158/409 451/582/410 115/159/411
f 111/160/103 113/583/412 116/161/104
f 111/155/98 115/584/413 117/162/105
f 119/164/107 123/585/107 120/165/107
f 119/167/108 452/586/108 122/168/108
f 124/170/109 130/177/116 125/171/110
f 124/173/112 132/179/118 127/174/113
f 124/170/109 128/587/414 129/176/115
f 124/173/112 126/588/415 131/178/117
f 133/180/119 141/189/128 134/181/120
f 133/183/122 139/187/126 136/184/123
f 133/183/122 135/589/416 138/186/125
f 133/180/119 137/590/417 140/188/127
f 142/190/129 148/198/137 143/191/130
f 145/193/418 453/591/419 146/194/420
f 142/195/134 144/592/421 147/196/135
f 146/197/136 454/593/422 148/198/137
f 149/199/138 155/207/146 150/200/139
f 152/202/423 455/594/424 153/203/425
f 149/204/143 151/595/426 154/205/144
f 153/206/145 456/596/427 155/207/146
f 156/208/147 162/597/155 157/209/148
f 159/211/428 457/598/429 160/212/430
f 156/213/152 158/599/431 161/214/153
f 160/215/154 458/600/432 162/216/155
f 163/218/156 171/227/165 164/219/157
f 163/221/159 169/225/163 166/222/160
f 163/221/159 165/601/433 168/224/162
f 163/218/156 167/602/434 170/226/164
f 172/228/166 180/237/175 173/229/167
f 172/231/169 178/235/173 175/232/170
f 172/231/169 174/603/435 177/234/172
f 172/228/166 176/604/436 179/236/174
f 181/238/176 189/247/185 182/239/177
f 181/241/179 187/245/183 184/242/180
f 181/241/179 183/605/437 186/244/182
f 181/238/176 185/606/438 188/246/184
f 190/248/439 195/254/192 191/249/194
f 193/251/440 459/607/441 194/252/442
f 195/254/192 194/608/443 196/255/193
f 190/256/195 460/609/444 193/251/189
f 197/257/196 202/264/203 198/258/197
f 200/260/445 461/610/446 201/261/447
f 201/263/202 462/611/448 202/264/203
f 197/262/201 199/612/449 203/265/204
f 204/266/37 463/613/37 205/267/37
f 207/269/38 464/614/38 204/270/38
f 208/272/85 212/615/85 209/273/85
f 211/275/86 465/616/86 212/276/86
f 213/278/87 217/617/87 214/279/87
f 213/281/89 466/618/88 216/282/89
f 218/284/205 224/291/212 219/285/206
f 218/287/208 226/293/214 221/288/209
f 218/284/205 222/619/450 223/290/211
f 218/287/208 220/620/451 225/292/213
f 227/294/215 467/621/215 228/295/215
f 229/297/216 468/622/216 230/298/216
f 231/300/217 235/623/217 232/301/217
f 231/303/218 469/624/218 234/304/218
f 236/306/219 243/313/228 237/307/220
f 236/306/222 242/312/226 239/309/223
f 236/306/222 238/308/452 241/311/225
f 240/310/227 470/625/453 243/313/228
f 244/314/229 250/322/229 245/315/229
f 247/317/230 471/626/230 248/318/230
f 244/319/230 246/627/230 249/320/230
f 248/321/229 472/628/229 250/322/229
f 251/323/231 256/330/238 252/324/232
f 254/326/454 473/629/455 255/327/456
f 255/329/237 474/630/457 256/330/238
f 251/328/236 253/631/458 257/331/239
f 258/332/240 265/632/249 259/333/241
f 258/332/243 264/338/247 261/335/244
f 258/332/243 260/334/459 263/337/246
f 262/339/248 475/633/460 265/340/249
f 266/342/250 476/634/250 267/343/250
f 269/345/251 477/635/251 266/346/251
f 270/348/252 274/636/252 271/349/252
f 273/351/253 478/637/253 274/352/253
f 275/354/254 479/638/254 276/355/254
f 278/357/461 480/639/461 275/358/461
f 279/360/256 285/640/264 280/361/257
f 282/363/462 481/641/463 283/364/464
f 279/365/261 281/642/465 284/366/262
f 283/367/263 482/643/466 285/368/264
f 286/370/265 290/644/265 287/371/265
f 289/373/266 483/645/266 290/374/266
f 291/376/267 484/646/267 292/377/267
f 293/379/268 485/647/268 294/380/268
f 295/382/269 486/648/269 296/383/269
f 298/385/270 487/649/270 295/386/270
f 299/388/271 488/650/271 300/389/271
f 302/391/272 489/651/272 299/392/272
f 303/394/273 490/652/273 304/395/273
f 306/397/274 491/653/274 303/398/274
f 307/400/275 492/654/275 308/401/275
f 309/403/276 493/655/276 310/404/276
f 311/406/277 318/414/285 312/407/278
f 314/409/467 494/656/468 315/410/469
f 311/411/282 313/657/470 316/412/283
f 311/406/277 315/658/471 317/413/284
f 319/415/286 323/659/286 320/416/286
f 322/418/287 495/660/287 323/419/287
f 324/421/288 330/661/295 325/422/289
f 324/424/291 332/431/297 327/425/292
f 324/427/288 328/662/472 329/428/294
f 324/424/291 326/663/473 331/430/296
f 333/432/298 341/441/307 334/433/299
f 333/435/301 339/439/305 336/436/302
f 333/435/301 335/664/474 338/438/304
f 333/432/298 337/665/475 340/440/306
f 342/442/308 348/450/316 343/443/309
f 345/445/476 496/666/477 346/446/478
f 342/447/313 344/667/479 347/448/314
f 346/449/315 497/668/480 348/450/316
f 349/451/317 355/459/325 350/452/318
f 352/454/481 498/669/482 353/455/483
f 349/456/322 351/670/484 354/457/323
f 353/458/324 499/671/485 355/459/325
f 356/460/326 362/468/334 357/461/327
f 359/463/486 500/672/487 360/464/488
f 356/465/331 358/673/489 361/466/332
f 360/467/333 501/674/490 362/468/334
f 363/469/335 371/478/344 364/470/336
f 363/472/338 369/476/342 366/473/339
f 363/472/338 365/675/491 368/475/341
f 363/469/335 367/676/492 370/477/343
f 372/479/345 380/488/354 373/480/346
f 372/482/348 378/486/352 375/483/349
f 372/482/348 374/677/493 377/485/351
f 372/479/345 376/678/494 379/487/353
f 381/489/355 389/498/364 382/490/356
f 381/492/358 387/496/362 384/493/359
f 381/492/358 383/679/495 386/495/361
f 381/489/355 385/680/496 388/497/363
f 390/499/497 395/681/371 391/500/373
f 393/502/498 502/682/499 394/503/500
f 395/505/371 394/683/501 396/506/372
f 390/508/374 503/684/502 393/502/368
f 397/509/375 402/516/382 398/510/376
f 400/512/503 504/685/504 401/513/505
f 401/515/381 505/686/506 402/516/382
f 397/514/380 399/687/507 403/517/383
f 404/518/217 506/688/217 405/519/217
f 407/521/218 507/689/218 404/522/218
f 408/524/265 508/690/265 409/525/265
f 411/527/266 509/691/266 408/528/266
f 412/530/508 416/692/508 413/531/508
f 412/533/268 510/693/268 415/534/268
f 417/536/384 423/543/391 418/537/385
f 417/539/387 425/545/393 420/540/388
f 417/536/384 421/694/509 422/542/390
f 417/539/387 419/695/510 424/544/392
