# Blender v2.79 (sub 0) OBJ File: ''
# www.blender.org
o PineTree_Untitled.001
v -0.130456 164.267029 -0.246648
v 0.155902 164.266907 -0.261188
v 0.000128 164.264587 -0.501893
v 1.858349 -2.652634 1.169364
v -1.635869 -2.662781 3.429965
v -1.741176 -2.663101 1.351762
v -0.972180 49.069401 1.234344
v -0.138852 164.265442 -0.411965
v -1.031341 49.041447 0.068334
v 0.067687 49.081894 1.766150
v 0.016919 164.267792 -0.171260
v 1.048391 49.066433 1.131942
v 0.147507 164.265320 -0.426504
v 0.989231 49.038486 -0.034069
v -0.050637 49.025993 -0.565874
v -1.467032 22.735626 1.556304
v -1.384341 22.766853 3.186336
v 1.439834 22.767532 3.043047
v 0.069092 22.782799 3.929710
v 1.357143 22.736290 1.413012
v -0.096290 22.720337 0.669641
v 0.216546 -2.657403 4.377866
v 1.963655 -2.652329 3.247567
v 0.005934 -2.657997 0.221463
v -0.745502 158.866714 -0.093482
v -3.175815 153.648499 10.332222
v 2.698290 156.862198 0.896635
v -3.007962 156.862198 -2.655776
v -6.619604 155.653015 9.342106
v -0.714781 159.671326 0.186684
v 1.510470 154.453094 -10.284714
v -4.177340 157.666779 -0.735663
v 7.285336 154.453094 -6.844963
v 4.973025 156.457642 -9.362366
v -2.588331 162.490051 -1.901557
v -1.454403 164.033722 1.729783
v -0.802609 164.907135 -0.086319
v -1.352239 159.836487 -3.442910
v -4.313191 161.462708 -4.152156
v 0.989344 163.740295 0.128829
v 0.219220 161.449585 -1.454707
v -3.722333 161.658691 -0.306148
v -5.878566 159.652496 -0.241253
v 0.227039 158.874817 3.447786
v -0.616574 162.109680 -0.034789
v -4.771424 156.417664 -3.475183
v -11.722676 156.923538 -0.470554
v 0.490571 158.874817 -3.268721
v -5.034956 156.417664 3.241325
v 2.110690 160.703400 -0.475111
v -2.236917 162.018158 -2.092710
v -0.703909 163.975922 0.095220
v 1.806980 158.603119 1.936457
v 6.387501 158.762939 -1.508348
v 0.854684 159.003754 -2.729765
v -1.184495 162.036713 2.524839
v -1.023549 160.477173 3.531354
v 0.967097 162.777863 -1.130103
v -0.893598 164.027649 0.247410
v -4.148881 157.280823 4.230855
v -1.209965 158.737305 7.200525
v -2.881759 162.906036 -1.324585
v -3.860420 159.743713 0.942531
v 1.180094 159.173981 2.750133
v -0.021832 126.497978 -0.329142
v -3.769320 115.180580 19.275808
v 7.352731 121.643723 1.282516
v -14.518070 114.510033 12.224716
v -11.143885 120.034851 17.664145
v -0.125853 132.805374 -0.211041
v 5.070255 125.427544 14.004716
v 4.714893 129.971222 -1.705764
v -4.430788 125.427544 14.219624
v 0.229510 128.261688 15.499441
v 12.919221 120.500839 -21.414051
v -7.124786 122.690720 -1.101564
v 0.015190 127.791771 0.250044
v 4.311460 122.690720 5.710335
v -6.073586 134.422089 -4.776665
v -2.087498 135.017700 5.040262
v -0.477570 138.551422 -0.557149
v -1.864401 131.442383 -8.110278
v -13.698977 131.253265 -10.466634
v 4.387434 134.273071 -3.426284
v -7.975992 131.237442 0.619078
v 0.218679 128.845428 -0.211623
v -19.371822 118.884148 5.604560
v 1.829087 125.018883 6.436410
v -18.868753 118.884148 -7.216862
v -20.982227 122.710709 -1.043473
v 12.716274 123.787659 17.380007
v 4.019782 126.159164 -5.700881
v -0.266641 130.090698 -0.131444
v 6.412500 119.856125 19.662090
v 17.120743 129.340454 -3.478828
v -2.782223 131.259125 -4.924501
v -0.146416 134.439972 0.113712
v 16.657557 126.159607 1.925413
v 17.044735 136.137543 4.605887
v 0.015531 137.826569 -5.864285
v -0.210584 140.772308 0.027594
v -2.934284 137.306366 4.363447
v -17.906916 150.150085 -0.706741
v 0.529447 148.821686 5.300583
v 0.179849 151.911957 -0.181774
v 0.883329 148.489777 -5.009083
v 4.298131 134.042816 -18.344780
v -6.009056 136.107315 0.491604
v 0.100262 139.529907 0.162441
v 5.183334 136.107315 3.030299
v 3.226452 147.457275 -8.684420
v -6.144913 146.845856 -1.352252
v 0.065841 150.143768 0.171718
v 7.682232 144.480774 -5.962875
v 6.987155 146.037445 -18.391123
v 4.502981 146.172180 2.739881
v 0.762176 142.655701 -19.972383
v -2.944917 143.987686 -10.085486
v -0.173570 120.545708 -1.167240
v 3.788843 110.507370 -12.351119
v -4.412102 117.230385 -0.913005
v 10.798171 111.520905 -8.332299
v 8.027373 113.822685 -12.605356
v -4.099959 117.917931 3.203399
v 3.928122 118.421814 0.213856
v 0.209287 121.549309 -0.540448
v -10.922862 113.666344 3.406606
v -9.386436 115.600792 7.720368
v -5.660995 112.543701 8.457109
v -0.493773 114.638657 4.143367
v -1.329464 119.663391 -4.855992
v -5.683854 116.401222 -1.084431
v 8.187160 135.501129 7.120754
v 2.705023 134.500992 -6.409467
v 0.590959 138.939209 0.585373
v 13.075301 129.414551 20.195717
v 18.825243 135.565338 16.095230
v -5.561987 133.567261 4.093183
v 2.289796 130.269882 10.242084
v 19.931673 125.866539 6.898318
v 10.079604 129.943085 -0.642464
v -3.407724 140.345764 -10.021264
v -3.505520 135.888962 1.974448
v -1.064522 142.681580 0.363548
v 4.204309 139.345947 -13.070708
v -7.854899 139.670303 -22.206680
v 7.725942 140.129883 -2.881632
v -6.261654 134.004486 -8.496602
v 2.101829 153.709152 8.838067
v 3.915685 150.959991 -2.136362
v 0.709922 156.504410 -0.056840
v -4.629811 152.016891 10.529978
v 4.917440 152.336273 19.741966
v -6.844125 153.368439 1.463773
v 5.594280 148.576691 6.939480
v -5.566020 152.975677 -4.289810
v -2.885537 152.816437 4.123715
v 0.727303 153.854065 -0.689270
v -4.777647 149.057678 -6.222985
v -12.470477 153.358032 -9.426501
v 1.040932 148.895126 -2.022477
v -9.123886 152.255630 0.286243
v 1.855876 154.588562 -6.776057
v -4.616306 153.808685 -0.761287
v 0.281047 156.650421 -0.124187
v 7.816016 153.435211 -14.502409
v 4.010493 156.694244 -16.316956
v 3.842578 152.567108 1.479511
v 5.630644 152.018066 -5.521750
v -0.724064 152.921967 -16.909458
v -2.949865 152.233978 -7.618390
v -1.986566 128.809326 -6.535254
v -4.316096 129.000519 2.044130
v 0.222982 131.545166 -0.503608
v -1.026393 126.586845 -15.926649
v -5.164485 129.902374 -16.077053
v 4.029560 127.411316 -0.249530
v 1.840294 126.127373 -6.968563
v -9.556451 126.430122 -13.403028
v -6.548616 126.722435 -4.298820
v -9.918969 135.153412 0.423111
v 2.249299 134.059479 5.826356
v -0.795226 138.914032 -0.101838
v -21.409136 128.495834 -5.057787
v -22.583538 135.223663 1.275043
v 1.019045 133.038132 -6.301164
v -8.027526 129.431412 -5.360755
v -17.482893 124.614990 8.009510
v -6.242265 129.073975 6.714987
v -0.016489 145.305923 -0.281485
v 3.175427 140.821442 8.986735
v 6.453899 143.386887 1.150404
v -5.552807 138.097382 3.354868
v -7.084987 138.022247 13.154121
v -3.212317 143.653534 7.425575
v 0.722096 141.449707 16.224741
v -0.324405 148.012756 6.551816
v 5.307007 148.348251 -1.863160
v -0.108158 151.617920 -0.134433
v -5.284910 145.753052 5.953945
v 0.022684 143.836487 16.920233
v 5.390772 145.792725 5.751419
v -5.355194 148.352951 -1.618511
v 9.051326 141.329559 -14.986507
v -5.468636 143.248230 -1.297506
v 0.025810 146.429077 0.166090
v 3.695021 143.248230 4.160749
v 0.181649 147.487091 -0.185348
v -16.103056 139.206726 4.649385
v 1.520308 144.306244 5.340863
v 1.938485 144.306244 -5.317010
v -17.441717 142.387558 -0.876828
v -0.215875 148.731262 -0.117022
v 13.756083 140.450897 9.544797
v 3.252107 145.550430 -4.623039
v 5.187963 140.450897 15.897161
v 10.288100 143.631744 14.050812
v 8.611338 152.295746 -1.726932
v -1.721297 151.184052 -5.073596
v -0.172025 154.538147 0.102969
v 18.951857 149.404510 1.750430
v 18.746027 152.224915 -3.246925
v 16.776699 149.375305 -8.713202
v 7.088903 150.118042 -6.913744
v 0.455806 151.190765 5.391858
v 9.538305 148.646606 3.766902
v -14.453573 113.341492 -12.593508
v -2.581952 115.372841 4.882760
v -0.129560 118.740463 -0.614971
v -9.661849 109.973869 -15.758342
v -0.602839 120.092178 -0.629369
v 16.297516 111.325607 5.520961
v 1.741194 116.724571 -6.174167
v 9.224790 111.325607 14.324018
v 13.953484 114.693222 11.065761
v 3.309300 124.827629 -3.258027
v -2.997066 127.420952 -2.220620
v -0.128118 128.888306 -0.711644
v 5.584545 120.369652 -0.841232
v 7.456784 123.101654 -5.601365
v -0.905024 126.927963 2.219217
v 1.909472 123.079643 1.308252
v 0.920253 123.430908 -5.517624
v 1.316438 120.060585 -9.119999
v -6.248349 118.754051 0.175005
v -0.257347 124.188599 -0.414198
v 6.437677 114.626053 -6.521987
v 3.064323 115.475945 -18.788891
v 4.863892 118.754051 2.183814
v -4.674565 114.626053 -8.530797
v -0.162474 121.826088 4.225938
v 3.545150 124.034828 -2.628707
v -0.453211 127.323906 -0.589888
v -4.103446 118.297585 3.156821
v 0.556503 118.566093 11.582599
v 3.882130 118.970695 2.663550
v -4.382861 124.066048 -1.957483
v -6.094974 121.445984 -1.925063
v 1.194587 125.311081 2.476555
v -0.662051 127.410721 -0.941048
v -6.527963 116.076111 -7.288048
v -12.155578 118.523048 -3.093082
v 2.418034 125.526489 -3.881087
v -1.124817 120.213814 -6.039305
v -5.310537 119.256622 1.923666
v -27.240665 53.503292 -22.066105
v -4.312201 56.206158 12.535813
v 0.093274 64.361290 0.644014
v 9.931444 55.079643 -3.697640
v -0.078882 74.957657 0.443359
v -24.943710 62.562973 5.764025
v 1.275987 70.196304 8.846100
v 3.139897 70.196304 -7.010473
v -26.298576 67.324295 -2.638717
v 32.145248 54.286106 27.103136
v 3.039045 57.965092 -10.992152
v -0.878942 66.534836 0.570188
v -10.967423 57.965092 6.440966
v 8.907320 77.673721 -8.384048
v -8.356511 78.674301 -4.047921
v 0.579157 84.610947 -0.060842
v 13.469101 72.667786 -0.602047
v 20.156271 72.350159 -19.739588
v 4.214880 77.423378 8.703606
v 0.375540 72.323532 -12.810551
v -0.158471 68.305008 1.016669
v -5.254069 51.570122 -32.934780
v -11.594948 61.876415 2.141429
v 9.617681 61.876415 5.976125
v 6.182407 57.998703 -34.059544
v -32.346687 59.807983 17.695074
v 8.084948 63.792068 8.623777
v -0.178385 70.397003 0.190524
v -34.669380 53.203049 6.674288
v 1.325120 69.136604 29.899555
v 8.383710 72.359962 -2.873836
v -0.614347 77.703781 0.333222
v -9.496774 72.359962 -1.700929
v -12.107169 80.555626 27.882816
v 9.293033 83.393181 2.000359
v -0.456067 88.342026 0.246609
v -7.032547 82.519295 -5.298419
v 4.903182 104.096634 -29.022022
v -9.401454 101.864929 0.244888
v -0.199036 107.056511 0.945116
v 7.667396 101.307266 3.244123
v 29.054785 77.036530 12.043128
v 0.127722 80.504868 -9.508463
v -0.753083 86.254807 0.732217
v 23.095224 71.286598 19.829002
v 13.233989 99.572701 8.001568
v 3.227010 98.545563 -9.303354
v -0.760461 104.085953 0.672795
v 7.664508 94.572151 14.778061
v 28.503170 97.187363 16.527550
v -6.070414 97.413773 7.454136
v 32.589287 91.506065 6.541129
v 17.007780 93.743851 -1.937797
v 1.523042 54.361519 0.587525
v 19.202538 37.497208 9.794449
v 2.091090 48.791821 -6.523314
v -6.233631 50.494530 4.198054
v 18.634493 43.066898 16.905293
v -4.830114 49.946877 -6.966473
v -1.733630 50.793396 7.088353
v 0.390767 56.047543 1.077917
v -3.572914 42.804272 -18.364857
v -11.108698 46.054111 -16.817390
v -13.205418 40.918236 -10.791858
v -7.237045 44.437737 -1.186853
v 7.930062 52.879253 -0.473001
v 2.673631 47.398827 -8.598976
v -14.220023 79.486465 12.558987
v 9.571188 77.806274 6.602173
v -1.571423 85.262413 1.449676
v -37.114960 69.261093 17.634043
v -31.637606 79.594360 28.158625
v -5.968541 76.237579 -9.606791
v -18.033936 70.698044 2.018083
v -16.595955 63.300488 32.149654
v -1.747287 70.149048 17.522448
v 17.009148 87.625397 -2.722765
v -2.924549 80.138031 -5.690182
v -0.815316 91.549606 -1.252584
v 20.302559 85.945747 10.653918
v 38.321106 86.490685 -7.272196
v 2.528204 87.262772 14.130345
v 15.139925 76.972168 -7.827166
v -15.654196 110.075806 2.033673
v 2.179223 105.457207 7.617206
v -0.530814 114.771790 1.797765
v -16.895004 107.232819 -9.560951
v -34.452679 107.769371 4.168403
v -1.294359 109.503403 -11.125000
v -13.312200 101.453300 8.287764
v 7.978705 108.843544 -7.653449
v -6.645107 108.576035 -5.161254
v 0.517260 110.319221 1.974545
v 11.010482 102.261345 -5.889884
v 18.138649 109.485878 -17.938986
v 2.661904 101.988251 2.808018
v 1.197659 107.633881 -14.642385
v 10.379618 111.553169 5.275233
v 1.886459 110.243057 -6.898466
v -0.318497 115.017082 1.100012
v 21.839958 109.615547 16.997267
v 25.748480 115.090691 11.090508
v -3.819198 108.157158 6.650158
v 7.410321 107.234802 11.261820
v 27.841179 108.753365 3.352426
v 12.904583 107.597504 -2.522850
v 10.877392 68.244308 -1.173543
v -2.850960 68.565559 -7.054990
v 0.326283 72.840508 1.092097
v 26.276804 64.510559 2.619637
v 27.494551 70.080658 -4.229492
v -0.986430 65.895676 7.365470
v 10.703500 63.738663 5.294290
v 24.072819 64.247299 -12.161365
v 8.223416 64.738388 -9.286063
v 1.155849 78.902313 -15.997142
v -10.678279 77.064499 2.983157
v -0.104047 85.220123 -0.695764
v 12.960604 67.717690 -33.831165
v 2.699637 79.020363 -37.265625
v 9.785211 75.348663 3.771990
v 10.335880 69.289444 -11.498144
v -9.696689 61.197887 -30.354588
v -10.171234 68.688927 -11.351534
v 0.012751 95.958458 0.641785
v -16.152554 88.424530 3.784984
v -3.882240 92.734482 11.071397
v -4.742398 83.848160 -9.418887
v -20.686600 83.721924 -14.259046
v -12.061814 93.182472 -6.476915
v -27.620386 89.480064 -1.988799
v -11.283414 100.505890 -1.468166
v 1.399407 101.069511 9.867987
v -0.210454 106.562538 0.454906
v -9.128955 96.709625 -9.580882
v -28.613895 93.489807 -3.314975
v -11.288109 96.776245 8.226978
v 3.485329 101.077446 -7.927290
v 22.356489 89.278206 19.165554
v 2.977808 92.501572 -8.191079
v -0.741746 97.845383 0.607508
v -8.245319 92.501572 5.777769
v 5.077376 91.055641 -28.208342
v -9.700140 94.278999 1.883905
v -0.193512 99.622803 0.948941
v 7.932966 94.278999 5.071518
v -0.214232 101.713036 0.271631
v -19.554825 87.802063 21.256912
v 6.471310 96.369225 7.094653
v -28.119570 87.802063 5.517394
v -26.240370 93.145859 14.433892
v 0.400188 107.701256 15.333362
v 8.383710 105.833649 -1.073951
v -0.590470 111.468475 0.293149
v -7.802613 102.843979 31.723234
v 0.559321 107.582306 32.549248
v 10.113689 102.794930 30.551060
v 9.385140 104.042763 14.013305
v -9.536082 105.844910 0.101040
v -8.956317 101.570793 15.590987
v -8.882062 153.648468 6.779812
v 1.597526 157.666779 2.704085
v -4.978058 159.869614 -2.193626
v -10.615531 153.688629 -3.704486
v -10.879062 153.688629 3.012021
v 5.589308 155.948242 1.101674
v 4.702448 156.327911 -3.581400
v 0.596919 156.552780 5.695749
v -3.396024 120.973167 -5.768571
v -4.786150 129.971222 -1.490857
v 5.779245 115.399765 -22.765661
v 17.215490 115.399765 -15.953760
v -9.489719 128.654266 -13.809251
v -15.884245 127.846939 -5.252621
v 2.332153 125.018883 -6.385012
v 17.002695 119.856133 11.810564
v -6.570411 126.159164 2.150642
v 14.484941 126.159607 -8.517046
v -0.609605 131.259125 5.517956
v 17.270851 133.191772 -1.285989
v 14.321036 132.671600 8.941737
v -17.557320 147.059845 4.775617
v -17.203434 146.727905 -5.534050
v -1.811187 130.620209 -18.015615
v 9.381205 130.620209 -15.476919
v 11.517620 140.921219 -15.596997
v 2.597227 118.243919 3.105815
v -0.429164 139.068802 -24.968885
v -10.834399 133.180450 -21.187279
v -1.681725 151.027740 21.260799
v 8.492483 147.038452 18.272505
v -11.422675 149.682648 -11.410327
v -16.356245 152.588547 -5.005112
v -8.822426 134.021393 10.161876
v -2.191249 141.410950 -4.544199
v -5.111864 141.408508 15.720292
v 5.666270 142.854050 15.683749
v 3.556880 138.148712 -16.450109
v 12.720540 138.148712 -10.991857
v -15.684879 139.206726 -6.008491
v -5.316012 145.550430 1.729325
v -16.905966 109.973869 -7.095778
v 4.662162 115.372841 -3.779805
v -5.331534 116.724571 2.628887
v 4.353939 120.425354 -7.165388
v 8.185567 110.041389 -16.190878
v -2.926679 110.041389 -18.199686
v -3.599012 113.837448 9.644437
v 4.399299 114.475250 9.263970
v -10.074635 114.853081 0.264756
v -31.646137 45.348145 -10.174304
v -17.402496 44.221638 -26.407755
v -23.079800 62.562973 -10.092551
v 36.063240 45.716366 15.540797
v 22.056768 45.716366 32.973923
v 24.733027 67.983833 -11.955364
v 11.992970 66.627541 -24.594185
v 15.958554 51.570118 -29.100092
v -24.083357 53.203045 26.128328
v -2.501077 63.792068 -10.830268
v 10.323174 63.792793 26.692492
v -7.557307 63.792793 27.865402
v -2.358073 75.606812 29.636578
v -18.683651 74.732925 22.337791
v -4.299237 98.905060 -29.722256
v 12.769613 98.347397 -26.723022
v 29.935589 71.286598 1.802451
v -6.712647 80.504868 8.518088
v 22.795477 88.592186 23.411320
v 10.877821 39.199894 20.515820
v 41.180214 85.480141 5.727389
v 37.321812 75.587784 -12.467366
v -35.436535 105.571045 -7.165363
v -32.843910 98.869057 10.459559
v 21.194031 103.311317 -15.731984
v 11.691570 108.193237 -25.437258
v -15.302354 77.000549 -16.449909
v 7.612854 89.414940 -1.979576
v -25.417120 89.410828 -11.576466
v -27.876358 91.839340 6.363024
v 26.076044 83.934402 10.366963
v 14.852915 83.934395 24.335814
v -4.429256 85.711830 -27.273384
v 13.203852 85.711830 -24.085770
v -2.093434 96.369225 -8.644866
vt 0.375000 5.793305
vt 0.000000 1.209169
vt 0.375000 -3.374967
vt 0.125000 -3.374967
vt 0.375000 5.793305
vt 0.500000 1.209169
vt 0.083333 0.251980
vt 0.000000 5.793305
vt 0.000000 0.251980
vt 0.166667 0.251980
vt 0.083333 5.793305
vt 0.250000 5.793305
vt 0.166667 5.793305
vt 0.250000 0.251980
vt 0.333333 5.793305
vt 0.333333 0.251980
vt 0.416667 5.793305
vt 0.500000 0.251980
vt 0.416667 0.251980
vt 0.000000 -2.315776
vt 0.083333 -2.315776
vt 0.250000 -2.315776
vt 0.166667 -2.315776
vt 0.333333 -2.315776
vt 0.416667 -2.315776
vt 0.083333 -4.793305
vt 0.000000 -4.793305
vt 0.166667 -4.793305
vt 0.250000 -4.793305
vt 0.333333 -4.793305
vt 0.500000 -4.793305
vt 0.416667 -4.793305
vt 0.500000 1.209169
vt 0.125000 5.793305
vt 0.125000 -3.374967
vt 0.375000 -3.374967
vt 0.000000 1.209169
vt 0.125000 5.793305
vt 0.500000 5.793305
vt 0.500000 -2.315776
vt 0.978518 0.015168
vt 0.511951 0.989754
vt 0.511951 0.015168
vt 0.986607 0.013393
vt 0.512450 0.986607
vt 0.512450 0.013393
vt 0.978518 0.015168
vt 0.511951 0.989754
vt 0.511951 0.015168
vt 0.512450 0.013393
vt 0.986607 0.986607
vt 0.512450 0.986607
vt 0.978518 0.512673
vt 0.511951 0.015168
vt 0.978518 0.015168
vt 0.512450 0.510198
vt 0.986607 0.986607
vt 0.512450 0.986607
vt 0.986607 0.013393
vt 0.986607 0.510198
vt 0.978518 0.989754
vt 0.511951 0.512673
vt 0.978518 0.476920
vt 0.511951 0.015168
vt 0.978518 0.015168
vt 0.986607 0.474495
vt 0.512450 0.986607
vt 0.512450 0.474495
vt 0.986607 0.013393
vt 0.978518 0.989754
vt 0.511951 0.476920
vt 0.979916 0.450442
vt 0.515475 0.017233
vt 0.979916 0.017233
vt 0.986607 0.478890
vt 0.512450 0.986607
vt 0.512450 0.478890
vt 0.978518 0.989754
vt 0.511951 0.481321
vt 0.978518 0.481321
vt 0.986607 0.013393
vt 0.978518 0.512673
vt 0.511951 0.015168
vt 0.978518 0.015168
vt 0.512450 0.510198
vt 0.986607 0.986607
vt 0.512450 0.986607
vt 0.986607 0.013393
vt 0.986607 0.510198
vt 0.978518 0.989754
vt 0.511951 0.512673
vt 0.978518 0.015168
vt 0.511951 0.989754
vt 0.511951 0.015168
vt 0.512450 0.013393
vt 0.986607 0.986607
vt 0.512450 0.986607
vt 0.978518 0.015168
vt 0.511951 0.989754
vt 0.511951 0.015168
vt 0.512450 0.013393
vt 0.986607 0.986607
vt 0.512450 0.986607
vt 0.978518 0.989754
vt 0.511951 0.015168
vt 0.978518 0.015168
vt 0.986607 0.013393
vt 0.512450 0.986607
vt 0.512450 0.013393
vt 0.978518 0.464001
vt 0.511951 0.015168
vt 0.978518 0.015168
vt 0.986607 0.461594
vt 0.512450 0.986607
vt 0.512450 0.461594
vt 0.986607 0.013393
vt 0.978518 0.989754
vt 0.511951 0.464001
vt 0.978518 0.015168
vt 0.511951 0.989754
vt 0.511951 0.015168
vt 0.512450 0.013393
vt 0.986607 0.986607
vt 0.512450 0.986607
vt 0.978518 0.989754
vt 0.511951 0.015168
vt 0.978518 0.015168
vt 0.512450 0.013393
vt 0.986607 0.986607
vt 0.512450 0.986607
vt 0.978518 0.989754
vt 0.511951 0.015168
vt 0.978518 0.015168
vt 0.512450 0.013393
vt 0.986607 0.986607
vt 0.512450 0.986607
vt 0.978518 0.989754
vt 0.511951 0.015168
vt 0.978518 0.015168
vt 0.986607 0.013393
vt 0.512450 0.986607
vt 0.512450 0.013393
vt 0.978518 0.989754
vt 0.511951 0.015168
vt 0.978518 0.015168
vt 0.986607 0.013393
vt 0.512450 0.986607
vt 0.512450 0.013393
vt 0.978518 0.989754
vt 0.511951 0.015168
vt 0.978518 0.015168
vt 0.986607 0.013393
vt 0.512450 0.986607
vt 0.512450 0.013393
vt 0.978518 0.467272
vt 0.511951 0.015168
vt 0.978518 0.015168
vt 0.986607 0.464861
vt 0.512450 0.986607
vt 0.512450 0.464861
vt 0.986607 0.013393
vt 0.511951 0.989754
vt 0.511951 0.467272
vt 0.978518 0.015168
vt 0.511951 0.989754
vt 0.511951 0.015168
vt 0.512450 0.013393
vt 0.986607 0.986607
vt 0.512450 0.986607
vt 0.978518 0.462894
vt 0.511951 0.015168
vt 0.978518 0.015168
vt 0.512450 0.460489
vt 0.986607 0.986607
vt 0.512450 0.986607
vt 0.511951 0.989754
vt 0.511951 0.462894
vt 0.986607 0.013393
vt 0.986607 0.460489
vt 0.978518 0.464001
vt 0.511951 0.015168
vt 0.978518 0.015168
vt 0.512450 0.461594
vt 0.986607 0.986607
vt 0.512450 0.986607
vt 0.986607 0.013393
vt 0.986607 0.461594
vt 0.511951 0.989754
vt 0.511951 0.464001
vt 0.978518 0.464001
vt 0.511951 0.015168
vt 0.978518 0.015168
vt 0.986607 0.461594
vt 0.512450 0.986607
vt 0.512450 0.461594
vt 0.986607 0.013393
vt 0.978518 0.989754
vt 0.511951 0.464001
vt 0.978518 0.464001
vt 0.511951 0.015168
vt 0.978518 0.015168
vt 0.986607 0.461594
vt 0.512450 0.986607
vt 0.512450 0.461594
vt 0.986607 0.013393
vt 0.978518 0.989754
vt 0.511951 0.464001
vt 0.980145 0.459133
vt 0.530011 0.010932
vt 0.980145 0.010932
vt 0.986607 0.461594
vt 0.512450 0.986607
vt 0.512450 0.461594
vt 0.986607 0.013393
vt 0.978518 0.989754
vt 0.511951 0.464001
vt 0.978518 0.464001
vt 0.978518 0.464001
vt 0.511951 0.015168
vt 0.978518 0.015168
vt 0.512450 0.461594
vt 0.986607 0.986607
vt 0.512450 0.986607
vt 0.986607 0.013393
vt 0.986607 0.461594
vt 0.511951 0.989754
vt 0.511951 0.464001
vt 0.978518 0.464001
vt 0.511951 0.015168
vt 0.978518 0.015168
vt 0.512450 0.461594
vt 0.986607 0.986607
vt 0.512450 0.986607
vt 0.986607 0.013393
vt 0.986607 0.461594
vt 0.511951 0.989754
vt 0.511951 0.464001
vt 0.978518 0.464001
vt 0.511951 0.015168
vt 0.978518 0.015168
vt 0.512450 0.461594
vt 0.986607 0.986607
vt 0.512450 0.986607
vt 0.986607 0.013393
vt 0.986607 0.461594
vt 0.511951 0.989754
vt 0.511951 0.464001
vt 0.978518 0.015168
vt 0.511951 0.528935
vt 0.511951 0.015168
vt 0.986607 0.526437
vt 0.512450 0.986607
vt 0.512450 0.526437
vt 0.978518 0.528935
vt 0.511951 0.989754
vt 0.512450 0.013393
vt 0.978518 0.452901
vt 0.511951 0.015168
vt 0.978518 0.015168
vt 0.986607 0.450510
vt 0.512450 0.986607
vt 0.512450 0.450510
vt 0.978518 0.989754
vt 0.511951 0.452901
vt 0.986607 0.013393
vt 0.978518 0.989754
vt 0.511951 0.015168
vt 0.978518 0.015168
vt 0.986607 0.013393
vt 0.512450 0.986607
vt 0.512450 0.013393
vt 0.978518 0.015168
vt 0.511951 0.989754
vt 0.511951 0.015168
vt 0.986607 0.013393
vt 0.512450 0.986607
vt 0.512450 0.013393
vt 0.978518 0.015168
vt 0.511951 0.989754
vt 0.511951 0.015168
vt 0.512450 0.013393
vt 0.986607 0.986607
vt 0.512450 0.986607
vt 0.978518 0.486174
vt 0.511951 0.015168
vt 0.978518 0.015168
vt 0.512450 0.483736
vt 0.986607 0.986607
vt 0.512450 0.986607
vt 0.511951 0.989754
vt 0.511951 0.486174
vt 0.986607 0.013393
vt 0.986607 0.483736
vt 0.961238 0.973619
vt 0.514466 0.006695
vt 0.961238 0.006695
vt 0.512450 0.013393
vt 0.986607 0.986607
vt 0.512450 0.986607
vt 0.961238 0.006695
vt 0.514466 0.973619
vt 0.514466 0.006695
vt 0.512450 0.013393
vt 0.986607 0.986607
vt 0.512450 0.986607
vt 0.512450 0.510198
vt 0.013393 0.013393
vt 0.512450 0.013393
vt 0.986607 0.986607
vt 0.512450 0.986607
vt 0.986607 0.013393
vt 0.986607 0.510198
vt 0.013393 0.510198
vt 0.961238 0.464817
vt 0.514466 0.006695
vt 0.961238 0.006695
vt 0.986607 0.474495
vt 0.512450 0.986607
vt 0.512450 0.474495
vt 0.986607 0.013393
vt 0.961238 0.973619
vt 0.514466 0.464817
vt 0.961238 0.469183
vt 0.514466 0.006695
vt 0.961238 0.006695
vt 0.986607 0.478890
vt 0.512450 0.986607
vt 0.512450 0.478890
vt 0.961238 0.973619
vt 0.514466 0.469183
vt 0.986607 0.013393
vt 0.512450 0.510198
vt 0.013393 0.013393
vt 0.512450 0.013393
vt 0.986607 0.986607
vt 0.512450 0.986607
vt 0.986607 0.013393
vt 0.986607 0.510198
vt 0.961238 0.973619
vt 0.514466 0.500289
vt 0.961238 0.500289
vt 0.961238 0.973619
vt 0.514466 0.006695
vt 0.961238 0.006695
vt 0.986607 0.013393
vt 0.512450 0.986607
vt 0.512450 0.013393
vt 0.961238 0.006695
vt 0.514466 0.973619
vt 0.514466 0.006695
vt 0.986607 0.013393
vt 0.512450 0.986607
vt 0.512450 0.013393
vt 0.961238 0.973619
vt 0.514466 0.006695
vt 0.961238 0.006695
vt 0.986607 0.013393
vt 0.512450 0.986607
vt 0.512450 0.013393
vt 0.966613 0.459133
vt 0.528778 0.010932
vt 0.966613 0.010932
vt 0.986607 0.461594
vt 0.512450 0.986607
vt 0.512450 0.461594
vt 0.986607 0.013393
vt 0.961238 0.973619
vt 0.514466 0.451999
vt 0.961238 0.451999
vt 0.961238 0.006695
vt 0.514466 0.973619
vt 0.514466 0.006695
vt 0.986607 0.013393
vt 0.512450 0.986607
vt 0.512450 0.013393
vt 0.961238 0.973619
vt 0.514466 0.006695
vt 0.961238 0.006695
vt 0.512450 0.013393
vt 0.986607 0.986607
vt 0.512450 0.986607
vt 0.961238 0.973619
vt 0.514466 0.006695
vt 0.961238 0.006695
vt 0.986607 0.013393
vt 0.512450 0.986607
vt 0.512450 0.013393
vt 0.961238 0.973619
vt 0.514466 0.006695
vt 0.961238 0.006695
vt 0.986607 0.013393
vt 0.512450 0.986607
vt 0.512450 0.013393
vt 0.961238 0.973619
vt 0.514466 0.006695
vt 0.961238 0.006695
vt 0.986607 0.013393
vt 0.512450 0.986607
vt 0.512450 0.013393
vt 0.961238 0.973619
vt 0.514466 0.006695
vt 0.961238 0.006695
vt 0.512450 0.013393
vt 0.986607 0.986607
vt 0.512450 0.986607
vt 0.961238 0.455245
vt 0.514466 0.006695
vt 0.961238 0.006695
vt 0.986607 0.464861
vt 0.512450 0.986607
vt 0.512450 0.464861
vt 0.986607 0.013393
vt 0.514466 0.973619
vt 0.514466 0.455245
vt 0.961238 0.006695
vt 0.514466 0.973619
vt 0.514466 0.006695
vt 0.986607 0.013393
vt 0.512450 0.986607
vt 0.512450 0.013393
vt 0.966613 0.458028
vt 0.528778 0.010932
vt 0.966613 0.010932
vt 0.512450 0.460489
vt 0.986607 0.986607
vt 0.512450 0.986607
vt 0.961238 0.450901
vt 0.514466 0.973619
vt 0.514466 0.450901
vt 0.986607 0.013393
vt 0.986607 0.460489
vt 0.961238 0.451999
vt 0.514466 0.006695
vt 0.961238 0.006695
vt 0.512450 0.461594
vt 0.986607 0.986607
vt 0.512450 0.986607
vt 0.986607 0.013393
vt 0.986607 0.461594
vt 0.514466 0.973619
vt 0.514466 0.451999
vt 0.961238 0.451999
vt 0.514466 0.006695
vt 0.961238 0.006695
vt 0.986607 0.461594
vt 0.512450 0.986607
vt 0.512450 0.461594
vt 0.986607 0.013393
vt 0.961238 0.973619
vt 0.514466 0.451999
vt 0.961238 0.451999
vt 0.514466 0.006695
vt 0.961238 0.006695
vt 0.986607 0.461594
vt 0.512450 0.986607
vt 0.512450 0.461594
vt 0.986607 0.013393
vt 0.961238 0.973619
vt 0.514466 0.451999
vt 0.961238 0.451999
vt 0.514466 0.006695
vt 0.961238 0.006695
vt 0.986607 0.461594
vt 0.512450 0.986607
vt 0.512450 0.461594
vt 0.986607 0.013393
vt 0.961238 0.973619
vt 0.514466 0.451999
vt 0.961238 0.451999
vt 0.514466 0.006695
vt 0.961238 0.006695
vt 0.512450 0.461594
vt 0.986607 0.986607
vt 0.512450 0.986607
vt 0.986607 0.013393
vt 0.986607 0.461594
vt 0.514466 0.973619
vt 0.514466 0.451999
vt 0.961238 0.451999
vt 0.514466 0.006695
vt 0.961238 0.006695
vt 0.512450 0.461594
vt 0.986607 0.986607
vt 0.512450 0.986607
vt 0.986607 0.013393
vt 0.986607 0.461594
vt 0.514466 0.973619
vt 0.514466 0.451999
vt 0.961238 0.451999
vt 0.514466 0.006695
vt 0.961238 0.006695
vt 0.512450 0.461594
vt 0.986607 0.986607
vt 0.512450 0.986607
vt 0.986607 0.013393
vt 0.986607 0.461594
vt 0.514466 0.973619
vt 0.514466 0.451999
vt 0.966613 0.010932
vt 0.528778 0.523976
vt 0.528778 0.010932
vt 0.986607 0.526437
vt 0.512450 0.986607
vt 0.512450 0.526437
vt 0.961238 0.516423
vt 0.514466 0.973619
vt 0.514466 0.516423
vt 0.512450 0.013393
vt 0.961238 0.440987
vt 0.514466 0.006695
vt 0.961238 0.006695
vt 0.986607 0.450510
vt 0.512450 0.986607
vt 0.512450 0.450510
vt 0.961238 0.973619
vt 0.514466 0.440987
vt 0.986607 0.013393
vt 0.961238 0.973619
vt 0.514466 0.006695
vt 0.961238 0.006695
vt 0.986607 0.013393
vt 0.512450 0.986607
vt 0.512450 0.013393
vt 0.961238 0.973619
vt 0.514466 0.006695
vt 0.961238 0.006695
vt 0.986607 0.013393
vt 0.512450 0.986607
vt 0.512450 0.013393
vt 0.961238 0.006695
vt 0.514466 0.973619
vt 0.514466 0.006695
vt 0.512450 0.013393
vt 0.986607 0.986607
vt 0.512450 0.986607
vt 0.961238 0.473998
vt 0.514466 0.006695
vt 0.961238 0.006695
vt 0.512450 0.483736
vt 0.986607 0.986607
vt 0.512450 0.986607
vt 0.514466 0.973619
vt 0.514466 0.473998
vt 0.986607 0.013393
vt 0.986607 0.483736
vt 0.978518 0.989754
vt 0.986607 0.986607
vt 0.978518 0.989754
vt 0.986607 0.013393
vt 0.512450 0.013393
vt 0.511951 0.989754
vt 0.986607 0.986607
vt 0.512450 0.013393
vt 0.511951 0.989754
vt 0.515475 0.450442
vt 0.986607 0.986607
vt 0.511951 0.989754
vt 0.512450 0.013393
vt 0.512450 0.013393
vt 0.511951 0.989754
vt 0.978518 0.989754
vt 0.986607 0.013393
vt 0.978518 0.989754
vt 0.986607 0.013393
vt 0.511951 0.989754
vt 0.986607 0.986607
vt 0.986607 0.986607
vt 0.512450 0.013393
vt 0.511951 0.989754
vt 0.978518 0.989754
vt 0.986607 0.013393
vt 0.511951 0.989754
vt 0.986607 0.013393
vt 0.511951 0.989754
vt 0.986607 0.013393
vt 0.511951 0.989754
vt 0.986607 0.986607
vt 0.511951 0.989754
vt 0.986607 0.986607
vt 0.511951 0.989754
vt 0.986607 0.986607
vt 0.986607 0.986607
vt 0.512450 0.013393
vt 0.978518 0.989754
vt 0.978518 0.989754
vt 0.986607 0.013393
vt 0.978518 0.989754
vt 0.512450 0.013393
vt 0.512450 0.013393
vt 0.978518 0.989754
vt 0.986607 0.986607
vt 0.512450 0.013393
vt 0.511951 0.989754
vt 0.986607 0.986607
vt 0.512450 0.013393
vt 0.511951 0.989754
vt 0.530011 0.459133
vt 0.986607 0.986607
vt 0.512450 0.013393
vt 0.511951 0.989754
vt 0.512450 0.013393
vt 0.978518 0.989754
vt 0.512450 0.013393
vt 0.978518 0.989754
vt 0.512450 0.013393
vt 0.978518 0.989754
vt 0.986607 0.986607
vt 0.978518 0.989754
vt 0.986607 0.013393
vt 0.986607 0.986607
vt 0.511951 0.989754
vt 0.512450 0.013393
vt 0.511951 0.989754
vt 0.986607 0.986607
vt 0.978518 0.989754
vt 0.986607 0.986607
vt 0.978518 0.989754
vt 0.986607 0.013393
vt 0.978518 0.989754
vt 0.512450 0.013393
vt 0.514466 0.973619
vt 0.986607 0.013393
vt 0.961238 0.973619
vt 0.986607 0.013393
vt 0.013393 0.986607
vt 0.986607 0.986607
vt 0.512450 0.013393
vt 0.514466 0.973619
vt 0.986607 0.986607
vt 0.514466 0.973619
vt 0.512450 0.013393
vt 0.013393 0.510198
vt 0.514466 0.973619
vt 0.514466 0.973619
vt 0.986607 0.986607
vt 0.961238 0.973619
vt 0.986607 0.986607
vt 0.514466 0.973619
vt 0.986607 0.986607
vt 0.528778 0.459133
vt 0.986607 0.986607
vt 0.512450 0.013393
vt 0.514466 0.973619
vt 0.961238 0.973619
vt 0.986607 0.986607
vt 0.514466 0.973619
vt 0.986607 0.013393
vt 0.514466 0.973619
vt 0.986607 0.986607
vt 0.514466 0.973619
vt 0.986607 0.986607
vt 0.514466 0.973619
vt 0.986607 0.986607
vt 0.514466 0.973619
vt 0.986607 0.013393
vt 0.986607 0.986607
vt 0.512450 0.013393
vt 0.961238 0.973619
vt 0.961238 0.973619
vt 0.986607 0.986607
vt 0.528778 0.458028
vt 0.961238 0.973619
vt 0.512450 0.013393
vt 0.512450 0.013393
vt 0.961238 0.973619
vt 0.986607 0.986607
vt 0.512450 0.013393
vt 0.514466 0.973619
vt 0.986607 0.986607
vt 0.512450 0.013393
vt 0.514466 0.973619
vt 0.986607 0.986607
vt 0.512450 0.013393
vt 0.514466 0.973619
vt 0.512450 0.013393
vt 0.961238 0.973619
vt 0.512450 0.013393
vt 0.961238 0.973619
vt 0.512450 0.013393
vt 0.961238 0.973619
vt 0.966613 0.523976
vt 0.986607 0.986607
vt 0.961238 0.973619
vt 0.986607 0.013393
vt 0.986607 0.986607
vt 0.514466 0.973619
vt 0.512450 0.013393
vt 0.514466 0.973619
vt 0.986607 0.986607
vt 0.514466 0.973619
vt 0.986607 0.986607
vt 0.961238 0.973619
vt 0.986607 0.013393
vt 0.961238 0.973619
vt 0.512450 0.013393
vn -0.0001 1.0000 -0.0097
vn -0.0001 1.0000 -0.0096
vn 0.0029 -1.0000 -0.0000
vn -0.8405 0.0332 0.5407
vn -0.9987 0.0079 0.0506
vn -0.9986 0.0136 0.0503
vn 0.0509 0.0496 0.9975
vn -0.4554 0.0148 0.8902
vn 0.5432 0.0144 0.8394
vn 0.0507 0.0168 0.9986
vn 0.8911 0.0292 0.4528
vn 0.8388 0.0043 -0.5444
vn 0.9987 0.0071 -0.0508
vn 0.8385 -0.0071 -0.5448
vn -0.0507 0.0006 -0.9987
vn -0.5431 -0.0190 -0.8394
vn -0.0501 -0.0234 -0.9985
vn -0.8913 0.0013 -0.4533
vn -0.8383 0.0335 0.5442
vn 0.8889 0.0343 0.4569
vn 0.0493 0.0485 0.9976
vn 0.8407 0.0022 -0.5415
vn -0.0513 -0.0147 -0.9986
vn -0.9987 0.0104 0.0506
vn -0.8900 0.0133 -0.4557
vn 0.0512 0.0179 0.9985
vn -0.4555 0.0130 0.8901
vn 0.9985 0.0202 -0.0506
vn 0.8396 0.0218 -0.5428
vn -0.0500 0.0174 -0.9986
vn -0.0001 1.0000 -0.0095
vn -0.5432 0.0007 -0.8396
vn 0.5431 0.0179 0.8395
vn 0.3326 0.8100 0.4830
vn -0.5950 0.7977 -0.0987
vn -0.3420 0.8100 -0.4763
vn 0.5968 0.7977 0.0870
vn -0.6294 0.7770 -0.0091
vn -0.7647 0.6435 -0.0347
vn -0.8046 0.5939 -0.0009
vn 0.3793 0.5356 -0.7545
vn 0.4011 0.6084 -0.6848
vn 0.4765 0.6113 -0.6319
vn 0.3426 0.4233 -0.8387
vn 0.3253 0.5302 -0.7830
vn -0.7365 0.6718 0.0791
vn -0.6870 0.7264 -0.0184
vn -0.3305 0.6503 0.6841
vn -0.2675 0.6339 -0.7257
vn 0.2952 0.6569 -0.6938
vn 0.4323 0.5370 -0.7244
vn 0.4310 0.5027 -0.7494
vn 0.5943 0.5504 0.5865
vn 0.4786 0.5791 0.6600
vn 0.5603 0.5810 0.5904
vn 0.1929 0.6315 -0.7510
vn 0.3260 0.6339 -0.7014
vn 0.6848 0.5002 0.5299
vn 0.5889 0.6683 0.4546
vn 0.6656 0.5163 0.5389
vn 0.7087 0.4642 0.5313
vn -0.6357 0.6342 0.4401
vn -0.6071 0.7013 0.3737
vn -0.6370 0.7118 0.2958
vn -0.6720 0.5356 0.5114
vn -0.6091 0.6284 0.4838
vn 0.7245 0.5301 0.4406
vn 0.6174 0.6156 0.4897
vn 0.3899 0.7633 0.5152
vn -0.7258 0.6538 -0.2138
vn 0.5428 0.8100 0.2220
vn -0.5519 0.7977 0.2432
vn -0.4345 0.7431 -0.5089
vn 0.6687 0.7275 0.1535
vn -0.5954 0.7619 0.2549
vn -0.6646 0.7120 0.2266
vn -0.6857 0.6883 0.2367
vn 0.0890 0.8064 -0.5846
vn 0.0982 0.8285 -0.5513
vn 0.0959 0.7725 -0.6278
vn 0.0890 0.7078 -0.7008
vn -0.5448 0.7896 0.2824
vn -0.5944 0.7660 0.2447
vn -0.2551 0.8100 0.5280
vn -0.2086 0.7977 -0.5659
vn 0.5714 0.8100 -0.1321
vn -0.3103 0.7977 0.5172
vn -0.3103 0.7977 0.5171
vn 0.1198 0.8100 -0.5741
vn 0.3393 0.7977 0.4986
vn 0.3366 0.8474 -0.4107
vn 0.0372 0.7690 0.6381
vn -0.0985 0.8642 0.4934
vn -0.0620 0.8099 -0.5832
vn -0.4725 0.8100 -0.3473
vn 0.5945 0.7977 -0.1017
vn -0.3933 0.8553 -0.3372
vn -0.3643 0.8432 -0.3953
vn -0.3572 0.8508 -0.3855
vn 0.5716 0.8191 0.0482
vn 0.6560 0.7527 0.0556
vn 0.5445 0.8371 0.0533
vn 0.6213 0.7834 0.0162
vn -0.4097 0.8682 -0.2799
vn -0.3987 0.8493 -0.3461
vn -0.4797 0.5616 -0.6741
vn 0.6364 0.7714 0.0029
vn 0.3173 0.5658 0.7611
vn 0.2691 0.5206 0.8103
vn 0.2700 0.5170 0.8123
vn -0.5851 0.8051 -0.0973
vn -0.5241 0.8374 -0.1555
vn -0.5220 0.8325 -0.1855
vn 0.3529 0.5996 0.7183
vn 0.3074 0.5593 0.7698
vn -0.6585 0.7498 -0.0640
vn -0.5788 0.8122 -0.0733
vn 0.5794 0.7096 -0.4010
vn 0.6265 0.7166 -0.3067
vn 0.5904 0.7514 -0.2948
vn -0.3371 0.7339 0.5898
vn -0.4243 0.7509 0.5061
vn -0.4333 0.7453 0.5068
vn -0.2460 0.7006 0.6698
vn -0.3267 0.7268 0.6042
vn 0.5139 0.6909 -0.5085
vn 0.6163 0.7094 -0.3421
vn -0.8755 0.4311 0.2180
vn -0.9105 0.3901 0.1375
vn -0.9232 0.3625 0.1272
vn 0.0795 0.9927 -0.0912
vn 0.0682 0.9962 -0.0545
vn 0.1057 0.9857 -0.1315
vn 0.1323 0.9712 -0.1982
vn -0.8526 0.4405 0.2811
vn -0.8708 0.4413 0.2168
vn 0.8209 0.5671 -0.0679
vn 0.8528 0.5222 0.0101
vn 0.8685 0.4954 0.0194
vn -0.1846 0.9668 0.1768
vn -0.1699 0.9752 0.1417
vn -0.2153 0.9529 0.2135
vn -0.2500 0.9274 0.2783
vn 0.8025 0.5826 -0.1286
vn 0.8153 0.5755 -0.0635
vn -0.0928 0.9910 0.0967
vn -0.1562 0.9854 0.0684
vn -0.1796 0.9808 0.0758
vn 0.5365 0.4693 -0.7013
vn 0.5566 0.4878 -0.6725
vn 0.5231 0.4267 -0.7378
vn 0.4744 0.3384 -0.8127
vn -0.0453 0.9907 0.1280
vn -0.0850 0.9921 0.0926
vn -0.4559 0.8746 -0.1650
vn -0.4102 0.8497 -0.3312
vn -0.4323 0.8277 -0.3578
vn 0.5726 0.8074 0.1422
vn 0.5218 0.8044 0.2841
vn 0.5349 0.7914 0.2961
vn 0.6767 0.7363 -0.0039
vn 0.5096 0.8457 0.1584
vn -0.5636 0.8259 0.0165
vn -0.4068 0.8986 -0.1645
vn -0.4635 0.8861 0.0027
vn -0.5165 0.8414 -0.1591
vn -0.5508 0.8176 -0.1678
vn 0.5782 0.7696 -0.2708
vn 0.6058 0.7861 -0.1229
vn 0.6227 0.7735 -0.1181
vn 0.5934 0.6692 -0.4473
vn 0.5315 0.8146 -0.2323
vn -0.4528 0.8660 0.2120
vn -0.4233 0.9055 -0.0283
vn -0.1434 0.6424 0.7528
vn -0.2589 0.6503 0.7142
vn -0.2416 0.6886 0.6837
vn -0.1802 0.6696 -0.7206
vn -0.0515 0.6884 -0.7235
vn -0.0444 0.6817 -0.7303
vn -0.3128 0.6331 -0.7080
vn -0.2029 0.6623 -0.7212
vn -0.0222 0.6274 0.7783
vn -0.2274 0.6469 0.7279
vn 0.2530 0.9050 0.3420
vn 0.3593 0.9187 0.1638
vn 0.1838 0.9101 0.3713
vn -0.8455 0.5100 -0.1582
vn -0.8716 0.4717 -0.1333
vn -0.8536 0.4896 -0.1780
vn 0.0917 0.9499 0.2987
vn -0.1132 0.9541 0.2771
vn 0.3086 0.9265 0.2154
vn -0.8198 0.5512 -0.1550
vn 0.4116 0.8478 0.3344
vn 0.4848 0.7986 0.3567
vn 0.5608 0.7226 0.4042
vn -0.4292 0.8400 0.3319
vn -0.4552 0.8132 0.3627
vn -0.4479 0.8240 0.3471
vn 0.2705 0.9178 0.2907
vn 0.3565 0.8842 0.3018
vn -0.5019 0.7878 0.3571
vn 0.0132 0.9029 -0.4297
vn 0.0676 0.8656 -0.4961
vn 0.0903 0.8273 -0.5544
vn 0.1824 0.8406 0.5100
vn 0.0651 0.8603 0.5056
vn 0.0754 0.8718 0.4841
vn -0.0420 0.9048 -0.4237
vn 0.0116 0.9227 -0.3853
vn 0.3119 0.8175 0.4842
vn 0.1858 0.8335 0.5203
vn -0.5246 0.8100 0.2622
vn 0.1805 0.7977 -0.5754
vn 0.5193 0.8100 -0.2724
vn -0.1692 0.7977 0.5789
vn 0.0966 0.7771 -0.6220
vn 0.1408 0.6435 -0.7524
vn 0.1129 0.5939 -0.7966
vn 0.6944 0.5356 0.4806
vn 0.6223 0.6084 0.4925
vn 0.5593 0.6114 0.5598
vn 0.7828 0.4233 0.4560
vn 0.7301 0.5302 0.4311
vn 0.0241 0.6718 -0.7403
vn 0.1138 0.7264 -0.6777
vn -0.6314 0.6503 -0.4225
vn 0.7558 0.6339 -0.1639
vn 0.6460 0.6569 0.3889
vn 0.6571 0.5371 0.5289
vn 0.6820 0.5029 0.5311
vn -0.6635 0.5504 0.5069
vn -0.7201 0.5791 0.3822
vn -0.6626 0.5810 0.4726
vn 0.7168 0.6316 0.2956
vn 0.6492 0.6339 0.4204
vn -0.6201 0.5002 0.6044
vn -0.5320 0.6683 0.5199
vn -0.6263 0.5163 0.5841
vn -0.6247 0.4642 0.6279
vn -0.3473 0.6342 -0.6908
vn -0.2855 0.7013 -0.6532
vn -0.2042 0.7118 -0.6720
vn -0.4129 0.5356 -0.7367
vn -0.3943 0.6284 -0.6706
vn -0.5372 0.5301 0.6561
vn -0.5708 0.6157 0.5432
vn -0.5644 0.7633 0.3144
vn 0.3127 0.6538 -0.6890
vn -0.2954 0.8100 0.5066
vn -0.1640 0.7977 -0.5804
vn 0.5644 0.7431 -0.3595
vn -0.2451 0.7275 0.6409
vn -0.1695 0.7619 -0.6251
vn -0.1318 0.7121 -0.6896
vn -0.1389 0.6884 -0.7119
vn 0.5665 0.8064 0.1695
vn 0.5322 0.8285 0.1741
vn 0.6083 0.7724 0.1824
vn 0.6816 0.7078 0.1857
vn -0.2038 0.7896 -0.5788
vn -0.1596 0.7660 -0.6228
vn -0.4874 0.8100 -0.3261
vn 0.5894 0.7977 -0.1278
vn 0.0513 0.8100 0.5842
vn -0.4689 0.7977 -0.3792
vn 0.5518 0.8100 0.1985
vn -0.5410 0.7977 0.2666
vn 0.3599 0.8474 0.3905
vn -0.6371 0.7690 -0.0519
vn -0.4749 0.8642 -0.1662
vn 0.5862 0.8099 0.0198
vn 0.4097 0.8100 -0.4196
vn 0.0179 0.7977 0.6028
vn 0.3886 0.8554 -0.3425
vn 0.4421 0.8432 -0.3057
vn 0.4315 0.8508 -0.3000
vn -0.1273 0.8191 0.5593
vn -0.1464 0.7527 0.6419
vn -0.1286 0.8370 0.5318
vn -0.1025 0.7835 0.6129
vn 0.3342 0.8682 -0.3667
vn 0.3982 0.8493 -0.3466
vn 0.7343 0.5616 -0.3813
vn -0.0914 0.7714 0.6298
vn -0.7978 0.5658 0.2083
vn -0.8399 0.5206 0.1537
vn -0.8420 0.5170 0.1544
vn 0.1779 0.8051 -0.5658
vn 0.2269 0.8374 -0.4973
vn 0.2564 0.8325 -0.4911
vn -0.7604 0.5996 0.2495
vn -0.8052 0.5593 0.1972
vn 0.1550 0.7498 -0.6432
vn 0.1531 0.8121 -0.5630
vn 0.3164 0.7096 0.6296
vn 0.2165 0.7167 0.6630
vn 0.2098 0.7514 0.6256
vn -0.5371 0.7339 -0.4159
vn -0.4421 0.7509 -0.4906
vn -0.4417 0.7452 -0.4996
vn -0.6290 0.7006 -0.3368
vn -0.5529 0.7267 -0.4075
vn 0.4320 0.6909 0.5797
vn 0.2530 0.7094 0.6578
vn -0.0941 0.4312 -0.8974
vn -0.0095 0.3901 -0.9207
vn 0.0025 0.3625 -0.9320
vn 0.0793 0.9927 0.0914
vn 0.0445 0.9962 0.0751
vn 0.1155 0.9857 0.1230
vn 0.1779 0.9712 0.1586
vn -0.1597 0.4405 -0.8834
vn -0.0935 0.4413 -0.8925
vn -0.0469 0.5671 0.8223
vn -0.1286 0.5224 0.8430
vn -0.1400 0.4955 0.8573
vn -0.1493 0.9668 -0.2074
vn -0.1167 0.9752 -0.1881
vn -0.1815 0.9529 -0.2428
vn -0.2409 0.9274 -0.2863
vn 0.0157 0.5826 0.8126
vn -0.0506 0.5755 0.8162
vn -0.0828 0.9910 -0.1054
vn -0.0460 0.9854 -0.1641
vn -0.0501 0.9808 -0.1886
vn 0.6199 0.4693 0.6289
vn 0.5885 0.4878 0.6448
vn 0.6578 0.4268 0.6207
vn 0.7387 0.3384 0.5829
vn -0.1205 0.9907 -0.0626
vn -0.0800 0.9921 -0.0970
vn 0.2267 0.8746 -0.4286
vn 0.3851 0.8497 -0.3601
vn 0.4146 0.8277 -0.3783
vn -0.2205 0.8074 0.5472
vn -0.3539 0.8043 0.4772
vn -0.3676 0.7913 0.4886
vn -0.0904 0.7362 0.6706
vn -0.2278 0.8456 0.4828
vn 0.0620 0.8259 -0.5604
vn 0.2195 0.8986 -0.3800
vn 0.0619 0.8861 -0.4594
vn 0.2294 0.8413 -0.4895
vn 0.2428 0.8176 -0.5221
vn 0.1876 0.7697 0.6103
vn 0.0374 0.7861 0.6170
vn 0.0303 0.7735 0.6330
vn 0.3605 0.6691 0.6499
vn 0.1561 0.8145 0.5587
vn -0.1469 0.8660 -0.4780
vn 0.0869 0.9055 -0.4153
vn -0.7255 0.6424 -0.2469
vn -0.6713 0.6503 -0.3557
vn -0.6434 0.6886 -0.3344
vn 0.7386 0.6696 -0.0781
vn 0.7236 0.6885 0.0497
vn 0.7294 0.6817 0.0578
vn 0.7447 0.6331 -0.2113
vn 0.7424 0.6624 -0.1005
vn -0.7677 0.6274 -0.1303
vn -0.6892 0.6469 -0.3264
vn -0.3738 0.9050 0.2030
vn -0.2122 0.9187 0.3330
vn -0.3932 0.9102 0.1303
vn 0.2743 0.5100 -0.8152
vn 0.2533 0.4717 -0.8446
vn 0.2951 0.4897 -0.8205
vn -0.3086 0.9499 0.0492
vn -0.2588 0.9541 -0.1506
vn -0.2563 0.9265 0.2757
vn 0.2676 0.5512 -0.7903
vn -0.3884 0.8478 0.3610
vn -0.4207 0.7985 0.4305
vn -0.4783 0.7226 0.4992
vn -0.2690 0.8400 -0.4712
vn -0.2959 0.8129 -0.5016
vn -0.2814 0.8239 -0.4919
vn -0.3255 0.9178 0.2274
vn -0.3484 0.8843 0.3110
vn -0.2838 0.7878 -0.5467
vn 0.4237 0.9029 0.0729
vn 0.4819 0.8656 0.1360
vn 0.5364 0.8273 0.1667
vn -0.5304 0.8406 0.1096
vn -0.5098 0.8602 -0.0059
vn -0.4899 0.8718 0.0073
vn 0.4255 0.9048 0.0174
vn 0.3799 0.9227 0.0650
vn -0.5229 0.8175 0.2415
vn -0.5410 0.8336 0.1116
vn 0.3622 0.3840 -0.8493
vn -0.8461 0.5231 0.1025
vn 0.5886 0.5492 0.5933
vn 0.5051 0.5112 0.6954
vn 0.4853 0.5634 0.6686
vn 0.2022 0.5597 -0.8037
vn 0.6855 0.4969 0.5322
vn -0.6981 0.5058 0.5067
vn 0.7998 0.3758 0.4681
vn 0.0860 0.8043 -0.5879
vn 0.0931 0.8399 -0.5347
vn 0.0982 0.8263 -0.5546
vn 0.0972 0.6374 -0.7644
vn -0.5482 0.7866 0.2841
vn 0.5682 0.8213 0.0513
vn 0.7196 0.6928 0.0471
vn 0.6515 0.7565 0.0576
vn 0.6627 0.7488 0.0079
vn -0.4014 0.8711 -0.2829
vn 0.3507 0.6006 0.7186
vn -0.6803 0.7290 -0.0760
vn -0.2451 0.7111 0.6590
vn 0.4786 0.6456 -0.5951
vn 0.0873 0.9905 -0.1062
vn 0.0624 0.9969 -0.0471
vn 0.0772 0.9948 -0.0666
vn 0.1717 0.9506 -0.2587
vn -0.8551 0.4365 0.2798
vn -0.1924 0.9629 0.1893
vn -0.1622 0.9776 0.1341
vn -0.1788 0.9721 0.1515
vn -0.2955 0.8951 0.3338
vn 0.8054 0.5788 -0.1274
vn 0.5331 0.4759 -0.6995
vn 0.5583 0.5123 -0.6526
vn 0.5529 0.4955 -0.6699
vn 0.4452 0.2661 -0.8550
vn -0.0490 0.9904 0.1293
vn 0.7502 0.6602 -0.0380
vn -0.6202 0.7836 0.0371
vn 0.6387 0.5779 -0.5080
vn -0.4888 0.8320 0.2623
vn -0.3060 0.6446 -0.7006
vn 0.0752 0.5782 0.8124
vn 0.2253 0.9073 0.3550
vn -0.8504 0.5024 -0.1565
vn -0.8688 0.4772 -0.1322
vn -0.8708 0.4733 -0.1328
vn -0.5038 0.7664 0.3985
vn -0.8135 0.5722 -0.1035
vn -0.4290 0.8419 0.3274
vn -0.4658 0.8055 0.3662
vn -0.4520 0.8153 0.3618
vn 0.2142 0.9394 0.2677
vn -0.5552 0.7364 0.3866
vn -0.0613 0.8949 -0.4421
vn 0.3097 0.8196 0.4820
vn 0.7906 0.3840 0.4769
vn 0.0163 0.5232 -0.8521
vn -0.6694 0.5492 0.5003
vn -0.7589 0.5111 0.4034
vn -0.7296 0.5634 0.3876
vn 0.7677 0.5597 0.3120
vn -0.6224 0.4969 0.6048
vn -0.4047 0.5058 -0.7618
vn -0.5748 0.3758 0.7269
vn 0.5702 0.8043 0.1670
vn 0.5164 0.8400 0.1665
vn 0.5355 0.8263 0.1745
vn 0.7434 0.6374 0.2026
vn -0.2051 0.7866 -0.5824
vn -0.1299 0.8213 0.5555
vn -0.1468 0.6928 0.7060
vn -0.1477 0.7565 0.6371
vn -0.1000 0.7489 0.6551
vn 0.3360 0.8711 -0.3581
vn -0.7604 0.6006 0.2473
vn 0.1695 0.7290 -0.6632
vn -0.6185 0.7111 -0.3345
vn 0.5227 0.6456 0.5567
vn 0.0931 0.9905 0.1012
vn 0.0379 0.9969 0.0684
vn 0.0553 0.9948 0.0858
vn 0.2323 0.9506 0.2061
vn -0.1580 0.4365 -0.8857
vn -0.1606 0.9629 -0.2168
vn -0.1104 0.9776 -0.1794
vn -0.1252 0.9721 -0.1982
vn -0.2894 0.8951 -0.3391
vn 0.0141 0.5788 0.8153
vn 0.6185 0.4759 0.6253
vn 0.5685 0.5124 0.6436
vn 0.5865 0.4955 0.6407
vn 0.7847 0.2661 0.5599
vn -0.1212 0.9904 -0.0665
vn -0.0669 0.6602 0.7481
vn 0.0496 0.7836 -0.6193
vn 0.4142 0.5779 0.7031
vn -0.1917 0.8320 -0.5206
vn 0.7365 0.6446 -0.2052
vn -0.8150 0.5782 -0.0386
vn -0.3828 0.9073 0.1737
vn 0.2733 0.5024 -0.8203
vn 0.2518 0.4770 -0.8421
vn 0.2527 0.4734 -0.8438
vn -0.3245 0.7664 -0.5544
vn 0.2158 0.5722 -0.7912
vn -0.2646 0.8419 -0.4704
vn -0.2980 0.8051 -0.5128
vn -0.2954 0.8150 -0.4984
vn -0.2949 0.9394 0.1748
vn -0.3056 0.7364 -0.6036
vn 0.4463 0.8949 0.0009
vn -0.5204 0.8196 0.2396
s 1
f 1/1/1 2/2/1 3/3/2
f 4/4/3 5/5/3 6/6/3
f 7/7/4 8/8/5 9/9/6
f 10/10/7 1/11/8 7/7/4
f 10/10/7 2/12/9 11/13/10
f 12/14/11 13/15/12 2/12/13
f 14/16/14 3/17/15 13/15/12
f 9/18/16 3/17/15 15/19/17
f 16/20/18 7/7/4 9/9/6
f 17/21/19 10/10/7 7/7/4
f 18/22/20 10/10/7 19/23/21
f 20/24/22 12/14/11 18/22/20
f 21/25/23 14/16/14 20/24/22
f 21/25/23 9/18/16 15/19/17
f 5/26/24 16/20/18 6/27/25
f 22/28/26 17/21/19 5/26/27
f 22/28/26 18/22/20 19/23/21
f 23/29/28 20/24/22 18/22/20
f 4/30/29 21/25/23 20/24/22
f 6/31/25 21/25/23 24/32/30
f 3/3/2 8/33/1 1/1/1
f 1/1/1 11/34/2 2/2/1
f 2/2/1 13/35/31 3/3/2
f 6/6/3 24/36/3 4/4/3
f 4/4/3 23/37/3 22/38/3
f 22/38/3 5/5/3 4/4/3
f 7/7/4 1/11/5 8/8/5
f 10/10/7 11/13/10 1/11/8
f 10/10/7 12/14/11 2/12/9
f 12/14/11 14/16/14 13/15/12
f 14/16/14 15/19/17 3/17/15
f 9/18/16 8/39/32 3/17/15
f 16/20/18 17/21/19 7/7/4
f 17/21/19 19/23/21 10/10/7
f 18/22/20 12/14/11 10/10/7
f 20/24/22 14/16/14 12/14/11
f 21/25/23 15/19/17 14/16/14
f 21/25/23 16/40/18 9/18/16
f 5/26/24 17/21/19 16/20/18
f 22/28/26 19/23/21 17/21/19
f 22/28/26 23/29/33 18/22/20
f 23/29/28 4/30/29 20/24/22
f 4/30/29 24/32/30 21/25/23
f 6/31/25 16/40/18 21/25/23
f 25/41/34 26/42/34 27/43/34
f 28/44/35 29/45/35 25/46/35
f 30/47/36 31/48/36 32/49/36
f 30/50/37 33/51/37 34/52/37
f 35/53/38 36/54/39 37/55/40
f 35/56/41 38/57/42 39/58/43
f 35/56/41 40/59/44 41/60/45
f 39/61/46 42/62/47 35/53/38
f 43/63/48 44/64/48 45/65/48
f 46/66/49 47/67/49 43/68/49
f 43/68/49 48/69/49 46/66/49
f 47/70/48 49/71/48 43/63/48
f 50/72/50 51/73/51 52/74/52
f 53/75/53 54/76/54 50/77/55
f 54/78/56 55/79/57 50/80/50
f 50/77/55 56/81/58 53/75/53
f 57/82/59 58/83/60 59/84/61
f 57/85/62 60/86/63 61/87/64
f 57/85/62 62/88/65 63/89/66
f 61/90/67 64/91/68 57/82/59
f 65/92/69 66/93/69 67/94/69
f 65/95/70 68/96/70 69/97/70
f 70/98/71 71/99/71 72/100/71
f 70/101/72 73/102/72 74/103/72
f 75/104/73 76/105/73 77/106/73
f 78/107/74 75/108/74 77/109/74
f 79/110/75 80/111/76 81/112/77
f 82/113/78 83/114/79 79/115/80
f 79/115/80 84/116/81 82/113/78
f 83/117/82 85/118/83 79/110/75
f 86/119/84 87/120/84 88/121/84
f 86/122/85 89/123/85 90/124/85
f 91/125/86 92/126/86 93/127/86
f 93/128/87 94/129/87 91/130/88
f 95/131/89 96/132/89 97/133/89
f 97/134/90 98/135/90 95/136/90
f 99/137/91 100/138/91 101/139/91
f 102/140/92 99/141/92 101/142/92
f 103/143/93 104/144/93 105/145/93
f 106/146/94 103/147/94 105/148/94
f 107/149/95 108/150/95 109/151/95
f 110/152/96 107/153/96 109/154/96
f 111/155/97 112/156/98 113/157/99
f 114/158/100 115/159/101 111/160/102
f 111/160/102 116/161/103 114/158/100
f 111/155/97 117/162/104 118/163/105
f 119/164/106 120/165/106 121/166/106
f 119/167/107 122/168/107 123/169/107
f 124/170/108 125/171/109 126/172/110
f 124/173/111 127/174/112 128/175/113
f 124/170/108 129/176/114 130/177/115
f 124/173/111 131/178/116 132/179/117
f 133/180/118 134/181/119 135/182/120
f 133/183/121 136/184/122 137/185/123
f 133/183/121 138/186/124 139/187/125
f 133/180/118 140/188/126 141/189/127
f 142/190/128 143/191/129 144/192/130
f 145/193/131 146/194/132 142/195/133
f 142/195/133 147/196/134 145/193/131
f 146/197/135 148/198/136 142/190/128
f 149/199/137 150/200/138 151/201/139
f 152/202/140 153/203/141 149/204/142
f 149/204/142 154/205/143 152/202/140
f 153/206/144 155/207/145 149/199/137
f 156/208/146 157/209/147 158/210/148
f 159/211/149 160/212/150 156/213/151
f 156/213/151 161/214/152 159/211/149
f 160/215/153 162/216/154 156/217/146
f 163/218/155 164/219/156 165/220/157
f 163/221/158 166/222/159 167/223/160
f 163/221/158 168/224/161 169/225/162
f 163/218/155 170/226/163 171/227/164
f 172/228/165 173/229/166 174/230/167
f 172/231/168 175/232/169 176/233/170
f 172/231/168 177/234/171 178/235/172
f 172/228/165 179/236/173 180/237/174
f 181/238/175 182/239/176 183/240/177
f 181/241/178 184/242/179 185/243/180
f 181/241/178 186/244/181 187/245/182
f 181/238/175 188/246/183 189/247/184
f 190/248/185 191/249/186 192/250/187
f 193/251/188 194/252/189 195/253/190
f 195/254/191 196/255/192 191/249/193
f 190/256/194 193/251/188 195/253/190
f 197/257/195 198/258/196 199/259/197
f 200/260/198 201/261/199 197/262/200
f 201/263/201 202/264/202 197/257/195
f 197/262/200 203/265/203 200/260/198
f 204/266/36 205/267/36 206/268/36
f 207/269/37 204/270/37 206/271/37
f 208/272/84 209/273/84 210/274/84
f 211/275/85 212/276/85 208/277/85
f 213/278/86 214/279/86 215/280/86
f 213/281/88 216/282/88 217/283/88
f 218/284/204 219/285/205 220/286/206
f 218/287/207 221/288/208 222/289/209
f 218/284/204 223/290/210 224/291/211
f 218/287/207 225/292/212 226/293/213
f 227/294/214 228/295/214 229/296/214
f 229/297/215 230/298/215 227/299/215
f 231/300/216 232/301/216 233/302/216
f 231/303/217 234/304/217 235/305/217
f 236/306/218 237/307/219 238/308/220
f 236/306/221 239/309/222 240/310/223
f 236/306/221 241/311/224 242/312/225
f 240/310/226 243/313/227 236/306/218
f 244/314/228 245/315/228 246/316/228
f 247/317/229 248/318/229 244/319/229
f 244/319/229 249/320/229 247/317/229
f 248/321/228 250/322/228 244/314/228
f 251/323/230 252/324/231 253/325/232
f 254/326/233 255/327/234 251/328/235
f 255/329/236 256/330/237 251/323/230
f 251/328/235 257/331/238 254/326/233
f 258/332/239 259/333/240 260/334/241
f 258/332/242 261/335/243 262/336/244
f 258/332/242 263/337/245 264/338/246
f 262/339/247 265/340/248 258/341/239
f 266/342/249 267/343/249 268/344/249
f 269/345/250 266/346/250 268/347/250
f 270/348/251 271/349/251 272/350/251
f 273/351/252 274/352/252 270/353/252
f 275/354/253 276/355/253 277/356/253
f 278/357/254 275/358/254 277/359/254
f 279/360/255 280/361/256 281/362/257
f 282/363/258 283/364/259 279/365/260
f 279/365/260 284/366/261 282/363/258
f 283/367/262 285/368/263 279/369/255
f 286/370/264 287/371/264 288/372/264
f 289/373/265 290/374/265 286/375/265
f 291/376/266 292/377/266 293/378/266
f 293/379/267 294/380/267 291/381/267
f 295/382/268 296/383/268 297/384/268
f 298/385/269 295/386/269 297/387/269
f 299/388/270 300/389/270 301/390/270
f 302/391/271 299/392/271 301/393/271
f 303/394/272 304/395/272 305/396/272
f 306/397/273 303/398/273 305/399/273
f 307/400/274 308/401/274 309/402/274
f 309/403/275 310/404/275 307/405/275
f 311/406/276 312/407/277 313/408/278
f 314/409/279 315/410/280 311/411/281
f 311/411/281 316/412/282 314/409/279
f 311/406/276 317/413/283 318/414/284
f 319/415/285 320/416/285 321/417/285
f 322/418/286 323/419/286 319/420/286
f 324/421/287 325/422/288 326/423/289
f 324/424/290 327/425/291 328/426/292
f 324/427/287 329/428/293 330/429/294
f 324/424/290 331/430/295 332/431/296
f 333/432/297 334/433/298 335/434/299
f 333/435/300 336/436/301 337/437/302
f 333/435/300 338/438/303 339/439/304
f 333/432/297 340/440/305 341/441/306
f 342/442/307 343/443/308 344/444/309
f 345/445/310 346/446/311 342/447/312
f 342/447/312 347/448/313 345/445/310
f 346/449/314 348/450/315 342/442/307
f 349/451/316 350/452/317 351/453/318
f 352/454/319 353/455/320 349/456/321
f 349/456/321 354/457/322 352/454/319
f 353/458/323 355/459/324 349/451/316
f 356/460/325 357/461/326 358/462/327
f 359/463/328 360/464/329 356/465/330
f 356/465/330 361/466/331 359/463/328
f 360/467/332 362/468/333 356/460/325
f 363/469/334 364/470/335 365/471/336
f 363/472/337 366/473/338 367/474/339
f 363/472/337 368/475/340 369/476/341
f 363/469/334 370/477/342 371/478/343
f 372/479/344 373/480/345 374/481/346
f 372/482/347 375/483/348 376/484/349
f 372/482/347 377/485/350 378/486/351
f 372/479/344 379/487/352 380/488/353
f 381/489/354 382/490/355 383/491/356
f 381/492/357 384/493/358 385/494/359
f 381/492/357 386/495/360 387/496/361
f 381/489/354 388/497/362 389/498/363
f 390/499/364 391/500/365 392/501/366
f 393/502/367 394/503/368 395/504/369
f 395/505/370 396/506/371 391/507/372
f 390/508/373 393/502/367 395/504/369
f 397/509/374 398/510/375 399/511/376
f 400/512/377 401/513/378 397/514/379
f 401/515/380 402/516/381 397/509/374
f 397/514/379 403/517/382 400/512/377
f 404/518/216 405/519/216 406/520/216
f 407/521/217 404/522/217 406/523/217
f 408/524/264 409/525/264 410/526/264
f 411/527/265 408/528/265 410/529/265
f 412/530/266 413/531/266 414/532/266
f 412/533/267 415/534/267 416/535/267
f 417/536/383 418/537/384 419/538/385
f 417/539/386 420/540/387 421/541/388
f 417/536/383 422/542/389 423/543/390
f 417/539/386 424/544/391 425/545/392
f 25/41/34 29/546/34 26/42/34
f 28/44/35 426/547/35 29/45/35
f 30/47/36 34/548/36 31/48/36
f 30/50/37 427/549/37 33/51/37
f 35/53/38 42/62/47 36/54/39
f 35/56/41 41/60/45 38/57/42
f 35/56/41 37/550/393 40/59/44
f 39/61/46 428/551/394 42/62/47
f 43/63/48 49/71/48 44/64/48
f 46/66/49 429/552/49 47/67/49
f 43/68/49 45/553/49 48/69/49
f 47/70/48 430/554/48 49/71/48
f 50/72/50 55/555/57 51/73/51
f 53/75/395 431/556/396 54/76/397
f 54/78/56 432/557/398 55/79/57
f 50/77/55 52/558/399 56/81/58
f 57/82/59 64/91/68 58/83/60
f 57/85/62 63/89/66 60/86/63
f 57/85/62 59/559/400 62/88/65
f 61/90/67 433/560/401 64/91/68
f 65/92/69 69/561/69 66/93/69
f 65/95/70 434/562/70 68/96/70
f 70/98/71 74/563/71 71/99/71
f 70/101/72 435/564/72 73/102/72
f 75/104/73 436/565/73 76/105/73
f 78/107/74 437/566/74 75/108/74
f 79/110/75 85/118/83 80/111/76
f 82/113/402 438/567/403 83/114/404
f 79/115/80 81/568/405 84/116/81
f 83/117/82 439/569/406 85/118/83
f 86/119/84 90/570/84 87/120/84
f 86/122/85 440/571/85 89/123/85
f 91/125/86 441/572/86 92/126/86
f 93/128/87 442/573/87 94/129/87
f 95/131/89 443/574/89 96/132/89
f 97/134/90 444/575/90 98/135/90
f 99/137/91 445/576/91 100/138/91
f 102/140/92 446/577/92 99/141/92
f 103/143/93 447/578/93 104/144/93
f 106/146/94 448/579/94 103/147/94
f 107/149/95 449/580/95 108/150/95
f 110/152/96 450/581/96 107/153/96
f 111/155/97 118/163/105 112/156/98
f 114/158/407 451/582/408 115/159/409
f 111/160/102 113/583/410 116/161/103
f 111/155/97 115/584/411 117/162/104
f 119/164/106 123/585/106 120/165/106
f 119/167/107 452/586/107 122/168/107
f 124/170/108 130/177/115 125/171/109
f 124/173/111 132/179/117 127/174/112
f 124/170/108 128/587/412 129/176/114
f 124/173/111 126/588/413 131/178/116
f 133/180/118 141/189/127 134/181/119
f 133/183/121 139/187/125 136/184/122
f 133/183/121 135/589/414 138/186/124
f 133/180/118 137/590/415 140/188/126
f 142/190/128 148/198/136 143/191/129
f 145/193/416 453/591/417 146/194/418
f 142/195/133 144/592/419 147/196/134
f 146/197/135 454/593/420 148/198/136
f 149/199/137 155/207/145 150/200/138
f 152/202/421 455/594/422 153/203/423
f 149/204/142 151/595/424 154/205/143
f 153/206/144 456/596/425 155/207/145
f 156/208/146 162/597/154 157/209/147
f 159/211/426 457/598/427 160/212/428
f 156/213/151 158/599/429 161/214/152
f 160/215/153 458/600/430 162/216/154
f 163/218/155 171/227/164 164/219/156
f 163/221/158 169/225/162 166/222/159
f 163/221/158 165/601/431 168/224/161
f 163/218/155 167/602/432 170/226/163
f 172/228/165 180/237/174 173/229/166
f 172/231/168 178/235/172 175/232/169
f 172/231/168 174/603/433 177/234/171
f 172/228/165 176/604/434 179/236/173
f 181/238/175 189/247/184 182/239/176
f 181/241/178 187/245/182 184/242/179
f 181/241/178 183/605/435 186/244/181
f 181/238/175 185/606/436 188/246/183
f 190/248/437 195/254/191 191/249/193
f 193/251/438 459/607/439 194/252/440
f 195/254/191 194/608/441 196/255/192
f 190/256/194 460/609/442 193/251/188
f 197/257/195 202/264/202 198/258/196
f 200/260/443 461/610/444 201/261/445
f 201/263/201 462/611/446 202/264/202
f 197/262/200 199/612/447 203/265/203
f 204/266/36 463/613/36 205/267/36
f 207/269/37 464/614/37 204/270/37
f 208/272/84 212/615/84 209/273/84
f 211/275/85 465/616/85 212/276/85
f 213/278/86 217/617/86 214/279/86
f 213/281/88 466/618/88 216/282/88
f 218/284/204 224/291/211 219/285/205
f 218/287/207 226/293/213 221/288/208
f 218/284/204 222/619/448 223/290/210
f 218/287/207 220/620/449 225/292/212
f 227/294/214 467/621/214 228/295/214
f 229/297/215 468/622/215 230/298/215
f 231/300/216 235/623/216 232/301/216
f 231/303/217 469/624/217 234/304/217
f 236/306/218 243/313/227 237/307/219
f 236/306/221 242/312/225 239/309/222
f 236/306/221 238/308/450 241/311/224
f 240/310/226 470/625/451 243/313/227
f 244/314/228 250/322/228 245/315/228
f 247/317/229 471/626/229 248/318/229
f 244/319/229 246/627/229 249/320/229
f 248/321/228 472/628/228 250/322/228
f 251/323/230 256/330/237 252/324/231
f 254/326/452 473/629/453 255/327/454
f 255/329/236 474/630/455 256/330/237
f 251/328/235 253/631/456 257/331/238
f 258/332/239 265/632/248 259/333/240
f 258/332/242 264/338/246 261/335/243
f 258/332/242 260/334/457 263/337/245
f 262/339/247 475/633/458 265/340/248
f 266/342/249 476/634/249 267/343/249
f 269/345/250 477/635/250 266/346/250
f 270/348/251 274/636/251 271/349/251
f 273/351/252 478/637/252 274/352/252
f 275/354/253 479/638/253 276/355/253
f 278/357/254 480/639/254 275/358/254
f 279/360/255 285/640/263 280/361/256
f 282/363/459 481/641/460 283/364/461
f 279/365/260 281/642/462 284/366/261
f 283/367/262 482/643/463 285/368/263
f 286/370/264 290/644/264 287/371/264
f 289/373/265 483/645/265 290/374/265
f 291/376/266 484/646/266 292/377/266
f 293/379/267 485/647/267 294/380/267
f 295/382/268 486/648/268 296/383/268
f 298/385/269 487/649/269 295/386/269
f 299/388/270 488/650/270 300/389/270
f 302/391/271 489/651/271 299/392/271
f 303/394/272 490/652/272 304/395/272
f 306/397/273 491/653/273 303/398/273
f 307/400/274 492/654/274 308/401/274
f 309/403/275 493/655/275 310/404/275
f 311/406/276 318/414/284 312/407/277
f 314/409/464 494/656/465 315/410/466
f 311/411/281 313/657/467 316/412/282
f 311/406/276 315/658/468 317/413/283
f 319/415/285 323/659/285 320/416/285
f 322/418/286 495/660/286 323/419/286
f 324/421/287 330/661/294 325/422/288
f 324/424/290 332/431/296 327/425/291
f 324/427/287 328/662/469 329/428/293
f 324/424/290 326/663/470 331/430/295
f 333/432/297 341/441/306 334/433/298
f 333/435/300 339/439/304 336/436/301
f 333/435/300 335/664/471 338/438/303
f 333/432/297 337/665/472 340/440/305
f 342/442/307 348/450/315 343/443/308
f 345/445/473 496/666/474 346/446/475
f 342/447/312 344/667/476 347/448/313
f 346/449/314 497/668/477 348/450/315
f 349/451/316 355/459/324 350/452/317
f 352/454/478 498/669/479 353/455/480
f 349/456/321 351/670/481 354/457/322
f 353/458/323 499/671/482 355/459/324
f 356/460/325 362/468/333 357/461/326
f 359/463/483 500/672/484 360/464/485
f 356/465/330 358/673/486 361/466/331
f 360/467/332 501/674/487 362/468/333
f 363/469/334 371/478/343 364/470/335
f 363/472/337 369/476/341 366/473/338
f 363/472/337 365/675/488 368/475/340
f 363/469/334 367/676/489 370/477/342
f 372/479/344 380/488/353 373/480/345
f 372/482/347 378/486/351 375/483/348
f 372/482/347 374/677/490 377/485/350
f 372/479/344 376/678/491 379/487/352
f 381/489/354 389/498/363 382/490/355
f 381/492/357 387/496/361 384/493/358
f 381/492/357 383/679/492 386/495/360
f 381/489/354 385/680/493 388/497/362
f 390/499/494 395/681/370 391/500/372
f 393/502/495 502/682/496 394/503/497
f 395/505/370 394/683/498 396/506/371
f 390/508/373 503/684/499 393/502/367
f 397/509/374 402/516/381 398/510/375
f 400/512/500 504/685/501 401/513/502
f 401/515/380 505/686/503 402/516/381
f 397/514/379 399/687/504 403/517/382
f 404/518/216 506/688/216 405/519/216
f 407/521/217 507/689/217 404/522/217
f 408/524/264 508/690/264 409/525/264
f 411/527/265 509/691/265 408/528/265
f 412/530/266 416/692/266 413/531/266
f 412/533/267 510/693/267 415/534/267
f 417/536/383 423/543/390 418/537/384
f 417/539/386 425/545/392 420/540/387
f 417/536/383 421/694/505 422/542/389
f 417/539/386 419/695/506 424/544/391
